<?xml version="1.0" encoding="UTF-8"?>
<svg id="Layer_1" xmlns="http://www.w3.org/2000/svg" xmlns:xlink="http://www.w3.org/1999/xlink" version="1.1" viewBox="0 0 200 180">
  <!-- Generator: Adobe Illustrator 29.1.0, SVG Export Plug-In . SVG Version: 2.1.0 Build 142)  -->
  <defs>
    <style>
      .st0 {
        fill: url(#linear-gradient);
      }

      .st1 {
        isolation: isolate;
      }

      .st2 {
        fill: #fff;
      }
    </style>
    <linearGradient id="linear-gradient" x1="139.7" y1="811.7" x2="82.3" y2="912.5" gradientTransform="translate(0 -798)" gradientUnits="userSpaceOnUse">
      <stop offset="0" stop-color="#f498aa"/>
      <stop offset="1" stop-color="#d1809e"/>
    </linearGradient>
  </defs>
  <path class="st0" d="M172,49.9c17.5,16.6,28.1,43.9,22.1,66.1-6.3,22.2-29.1,39-51.8,45.9-22.6,6.6-44.9,3.1-68.5-5.4-23.6-8.4-48.4-21.8-61.1-46.7C0,84.9-.7,48.4,16.9,31.9c17.6-16.6,53.3-13.1,83.4-8.5s54.3,10.2,71.8,26.8h0v-.3s-.1,0-.1,0Z"/>
  <g class="st1">
    <g class="st1">
      <g class="st1">
        <path class="st2" d="M38.3,76.3c-.3,0-.6,0-.8-.3h0c1.4-.6,2.2-1.7,2.2-10.7s0-4.7-1-5.1l-.6-.3v-1c1,0,1.7-.3,1.7-1.4,0-3.6,1.9-5.2,4.7-5.2s3.8,1.1,3.8,2.7h0c-.5-.8-1.8-1.1-2.9-1.1s-2.9.6-2.9,3.3v1.8h1.7c1,0,1.3-.3,1.3-.3v.6c0,1-.5,1.1-1.3,1.1h-1.5v11c0,3.4-1.8,4.7-3.8,4.7h-.4l-.2.2Z"/>
        <path class="st2" d="M52.5,63.5v-.3c0-1.9-.5-3.1-2.3-3.1s-2.4.6-3.2,1.4h0c.4-1.5,2.3-2.9,4.3-2.9,3.3,0,3.8,2,3.8,4.1v4.3c0,.9,0,2.6,1.1,2.6s.9-.4.9-.4h0s-.6,1.5-2.6,1.5-1.9-.4-2-1.7h0c-.5.9-1.7,1.8-3.2,1.8s-3.2-1.4-3.2-3.2c0-3.4,3.8-4.5,6.4-4.5v.3h0,0ZM50.3,69.5c.8,0,2-.8,2-1.7v-3.4c-1,0-3.7.6-3.7,3.1s.8,1.9,1.5,1.9h.2Z"/>
        <path class="st2" d="M59.2,63.9v-8.2c0-2.2-.4-2.7-.4-2.7h0c1.5,0,3.1,0,3.1,1.7v9.3h0l.3-.3c3.1-3.1,3.8-3.7,4-4.6h1.3c.6,0,1.1,0,1.1.5,0,.9-2.4,2.3-4.6,4.3h0c1.1,1.5,4.1,5.6,6,7h0s-.5.4-1.9.4c-3.3,0-5.4-5.9-6.1-6.1h0v4.6c0,1.5-.6,1.7-1.5,1.7s-1.1,0-1.7-.3c.4-.3.6-4.7.6-7v-.3h-.2Z"/>
        <path class="st2" d="M71.7,64.3v-2.9c0-1,0-1.9-.5-2.3.4,0,.8-.3,1.1-.3,1,0,2,.5,2,1.5v5.7c0,2.3,0,3.6,1.9,3.6s2.8-2.9,2.8-4.8v-3.7c0-1.7-.4-2.2-.4-2.2.4,0,.8-.3,1.1-.3,1.1,0,2,.5,2,1.5v7c0,2.7,0,2.4,1.1,2.4s.9-.4.9-.4h0s-.6,1.5-2.6,1.5-1.9-.5-1.9-1.7,0-.3,0-.3h0s-.9,2-3.8,2-3.7-1.8-3.7-3.7v-3.2.3h-.3l.3.3Z"/>
        <path class="st2" d="M86,61.5v-5.9c0-2.2-.4-2.7-.4-2.7h0c1.5,0,3.1,0,3.1,1.7v13.7c0,.8.3,1.5,1,1.5s.9-.4.9-.4h0s-.6,1.5-2.6,1.5-2.2-.5-2.2-2v-7.5h.2Z"/>
        <path class="st2" d="M92.8,62.5c0-1.3-.3-2.1-1-2.4v-1c1,0,3.2-1.9,3.6-2.8h.5l-.5,2.8h1.9c1,0,1.3-.3,1.3-.3v.6c0,1-.5,1.1-1.3,1.1h-1.9v4.6c0,1.8.3,4.3,2,4.3s2.6-1.1,2.6-1.1h0s-.8,2.8-3.7,2.8-3.6-1.9-3.6-4.6v-4.2h0v.2Z"/>
        <path class="st2" d="M107.1,63.5v-.3c0-1.9-.5-3.1-2.3-3.1s-2.4.6-3.2,1.4h0c.4-1.5,2.3-2.9,4.3-2.9,3.3,0,3.8,2,3.8,4.1v4.3c0,.9,0,2.6,1.1,2.6s.9-.4.9-.4h0s-.6,1.5-2.6,1.5-1.9-.4-2-1.7h0c-.5.9-1.7,1.8-3.2,1.8s-3.2-1.4-3.2-3.2c0-3.4,3.8-4.5,6.4-4.5v.3h0,0ZM103.1,57.2c1.9-1,2.9-3.4,3.2-4,1.3,0,1.8,1.1,1.8,1.1-.4,1.5-2.9,3.1-4.3,3.1s-.5,0-.8,0h0v-.3h.1ZM104.9,69.5c.8,0,2-.8,2-1.7v-3.4c-1,0-3.7.6-3.7,3.1s.8,1.9,1.5,1.9h.2Z"/>
        <path class="st2" d="M119.1,58.7c1,0,3.8.4,3.8,1.7s-.4,1.1-.8,1.5h0s-1.3-2.2-3.3-2.2-3.2,2.6-3.2,4.6,1.5,5,4,5,3.8-1.5,3.8-1.5h0s-1,3.3-4.8,3.3-5.6-2.6-5.6-5.9,2.6-6.6,6.4-6.6h-.3Z"/>
        <path class="st2" d="M126.1,65.2c0-5.4-.5-6.1-.5-6.1.4,0,.8-.3,1.1-.3,1,0,2,.5,2,1.5v7c0,1.7,0,2.4,1.1,2.4s.9-.4.9-.4h0s-.6,1.5-2.6,1.5-2.2-.5-2.2-1.9v-4.1.3h.2ZM125.7,55.3c0-.9.8-1.7,1.5-1.7s1.7.8,1.7,1.7-.8,1.5-1.7,1.5-1.5-.8-1.5-1.5Z"/>
        <path class="st2" d="M138.1,58.7c4,0,6,2.8,6,5.6s-2.2,6.9-6.3,6.9-6-2.9-6-6,2.2-6.5,6.3-6.5ZM138.1,70.2c2,0,3.1-2.7,3.1-5.4s-1.1-5-3.3-5-3.1,2.6-3.1,5,1.1,5.2,3.3,5.2h0v.2ZM135.4,57.2c1.9-1,2.9-3.4,3.2-4,1.3,0,1.8,1.1,1.8,1.1-.4,1.5-2.9,3.1-4.3,3.1s-.5,0-.8,0h0v-.3h.1Z"/>
        <path class="st2" d="M147.1,62.5c0-2-.1-2-1-2.4v-1c1,0,3.2-1.9,3.6-2.8h.5l-.5,2.8h1.9c1,0,1.3-.3,1.3-.3v.6c0,1-.5,1.1-1.3,1.1h-1.9v4.6c0,1.8.3,4.3,2,4.3s2.6-1.1,2.6-1.1h0s-.8,2.8-3.7,2.8-3.6-1.9-3.6-4.6v-4.2h.1v.2Z"/>
        <path class="st2" d="M155.6,73c.9,0,1.7-.6,1.7-1.5s-1.3-.6-1.3-1.9.6-1.5,1.5-1.5c1.3,0,1.8,1.1,1.8,2.4s-.9,3.3-2.8,3.3-1.8-.8-1.8-.8h.9Z"/>
      </g>
    </g>
    <g class="st1">
      <g class="st1">
        <path class="st2" d="M43.7,96.6h0s1.4,1.7,3.7,1.7,2-.8,2-1.7c0-2.4-6.1-2-6.1-6.1s2.2-3.4,4.3-3.4,3.6.4,3.6,1.3-.4,1.3-.9,1.7h0s-1.1-1.9-2.9-1.9-1.8.8-1.8,1.8c0,2.4,6.1,1.8,6.1,6s-2.3,3.6-4.5,3.6-4-.6-4-1.7.3-1,.5-1.3h0,.1Z"/>
        <path class="st2" d="M53.5,98.8c0-.3,0-.6.3-1,1.1-1.7,4.7-7.1,5.6-9.1h-4.8c-1.5,0-1-.9-1-1.8,0,0,1.1.3,4.8.3h4.3v.3c0,.3,0,.8-.4,1.1-2.3,3.3-4.3,6.9-5.7,8.9h0c1-.3,3.1-.3,4.7-.3s1.7.4,1.9,1.8h-9.8v-.4h0v.2Z"/>
        <path class="st2" d="M71.1,92v-.3c0-1.9-.5-3.1-2.3-3.1s-2.4.6-3.2,1.4h0c.4-1.5,2.3-2.9,4.3-2.9,3.3,0,3.8,2,3.8,4.1v4.3c0,.9,0,2.6,1.1,2.6s.9-.4.9-.4h0s-.6,1.5-2.6,1.5-1.9-.4-2-1.7h0c-.5.9-1.7,1.8-3.2,1.8s-3.2-1.4-3.2-3.2c0-3.4,3.8-4.5,6.4-4.5v.3h0,0ZM68.9,97.9c.8,0,2-.8,2-1.7v-3.4c-1,0-3.7.6-3.7,3.1s.8,1.9,1.5,1.9h.2Z"/>
        <path class="st2" d="M77.9,92.3v-8.2c0-2.2-.4-2.7-.4-2.7h0c1.5,0,3.1,0,3.1,1.7v9.3h0l.3-.3c3.1-3.1,3.8-3.7,4-4.6h1.3c.6,0,1.1,0,1.1.5,0,.9-2.4,2.3-4.6,4.3h0c1.1,1.5,4.1,5.6,6,7h0s-.5.4-1.9.4c-3.3,0-5.4-5.9-6.1-6.1h0v4.6c0,1.5-.6,1.7-1.5,1.7s-1.1,0-1.7-.3c.4-.3.6-4.7.6-7v-.3h-.2Z"/>
        <path class="st2" d="M90.5,93.5c0-5.4-.5-6.1-.5-6.1.4,0,.8-.3,1.1-.3,1,0,2,.5,2,1.5v7c0,1.7,0,2.4,1.1,2.4s.9-.4.9-.4h0s-.6,1.5-2.6,1.5-2.2-.5-2.2-1.9v-4.1.3h.2ZM90.1,83.6c0-.9.8-1.7,1.5-1.7s1.7.8,1.7,1.7-.8,1.5-1.7,1.5-1.5-.8-1.5-1.5Z"/>
        <path class="st2" d="M97.5,93.5c0-4.7-.5-6-.6-6.1.4,0,.8-.3,1.1-.3,1,0,1.9.5,1.9,1.5s0,.9,0,.9h0c.6-1.4,2.3-2.4,3.6-2.4s1.1.4,1.1.9,0,1.1-.3,1.7h0c-.8-.4-1.4-.6-1.9-.6-1.8,0-2.3,1.9-2.3,4.5,0,4.6.5,5.5.5,5.5-.6,0-1.1.3-1.7.3-.9,0-1.5-.4-1.5-1.8v-4.1h.1Z"/>
        <path class="st2" d="M112,92v-.3c0-1.9-.5-3.1-2.3-3.1s-2.4.6-3.2,1.4h0c.4-1.5,2.3-2.9,4.3-2.9,3.3,0,3.8,2,3.8,4.1v4.3c0,.9,0,2.6,1.1,2.6s.9-.4.9-.4h0s-.6,1.5-2.6,1.5-1.9-.4-2-1.7h0c-.5.9-1.7,1.8-3.2,1.8s-3.2-1.4-3.2-3.2c0-3.4,3.8-4.5,6.4-4.5v.3h0,0ZM108,85.6c1.9-1,2.9-3.4,3.2-4,1.3,0,1.8,1.1,1.8,1.1-.4,1.5-2.9,3.1-4.3,3.1s-.5,0-.8,0h0v-.3h.1ZM109.9,97.9c.8,0,2-.8,2-1.7v-3.4c-1,0-3.7.6-3.7,3.1s.8,1.9,1.5,1.9h.2Z"/>
        <path class="st2" d="M118.8,93.4v-3.6c0-2.3-.5-2.6-.5-2.6.4,0,.8-.3,1.1-.3,1,0,1.8.5,1.8,1.3s0,.6,0,.6h0c.5-1.1,2.4-2,4.1-2,3.1,0,3.4,1.7,3.4,3.4v5.4c0,2,0,2.4,1.1,2.4s.9-.4.9-.4h0s-.6,1.5-2.6,1.5-2.2-.5-2.2-1.9v-5.9c0-2.4,0-3.2-2-3.2s-2.8,1.1-2.8,3.3v6c0,2.3-.6,1.7-1.5,1.7s-1.1,0-1.7-.3c0,0,.5-1.5.5-5.7h.3v.3Z"/>
        <path class="st2" d="M133.2,102.5c1.4,0,2.6-.6,3.3-2.3l.4-.9c-.8,0-1.8-.6-2-1.8-.6-2.2-2.2-6.6-2.9-8.5-.3-.5-.5-1-.9-1.4h0c.5-.3.9-.3,1.8-.3s1.7.3,1.8,1c.5,2,2,6.5,3.1,9.2,3.2-9.3,2-10.2,4.1-10.2s1,0,1,0h0s-.6.5-1.3,2.3l-3.4,9.8c-1.3,3.6-3.2,5.1-5.1,5.1s-1.4-.9-1.5-2.3c.6,0,1.3.3,1.8.3h-.2Z"/>
        <path class="st2" d="M145,90.8c0-2-.1-2-1-2.4v-1c1,0,3.2-1.9,3.6-2.8h.5l-.5,2.8h1.9c1,0,1.3-.3,1.3-.3v.6c0,1-.5,1.1-1.3,1.1h-1.9v4.6c0,1.8.3,4.3,2,4.3s2.6-1.1,2.6-1.1h0s-.8,2.8-3.7,2.8-3.6-1.9-3.6-4.6v-4.2h.1v.2Z"/>
      </g>
    </g>
    <g class="st1">
      <g class="st1">
        <path class="st2" d="M46.7,117.4c-.3-.5-.5-1-.9-1.4h0c.5-.3.9-.3,1.8-.3s1.7.3,1.9,1c.5,2,2,6.4,3.1,9.1h0c3.2-9.1,1.9-10.1,4-10.1s1,0,1,0h0s-.6.5-1.3,2.3l-3.6,9.8s-2.6,0-3.2-2c-.6-2.2-2.2-6.6-2.9-8.5h.1Z"/>
        <path class="st2" d="M64.8,120.3v-.3c0-1.9-.5-3.1-2.3-3.1s-2.4.6-3.2,1.4h0c.4-1.5,2.3-2.9,4.3-2.9,3.3,0,3.8,2,3.8,4.1v4.3c0,.9,0,2.6,1.1,2.6s.9-.4.9-.4h0s-.6,1.5-2.6,1.5-1.9-.4-2-1.7h0c-.5.9-1.7,1.8-3.2,1.8s-3.2-1.4-3.2-3.2c0-3.4,3.8-4.5,6.4-4.5v.3h0,0ZM60.8,113.9c1.9-1,2.9-3.4,3.2-4,1.3,0,1.8,1.1,1.8,1.1-.4,1.5-2.9,3.1-4.3,3.1s-.5,0-.8,0h0v-.3h0,0ZM62.7,126.2c.8,0,2-.8,2-1.7v-3.4c-1,0-3.7.6-3.7,3.1s.8,1.9,1.5,1.9h.2Z"/>
        <path class="st2" d="M71.5,118.3v-5.9c0-2.2-.4-2.7-.4-2.7h0c1.5,0,3.1,0,3.1,1.7v13.7c0,.8.3,1.5,1,1.5s.9-.4.9-.4h0s-.6,1.5-2.6,1.5-2.2-.5-2.2-2v-7.5h.2Z"/>
        <path class="st2" d="M83.6,120.3v-.3c0-1.9-.5-3.1-2.3-3.1s-2.4.6-3.2,1.4h0c.4-1.5,2.3-2.9,4.3-2.9,3.3,0,3.8,2,3.8,4.1v4.3c0,.9,0,2.6,1.1,2.6s.9-.4.9-.4h0s-.6,1.5-2.6,1.5-1.9-.4-2-1.7h0c-.5.9-1.7,1.8-3.2,1.8s-3.2-1.4-3.2-3.2c0-3.4,3.8-4.5,6.4-4.5v.3h0,0ZM81.4,126.2c.8,0,2-.8,2-1.7v-3.4c-1,0-3.7.6-3.7,3.1s.8,1.9,1.5,1.9h.2Z"/>
        <path class="st2" d="M89.6,124.9h0s1.4,1.7,3.7,1.7,2-.8,2-1.7c0-2.4-6.1-2-6.1-6.1s2.2-3.4,4.3-3.4,3.6.4,3.6,1.3-.4,1.3-.9,1.7h0s-1.1-1.9-2.9-1.9-1.8.8-1.8,1.8c0,2.4,6.1,1.8,6.1,6s-2.3,3.6-4.5,3.6-4-.6-4-1.7.3-1,.5-1.3h0,.1Z"/>
        <path class="st2" d="M99.4,127.1c0-.3,0-.6.3-1,1.1-1.7,4.7-7.1,5.6-9.1h-4.8c-1.5,0-1-.9-1-1.8,0,0,1.1.3,4.8.3h4.3v.3c0,.3,0,.8-.4,1.1-2.3,3.3-4.3,6.9-5.7,8.9h0c1-.3,3.1-.3,4.7-.3s1.7.4,1.9,1.8h-9.8v-.4h0v.2Z"/>
        <path class="st2" d="M111.8,119.2c0-1.3-.3-2.1-1-2.4v-1c1,0,3.2-1.9,3.6-2.8h.5l-.5,2.8h1.9c1,0,1.3-.3,1.3-.3v.6c0,1-.5,1.1-1.3,1.1h-1.9v4.6c0,1.8.3,4.3,2,4.3s2.6-1.1,2.6-1.1h0s-.8,2.8-3.7,2.8-3.6-1.9-3.6-4.6v-4.2h0v.2Z"/>
        <path class="st2" d="M126.1,120.3v-.3c0-1.9-.5-3.1-2.3-3.1s-2.4.6-3.2,1.4h0c.4-1.5,2.3-2.9,4.3-2.9,3.3,0,3.8,2,3.8,4.1v4.3c0,.9,0,2.6,1.1,2.6s.9-.4.9-.4h0s-.6,1.5-2.6,1.5-1.9-.4-2-1.7h0c-.5.9-1.7,1.8-3.2,1.8s-3.2-1.4-3.2-3.2c0-3.4,3.8-4.5,6.4-4.5v.3h0,0ZM123.9,126.2c.8,0,2-.8,2-1.7v-3.4c-1,0-3.7.6-3.7,3.1s.8,1.9,1.5,1.9h.2Z"/>
        <path class="st2" d="M132.8,121.9v-3.6c0-2.3-.5-2.6-.5-2.6.4,0,.8-.3,1.1-.3,1,0,1.8.5,1.8,1.3s0,.6,0,.6h0c.5-1.1,2.4-2,4.1-2,3.1,0,3.4,1.7,3.4,3.4v5.4c0,2,0,2.4,1.1,2.4s.9-.4.9-.4h0s-.6,1.5-2.6,1.5-2.2-.5-2.2-1.9v-5.9c0-2.4,0-3.2-2-3.2s-2.8,1.1-2.8,3.3v6c0,2.3-.6,1.7-1.5,1.7s-1.1,0-1.7-.3c0,0,.5-1.5.5-5.7h.3v.3Z"/>
        <path class="st2" d="M147.1,121.9c0-5.4-.5-6.1-.5-6.1.4,0,.8-.3,1.1-.3,1,0,2,.5,2,1.5v7c0,1.7,0,2.4,1.1,2.4s.9-.4.9-.4h0s-.6,1.5-2.6,1.5-2.2-.5-2.2-1.9v-4.1.3h.2ZM146.8,112c0-.9.8-1.7,1.5-1.7s1.7.8,1.7,1.7-.8,1.5-1.7,1.5-1.5-.8-1.5-1.5Z"/>
      </g>
    </g>
  </g>
</svg>