<?xml version="1.0" encoding="UTF-8"?>
<svg id="Layer_1" xmlns="http://www.w3.org/2000/svg" viewBox="0 0 141.73 141.73">
  <defs>
    <style>
      .cls-1 {
        fill: #fff;
      }

      .cls-2 {
        fill: #99c1c9;
      }
    </style>
  </defs>
  <rect class="cls-2" x="-8.13" y="-4.12" width="157.12" height="152.08"/>
  <g id="Layer_1-2" data-name="Layer_1">
    <path class="cls-1" d="M69.55,121.54c-14.07,0-25.49-11.41-25.49-25.49v-39.11c0-9.92,8.11-18.03,18.03-18.03s18.03,8.11,18.03,18.03v12.97c0,1.17-.97,2.14-2.14,2.14s-2.14-.97-2.14-2.14v-12.97c0-7.59-6.16-13.75-13.75-13.75s-13.75,6.16-13.75,13.75v39.11c0,11.67,9.47,21.14,21.14,21.14s21.14-9.47,21.14-21.14v-44.88c0-1.17.97-2.14,2.14-2.14s2.14.97,2.14,2.14v44.88c0,14.07-11.41,25.49-25.49,25.49h.13Z"/>
    <path class="cls-1" d="M98.21,42.81h-11.8c-.71,0-1.36-.39-1.82-.97s-.45-1.36-.19-2.01l5.9-14.27c.32-.78,1.1-1.3,2.01-1.3h0c.84,0,1.69.52,2.01,1.3l5.9,14.27c.26.65.19,1.43-.19,2.01s-1.1.97-1.82.97h0ZM89.65,38.53h5.38l-2.72-6.49-2.72,6.49h.06Z"/>
    <circle class="cls-1" cx="77.98" cy="80.23" r="2.46"/>
  </g>
</svg>