<?xml version="1.0" encoding="UTF-8"?>
<svg xmlns="http://www.w3.org/2000/svg" version="1.1" viewBox="0 0 141.7 141.7">
  <defs>
    <style>
      .cls-1 {
        fill: #60ac7f;
      }

      .cls-2 {
        fill: #f8982e;
      }

      .cls-3 {
        fill: #adafb2;
      }

      .cls-4 {
        fill: #4cb0c7;
      }

      .cls-5 {
        fill: #fff;
      }

      .cls-6 {
        fill: #b2c845;
      }

      .cls-7 {
        fill: #99c1c9;
      }

      .cls-8 {
        fill: #231f20;
      }

      .cls-9 {
        fill: #e7d378;
      }
    </style>
  </defs>
  <!-- Generator: Adobe Illustrator 28.7.1, SVG Export Plug-In . SVG Version: 1.2.0 Build 142)  -->
  <g>
    <g id="Layer_1">
      <rect class="cls-8" x="155.7" y="-5.4" width="157.1" height="152.1"/>
      <rect class="cls-6" x="-3.4" y="160.8" width="157.1" height="152.1"/>
      <rect class="cls-1" x="155.7" y="160.8" width="157.1" height="152.1"/>
      <rect class="cls-4" x="316.9" y="160.8" width="157.1" height="152.1"/>
      <rect class="cls-2" x="-11.5" y="320.9" width="157.1" height="152.1"/>
      <rect class="cls-9" x="155.7" y="318.9" width="157.1" height="152.1"/>
      <rect class="cls-7" x="316.9" y="318.9" width="157.1" height="152.1"/>
      <g id="Layer_1-2" data-name="Layer_1">
        <path class="cls-5" d="M61.5,444.5c-14.1,0-25.5-11.4-25.5-25.5v-39.1c0-9.9,8.1-18,18-18s18,8.1,18,18v13c0,1.2-1,2.1-2.1,2.1s-2.1-1-2.1-2.1v-13c0-7.6-6.2-13.7-13.7-13.7s-13.7,6.2-13.7,13.7v39.1c0,11.7,9.5,21.1,21.1,21.1s21.1-9.5,21.1-21.1v-44.9c0-1.2,1-2.1,2.1-2.1s2.1,1,2.1,2.1v44.9c0,14.1-11.4,25.5-25.5,25.5h.1Z"/>
        <path class="cls-5" d="M90.2,365.8h-11.8c-.7,0-1.4-.4-1.8-1s-.5-1.4-.2-2l5.9-14.3c.3-.8,1.1-1.3,2-1.3h0c.8,0,1.7.5,2,1.3l5.9,14.3c.3.6.2,1.4-.2,2s-1.1,1-1.8,1h0ZM81.7,361.5h5.4l-2.7-6.5-2.7,6.5h0Z"/>
        <circle class="cls-5" cx="70" cy="403.2" r="2.5"/>
      </g>
      <g id="Layer_1-3" data-name="Layer_1">
        <path class="cls-5" d="M235.5,444.5c-14.1,0-25.5-11.4-25.5-25.5v-39.1c0-9.9,8.1-18,18-18s18,8.1,18,18v13c0,1.2-1,2.1-2.1,2.1s-2.1-1-2.1-2.1v-13c0-7.6-6.2-13.7-13.7-13.7s-13.7,6.2-13.7,13.7v39.1c0,11.7,9.5,21.1,21.1,21.1s21.1-9.5,21.1-21.1v-44.9c0-1.2,1-2.1,2.1-2.1s2.1,1,2.1,2.1v44.9c0,14.1-11.4,25.5-25.5,25.5h.1Z"/>
        <path class="cls-5" d="M264.2,365.8h-11.8c-.7,0-1.4-.4-1.8-1s-.5-1.4-.2-2l5.9-14.3c.3-.8,1.1-1.3,2-1.3h0c.8,0,1.7.5,2,1.3l5.9,14.3c.3.6.2,1.4-.2,2s-1.1,1-1.8,1h0ZM255.7,361.5h5.4l-2.7-6.5-2.7,6.5h0Z"/>
        <circle class="cls-5" cx="244" cy="403.2" r="2.5"/>
      </g>
      <g id="Layer_1-4" data-name="Layer_1">
        <path class="cls-5" d="M394.5,444.5c-14.1,0-25.5-11.4-25.5-25.5v-39.1c0-9.9,8.1-18,18-18s18,8.1,18,18v13c0,1.2-1,2.1-2.1,2.1s-2.1-1-2.1-2.1v-13c0-7.6-6.2-13.7-13.7-13.7s-13.7,6.2-13.7,13.7v39.1c0,11.7,9.5,21.1,21.1,21.1s21.1-9.5,21.1-21.1v-44.9c0-1.2,1-2.1,2.1-2.1s2.1,1,2.1,2.1v44.9c0,14.1-11.4,25.5-25.5,25.5h.1Z"/>
        <path class="cls-5" d="M423.2,365.8h-11.8c-.7,0-1.4-.4-1.8-1s-.5-1.4-.2-2l5.9-14.3c.3-.8,1.1-1.3,2-1.3h0c.8,0,1.7.5,2,1.3l5.9,14.3c.3.6.2,1.4-.2,2s-1.1,1-1.8,1h0ZM414.7,361.5h5.4l-2.7-6.5-2.7,6.5h0Z"/>
        <circle class="cls-5" cx="403" cy="403.2" r="2.5"/>
      </g>
      <g id="Layer_1-5" data-name="Layer_1">
        <path class="cls-5" d="M394.5,283.5c-14.1,0-25.5-11.4-25.5-25.5v-39.1c0-9.9,8.1-18,18-18s18,8.1,18,18v13c0,1.2-1,2.1-2.1,2.1s-2.1-1-2.1-2.1v-13c0-7.6-6.2-13.7-13.7-13.7s-13.7,6.2-13.7,13.7v39.1c0,11.7,9.5,21.1,21.1,21.1s21.1-9.5,21.1-21.1v-44.9c0-1.2,1-2.1,2.1-2.1s2.1,1,2.1,2.1v44.9c0,14.1-11.4,25.5-25.5,25.5h.1Z"/>
        <path class="cls-5" d="M423.2,204.8h-11.8c-.7,0-1.4-.4-1.8-1s-.5-1.4-.2-2l5.9-14.3c.3-.8,1.1-1.3,2-1.3h0c.8,0,1.7.5,2,1.3l5.9,14.3c.3.6.2,1.4-.2,2s-1.1,1-1.8,1h0ZM414.7,200.5h5.4l-2.7-6.5-2.7,6.5h0Z"/>
        <circle class="cls-5" cx="403" cy="242.2" r="2.5"/>
      </g>
      <g id="Layer_1-6" data-name="Layer_1">
        <path class="cls-3" d="M394.5,122.5c-14.1,0-25.5-11.4-25.5-25.5v-39.1c0-9.9,8.1-18,18-18s18,8.1,18,18v13c0,1.2-1,2.1-2.1,2.1s-2.1-1-2.1-2.1v-13c0-7.6-6.2-13.7-13.7-13.7s-13.7,6.2-13.7,13.7v39.1c0,11.7,9.5,21.1,21.1,21.1s21.1-9.5,21.1-21.1v-44.9c0-1.2,1-2.1,2.1-2.1s2.1,1,2.1,2.1v44.9c0,14.1-11.4,25.5-25.5,25.5h.1Z"/>
        <path class="cls-3" d="M423.2,43.8h-11.8c-.7,0-1.4-.4-1.8-1s-.5-1.4-.2-2l5.9-14.3c.3-.8,1.1-1.3,2-1.3h0c.8,0,1.7.5,2,1.3l5.9,14.3c.3.6.2,1.4-.2,2s-1.1,1-1.8,1h0ZM414.7,39.5h5.4l-2.7-6.5-2.7,6.5h0Z"/>
        <circle class="cls-3" cx="403" cy="81.2" r="2.5"/>
      </g>
      <g id="Layer_1-7" data-name="Layer_1">
        <path class="cls-5" d="M229.5,122.5c-14.1,0-25.5-11.4-25.5-25.5v-39.1c0-9.9,8.1-18,18-18s18,8.1,18,18v13c0,1.2-1,2.1-2.1,2.1s-2.1-1-2.1-2.1v-13c0-7.6-6.2-13.7-13.7-13.7s-13.7,6.2-13.7,13.7v39.1c0,11.7,9.5,21.1,21.1,21.1s21.1-9.5,21.1-21.1v-44.9c0-1.2,1-2.1,2.1-2.1s2.1,1,2.1,2.1v44.9c0,14.1-11.4,25.5-25.5,25.5h.1Z"/>
        <path class="cls-5" d="M258.2,43.8h-11.8c-.7,0-1.4-.4-1.8-1s-.5-1.4-.2-2l5.9-14.3c.3-.8,1.1-1.3,2-1.3h0c.8,0,1.7.5,2,1.3l5.9,14.3c.3.6.2,1.4-.2,2s-1.1,1-1.8,1h0ZM249.7,39.5h5.4l-2.7-6.5-2.7,6.5h0Z"/>
        <circle class="cls-5" cx="238" cy="81.2" r="2.5"/>
      </g>
      <g id="Layer_1-8" data-name="Layer_1">
        <path class="cls-5" d="M229.5,286.5c-14.1,0-25.5-11.4-25.5-25.5v-39.1c0-9.9,8.1-18,18-18s18,8.1,18,18v13c0,1.2-1,2.1-2.1,2.1s-2.1-1-2.1-2.1v-13c0-7.6-6.2-13.7-13.7-13.7s-13.7,6.2-13.7,13.7v39.1c0,11.7,9.5,21.1,21.1,21.1s21.1-9.5,21.1-21.1v-44.9c0-1.2,1-2.1,2.1-2.1s2.1,1,2.1,2.1v44.9c0,14.1-11.4,25.5-25.5,25.5h.1Z"/>
        <path class="cls-5" d="M258.2,207.8h-11.8c-.7,0-1.4-.4-1.8-1s-.5-1.4-.2-2l5.9-14.3c.3-.8,1.1-1.3,2-1.3h0c.8,0,1.7.5,2,1.3l5.9,14.3c.3.6.2,1.4-.2,2s-1.1,1-1.8,1h0ZM249.7,203.5h5.4l-2.7-6.5-2.7,6.5h0Z"/>
        <circle class="cls-5" cx="238" cy="245.2" r="2.5"/>
      </g>
      <g id="Layer_1-9" data-name="Layer_1">
        <path class="cls-5" d="M69.5,286.5c-14.1,0-25.5-11.4-25.5-25.5v-39.1c0-9.9,8.1-18,18-18s18,8.1,18,18v13c0,1.2-1,2.1-2.1,2.1s-2.1-1-2.1-2.1v-13c0-7.6-6.2-13.7-13.7-13.7s-13.7,6.2-13.7,13.7v39.1c0,11.7,9.5,21.1,21.1,21.1s21.1-9.5,21.1-21.1v-44.9c0-1.2,1-2.1,2.1-2.1s2.1,1,2.1,2.1v44.9c0,14.1-11.4,25.5-25.5,25.5h.1Z"/>
        <path class="cls-5" d="M98.2,207.8h-11.8c-.7,0-1.4-.4-1.8-1s-.5-1.4-.2-2l5.9-14.3c.3-.8,1.1-1.3,2-1.3h0c.8,0,1.7.5,2,1.3l5.9,14.3c.3.6.2,1.4-.2,2s-1.1,1-1.8,1h0ZM89.7,203.5h5.4l-2.7-6.5-2.7,6.5h0Z"/>
        <circle class="cls-5" cx="78" cy="245.2" r="2.5"/>
      </g>
      <g id="Layer_1-10" data-name="Layer_1">
        <path class="cls-8" d="M69.5,121.5c-14.1,0-25.5-11.4-25.5-25.5v-39.1c0-9.9,8.1-18,18-18s18,8.1,18,18v13c0,1.2-1,2.1-2.1,2.1s-2.1-1-2.1-2.1v-13c0-7.6-6.2-13.7-13.7-13.7s-13.7,6.2-13.7,13.7v39.1c0,11.7,9.5,21.1,21.1,21.1s21.1-9.5,21.1-21.1v-44.9c0-1.2,1-2.1,2.1-2.1s2.1,1,2.1,2.1v44.9c0,14.1-11.4,25.5-25.5,25.5h.1Z"/>
        <path class="cls-8" d="M98.2,42.8h-11.8c-.7,0-1.4-.4-1.8-1s-.5-1.4-.2-2l5.9-14.3c.3-.8,1.1-1.3,2-1.3h0c.8,0,1.7.5,2,1.3l5.9,14.3c.3.6.2,1.4-.2,2s-1.1,1-1.8,1h0ZM89.7,38.5h5.4l-2.7-6.5-2.7,6.5h0Z"/>
        <circle class="cls-8" cx="78" cy="80.2" r="2.5"/>
      </g>
    </g>
  </g>
</svg>