<?xml version="1.0" encoding="UTF-8"?>
<svg xmlns="http://www.w3.org/2000/svg" version="1.1" viewBox="0 0 642 500">
  <defs>
    <style>
      .cls-1, .cls-2 {
        fill: #c7e4f2;
      }

      .cls-3, .cls-4 {
        fill: #fdc6bf;
      }

      .cls-3, .cls-5, .cls-6, .cls-7, .cls-8, .cls-9, .cls-2, .cls-10, .cls-11 {
        mix-blend-mode: multiply;
      }

      .cls-3, .cls-12, .cls-6, .cls-13, .cls-7, .cls-8, .cls-9, .cls-2, .cls-10, .cls-11 {
        isolation: isolate;
      }

      .cls-3, .cls-6, .cls-7, .cls-8, .cls-9, .cls-2, .cls-10, .cls-11 {
        opacity: .5;
      }

      .cls-14, .cls-8 {
        fill: #64c2e8;
      }

      .cls-15, .cls-10 {
        fill: #211135;
      }

      .cls-16, .cls-6 {
        fill: #9fdef0;
      }

      .cls-5 {
        opacity: .6;
      }

      .cls-17 {
        fill: #f8fdff;
      }

      .cls-18 {
        fill: #eff6f9;
      }

      .cls-19 {
        fill: #fc877e;
      }

      .cls-20, .cls-11 {
        fill: #fc6c63;
      }

      .cls-21 {
        fill: none;
        stroke: #fc877e;
        stroke-linecap: round;
        stroke-miterlimit: 10;
        stroke-width: 2px;
      }

      .cls-12 {
        fill: #c0cf8c;
        opacity: .2;
      }

      .cls-7, .cls-22 {
        fill: #059ad2;
      }

      .cls-23 {
        fill: #9ac8c6;
      }

      .cls-24 {
        fill: #150b21;
      }

      .cls-25 {
        fill: #fff;
      }

      .cls-9, .cls-26 {
        fill: #088bbf;
      }
    </style>
  </defs>
  <!-- Generator: Adobe Illustrator 28.7.1, SVG Export Plug-In . SVG Version: 1.2.0 Build 142)  -->
  <g>
    <g id="Layer_1">
      <g class="cls-13">
        <g id="BACKGROUND">
          <path class="cls-12" d="M508.5,417.4c22.2-14.4,34.7-44.1,30.4-71.1-3.6-22.4-18-42.7-37.3-52.4-7.9-4-14.1-10.8-17.5-19.4h0c-8.2-20.2,3-46.6-9.8-63.9-8-10.7-22.2-13.3-35.1-13.7-12.9-.5-26.6.2-37.8-6.5-13.5-8.1-19.9-24.8-30.1-37.1-20.8-25.1-60.5-29.8-86-10.1-17.1,13.2-27.9,35.1-47.3,44.1-11,5.1-23.4,5.3-35.3,7.5-11.9,2.2-24.4,7.3-30.2,18.4-7.1,13.6-1.6,31.2-7.9,45.2-5.1,11.4-16.7,17.7-26.3,25.4-19,15.3-31.5,39.1-33.7,64.2-2.2,25,5.9,50.9,21.9,69.6h382v-.2Z"/>
        </g>
        <g id="OBJECTS">
          <ellipse class="cls-15" cx="392.5" cy="235.7" rx="26.3" ry="34.4"/>
          <path class="cls-4" d="M421.4,246.7c0,3.5-2.8,6.3-6.3,6.3s-6.3-2.8-6.3-6.3,2.8-6.3,6.3-6.3,6.3,2.8,6.3,6.3Z"/>
          <rect class="cls-17" x="401.9" y="64.6" width="132.2" height="156.8"/>
          <g>
            <rect class="cls-1" x="406.9" y="69.1" width="58.1" height="70.5"/>
            <rect class="cls-1" x="471.5" y="69.1" width="58.1" height="70.5"/>
            <rect class="cls-1" x="406.9" y="146.3" width="58.1" height="70.5"/>
            <rect class="cls-1" x="471.5" y="146.3" width="58.1" height="70.5"/>
          </g>
          <g>
            <polygon class="cls-18" points="427.9 139.6 416.9 139.6 449.6 69.1 460.6 69.1 427.9 139.6"/>
            <polygon class="cls-18" points="414 139.6 411.2 139.6 444 69.1 446.8 69.1 414 139.6"/>
          </g>
          <g>
            <polygon class="cls-18" points="492.5 216.9 481.5 216.9 514.3 146.3 525.2 146.3 492.5 216.9"/>
            <polygon class="cls-18" points="478.7 216.9 475.9 216.9 508.6 146.3 511.4 146.3 478.7 216.9"/>
          </g>
          <g>
            <rect class="cls-22" x="108.1" y="113.9" width="170.3" height="8"/>
            <g>
              <g>
                <rect class="cls-1" x="217.9" y="43.2" width="14" height="70.7"/>
                <rect class="cls-25" x="219.6" y="102.9" width="10.6" height="3.9"/>
                <rect class="cls-25" x="219.6" y="52.3" width="10.6" height="3.9"/>
                <rect class="cls-25" x="219.6" y="89.2" width="10.6" height="10"/>
              </g>
              <g>
                <rect class="cls-23" x="205.6" y="51.9" width="12.3" height="62"/>
                <rect class="cls-25" x="207.1" y="104.4" width="9.3" height="3.4"/>
                <rect class="cls-25" x="207.1" y="59.8" width="9.3" height="3.4"/>
                <rect class="cls-25" x="207.1" y="92" width="9.3" height="8.8"/>
              </g>
              <rect class="cls-2" x="218" y="43.2" width="3.2" height="70.7"/>
              <g>
                <rect class="cls-1" x="244.2" y="58.1" width="14" height="55.8"/>
                <rect class="cls-25" x="245.9" y="105.2" width="10.6" height="3.1"/>
                <rect class="cls-25" x="245.9" y="65.3" width="10.6" height="3.1"/>
                <rect class="cls-25" x="245.9" y="94.3" width="10.6" height="7.9"/>
              </g>
              <g>
                <rect class="cls-16" x="231.9" y="65" width="12.3" height="48.9"/>
                <rect class="cls-25" x="233.4" y="106.3" width="9.3" height="2.7"/>
                <rect class="cls-25" x="233.4" y="71.3" width="9.3" height="2.7"/>
                <rect class="cls-25" x="233.4" y="96.5" width="9.3" height="7"/>
              </g>
              <rect class="cls-2" x="244.2" y="58.2" width="3.2" height="55.8"/>
            </g>
            <g>
              <g>
                <rect class="cls-1" x="191.7" y="43.2" width="14" height="70.7"/>
                <rect class="cls-25" x="193.4" y="103" width="10.6" height="3.9"/>
                <rect class="cls-25" x="193.4" y="52.3" width="10.6" height="3.9"/>
                <rect class="cls-25" x="193.4" y="89.1" width="10.6" height="10"/>
              </g>
              <g>
                <rect class="cls-16" x="205.7" y="51.9" width="12.3" height="62"/>
                <rect class="cls-25" x="207.2" y="104.3" width="9.3" height="3.4"/>
                <rect class="cls-25" x="207.2" y="59.9" width="9.3" height="3.4"/>
                <rect class="cls-25" x="207.2" y="91.9" width="9.3" height="8.8"/>
              </g>
              <rect class="cls-2" x="202.5" y="43.2" width="3.2" height="70.7"/>
              <g>
                <rect class="cls-1" x="165.4" y="58.2" width="14" height="55.8"/>
                <rect class="cls-25" x="167.1" y="105.3" width="10.6" height="3.1"/>
                <rect class="cls-25" x="167.1" y="65.3" width="10.6" height="3.1"/>
                <rect class="cls-25" x="167.1" y="94.4" width="10.6" height="7.9"/>
              </g>
              <g>
                <rect class="cls-16" x="179.4" y="65" width="12.3" height="48.9"/>
                <rect class="cls-25" x="180.9" y="106.4" width="9.3" height="2.7"/>
                <rect class="cls-25" x="180.9" y="71.3" width="9.3" height="2.7"/>
                <rect class="cls-25" x="180.9" y="96.6" width="9.3" height="7"/>
              </g>
              <rect class="cls-2" x="176.2" y="58.2" width="3.2" height="55.8"/>
            </g>
            <g>
              <g>
                <rect class="cls-1" x="146" y="61.6" width="10.4" height="52.4"/>
                <rect class="cls-25" x="147.3" y="105.8" width="7.8" height="2.9"/>
                <rect class="cls-25" x="147.3" y="68.3" width="7.8" height="2.9"/>
                <rect class="cls-25" x="147.3" y="95.6" width="7.8" height="7.4"/>
              </g>
              <g>
                <rect class="cls-16" x="156.3" y="68" width="9.1" height="45.9"/>
                <rect class="cls-25" x="157.5" y="106.8" width="6.9" height="2.5"/>
                <rect class="cls-25" x="157.5" y="73.9" width="6.9" height="2.5"/>
                <rect class="cls-25" x="157.5" y="97.6" width="6.9" height="6.5"/>
              </g>
              <rect class="cls-2" x="154" y="61.5" width="2.4" height="52.4"/>
              <g>
                <rect class="cls-1" x="126.5" y="72.6" width="10.4" height="41.3"/>
                <rect class="cls-25" x="127.8" y="107.5" width="7.8" height="2.3"/>
                <rect class="cls-25" x="127.8" y="77.9" width="7.8" height="2.3"/>
                <rect class="cls-25" x="127.8" y="99.4" width="7.8" height="5.9"/>
              </g>
              <g>
                <rect class="cls-16" x="136.9" y="77.7" width="9.1" height="36.2"/>
                <rect class="cls-25" x="138" y="108.3" width="6.9" height="2"/>
                <rect class="cls-25" x="138" y="82.4" width="6.9" height="2"/>
                <rect class="cls-25" x="138" y="101.1" width="6.9" height="5.1"/>
              </g>
              <rect class="cls-2" x="134.5" y="72.6" width="2.4" height="41.3"/>
            </g>
          </g>
          <rect class="cls-6" x="232" y="65" width="3.2" height="48.9"/>
          <rect class="cls-6" x="188.5" y="65.1" width="3.2" height="48.9"/>
          <rect class="cls-6" x="162.3" y="68" width="3.2" height="45.9"/>
          <rect class="cls-6" x="143.6" y="77.7" width="2.4" height="36.2"/>
          <g>
            <path class="cls-22" d="M148.3,237.6l53.8,156.6,6.2-2.9c2.1-1,3.2-3.5,2.4-5.7l-51.7-147.3c-.9-2.6-3.8-3.8-6.3-2.7l-4.2,2h-.2Z"/>
            <path class="cls-22" d="M148.3,408.5h4.9c0-26,8.2-65.4,10.7-76.5-.7-2.1-1.4-4.3-2.1-6.5-.5-1.7-1-3.4-1.5-5.1h0c-8.1,44.2-12.1,88.1-12.1,88.1h0Z"/>
            <path class="cls-25" d="M160.4,320.5h0c.5,1.6.9,3.3,1.5,5,.7,2.2,1.3,4.4,2.1,6.5h0l-3.5-11.5h0Z"/>
            <path class="cls-16" d="M202,394.1l-53.8-156.6s.2,39.9,12.1,82.8h0l3.5,11.5h0c13.8,40.7,38.1,62.1,38.1,62.1v.2Z"/>
            <path class="cls-26" d="M207.6,412.3c-3.7-2.5-8-3.8-12.4-3.8h-47v5c0,.9.7,1.6,1.6,1.6h58.1c1.2,0,1.6-1.5.7-2.2l-1.1-.7h.1Z"/>
          </g>
          <path class="cls-6" d="M166.6,324.2l-3.5-11.5h0c-6.9-24.9-9.9-48.8-11.1-64.4l-3.7-10.8s.2,39.9,12.1,82.8h0l3.5,11.5h0c13.8,40.7,38.1,62.1,38.1,62.1l-5.7-16.7c-8.3-9.9-21-27.8-29.7-53.2h0v.2Z"/>
          <path class="cls-7" d="M160.4,320.4h0c-8.1,44.2-12.1,88.1-12.1,88.1h2.3s3.7-40.7,11.2-83.2c-.5-1.6-.9-3.2-1.4-4.8h0Z"/>
          <path class="cls-9" d="M208.7,413l-1.1-.7c-.2-.2-.5-.3-.7-.4h-57.6c-.4,0-.8-.2-1.1-.4v2.1c0,.9.7,1.6,1.6,1.6h58.1c1.2,0,1.6-1.5.7-2.2h.1Z"/>
          <g>
            <path class="cls-4" d="M321.9,347c.3-1,.5-2.1.7-3.1,1.3-6.9-.9-14.3-5.8-19.3-.7-.7-1.5-1.7-1-2.6h0c-1.6-1-2.6-2.9-2.3-4.7,0-.5.6-.8,1.1-.5,5.2,2.6,10.4,5.5,13.7,10.3,2.3,3.4,3.3,7.4,4.3,11.3s2,7.9,4.2,11.3c1.3,2.1,3.2,4,5.4,5.1l-2.1,9.7c-3.4-.1-8.7-1.6-11.8-2.8-2.2-.8-4.3-2.3-5.7-4.2-.6-.8-1-1.7-1.3-2.7-.7-2.6,0-5.2.6-7.8h0Z"/>
            <path class="cls-4" d="M321.3,354.8c.3,1,.7,1.9,1.3,2.7h0c-1.6-.9-2.9-3.6-3.4-5-.5-1.3-1.1-2.7-2.2-3.6-.9-.8-2-1.2-2.9-2s-1.4-2.2-.7-3.1c.6-.8,1.8-.8,2.8-.6,2.3.5,4.1,1.9,5.7,3.7-.7,2.6-1.3,5.2-.6,7.8h0Z"/>
          </g>
          <path class="cls-3" d="M318.1,321.2c-1.9-1-2.2.7-2.2.7.2-.4.8-.5,1.3-.3s.8.5,1.2.8l3.4,3.1c1.3,1.2,2.6,2.4,3.5,3.9,2,3.3,1.6,7.5,3,11.1-.2-2.5-.1-5.1-.7-7.6-.6-2.4-1.7-4.8-3.4-6.6-1.7-1.8-3.8-3.8-6-4.9v-.2Z"/>
          <path class="cls-3" d="M340.9,359.6c-3.4-.1-8.7-1.6-11.8-2.8-2.2-.8-4.3-2.3-5.7-4.2-.6-.8-1-1.7-1.3-2.7-.3-.9-.3-1.9-.3-2.8-.6,2.6-1.2,5.2-.6,7.7.3,1,.7,1.9,1.3,2.7,1.3,1.9,3.4,3.3,5.7,4.2,3.2,1.2,8.5,2.7,11.8,2.8l2.1-9.7s-.1,0-.2-.1l-1.1,4.9h.1Z"/>
          <path class="cls-3" d="M318.1,347.9c-.9-.8-2-1.2-2.9-2-.7-.6-1.2-1.7-.9-2.5-.3.1-.6.3-.9.6-.7.9-.2,2.3.7,3.1.9.8,2,1.2,2.9,2,1.1.9,1.7,2.3,2.2,3.6.5,1.3,1.8,4.1,3.4,5h0c-.6-.8-1-1.7-1.3-2.7-.2-.6-.2-1.2-.3-1.8-.3-.6-.5-1.1-.7-1.5-.5-1.3-1.1-2.7-2.2-3.6v-.2Z"/>
          <path class="cls-3" d="M318.1,347.9c-.9-.8-2-1.2-2.9-2-.7-.6-1.2-1.7-.9-2.5-.3.1-.6.3-.9.6-.7.9-.2,2.3.7,3.1.9.8,2,1.2,2.9,2,1.1.9,1.7,2.3,2.2,3.6.5,1.3,1.8,4.1,3.4,5h0c-.6-.8-1-1.7-1.3-2.7-.2-.6-.2-1.2-.3-1.8-.3-.6-.5-1.1-.7-1.5-.5-1.3-1.1-2.7-2.2-3.6v-.2Z"/>
          <path class="cls-20" d="M452.5,419.3c1.4-3.5,2.3-7.2,3.3-10.9,2.5-9,4.2-18.2,4.9-27.5,1.6-20.7.1-42-6.7-61.6-4.1-11.8-11.2-23.9-23.1-28-4.4-1.5-9-1.8-13.6-2.4-2.6-.3-4.8-.9-6.8-1.7-7.3,6.6-12.3,15.6-14,25.2-.2,1.1-1.5,1.7-2.4,1-5.3-3.5-9.7-9.3-11.4-15.5-.2.5-.5,1-.9,1.4-2.7,3.2-6.5,5.3-9.8,8-6.6,5.2-11.3,12.5-14.6,20.3s-5.3,15.9-7.3,24.1v.2c-2.2-.6-4.4-1.2-6.7-1.7-1.1-.3-2.3.5-2.5,1.6l-2.5,12.9c-.1.7.1,1.5.7,2,1.9,1.5,3.7,3.1,5.6,4.6,6.5,5.3,13.2,10.5,20.3,14.9,3.8,2.4,7.7,4.6,11.8,6.5v.2c-2.4,6.8-5.8,12.1-11.8,15.9s-3.8,6.3-2.9,9.6l90.3,1h0Z"/>
          <path class="cls-20" d="M365.1,386.2l-8.1,30.4-25.4-.8,13.2-44.6c6.5,5.3,13.2,10.5,20.3,14.9h0Z"/>
          <path class="cls-11" d="M397.5,406.4c5.9-.9,11.2-4.1,15.7-7.9,9.4-7.8,16.1-18.5,21-29.7,2.3-5.3,4.2-10.7,5.8-16.2.5-1.6.6-3.2.5-4.7-1.3,4.1-2.8,8.1-4.5,12-4.8,11.2-11.6,21.8-21,29.7-4.6,3.8-9.9,7-15.7,7.9-6.2.9-12.5-.7-18.4-3.1-1.5-.6-3-1.3-4.5-2,.2,0,.3.2.5.3v.2c-1.1,2.9-2.2,5.5-3.7,7.8,1.9.9,3.9,1.8,5.9,2.6,5.8,2.3,12.2,4,18.4,3.1h0Z"/>
          <path class="cls-11" d="M416.3,311.6c-.7-.7-1.9-.5-2.3.5-6.1,14.5-15.5,40.1-21.1,46.9-3.4,4.2-10.9-.1-15.9-2.3-8.4-3.7-17-6.8-25.8-9.4-.4,1.5-.7,3-1.1,4.5v.2c9.4,2.7,18.6,6.3,27.6,10.3,5,2.2,12.5,6.6,15.9,2.3,6.1-7.6,17.1-38.4,23-51.3.3-.5.1-1.2-.3-1.6h0Z"/>
          <path class="cls-20" d="M365.1,386.2"/>
          <path class="cls-11" d="M373.7,355.2l-1.3,4.7c1.1.4,2.1.9,3.2,1.3l.5-5.1,1.4-14.7-3.8,13.7h0Z"/>
          <path class="cls-4" d="M396.5,312.5c1.7-9.6,6.8-18.7,14-25.2-1.6-.7-3.1-1.5-4.7-2.7s-2.6-2.8-3.2-6l-20.4,6.8c1.9,3.2,2.3,9.1.5,12.6,1.7,6.2,6,11.9,11.3,15.5,1,.6,2.2.1,2.4-1h.1Z"/>
          <g>
            <g>
              <g>
                <path class="cls-4" d="M388,285.3c-8,1.2-16.2-1.8-22.3-7-6.9-5.9-10.2-14.5-12.7-23-2.9-9.6-4.9-19.5-5.7-29.5-.5-6.4-.3-13.2,3.4-18.5,4.6-6.7,13.4-8.9,21.4-10.2,9.4-1.4,19.5-2,27.7,2.8,5.8,3.4,9.9,9.3,12.2,15.6s3.1,13.1,3.6,19.8c.6,9.5.4,19.2-2.7,28.2-3.9,11.5-13.8,20.1-24.9,21.8Z"/>
                <path class="cls-3" d="M415.6,235.3c-.4-6.7-1.2-13.5-3.6-19.8s-6.4-12.1-12.2-15.6c-.8-.5-1.7-.9-2.6-1.3,4.5,3.5,7.8,8.5,9.8,13.9,2.4,6.3,3.1,13.1,3.6,19.8.6,9.5.4,19.2-2.7,28.2-3.9,11.5-13.8,20.1-24.9,21.8-5.3.8-10.6-.3-15.3-2.5,5.8,4.3,13.2,6.6,20.4,5.5,11.2-1.6,21-10.3,24.9-21.8,3.1-9,3.2-18.7,2.7-28.2h0Z"/>
                <path class="cls-24" d="M397.1,224.1c1.6-.3,3.4-.8,4.5.3,1.2,1.1.8,3.1-.3,4.2-1.2,1.1-2.8,1.4-4.4,1.4-3,.1-6.1-.4-8.9-1.5-1.5-.6-3-1.4-3.7-2.8-.5-.9-.6-2.8.4-3.5,1.1-.8,2.1.2,3.2.7,2.9,1.3,6.2,1.8,9.3,1.2h-.1Z"/>
                <path class="cls-15" d="M391.3,238.9c-.3,2-1.7,3.4-3,3.2-1.4-.2-2.3-2-2-4s1.7-3.4,3-3.2c1.4.2,2.3,2,2,4Z"/>
                <path class="cls-24" d="M353,228.1c-1.6,0-3.5-.1-4.4,1.1-1,1.2-.2,3.2,1.1,4.1,1.3.8,3,.8,4.6.6,3-.4,5.9-1.5,8.5-3.1,1.3-.8,2.7-1.9,3.1-3.4.3-1,0-2.8-1-3.4-1.2-.6-2,.6-3,1.2-2.6,1.8-5.8,2.8-8.9,2.8h0Z"/>
                <path class="cls-15" d="M359.9,241.5c.6,1.8,2.2,3,3.4,2.5s1.8-2.3,1.2-4.1c-.6-1.8-2.2-3-3.4-2.5-1.3.4-1.8,2.3-1.2,4.1Z"/>
                <path class="cls-15" d="M411.9,199.5c6.5,8.7,8.3,20.5,6.6,31.3-.3,1.9-2.2,3-4,2.4-5.9-1.9-11.5-4.8-16-9.1-5.3-5.1-10-16.3-9.3-23.6,4-2.8,5-5.7,4.1-8.2.2-.1.5-.3.7-.4,3.2-1.5,7-1.1,10.2.5,3.1,1.6,5.7,4.2,7.7,7h0Z"/>
              </g>
              <path class="cls-10" d="M391.4,204.2c3.6-.2,6.8-2.4,8.1-5.7.3-.9.5-1.7.2-2.3-.7-2-2.2-3.5-4.1-4.7-.4.1-.8.2-1.2.4,1,.9,1.7,2,2.2,3.2.2.6,0,1.5-.2,2.3-1.2,3-3.9,5.1-7.1,5.6,0,.6,0,1.1.1,1.7.6-.2,1.1-.4,1.7-.5h.4-.1Z"/>
            </g>
            <path class="cls-10" d="M418,230.4c-5.9-1.9-11.5-4.8-16-9.1-4.5-4.4-8.7-13.3-9.3-20.3-1.2.2-2.4.3-3.6.5-.3,7.3,4.3,17.8,9.4,22.7,4.5,4.3,10.1,7.2,16,9.1,1.8.6,3.7-.6,4-2.4v-.3h-.5v-.2Z"/>
            <path class="cls-15" d="M396.5,195.1c-2.5-6.9-13.9-8.6-20.1-8.2-8.7.5-17.4,6.2-23.4,12.2-4.4,4.5-8.8,10.5-10,16.7-1.4,7.5-1.3,15,.9,22.4.5,1.8,2.6,2.7,4.3,1.9,6.1-3,10.9-8.6,14.5-14.3,3.6-5.6,8-10.7,12.9-15.2,2.3-2.1,4.7-4.2,7.5-5.7,1.5-.8,3-1.5,4.7-1.8h.4c3.6-.2,6.8-2.4,8.1-5.7.3-.9.5-1.7.2-2.3h0Z"/>
            <path class="cls-10" d="M396.5,195.1c-.5-1.3-1.2-2.3-2.2-3.3h0c.2.7,0,1.6-.2,2.4-1.3,3.3-4.5,5.5-8.1,5.7s-.3,0-.4,0c-1.6.3-3.2,1-4.7,1.8-2.8,1.5-5.2,3.6-7.5,5.7-4.9,4.5-9.3,9.6-12.9,15.2-3.6,5.6-8.4,11.2-14.5,14.3-.8.4-1.7.4-2.5.1.1.4.2.8.3,1.2.5,1.8,2.6,2.7,4.3,1.9,6.1-3,10.9-8.6,14.5-14.3,3.6-5.6,8-10.7,12.9-15.2,2.3-2.1,4.7-4.2,7.5-5.7,1.5-.8,3-1.5,4.7-1.8h.4c3.6-.2,6.8-2.4,8.1-5.7.3-.9.5-1.7.2-2.3h.1Z"/>
            <path class="cls-3" d="M414.5,233.2c-5.9-1.9-11.5-4.8-16-9.1-3.9-3.7-7.4-10.7-8.8-17.1-.1-.6-.2-1.2-.3-1.8v-.6c0-.5-.1-.9-.1-1.4v-.3c-.3,0-.6.1-1,.1h-.4c-.6.1-1.3.3-1.9.5-.5.2-.9.3-1.4.6h0c-.5.2-.9.4-1.3.7-2.8,1.5-5.2,3.6-7.5,5.7-4.9,4.5-9.3,9.6-12.9,15.2-.4.7-.9,1.4-1.4,2-.3.5-.7,1-1.1,1.5-.1.2-.2.3-.4.5-.5.6-1,1.2-1.5,1.8h0c-2.6,3.1-5.7,5.9-9.3,7.9h0c.3,1.5.6,3,.9,4.5h0c6.1-3,10.9-8.6,14.5-14.3,3.6-5.6,8-10.7,12.9-15.2,2.3-2.1,4.7-4.2,7.5-5.7.4-.2.8-.4,1.1-.6,1.2,6.6,4.9,14.2,9,18.1,4.5,4.3,10.1,7.2,16,9.1,1.7.6,3.5-.5,3.9-2.1-.2,0-.5,0-.7-.1h.2Z"/>
          </g>
          <path class="cls-3" d="M407.8,285.9c-6.4,6.4-10.9,14.8-12.5,23.8-.2,1.1-1.5,1.6-2.4,1-4.1-2.8-7.7-6.9-9.9-11.5,1.9,5.7,6,11,11,14.3,1,.6,2.2.1,2.4-1,1.7-9.6,6.8-18.7,14-25.2-.9-.4-1.8-.8-2.7-1.4h.1Z"/>
          <path class="cls-3" d="M402.6,278.6c-4.2,3.5-9.2,5.9-14.5,6.7-1.9.3-3.9.3-5.8.1.7,1.2,1.2,2.7,1.4,4.3,1.7.1,3.4,0,5.1-.2,5.6-.8,10.8-3.4,15.2-7.2-.5-1-.9-2.2-1.3-3.8h-.1Z"/>
          <path class="cls-11" d="M344.7,371.3l-2.5,9.2c5.5,4.3,11,8.5,16.9,12.2,1.2.8,2.4,1.5,3.6,2.2l2.4-8.6c-7.1-4.4-13.8-9.6-20.3-14.9h-.1Z"/>
          <path class="cls-14" d="M535.6,422.1H108.4c-1.9,0-3.5-1.6-3.5-3.5h0c0-1.9,1.6-3.5,3.5-3.5h427.1c1.9,0,3.5,1.6,3.5,3.5h0c0,1.9-1.6,3.5-3.5,3.5h.1Z"/>
          <path class="cls-8" d="M108.4,417.9h427.1c1.4,0,2.7.9,3.2,2.1.2-.4.3-.9.3-1.4,0-1.9-1.6-3.5-3.5-3.5H108.4c-1.9,0-3.5,1.6-3.5,3.5s0,1,.3,1.4c.5-1.2,1.8-2.1,3.2-2.1Z"/>
          <g>
            <path class="cls-17" d="M252.2,253.6h-9l-28.1,15.2c-.6.3-1.2-.3-.9-.9l7.6-14.4h0c-8.5-1.1-15.1-8.3-15.1-17h0c0-9.5,7.7-17.2,17.2-17.2h28.3c9.5,0,17.2,7.7,17.2,17.2h0c0,9.5-7.7,17.2-17.2,17.2h0Z"/>
            <path class="cls-16" d="M262.3,222.5c3,3.1,4.8,7.3,4.8,11.9h0c0,9.5-7.7,17.2-17.2,17.2h-7.2c-1.2,0-2.3.3-3.3.8l-23.7,12.8-1.4,2.7c-.3.6.3,1.2.9.9l28.1-15.2h9c9.5,0,17.2-7.7,17.2-17.2h0c0-5.7-2.8-10.8-7.2-13.9h0Z"/>
          </g>
          <g>
            <path class="cls-20" d="M228.5,240.8v-.7c-.2-1.3.3-2.9,1.5-4.4,1.1-1.4,1.8-2.4,1.8-3.5s-.8-2.2-2.4-2.2-1.9.3-2.6.8l-.6-1.6c.9-.6,2.3-1,3.6-1,2.9,0,4.2,1.8,4.2,3.7s-1,3-2.2,4.4c-1.1,1.3-1.5,2.5-1.4,3.8v.6h-2,0ZM229.4,246c-.9,0-1.5-.7-1.5-1.6s.6-1.6,1.5-1.6,1.5.7,1.5,1.6-.6,1.6-1.5,1.6h0Z"/>
            <path class="cls-20" d="M238.8,240.8v-.7c-.2-1.3.3-2.9,1.5-4.4,1.1-1.4,1.8-2.4,1.8-3.5s-.8-2.2-2.4-2.2-1.9.3-2.6.8l-.6-1.6c.9-.6,2.3-1,3.6-1,2.9,0,4.2,1.8,4.2,3.7s-1,3-2.2,4.4c-1.1,1.3-1.5,2.5-1.4,3.8v.6h-2,0ZM239.7,246c-.9,0-1.5-.7-1.5-1.6s.6-1.6,1.5-1.6,1.5.7,1.5,1.6-.6,1.6-1.5,1.6h0Z"/>
          </g>
          <g>
            <path class="cls-17" d="M208.5,211.4l-9.9,2.2-27.2,23.6c-.5.5-1.4,0-1.2-.7l4.8-17.8h0c-9.6.9-18.6-5.4-20.8-15.1h0c-2.3-10.5,4.2-20.8,14.7-23.2l31.2-7c10.5-2.3,20.8,4.2,23.2,14.7h0c2.3,10.5-4.2,20.8-14.7,23.2h0Z"/>
            <path class="cls-16" d="M211.9,174.7c4,2.7,7.1,6.8,8.2,11.9h0c2.3,10.5-4.2,20.8-14.7,23.2l-8,1.8c-1.3.3-2.5.9-3.4,1.7l-22.9,19.9-.9,3.4c-.2.7.6,1.2,1.2.7l27.3-23.7,9.9-2.2c10.5-2.3,17-12.7,14.7-23.2h0c-1.4-6.3-5.8-11.2-11.3-13.6h0Z"/>
          </g>
          <path class="cls-20" d="M183.1,200.4v-.7c-.2-1.3.3-2.9,1.5-4.4,1.1-1.4,1.8-2.4,1.8-3.5s-.8-2.2-2.4-2.2-1.9.3-2.6.8l-.6-1.6c.9-.6,2.3-1,3.6-1,2.9,0,4.2,1.8,4.2,3.7s-1,3-2.2,4.4c-1.1,1.3-1.5,2.5-1.4,3.8v.6h-2,0ZM184,205.5c-.9,0-1.5-.7-1.5-1.6s.6-1.6,1.5-1.6,1.5.7,1.5,1.6-.6,1.6-1.5,1.6h0Z"/>
          <g>
            <path class="cls-17" d="M267.9,375.5l-9.7-3.1-35.4,6.6c-.7.1-1.2-.7-.7-1.2l13.1-12.9h0c-8.8-4.1-13.4-14.1-10.3-23.5h0c3.3-10.2,14.2-15.8,24.4-12.6l30.4,9.7c10.2,3.3,15.8,14.2,12.6,24.4h0c-3.3,10.2-14.2,15.8-24.4,12.6Z"/>
            <path class="cls-16" d="M289.4,345.5c2.1,4.3,2.7,9.5,1.1,14.5h0c-3.3,10.2-14.2,15.8-24.4,12.6l-7.8-2.5c-1.2-.4-2.6-.5-3.9-.2l-29.9,5.6-2.5,2.4c-.5.5,0,1.4.6,1.2l35.5-6.7,9.7,3.1c10.2,3.3,21.1-2.4,24.4-12.6h0c2-6.2.7-12.6-2.9-17.4h0Z"/>
          </g>
          <path class="cls-20" d="M254.8,352.7v-.7c-.2-1.3.3-2.9,1.5-4.4,1.1-1.4,1.8-2.4,1.8-3.5s-.8-2.2-2.4-2.2-1.9.3-2.6.8l-.6-1.6c.9-.6,2.3-1,3.6-1,2.9,0,4.2,1.8,4.2,3.7s-1,3-2.2,4.4c-1.1,1.3-1.5,2.5-1.4,3.8v.6h-2,0ZM255.7,357.8c-.9,0-1.5-.7-1.5-1.6s.6-1.6,1.5-1.6,1.5.7,1.5,1.6-.6,1.6-1.5,1.6h0Z"/>
          <g>
            <path class="cls-17" d="M258.4,309.4h-9l-28.1,15.2c-.6.3-1.2-.3-.9-.9l7.6-14.4h0c-8.5-1.1-15.1-8.3-15.1-17h0c0-9.5,7.7-17.2,17.2-17.2h28.3c9.5,0,17.2,7.7,17.2,17.2h0c0,9.5-7.7,17.2-17.2,17.2h0Z"/>
            <path class="cls-16" d="M268.4,278.3c3,3.1,4.8,7.3,4.8,11.9h0c0,9.5-7.7,17.2-17.2,17.2h-7.2c-1.2,0-2.3.3-3.3.8l-23.7,12.8-1.4,2.7c-.3.6.3,1.2.9.9l28.1-15.2h9c9.5,0,17.2-7.7,17.2-17.2h0c0-5.7-2.8-10.8-7.2-13.9h0Z"/>
          </g>
          <g>
            <path class="cls-20" d="M229.8,296.6v-.7c-.2-1.3.3-2.9,1.5-4.4,1.1-1.4,1.8-2.4,1.8-3.5s-.8-2.2-2.4-2.2-1.9.3-2.6.8l-.6-1.6c.9-.6,2.3-1,3.6-1,2.9,0,4.2,1.8,4.2,3.7s-1,3-2.2,4.4c-1.1,1.3-1.5,2.5-1.4,3.8v.6h-2,0ZM230.7,301.7c-.9,0-1.5-.7-1.5-1.6s.6-1.6,1.5-1.6,1.5.7,1.5,1.6-.6,1.6-1.5,1.6h0Z"/>
            <path class="cls-20" d="M240.1,296.6v-.7c-.2-1.3.3-2.9,1.5-4.4,1.1-1.4,1.8-2.4,1.8-3.5s-.8-2.2-2.4-2.2-1.9.3-2.6.8l-.6-1.6c.9-.6,2.3-1,3.6-1,2.9,0,4.2,1.8,4.2,3.7s-1,3-2.2,4.4c-1.1,1.3-1.5,2.5-1.4,3.8v.6h-2,0ZM241,301.7c-.9,0-1.5-.7-1.5-1.6s.6-1.6,1.5-1.6,1.5.7,1.5,1.6-.6,1.6-1.5,1.6h0Z"/>
            <path class="cls-20" d="M250.4,296.6v-.7c-.2-1.3.3-2.9,1.5-4.4,1.1-1.4,1.8-2.4,1.8-3.5s-.8-2.2-2.4-2.2-1.9.3-2.6.8l-.6-1.6c.9-.6,2.3-1,3.6-1,2.9,0,4.2,1.8,4.2,3.7s-1,3-2.2,4.4c-1.1,1.3-1.5,2.5-1.4,3.8v.6h-2,0ZM251.3,301.7c-.9,0-1.5-.7-1.5-1.6s.6-1.6,1.5-1.6,1.5.7,1.5,1.6-.6,1.6-1.5,1.6h0Z"/>
          </g>
          <g class="cls-5">
            <path class="cls-19" d="M373.6,239.7c1,2.1,1.6,4.4,1.5,6.7,0,.5,0,1.3-.2,1.8s-.7.1-1.1,0c-.9-.2-1.8.2-2.5.8-3,2.6.7,8.6,4.3,6.4.8-.5,0-1.8-.8-1.3-1.6,1-3.3-1.3-3.1-2.8,0-.9.8-1.7,1.7-1.7s1.5.6,2.3,0c.7-.5.7-1.4.8-2.2.1-1,.1-2,0-2.9-.2-2-.8-3.9-1.7-5.7-.4-.9-1.7-.1-1.3.8h.1Z"/>
          </g>
          <path class="cls-21" d="M372.7,267s3.4-6.8,10.4-1.6"/>
        </g>
      </g>
    </g>
  </g>
</svg>