<?xml version="1.0" encoding="UTF-8"?>
<svg xmlns="http://www.w3.org/2000/svg" version="1.1" viewBox="0 0 925.5 570">
  <defs>
    <style>
      .cls-1 {
        fill: #f89f44;
      }

      .cls-2 {
        fill: #82a493;
      }

      .cls-3 {
        fill: #ffb6b6;
      }

      .cls-4 {
        fill: #ff5c36;
      }

      .cls-5 {
        fill: #e4e4e4;
      }

      .cls-6 {
        fill: #3f3d56;
      }

      .cls-7 {
        fill: #ffcfcf;
      }

      .cls-8 {
        fill: #fc5c3d;
      }

      .cls-9 {
        fill: #f6e673;
      }

      .cls-10 {
        fill: #3cc0cd;
      }

      .cls-11 {
        fill: #e8e7df;
      }

      .cls-12 {
        fill: #f3d961;
      }
    </style>
  </defs>
  <!-- Generator: Adobe Illustrator 28.7.1, SVG Export Plug-In . SVG Version: 1.2.0 Build 142)  -->
  <g>
    <g id="Layer_1">
      <path class="cls-11" d="M828.4,268.2c0,70.6-38.5,135.5-100.4,169.4-1.7.9-3.5,1.9-5.2,2.7-6.5,3.3-13.2,6.3-20,8.8-2.7,1-5.5,2-8.3,2.9-.3,0-.5.2-.8.3-55.2,17.5-115.3,9.3-163.8-22.4-3.2-2.1-6.4-4.3-9.4-6.6-1.7-1.3-3.5-2.6-5.1-4-4.8-3.8-9.4-7.8-13.8-12.1-37.8-36.3-59.2-86.5-59.1-139,0-106.6,86.4-193,193-193s193,86.4,193,193Z"/>
      <path class="cls-2" d="M681.5,358.2l-4.4,16.5,16.5,77.5c-44.4,14-92.4,11.5-135.1-6.9l12.9-54.1.4-29.3,1.4-96.7.4-.2s0,0,0,0l32.9-16.9,56.7-1.4,42.3,20.6-.3,1.2-23.7,89.8Z"/>
      <path class="cls-3" d="M704.7,499.6c-4.9-5.9-4.2-14.6,1.7-19.5.6-.5,1.3-1,2-1.4l-9.2-48.3,23.6,9.8,5.1,44.4c3.4,6.9.5,15.2-6.4,18.6-5.8,2.8-12.7,1.3-16.8-3.6h0Z"/>
      <path class="cls-2" d="M697,268.7l6.1-2s19.2,12.3,17.4,42.1c0,0,.7,15.4,0,25.7-.8,11.8,9.8,128.8,9.8,128.8h-34.2l-14.7-105.9,15.6-88.7Z"/>
      <path class="cls-7" d="M677.2,193.8c0,21.7-17.6,39.3-39.3,39.3s-39.3-17.6-39.3-39.3,17.6-39.3,39.3-39.3h0c21.6,0,39.2,17.5,39.3,39.1,0,0,0,.1,0,.2Z"/>
      <path class="cls-1" d="M598.7,141c4.6-9.9,13.5-7.9,21.3-4.6,9.9-2.2,19.2-8.7,29.9-4.9,10.5,15.2,45.6,10.7,38.1,35.5,0,5.9,11.2,2.5,9.2,12.2,5.9,18.7-21.4,54.2-37.1,46.7,3.9-7.1,12.7-23.3-.7-24.9-28.9,26.9-3-51.2-39.3-28.5-12,11-28.5-20.6-21.5-31.7Z"/>
      <path class="cls-5" d="M658.9,456.2l-62.7-12.4,16.1-81.2c22.2,8.4,43.1,12.5,62.7,12.4-17.1,25.2-24.9,52.2-16.1,81.2Z"/>
      <path class="cls-4" d="M649.7,461l-62.7-12.4c-5.1-36.8-.5-64.5,16.1-81.2,22.2,8.4,43.1,12.5,62.7,12.4-10.4,25.8-15.8,53.4-16.1,81.2Z"/>
      <path class="cls-3" d="M608.2,438.3c-.9-7.6-7.9-13-15.4-12-.8.1-1.6.3-2.4.5l-29.1-39.6-8.9,24,29,34c2.8,7.2,10.8,10.8,18,8,6-2.3,9.7-8.4,8.8-14.8h0Z"/>
      <path class="cls-2" d="M582.1,267.2l-5.3-3.6s-31.4,2.9-37.9,32.1c0,0-4.7,17.5-6.9,27.6-1.1,5.2-16,55.1-16,55.1l50.5,55.1,13.8-20.7-13.8-34.5,15.6-111.2Z"/>
      <rect class="cls-2" x="119.6" y="172.1" width="26" height="23"/>
      <rect class="cls-4" x="175.5" y="264" width="26" height="23"/>
      <rect class="cls-9" x="216.1" y="421" width="26" height="23"/>
      <path class="cls-5" d="M216.3,119.3c-1.6,0-2.9,1.3-2.9,2.9,0,1.6,1.3,2.9,2.9,2.9h212.5c1.6,0,2.9-1.3,2.9-2.9,0-1.6-1.3-2.9-2.9-2.9h-212.5Z"/>
      <path class="cls-5" d="M216.3,136.8c-1.6,0-2.9,1.3-2.9,2.9,0,1.6,1.3,2.9,2.9,2.9,0,0,0,0,0,0h134.3c1.6,0,2.9-1.3,2.9-2.9,0-1.6-1.3-2.9-2.9-2.9h-134.3Z"/>
      <path class="cls-5" d="M188.7,328.4c-1.6,0-2.9,1.3-2.9,2.9,0,1.6,1.3,2.9,2.9,2.9h212.5c1.6,0,2.9-1.3,2.9-2.9,0-1.6-1.3-2.9-2.9-2.9h-212.5Z"/>
      <path class="cls-5" d="M188.7,345.9c-1.6,0-2.9,1.3-2.9,2.9,0,1.6,1.3,2.9,2.9,2.9h134.3c1.6,0,2.9-1.3,2.9-2.9,0-1.6-1.3-2.9-2.9-2.9h-134.3Z"/>
      <path class="cls-5" d="M309.7,477.8c-1.6,0-2.9,1.3-2.9,2.9,0,1.6,1.3,2.9,2.9,2.9h212.5c1.6,0,2.9-1.3,2.9-2.9,0-1.6-1.3-2.9-2.9-2.9h-212.5Z"/>
      <path class="cls-5" d="M309.7,495.2c-1.6,0-2.9,1.3-2.9,2.9,0,1.6,1.3,2.9,2.9,2.9,0,0,0,0,0,0h134.3c1.6,0,2.9-1.3,2.9-2.9,0-1.6-1.3-2.9-2.9-2.9h-134.3Z"/>
      <path class="cls-6" d="M131.9,183.7c12.6-2.8,23.6-10.5,30.4-21.4,1.9-3.1,3.5-6.4,4.6-9.8.2-.6-.2-1.2-.8-1.4-.6-.2-1.2.1-1.4.7-4,11.6-12.4,21.2-23.5,26.5-3.1,1.5-6.4,2.6-9.7,3.3-1.4.3-1,2.6.4,2.3h0Z"/>
      <path class="cls-6" d="M154.3,156.8c4.1-2.3,8.3-4.7,12.4-7,.2-.1.7-.5.9-.5-.2,0,0,0,0,.2,0,.2,0,.4,0,.6,0,1.2,0,2.4.1,3.6l.2,7c0,1.5,2.3,1.6,2.3.2l-.2-8.2c0-1.9.4-6-2.6-5.7-1.1.1-2.1.9-3,1.4l-3.8,2.1-7.3,4.1c-1.3.7-.3,2.8,1,2.1h0Z"/>
      <path class="cls-6" d="M188.8,275.4c-12.5,3.3-23.1,11.4-29.5,22.6-1.8,3.2-3.2,6.5-4.2,10-.1.6.2,1.2.9,1.4.6.1,1.2-.2,1.4-.8,3.5-11.8,11.6-21.7,22.5-27.4,3-1.6,6.2-2.8,9.6-3.7,1.4-.4.8-2.6-.6-2.2h0Z"/>
      <path class="cls-6" d="M167.5,303.1l-12,7.4c-.2.1-.4.3-.6.4-.2.1-.4.1-.3.2-.2-.2-.1-.9-.2-1.1l-.2-3.5-.5-6.9c0-1.5-2.4-1.5-2.3,0l.5,8.2c.1,1.9-.2,5.7,2.6,5.5,1.3,0,2.5-1.1,3.5-1.7l3.4-2.1,7.1-4.4c1.3-.8.1-2.8-1.2-2h0Z"/>
      <path class="cls-6" d="M228.3,431.5c11.9,3.1,22,10.9,28.1,21.6,1.7,3,3,6.2,4,9.4.2.6.8.9,1.4.8.6-.2.9-.8.8-1.4-3.7-12.4-12.2-22.7-23.6-28.8-3.2-1.7-6.6-3-10.1-3.9-1.4-.4-2,1.9-.6,2.2h0Z"/>
      <path class="cls-6" d="M249,459.1l7.1,4.4,3.4,2.1c1,.6,2.2,1.7,3.5,1.7,2.8.2,2.5-3.7,2.6-5.5l.5-8.2c0-1.5-2.2-1.5-2.3,0l-.5,6.9-.2,3.3c0,.3,0,1-.2,1.2.2-.2,0,0-.2-.2-.2-.1-.5-.3-.7-.4l-12-7.4c-1.3-.8-2.4,1.2-1.2,2h0Z"/>
      <circle class="cls-2" cx="171.7" cy="130" r="10.7"/>
      <circle class="cls-4" cx="153.3" cy="340.1" r="10.7"/>
      <circle class="cls-9" cx="269" cy="489.1" r="10.7"/>
      <path class="cls-12" d="M618.5,423.7v-1.9c-.6-3.8.7-8.2,4.4-12.5,3.3-3.9,5.1-6.7,5.1-10s-2.3-6.2-6.9-6.2c-2.6,0-5.5.9-7.3,2.2l-1.7-4.6c2.5-1.7,6.5-2.9,10.4-2.9,8.3,0,12.1,5.2,12.1,10.7s-2.8,8.6-6.2,12.6c-3.2,3.8-4.4,7-4.1,10.7v1.8c0,0-5.6,0-5.6,0ZM621.1,438.4c-2.5,0-4.2-2-4.2-4.5s1.8-4.6,4.4-4.6,4.3,1.9,4.3,4.6-1.7,4.5-4.4,4.5h0Z"/>
      <path class="cls-8" d="M518.5,201.3l-.2-2.6c-.6-5.4,1.2-11.4,6.3-17.4,4.5-5.5,7.1-9.4,7.1-14s-3.2-8.6-9.6-8.7c-3.6,0-7.7,1.2-10.2,3.1l-2.4-6.4c3.4-2.4,9.1-4,14.5-4,11.6,0,16.9,7.2,16.9,14.9s-3.8,11.9-8.7,17.6c-4.4,5.3-6.1,9.8-5.8,15v2.5c.1,0-7.8,0-7.8,0ZM522.1,221.8c-3.4,0-5.9-2.7-5.9-6.3s2.5-6.4,6.1-6.4,6,2.6,6,6.4-2.3,6.3-6.1,6.3h-.1Z"/>
      <path class="cls-10" d="M755.5,274l-.2-2.6c-.6-5.4,1.2-11.4,6.3-17.4,4.5-5.5,7.1-9.4,7.1-14s-3.2-8.6-9.6-8.7c-3.6,0-7.7,1.2-10.2,3.1l-2.4-6.4c3.4-2.4,9.1-4,14.5-4,11.6,0,16.9,7.2,16.9,14.9s-3.8,11.9-8.7,17.6c-4.4,5.3-6.1,9.8-5.8,15v2.5c.1,0-7.8,0-7.8,0ZM759.1,294.6c-3.4,0-5.9-2.7-5.9-6.3s2.5-6.4,6.1-6.4,6,2.6,6,6.4-2.3,6.3-6.1,6.3h-.1Z"/>
    </g>
  </g>
</svg>