<?xml version="1.0" encoding="UTF-8"?>
<svg xmlns="http://www.w3.org/2000/svg" version="1.1" viewBox="0 0 692 395">
  <defs>
    <style>
      .cls-1 {
        fill: #6593c7;
      }

      .cls-2 {
        fill: #ffbb45;
      }

      .cls-3 {
        fill: #fab45a;
      }

      .cls-4 {
        fill: #e0422d;
      }

      .cls-5 {
        fill: #ffe1ad;
      }

      .cls-6 {
        fill: #fff;
      }

      .cls-7 {
        fill: #d9a275;
      }

      .cls-8 {
        fill: #dd675b;
      }

      .cls-9 {
        fill: #ffa599;
      }

      .cls-10 {
        fill: #8ccdf5;
      }

      .cls-11 {
        fill: #4c77ad;
      }

      .cls-12 {
        fill: #d8f2fe;
      }

      .cls-13 {
        fill: #ff9a30;
      }

      .cls-14 {
        fill: #ffe5b2;
      }

      .cls-15 {
        fill: #003672;
      }

      .cls-16 {
        fill: #f8c79f;
      }

      .cls-17 {
        fill: #ffedcc;
      }

      .cls-18 {
        fill: #ffe187;
      }

      .cls-19 {
        fill: #77ccfe;
      }

      .cls-20 {
        fill: #a33021;
      }

      .cls-21 {
        fill: #aae0fe;
      }

      .cls-22 {
        fill: #002854;
      }

      .cls-23 {
        fill: #ff5b42;
      }
    </style>
  </defs>
  <!-- Generator: Adobe Illustrator 28.7.1, SVG Export Plug-In . SVG Version: 1.2.0 Build 142)  -->
  <g>
    <g id="Layer_1">
      <g id="Layer_1-2" data-name="Layer_1">
        <g id="Layer_1-2">
          <g>
            <g>
              <path class="cls-21" d="M634.2,112c-5.9,2.9-10.4,8-14.7,12.9-2.4,2.7-5.8,5.7-9.2,4.5-2.1-.8-3.3-3.1-3.9-5.2-.6-2.2-.7-4.5-1.6-6.6-2.7-6.1-11.3-7.5-17.1-4.3-5.8,3.3-9,9.7-10.6,16.1-1.6,6.4-2.1,13.1-4.1,19.4-.8,2.5-2.1,5.1-4.5,6.2-3.2,1.4-6.8-.7-9.2-3.2s-4.4-5.6-7.5-7.1c-4.2-1.9-9.3-.3-12.6,2.9s-5,7.7-5.9,12.2c-3.9,17.3,7.7,42.2,20.2,54.9l99.3-101.1c-4.8-4.5-12.6-4.4-18.5-1.5h-.1Z"/>
              <path class="cls-19" d="M654.6,132c-2.8,6-7.8,10.5-12.7,15-2.7,2.4-5.6,5.9-4.3,9.2.8,2.1,3.1,3.3,5.3,3.8s4.5.6,6.6,1.5c6.1,2.6,7.7,11.2,4.6,17-3.1,5.8-9.6,9.1-15.9,10.9-6.4,1.8-13.1,2.3-19.3,4.5-2.5.8-5.1,2.1-6.1,4.6-1.3,3.2.8,6.8,3.4,9.2,2.5,2.4,5.7,4.3,7.2,7.4,2,4.1.5,9.3-2.6,12.7-3.2,3.3-7.6,5.1-12.1,6.2-17.3,4.2-42.4-6.9-55.2-19.2l99.3-101.1c4.6,4.7,4.6,12.5,1.9,18.5v-.2h-.1Z"/>
              <path class="cls-12" d="M553.4,214.6c.5.5,1,1,1.6,1.5l9.3-9.9,45.7,13.9-43.6-16.1,30.8-32.7,37.5,5.1-35.3-7.5,25.5-27-26.6,25.9-8.1-35.2,5.8,37.4-32.2,31.4-16.9-43.3,14.7,45.5-9.7,9.5c.5.5,1,1.1,1.5,1.6h0Z"/>
            </g>
            <g>
              <path class="cls-4" d="M573.2,220c6.5-8,14.3-15.2,23.6-19.6,8.9-4.3,19-5.9,28.9-5.8,9.4,0,19.2,1.8,26.6,7.5,7.5,5.7,11.9,16.1,8.4,24.9-2.4,6-8.1,10.3-14.3,12.3s-12.8,1.9-19.3,1.3-12.9-1.8-19.4-2c-22.4-.6-44.5,11.5-57.2,30,4.2-22.8,16.6-41.1,22.6-48.6h.1Z"/>
              <path class="cls-23" d="M661.8,218.8c.3,2.8,0,5.5-1.1,8.2-2.4,6-8.1,10.3-14.3,12.3s-12.8,1.9-19.3,1.3-12.9-1.8-19.4-2c-22.4-.6-44.5,11.5-57.2,30,30.6-82.1,111.3-49.8,111.3-49.8Z"/>
            </g>
            <g>
              <path class="cls-15" d="M539,308.2l-7.4,16.2c-.7,1.4,0,3.1,1.4,3.8,1.4.7,3.1,0,3.8-1.4l7.4-16.2-5.2-2.4Z"/>
              <path class="cls-2" d="M589.8,203.7l-13.3,2.8-28,61.4c-7.1,15.6-12.2,32.1-15.1,49h0l4,1.8,4,1.8h0c10.9-13.3,20-27.9,27.1-43.5l28-61.4-6.6-11.9h-.1Z"/>
              <polygon class="cls-13" points="576.5 206.5 571.1 218.2 591.1 227.3 596.5 215.6 593.4 210.2 582.6 205.2 576.5 206.5"/>
              <path class="cls-2" d="M619.2,139.4c-6.7-3-14.5-.1-17.6,6.6l-28.7,62.9,24.1,11,28.7-62.9c3-6.7,0-14.5-6.6-17.6h0Z"/>
              <path class="cls-18" d="M609.9,144.7l.9.4c1.5.7,2.2,2.6,1.5,4.1l-25.7,56.3c-.7,1.5-2.6,2.2-4.1,1.5l-.9-.4c-1.5-.7-2.2-2.6-1.5-4.1l25.7-56.3c.7-1.5,2.6-2.2,4.1-1.5Z"/>
              <path class="cls-18" d="M576.6,222.2c-1.4-.6-3,0-3.6,1.4l-25.2,55.2c-.6,1.4,0,3,1.4,3.6s3,0,3.6-1.4l25.2-55.2c.6-1.4,0-3-1.4-3.6Z"/>
              <path class="cls-15" d="M600.2,149.2l25.2,11.5c3.2,1.5,4.7,5.2,3.2,8.5l-.5,1-31-14.1,3.1-6.7h0v-.2Z"/>
              <path class="cls-15" d="M623.8,168.5l-26.6,58.3c-.5,1.1,0,2.5,1.1,3s2.5,0,3-1.1l26.6-58.3-4.1-1.9Z"/>
            </g>
            <g>
              <path class="cls-4" d="M389.1,231.4c-4.9-9.1-11.3-17.5-19.7-23.6-8-5.8-17.6-9.3-27.4-11-9.3-1.7-19.2-1.7-27.6,2.5-8.4,4.3-14.6,13.7-12.8,22.9,1.3,6.4,6.1,11.7,11.8,14.7,5.7,3.1,12.3,4.3,18.8,4.8,6.5.6,13,.6,19.4,1.6,22.2,3.5,41.7,19.4,50.8,40,0-23.2-8.8-43.5-13.4-52h.1Z"/>
              <path class="cls-23" d="M302.1,213.9c-.8,2.7-.9,5.5-.4,8.2,1.3,6.4,6.1,11.7,11.8,14.7,5.7,3.1,12.3,4.3,18.8,4.8,6.5.6,13,.6,19.4,1.6,22.2,3.5,41.7,19.4,50.8,40-15.1-86.4-100.4-69.4-100.4-69.4h0Z"/>
            </g>
            <g>
              <path class="cls-13" d="M515.5,128.2c3.8-9.9,9.2-19.4,16.9-26.7,7.4-7,16.7-11.9,26.4-15,9.2-2.9,19.4-4.3,28.5-1.1,9.1,3.2,16.8,12,16.2,21.7-.4,6.7-4.6,12.7-10,16.6s-11.9,6-18.5,7.5-13.2,2.4-19.6,4.3c-22.1,6.6-39.9,25.5-46.4,47.6-3.2-23.6,3.1-45.5,6.6-54.8h-.1Z"/>
              <path class="cls-2" d="M601.9,98.7c1.1,2.6,1.7,5.4,1.5,8.4-.4,6.7-4.6,12.7-10,16.6s-11.9,6-18.5,7.5c-6.5,1.5-13.2,2.4-19.6,4.3-22.1,6.6-39.9,25.5-46.4,47.6,3.7-90.1,93-84.3,93-84.3h0Z"/>
            </g>
            <g>
              <path class="cls-13" d="M380.8,244.1c-9.8-4.5-20.3-7.6-31.1-7.6s-20.5,3.1-29.7,7.7c-8.8,4.4-17.1,10.5-21.5,19.2-4.4,8.8-3.7,20.5,3.5,27.1,5,4.6,12.3,6,19,5s12.9-4.1,18.7-7.6c5.8-3.5,11.3-7.6,17.3-10.7,20.8-10.8,46.9-9.6,67.3,1.9-14.3-19.4-34.3-31-43.4-35.2v.2h-.1Z"/>
              <path class="cls-2" d="M297.1,283.5c1,2.7,2.6,5.2,4.8,7.1,5,4.6,12.3,6,19,5s12.9-4.1,18.7-7.6c5.8-3.5,11.3-7.6,17.3-10.7,20.8-10.8,46.9-9.6,67.3,1.9-66.2-62.9-127,4.2-127,4.2h-.1Z"/>
            </g>
            <g>
              <path class="cls-13" d="M383.5,138c-3.8-7.9-6.4-16.6-6.4-25.4s2.4-16.7,6.1-24.3c3.5-7.2,8.5-14.1,15.6-17.7s16.8-3.2,22.2,2.7c3.8,4.1,5,10,4.2,15.5-.7,5.5-3.2,10.6-6.1,15.3-2.9,4.7-6.1,9.2-8.6,14.2-8.7,17-7.6,38.4,2,55-16-11.6-25.5-27.8-29-35.3h0Z"/>
              <path class="cls-2" d="M415.2,69.5c2.2.8,4.2,2.1,5.9,3.9,3.8,4.1,5,10,4.2,15.5-.7,5.5-3.2,10.6-6.1,15.3-2.9,4.7-6.1,9.2-8.6,14.2-8.7,17-7.6,38.4,2,55-51.8-53.7,2.7-103.8,2.7-103.8h-.1Z"/>
            </g>
            <g>
              <path class="cls-13" d="M569,246.4c8.8-3.9,18.3-6.6,27.9-6.4,9.2.2,18.3,3,26.5,7.3,7.8,4,15.2,9.6,19,17.5s3.1,18.4-3.5,24.2c-4.5,4-11.1,5.2-17.1,4.3-6-.9-11.5-3.8-16.6-7s-10-6.9-15.3-9.8c-18.4-9.9-41.9-9.1-60.2.9,13-17.2,31-27.3,39.3-31h0Z"/>
              <path class="cls-2" d="M643.2,282.6c-1,2.4-2.4,4.6-4.4,6.3-4.5,4-11.1,5.2-17.1,4.3-6-.9-11.5-3.8-16.6-7s-10-6.9-15.3-9.8c-18.4-9.9-41.9-9.1-60.2.9,59.9-55.5,113.5,5.3,113.5,5.3h0Z"/>
            </g>
            <g>
              <path class="cls-23" d="M414.6,87.4c-.1,5.3,1.8,10.5,3.8,15.5,1.1,2.7,2,6.3-.2,8.3-1.4,1.2-3.4,1.2-5.2.8-1.8-.4-3.5-1.2-5.3-1.3-5.4-.4-9.7,5.3-9.5,10.7.2,5.4,3.6,10.1,7.6,13.7s8.7,6.4,12.4,10.2c1.5,1.5,2.9,3.4,2.8,5.5-.2,2.8-3.1,4.7-5.8,5.4s-5.7,1.1-7.9,2.8c-3,2.3-3.8,6.6-2.7,10.2,1.1,3.6,3.7,6.5,6.5,8.9,11,9.3,33.3,10.3,47.1,6.1l-35.5-109.5c-5,1.8-7.9,7.4-8,12.7h0Z"/>
              <path class="cls-4" d="M436.6,80.3c3.3,4.2,4.7,9.6,6,14.7.7,2.9,2.1,6.3,5,6.6,1.8.2,3.5-1,4.7-2.4s2.1-3,3.6-4.2c4.1-3.4,11-1.4,14,3.1s3,10.3,1.9,15.6c-1.1,5.3-3.2,10.3-4,15.6-.3,2.1-.4,4.5,1,6.1,1.8,2.2,5.2,2,7.9,1,2.7-.9,5.2-2.5,8-2.4,3.7,0,6.9,3.1,8.1,6.7,1.2,3.5.8,7.4,0,11-3.5,14-20.9,27.9-34.5,32.6l-35.5-109.5c5.1-1.5,10.7,1.4,14,5.6h-.2Z"/>
              <path class="cls-9" d="M458.2,184.2c.5-.2,1.1-.4,1.6-.6l-3.6-10.5,27.1-27.7-28,25.3-12-34.5,17.8-25.1-18.6,22.6-9.9-28.5,8.7,28.9-28.4-7.4,29.1,9.9,10.5,34.9-37.5-4.1,38.3,6.5,3.2,10.6c.6-.2,1.1-.3,1.7-.5v.2h0Z"/>
            </g>
            <g>
              <path class="cls-2" d="M296.5,119.8c1.5,4.8,4.8,8.7,8,12.5,1.8,2.1,3.6,5,2.3,7.4-.8,1.5-2.7,2.1-4.4,2.3-1.7.2-3.5,0-5.1.5-4.8,1.3-7,7.6-5.2,12.3s6.3,7.8,10.9,9.8,9.6,3.1,14.1,5.3c1.8.9,3.6,2.1,4.1,4.1.7,2.6-1.3,5-3.5,6.6-2.2,1.5-4.7,2.7-6.2,4.8-1.9,2.9-1.3,7,.7,9.8s5.2,4.6,8.5,5.9c12.6,4.9,32.6-.9,43.5-8.8l-64.4-86.2c-3.9,3.1-4.7,8.9-3.3,13.7h0Z"/>
              <path class="cls-13" d="M313.8,106.8c4.2,2.8,7,7,9.8,11.2,1.5,2.3,3.8,4.9,6.4,4.3,1.7-.4,2.8-2,3.5-3.5.7-1.6,1-3.3,1.9-4.8,2.6-4.3,9.3-4.5,13.3-1.5s5.8,8.2,6.3,13.2c.6,5,.2,10.1,1.1,15,.3,2,1,4.1,2.7,5.1,2.3,1.4,5.2.2,7.3-1.5s3.9-3.8,6.4-4.6c3.3-1,7.1.7,9.2,3.4s2.9,6.3,3.2,9.8c1.1,13.4-10.1,31-20.7,39.2l-64.4-86.2c4.1-2.9,9.9-2,14.1.7v.2h0Z"/>
              <path class="cls-5" d="M364.2,192.3c.4-.3.8-.7,1.3-1l-6.4-8.1,15.7-32.7-17.1,30.8-21-26.9,8.2-27.6-9.7,25.6-17.4-22.2,16.4,22.9-27.3,2h28.7l19.8,27.7-34.4,7.7,35.8-5.8,6,8.4c.5-.3.9-.6,1.4-.9h0Z"/>
            </g>
            <g>
              <g>
                <path class="cls-21" d="M383.4,134.9l-12.5-63.4-14.2,2.8-14.2,2.8,12.5,63.4-27.2,55.8c-5.1,10.5,4,22.3,15.4,20l39.9-7.9,39.9-7.9c11.4-2.3,15.4-16.6,6.7-24.4l-46.3-41.3h0Z"/>
                <path class="cls-21" d="M370.3,68.4l-28.4,5.6c-1.7.3-2.8,2-2.5,3.7s2,2.8,3.7,2.5l28.4-5.6c1.7-.3,2.8-2,2.5-3.7s-2-2.8-3.7-2.5Z"/>
              </g>
              <path class="cls-13" d="M426.7,188.5c.7-2.5,0-4.9-1.9-6.6l-15.7-14c-9.9,5.8-21.4,8.9-32.9,8.6-7.9-.2-15.8-1.9-23.7-1.5-2,.1-4,.3-6,.7l-11.7,24c-1.1,2.3-.9,4.8.7,6.8s3.9,2.9,6.4,2.4l79.9-15.8c2.5-.5,4.3-2.2,5-4.7h0Z"/>
              <path class="cls-6" d="M353.6,82.3c-2.5.5-4.1,2.9-3.6,5.4l9.4,47.9c.5,2.5,2.9,4.1,5.4,3.6s4.1-2.9,3.6-5.4l-9.4-47.9c-.5-2.5-2.9-4.1-5.4-3.6h0Z"/>
              <circle class="cls-21" cx="338.3" cy="55.7" r="8.2" transform="translate(206.3 372.1) rotate(-76.7)"/>
              <path class="cls-21" d="M359.6,62.7c0,1.9-1.5,3.4-3.4,3.4s-3.4-1.5-3.4-3.4,1.5-3.4,3.4-3.4,3.4,1.5,3.4,3.4Z"/>
            </g>
            <g>
              <rect class="cls-4" x="544.2" y="260.4" width="104.6" height="26.8" transform="translate(17.8 583.4) rotate(-52.8)"/>
              <path class="cls-14" d="M638.8,240.2l10.4-13.6c1.9-2.5,1.4-6.1-1.1-8l-12.3-9.3c-2.5-1.9-6.1-1.4-8,1.1l-10.4,13.6,21.3,16.2h0Z"/>
              <rect class="cls-1" x="627.1" y="216.8" width="5" height="26.8" transform="translate(65.6 592.5) rotate(-52.8)"/>
              <rect class="cls-13" x="544" y="267.5" width="104.6" height="12.5" transform="translate(17.7 583.2) rotate(-52.8)"/>
              <polygon class="cls-14" points="541.8 345.7 575.5 323.6 564.8 315.5 554.2 307.4 541.8 345.7"/>
              <polygon class="cls-15" points="541.8 345.7 550.7 339.9 545.1 335.6 541.8 345.7"/>
            </g>
            <g>
              <path class="cls-15" d="M467.9,101.7l-9.8,51.9h0c-1.4,9.2,17.5,20.5,42.6,25.2,25.1,4.7,46.9,1.2,48.9-8h0l9.8-51.9-91.5-17.2h0Z"/>
              <path class="cls-22" d="M505.6,152.8c4.1.8,8.1,1.3,11.9,1.7,4.5.4,7.6,4.6,6.8,9l-3.3,17.5c15.6.2,27.2-3.5,28.6-10h0l5.7-30.3,4.1-21.6-91.5-17.2-4.9,25.9h0c-1.4,9.2,17.5,20.5,42.6,25.2v-.2h0Z"/>
              <path class="cls-15" d="M513.9,83.4l-86.1,6.4c-5.6.4-7,8-2,10.4l77.9,37.3c2.9,1.4,6,2,9.2,1.7l86.1-6.4c5.6-.4,7-8,2-10.4l-77.9-37.3c-2.9-1.4-6-2-9.2-1.7h0Z"/>
              <path class="cls-2" d="M554.3,193.9c-4.2-.8-8.8,5.6-10.5,14.1-.3,1.4,2.9,3.2,7,4s7.7.2,8-1.2c1.6-8.6-.4-16.2-4.6-17h0Z"/>
              <path class="cls-15" d="M558.7,195.1c.5-2.4-1.1-4.8-3.6-5.3-2.4-.5-4.8,1.1-5.3,3.6-.5,2.4,1.1,4.8,3.6,5.3s4.8-1.1,5.3-3.6Z"/>
              <path class="cls-2" d="M554.3,194.3c-1.3-.3-2.2-1.5-2-2.9l10.3-54.6-49.8-25.6c-1.2-.6-1.7-2.1-1.1-3.3.6-1.2,2.1-1.7,3.3-1.1l51.5,26.5c1,.5,1.5,1.6,1.3,2.7l-10.6,56.5c-.3,1.3-1.5,2.2-2.9,2v-.2h0Z"/>
            </g>
            <g>
              <path class="cls-15" d="M558.5,182.9l-87.3,3.9h-.7l-87.3-3.9h-.9c-4.1,0-7.5,3.3-7.5,7.5v90.4c0,3.9,3,7.2,6.9,7.5,18,1.3,66.6,4.9,89,6.4,22.4-1.5,71-5,89-6.4,3.9-.3,6.9-3.5,6.9-7.5v-90.4c0-4.1-3.3-7.5-7.5-7.5h-.9.3Z"/>
              <g>
                <path class="cls-3" d="M386.1,172.3l-6.1,16.6-.7,90.7,6.8-9.2s18.7-92,0-98h0Z"/>
                <g>
                  <path class="cls-3" d="M386.1,270.3l-6.8,9.2,91.6,9.4v-8.4s-49.5-29.8-84.8-10.2h0Z"/>
                  <path class="cls-3" d="M555.7,270.3l6.8,9.2-91.6,9.4v-8.4s49.5-29.8,84.8-10.2Z"/>
                </g>
                <path class="cls-17" d="M470.9,280.5v-99.1s-45.5-31-84.8-9.1v98s31.2-13.5,84.8,10.2h0Z"/>
                <path class="cls-3" d="M555.7,172.3l6.1,16.6.7,90.7-6.8-9.2s-18.7-92,0-98h0Z"/>
                <path class="cls-17" d="M470.9,280.5v-99.1s45.5-31,84.8-9.1v98s-31.2-13.5-84.8,10.2h0Z"/>
                <polygon class="cls-3" points="470.9 192.7 474.5 280.5 470.9 281.3 470.9 192.7"/>
                <g>
                  <g>
                    <path class="cls-1" d="M461.9,188.9c-.1,0-.3,0-.4-.1-19.5-11.9-43.2-15.3-65.2-9.5-.4.1-.8-.2-.9-.6-.1-.4.2-.9.6-1,22.3-6,46.5-2.4,66.3,9.6.4.2.5.7.3,1.1-.1.3-.4.4-.7.4h0Z"/>
                    <path class="cls-1" d="M461.9,198.6c-.1,0-.3,0-.4-.1-19.5-11.9-43.2-15.3-65.2-9.5-.4.1-.8-.2-.9-.6-.1-.4.2-.9.6-1,22.3-6,46.5-2.4,66.3,9.6.4.2.5.7.3,1.1-.1.3-.4.4-.7.4h0Z"/>
                    <path class="cls-1" d="M461.9,208.3c-.1,0-.3,0-.4-.1-19.5-11.9-43.2-15.3-65.2-9.5-.4.1-.8-.2-.9-.6-.1-.4.2-.9.6-1,22.3-6,46.5-2.4,66.3,9.6.4.2.5.7.3,1.1-.1.3-.4.4-.7.4h0Z"/>
                    <path class="cls-1" d="M461.9,218c-.1,0-.3,0-.4-.1-19.5-11.9-43.2-15.3-65.2-9.5-.4.1-.8-.2-.9-.6-.1-.4.2-.9.6-1,22.3-6,46.5-2.4,66.3,9.6.4.2.5.7.3,1.1-.1.3-.4.4-.7.4h0Z"/>
                    <path class="cls-1" d="M461.9,227.6c-.1,0-.3,0-.4-.1-19.5-11.9-43.2-15.3-65.2-9.5-.4.1-.8-.2-.9-.6-.1-.4.2-.9.6-1,22.3-6,46.5-2.4,66.3,9.6.4.2.5.7.3,1.1-.1.3-.4.4-.7.4h0Z"/>
                    <g>
                      <path class="cls-1" d="M461.9,237.3c-.1,0-.3,0-.4-.1-9.5-5.8-20.5-9.7-31.8-11.4-.4,0-.7-.5-.7-.9s.4-.8.9-.7c11.5,1.7,22.6,5.7,32.3,11.6.4.2.5.7.3,1.1-.1.3-.4.4-.7.4h.1Z"/>
                      <path class="cls-1" d="M461.9,247c-.1,0-.3,0-.4-.1-9.8-6-21-9.9-32.6-11.5-.4,0-.7-.5-.7-.9s.4-.8.9-.7c11.8,1.6,23.2,5.6,33.1,11.7.4.2.5.7.3,1.1-.1.3-.4.4-.7.4h.1Z"/>
                      <path class="cls-1" d="M461.9,256.7c-.1,0-.3,0-.4-.1-9.9-6-21.4-10-33.1-11.6-.4,0-.7-.5-.7-.9s.4-.8.8-.7c12,1.5,23.6,5.6,33.7,11.8.4.2.5.7.3,1.1-.1.3-.4.4-.7.4h.1Z"/>
                      <path class="cls-1" d="M461.9,266.4c-.1,0-.3,0-.4-.1-9.9-6-21.4-10-33.1-11.6-.4,0-.7-.5-.7-.9s.4-.8.8-.7c12,1.5,23.6,5.6,33.7,11.8.4.2.5.7.3,1.1-.1.3-.4.4-.7.4h.1Z"/>
                    </g>
                  </g>
                  <g>
                    <g>
                      <path class="cls-1" d="M545.6,179.3h-.2c-11.8-3.2-24.6-3.6-36.8-1.3-.4,0-.8-.2-.9-.7,0-.5.2-.9.6-1,12.5-2.3,25.4-1.9,37.4,1.3.4.1.7.6.6,1,0,.4-.4.6-.7.6h0Z"/>
                      <path class="cls-1" d="M545.6,189h-.2c-11.8-3.2-24.6-3.6-36.9-1.3-.4,0-.8-.2-.9-.7,0-.5.2-.9.6-1,12.5-2.4,25.5-1.9,37.5,1.3.4.1.7.6.6,1,0,.4-.4.6-.7.6h0Z"/>
                      <path class="cls-1" d="M545.6,198.7h-.2c-11.9-3.2-24.7-3.6-37-1.3-.4,0-.8-.2-.9-.7,0-.5.2-.9.6-1,12.5-2.4,25.6-1.9,37.7,1.3.4.1.7.6.6,1,0,.4-.4.6-.7.6h0Z"/>
                      <path class="cls-1" d="M545.6,208.4h-.2c-11.9-3.2-24.7-3.6-37-1.3-.4,0-.8-.2-.9-.7,0-.5.2-.9.6-1,12.5-2.4,25.6-1.9,37.7,1.3.4.1.7.6.6,1,0,.4-.4.6-.7.6h0Z"/>
                    </g>
                    <path class="cls-1" d="M479.9,227.6c-.3,0-.5-.2-.7-.4-.2-.4,0-.9.3-1.1,19.8-12.1,44-15.6,66.3-9.6.4.1.7.6.6,1,0,.4-.5.7-.9.6-21.9-5.9-45.7-2.4-65.2,9.5-.1,0-.2.1-.4.1h0Z"/>
                    <path class="cls-1" d="M479.9,237.7c-.3,0-.5-.2-.7-.4-.2-.4,0-.9.3-1.1,19.8-12.1,44-15.6,66.3-9.6.4.1.7.6.6,1s-.5.7-.9.6c-21.9-5.9-45.7-2.4-65.2,9.5-.1,0-.2.1-.4.1h0Z"/>
                    <path class="cls-1" d="M479.9,247.4c-.3,0-.5-.2-.7-.4-.2-.4,0-.9.3-1.1,19.8-12.1,44-15.6,66.3-9.6.4.1.7.6.6,1,0,.4-.5.7-.9.6-21.9-5.9-45.7-2.4-65.2,9.5-.1,0-.2.1-.4.1h0Z"/>
                    <path class="cls-1" d="M479.9,257.1c-.3,0-.5-.2-.7-.4-.2-.4,0-.9.3-1.1,19.8-12.1,44-15.6,66.3-9.6.4.1.7.6.6,1,0,.4-.5.7-.9.6-21.9-5.9-45.7-2.4-65.2,9.5-.1,0-.2.1-.4.1h0Z"/>
                    <path class="cls-1" d="M479.9,266.8c-.3,0-.5-.2-.7-.4-.2-.4,0-.9.3-1.1,19.8-12.1,44-15.6,66.3-9.6.4.1.7.6.6,1,0,.4-.5.7-.9.6-21.9-5.9-45.7-2.4-65.2,9.5-.1,0-.2.1-.4.1h0Z"/>
                  </g>
                  <path class="cls-1" d="M396.2,224v31.9s11.9-2.5,27.8-2v-32.4s-10.9-1.1-27.8,2.5Z"/>
                  <path class="cls-1" d="M479.9,186.8v31.4s8.1-6.3,20.4-9.4v-30.2s-9.6,1.4-20.4,8.3h0Z"/>
                </g>
              </g>
            </g>
            <g>
              <rect class="cls-1" x="382.2" y="294.7" width="7.3" height="15.2" transform="translate(-101.4 248.7) rotate(-31.8)"/>
              <circle class="cls-15" cx="363.6" cy="266.4" r="37.7"/>
              <circle class="cls-21" cx="363.9" cy="266.6" r="31.2"/>
              <path class="cls-10" d="M390.4,250.1c-9.1-14.6-28.3-19.1-43-10l32.9,53c14.6-9.1,19.1-28.3,10-43h.1Z"/>
              <path class="cls-1" d="M350.3,244.7c13.9-8.6,31.9-5,41.5,7.8-.4-.8-.8-1.6-1.3-2.3-9.1-14.6-28.3-19.1-43-10-14.6,9.1-19.1,28.3-10,43,.5.8,1,1.5,1.5,2.2-7.3-14.3-2.5-32,11.3-40.6h0Z"/>
              <path class="cls-11" d="M391.7,252.5c-.2-.4-.4-.8-.6-1.2s-.5-.8-.7-1.2c-9.1-14.6-28.3-19.1-43-10l2.8,4.5c13.9-8.6,31.9-5,41.5,7.8h0Z"/>
              <path class="cls-15" d="M390.9,303.5l-5.9,3.7c-1.7,1-2.2,3.2-1.1,4.9l25.3,40.7c2,3.3,6.4,4.3,9.7,2.3,3.3-2,4.3-6.4,2.3-9.7l-25.3-40.7c-1-1.7-3.2-2.2-4.9-1.1h-.1Z"/>
              <path class="cls-11" d="M386.8,309.2c-.8.5-1.1,1.6-.6,2.4l24.7,39.7c.5.8,1.6,1.1,2.4.6s1.1-1.6.6-2.4l-24.7-39.7c-.5-.8-1.6-1.1-2.4-.6Z"/>
            </g>
            <path class="cls-21" d="M584.6,53.8c-6.8,0-13,2.7-17.4,7.2-2.6-1.3-5.5-2-8.5-2-6.2,0-11.7,2.9-15.2,7.4-1.7-.8-3.7-1.3-5.7-1.3-7.4,0-13.4,6-13.4,13.4h84.9c0-13.6-11.1-24.7-24.7-24.7h0Z"/>
            <path class="cls-21" d="M416.1,47.3c-2.2,0-4.3.7-6,1.9-3.1-5.7-9.1-9.6-16-9.6-10.1,0-18.2,8.2-18.2,18.2h50.7c0-5.8-4.7-10.5-10.5-10.5Z"/>
            <g>
              <path class="cls-15" d="M350.3,168.6h19.3l6.5,59.7h-5.9l-8.7-48.6c-.2-.8-.9-1.4-1.8-1.4h0c-1,0-1.8.8-1.8,1.8l-1.7,48.3h-5.9v-59.7h0Z"/>
              <path class="cls-4" d="M370.8,133.3h-14.5c-1.8,0-3.4,1.4-3.5,3.3l-2.5,32.1h19.3l4.7-31.3c.3-2.1-1.3-4-3.5-4h0Z"/>
              <path class="cls-16" d="M360.2,127.7l-.3,6.2c0,1.6,1.2,3,2.8,3s3-1.2,3-2.8l.3-6.2-5.8-.3h0Z"/>
              <path class="cls-7" d="M359.9,132.6c1-.1,2-.4,3-.8,1.1-.5,2.1-1.2,3-2v-1.8l-5.7-.3-.2,4.9h0Z"/>
              <g>
                <path class="cls-16" d="M354.8,114c1.5-2,4.7-2.8,7.4-2.2,2.3.5,5.1,2.1,6,4,.8,1.5.6,3.7.3,5.6h.5c.7,0,1.5.4,1.6,1,.3,1.7-1.3,2.9-2.5,2.9h-.5c-.9,2.2-2.5,4.3-5,5.2-1.6.6-3.5.6-4.8-.2-1-.6-1.6-1.7-1.9-2.8-.3-.9-.4-1.8-.4-2.8v-2c-.1-.8-.5-1.5-.8-2.3-.9-2.1-1.2-4.5.2-6.4h-.1Z"/>
                <g>
                  <path class="cls-15" d="M360.6,118.6c.6,0,1.2.4,1.5.9.1.3-.3.5-.4.2-.2-.4-.7-.5-1.2-.6h-1.3s-.1,0-.1-.2c.2-.4,1.1-.4,1.5-.3h0Z"/>
                  <path class="cls-15" d="M354.4,118.9c.3-.4,1.4-.6,1.8,0,.1,0-.1.3-.3.2-.4-.3-.8,0-1.2,0s-.4,0-.3-.2Z"/>
                </g>
                <path class="cls-8" d="M361,123.4c.1,0,.3,0,.4-.2.5,0,.6.5.2.7-.3,0-.5,0-.7-.2v-.3h.1Z"/>
                <path class="cls-8" d="M355.8,123.2h.3c.2.2-.1.5-.3.3,0,0-.1,0-.1-.3,0,0,0-.2.2-.2h-.1v.2Z"/>
                <path class="cls-15" d="M361.2,122.1c.6,0,.6.9,0,.9s-.6-.9,0-.9Z"/>
                <path class="cls-15" d="M356.3,121.9c.6,0,.6.8,0,.8s-.6-.8,0-.8Z"/>
                <path class="cls-8" d="M356.9,124.4c.6,0,.8-1,.9-1.4,0-.3.5-.4.6,0,.4.9-.2,2.5-1.5,2.5s-.7-1,0-.9v-.2Z"/>
                <path class="cls-6" d="M361.1,124.9s.2-.2.3,0h0c.3.7,0,1.6-.5,2.1-.6.5-1.6.6-2.4.2-.5-.3-.5-.8,0-.9.6,0,1.2-.3,1.7-.6.3-.2.6-.4.8-.7h.1Z"/>
                <path class="cls-15" d="M368.9,110.6c-8-6.6-12,4.9-13.7,5.9,0,0-.2,0-.3.2.7,0,1.5.2,2.2.2,2.3,0,4.8-.5,7-1-.3,3,.9,6.2,2.9,8.4.5-2,.9-2.4,1.4-2.6.8-.5,1.4-.2,1.9.2,1.6-2.5,4.1-12-1.4-11.3Z"/>
                <path class="cls-15" d="M363.2,106.7c-2.4-.5-5,0-7,1.2-3.1,1.9-4.8,5.5-7.7,7.6.9-.2,1.9-.3,2.8-.5-1,.5-1.9,1-2.9,1.4,3,.5,6,.7,9,.5,2.2,0,4.5-.4,6.5-1.3,1.7-.7,3.4-2,4.4-3.7,1-1.8-.6-3.2-2.1-4.1-1-.6-2-1.1-3.1-1.3v.2h.1Z"/>
              </g>
              <path class="cls-4" d="M346.3,154.6c-2-.1-3-2.8-3.2-4.2l-2-14.9,3.9-.5,2.6,11.6,5.6-11.2,4.8,6.1s-6.8,13.5-11.8,13.2h.1Z"/>
              <path class="cls-16" d="M345,134.9l-1-4.3c-.2-.8-.9-1.3-1.7-1.3h-4.1c-.6,0-1.1.5-1.1,1.1v3.1c0,.5.3.9.8,1.1l3.2.9,3.9-.5h0Z"/>
              <polygon class="cls-20" points="342.8 127.4 340.2 137.5 337.5 136.5 340.1 127.3 342.8 127.4"/>
              <g>
                <path class="cls-4" d="M322.2,115.2v21l21.2-8.6c.8-.3,1.3-1.1,1.3-1.9h0c0-.8-.5-1.6-1.3-1.9l-21.2-8.6Z"/>
                <ellipse class="cls-20" cx="322.2" cy="125.7" rx="3.1" ry="10.5"/>
              </g>
              <polygon class="cls-16" points="342.6 130 338.9 130 337.9 134.1 339.6 134.1 340.4 131.6 342 132.6 342.6 130"/>
              <path class="cls-4" d="M366.4,134.1l17.9-3.1,7.8-18.5,3.8,1-5.7,19.6c-.4,1.5-1.5,2.6-2.9,3.1l-18.5,6.7-2.5-8.9h.1Z"/>
              <path class="cls-16" d="M398.5,105.2c-1.1-1.5-3.5,2.1-5.1,4.8-2.1-6.4-1.4,2.5-1.4,2.5l3.8,1s4.4-6,2.7-8.3Z"/>
              <path class="cls-4" d="M356.2,228.3v5.1s-29.7,13.3-5.9-5.1h5.9Z"/>
              <path class="cls-4" d="M370.2,228.3l.7,4.5s25.2,12,5.2-4.5h-5.9Z"/>
            </g>
            <g>
              <rect class="cls-13" x="465" y="86.5" width="28.3" height="8.3"/>
              <path class="cls-4" d="M504.2,67.5l-.7-1.5c-.2-.5-.5-.9-.7-1.4-.3-.4-.5-.9-.8-1.3l-.8-1.3c-.3-.4-.6-.8-.9-1.2s-.6-.8-.9-1.1c-.3-.4-.6-.7-.9-1.1l-.9-1c-.6-.7-1.3-1.3-1.9-1.9-.3-.3-.7-.6-1-.9-.3-.3-.7-.6-1-.9-.7-.6-1.4-1.1-2.1-1.6-.3-.3-.7-.5-1.1-.8l-.5-.4-.6-.4c-1.8-1.2-3.9-.3-4.9,1.8-.9,2.2-.3,4.9,1.5,6h.1l.4.3.4.3c.3.2.6.4.9.6.6.4,1.2.9,1.7,1.4.3.2.6.5.8.7.3.2.6.5.8.8.5.5,1.1,1,1.6,1.6l.7.8c.3.3.5.6.7.9s.5.6.7.9.4.6.6.9l.6.9c.1.2.2.4.4.6-.2.2-.3.5-.5.7-.3.3-.5.7-.8,1l-.8,1-.8,1c-.3.3-.6.6-.9,1-.3.3-.6.6-.9,1-.6.6-1.2,1.2-1.9,1.9-.3.3-.6.6-1,.9-.3.3-.6.6-1,.9-.6.6-1.3,1.2-2,1.7l-1,.8-1,.8h0c-.9.8-1.3,2.3-.8,3.5.5,1.4,1.8,2,2.9,1.4l1.2-.7,1.2-.7c.8-.5,1.5-.9,2.3-1.4.4-.2.8-.5,1.1-.8.4-.3.8-.5,1.1-.8.7-.5,1.5-1.1,2.2-1.6.4-.3.7-.6,1.1-.9s.7-.6,1.1-.9l1.1-1,1.1-1c.4-.3.7-.7,1.1-1.1s.7-.7,1-1.2c.3-.4.7-.8,1-1.3l1-1.4h0c.8-1.3,1-3.1.3-4.6h.4,0Z"/>
              <path class="cls-20" d="M486.7,59l.4.3c.3.2.6.4.9.6.6.4,1.2.9,1.7,1.4.3.2.6.5.8.7.3.2.6.5.8.8.5.5,1.1,1,1.6,1.6l.7.8c.2.2.4.5.6.7-.9-5.4-4.8-12-4.8-12-1.7-.2-2.6,2.5-3,5h.3Z"/>
              <path class="cls-4" d="M454.1,67.5l.7-1.5c.2-.5.5-.9.7-1.4.3-.4.5-.9.8-1.3l.8-1.3c.3-.4.6-.8.9-1.2s.6-.8.9-1.1c.3-.4.6-.7.9-1.1l.9-1c.6-.7,1.3-1.3,1.9-1.9.3-.3.7-.6,1-.9.3-.3.7-.6,1-.9.7-.6,1.4-1.1,2.1-1.6.3-.3.7-.5,1.1-.8l.5-.4.6-.4c1.8-1.2,3.9-.3,4.9,1.8.9,2.2.3,4.9-1.5,6h-.1l-.4.3-.4.3c-.3.2-.6.4-.9.6-.6.4-1.2.9-1.7,1.4-.3.2-.6.5-.8.7-.3.2-.6.5-.8.8-.5.5-1.1,1-1.6,1.6l-.7.8c-.3.3-.5.6-.7.9s-.5.6-.7.9-.4.6-.6.9l-.6.9c-.1.2-.2.4-.4.6.2.2.3.5.5.7.3.3.5.7.8,1l.8,1,.8,1c.3.3.6.6.9,1,.3.3.6.6.9,1,.6.6,1.2,1.2,1.9,1.9.3.3.6.6,1,.9.3.3.6.6,1,.9.6.6,1.3,1.2,2,1.7l1,.8,1,.8h0c.9.8,1.3,2.3.8,3.5-.5,1.4-1.8,2-2.9,1.4l-1.2-.7-1.2-.7c-.8-.5-1.5-.9-2.3-1.4-.4-.2-.8-.5-1.1-.8-.4-.3-.8-.5-1.1-.8-.7-.5-1.5-1.1-2.2-1.6-.4-.3-.7-.6-1.1-.9s-.7-.6-1.1-.9l-1.1-1-1.1-1c-.4-.3-.7-.7-1.1-1.1s-.7-.7-1-1.2c-.3-.4-.7-.8-1-1.3l-1-1.4h0c-.8-1.3-1-3.1-.3-4.6h-.4,0Z"/>
              <path class="cls-20" d="M471.7,59l-.4.3c-.3.2-.6.4-.9.6-.6.4-1.2.9-1.7,1.4-.3.2-.6.5-.8.7-.3.2-.6.5-.8.8-.5.5-1.1,1-1.6,1.6l-.7.8c-.2.2-.4.5-.6.7.9-5.4,4.8-12,4.8-12,1.7-.2,2.6,2.5,3,5h-.3Z"/>
              <path class="cls-4" d="M487.5,50.2h-16.9c-1.3,0-2.4,1.1-2.4,2.4v29.5h21.6v-29.5c0-1.3-1.1-2.4-2.4-2.4h0Z"/>
              <path class="cls-16" d="M476.1,45.6v5.2c0,1.7,1.4,3,3,3s3-1.4,3-3v-5.2h-6.1.1Z"/>
              <path class="cls-7" d="M476.1,47.6c.5.4.9.8,1.4,1.1.9.5,1.9,1,2.9,1.2.6.2,1.2.2,1.8.2v-4.5h-6.1v2h0Z"/>
              <g>
                <path class="cls-22" d="M495.4,64.6c0-2.2-1.8-4-4-4h-24c-2.2,0-4,1.8-4,4l.2,19.8h32s-.2-19.8-.2-19.8Z"/>
                <circle class="cls-6" cx="479.4" cy="72" r="3.1"/>
              </g>
              <rect class="cls-22" x="462.7" y="84.4" width="34" height="4"/>
              <path class="cls-2" d="M499.2,88.8c1.1,2,.4,4.5-1.4,5.7-.3.2-.7.4-1.1.5l-24.8,8.1-2.4-5.3,23.8-10.9c2.1-1,4.7-.2,5.8,1.8h.1Z"/>
              <polygon class="cls-13" points="482.5 91.8 469.5 97.8 471.9 103.1 493.3 96.1 482.5 91.8"/>
              <path class="cls-2" d="M458.7,88.8c-1.1,2-.4,4.5,1.4,5.7.3.2.7.4,1.1.5l24.8,8.1,2.4-5.3-23.8-10.9c-2.1-1-4.7-.2-5.8,1.8h-.1Z"/>
              <path class="cls-4" d="M488.3,97.8h11.4s.2,5.3-5.8,5.3h-8l2.4-5.3Z"/>
              <path class="cls-4" d="M469.5,97.8h-11.4s-.2,5.3,5.8,5.3h8l-2.4-5.3Z"/>
              <g>
                <path class="cls-15" d="M487.2,36.3c2.2.2,4.2-2,3.9-4.4-.2-1.4-1-2.6-2-3.5-1-.8-2.3-1.3-3.5-1.7-5.3-1.4-11-.5-15.6,2.5,0,2.9-.2,6,.6,8.8.8,2.8,2.4,5.5,4.9,6.6,2.4,1.1,5.3.6,7.4-1s3.7-4.8,4.4-7.5v.2h0Z"/>
                <path class="cls-16" d="M471.3,34.6c1.6,2.8.5,6.4,1.6,9.3.9,2.4,3.3,4.2,5.9,4.3s5.2-1.5,6.3-3.8c.8-1.8.8-3.8.8-5.8s.2-4,1.2-5.7c.3-.5-.3-1.3-.8-1.7-.5-.4-1.1-.7-1.7-.9-3.4-1.2-7.2-1-10.5.4-.8.3-1.5.7-2.1,1.3s-1.1,1.8-.7,2.5h0Z"/>
                <path class="cls-15" d="M476.1,38.9c-.6,0-.6.9,0,.9s.6-.9,0-.9Z"/>
                <path class="cls-15" d="M482.2,38.9c-.6,0-.6.9,0,.9s.6-.9,0-.9Z"/>
                <ellipse class="cls-8" cx="475" cy="41" rx=".9" ry=".5"/>
                <ellipse class="cls-8" cx="483.2" cy="41" rx=".9" ry=".5"/>
                <path class="cls-8" d="M480.1,42.3c-.6,0-.8-1-.9-1.4,0-.3-.5-.4-.6,0-.4.9.2,2.5,1.5,2.5s.7-1,0-.9c0,0,0-.2,0-.2Z"/>
                <path class="cls-8" d="M478.2,45.2c-.4,0-.9,0-1.2-.4-.4-.3-.8-.8-.9-1.3,0,0,0-.2.2-.3.1,0,.2,0,.3.2.1.4.4.8.7,1,.4.2.8.3,1.2.3s.2,0,.3.2c0,0,0,.2-.2.3h-.4Z"/>
                <path class="cls-15" d="M474.3,37.2h-.1c-.1,0-.1-.2,0-.3,0,0,1.1-1.7,3-1.2.1,0,.2.2.2.3s-.2.2-.3.2c-1.6-.4-2.5,1-2.5,1h-.3Z"/>
                <path class="cls-15" d="M484,37.2h-.2s-.9-1.4-2.5-1c-.1,0-.2,0-.3-.2,0,0,0-.2.2-.3,1.9-.5,3,1.2,3,1.2v.3h-.2Z"/>
                <path class="cls-16" d="M486,38c.3-.3.7-.5,1.1-.3.3.2.4.6.4,1,0,1-.4,1.9-1.1,2.6-.2.2-.4.3-.6.3-.3,0-.4-.4-.5-.7-.1-.9,0-2.2.7-3h0Z"/>
                <path class="cls-16" d="M472.2,38c-.3-.3-.7-.5-1.1-.3-.3.2-.4.6-.4,1,0,1,.4,1.9,1.1,2.6.2.2.4.3.6.3.3,0,.4-.4.5-.7.1-.9,0-2.2-.7-3h0Z"/>
                <path class="cls-15" d="M472,39.4c1.3-2,2.1-4.3,2.4-6.7,3.6,2.1,7.7,3.2,11.8,2.9.6,0,2.5-3.8,1.8-4.5-2-1.9-4.8-2.5-7.6-2.7-2-.2-4-.2-5.8.5-1.9.6-3.5,2-4.2,3.9-.5,1.6-.2,3.3.2,4.8.2.7.6,1.5,1.3,1.7h.1Z"/>
                <path class="cls-15" d="M484.8,34.9c0,1.4.3,2.8.9,4.1.8-.9,1.4-2,1.7-3.2,0-.4.2-.8,0-1.2s-.7-.6-1.2-.6-1.1.5-1.4.8h0Z"/>
              </g>
            </g>
            <g>
              <path class="cls-15" d="M466.9,287.3l14.9,63.7-3.6,1.1-20.7-49.7s1-19.2,9.4-15.1h0Z"/>
              <polygon class="cls-22" points="460.4 309.4 466.6 324.1 464.1 292.1 460.4 309.4"/>
              <path class="cls-15" d="M454.6,287.2s-4.8,5-3.8,20.5c.9,15.5,4.3,45.9,4.3,45.9h4.8l4.3-65.4s-7.9-4.3-9.7-1.1h.1Z"/>
              <path class="cls-4" d="M465.5,263.9c3.1,7.6,1.3,15.5,1.4,23.4-5.1,1.3-7.3,1.4-12.3,0,.3-5-.4-10.1-2.1-15,2.5-4,7.2-7.2,12.9-8.3h.1Z"/>
              <g>
                <path class="cls-16" d="M465.4,270.6c3,2.2,4.4,3.1,8.3,4.6,5.5-2.1,13.3-7.8,14-10.2.2-.7.3-1.4-.1-2-.6-.9-2.3-1.4-3.6-1-1.3.4-2.1,1.5-1.7,2.5.3.6,1.1,1.4.7,2-1.8,2.1-6.7,3.1-9.2,4.8-2.7-1.2-3.1-1.9-5.2-3.6-.2-.2-.5-.4-.9-.4s-.4,0-.6.2c-1.3.7-1.8,2-1.7,3.2h0Z"/>
                <path class="cls-4" d="M460.5,260.4c1.9.2,4.6,1.7,9,7.6l-3.5,3.5c-2.2-1.3-4-3.1-5.5-5.1-.7-.9-1.3-1.9-1.4-3,0-1.1.2-3.2,1.4-3Z"/>
                <polygon class="cls-20" points="467.9 269.9 462.2 265.6 465.7 271.4 467.9 269.9"/>
              </g>
              <polygon class="cls-4" points="460.5 260.4 456.8 259.3 453.6 260.1 452.8 272 457.7 276.3 466.6 273 460.5 260.4"/>
              <path class="cls-20" d="M457.2,263.9c2.4,2.4,4.3,6.1,5,9.5-1.2.5-3.3,1.8-4.6,2h-.5s-.1-.2-.2-.3c-.7-1.8-.5-3.7-.1-5.5s.2-3.9.3-5.7h.1Z"/>
              <g>
                <path class="cls-16" d="M455.2,255.3c.5,1.5.5,3.1.6,4.9.9,1.6,3.5,3.2,4.7,3.2-1-2.2-.3-6.5,0-8.3-2,0-3.3-.2-5.3.2h0Z"/>
                <path class="cls-7" d="M455.3,255.5c.2.5.3,1,.3,1.4,1.1,1.6,2.6,2.9,4.4,3.7,0-1.7.2-3.5.4-4.8-.6-.3-1.2-.6-1.8-.8-1.1,0-2.1,0-3.3.3v.2Z"/>
              </g>
              <g>
                <path class="cls-15" d="M450.5,237.9c-1.6,0-3,1.1-3.8,2.3-.7,1.3-.8,2.8-.5,4.2s1,2.7,1.7,4c.4.8.9,1.6.6,2.5-.2.6-.8,1.1-1.5,1.2-.7.1-1.4,0-2-.4,0,.6.6,1.1,1.1,1.4.6.3,1.2.5,1.9.6,1.2.2,2.5.2,3.5-.4.9-.6,1.3-1.5,1.6-2.4.8-2.2,1.2-4.4,1.3-6.6,0-1.6.4-3.8-.8-5.1-.7-.8-1.9-1.3-3-1.3h-.1Z"/>
                <path class="cls-22" d="M454.3,244.3c0-1.1.2-2.6-.1-3.8-.3-.2-.6-.3-.9-.4-2.3,1-3.8,3.2-3.7,5.4,0,1.1.4,2.2.7,3.2.3,1.1.5,2.2.3,3.3-.2.7-.5,1.3-1.1,1.8.7,0,1.4-.2,1.9-.5.9-.6,1.3-1.5,1.6-2.4.8-2.2,1.2-4.4,1.3-6.6h0Z"/>
                <path class="cls-15" d="M466.8,255.6c0-.1-.6-.9-.7-1.1-.2-.4-.4-.8-.5-1.2-.3-.8-.3-1.7-.2-2.6,0-.4.4-2.1,1.1-1.2.5.8.7,1.9.8,2.8,0,1.1,0,2.2-.4,3.2h0Z"/>
                <path class="cls-4" d="M452.4,240.5c-.7.7-1,1.6-1,2.5s0,.9.4,1.1c.3.3.8.3,1.3.2.4-.1.8-.4,1.1-.7.6-.5,1-1.1,1.3-1.8.2-.4.3-.8.3-1.2s-.3-1-.9-1.1c-.6,0-1.3.1-1.7.4-.3.2-.6.4-.8.6h0Z"/>
                <path class="cls-15" d="M451.5,249.8c.8,2.3,2.5,4.3,4.5,6,.3-1,.2-2,.1-3-.1-1.4-.3-2.7-.5-4.1-.2-1.2-.3-2.3-.8-3.5-.3-.8-1.6-2.9-2.9-1.9-.5.4-.7,1.3-.8,1.9-.2.7-.2,1.5-.2,2.2s.2,1.6.5,2.4h0Z"/>
                <g>
                  <path class="cls-16" d="M466.5,242.5c-1.4-1.9-4.5-2.7-7.1-2.1-2.2.5-4.9,2-5.8,3.8-.7,1.5-.6,3.5-.3,5.3h-.5c-.7,0-1.3.4-1.5,1v.7c0,1.1,1.3,2,2.6,2.1h.5c.9,2.2,2.4,4.1,4.8,5,1.5.6,3.3.6,4.6-.2,1-.6,1.5-1.6,1.8-2.6.3-.9.4-1.8.4-2.6v-1.9c.1-.8.5-1.5.8-2.2.8-2,1.2-4.4-.2-6.2h0Z"/>
                  <g>
                    <path class="cls-15" d="M460.9,246.9c-.5,0-1.2.4-1.4.8-.1.2.3.5.4.2.2-.4.7-.5,1.1-.6h1.2s.1,0,0-.2c-.2-.4-1.1-.3-1.4-.3h0Z"/>
                    <path class="cls-15" d="M466.8,247.2c-.3-.4-1.4-.6-1.7-.1-.1.1.1.3.3.2.4-.2.8-.1,1.2,0,.1,0,.4,0,.2-.2h0Z"/>
                  </g>
                  <path class="cls-8" d="M460.5,251.5c-.1,0-.3-.1-.4-.2-.5-.1-.6.5-.2.6.3,0,.5,0,.7-.2v-.3h-.1Z"/>
                  <path class="cls-8" d="M465.5,251.3c-.1,0-.2,0-.3.1-.2.2.1.5.3.3,0,0,.1-.1.1-.3,0,0,0-.1-.2-.2h.1Z"/>
                  <path class="cls-15" d="M460.4,250.3c-.6,0-.6.8,0,.8s.6-.8,0-.8Z"/>
                  <path class="cls-15" d="M465,250.1c-.6,0-.6.8,0,.8s.6-.8,0-.8Z"/>
                  <path class="cls-8" d="M464.5,252.5c-.6,0-.8-1-.9-1.4,0-.3-.5-.4-.6,0-.3.9.2,2.4,1.4,2.4s.6-1,0-.9h.1Z"/>
                  <path class="cls-6" d="M460.5,253s-.2-.2-.2-.1h0c-.3.7,0,1.5.5,2,.6.5,1.6.6,2.3.2.5-.3.5-.8,0-.9-.6,0-1.2-.3-1.7-.6-.3-.2-.5-.4-.7-.7h-.2,0Z"/>
                </g>
                <path class="cls-15" d="M453.3,249.5c0,1.8.8,4.7,2,6.1,1-1.1.8-3.9,0-5.2,2.1-.8,4.2-1.7,6-2.9s3.4-2.8,4.2-4.7c.9,1.2,1.5,2.6,1.8,4,2.9-2,2.3-7.8-2-7.1-3.4-2.9-7.6-1.9-9.8-.6-2.2,1.3-3.8,3.5-4.2,5.9-.3,1.7.5,3.5,2.1,4.5h-.1Z"/>
              </g>
              <path class="cls-1" d="M448.4,292.1s5.9,2.8,11.6,1.9c.7,6.3-.1,11.4-2.5,11.4s-9.6-1.2-9.6-1.2c0,0-4.9-.5.5-12.2h0Z"/>
              <path class="cls-1" d="M459.7,296.9h-.6c0-.4,2.7-30.5-3.1-35.8-.7-.6-1.4-.8-2.2-.7-3.1.5-3.7,11.7-4.3,21.6-.3,5.3-.6,10.3-1.2,13.9h-.6c.6-3.7.9-8.7,1.2-14,.6-11.1,1.2-21.7,4.8-22.2,1-.2,1.9.1,2.7.9,6,5.5,3.4,35,3.3,36.2h0Z"/>
              <g>
                <path class="cls-16" d="M453.7,269.5c.2,3.3,1.2,7,2.9,9.9,5.1,0,12.9-3.1,18.4-12.2.7.5,2.3,1.3,3.2,1,.9-.3,1.6-1,1.9-1.8.2-.6.2-1.4-.1-2-.4-.6-1.1-1-1.9-.9.7-.2,1.4-.5,2.2-.8-.6-1.1-2.4-1.3-3.7-.7s-2,1.7-2.9,2.7c-4.2,4.5-7.5,5.7-14.2,9.1-.8-2.7-1.2-5.2-1.4-7.9-1.5-.4-3.4,2.4-4.3,3.5h-.1Z"/>
                <path class="cls-4" d="M456.1,261.2c-.6-.7-1.5-1.3-2.5-1.2-1.3.1-2.1,1.4-2.5,2.6-.6,2.2-.4,4.6.3,6.8.7,2.2,1.7,4.3,2.8,6.4,1.9-1.2,3.9-2.2,6.2-2.9-.6-2-1.4-8.1-4.3-11.8h0Z"/>
              </g>
              <g>
                <path class="cls-15" d="M501.2,253h-17.4c-.3,0-.5.2-.6.4l-4.7,12c-.2.4.1.9.6.9h17.4c.3,0,.5-.2.6-.4l4.7-12c.2-.4-.1-.9-.6-.9Z"/>
                <path class="cls-15" d="M470.3,264.4h26.2v2h-26.2c-.5,0-1-.4-1-1h0c0-.5.4-1,1-1Z"/>
                <path class="cls-17" d="M493.8,258.7h-5.2c-.1,0-.2,0-.2.2l-.4,1.2c0,.2,0,.3.2.3h5.2c.1,0,.2,0,.2-.2l.4-1.2c0-.2,0-.3-.2-.3Z"/>
              </g>
              <path class="cls-16" d="M455.2,353.7v5c0,.7.6,1.2,1.3,1.2h3.5c1,0,1.8-.9,1.5-1.8l-1.5-4.4h-4.8Z"/>
              <path class="cls-16" d="M478.2,352.1l1,4.7h12.7c1.2,0,1.5-1.5.4-1.9l-10.5-3.9-3.6,1.1h0Z"/>
              <path class="cls-4" d="M479.2,356.8h12.7c1.2,0,1.5-1.5.4-1.9l-4.8-1.8c-1.2,2-6.1,1.5-8.9,1l.6,2.7h0Z"/>
              <path class="cls-4" d="M460,359.8c1,0,1.8-.9,1.5-1.8l-.5-1.4c-2.9.9-4.8.5-5.9,0v2c0,.7.6,1.2,1.3,1.2h3.6Z"/>
              <path class="cls-2" d="M450.7,297.9c-.2.3-.3.7-.3,1.1s0,.6.3.8c.2.1.4.1.5.1h1.4c.2,0,.5,0,.7-.1.3-.2.3-.5.4-.9v-.8c-.2-.3-.5-.4-.9-.4s-.8,0-1.2-.2c-.4,0-.8,0-1,.3h.1Z"/>
            </g>
          </g>
        </g>
      </g>
      <g>
        <path class="cls-13" d="M49.5,126.3c0-3.2,0-6.2-.2-8.7-.2-3.7-.4-4.1-.4-4.1.6-.2,1.5-.3,2.1-.3,1.7,0,3,.9,3,2.4,0,3.3-.2,6.5-.2,9.7,0,5,0,9.9.7,15-1,.2-1.8.4-2.6.4-1.3,0-2.5-.5-2.5-2.6v-11.8Z"/>
        <path class="cls-13" d="M60.1,136.1h.2s2.2,2.8,6,2.8,3.4-1.3,3.4-2.6c0-3.9-9.9-3.4-9.9-9.9s3.5-5.7,7.1-5.7,5.8.6,5.8,2.1-.7,2-1.4,2.8h-.2s-1.9-3.2-4.8-3.2-3,1.2-3,2.9c0,3.9,9.9,2.9,9.9,9.8s-3.7,5.9-7.3,5.9-6.5-1.1-6.5-2.7.5-1.6.8-2.1Z"/>
        <path class="cls-13" d="M78.2,131c0-1.9,0-3.9-.2-5.7-.2-3.7-.8-4.1-.8-4.1.7-.2,1.3-.3,1.9-.3,1.8,0,3,.9,3,2.1s-.2,1-.2,1h.2c.7-1.8,3.5-3.1,5.9-3.1,3.6,0,5,1.4,5.2,3.1h.2c.8-1.8,3.6-3.1,6-3.1,5,0,5.6,2.6,5.6,5.3s-.2,5.3-.2,8.6,0,4,1.9,4,1.5-.5,1.5-.5h.2c0,.1-1,2.5-4.2,2.5s-3.4-.8-3.4-3.1c0-3.3.1-5.6.1-9.5s0-5-3.3-5-4.1,4.9-4.1,6.7,0,6.6,0,6.8c0,2.7-.9,3.3-1.5,4-1.4-.2-2.8-.3-2.8-2.9s.1-5.7.1-9.6,0-5-3.4-5-3.8,1.8-3.8,5.3.2,6,.2,9.7-1.1,2.6-2.4,2.6-1.8-.2-2.7-.4c.3-.1.9-2.5.9-9.4Z"/>
        <path class="cls-13" d="M119.3,120.6c5,0,7,2.9,7,5.5,0,3.8-4,5.2-7.4,5.2s-4.2-1.1-4.2-1.1h-.2c0,4.7,2.1,7.8,6.1,7.8s6-2.2,6-2.2l.2.2s-1.3,4.9-7.7,4.9-8.9-4-8.9-9.6,3.5-10.6,9.1-10.6ZM118.2,129.4c1.7,0,3.6-1,3.6-3.3s-.8-3.7-3-3.7-4.2,4.6-4.2,6.1,2,.9,3.6.9Z"/>
        <path class="cls-13" d="M131.7,131.1c0-7.8-.8-9.8-1-9.9.7-.2,1.3-.3,1.9-.3,1.8,0,3.1.9,3.1,2.4s-.3,1.4-.3,1.4h.2c1.1-2.4,3.7-3.9,5.8-3.9s1.9.7,1.9,1.5-.2,1.9-.5,2.7h-.2c-1.2-.5-2.2-1-3.1-1-3,0-3.8,3.1-3.8,7.3,0,7.5.8,8.9.9,9-1,.2-1.9.4-2.7.4-1.4,0-2.4-.6-2.4-2.9s.2-4.6.2-6.7Z"/>
        <path class="cls-13" d="M156.5,120.8c.7,0,1.4,0,2.1.2,0-2,0-3.8-.2-5.3-.2-3.5-.7-4.3-.7-4.3v-.2c2.7,0,5,.5,5,2.8,0,3.7-.2,7.3-.2,11.9s0,6.9.2,10.3c0,1.3.4,2.5,1.7,2.5s1.5-.5,1.5-.5h.2c0,.1-1,2.5-4.2,2.5s-3.2-.6-3.3-2.8h-.2c0,0-1.6,2.9-6,2.9s-7.2-3.6-7.2-8.8,3.7-11.3,11.2-11.3ZM158.5,132.2c0-1.3.1-3.4.1-4.7v-3.6c0-1.2-1.3-1.4-2.6-1.4-4.1,0-6.1,4.3-6.1,8.6s.7,7.3,4.2,7.3,4.3-3.6,4.4-6.3Z"/>
        <path class="cls-13" d="M179,131c0-1.9,0-3.9-.2-5.7-.2-3.7-.8-4.1-.8-4.1.7-.2,1.3-.3,1.9-.3,1.8,0,3,.9,3,2.1s-.2,1-.2,1h.2c.7-1.8,3.5-3.1,5.9-3.1,3.6,0,5,1.4,5.2,3.1h.2c.8-1.8,3.6-3.1,6-3.1,5,0,5.6,2.6,5.6,5.3s-.2,5.3-.2,8.6,0,4,1.9,4,1.5-.5,1.5-.5h.2c0,.1-1,2.5-4.2,2.5s-3.4-.8-3.4-3.1c0-3.3.1-5.6.1-9.5s0-5-3.3-5-4.1,4.9-4.1,6.7,0,6.6,0,6.8c0,2.7-.9,3.3-1.5,4-1.4-.2-2.8-.3-2.8-2.9s.1-5.7.1-9.6,0-5-3.4-5-3.8,1.8-3.8,5.3.2,6,.2,9.7-1.1,2.6-2.4,2.6-1.8-.2-2.7-.4c.3-.1.9-2.5.9-9.4Z"/>
        <path class="cls-13" d="M220.1,120.6c5,0,7,2.9,7,5.5,0,3.8-4,5.2-7.4,5.2s-4.2-1.1-4.2-1.1h-.2c0,4.7,2.1,7.8,6.1,7.8s6-2.2,6-2.2l.2.2s-1.3,4.9-7.7,4.9-8.9-4-8.9-9.6,3.5-10.6,9.1-10.6ZM219,129.4c1.7,0,3.6-1,3.6-3.3s-.8-3.7-3-3.7-4.2,4.6-4.2,6.1,2,.9,3.6.9Z"/>
        <path class="cls-13" d="M233.8,142.3c.1,1.8,1.3,5.2,5.5,5.2s4.7-1,4.7-3.2c0-3.3-10.6-1.1-10.6-6.7s1.1-2.8,1.8-3.5c-3.1-.8-4.7-2.9-4.7-6.1s3.6-7.2,8.5-7.2,2.8.2,3.9.6c2,0,2.5-1.8,2.7-4.1,1.3.2,2.9.1,2.9,1.6s-2.1,3-3.9,3.4c1.5,1.1,2.2,2.8,2.2,4.9,0,4.2-3.6,7.2-8.5,7.2s-1.2,0-1.8,0c-.3.5-.6,1.1-.6,1.3,0,2.9,11.6.5,11.6,7.1s-3.8,6.3-9.1,6.3-7.8-3-7.8-5.2,2-1.7,3.3-1.7ZM242.6,128.1c0-2.9-1.1-5.5-4.1-5.5s-3.7,2.1-3.7,4.7,1.1,5.5,4.1,5.5,3.7-2.1,3.7-4.7Z"/>
        <path class="cls-13" d="M57.3,174.4v-.3c0-3.2-.7-5-3.7-5s-3.9,1-5.3,2.3l-.2-.2c.6-2.3,3.7-4.7,7.1-4.7,5.4,0,6.2,3.3,6.2,6.7s-.1,4.6-.1,6.7v.5c0,1.5,0,4.2,1.9,4.2s1.5-.5,1.5-.5h.2c0,.1-1,2.5-4.2,2.5s-3.2-.6-3.3-2.7h-.2c-.9,1.5-2.8,2.9-5.2,2.9s-5.1-2.3-5.1-5.1c0-5.5,6.2-7.2,10.4-7.3ZM53.7,184.1c1.3,0,3.4-1.2,3.4-2.6s.1-3.6.1-5.5c-1.6.3-6.1,1-6.1,5s1.2,3.1,2.6,3.1Z"/>
        <path class="cls-13" d="M77.3,174.9c0-4.8,0-10-.2-13.3-.2-3.5-.7-4.3-.7-4.3v-.2c2.7,0,5,.5,5,2.8,0,3.9-.2,7.9-.2,11.9v3.1h.2l.5-.5c5-5,6.2-5.9,6.4-7.4,0,0,1.1-.3,2.1-.3s1.8.3,1.8.8c0,1.4-4,3.8-7.5,7v.2c1.8,2.4,6.7,9,9.8,11.2v.2s-.9.4-3,.4c-5.4,0-8.8-9.6-9.9-9.9h-.3c0,2.8.2,4.9.2,7.5s-1.1,2.6-2.4,2.6-1.8-.2-2.7-.4c.7-.5,1-7.7,1-11.4Z"/>
        <path class="cls-13" d="M105.9,166.5c6.4,0,9.7,4.5,9.7,9.1s-3.5,11.2-10.1,11.2-9.7-4.7-9.7-9.7,3.5-10.6,10.1-10.6ZM99.8,160.7c0-1.2,1-2.3,2.3-2.3s2.3,1,2.3,2.3-1,2.3-2.3,2.3-2.3-1-2.3-2.3ZM105.9,185.1c3.4,0,5-4.4,5-8.7s-1.8-8-5.5-8-5,4.1-5,8.2,1.8,8.6,5.4,8.6ZM107.2,160.7c0-1.2,1-2.3,2.2-2.3s2.3,1,2.3,2.3-1,2.3-2.3,2.3-2.2-1-2.2-2.3Z"/>
        <path class="cls-13" d="M118.4,185.6c0-.4,0-1.1.4-1.6,1.8-2.6,7.7-11.6,9.2-14.7v-.2c-2.1.4-5.5.4-7.9.4s-1.6-1.4-1.8-2.9c0,0,2,.5,8,.5h7v.5c0,.5,0,1.2-.6,2-3.7,5.4-7.2,11.1-9.3,14.5v.2c1.7-.5,5-.5,7.7-.5s2.8.7,3,2.9c0,0-2.4-.3-8.7-.3h-7.2s0-.4,0-.7Z"/>
        <path class="cls-13" d="M145.7,166.5c5,0,7,2.9,7,5.5,0,3.8-4,5.2-7.4,5.2s-4.2-1.1-4.2-1.1h-.2c0,4.7,2.1,7.8,6.1,7.8s6-2.2,6-2.2l.2.2s-1.3,4.9-7.7,4.9-8.9-4-8.9-9.6,3.5-10.6,9.1-10.6ZM144.6,175.3c1.7,0,3.6-1,3.6-3.3s-.8-3.7-3-3.7-4.2,4.6-4.2,6.1,2,.9,3.6.9ZM141.2,164.1c3.2-1.8,4.9-5.5,5.3-6.5,2.1,0,2.9,1.8,2.9,1.8-.7,2.6-4.8,5-7,5s-.9,0-1.2-.2v-.2Z"/>
        <path class="cls-13" d="M158.1,177c0-3.6-.1-7.9-.9-9.9.7-.2,1.3-.3,1.9-.3,1.8,0,3.1.9,3.1,2.1s0,.5,0,.6h.2c0,0,1.5-2.9,6.2-2.9s7,3.9,7,8.7-3.6,11.4-11.2,11.4-1.3,0-1.9-.2c0,.7,0,1.3,0,1.8,0,4.4.7,6.4.7,6.4-1,.2-1.9.4-2.7.4-1.4,0-2.3-.6-2.3-2.9,0-3.7.1-7.5.1-15.1ZM164.8,184.9c4.1,0,6.1-4.4,6.1-8.7s-1.5-7.2-4.1-7.2-4,1.7-4.4,4.6c-.2,1.6-.2,3.4-.2,5.2v4.8c0,1,1.1,1.2,2.6,1.2Z"/>
        <path class="cls-13" d="M180.5,177c0-8.7-.9-9.9-.9-9.9.7-.2,1.3-.3,1.9-.3,1.7,0,3.3.9,3.3,2.4,0,4.1-.2,8.6-.2,11.5s0,4,1.9,4,1.5-.5,1.5-.5h.2c0,.1-1,2.5-4.2,2.5s-3.4-.8-3.4-3.1.2-4.4.2-6.5ZM179.9,160.9c0-1.4,1.2-2.6,2.6-2.6s2.6,1.2,2.6,2.6-1.2,2.6-2.6,2.6-2.6-1.2-2.6-2.6Z"/>
        <path class="cls-13" d="M190.7,182h.2s2.2,2.8,6,2.8,3.4-1.3,3.4-2.6c0-3.9-9.9-3.4-9.9-9.9s3.5-5.7,7.1-5.7,5.8.6,5.8,2.1-.7,2-1.4,2.8h-.2s-1.9-3.2-4.8-3.2-3,1.2-3,2.9c0,3.9,9.9,2.9,9.9,9.8s-3.7,5.9-7.3,5.9-6.5-1.1-6.5-2.7.5-1.6.8-2.1Z"/>
        <path class="cls-13" d="M208.7,174.9c0-4.8,0-10-.2-13.3-.2-3.5-.7-4.3-.7-4.3v-.2c2.7,0,5,.5,5,2.8,0,3.9-.2,7.9-.2,11.9v3.1h.2l.5-.5c5-5,6.2-5.9,6.4-7.4,0,0,1.1-.3,2.1-.3s1.8.3,1.8.8c0,1.4-4,3.8-7.5,7v.2c1.8,2.4,6.7,9,9.8,11.2v.2s-.9.4-3,.4c-5.4,0-8.8-9.6-9.9-9.9h-.3c0,2.8.2,4.9.2,7.5s-1.1,2.6-2.4,2.6-1.8-.2-2.7-.4c.7-.5,1-7.7,1-11.4Z"/>
        <path class="cls-13" d="M237.3,166.5c6.4,0,9.7,4.5,9.7,9.1s-3.5,11.2-10.1,11.2-9.7-4.7-9.7-9.7,3.5-10.6,10.1-10.6ZM237.3,185.1c3.4,0,5-4.4,5-8.7s-1.8-8-5.5-8-5,4.1-5,8.2,1.8,8.6,5.4,8.6Z"/>
        <path class="cls-13" d="M251.8,171.1c0-3.6,0-7-.2-9.5-.2-3.5-.7-4.3-.7-4.3v-.2c2.7,0,5,.5,5,2.8,0,3.9-.2,7.9-.2,11.9s0,6.9.2,10.3c0,1.3.4,2.5,1.7,2.5s1.5-.5,1.5-.5h.2c0,.1-1,2.5-4.2,2.5s-3.4-.8-3.4-3.3.2-7.8.2-12.2Z"/>
        <path class="cls-13" d="M271.5,174.4v-.3c0-3.2-.7-5-3.7-5s-3.9,1-5.3,2.3l-.2-.2c.6-2.3,3.7-4.7,7.1-4.7,5.4,0,6.2,3.3,6.2,6.7s-.1,4.6-.1,6.7v.5c0,1.5,0,4.2,1.9,4.2s1.5-.5,1.5-.5h.2c0,.1-1,2.5-4.2,2.5s-3.2-.6-3.3-2.7h-.2c-.9,1.5-2.8,2.9-5.2,2.9s-5.1-2.3-5.1-5.1c0-5.5,6.2-7.2,10.4-7.3ZM268,184.1c1.3,0,3.4-1.2,3.4-2.6s.1-3.6.1-5.5c-1.6.3-6.1,1-6.1,5s1.2,3.1,2.6,3.1Z"/>
        <path class="cls-13" d="M47,215.5c-.4-.8-.8-1.7-1.5-2.3v-.2c.8-.2,1.5-.3,2.9-.3s2.7.4,3,1.6c.8,3.3,3.3,10.4,5,14.7h.2c5.2-14.8,3.2-16.3,6.5-16.3s1.8.3,1.8.3v.2s-1,.7-2,3.5l-5.8,16s-4.2-.1-5.2-3.3c-1.1-3.5-3.4-10.8-4.9-13.9Z"/>
        <path class="cls-13" d="M76.5,220.3v-.3c0-3.2-.7-5-3.7-5s-3.9,1-5.3,2.3l-.2-.2c.6-2.3,3.7-4.7,7.1-4.7,5.4,0,6.2,3.3,6.2,6.7s-.1,4.6-.1,6.7v.5c0,1.5,0,4.2,1.9,4.2s1.5-.5,1.5-.5h.2c0,.1-1,2.5-4.2,2.5s-3.2-.7-3.3-2.7h-.2c-.9,1.5-2.8,2.9-5.2,2.9s-5.1-2.3-5.1-5.1c0-5.5,6.2-7.2,10.4-7.3ZM70,210c3.2-1.8,4.9-5.5,5.3-6.5,2.1,0,2.9,1.8,2.9,1.8-.7,2.6-4.8,5-7,5s-.9,0-1.2-.2v-.2ZM73,230c1.3,0,3.4-1.2,3.4-2.6s.1-3.6.1-5.5c-1.6.3-6.1,1-6.1,5s1.2,3.1,2.6,3.1Z"/>
        <path class="cls-13" d="M87.3,217c0-3.6,0-7-.2-9.5-.2-3.5-.7-4.3-.7-4.3v-.2c2.7,0,5,.5,5,2.8,0,3.9-.2,7.9-.2,11.9s0,6.9.2,10.3c0,1.3.4,2.5,1.7,2.5s1.5-.5,1.5-.5h.2c0,.1-1,2.5-4.2,2.5s-3.4-.8-3.4-3.3.2-7.8.2-12.2Z"/>
        <path class="cls-13" d="M106.9,220.3v-.3c0-3.2-.7-5-3.7-5s-3.9,1-5.3,2.3l-.2-.2c.6-2.3,3.7-4.7,7.1-4.7,5.4,0,6.2,3.3,6.2,6.7s-.1,4.6-.1,6.7v.5c0,1.5,0,4.2,1.9,4.2s1.5-.5,1.5-.5h.2c0,.1-1,2.5-4.2,2.5s-3.2-.7-3.3-2.7h-.2c-.9,1.5-2.8,2.9-5.2,2.9s-5.1-2.3-5.1-5.1c0-5.5,6.2-7.2,10.4-7.3ZM103.4,230c1.3,0,3.4-1.2,3.4-2.6s.1-3.6.1-5.5c-1.6.3-6.1,1-6.1,5s1.2,3.1,2.6,3.1Z"/>
        <path class="cls-13" d="M116.8,227.9h.2s2.2,2.8,6,2.8,3.4-1.3,3.4-2.6c0-3.9-9.9-3.4-9.9-9.9s3.5-5.7,7.1-5.7,5.8.6,5.8,2.1-.7,2-1.4,2.8h-.2s-1.9-3.2-4.8-3.2-3,1.2-3,2.9c0,3.9,9.9,2.9,9.9,9.8s-3.7,5.9-7.3,5.9-6.5-1.1-6.5-2.7.5-1.6.8-2.1Z"/>
        <path class="cls-13" d="M132.6,231.5c0-.4,0-1.1.4-1.6,1.8-2.6,7.7-11.6,9.2-14.7v-.2c-2.1.4-5.5.4-7.9.4s-1.6-1.4-1.8-2.9c0,0,2,.5,8,.5h7v.5c0,.5,0,1.2-.6,2-3.7,5.4-7.2,11.1-9.3,14.5v.2c1.7-.5,5-.5,7.7-.5s2.8.7,3,2.9c0,0-2.4-.3-8.7-.3h-7.2s0-.4,0-.7Z"/>
        <path class="cls-13" d="M152.9,218.5c0-3.3-.3-3.4-1.8-3.9v-1.6c1.6,0,5.3-3.2,5.8-4.5l.9.3-.8,4.2h3.1c1.6,0,2.1-.4,2.1-.4,0,.2,0,.8,0,1,0,1.6-.8,2-2.1,2s-3.1,0-3.1,0c0,0-.1,4.5-.1,7.4s.3,7,3.3,7,4.1-1.8,4.1-1.8l.2.2s-1.3,4.4-5.9,4.4-5.8-3.1-5.8-7.4.2-5.4.2-6.8Z"/>
        <path class="cls-13" d="M176.1,220.3v-.3c0-3.2-.7-5-3.7-5s-3.9,1-5.3,2.3l-.2-.2c.6-2.3,3.7-4.7,7.1-4.7,5.4,0,6.2,3.3,6.2,6.7s-.1,4.6-.1,6.7v.5c0,1.5,0,4.2,1.9,4.2s1.5-.5,1.5-.5h.2c0,.1-1,2.5-4.2,2.5s-3.2-.7-3.3-2.7h-.2c-.9,1.5-2.8,2.9-5.2,2.9s-5.1-2.3-5.1-5.1c0-5.5,6.2-7.2,10.4-7.3ZM169.5,210c3.2-1.8,4.9-5.5,5.3-6.5,2.1,0,2.9,1.8,2.9,1.8-.7,2.6-4.8,5-7,5s-.9,0-1.2-.2v-.2ZM172.5,230c1.3,0,3.4-1.2,3.4-2.6s.1-3.6.1-5.5c-1.6.3-6.1,1-6.1,5s1.2,3.1,2.6,3.1Z"/>
        <path class="cls-13" d="M185.9,227.9h.2s2.2,2.8,6,2.8,3.4-1.3,3.4-2.6c0-3.9-9.9-3.4-9.9-9.9s3.5-5.7,7.1-5.7,5.8.6,5.8,2.1-.7,2-1.4,2.8h-.2s-1.9-3.2-4.8-3.2-3,1.2-3,2.9c0,3.9,9.9,2.9,9.9,9.8s-3.7,5.9-7.3,5.9-6.5-1.1-6.5-2.7.5-1.6.8-2.1Z"/>
        <path class="cls-13" d="M48.9,268.8c0-7.8-.8-9.8-1-9.9.7-.2,1.3-.3,1.9-.3,1.8,0,3.1.9,3.1,2.4s-.3,1.4-.3,1.4h.2c1.1-2.4,3.7-3.9,5.8-3.9s1.9.7,1.9,1.5-.2,1.9-.5,2.7h-.2c-1.2-.5-2.2-1-3.1-1-3,0-3.8,3.1-3.8,7.3,0,7.5.8,8.9.9,9-1,.2-1.9.4-2.7.4-1.4,0-2.4-.6-2.4-2.9s.2-4.6.2-6.7Z"/>
        <path class="cls-13" d="M71.5,258.3c5,0,7,2.9,7,5.5,0,3.8-4,5.2-7.4,5.2s-4.2-1.1-4.2-1.1h-.2c0,4.7,2.1,7.8,6.1,7.8s6-2.2,6-2.2l.2.2s-1.3,4.9-7.7,4.9-8.9-4-8.9-9.6,3.5-10.6,9.1-10.6ZM70.4,267.1c1.7,0,3.6-1,3.6-3.3s-.8-3.7-3-3.7-4.2,4.6-4.2,6.1,2,.9,3.6.9Z"/>
        <path class="cls-13" d="M84,268.7c0-1.9,0-3.9-.2-5.7-.2-3.7-.8-4.1-.8-4.1.7-.2,1.3-.3,1.9-.3,1.8,0,3,.9,3,2.1s-.2,1-.2,1h.2c.9-2,3.9-3.3,6.7-3.3,5,0,5.6,2.7,5.6,5.5s-.2,5.3-.2,8.6,0,4,1.9,4,1.5-.5,1.5-.5h.2c0,.1-1,2.5-4.2,2.5s-3.4-.8-3.4-3.1c0-3.3.1-5.6.1-9.5s0-5.2-3.4-5.2-4.6,1.9-4.6,5.5.2,6,.2,9.7-1.1,2.6-2.4,2.6-1.8-.2-2.7-.4c.3-.1.9-2.5.9-9.4Z"/>
        <path class="cls-13" d="M116.7,258.5c.7,0,1.4,0,2.1.2,0-2,0-3.8-.2-5.3-.2-3.5-.7-4.3-.7-4.3v-.2c2.7,0,5,.5,5,2.8,0,3.7-.2,7.3-.2,11.9s0,6.9.2,10.3c0,1.3.4,2.5,1.7,2.5s1.5-.5,1.5-.5h.2c0,.1-1,2.5-4.2,2.5s-3.2-.6-3.3-2.8h-.2c0,0-1.6,2.9-6,2.9s-7.2-3.6-7.2-8.8,3.7-11.3,11.2-11.3ZM118.7,269.9c0-1.3.1-3.4.1-4.7v-3.6c0-1.2-1.3-1.4-2.6-1.4-4.1,0-6.1,4.3-6.1,8.6s.7,7.3,4.2,7.3,4.3-3.6,4.4-6.3Z"/>
        <path class="cls-13" d="M128.9,273.8h.2s2.2,2.8,6,2.8,3.4-1.3,3.4-2.6c0-3.9-9.9-3.4-9.9-9.9s3.5-5.7,7.1-5.7,5.8.6,5.8,2.1-.7,2-1.4,2.8h-.2s-1.9-3.2-4.8-3.2-3,1.2-3,2.9c0,3.9,9.9,2.9,9.9,9.8s-3.7,5.9-7.3,5.9-6.5-1.1-6.5-2.7.5-1.6.8-2.1Z"/>
        <path class="cls-13" d="M144.8,277.4c0-.4,0-1.1.4-1.6,1.8-2.6,7.7-11.6,9.2-14.7v-.2c-2.1.4-5.5.4-7.9.4s-1.6-1.4-1.8-2.9c0,0,2,.5,8,.5h7v.5c0,.5,0,1.2-.6,2-3.7,5.4-7.2,11.1-9.3,14.5v.2c1.7-.5,5-.5,7.7-.5s2.8.7,3,2.9c0,0-2.4-.3-8.7-.3h-7.2s0-.4,0-.7Z"/>
        <path class="cls-13" d="M172.1,258.3c5,0,7,2.9,7,5.5,0,3.8-4,5.2-7.4,5.2s-4.2-1.1-4.2-1.1h-.2c0,4.7,2.1,7.8,6.1,7.8s6-2.2,6-2.2l.2.2s-1.3,4.9-7.7,4.9-8.9-4-8.9-9.6,3.5-10.6,9.1-10.6ZM171,267.1c1.7,0,3.6-1,3.6-3.3s-.8-3.7-3-3.7-4.2,4.6-4.2,6.1,2,.9,3.6.9Z"/>
        <path class="cls-13" d="M184.5,268.8c0-7.8-.8-9.8-1-9.9.7-.2,1.3-.3,1.9-.3,1.8,0,3.1.9,3.1,2.4s-.3,1.4-.3,1.4h.2c1.1-2.4,3.7-3.9,5.8-3.9s1.9.7,1.9,1.5-.2,1.9-.5,2.7h-.2c-1.2-.5-2.2-1-3.1-1-3,0-3.8,3.1-3.8,7.3,0,7.5.8,8.9.9,9-1,.2-1.9.4-2.7.4-1.4,0-2.4-.6-2.4-2.9s.2-4.6.2-6.7Z"/>
        <path class="cls-13" d="M207,258.3c5,0,7,2.9,7,5.5,0,3.8-4,5.2-7.4,5.2s-4.2-1.1-4.2-1.1h-.2c0,4.7,2.1,7.8,6.1,7.8s6-2.2,6-2.2l.2.2s-1.3,4.9-7.7,4.9-8.9-4-8.9-9.6,3.5-10.6,9.1-10.6ZM205.9,267.1c1.7,0,3.6-1,3.6-3.3s-.8-3.7-3-3.7-4.2,4.6-4.2,6.1,2,.9,3.6.9ZM202.6,255.9c3.2-1.8,4.9-5.5,5.3-6.5,2.1,0,2.9,1.8,2.9,1.8-.7,2.6-4.8,5-7,5s-.9,0-1.2-.2v-.2Z"/>
        <path class="cls-13" d="M219.4,264.4c0-3.3-.3-3.4-1.8-3.9v-1.6c1.6,0,5.3-3.2,5.8-4.5l.9.3-.8,4.2h3.1c1.6,0,2.1-.4,2.1-.4,0,.2,0,.8,0,1,0,1.6-.8,2-2.1,2s-3.1,0-3.1,0c0,0-.1,4.5-.1,7.4s.3,7,3.3,7,4.1-1.8,4.1-1.8l.2.2s-1.3,4.4-5.9,4.4-5.8-3.1-5.8-7.4.2-5.4.2-6.8Z"/>
        <path class="cls-13" d="M234.6,268.7c0-2.1,0-4.9,0-7.7,0-5.2-1-9.9-2-11.1v-.2c.7-.2,1.6-.3,2.3-.3,1.9,0,4.2.9,4.2,2.4,0,5.3-2.2,11.1-2.2,16.8s.3,2.1.7,2.7c-.5,0-.9.2-1.2.2-1.3,0-1.8-.8-1.8-2.6ZM236.2,273.7c1.3,0,2.4,1.1,2.4,2.4s-1.1,2.3-2.4,2.3-2.3-1.1-2.3-2.3,1.1-2.4,2.3-2.4Z"/>
      </g>
    </g>
  </g>
</svg>