<?xml version="1.0" encoding="UTF-8"?>
<svg xmlns="http://www.w3.org/2000/svg" version="1.1" viewBox="0 0 2384.8 2000">
  <defs>
    <style>
      .cls-1 {
        fill: #50bfa5;
      }

      .cls-2 {
        fill: #184655;
      }

      .cls-3 {
        fill: #fff;
      }

      .cls-4 {
        fill: #86b1f2;
      }

      .cls-5 {
        fill: #9bc1f9;
      }

      .cls-6 {
        fill: #466eb6;
      }

      .cls-7 {
        fill: #f7a491;
      }

      .cls-8 {
        fill: #fae0b2;
      }

      .cls-9 {
        fill: #184655;
      }

      .cls-10 {
        fill: #96d9c9;
      }

      .cls-11 {
        fill: #355389;
      }

      .cls-12 {
        fill: #355389;
      }

      .cls-13 {
        fill: #f48c7f;
      }

      .cls-14 {
        fill: #3c8f7c;
      }

      .cls-15 {
        fill: #b75742;
      }

      .cls-16 {
        fill: #f7cc7f;
      }

      .cls-17 {
        fill: #3c8f7c;
      }

      .cls-18 {
        fill: #13375b;
      }

      .cls-19 {
        fill: #466eb6;
      }

      .cls-20 {
        fill: #50bfa5;
      }

      .cls-21 {
        fill: #b75742;
      }

      .cls-22 {
        fill: #f7cc7f;
      }

      .cls-23 {
        fill: #f47458;
      }
    </style>
  </defs>
  <!-- Generator: Adobe Illustrator 28.7.1, SVG Export Plug-In . SVG Version: 1.2.0 Build 142)  -->
  <g>
    <g id="Layer_1">
      <g>
        <polygon class="cls-1" points="983.9 677.1 969.9 681.4 960.5 659.6 939.2 663.3 929.5 648.2 921.8 653.1 934.8 673.4 955 669.8 964.8 692.5 985.9 686 983.9 677.1"/>
        <polygon class="cls-1" points="1882.8 1460.8 1868.8 1465.1 1859.4 1443.3 1838.1 1447.1 1828.4 1431.9 1820.8 1436.8 1833.7 1457.1 1853.9 1453.5 1863.7 1476.2 1884.8 1469.7 1882.8 1460.8"/>
        <path class="cls-20" d="M897.6,1718.8s-74.8-253.5-80.8-309.4c-6-55.9,35.8-38.6,35.8-38.6,0,0-35.2-106.6-9.7-131.9,25.4-25.3,48.4,21.9,48.4,21.9,0,0,7.7-129.4,34.8-129.4,50.5,0,49.5,141.1,49.5,141.1,0,0,12.9-55.3,40-40.1,40.8,22.8-17.7,133.6-17.7,133.6,0,0,52,0,70.3,26.3,32.8,47-170.5,326.6-170.5,326.6Z"/>
        <g>
          <path class="cls-20" d="M922,1685.2s-215.6-36.1-262.5-74.3c-46.9-38.2-.5-55.4-.5-55.4,0,0-108.3-55.5-107.1-93.3,1.3-37.8,55.1-18.6,55.1-18.6,0,0-91.3-104.1-69.7-123.8,40.2-36.8,145.8,71.4,145.8,71.4,0,0-31.3-51.5,1.7-59.6,49.8-12.3,86.5,114.6,86.5,114.6,0,0-9.3-50.1,25-43.4,61.6,12,125.8,282.5,125.8,282.5Z"/>
          <path class="cls-17" d="M796.2,1402.7c-34.4-6.2-25,43.4-25,43.4,0,0-36.7-126.9-86.5-114.6-33,8.1-1.7,59.6-1.7,59.6,0,0-105.5-108.2-145.8-71.4l384,365.5c-6.8-34.9-67.4-272.1-125.1-282.5Z"/>
        </g>
        <g>
          <path class="cls-12" d="M983.4,1714.9s-113.6-115.5-170.7-127.5c-57.2-12-46.9,28.7-46.9,28.7,0,0-113.5-99.2-139.8-75.2-26.3,24,2.1,47.2,2.1,47.2,0,0-94.5-16.7-108,14.3-20.8,47.7,134.6,73.6,134.6,73.6,0,0-65.1,4.5-50,34.4,22.8,45.1,378.7,4.5,378.7,4.5Z"/>
          <path class="cls-19" d="M520.1,1602.4c13.5-31,108-14.3,108-14.3,0,0-28.4-23.2-2.1-47.2,26.3-24,136.2,61.7,136.2,61.7,0,0-25.9-49.5,31.3-37.5,57.2,12,189.9,149.9,189.9,149.9l-463.3-112.5Z"/>
        </g>
        <g>
          <path class="cls-22" d="M1164.1,523.9c-38.2,6.3-49.6,56.5-17.8,78.9,5.7,4,9.7,10.1,11.3,16.9l5.8,23.3c1.6,6.4,7.9,10.6,14.4,9.5l14.5-2.4c6.5-1.1,11.2-7,10.6-13.6-2-24.1-4.5-32.8,3.3-43.6,22.9-31.4-3.9-75.3-42.1-69Z"/>
          <path class="cls-8" d="M1168.1,625.9c-2.5-20.6-6-42.4-7.2-48.6-21.9,1.2-13.6-21.9-3.5-12.5,2.9,2.7,4.2,6.3,5.1,10.3,7.3-.7,14.4-2.7,20.9-6.1-.3-5.1-.9-8.9.6-12.2,2.1-4.9,8.4-6.3,10.9-1.5,1,1.8,1.1,4.1.4,6-1.5,4.1-5.9,6.8-9.7,8.9,1.2,16.4,2.7,32.9,4.8,49.2l-2.1.3c-2-16-3.6-32.3-4.7-48.4-6.4,3.2-13.4,5.2-20.6,5.9,1.5,7.9,4.8,29.1,7.1,48.5l-2.1.2ZM1150.5,572.4c1.9,2.1,5.2,3,10,2.8-.8-3.5-2-6.7-4.5-8.9-5.4-5.1-8.8,2.6-5.5,6.1ZM1185.9,557.6c-1.2,2.7-.7,6.2-.5,10.3,3.1-1.8,6.8-4,7.9-7.3.8-2.3-.1-5.5-2.4-6.1-.3,0-4.2,1.2-5,3.1Z"/>
          <path class="cls-10" d="M1157.5,619.1c0,.2.1.4.2.6l5.8,23.3c1.6,6.4,7.9,10.6,14.4,9.5l14.5-2.4c6.5-1.1,11.2-7,10.6-13.6-.9-10.7-1.9-18.4-2-24.6l-43.4,7.1Z"/>
          <path class="cls-8" d="M1135.8,506.5l-11.4-20.9c-1.1-2-.4-4.6,1.7-5.7,2-1.1,4.6-.4,5.7,1.7l11.4,20.9c1.1,2,.4,4.6-1.7,5.7-2,1.1-4.6.4-5.7-1.7Z"/>
          <path class="cls-8" d="M1110.8,556.9l-24.9-2.2c-2.3-.2-4-2.2-3.8-4.5.2-2.3,2.2-4,4.5-3.8l24.9,2.2c2.3.2,4,2.2,3.8,4.5-.2,2.3-2.2,4-4.5,3.8Z"/>
          <path class="cls-8" d="M1086.1,633.3c-1.6-1.6-1.6-4.3,0-5.9,6.1-6.1,12.9-11.5,20-16.3,1.9-1.3,4.5-.8,5.8,1.2,1.3,1.9.8,4.5-1.2,5.8-6.7,4.5-13,9.6-18.8,15.3-1.6,1.6-4.3,1.6-5.9,0Z"/>
          <path class="cls-8" d="M1197.4,505.4c-2.2-.6-3.5-2.9-3-5.1,2.8-10.6,4.6-21.5,5.1-32.4.1-2.3,2.1-4.1,4.4-3.9,2.3.1,4.1,2.1,3.9,4.4-.6,11.5-2.4,23-5.4,34.1-.6,2.2-2.9,3.5-5.1,3Z"/>
          <path class="cls-8" d="M1223,537.4c-.7-2.2.6-4.5,2.8-5.2l25.9-7.8c2.2-.7,4.5.6,5.2,2.8.7,2.2-.6,4.5-2.8,5.2l-25.9,7.8c-2.2.7-4.5-.6-5.2-2.8Z"/>
          <path class="cls-8" d="M1265.6,606.3c-.4,0-.8,0-1.1-.2-9-2.5-17.7-6-25.9-10.4-2-1.1-2.8-3.6-1.7-5.6,1.1-2,3.6-2.8,5.6-1.7,7.7,4.1,15.9,7.4,24.3,9.7,2.2.6,3.5,2.9,2.9,5.1-.5,1.8-2.2,3-4,3Z"/>
        </g>
        <path class="cls-22" d="M1645,790.6l-13.1-30.9-32.9-6.8c-3.7-.8-5-5.5-2.1-8l25.4-22-3.7-33.3c-.4-3.8,3.7-6.4,7-4.5l28.7,17.3,30.6-13.9c3.5-1.6,7.3,1.5,6.4,5.2l-7.6,32.7,22.6,24.8c2.6,2.8.8,7.4-3,7.7l-33.4,2.9-16.6,29.2c-1.9,3.3-6.8,3-8.3-.5Z"/>
        <polygon class="cls-13" points="1853 684.6 1847.6 706.2 1811.9 701.4 1800.1 732.1 1772.8 732.8 1773.2 746.7 1809.7 745.6 1820.9 716.6 1858.1 721.6 1866.2 689 1853 684.6"/>
        <path class="cls-15" d="M1534.4,1721.6h-628.7c-24,0-43.5-20.2-43.5-45.1v-26.8c0-24.9,19.5-45.1,43.5-45.1h628.7c-28.8,32.6-29.3,82.4-1.2,115.6l1.2,1.4Z"/>
        <path class="cls-8" d="M1524.7,1618h-348.7c-24,0-43.5,20.2-43.5,45.1h0c0,24.9,19.5,45.1,43.5,45.1h348.7c-16.3-27.7-16.3-62.6,0-90.2Z"/>
        <path class="cls-4" d="M1313.5,1523.3c.9-1.7-.5-3.7-2.6-3.7h-332.6c-26.1,0-47.2,19-47.2,42.5h0c0,23.5,21.1,42.5,47.2,42.5h332.7c2.1,0,3.5-2,2.6-3.7h0c-13.2-24.6-13.1-53.1,0-77.6Z"/>
        <path class="cls-22" d="M1311.4,1527.5h-164.9c-30.6,0-55.4,15.9-55.4,35.6s24.8,35.6,55.4,35.6h165.9c-11.3-22.7-11.7-48.5-1.1-71.2Z"/>
        <g>
          <path class="cls-15" d="M1268.8,1544.4h-21.5c-4.6,0-8.4,1.6-8.4,3.5v.3h29.8v-3.8Z"/>
          <path class="cls-23" d="M1287.2,1553.1c0-4.8-5.6-8.7-12.5-8.7h-27.6c5.2,0,9.5,2.9,9.5,6.6v93.1c-.1,0,15.1-12,15.1-12l15.5,12v-91Z"/>
        </g>
        <g>
          <path class="cls-8" d="M1252.4,1516.6h-193.5c-17.2,0-31.1-16.5-31.1-36.9h0c0-20.4,13.9-36.9,31.1-36.9h193.5c-14.8,20.4-15.4,50.4-1.4,71.7l1.4,2.1Z"/>
          <path class="cls-6" d="M1027.8,1479.7h0c0-20.4,14.2-36.9,31.8-36.9h196.5c.9,0,1.7-.9,1.6-1.9h0c0-1-.7-1.9-1.6-1.9h-311.7c-19.4,0-35.1,18.2-35.1,40.7h0c0,22.5,15.7,40.7,35.1,40.7h311.7c.9,0,1.6-.8,1.6-1.9h0c0-1.1-.7-1.9-1.6-1.9h-196.5c-17.6,0-31.8-16.5-31.8-36.9Z"/>
          <g>
            <path class="cls-2" d="M1218.6,1460.9h-21.5c-4.6,0-8.4,1.5-8.4,3.4v.3h29.8v-3.7Z"/>
            <path class="cls-14" d="M1236.9,1469.4c0-4.7-5.6-8.5-12.5-8.5h-27.6c5.2,0,9.5,2.9,9.5,6.5v91.3c-.1,0,15.1-11.7,15.1-11.7l15.5,11.7v-89.2Z"/>
          </g>
        </g>
        <g>
          <g>
            <path class="cls-9" d="M1560.7,897l28.6-7.5-19.4,258.3-34.3,1.1,17.3-242.5c.3-4.5,3.4-8.2,7.8-9.4Z"/>
            <g>
              <path class="cls-16" d="M1572.5,1155.2c-.6,0-1.3,0-2,0-5.7-.7-9.9-6.3-9.4-12.6l19-242.9c.5-6.3,5.5-10.9,11.2-10.2,5.7.7,9.9,6.3,9.4,12.6l-19,242.9c-.4,5.6-4.4,9.8-9.2,10.2Z"/>
              <path class="cls-16" d="M1309.5,1168.1c0,.2,0,.4,0,.5h0c.9,9.9,8.6,17.3,17.1,16.5l241.3-21.6c8.5-.8,14.8-9.4,13.9-19.3,0-.4,0-.8-.2-1.2l-272.1,25.1Z"/>
            </g>
          </g>
          <path class="cls-7" d="M1477.6,1429c-15.8,8.8-64.1-6.6-64.1-8-.7,13.2-54.1,142.4-54.1,142.4v39.8s110.1,5.2,108.5-4.5c-1.6-9.7-7.5-3.4-29.4-21.8-1.9-1.6-32.8-8.8-24.4-27,16.8-36.7,52.5-98,63.6-120.9Z"/>
          <path class="cls-17" d="M1355.8,1604.6h120.4c4.3-.4,5.4-3.9,3.8-6.1-3.2-4.4-26.2-14.9-41.8-21.8-27,3.2-74.5-7.2-78.9-13.4-11.4,15.3-6,40.8-3.6,41.3Z"/>
          <path class="cls-12" d="M1329.4,1336.2c-1.6-4.9,103.7-49.6,108.4-44.5,8.3,9-57,178.6-57,178.6l75,22.9s78-195.9,74.8-231.7c-3.3-35.8-42.3-76.5-127-50.5-84.7,26.1-74.2,125.1-74.2,125.1Z"/>
          <path class="cls-7" d="M1547.4,1451.3c-17.8-3.2-40.8-4.2-59.3-4.5,2.2,16.4,12.7,100.6,10.8,105.8-7.8,21-25.2,30.8-25.2,30.8,0,0,81.8,73.8,86.7,65.3,4.9-8.5-3.6-7.4-9-35.5-.5-2.5-12.3-41.7-13-62.9-1.4-40.4,8.3-76.6,8.9-99Z"/>
          <path class="cls-19" d="M1521.2,1175.8c-11.4-6.1-41-6.3-73.6-4.2-63.5,4.1-126.2,16.6-186.5,36.6l-40.4,13.4v-41.4c.1,0-128.4-21.5-132.9,10.4-6.7,48,1.6,145.4,44.5,167.1,133,67.5,319.5-107.6,320.2-84.7.9,30.8,26.8,145.3,33.5,195.4,18.4.3,50.1.3,63.9-2.8,2.7-98.2,3.9-272.4-28.5-289.8Z"/>
          <path class="cls-17" d="M1471.3,1585.1l91.9,73.4c3.6,2.4,6.7.3,6.8-2.3.4-5.4-10.9-28.1-18.5-43.3-22.9-14.7-53.1-53-52.6-60.5-9.7,8.2-29.3,30.8-27.7,32.7Z"/>
          <path class="cls-18" d="M1263.3,775.3c-3.1-28.2-6.3-56.6-29.7-77.2-18.9-16.7-43-19.6-66.8-10.6-67.5,25.4-32.7,85.3-118.7,145.7-26.7,18.8-56.2,31.6-76.3,56.9-28.2,35.4-17.5,77.9,8.1,106.3,122.8,135.9,259.9-47.6,269.8-91.7,7.3-32.8,15.6-111.1,13.6-129.3Z"/>
          <path class="cls-20" d="M1238.3,934c-10-18.5-20.4-33.2-20.4-33.2-10.4-18.5-37.3-27.9-37.3-27.9,0,0-9,.2-19.3.7-.6,1.7-1.3,2.9-1.9,3.4-3.9,2.9-26.1-.8-40.5,8.9-48.1,41.3-34.8,241.3-31,304.5l146.6,1.4s-18.5-136,11.3-170.9c20.7-24.3,7.4-59.6-7.5-87Z"/>
          <path class="cls-7" d="M1172.2,805.3s-8.1,57.6-13.7,71.6c-5.6,14,31,43.9,61.4,53,30.4,9.1-9.3-30.9-8-45.9,1.3-15,6.8-85.8,6.8-85.8l-46.5,7.1Z"/>
          <path class="cls-23" d="M1217.2,818.6c.9-11.7,1.5-20.3,1.5-20.3l-46.5,7.1s-1.2,6.8-2.5,16.3c18.8,10.9,35.8,7.5,47.4-3.1Z"/>
          <path class="cls-7" d="M1186.8,700.2s-18.3,4.1-29.6,21.4c-11.3,17.3-19.1,68,18.2,91.8,37.2,23.7,66.2-9.8,66.7-42.5.5-32.7-6.5-76.4-55.2-70.6Z"/>
          <path class="cls-7" d="M1250.6,760.5c-3.2,7.9-9.5,12.8-14.1,10.9-4.6-1.9-5.7-9.8-2.6-17.6,3.2-7.9,9.5-12.8,14.1-10.9,4.6,1.9,5.7,9.7,2.6,17.6Z"/>
          <path class="cls-18" d="M1192.3,699.1s-23.3,52.4-43.9,57c-20.5,4.7-20.2,31-20.2,31,0,0,.5-60.8,19.7-74.8,19.2-14,44.4-13.3,44.4-13.3Z"/>
          <path class="cls-7" d="M1156.6,767c2.7,8.5.2,16.9-5.5,18.7-5.7,1.8-12.6-3.6-15.3-12.1-2.7-8.5-.2-16.9,5.5-18.7,5.7-1.8,12.6,3.6,15.3,12.1Z"/>
          <path class="cls-7" d="M1418.9,1145c-8.8-3.2-21.9-3.6-21.7-4.7.9-4.7,39.7,10.4,34.5,3.5-2.9-3.8-32-17.3-39.1-15.1-6.9,2.2-51.9,14.8-51.9,14.8l-123.1-28.9s-31.1-70.6-34.1-131.3c-25.7,3.5-43.2,9.8-65.5,22.2,10.8,58,36.9,152.1,65.9,169.7,12.2,7.4,157.5-8.9,157.5-8.9,0,0,32-2.3,37.3-4.3,4-1.5,14.2-7.3,19.7-8.9,12.6-3.6,35.1,5.4,35.2,2.9,0-1.8-5.7-7.9-14.6-11.2Z"/>
          <path class="cls-10" d="M1184.2,918.6c-1.2-18.7-8.3-36.7-28.1-42.5-12.3-3.6-26.1-.2-36,7.9-11.7,9.6-15,24.9-14.9,39.4.1,33,2.4,67.1,8.4,99.6,22.3-12.4,48.4-19.8,74.1-23.3,0-.2-1.9-56.4-3.5-81Z"/>
        </g>
        <g>
          <path class="cls-22" d="M802.8,953.8l-190.9-35.5c-3.8-.7-6.4-4.4-5.6-8.2l23.9-128.4c.7-3.8,4.4-6.4,8.2-5.6l190.9,35.5c3.8.7,6.4,4.4,5.6,8.2l-23.9,128.4c-.7,3.8-4.4,6.4-8.2,5.6Z"/>
          <path class="cls-22" d="M712,807l-58.1-10.8c-3.8-.7-6.4-4.4-5.6-8.2l3.6-19.5c.7-3.8,4.4-6.4,8.2-5.6l58.1,10.8c3.8.7,6.4,4.4,5.6,8.2l-3.6,19.5c-.7,3.8-4.4,6.4-8.2,5.6Z"/>
          <path class="cls-8" d="M811.5,948.9c-1,3.5-4.5,5.7-8.1,5l-192.1-35.8c-3.6-.7-6.1-3.9-5.7-7.6l10.1-115.1c.2-2,1.2-3.8,2.8-5,1.6-1.2,3.6-1.7,5.6-1.3l213.4,39.7c2,.4,3.7,1.5,4.7,3.2,1,1.7,1.3,3.7.8,5.6l-31.4,111.1Z"/>
        </g>
        <polygon class="cls-1" points="1686.9 528.4 1654.2 537.3 1647.2 497.7 1657.9 495.8 1662.8 523.7 1684 517.9 1686.9 528.4"/>
        <g>
          <path class="cls-12" d="M645.7,1072.3c8.2-.7,20.8,2.9,26.4,6.8.8.8,7.3,3.4,14.1,14.5l-1.5,1c-7.1-7.4-11.9-9.1-17.6-10.8-9.4-2.4-18.8-.6-19.6-.2l-1.7-11.3Z"/>
          <path class="cls-23" d="M685.4,1094.1s-49.9,8.3-45.2,47.3c4.7,39,57.3,69.3,104.2,45.2,63.2-32.4,38.2-114.8-6.7-121.2-45-6.4-52.3,28.7-52.3,28.7Z"/>
          <path class="cls-13" d="M706.5,1076.9s13-13.4,41.5-1.2c28.5,12.2,30.6,68.8,5.1,65.5-25.4-3.3-67-56.1-46.7-64.3Z"/>
        </g>
        <g>
          <path class="cls-4" d="M1049.6,559.4l-205.1,73.2c-6.6,2.4-13.9-1.1-16.2-7.7l-37.9-106.1c-2.4-6.6,1.1-13.9,7.7-16.2l205.1-73.2c6.6-2.4,13.9,1.1,16.2,7.7l37.9,106.1c2.4,6.6-1.1,13.9-7.7,16.2Z"/>
          <path class="cls-3" d="M913.6,532.1c7.5,21.1-3.5,44.4-24.6,51.9-21.1,7.5-44.4-3.5-51.9-24.6-7.5-21.1,3.5-44.4,24.6-51.9,21.1-7.5,44.4,3.5,51.9,24.6Z"/>
          <path class="cls-4" d="M881.2,526.4c2.2,6.2-1,13.1-7.3,15.3-6.2,2.2-13.1-1-15.3-7.3s1-13.1,7.3-15.3c6.2-2.2,13.1,1,15.3,7.3Z"/>
          <path class="cls-4" d="M874.6,548.3h9.9c7.8,0,14.2,6.4,14.2,14.2v4.3h-38.3v-4.3c0-7.8,6.4-14.2,14.2-14.2Z" transform="translate(-136.2 327.9) rotate(-19.6)"/>
          <path class="cls-3" d="M918.7,509.9c-2.2,0-4.1-1.4-4.9-3.4-1-2.7.4-5.7,3.1-6.6l89.7-32c.6-.2,1.1-.3,1.7-.3,2.2,0,4.1,1.4,4.9,3.4,1,2.7-.4,5.7-3.1,6.6l-89.7,32c-.6.2-1.1.3-1.7.3Z"/>
          <path class="cls-3" d="M942.9,532.3c-2.2,0-4.1-1.4-4.9-3.4-1-2.7.4-5.7,3.1-6.6l70-25c.6-.2,1.1-.3,1.7-.3,2.2,0,4.1,1.4,4.9,3.4.5,1.3.4,2.7-.2,4-.6,1.3-1.6,2.2-2.9,2.7l-70,25c-.6.2-1.1.3-1.7.3Z"/>
        </g>
        <path class="cls-23" d="M1368.3,1359.9h-495.2c-15.4,0-27.8,12.5-27.8,27.8v23.4c0,15.4,12.5,27.8,27.8,27.8h495.2l-.3-.3c-21.2-22.1-21.1-56.9.3-78.8Z"/>
        <path class="cls-8" d="M1359.5,1371.6h-264.7c-15.4,0-27.8,12.5-27.8,27.8h0c0,15.4,12.5,27.8,27.8,27.8h264.7c-9.7-17.2-9.7-38.5,0-55.7Z"/>
        <g>
          <g>
            <path class="cls-8" d="M1773.6,1362.2l-37.5-94.2c-1.9-4.7.4-10.1,5.2-12l135.1-53.8c4.7-1.9,10.1.4,12,5.2l37.5,94.2c1.9,4.7-.4,10.1-5.2,12l-135.1,53.8c-4.7,1.9-10.1-.4-12-5.2Z"/>
            <path class="cls-6" d="M1901,1307.7l-33.7-84.6c-.5-1.4.1-2.9,1.5-3.4h0c1.4-.5,2.9.1,3.4,1.5l33.7,84.6c.5,1.4-.1,2.9-1.5,3.4h0c-1.4.5-2.9-.1-3.4-1.5Z"/>
            <path class="cls-6" d="M1884.9,1296.5l-27.7-69.5c-.5-1.4.1-2.9,1.5-3.4h0c1.4-.5,2.9.1,3.4,1.5l27.7,69.5c.5,1.4-.1,2.9-1.5,3.4h0c-1.4.5-2.9-.1-3.4-1.5Z"/>
            <path class="cls-6" d="M1880.9,1315.7l-33.7-84.6c-.5-1.4.1-2.9,1.5-3.4h0c1.4-.5,2.9.1,3.4,1.5l33.7,84.6c.5,1.4-.1,2.9-1.5,3.4h0c-1.4.5-2.9-.1-3.4-1.5Z"/>
            <path class="cls-6" d="M1863.2,1300.4l-26-65.3c-.5-1.4.1-2.9,1.5-3.4h0c1.4-.5,2.9.1,3.4,1.5l26,65.3c.5,1.4-.1,2.9-1.5,3.4h0c-1.4.5-2.9-.1-3.4-1.5Z"/>
            <g>
              <path class="cls-11" d="M1900.1,1214l-.7-1.7c-.3-.6-.9-.9-1.5-.7l-12.8,5.1c-.6.2-.9.9-.6,1.6l.7,1.7c.2.6.9.9,1.5.7l12.8-5.1c.6-.2.9-.9.6-1.6Z"/>
              <path class="cls-11" d="M1903,1221.3l-.7-1.7c-.2-.6-.9-.9-1.5-.7l-12.8,5.1c-.6.2-.9.9-.6,1.6l.7,1.7c.2.6.9.9,1.5.7l12.8-5.1c.6-.2.9-.9.6-1.6Z"/>
              <path class="cls-11" d="M1905.9,1228.6l-.7-1.7c-.2-.6-.9-.9-1.5-.7l-12.8,5.1c-.6.2-.9.9-.6,1.6l.7,1.7c.2.6.9.9,1.5.7l12.8-5.1c.6-.2.9-.9.6-1.6Z"/>
              <path class="cls-11" d="M1908.8,1235.9l-.7-1.7c-.3-.6-.9-.9-1.5-.7l-12.8,5.1c-.6.2-.9.9-.6,1.6l.7,1.7c.3.6.9.9,1.5.7l12.8-5.1c.6-.2.9-.9.6-1.6Z"/>
              <path class="cls-11" d="M1911.7,1243.2l-.7-1.7c-.2-.6-.9-.9-1.5-.7l-12.8,5.1c-.6.2-.9.9-.6,1.6l.7,1.7c.2.6.9.9,1.5.7l12.8-5.1c.6-.2.9-.9.6-1.6Z"/>
              <path class="cls-11" d="M1914.6,1250.5l-.7-1.7c-.3-.6-.9-.9-1.5-.7l-12.8,5.1c-.6.2-.9.9-.6,1.6l.7,1.7c.2.6.9.9,1.5.7l12.8-5.1c.6-.2.9-.9.6-1.6Z"/>
              <path class="cls-11" d="M1917.5,1257.8l-.7-1.7c-.2-.6-.9-.9-1.5-.7l-12.8,5.1c-.6.2-.9.9-.6,1.6l.7,1.7c.2.6.9.9,1.5.7l12.8-5.1c.6-.2.9-.9.6-1.6Z"/>
              <path class="cls-11" d="M1920.4,1265.1l-.7-1.7c-.2-.6-.9-.9-1.5-.7l-12.8,5.1c-.6.2-.9.9-.6,1.6l.7,1.7c.2.6.9.9,1.5.7l12.8-5.1c.6-.2.9-.9.6-1.6Z"/>
              <path class="cls-11" d="M1923.3,1272.3l-.7-1.7c-.2-.6-.9-.9-1.5-.7l-12.8,5.1c-.6.2-.9.9-.6,1.6l.7,1.7c.3.6.9.9,1.5.7l12.8-5.1c.6-.2.9-.9.6-1.6Z"/>
              <path class="cls-11" d="M1926.3,1279.6l-.7-1.7c-.3-.6-.9-.9-1.5-.7l-12.8,5.1c-.6.2-.9.9-.6,1.6l.7,1.7c.2.6.9.9,1.5.7l12.8-5.1c.6-.2.9-.9.6-1.6Z"/>
              <path class="cls-11" d="M1929.2,1286.9l-.7-1.7c-.2-.6-.9-.9-1.5-.7l-12.8,5.1c-.6.2-.9.9-.6,1.6l.7,1.7c.3.6.9.9,1.5.7l12.8-5.1c.6-.2.9-.9.6-1.6Z"/>
              <path class="cls-11" d="M1932.1,1294.2l-.7-1.7c-.2-.6-.9-.9-1.5-.7l-12.8,5.1c-.6.2-.9.9-.6,1.6l.7,1.7c.2.6.9.9,1.5.7l12.8-5.1c.6-.2.9-.9.6-1.6Z"/>
            </g>
          </g>
          <g>
            <path class="cls-21" d="M1967.5,1286.7l-53.6,76.3c-.1.2-.2.4-.3.6l-5.5,16.8c-.6,2,1.6,3.6,3.3,2.3l14.3-10.8c.2-.1.3-.3.5-.5l53.8-76.5c.7-1,.4-2.3-.6-3l-9-5.8c-.9-.6-2.2-.4-2.8.6Z"/>
            <path class="cls-22" d="M1926.1,1371.5v.2c-.1,0-14,10.4-14,10.4l-3.8-2.5,5.2-15.9c4.1,2.2,8.9,4.5,12.6,7.8Z"/>
          </g>
        </g>
        <g>
          <path class="cls-6" d="M1424.3,460.2c7.7,6.2,21.1,26,38.3,39.9,10,8.1,17.7,6.1,30.5,7.6,60.7,7.3,44.2,19.7,51.5,21-2.1,4.8-21,44.9-24.5,53.1-3.3,7.5-8.9,10.8-17.1,9.7-12.5-1.7-25.2-3-37.6-5.7-31.7-6.9-49.3-22.7-72-41.9-6-5.1-7.5-11.5-4.4-18.7,14.5-33.6,33.6-61.8,35.2-64.9Z"/>
          <path class="cls-4" d="M1551.2,577.1c-.3,13.2.7,15.9-4.9,13.9-3.4-1.2-6.7-2.8-10-4.4-2.3-1.2-2.4-2.7-.5-4.6,2.7-2.7,5.5-5.3,8.2-8-2-5.2.3-11.2,5.1-14.1,1-.6.3.6,8.7-18.8-27.9-3.4-47.7-5.8-81.8-10-9.1-1.1-17.2-4.7-24.3-10.6-24.4-20.4-48.7-40.8-73-61.1-3.3-2.8-3.7-6.8-1.1-9.9,2-2.4,4.7-2.5,7.5-2.1,7.8,1,84.1,10.5,91.8,11.4,10.2,1.2,19.1,5,27,11.6,23.9,20,47.9,40,71.9,60,3.3,2.7,4.2,5.3,3,8.3-1.3,3.4-4,5-8.2,4-3-.7-4.4.3-5.4,3.1-4.7,12.6-8,15.4-6.8,20.1.9,3.6-3.4,9.7-7.2,11.3Z"/>
        </g>
        <g>
          <path class="cls-6" d="M1677.8,1475.4l13.9,13.3c32.9,31.4,59.7,68.5,79.1,109.6l2.1,4.5s36.4,3.2,41.5-29.7h0c-31.9-36.1-58.2-74.6-79.9-117.4l-6.6-15.4-50.1,35.1Z"/>
          <path class="cls-4" d="M1727.9,1440.2c1.8,2.6-8,12.5-21.8,22.1-13.8,9.6-26.6,15.5-28.3,12.9-1.8-2.6,8-12.6,21.9-22.2,13.8-9.6,26.5-15.4,28.3-12.8Z"/>
          <path class="cls-11" d="M1727.9,1440.3h0s-27.7,23.4-39.1,25.8l3.5,4.8c4.2-2.3,8.9-5.2,13.8-8.6,13.7-9.5,23.4-19.3,21.9-22Z"/>
          <g>
            <path class="cls-15" d="M1765,1508.4c0,4-1.5,21.5-30.5,28.8,1.9,2.6,3.8,5.2,5.6,7.9,18.4-5.4,26.6-14.9,30.4-22.1.6-1.1,1.3-2.7,1.8-3.8-2.5-3.6-4.9-7.1-7.2-10.8Z"/>
            <polygon class="cls-15" points="1737 1532.1 1694.3 1530.5 1704.4 1539.1 1698.4 1550.1 1738.8 1539.8 1737 1532.1"/>
            <polygon class="cls-15" points="1740.9 1542 1725.7 1568.5 1736.4 1564.4 1740.5 1572.8 1747.7 1545 1740.9 1542"/>
            <path class="cls-23" d="M1746.7,1549.2c-7.5.5-14-5.3-14.6-13-.5-7.7,5.1-14.4,12.6-15,7.5-.5,14,5.3,14.6,13,.5,7.7-5.1,14.4-12.6,15Z"/>
          </g>
        </g>
        <g>
          <path class="cls-5" d="M1837.4,949l-90-80.3c-5.8-5.2-3.4-16,4.7-20.5l71.8-40.7c4.6-2.6,9.8-2.4,13.1.6l90,80.3c5.8,5.2,3.4,16-4.7,20.5l-71.8,40.7c-4.6,2.6-9.8,2.4-13.1-.6Z"/>
          <path class="cls-3" d="M1833.2,885.1l-7.5-61.7c-.3-2.4,1.4-4.9,3.8-5.6,2.4-.8,4.6.6,4.9,2.9l6.9,56.8,68.2,16.5c2.2.5,3.3,2.9,2.3,5.4-1,2.4-3.5,3.9-5.8,3.4l-72.9-17.6Z"/>
        </g>
        <path class="cls-9" d="M313.8,1720.9c-4.8,0-8.7,4.5-8.7,10.1s3.9,10.1,9.8,3.3h1772.6c2.3,0,4.1-3,4.1-6.7h0c0-3.7-1.8-6.7-4.1-6.7H313.8Z"/>
        <polygon class="cls-22" points="657.9 602.5 667.2 620.9 688.2 620.2 697.2 641.6 719.4 634 730.6 657.7 751.8 653.2 766.4 674.2 758.4 679.7 747.5 664 725.1 668.7 714.3 645.9 691.8 653.7 681.9 630.1 661.4 630.8 652.7 613.7 639.3 617 637.1 607.6 657.9 602.5"/>
        <polygon class="cls-20" points="1783.5 1073.3 1802.6 1081 1818 1066.7 1838.8 1076.9 1850.5 1056.6 1874.5 1067.1 1887.6 1049.8 1912.3 1056.1 1909.9 1065.5 1891.4 1060.7 1877.6 1079.1 1854.5 1069 1842.6 1089.6 1819.7 1078.3 1804.6 1092.3 1786.9 1085.1 1779 1096.4 1771.1 1090.8 1783.5 1073.3"/>
      </g>
    </g>
  </g>
</svg>