<?xml version="1.0" encoding="UTF-8"?>
<svg xmlns="http://www.w3.org/2000/svg" version="1.1" viewBox="0 0 751.1 556.4">
  <defs>
    <style>
      .cls-1 {
        fill: #ff6584;
      }

      .cls-2 {
        fill: #2f2e41;
      }

      .cls-3 {
        fill: #e6e6e6;
      }

      .cls-4 {
        fill: #ffb6b6;
      }

      .cls-5 {
        fill: #3f3d56;
      }

      .cls-6 {
        fill: #ccc;
      }

      .cls-7 {
        fill: #fff;
      }

      .cls-8 {
        fill: #f2f2f2;
      }

      .cls-9 {
        fill: #6c63ff;
      }

      .cls-10 {
        fill: #cacaca;
      }
    </style>
  </defs>
  <!-- Generator: Adobe Illustrator 28.7.1, SVG Export Plug-In . SVG Version: 1.2.0 Build 142)  -->
  <g>
    <g id="Layer_1">
      <path class="cls-3" d="M465.1,550.9h-105.3v-3.2c0-5.8,4.7-10.6,10.6-10.6h84.1c5.8,0,10.6,4.7,10.6,10.6v3.2h0Z"/>
      <path class="cls-3" d="M410,537.8l3.2-1.3c-33.5-83.1-30.3-188-2-278,6.9-21.3.4-44.7-16.4-59.4-16.4-14.7-39.1-18.2-59.1-9.3-19.8,8.8-22.5,24.1-22.5,39.4h3.5c0-16.3,3.5-28.7,20.5-36.2,18.8-8.4,40-5,55.4,8.7,15.8,13.9,21.8,35.8,15.4,55.8-28.6,91-31.7,196.6,2,280.3Z"/>
      <circle class="cls-3" cx="315.8" cy="267.9" r="12.1"/>
      <path class="cls-3" d="M297.2,289v-22.9h3.6v22.9c2.4,1,3.6,3.7,2.6,6.2-1,2.4-3.7,3.6-6.2,2.6-2.4-1-3.6-3.7-2.6-6.2.5-1.2,1.4-2.1,2.6-2.6Z"/>
      <path class="cls-9" d="M280,248.5c0-11,8.9-19.8,19.8-19.8h32.8c11,0,19.8,8.9,19.8,19.8s-8.9,19.8-19.8,19.8h-32.8c-11,0-19.8-8.9-19.8-19.8Z"/>
      <path class="cls-5" d="M233.8,371.4c3.3-42.1,20.1-62.2,9.3-74.8-10.3-12.1-39.4-9.6-58.1,2-50.4,31.2-68.8,155.5-4,216.3,61.6,57.7,178.3,39.2,204.3-8,6.1-11,10.9-30.3,2-42.1-22-29.1-102,23.6-137.5-9.3-21.1-19.5-17.8-61-16-84.1Z"/>
      <path class="cls-4" d="M272.4,350.5c-2.5,1.2-3.7,4.2-2.6,6.7.1.3.2.5.4.7l-10.8,14.4,5.4,8.1,12.7-21.4c1.8-1.4,2.5-3.9,1.6-6.1-1.1-2.5-4-3.6-6.5-2.5,0,0,0,0,0,0,0,0,0,0-.1,0Z"/>
      <path class="cls-9" d="M272.3,375.4c.7.6-1.3,1.4-3.3.2-.6-.4-.8-.5-.9-.4-.2.2.8,2,.5,5.8-.2,2.3-4,6.6-8.3,10.8-5.8,5.7-12.6,11.1-12.6,11.1l-2.4-1.9-24.9-20-4.2-5.8c.4-2.3,1-4.6,1.7-6.8,1.1-3,2.3-6,3.8-8.9.8-1.6,1.6-3.1,2.3-4.4l13.4,14.7,11.2,12.3s3.3-5.2,5.8-6.7c.3-.2.7-.3,1.1-.4,2.5-.1,2.7-1.5-.3-4.5-3-3,.8-.2,3.4-1,2.6-.8,0,0,.6-2,.6-2,7.9-6.1,7.9-6.1l.3.3,5.6,4.9,1.6,1.4s-1.7,4.8-2.2,5.8c-.5,1-.7,1.1,0,1.7Z"/>
      <polygon class="cls-4" points="419.3 468.1 419.5 460.8 391.3 456.2 390.9 467.1 419.3 468.1"/>
      <path class="cls-2" d="M414.1,470.3l-.3-11.8,5,.2,8.1-10.9c1-1.4,3-1.7,4.4-.6.8.6,1.3,1.6,1.3,2.6l-.5,14-5.1,2.2,5,1.1-.2,5.3-17.7-2.1Z"/>
      <path class="cls-2" d="M260.2,471l89.5,2.3s38.7,2.2,47.7-3.7l9.6-1.2.5-14.1s-5.9,0-9.2-1.5-1-3.5-4.2-1.6-2.9,2.1-5.3,1.2-116.2-18.2-116.2-18.2l-12.4,36.7Z"/>
      <polygon class="cls-4" points="378.2 464.9 383.4 459.7 365.7 437.1 358.1 444.8 378.2 464.9"/>
      <path class="cls-2" d="M372.9,460.3l7.8-8.8,3.6,3.6,13.4-2.5c1.7-.3,3.4.8,3.7,2.5.2,1-.1,2.1-.9,2.8l-9.9,9.9-5.2-1.8,2.9,4.2-3.7,3.7-11.6-13.6Z"/>
      <path class="cls-2" d="M224.8,421.9l.9,20.7c1,24.4,27.9,39.1,48.7,26.4.4-.2.8-.5,1.2-.7.6-.4,7.9-2.1,7.6-5.5s1.7-5,3.4-4.1,24-30.8,24-30.8c0,0,46.4,23.1,56.6,28.6,0,0,9.6-15,8.9-14.9s-57.4-39.5-57.4-39.5c0,0-9.2-9.3-20.7-3.2-.2.9,0,.9,0,.9l-37.8,30.8-5.3-10.2-30,1.3Z"/>
      <path class="cls-9" d="M260.5,396.1c0,1-.2,1.9-.4,2.8-.3,1.4-.7,2.7-1.3,3.9,0,0,0,1.4-2.7,6.1-2.7,4.7.7,2.7,2.7,6.1,2,3.5,0,1.9-2.2,4.1-1.3,1.3-1.8,3.2-1.3,5,0,0-28.7,0-34-2s-6.6-13.3-1.8-14.4c4.8-1.1-1.4-2.2-4.3-4.8-2.8-2.6,2.8-6.8,2.8-6.8,0,0-2.3-4-2.1-17.4,0-1.2.1-2.5.3-3.7.4-2.3,1-4.6,1.7-6.8,1.1-3,2.3-6,3.8-8.9.8-1.6,1.6-3.1,2.3-4.4.1-.2.2-.4.4-.6,1.4-2.6,2.8-4.7,3.6-6,.7-1,1.1-1.6,1.1-1.6l4.9-8.5,16.2,7.6-.9,12.4,2.8,9.4,1.3,4.3,1,3.3,1.5,5.2s-.4,0,0,.7c2.3,3.1,3.8,6.7,4.3,10.5.2,1.4.2,2.9.1,4.4Z"/>
      <path class="cls-2" d="M307.4,397.4h-.3c0,0-38.8-12.6-38.8-12.6l14.3-46.9c1-3.4,4.6-5.3,8.1-4.3.5.1,1,.4,1.4.6l24.8,14.7c4.1,2.4,5.8,7.3,4.2,11.8l-13.6,36.8Z"/>
      <path class="cls-9" d="M307.5,400.4l-39.1-12.6,14.3-46.9c1-3.4,4.6-5.3,8.1-4.3.5.1,1,.4,1.4.6l26,13c3.9,2.3,3.8,8.3,2,13.2l-12.6,37.1Z"/>
      <path class="cls-5" d="M303.6,403.8c-1.8,1-4,1.2-6,.6l-25-8.1c-4-1.3-6.2-5.6-5-9.6l12.5-41.1c1-3.4,4.6-5.3,8.1-4.3,0,0,0,0,.1,0l25.9,8.5c5.1,1.7,7.9,7.2,6.2,12.3,0,0,0,.2,0,.3l-13.4,37.4c-.6,1.7-1.8,3.1-3.4,4Z"/>
      <circle class="cls-4" cx="249.4" cy="320.5" r="17.9"/>
      <path class="cls-2" d="M188.8,338.7c1.6,3.2,4.3,5.7,7.6,7.1,1.3.6,2.7,1,4.1,1.3.4-1.6,1-3.1,1.9-4.5-.3,1.6-.3,3.2,0,4.8,2.2.2,4.3,0,6.4-.8,4.1-1.4,7.3-4.6,8.6-8.7,1.4-4.7-.1-9.8-.2-14.8-.1-5,2.2-10.9,7.2-11.5,3.7-.5,3.3-.1,6,2.5-3.8,4.2,5.4,22.7,10.3,21.9,2.8-.5,4.8-2.7,5.4-2.6,2.8,6.9-5.7,16.7,1.1,19.9l-.5-.7c-3.5-5.8,6.9-15.7,3.4-21.5-1-1.6-2-3.5-1.4-5.3.6-1.7,3.5-2.3,4.1-.7-1-3.6,1.8-7.8,5.5-8.1,3.3-.3,3.1.6,6.3,1.5.4-1.4,1-2.7,1.7-3.9-.3,1.4-.3,2.8,0,4.2,1.1.1,2.3-.1,3.3-.7,2.9-1.7,3-6.2,1-9-2-2.7-5.3-4.1-8.6-5.1,0-6.8-18.4-10.1-21.8-3.8-.3-5.1-6.2-8.6-11.3-7.7s-9.1,4.9-11.5,9.5c-2.4,4.5-3.7,9.6-5.4,14.5s-4.3,9.7-8.6,12.5c-4.3,2.9-10.6,3.1-14.2-.6-1.7,3.2-1.7,7,0,10.3Z"/>
      <path class="cls-5" d="M207.1,420.7c.4-.3.8-.6,1.2-.8,6.9-3.4,28.2-12.3,44.9-11.9,32.1.7,72.9,36.1,63.4,59.9-7.2,18.1-43.2,28.4-69.4,20.2-36.8-11.5-51.3-58.4-40.1-67.4Z"/>
      <path class="cls-8" d="M74,551c-10.5-2-19.8-49.2.9-72.5,7.1-8,15.9-11.4,27.6-14.7,67.5-18.6,119-.9,125.9,3.5,6.9,4.3,19,69.3,3.5,78.5-8.7,5.2-26,7.8-34.5,1.7-12.6-8.9,8.5-31.9-.9-47.5-10.7-17.6-66.8-23.5-95-6-30,18.7,31.9,68.2-27.5,56.9Z"/>
      <path class="cls-6" d="M144,470.7h-40.1c-9.9-9.5-17-18.6-11.3-26.2,0-4.5,3.7-8.2,8.2-8.2h46.2c4.5,0,8.2,3.7,8.2,8.2,2.2,8.6-1.7,17.4-11.3,26.2Z"/>
      <path class="cls-6" d="M136.9,425.9c-1,0-1.9-.7-1.9-1.8,0-.5.2-1.1.6-1.4v-.5c.1,0,0,0,0-.1-1.1-2.5-4-3.7-6.5-2.6-1.2.5-2.2,1.5-2.7,2.7-1.5,3.6-3.4,7.2-3.9,11.1-.2,1.7-.1,3.4.3,5.1-3.5-7.7-5.4-16.1-5.4-24.5,0-2.1.1-4.3.4-6.4.2-1.7.5-3.5.8-5.2,1.9-9.3,6-17.9,11.9-25.3,2.9-1.6,5.2-4,6.6-6.9.5-1,.9-2.2,1.1-3.3-.3,0-1.2-4.9-1-5.2-.4-.7-1.3-1-1.7-1.7-2.4-3.3-5.8-2.7-7.6,1.8-3.7,1.9-3.8,5-1.5,8,1.5,1.9,1.7,4.5,2.9,6.6-.1.2-.3.3-.4.5-2.4,3.1-4.5,6.4-6.3,9.9.4-3.9,0-7.9-1.5-11.6-1.4-3.4-4.1-6.4-6.5-9.3-2.8-3.6-8.6-2-9.1,2.5,0,0,0,0,0,.1.4.2.7.4,1,.6,1.2.8,1.5,2.3.7,3.5-.4.6-1,1-1.7,1.1h0c.1,1.3.3,2.5.7,3.8-3,11.7,3.5,16,12.8,16.2.2.1.4.2.6.3-1.8,5-2.9,10.2-3.3,15.6-.2,3.1-.2,6.3,0,9.4h0c-.7-3.6-2.5-6.7-5.3-9-4-3.3-9.8-4.5-14.1-7.2-1.3-.9-3.1-.5-4,.9-.4.6-.5,1.3-.4,1.9,0,0,0,0,0,.1.7.3,1.3.6,1.9.9.4.2.7.4,1,.6,1.2.8,1.5,2.3.7,3.5-.4.6-1,1-1.7,1.1h0s0,0-.1,0c1.1,2.7,2.7,5.1,4.6,7.2,1.9,10.2,10,11.2,18.7,8.2h0c1,4.1,2.3,8.2,4.1,12h14.7c0-.2.1-.3.1-.5-1.4,0-2.7,0-4.1-.2,1.1-1.3,2.2-2.7,3.3-4,0,0,0,0,0,0,.6-.7,1.1-1.4,1.7-2.1h0c0-2.1-.2-4.2-.7-6.2h0Z"/>
      <path class="cls-6" d="M187.1,468.6c.5,1.5,1.9,2.4,3.4,2.4l14.7-.4c1.6,0,2.9-1.1,3.3-2.6l2.1-22.2c.7.3,1.5.5,2.4.5,3,0,5.3-2.5,5.2-5.5s-2.5-5.3-5.5-5.2c-.3,0-.6,0-1,.1-.7-.8-1.7-1.2-2.7-1.2l-22.6.6c-.2,0-.4,0-.6,0-1.9.4-3.2,2.2-2.8,4.1,0,.2,0,.3.1.5l3.9,28.9ZM211.1,444.2l1.5-5.3c.2-.6.2-1.3,0-1.9,0,0,.1,0,.2,0,2.1,0,3.9,1.6,3.9,3.8,0,2.1-1.6,3.9-3.7,3.9-.7,0-1.3-.1-1.9-.5h0Z"/>
      <path class="cls-7" d="M185.9,435.1c.5,2.8,5.9,4.7,12.4,4.4,6-.3,10.9-2.4,11.8-4.9-.3,0-.7-.1-1-.1l-22.6.6c-.2,0-.4,0-.6,0Z"/>
      <path class="cls-10" d="M16.4,552l494.8.2c.4,0,.8-.4.8-.8,0-.4-.4-.8-.8-.8l-494.8-.2c-.4,0-.8.3-.8.8,0,.4.3.8.8.8h0Z"/>
      <path class="cls-4" d="M293.9,376.2c-2.8.1-5,2.4-5,5.2,0,.3,0,.5,0,.8l-15.5,9.2,1.9,9.5,19.9-14.9c2.3-.6,3.8-2.7,3.8-5,0-2.7-2.3-4.9-5-4.8h0s0,0-.1,0Z"/>
      <path class="cls-9" d="M281.2,398c-.4-.6-.6-.8-.7-.7-.2.1,0,2.1-1.7,5.5-2.4,4.8-27.7,12.2-27.7,12.2l-3.1-5.7-13.7-25-4.7-20c-.2-.7-.2-1.4-.2-2.1,4.2-3,8.7-5.5,13.3-7.7,1.9,1.1,3.3,2.8,4,4.8l9.4,26.4,3.8,10.5s6.6-4.7,9-3.9c2.4.9,3.1-.4,1.5-4.3-1.6-3.9.8.1,3.5.4,2.7.3,0,0,1.3-1.7s9.7-2.6,9.7-2.6l.2.4,3.2,6.7.9,1.9s-3.4,3.7-4.3,4.5c-.8.8-1.1.7-.7,1.6.4.9-1.7.8-3.1-1.1Z"/>
      <g>
        <path d="M449.2,173.1v6.6h-.8v-6.6h.8Z"/>
        <path d="M454.7,172.8v5.7c0,.4,0,.9,0,1.2h-.8v-.8h0c-.3.5-.8.9-1.6.9-1.1,0-2-1-2-2.4,0-1.6,1-2.5,2.1-2.5s1.2.3,1.4.7h0v-2.8h.9ZM453.8,176.9c0-.1,0-.3,0-.4-.1-.5-.6-1-1.2-1s-1.4.8-1.4,1.8.5,1.7,1.4,1.7,1.1-.4,1.3-1c0-.1,0-.2,0-.4v-.8Z"/>
        <path d="M456.6,177.5c0,1.2.8,1.6,1.6,1.6s1-.1,1.3-.2v.6c-.2.1-.7.3-1.4.3-1.4,0-2.3-1-2.3-2.4s.8-2.5,2.2-2.5,1.9,1.4,1.9,2.2,0,.3,0,.4h-3.3ZM459.1,176.9c0-.5-.2-1.4-1.2-1.4s-1.2.8-1.3,1.4h2.5Z"/>
        <path d="M462.9,178.8c.3.2.7.3,1.1.3.6,0,.9-.3.9-.7s-.2-.6-.9-.9c-.8-.3-1.2-.8-1.2-1.3s.6-1.4,1.6-1.4.9.1,1.2.3l-.2.6c-.2-.1-.5-.3-1-.3s-.8.3-.8.6.3.6.9.8c.8.3,1.2.7,1.2,1.4s-.6,1.4-1.8,1.4-1-.1-1.3-.3l.2-.7Z"/>
        <path d="M466.3,179.2l2.1-2.8c.2-.3.4-.5.6-.7h0s-2.5,0-2.5,0v-.7h3.6v.5s-2.1,2.7-2.1,2.7c-.2.3-.4.5-.6.7h0s2.8,0,2.8,0v.7h-3.8v-.5Z"/>
        <path d="M475.2,177.3c0,1.7-1.2,2.5-2.3,2.5s-2.3-.9-2.3-2.4,1-2.5,2.3-2.5,2.3,1,2.3,2.4ZM471.5,177.3c0,1,.6,1.8,1.4,1.8s1.4-.8,1.4-1.8-.4-1.8-1.4-1.8-1.4.9-1.4,1.8ZM472,174.1c-.3,0-.5-.2-.5-.5s.2-.5.5-.5.5.2.5.5-.2.5-.5.5h0ZM473.8,174.1c-.3,0-.5-.2-.5-.5s.2-.5.5-.5.5.2.5.5-.2.5-.5.5h0Z"/>
        <path d="M476.6,175l.9,2.6c.2.4.3.8.4,1.2h0c.1-.4.2-.8.4-1.2l.9-2.6h.9l-1.8,4.7h-.8l-1.8-4.7h.9Z"/>
        <path d="M481.3,177.5c0,1.2.8,1.6,1.6,1.6s1-.1,1.3-.2v.6c-.2.1-.7.3-1.4.3-1.4,0-2.3-1-2.3-2.4s.8-2.5,2.2-2.5,1.9,1.4,1.9,2.2,0,.3,0,.4h-3.3ZM483.8,176.9c0-.5-.2-1.4-1.2-1.4s-1.2.8-1.3,1.4h2.5Z"/>
        <path d="M489.7,179c0,1.1-.2,1.7-.7,2.1-.5.4-1.1.6-1.7.6s-1.2-.1-1.6-.4l.2-.7c.3.2.8.4,1.4.4.9,0,1.5-.5,1.5-1.6v-.5h0c-.3.4-.8.8-1.5.8-1.2,0-2-1-2-2.3s1-2.5,2.1-2.5,1.3.4,1.5.8h0v-.7h.8c0,.3,0,.7,0,1.3v2.7ZM488.8,176.8c0-.1,0-.3,0-.4-.2-.5-.6-.9-1.2-.9s-1.4.7-1.4,1.8.5,1.7,1.4,1.7,1-.3,1.2-.9c0-.1,0-.3,0-.5v-.8Z"/>
        <path d="M490.4,180.9c.2-.6.5-1.6.6-2.3h1c-.2.7-.7,1.8-.9,2.3h-.6Z"/>
        <path d="M495,172.8h.9v2.9h0c.1-.2.3-.5.6-.6.3-.1.6-.2.9-.2.6,0,1.6.4,1.6,2v2.8h-.9v-2.7c0-.8-.3-1.4-1.1-1.4s-1,.4-1.1.9c0,.1,0,.2,0,.4v2.8h-.9v-6.9Z"/>
        <path d="M504.7,177.3c0,1.7-1.2,2.5-2.3,2.5s-2.3-.9-2.3-2.4,1-2.5,2.3-2.5,2.3,1,2.3,2.4ZM500.9,177.3c0,1,.6,1.8,1.4,1.8s1.4-.8,1.4-1.8-.4-1.8-1.4-1.8-1.4.9-1.4,1.8Z"/>
        <path d="M509.8,179c0,1.1-.2,1.7-.7,2.1-.5.4-1.1.6-1.7.6s-1.2-.1-1.6-.4l.2-.7c.3.2.8.4,1.4.4.9,0,1.5-.5,1.5-1.6v-.5h0c-.3.4-.8.8-1.5.8-1.2,0-2-1-2-2.3s1-2.5,2.1-2.5,1.3.4,1.5.8h0v-.7h.8c0,.3,0,.7,0,1.3v2.7ZM508.9,176.8c0-.1,0-.3,0-.4-.2-.5-.6-.9-1.2-.9s-1.4.7-1.4,1.8.5,1.7,1.4,1.7,1-.3,1.2-.9c0-.1,0-.3,0-.5v-.8Z"/>
        <path d="M511.5,175l1,2.8c.1.3.2.7.3,1h0c0-.3.2-.6.3-1l.9-2.8h.9l-1.3,3.4c-.6,1.6-1,2.4-1.6,2.9-.4.4-.8.5-1,.6l-.2-.7c.2,0,.5-.2.7-.4.2-.2.5-.5.7-1,0,0,0-.2,0-.2s0-.1,0-.2l-1.7-4.3h.9Z"/>
        <path d="M517.8,176.2c0-.5,0-.9,0-1.3h.7v.8h0c.3-.4.7-.9,1.5-.9s1.1.4,1.3.9h0c.1-.3.3-.5.5-.6.3-.2.6-.3,1-.3s1.5.4,1.5,2v2.8h-.8v-2.7c0-.9-.3-1.4-1-1.4s-.9.4-1,.8c0,.1,0,.3,0,.4v2.9h-.8v-2.8c0-.7-.3-1.3-1-1.3s-.9.4-1.1.9c0,.1,0,.3,0,.4v2.8h-.8v-3.4Z"/>
        <path d="M526.9,173.6c0,.3-.2.5-.5.5s-.5-.2-.5-.5.2-.5.5-.5.5.2.5.5ZM525.9,179.7v-4.7h.9v4.7h-.9Z"/>
        <path d="M533.6,178.5c0,.4,0,.8,0,1.1h-.8v-.6h0c-.3.4-.8.7-1.4.7-1,0-1.4-.7-1.4-1.4,0-1.1,1-1.8,2.8-1.7h0c0-.5-.1-1.2-1.1-1.2s-.9.1-1.2.4l-.2-.6c.4-.3,1-.4,1.5-.4,1.4,0,1.8,1,1.8,1.9v1.8ZM532.7,177.3c-.9,0-2,.1-2,1.1s.4.8.8.8,1-.4,1.1-.8c0,0,0-.2,0-.3v-.8Z"/>
        <path d="M537,176.5c0-.6,0-1.1,0-1.5h.8v.8h0c.3-.6.9-.9,1.7-.9,1.1,0,2,1,2,2.4s-1,2.5-2.1,2.5-1.2-.3-1.4-.7h0v2.6h-.8v-5.1ZM537.9,177.8c0,.1,0,.2,0,.4.2.6.7,1,1.3,1,.9,0,1.4-.7,1.4-1.8s-.5-1.7-1.4-1.7-1.1.4-1.3,1.1c0,.1,0,.2,0,.3v.8Z"/>
        <path d="M542.5,176.4c0-.6,0-1,0-1.5h.7v.9h0c.2-.6.7-1,1.3-1s.2,0,.2,0v.8c0,0-.2,0-.3,0-.6,0-1,.5-1.1,1.1,0,.1,0,.3,0,.4v2.5h-.8v-3.2Z"/>
        <path d="M549.9,177.3c0,1.7-1.2,2.5-2.3,2.5s-2.3-.9-2.3-2.4,1-2.5,2.3-2.5,2.3,1,2.3,2.4ZM546.1,177.3c0,1,.6,1.8,1.4,1.8s1.4-.8,1.4-1.8-.4-1.8-1.4-1.8-1.4.9-1.4,1.8Z"/>
        <path d="M551,172.8h.8v3h0c.3-.5.8-.9,1.6-.9,1.2,0,2,1,2,2.4,0,1.7-1.1,2.5-2.1,2.5s-1.2-.3-1.6-.9h0v.8h-.8c0-.3,0-.8,0-1.2v-5.7ZM551.8,177.8c0,.1,0,.2,0,.3.2.6.7,1,1.3,1,.9,0,1.4-.7,1.4-1.8s-.5-1.7-1.4-1.7-1.1.4-1.3,1c0,0,0,.2,0,.3v.8Z"/>
        <path d="M556.5,172.8h.9v6.9h-.9v-6.9Z"/>
        <path d="M559.3,177.5c0,1.2.8,1.6,1.6,1.6s1-.1,1.3-.2v.6c-.2.1-.7.3-1.4.3-1.4,0-2.3-1-2.3-2.4s.8-2.5,2.2-2.5,1.9,1.4,1.9,2.2,0,.3,0,.4h-3.3ZM561.8,176.9c0-.5-.2-1.4-1.2-1.4s-1.2.8-1.3,1.4h2.5ZM562,172.9l-1.2,1.4h-.6l.9-1.4h.9Z"/>
        <path d="M563.6,176.2c0-.5,0-.9,0-1.3h.7v.8h0c.3-.4.7-.9,1.5-.9s1.1.4,1.3.9h0c.1-.3.3-.5.5-.6.3-.2.6-.3,1-.3s1.5.4,1.5,2v2.8h-.8v-2.7c0-.9-.3-1.4-1-1.4s-.9.4-1,.8c0,.1,0,.3,0,.4v2.9h-.8v-2.8c0-.7-.3-1.3-1-1.3s-.9.4-1.1.9c0,.1,0,.3,0,.4v2.8h-.8v-3.4Z"/>
        <path d="M575.1,178.5c0,.4,0,.8,0,1.1h-.8v-.6h0c-.3.4-.8.7-1.4.7-1,0-1.4-.7-1.4-1.4,0-1.1,1-1.8,2.8-1.7h0c0-.5-.1-1.2-1.1-1.2s-.9.1-1.2.4l-.2-.6c.4-.3,1-.4,1.5-.4,1.4,0,1.8,1,1.8,1.9v1.8ZM574.2,177.3c-.9,0-2,.1-2,1.1s.4.8.8.8,1-.4,1.1-.8c0,0,0-.2,0-.3v-.8Z"/>
        <path d="M575.9,180.9c.2-.6.5-1.6.6-2.3h1c-.2.7-.7,1.8-.9,2.3h-.6Z"/>
        <path d="M448.8,189.1c0,1.2.8,1.6,1.6,1.6s1-.1,1.3-.2v.6c-.2.1-.7.3-1.4.3-1.4,0-2.3-1-2.3-2.4s.8-2.5,2.2-2.5,1.9,1.4,1.9,2.2,0,.3,0,.4h-3.3ZM451.3,188.5c0-.5-.2-1.4-1.2-1.4s-1.2.8-1.3,1.4h2.5ZM451.5,184.6l-1.2,1.4h-.6l.9-1.4h.9Z"/>
        <path d="M453,190.5c.3.2.7.3,1.1.3.6,0,.9-.3.9-.7s-.2-.6-.9-.9c-.8-.3-1.2-.8-1.2-1.3s.6-1.4,1.6-1.4.9.1,1.2.3l-.2.6c-.2-.1-.5-.3-1-.3s-.8.3-.8.6.3.6.9.8c.8.3,1.2.7,1.2,1.4s-.6,1.4-1.8,1.4-1-.1-1.3-.3l.2-.7Z"/>
        <path d="M459.5,189.1c0,1.2.8,1.6,1.6,1.6s1-.1,1.3-.2v.6c-.2.1-.7.3-1.4.3-1.4,0-2.3-1-2.3-2.4s.8-2.5,2.2-2.5,1.9,1.4,1.9,2.2,0,.3,0,.4h-3.3ZM462.1,188.5c0-.5-.2-1.4-1.2-1.4s-1.2.8-1.3,1.4h2.5Z"/>
        <path d="M463.9,188.1c0-.6,0-1,0-1.5h.7v.9h0c.2-.6.7-1,1.3-1s.2,0,.2,0v.8c0,0-.2,0-.3,0-.6,0-1,.5-1.1,1.1,0,.1,0,.3,0,.4v2.5h-.8v-3.2Z"/>
        <path d="M467.2,188.1c0-.6,0-1,0-1.5h.7v.9h0c.2-.6.7-1,1.3-1s.2,0,.2,0v.8c0,0-.2,0-.3,0-.6,0-1,.5-1.1,1.1,0,.1,0,.3,0,.4v2.5h-.8v-3.2Z"/>
        <path d="M470.7,189.1c0,1.2.8,1.6,1.6,1.6s1-.1,1.3-.2v.6c-.2.1-.7.3-1.4.3-1.4,0-2.3-1-2.3-2.4s.8-2.5,2.2-2.5,1.9,1.4,1.9,2.2,0,.3,0,.4h-3.3ZM473.2,188.5c0-.5-.2-1.4-1.2-1.4s-1.2.8-1.3,1.4h2.5Z"/>
        <path d="M480.5,190.2c0,.4,0,.8,0,1.1h-.8v-.6h0c-.3.4-.8.7-1.4.7-1,0-1.4-.7-1.4-1.4,0-1.1,1-1.8,2.8-1.7h0c0-.5-.1-1.2-1.1-1.2s-.9.1-1.2.4l-.2-.6c.4-.3,1-.4,1.5-.4,1.4,0,1.8,1,1.8,1.9v1.8ZM479.6,188.9c-.9,0-2,.1-2,1.1s.4.8.8.8,1-.4,1.1-.8c0,0,0-.2,0-.3v-.8Z"/>
        <path d="M483.9,187.9c0-.5,0-.9,0-1.3h.7v.8h0c.3-.4.7-.9,1.5-.9s1.1.4,1.3.9h0c.1-.3.3-.5.5-.6.3-.2.6-.3,1-.3s1.5.4,1.5,2v2.8h-.8v-2.7c0-.9-.3-1.4-1-1.4s-.9.4-1,.8c0,.1,0,.3,0,.4v2.9h-.8v-2.8c0-.7-.3-1.3-1-1.3s-.9.4-1.1.9c0,.1,0,.3,0,.4v2.8h-.8v-3.4Z"/>
        <path d="M492.5,189.1c0,1.2.8,1.6,1.6,1.6s1-.1,1.3-.2v.6c-.2.1-.7.3-1.4.3-1.4,0-2.3-1-2.3-2.4s.8-2.5,2.2-2.5,1.9,1.4,1.9,2.2,0,.3,0,.4h-3.3ZM495,188.5c0-.5-.2-1.4-1.2-1.4s-1.2.8-1.3,1.4h2.5Z"/>
        <path d="M500.9,190.7c0,1.1-.2,1.7-.7,2.1-.5.4-1.1.6-1.7.6s-1.2-.1-1.6-.4l.2-.7c.3.2.8.4,1.4.4.9,0,1.5-.5,1.5-1.6v-.5h0c-.3.4-.8.8-1.5.8-1.2,0-2-1-2-2.3s1-2.5,2.1-2.5,1.3.4,1.5.8h0v-.7h.8c0,.3,0,.7,0,1.3v2.7ZM500,188.5c0-.1,0-.3,0-.4-.2-.5-.6-.9-1.2-.9s-1.4.7-1.4,1.8.5,1.7,1.4,1.7,1-.3,1.2-.9c0-.1,0-.3,0-.5v-.8Z"/>
        <path d="M506.6,188.9c0,1.7-1.2,2.5-2.3,2.5s-2.3-.9-2.3-2.4,1-2.5,2.3-2.5,2.3,1,2.3,2.4ZM502.8,189c0,1,.6,1.8,1.4,1.8s1.4-.8,1.4-1.8-.4-1.8-1.4-1.8-1.4.9-1.4,1.8Z"/>
        <path d="M507.6,184.4h.9v6.9h-.9v-6.9Z"/>
        <path d="M514,184.4v5.7c0,.4,0,.9,0,1.2h-.8v-.8h0c-.3.5-.8.9-1.6.9-1.1,0-2-1-2-2.4,0-1.6,1-2.5,2.1-2.5s1.2.3,1.4.7h0v-2.8h.9ZM513.1,188.5c0-.1,0-.3,0-.4-.1-.5-.6-1-1.2-1s-1.4.8-1.4,1.8.5,1.7,1.4,1.7,1.1-.4,1.3-1c0-.1,0-.2,0-.4v-.8Z"/>
        <path d="M518.7,190.2c0,.4,0,.8,0,1.1h-.8v-.6h0c-.3.4-.8.7-1.4.7-1,0-1.4-.7-1.4-1.4,0-1.1,1-1.8,2.8-1.7h0c0-.5-.1-1.2-1.1-1.2s-.9.1-1.2.4l-.2-.6c.4-.3,1-.4,1.5-.4,1.4,0,1.8,1,1.8,1.9v1.8ZM517.9,188.9c-.9,0-2,.1-2,1.1s.4.8.8.8,1-.4,1.1-.8c0,0,0-.2,0-.3v-.8ZM518.3,184.6l-1.2,1.4h-.6l.9-1.4h.9Z"/>
        <path d="M520,190.5c.3.2.7.3,1.1.3.6,0,.9-.3.9-.7s-.2-.6-.9-.9c-.8-.3-1.2-.8-1.2-1.3s.6-1.4,1.6-1.4.9.1,1.2.3l-.2.6c-.2-.1-.5-.3-1-.3s-.8.3-.8.6.3.6.9.8c.8.3,1.2.7,1.2,1.4s-.6,1.4-1.8,1.4-1-.1-1.3-.3l.2-.7Z"/>
        <path d="M523.3,192.5c.2-.6.5-1.6.6-2.3h1c-.2.7-.7,1.8-.9,2.3h-.6Z"/>
        <path d="M528.2,186.6l.9,2.6c.2.4.3.8.4,1.2h0c.1-.4.2-.8.4-1.2l.9-2.6h.9l-1.8,4.7h-.8l-1.8-4.7h.9Z"/>
        <path d="M535.9,190.2c0,.4,0,.8,0,1.1h-.8v-.6h0c-.3.4-.8.7-1.4.7-1,0-1.4-.7-1.4-1.4,0-1.1,1-1.8,2.8-1.7h0c0-.5-.1-1.2-1.1-1.2s-.9.1-1.2.4l-.2-.6c.4-.3,1-.4,1.5-.4,1.4,0,1.8,1,1.8,1.9v1.8ZM535,188.9c-.9,0-2,.1-2,1.1s.4.8.8.8,1-.4,1.1-.8c0,0,0-.2,0-.3v-.8Z"/>
        <path d="M541.2,190.7c0,1.1-.2,1.7-.7,2.1-.5.4-1.1.6-1.7.6s-1.2-.1-1.6-.4l.2-.7c.3.2.8.4,1.4.4.9,0,1.5-.5,1.5-1.6v-.5h0c-.3.4-.8.8-1.5.8-1.2,0-2-1-2-2.3s1-2.5,2.1-2.5,1.3.4,1.5.8h0v-.7h.8c0,.3,0,.7,0,1.3v2.7ZM540.4,188.5c0-.1,0-.3,0-.4-.2-.5-.6-.9-1.2-.9s-1.4.7-1.4,1.8.5,1.7,1.4,1.7,1-.3,1.2-.9c0-.1,0-.3,0-.5v-.8Z"/>
        <path d="M543,186.6l1,2.8c.1.3.2.7.3,1h0c0-.3.2-.6.3-1l.9-2.8h.9l-1.3,3.4c-.6,1.6-1,2.4-1.6,2.9-.4.4-.8.5-1,.6l-.2-.7c.2,0,.5-.2.7-.4.2-.2.5-.5.7-1,0,0,0-.2,0-.2s0-.1,0-.2l-1.7-4.3h.9Z"/>
        <path d="M552.7,191.2c-.2.1-.7.3-1.4.3-1.4,0-2.3-1-2.3-2.4s1-2.5,2.5-2.5,1,.1,1.2.2l-.2.7c-.2-.1-.5-.2-1-.2-1.1,0-1.7.8-1.7,1.8s.7,1.8,1.6,1.8.8-.1,1-.2v.6Z"/>
        <path d="M553.5,190.5c.3.2.7.3,1.1.3.6,0,.9-.3.9-.7s-.2-.6-.9-.9c-.8-.3-1.2-.8-1.2-1.3s.6-1.4,1.6-1.4.9.1,1.2.3l-.2.6c-.2-.1-.5-.3-1-.3s-.8.3-.8.6.3.6.9.8c.8.3,1.2.7,1.2,1.4s-.6,1.4-1.8,1.4-1-.1-1.3-.3l.2-.7Z"/>
        <path d="M560.8,190.2c0,.4,0,.8,0,1.1h-.8v-.6h0c-.3.4-.8.7-1.4.7-1,0-1.4-.7-1.4-1.4,0-1.1,1-1.8,2.8-1.7h0c0-.5-.1-1.2-1.1-1.2s-.9.1-1.2.4l-.2-.6c.4-.3,1-.4,1.5-.4,1.4,0,1.8,1,1.8,1.9v1.8ZM560,188.9c-.9,0-2,.1-2,1.1s.4.8.8.8,1-.4,1.1-.8c0,0,0-.2,0-.3v-.8Z"/>
        <path d="M563,188.8h0c.1-.2.3-.4.4-.5l1.4-1.6h1l-1.8,1.9,2.1,2.8h-1l-1.6-2.3-.4.5v1.8h-.8v-6.9h.8v4.4Z"/>
        <path d="M574.2,190.2c0,.4,0,.8,0,1.1h-.8v-.6h0c-.3.4-.8.7-1.4.7-1,0-1.4-.7-1.4-1.4,0-1.1,1-1.8,2.8-1.7h0c0-.5-.1-1.2-1.1-1.2s-.9.1-1.2.4l-.2-.6c.4-.3,1-.4,1.5-.4,1.4,0,1.8,1,1.8,1.9v1.8ZM573.3,188.9c-.9,0-2,.1-2,1.1s.4.8.8.8,1-.4,1.1-.8c0,0,0-.2,0-.3v-.8Z"/>
        <path d="M575.5,187.9c0-.5,0-.9,0-1.3h.7v.8h0c.3-.4.7-.9,1.5-.9s1.1.4,1.3.9h0c.1-.3.3-.5.5-.6.3-.2.6-.3,1-.3s1.5.4,1.5,2v2.8h-.8v-2.7c0-.9-.3-1.4-1-1.4s-.9.4-1,.8c0,.1,0,.3,0,.4v2.9h-.8v-2.8c0-.7-.3-1.3-1-1.3s-.9.4-1.1.9c0,.1,0,.3,0,.4v2.8h-.8v-3.4Z"/>
        <path d="M584.1,189.1c0,1.2.8,1.6,1.6,1.6s1-.1,1.3-.2v.6c-.2.1-.7.3-1.4.3-1.4,0-2.3-1-2.3-2.4s.8-2.5,2.2-2.5,1.9,1.4,1.9,2.2,0,.3,0,.4h-3.3ZM586.6,188.5c0-.5-.2-1.4-1.2-1.4s-1.2.8-1.3,1.4h2.5Z"/>
        <path d="M592.5,190.7c0,1.1-.2,1.7-.7,2.1-.5.4-1.1.6-1.7.6s-1.2-.1-1.6-.4l.2-.7c.3.2.8.4,1.4.4.9,0,1.5-.5,1.5-1.6v-.5h0c-.3.4-.8.8-1.5.8-1.2,0-2-1-2-2.3s1-2.5,2.1-2.5,1.3.4,1.5.8h0v-.7h.8c0,.3,0,.7,0,1.3v2.7ZM591.7,188.5c0-.1,0-.3,0-.4-.2-.5-.6-.9-1.2-.9s-1.4.7-1.4,1.8.5,1.7,1.4,1.7,1-.3,1.2-.9c0-.1,0-.3,0-.5v-.8Z"/>
        <path d="M598.2,188.9c0,1.7-1.2,2.5-2.3,2.5s-2.3-.9-2.3-2.4,1-2.5,2.3-2.5,2.3,1,2.3,2.4ZM594.5,189c0,1,.6,1.8,1.4,1.8s1.4-.8,1.4-1.8-.4-1.8-1.4-1.8-1.4.9-1.4,1.8Z"/>
        <path d="M599.3,184.4h.9v6.9h-.9v-6.9Z"/>
        <path d="M605.6,184.4v5.7c0,.4,0,.9,0,1.2h-.8v-.8h0c-.3.5-.8.9-1.6.9-1.1,0-2-1-2-2.4,0-1.6,1-2.5,2.1-2.5s1.2.3,1.4.7h0v-2.8h.9ZM604.8,188.5c0-.1,0-.3,0-.4-.1-.5-.6-1-1.2-1s-1.4.8-1.4,1.8.5,1.7,1.4,1.7,1.1-.4,1.3-1c0-.1,0-.2,0-.4v-.8Z"/>
        <path d="M610.4,190.2c0,.4,0,.8,0,1.1h-.8v-.6h0c-.3.4-.8.7-1.4.7-1,0-1.4-.7-1.4-1.4,0-1.1,1-1.8,2.8-1.7h0c0-.5-.1-1.2-1.1-1.2s-.9.1-1.2.4l-.2-.6c.4-.3,1-.4,1.5-.4,1.4,0,1.8,1,1.8,1.9v1.8ZM609.5,188.9c-.9,0-2,.1-2,1.1s.4.8.8.8,1-.4,1.1-.8c0,0,0-.2,0-.3v-.8ZM610,184.6l-1.2,1.4h-.6l.9-1.4h.9Z"/>
        <path d="M611.6,190.5c.3.2.7.3,1.1.3.6,0,.9-.3.9-.7s-.2-.6-.9-.9c-.8-.3-1.2-.8-1.2-1.3s.6-1.4,1.6-1.4.9.1,1.2.3l-.2.6c-.2-.1-.5-.3-1-.3s-.8.3-.8.6.3.6.9.8c.8.3,1.2.7,1.2,1.4s-.6,1.4-1.8,1.4-1-.1-1.3-.3l.2-.7Z"/>
        <path d="M614.9,192.5c.2-.6.5-1.6.6-2.3h1c-.2.7-.7,1.8-.9,2.3h-.6Z"/>
        <path d="M448.6,198.3l.9,2.6c.2.4.3.8.4,1.2h0c.1-.4.2-.8.4-1.2l.9-2.6h.9l-1.8,4.7h-.8l-1.8-4.7h.9Z"/>
        <path d="M456.2,201.9c0,.4,0,.8,0,1.1h-.8v-.6h0c-.3.4-.8.7-1.4.7-1,0-1.4-.7-1.4-1.4,0-1.1,1-1.8,2.8-1.7h0c0-.5-.1-1.2-1.1-1.2s-.9.1-1.2.4l-.2-.6c.4-.3,1-.4,1.5-.4,1.4,0,1.8,1,1.8,1.9v1.8ZM455.4,200.6c-.9,0-2,.1-2,1.1s.4.8.8.8,1-.4,1.1-.8c0,0,0-.2,0-.3v-.8Z"/>
        <path d="M461.6,202.3c0,1.1-.2,1.7-.7,2.1-.5.4-1.1.6-1.7.6s-1.2-.1-1.6-.4l.2-.7c.3.2.8.4,1.4.4.9,0,1.5-.5,1.5-1.6v-.5h0c-.3.4-.8.8-1.5.8-1.2,0-2-1-2-2.3s1-2.5,2.1-2.5,1.3.4,1.5.8h0v-.7h.8c0,.3,0,.7,0,1.3v2.7ZM460.8,200.1c0-.1,0-.3,0-.4-.2-.5-.6-.9-1.2-.9s-1.4.7-1.4,1.8.5,1.7,1.4,1.7,1-.3,1.2-.9c0-.1,0-.3,0-.5v-.8Z"/>
        <path d="M463.4,198.3l1,2.8c.1.3.2.7.3,1h0c0-.3.2-.6.3-1l.9-2.8h.9l-1.3,3.4c-.6,1.6-1,2.4-1.6,2.9-.4.4-.8.5-1,.6l-.2-.7c.2,0,.5-.2.7-.4.2-.2.5-.5.7-1,0,0,0-.2,0-.2s0-.1,0-.2l-1.7-4.3h.9Z"/>
        <path d="M473,202.8c-.2.1-.7.3-1.4.3-1.4,0-2.3-1-2.3-2.4s1-2.5,2.5-2.5,1,.1,1.2.2l-.2.7c-.2-.1-.5-.2-1-.2-1.1,0-1.7.8-1.7,1.8s.7,1.8,1.6,1.8.8-.1,1-.2v.6Z"/>
        <path d="M473.9,202.1c.3.2.7.3,1.1.3.6,0,.9-.3.9-.7s-.2-.6-.9-.9c-.8-.3-1.2-.8-1.2-1.3s.6-1.4,1.6-1.4.9.1,1.2.3l-.2.6c-.2-.1-.5-.3-1-.3s-.8.3-.8.6.3.6.9.8c.8.3,1.2.7,1.2,1.4s-.6,1.4-1.8,1.4-1-.1-1.3-.3l.2-.7Z"/>
        <path d="M481.2,201.9c0,.4,0,.8,0,1.1h-.8v-.6h0c-.3.4-.8.7-1.4.7-1,0-1.4-.7-1.4-1.4,0-1.1,1-1.8,2.8-1.7h0c0-.5-.1-1.2-1.1-1.2s-.9.1-1.2.4l-.2-.6c.4-.3,1-.4,1.5-.4,1.4,0,1.8,1,1.8,1.9v1.8ZM480.4,200.6c-.9,0-2,.1-2,1.1s.4.8.8.8,1-.4,1.1-.8c0,0,0-.2,0-.3v-.8Z"/>
        <path d="M483.4,200.4h0c.1-.2.3-.4.4-.5l1.4-1.6h1l-1.8,1.9,2.1,2.8h-1l-1.6-2.3-.4.5v1.8h-.8v-6.9h.8v4.4Z"/>
        <path d="M490,200.4h0c.1-.2.3-.4.4-.5l1.4-1.6h1l-1.8,1.9,2.1,2.8h-1l-1.6-2.3-.4.5v1.8h-.8v-6.9h.8v4.4Z"/>
        <path d="M494.2,200.8c0,1.2.8,1.6,1.6,1.6s1-.1,1.3-.2v.6c-.2.1-.7.3-1.4.3-1.4,0-2.3-1-2.3-2.4s.8-2.5,2.2-2.5,1.9,1.4,1.9,2.2,0,.3,0,.4h-3.3ZM496.7,200.2c0-.5-.2-1.4-1.2-1.4s-1.2.8-1.3,1.4h2.5ZM496.9,196.3l-1.2,1.4h-.6l.9-1.4h.9Z"/>
        <path d="M498.6,199.8c0-.6,0-1,0-1.5h.7v.9h0c.2-.6.7-1,1.3-1s.2,0,.2,0v.8c0,0-.2,0-.3,0-.6,0-1,.5-1.1,1.1,0,.1,0,.3,0,.4v2.5h-.8v-3.2Z"/>
        <path d="M505.8,196.1v5.7c0,.4,0,.9,0,1.2h-.8v-.8h0c-.3.5-.8.9-1.6.9-1.1,0-2-1-2-2.4,0-1.6,1-2.5,2.1-2.5s1.2.3,1.4.7h0v-2.8h.9ZM504.9,200.2c0-.1,0-.3,0-.4-.1-.5-.6-1-1.2-1s-1.4.8-1.4,1.8.5,1.7,1.4,1.7,1.1-.4,1.3-1c0-.1,0-.2,0-.4v-.8Z"/>
        <path d="M507.6,200.8c0,1.2.8,1.6,1.6,1.6s1-.1,1.3-.2v.6c-.2.1-.7.3-1.4.3-1.4,0-2.3-1-2.3-2.4s.8-2.5,2.2-2.5,1.9,1.4,1.9,2.2,0,.3,0,.4h-3.3ZM510.2,200.2c0-.5-.2-1.4-1.2-1.4s-1.2.8-1.3,1.4h2.5ZM510.4,196.3l-1.2,1.4h-.6l.9-1.4h.9Z"/>
        <path d="M511.9,202.1c.3.2.7.3,1.1.3.6,0,.9-.3.9-.7s-.2-.6-.9-.9c-.8-.3-1.2-.8-1.2-1.3s.6-1.4,1.6-1.4.9.1,1.2.3l-.2.6c-.2-.1-.5-.3-1-.3s-.8.3-.8.6.3.6.9.8c.8.3,1.2.7,1.2,1.4s-.6,1.4-1.8,1.4-1-.1-1.3-.3l.2-.7Z"/>
        <path d="M515.2,204.2c.2-.6.5-1.6.6-2.3h1c-.2.7-.7,1.8-.9,2.3h-.6Z"/>
        <path d="M519.7,202.1c.3.2.7.3,1.1.3.6,0,.9-.3.9-.7s-.2-.6-.9-.9c-.8-.3-1.2-.8-1.2-1.3s.6-1.4,1.6-1.4.9.1,1.2.3l-.2.6c-.2-.1-.5-.3-1-.3s-.8.3-.8.6.3.6.9.8c.8.3,1.2.7,1.2,1.4s-.6,1.4-1.8,1.4-1-.1-1.3-.3l.2-.7Z"/>
        <path d="M524.7,197.2v1.1h1.2v.7h-1.2v2.5c0,.6.2.9.6.9s.4,0,.5,0v.6c-.1,0-.4.1-.7.1s-.7-.1-.9-.4c-.2-.3-.3-.7-.3-1.2v-2.6h-.7v-.7h.7v-.9l.8-.3Z"/>
        <path d="M526.9,196.1h.8v3h0c.3-.5.8-.9,1.6-.9,1.2,0,2,1,2,2.4,0,1.7-1.1,2.5-2.1,2.5s-1.2-.3-1.6-.9h0v.8h-.8c0-.3,0-.8,0-1.2v-5.7ZM527.8,201.1c0,.1,0,.2,0,.3.2.6.7,1,1.3,1,.9,0,1.4-.7,1.4-1.8s-.5-1.7-1.4-1.7-1.1.4-1.3,1c0,0,0,.2,0,.3v.8Z"/>
        <path d="M532.6,203.1c-.3,0-.6-.3-.6-.6s.2-.6.6-.6.6.3.6.6-.2.6-.6.6h0Z"/>
        <path d="M537.2,197c0,.3-.2.5-.5.5s-.5-.2-.5-.5.2-.5.5-.5.5.2.5.5ZM536.3,203v-4.7h.9v4.7h-.9Z"/>
        <path d="M538.6,196.1h.9v6.9h-.9v-6.9Z"/>
        <path d="M541.2,198.3l1,2.8c.1.3.2.7.3,1h0c0-.3.2-.6.3-1l.9-2.8h.9l-1.3,3.4c-.6,1.6-1,2.4-1.6,2.9-.4.4-.8.5-1,.6l-.2-.7c.2,0,.5-.2.7-.4.2-.2.5-.5.7-1,0,0,0-.2,0-.2s0-.1,0-.2l-1.7-4.3h.9Z"/>
        <path d="M545.8,200.8c0,1.2.8,1.6,1.6,1.6s1-.1,1.3-.2v.6c-.2.1-.7.3-1.4.3-1.4,0-2.3-1-2.3-2.4s.8-2.5,2.2-2.5,1.9,1.4,1.9,2.2,0,.3,0,.4h-3.3ZM548.3,200.2c0-.5-.2-1.4-1.2-1.4s-1.2.8-1.3,1.4h2.5Z"/>
        <path d="M550.1,202.1c.3.2.7.3,1.1.3.6,0,.9-.3.9-.7s-.2-.6-.9-.9c-.8-.3-1.2-.8-1.2-1.3s.6-1.4,1.6-1.4.9.1,1.2.3l-.2.6c-.2-.1-.5-.3-1-.3s-.8.3-.8.6.3.6.9.8c.8.3,1.2.7,1.2,1.4s-.6,1.4-1.8,1.4-1-.1-1.3-.3l.2-.7Z"/>
        <path d="M554,199.6c0-.5,0-.9,0-1.3h.7v.8h0c.3-.4.7-.9,1.5-.9s1.1.4,1.3.9h0c.1-.3.3-.5.5-.6.3-.2.6-.3,1-.3s1.5.4,1.5,2v2.8h-.8v-2.7c0-.9-.3-1.4-1-1.4s-.9.4-1,.8c0,.1,0,.3,0,.4v2.9h-.8v-2.8c0-.7-.3-1.3-1-1.3s-.9.4-1.1.9c0,.1,0,.3,0,.4v2.8h-.8v-3.4Z"/>
        <path d="M563.1,197c0,.3-.2.5-.5.5s-.5-.2-.5-.5.2-.5.5-.5.5.2.5.5ZM562.1,203v-4.7h.9v4.7h-.9Z"/>
      </g>
      <g>
        <path class="cls-1" d="M448.2,84c0-3.3-.1-10.1-.2-12.6-.2-3.9-.4-4.2-.4-4.2.6-.2,1.2-.4,1.8-.4,1.8,0,3.5.9,3.5,2.5,0,4.6-.2,8.3-.2,11.3,0,5.1,0,7.9,0,11.8l7.3-.2c2.6,0,4.3-.4,5.3-.9,0,.4,0,.8,0,1.1,0,2.5-.9,2.8-3.8,2.8l-13.9-.2s.4-1.1.4-11Z"/>
        <path class="cls-1" d="M478.1,74.6c6.7,0,10.1,4.6,10.1,9.5s-3.7,11.6-10.5,11.6-10.1-4.9-10.1-10,3.6-11,10.5-11ZM478.1,93.8c3.5,0,5.2-4.5,5.2-9.1s-1.9-8.3-5.7-8.3-5.2,4.2-5.2,8.5,1.9,8.9,5.6,8.9Z"/>
        <path class="cls-1" d="M493.3,85.5c0-8.1-.8-10.2-1-10.3.7-.2,1.3-.4,1.9-.4,1.8,0,3.2.9,3.2,2.5s-.3,1.5-.3,1.5h.2c1.1-2.5,3.9-4,6-4s1.9.7,1.9,1.5-.2,2-.5,2.8h-.2c-1.3-.6-2.3-1-3.2-1-3.1,0-4,3.2-4,7.6,0,7.8.8,9.3.9,9.3-1,.2-1.9.4-2.8.4-1.5,0-2.5-.6-2.5-3.1s.2-4.7.2-6.9Z"/>
        <path class="cls-1" d="M516.7,74.6c5.2,0,7.3,3,7.3,5.7,0,4-4.2,5.4-7.7,5.4s-4.4-1.1-4.4-1.1h-.2c0,4.8,2.2,8.1,6.3,8.1s6.2-2.3,6.2-2.3l.2.2s-1.4,5-8,5-9.3-4.2-9.3-10,3.6-11,9.4-11ZM515.5,83.7c1.8,0,3.7-1,3.7-3.5s-.8-3.8-3.1-3.8-4.3,4.8-4.3,6.3,2,1,3.7,1Z"/>
        <path class="cls-1" d="M529.6,85.3c0-2,0-4.1-.2-6-.2-3.9-.8-4.2-.8-4.2.7-.2,1.3-.4,1.9-.4,1.8,0,3.1,1,3.1,2.2s-.2,1-.2,1h.2c.8-1.9,3.6-3.2,6.2-3.2,3.7,0,5.2,1.4,5.4,3.2h.2c.9-1.9,3.7-3.2,6.3-3.2,5.2,0,5.8,2.7,5.8,5.5s-.2,5.5-.2,8.9,0,4.2,2,4.2,1.5-.6,1.5-.6h.2c0,.1-1,2.6-4.4,2.6s-3.6-.8-3.6-3.2c0-3.4.1-5.8.1-9.9s0-5.2-3.4-5.2-4.2,5.1-4.2,7,0,6.9,0,7.1c0,2.8-.9,3.4-1.5,4.1-1.4-.2-2.9-.3-2.9-3.1s.1-6,.1-10,0-5.2-3.5-5.2-4,1.9-4,5.5.2,6.3.2,10-1.1,2.7-2.5,2.7-1.9-.2-2.8-.4c.3-.1,1-2.6,1-9.7Z"/>
        <path class="cls-1" d="M574.8,80.4c0-3.3,0-6.5-.2-9-.2-3.9-.4-4.2-.4-4.2.7-.2,1.5-.4,2.2-.4,1.8,0,3.1.9,3.1,2.5,0,3.5-.2,6.7-.2,10,0,5.2,0,10.3.7,15.6-1,.2-1.8.4-2.7.4-1.4,0-2.6-.6-2.6-2.7v-12.2Z"/>
        <path class="cls-1" d="M586.9,85.5c0-3.7-.1-8.2-.9-10.3.7-.2,1.3-.4,1.9-.4,1.8,0,3.2,1,3.2,2.2s0,.5,0,.7h.2c0,0,1.5-3.1,6.4-3.1s7.3,4,7.3,9.1-3.8,11.8-11.7,11.8-1.3,0-2-.2c0,.7,0,1.3,0,1.9,0,4.6.7,6.7.7,6.7-1,.2-1.9.4-2.8.4-1.5,0-2.4-.6-2.4-3.1,0-3.9.1-7.8.1-15.7ZM593.9,93.6c4.3,0,6.4-4.6,6.4-9.1s-1.5-7.4-4.3-7.4-4.2,1.8-4.5,4.8c-.2,1.7-.2,3.6-.2,5.4v5c0,1,1.2,1.3,2.7,1.3Z"/>
        <path class="cls-1" d="M609.2,90.6h.2s2.3,2.9,6.2,2.9,3.5-1.4,3.5-2.7c0-4.1-10.3-3.5-10.3-10.2s3.7-5.9,7.3-5.9,6,.6,6,2.2-.7,2.1-1.4,2.9h-.2s-1.9-3.3-5-3.3-3.1,1.3-3.1,3c0,4.1,10.3,3.1,10.3,10.2s-3.9,6.1-7.6,6.1-6.8-1.1-6.8-2.8.5-1.6.8-2.2Z"/>
        <path class="cls-1" d="M627.4,83.9c0-1,0-3-.1-4.9-.1-1.6-.3-3.1-.8-3.8.7-.2,1.3-.4,1.9-.4,1.8,0,3.4,1,3.4,2.5,0,3.3-.1,5.8-.1,9.7s.2,6.1,3.3,6.1,4.8-4.8,4.8-8.3,0-4.8-.2-6.2c-.3-2.7-.7-3.6-.7-3.6.7-.2,1.3-.4,1.9-.4,1.9,0,3.4,1,3.4,2.6,0,3.7-.3,7.4-.3,11.9s.1,4.1,2,4.1,1.5-.6,1.5-.6h.2c0,.1-1,2.6-4.4,2.6s-3.2-.8-3.2-2.8,0-.4,0-.4h-.2s-1.5,3.4-6.4,3.4-6.2-3.1-6.2-6.3,0-3.4,0-5.4Z"/>
        <path class="cls-1" d="M651.7,85.3c0-2,0-4.1-.2-6-.2-3.9-.8-4.2-.8-4.2.7-.2,1.3-.4,1.9-.4,1.8,0,3.1,1,3.1,2.2s-.2,1-.2,1h.2c.8-1.9,3.6-3.2,6.2-3.2,3.7,0,5.2,1.4,5.4,3.2h.2c.9-1.9,3.7-3.2,6.3-3.2,5.2,0,5.8,2.7,5.8,5.5s-.2,5.5-.2,8.9,0,4.2,2,4.2,1.5-.6,1.5-.6h.2c0,.1-1,2.6-4.4,2.6s-3.6-.8-3.6-3.2c0-3.4.1-5.8.1-9.9s0-5.2-3.4-5.2-4.2,5.1-4.2,7,0,6.9,0,7.1c0,2.8-.9,3.4-1.5,4.1-1.4-.2-2.9-.3-2.9-3.1s.1-6,.1-10,0-5.2-3.5-5.2-4,1.9-4,5.5.2,6.3.2,10-1.1,2.7-2.5,2.7-1.9-.2-2.8-.4c.3-.1,1-2.6,1-9.7Z"/>
        <path class="cls-1" d="M448.2,131.7c0-2.4-.2-10.7-.2-12.6-.2-3.9-.4-4.2-.4-4.2h8.8c8.2,0,16.8,3.1,16.8,13.9s-5.8,14.3-13.5,14.3-5.4-.4-11.9-.4c0,0,.4-1.1.4-11ZM458.4,140.7c6.1,0,9.7-5.1,9.7-11.2,0-9.3-6.8-12.5-13.2-12.5s-1.3,0-1.9,0c0,0-.1,9.6-.1,14.5s0,4.8.1,7.3c0,1.6,3.4,1.9,5.5,1.9Z"/>
        <path class="cls-1" d="M487.5,122.3c6.7,0,10.1,4.6,10.1,9.5s-3.7,11.6-10.5,11.6-10.1-4.9-10.1-10,3.6-11,10.5-11ZM487.5,141.5c3.5,0,5.2-4.5,5.2-9.1s-1.9-8.3-5.7-8.3-5.2,4.2-5.2,8.5,1.9,8.9,5.6,8.9Z"/>
        <path class="cls-1" d="M502.6,126.9c0-3.7,0-7.3-.2-9.9-.2-3.7-.7-4.4-.7-4.4v-.2c2.8,0,5.2.5,5.2,2.9,0,4-.2,8.2-.2,12.4s0,7.1.2,10.6c0,1.4.4,2.6,1.8,2.6s1.5-.6,1.5-.6h.2c0,.1-1,2.6-4.4,2.6s-3.6-.8-3.6-3.5.2-8.1.2-12.7Z"/>
        <path class="cls-1" d="M522.9,122.3c6.7,0,10.1,4.6,10.1,9.5s-3.7,11.6-10.5,11.6-10.1-4.9-10.1-10,3.6-11,10.5-11ZM522.9,141.5c3.5,0,5.2-4.5,5.2-9.1s-1.9-8.3-5.7-8.3-5.2,4.2-5.2,8.5,1.9,8.9,5.6,8.9Z"/>
        <path class="cls-1" d="M538.1,133.1c0-8.1-.8-10.2-1-10.3.7-.2,1.3-.4,1.9-.4,1.8,0,3.2.9,3.2,2.5s-.3,1.5-.3,1.5h.2c1.1-2.5,3.9-4,6-4s1.9.7,1.9,1.5-.2,2-.5,2.8h-.2c-1.3-.6-2.3-1-3.2-1-3.1,0-4,3.2-4,7.6,0,7.8.8,9.3.9,9.3-1,.2-1.9.4-2.8.4-1.5,0-2.5-.6-2.5-3.1s.2-4.7.2-6.9Z"/>
        <path class="cls-1" d="M562.9,137.1h.3s3.1,3.7,8.5,3.7,5.2-2.1,5.2-4.2c0-6.3-14.3-5.4-14.3-14.1s4.9-8.1,9.9-8.1,7.9.8,7.9,3-.6,2.3-1.5,3.2h-.3s-2.7-4.1-6.9-4.1-4.6,1.9-4.6,4.4c0,6.2,14.3,4.8,14.3,14s-5.2,8.4-10.2,8.4-9.1-1.4-9.1-3.9.6-1.7,1-2.3Z"/>
        <path class="cls-1" d="M586.8,133.1c0-9.1-.9-10.3-1-10.3.7-.2,1.3-.4,1.9-.4,1.8,0,3.4,1,3.4,2.5,0,4.2-.2,9-.2,11.9s0,4.2,2,4.2,1.5-.6,1.5-.6h.2c0,.1-1,2.6-4.4,2.6s-3.6-.8-3.6-3.2.2-4.6.2-6.8ZM586.1,116.4c0-1.5,1.2-2.7,2.7-2.7s2.7,1.2,2.7,2.7-1.2,2.7-2.7,2.7-2.7-1.2-2.7-2.7Z"/>
        <path class="cls-1" d="M598.5,128.5c0-3.4-.3-3.5-1.8-4v-1.7c1.7,0,5.5-3.3,6-4.6l.9.3-.8,4.3h3.3c1.6,0,2.1-.4,2.1-.4,0,.2,0,.9,0,1.1,0,1.7-.8,2-2.2,2s-3.2,0-3.2,0c0,0-.1,4.7-.1,7.7s.4,7.3,3.4,7.3,4.2-1.9,4.2-1.9l.2.2s-1.3,4.6-6.2,4.6-6-3.3-6-7.7.2-5.6.2-7.1Z"/>
        <path class="cls-1" d="M620,142.5s1.1-.8,2.6-5l8.3-23.2s4.1.2,5.4,4.8c1.5,5,5,15.7,7,20.1,1.1,2.5,1.4,3,1.8,3.2v.2s-1.5.4-2.9.4-3.2-.7-3.7-2.4c-.5-1.8-1.3-4.4-2.2-7.3-1.2,0-2.6,0-4,0-2,0-4.1,0-5.7.2-2.4,7.2-2.2,9.6-5.3,9.6s-1.4-.4-1.4-.4v-.2ZM631.6,131.4c1.4,0,2.8,0,4.1,0-1.4-4.2-3-8.7-4.2-12h-.2c-1.7,4.9-2.9,8.8-3.9,12,1.3,0,2.7,0,4.2,0Z"/>
        <path class="cls-1" d="M649.1,133c0-2,0-4.1-.2-6-.2-3.9-.8-4.2-.8-4.2.7-.2,1.3-.4,1.9-.4,1.8,0,3.1,1,3.1,2.2s-.2,1-.2,1h.2c.8-1.9,3.6-3.2,6.2-3.2,3.7,0,5.2,1.4,5.4,3.2h.2c.9-1.9,3.7-3.2,6.3-3.2,5.2,0,5.8,2.7,5.8,5.5s-.2,5.5-.2,8.9,0,4.2,2,4.2,1.5-.6,1.5-.6h.2c0,.1-1,2.6-4.4,2.6s-3.6-.8-3.6-3.2c0-3.4.1-5.8.1-9.9s0-5.2-3.4-5.2-4.2,5.1-4.2,7,0,6.9,0,7.1c0,2.8-.9,3.4-1.5,4.1-1.4-.2-2.9-.3-2.9-3.1s.1-6,.1-10,0-5.2-3.5-5.2-4,1.9-4,5.5.2,6.3.2,10-1.1,2.7-2.5,2.7-1.9-.2-2.8-.4c.3-.1,1-2.6,1-9.7Z"/>
        <path class="cls-1" d="M691.8,122.3c5.2,0,7.3,3,7.3,5.7,0,4-4.2,5.4-7.7,5.4s-4.4-1.1-4.4-1.1h-.2c0,4.8,2.2,8.1,6.3,8.1s6.2-2.3,6.2-2.3l.2.2s-1.3,5-8,5-9.3-4.2-9.3-10,3.6-11,9.4-11ZM690.7,131.4c1.8,0,3.7-1,3.7-3.5s-.8-3.8-3.1-3.8-4.3,4.8-4.3,6.3,2,1,3.7,1Z"/>
        <path class="cls-1" d="M704.7,128.5c0-3.4-.3-3.5-1.8-4v-1.7c1.7,0,5.5-3.3,6-4.6l.9.3-.8,4.3h3.3c1.6,0,2.1-.4,2.1-.4,0,.2,0,.9,0,1.1,0,1.7-.8,2-2.2,2s-3.2,0-3.2,0c0,0-.1,4.7-.1,7.7s.4,7.3,3.4,7.3,4.2-1.9,4.2-1.9l.2.2s-1.3,4.6-6.2,4.6-6-3.3-6-7.7.2-5.6.2-7.1Z"/>
      </g>
    </g>
  </g>
</svg>