<?xml version="1.0" encoding="UTF-8"?>
<svg id="Layer_1" xmlns="http://www.w3.org/2000/svg" version="1.1" viewBox="0 0 200 200">
  <!-- Generator: Adobe Illustrator 29.1.0, SVG Export Plug-In . SVG Version: 2.1.0 Build 142)  -->
  <defs>
    <style>
      .st0 {
        isolation: isolate;
      }

      .st1 {
        fill: #fff;
      }

      .st2 {
        fill: #eda123;
      }
    </style>
  </defs>
  <path class="st2" d="M173.3,94.8c-2.4,17.7-12.3,31.6-26.5,40.2-13.9,8.6-32,11.9-55,12.8-23,.9-50.9-.8-65.7-13.3-14.8-12.6-16.3-36-6.1-55.2,10.3-19.1,32.4-34.1,58.6-40.8,26.1-6.7,56.2-5.3,73.9,6,17.7,11.4,23,32.7,20.6,50.2h.2Z"/>
  <g class="st0">
    <g class="st0">
      <g class="st0">
        <path class="st1" d="M33.4,90.8c-.3-2.8-.7-5.7-1.1-7.6-.4-2-.7-2.4-.7-2.4h0c1.5-.3,2.9-.2,3,1.2.3,2.2.5,4.5.7,6.9l.2,1.8h.1s.3-.3.3-.3c2.5-3.2,3.1-3.8,3.1-4.7,0,0,.6-.3,1.2-.3.7,0,1.1,0,1.1.3,0,.8-2,2.5-3.8,4.5h0c1.2,1.3,4.5,4.8,6.4,5.9h0c0,.1-.5.4-1.7.5-3.1.4-5.7-4.9-6.4-5h-.2c.2,1.6.4,2.8.6,4.3.1,1.2-.4,1.6-1.2,1.7-.5,0-1,0-1.6,0,.3-.3,0-4.5-.2-6.6Z"/>
        <path class="st1" d="M49.2,84c3.7-.4,5.9,1.9,6.2,4.5.4,3.3-1.2,6.6-5,7.1-3.7.4-5.9-2-6.2-4.9-.4-3.1,1.3-6.3,5.1-6.8ZM45.3,81c0-.7.4-1.4,1.1-1.5s1.4.4,1.5,1.1c0,.7-.4,1.4-1.1,1.5-.7,0-1.4-.4-1.5-1.1ZM50.5,94.6c2-.2,2.6-2.9,2.3-5.4-.3-2.3-1.6-4.5-3.7-4.2-2,.2-2.6,2.7-2.3,5,.3,2.5,1.6,4.8,3.7,4.5ZM49.6,80.5c0-.7.4-1.4,1.1-1.4.7,0,1.4.4,1.5,1.1,0,.7-.4,1.4-1.2,1.5-.7,0-1.3-.4-1.4-1.1Z"/>
        <path class="st1" d="M57.7,94c0-.2,0-.6.1-.9.9-1.6,3.6-7.2,4.3-9.1h0c-1.2.3-3.1.5-4.4.7-.9.1-1-.7-1.2-1.5,0,0,1.2.1,4.6-.3l4-.5v.3c0,.3,0,.7-.2,1.2-1.8,3.4-3.3,6.9-4.3,9h0c.9-.3,2.8-.6,4.3-.8,1.6-.2,1.6.2,1.9,1.5,0,0-1.4,0-5,.4l-4.1.5s0-.2,0-.4Z"/>
        <path class="st1" d="M72,81.2c2.9-.4,4.2,1.2,4.4,2.6.3,2.2-1.9,3.3-3.9,3.5-1.3.2-2.5-.3-2.5-.3h0c.3,2.7,1.8,4.3,4,4.1,1.8-.2,3.3-1.7,3.3-1.7h.1c0,0-.4,3-4.1,3.4-2.9.4-5.4-1.7-5.8-4.9-.4-3,1.3-6.3,4.5-6.7ZM69.3,80.1c1.7-1.2,2.4-3.5,2.6-4.1,1.2-.1,1.8.8,1.8.8-.2,1.5-2.4,3.2-3.7,3.3-.2,0-.5,0-.7,0h0ZM72,86.3c1-.1,2-.8,1.8-2.2-.1-1-.7-2-2-1.9-1.6.2-2.1,2.9-2,3.8,0,.2,1.2.4,2.1.3Z"/>
        <path class="st1" d="M79.9,86.4c-.2-2.1-.6-4.5-1.2-5.6.4-.2.7-.3,1.1-.3,1-.1,1.8.3,1.9,1,0,.2,0,.3,0,.4h.1s.6-1.8,3.3-2.1c2.5-.3,4.3,1.7,4.6,4.5.5,3.8-1.3,6.8-5.7,7.3-.4,0-.7,0-1.1,0,0,.4,0,.7.1,1.1.3,2.5.8,3.6.8,3.6-.5.2-1,.3-1.5.4-.8,0-1.4-.2-1.5-1.5-.3-2.1-.5-4.3-1-8.7ZM84.3,90.4c2.4-.3,3.2-2.9,2.9-5.4-.2-2-1.4-4-2.9-3.8-1.3.2-2.2,1.3-2.2,3,0,1,.1,2,.3,3l.3,2.7c0,.6.7.6,1.6.5Z"/>
        <path class="st1" d="M91.3,75.6c0-.8.5-1.6,1.3-1.7.8,0,1.6.5,1.7,1.3,0,.8-.5,1.6-1.3,1.7-.8,0-1.6-.5-1.6-1.3ZM92.7,84.8c-.6-5-1.2-5.6-1.2-5.6.4-.2.7-.3,1.1-.3,1-.1,1.9.3,2,1.2.3,2.3.5,5,.7,6.6.1,1,.3,2.3,1.4,2.2.4,0,.8-.4.8-.4h0c0,0-.4,1.5-2.3,1.7-1,.1-2-.2-2.2-1.5-.2-1.2-.2-2.5-.4-3.8Z"/>
        <path class="st1" d="M98.9,87h.1s1.5,1.4,3.6,1.2c1.4-.2,1.8-1,1.7-1.7-.3-2.3-5.9-1.2-6.4-5-.3-2.1,1.6-3.5,3.7-3.8.9-.1,3.4,0,3.5.8,0,.5-.3,1.2-.6,1.7h-.1s-1.3-1.7-3-1.5c-1,.1-1.6.9-1.5,1.9.3,2.2,5.9,1,6.4,4.9.3,2.2-1.7,3.6-3.8,3.9-1.4.2-3.8-.2-3.9-1.1,0-.4.2-.9.3-1.3Z"/>
        <path class="st1" d="M108.8,81.7c-.3-2.8-.7-5.7-1.1-7.6-.4-2-.7-2.4-.7-2.4h0c1.5-.3,2.9-.2,3,1.2.3,2.2.5,4.5.7,6.9l.2,1.8h.1s.3-.3.3-.3c2.5-3.2,3.1-3.8,3.1-4.7,0,0,.6-.3,1.2-.3.7,0,1.1,0,1.1.3,0,.8-2,2.5-3.8,4.5h0c1.2,1.3,4.5,4.8,6.4,5.9h0c0,.1-.5.4-1.7.5-3.1.4-5.7-4.9-6.4-5h-.2c.2,1.6.4,2.8.6,4.3.1,1.2-.4,1.6-1.2,1.7-.5,0-1,0-1.6,0,.3-.3,0-4.5-.2-6.6Z"/>
        <path class="st1" d="M124.6,74.9c3.7-.4,5.9,1.9,6.2,4.5.4,3.3-1.2,6.6-5,7.1-3.7.4-5.9-2-6.2-4.9-.4-3.1,1.3-6.3,5.1-6.8ZM125.9,85.5c2-.2,2.6-2.9,2.3-5.4-.3-2.3-1.6-4.5-3.7-4.2-2,.2-2.6,2.7-2.3,5,.3,2.5,1.6,4.8,3.7,4.5Z"/>
        <path class="st1" d="M133.2,76.5c-.2-2.1-.5-4-.8-5.4-.4-2-.7-2.4-.7-2.4h0c1.5-.3,2.9-.2,3,1.2.3,2.2.5,4.5.7,6.9.2,2,.5,3.9.8,5.9.1.7.4,1.4,1.2,1.3.4,0,.8-.4.8-.4h0c0,0-.4,1.5-2.3,1.7-1,.1-2-.2-2.2-1.7-.2-1.8-.4-4.5-.7-7Z"/>
        <path class="st1" d="M144.7,77v-.2c-.2-1.8-.8-2.8-2.5-2.6-1.1.1-2.1.9-2.9,1.7h0c.2-1.4,1.8-3,3.7-3.2,3.1-.4,3.8,1.4,4,3.4.1,1.2.3,2.6.4,3.8v.3c.1.9.3,2.4,1.4,2.3.4,0,.8-.4.8-.4h0c0,0-.4,1.5-2.3,1.7-.9.1-1.9-.1-2.1-1.3h0c-.4.9-1.4,1.8-2.8,2-1.8.2-3.1-1-3.3-2.6-.4-3.2,3.1-4.6,5.5-4.9ZM140.3,71.5c1.7-1.2,2.4-3.5,2.6-4.1,1.2-.1,1.8.8,1.8.8-.2,1.5-2.4,3.2-3.7,3.3-.2,0-.5,0-.7,0h0ZM143.4,82.8c.7,0,1.9-.9,1.8-1.8-.1-.9-.2-2-.3-3.2-.9.3-3.4,1-3.1,3.3.2,1.3.9,1.7,1.7,1.6Z"/>
        <path class="st1" d="M150.9,75.2c-.2-1.9-.4-1.9-1.3-2.1v-.9c.8-.1,2.7-2.2,2.9-3h.5c0,.1-.1,2.6-.1,2.6l1.8-.2c.9-.1,1.2-.4,1.2-.4,0,.1,0,.5,0,.6.1.9-.3,1.2-1.1,1.3-.2,0-1.8.2-1.8.2,0,0,.2,2.6.4,4.3.3,2.2.7,4,2.4,3.8,1.1-.1,2.2-1.3,2.2-1.3h.1c0,0-.4,2.7-3.1,3-2.6.3-3.5-1.4-3.8-3.9-.2-1.4-.3-3.1-.4-3.9Z"/>
      </g>
    </g>
    <g class="st0">
      <g class="st0">
        <path class="st1" d="M51.6,112.3c-.3-.4-.6-.9-1-1.2h0c.4-.3.9-.4,1.6-.5.7,0,1.6,0,1.8.7.7,1.8,2.6,5.8,3.9,8.1h.1c1.9-8.9.7-9.6,2.6-9.8.7,0,1,0,1,0h0c0,.1-.5.5-.9,2.3l-2.2,9.6s-2.4.2-3.2-1.5c-.9-1.9-2.7-6-3.7-7.6Z"/>
        <path class="st1" d="M68.9,113v-.2c-.2-1.8-.8-2.8-2.5-2.6-1.1.1-2.1.9-2.9,1.7h0c.2-1.4,1.8-3,3.7-3.2,3.1-.4,3.8,1.4,4,3.4.1,1.2.3,2.6.4,3.8v.3c.1.9.3,2.4,1.4,2.3.4,0,.8-.4.8-.4h0c0,0-.4,1.5-2.3,1.7-.9.1-1.9-.1-2.1-1.3h0c-.4.9-1.4,1.8-2.8,2-1.8.2-3.1-1-3.3-2.6-.4-3.2,3.1-4.6,5.5-4.9ZM64.4,107.5c1.7-1.2,2.4-3.5,2.6-4.1,1.2-.1,1.8.8,1.8.8-.2,1.5-2.4,3.2-3.7,3.3-.2,0-.5,0-.7,0h0ZM67.5,118.8c.7,0,1.9-.9,1.8-1.8-.1-.9-.2-2-.3-3.2-.9.3-3.4,1-3.1,3.3.2,1.3.9,1.7,1.7,1.6Z"/>
        <path class="st1" d="M74.8,110.3c-.2-2.1-.5-4-.8-5.4-.4-2-.7-2.4-.7-2.4h0c1.5-.3,2.9-.2,3,1.2.3,2.2.5,4.5.7,6.9.2,2,.5,3.9.8,5.9.1.7.4,1.4,1.2,1.3.4,0,.8-.4.8-.4h0c0,0-.4,1.5-2.3,1.7-1,.1-2-.2-2.2-1.7-.2-1.8-.4-4.5-.7-7Z"/>
        <path class="st1" d="M86.3,110.9v-.2c-.2-1.8-.8-2.8-2.5-2.6-1.1.1-2.1.9-2.9,1.7h0c.2-1.4,1.8-3,3.7-3.2,3.1-.4,3.8,1.4,4,3.4.1,1.2.3,2.6.4,3.8v.3c.1.9.3,2.4,1.4,2.3.4,0,.8-.4.8-.4h0c0,0-.4,1.5-2.3,1.7-.9.1-1.9-.1-2-1.3h0c-.4.9-1.4,1.8-2.8,2-1.8.2-3.1-1-3.3-2.6-.4-3.2,3.1-4.6,5.5-4.9ZM85,116.7c.7,0,1.9-.9,1.8-1.8-.1-.9-.2-2-.3-3.2-.9.3-3.4,1-3.1,3.3.2,1.3.9,1.7,1.7,1.6Z"/>
        <path class="st1" d="M92.5,114.5h.1s1.5,1.4,3.6,1.2c1.4-.2,1.8-1,1.7-1.7-.3-2.3-5.9-1.2-6.4-5-.3-2.1,1.6-3.5,3.7-3.8.9-.1,3.4,0,3.5.8,0,.5-.3,1.2-.6,1.7h-.1s-1.3-1.7-3-1.5c-1,.1-1.6.9-1.5,1.9.3,2.2,5.9,1,6.4,4.9.3,2.2-1.7,3.6-3.8,3.9-1.4.2-3.8-.2-3.9-1.1,0-.4.2-.9.3-1.3Z"/>
        <path class="st1" d="M101.9,115.5c0-.2,0-.6.1-.9.9-1.6,3.6-7.2,4.3-9.1h0c-1.2.3-3.1.5-4.4.7-.9.1-1-.7-1.2-1.5,0,0,1.1.1,4.6-.3l4-.5v.3c0,.3,0,.7-.2,1.2-1.8,3.4-3.3,6.9-4.3,9h0c.9-.3,2.8-.6,4.3-.8,1.6-.2,1.6.2,1.9,1.5,0,0-1.4,0-5,.4l-4.1.5s0-.2,0-.4Z"/>
        <path class="st1" d="M112.6,106.6c-.2-1.9-.4-1.9-1.3-2.1v-.9c.8-.1,2.7-2.2,2.9-3h.5c0,.1-.1,2.6-.1,2.6l1.8-.2c.9-.1,1.2-.4,1.2-.4,0,.1,0,.5,0,.6.1.9-.3,1.2-1.1,1.3-.2,0-1.8.2-1.8.2,0,0,.2,2.6.5,4.3.3,2.2.7,4,2.4,3.8,1.1-.1,2.2-1.3,2.2-1.3h.1c0,0-.4,2.7-3.1,3-2.6.3-3.5-1.4-3.8-3.9-.2-1.4-.3-3.1-.4-3.9Z"/>
        <path class="st1" d="M126,106.1v-.2c-.2-1.8-.8-2.8-2.5-2.6-1.1.1-2.1.9-2.9,1.7h0c.2-1.4,1.8-3,3.7-3.2,3.1-.4,3.8,1.4,4,3.4.1,1.2.3,2.6.4,3.8v.3c.1.9.3,2.4,1.4,2.3.4,0,.8-.4.8-.4h0c0,0-.4,1.5-2.3,1.7-.9.1-1.9-.1-2.1-1.3h0c-.4,1-1.4,1.8-2.8,2-1.8.2-3.1-1-3.3-2.6-.4-3.2,3.1-4.6,5.5-4.9ZM124.6,111.9c.7,0,1.9-.9,1.8-1.8-.1-.9-.2-2-.3-3.2-.9.3-3.4,1-3.1,3.3.2,1.3.9,1.7,1.7,1.6Z"/>
        <path class="st1" d="M132.5,106.7c-.1-1.1-.3-2.2-.5-3.3-.4-2.1-.7-2.3-.7-2.3.4-.2.7-.3,1.1-.3,1-.1,1.8.3,1.9,1,0,.3,0,.6,0,.6h0c.4-1.2,2-2.1,3.6-2.3,2.9-.4,3.4,1.2,3.6,2.8.2,1.6.3,3.1.5,4.9.1,1,.3,2.3,1.4,2.2.4,0,.8-.4.8-.4h0c0,0-.4,1.5-2.3,1.7-1,.1-2-.2-2.2-1.5-.2-1.9-.3-3.2-.6-5.4-.2-1.5-.4-3-2.3-2.7-1.2.1-2.5,1.4-2.3,3.5.2,2,.5,3.5.8,5.5.1,1.2-.4,1.6-1.2,1.7-.5,0-1,0-1.6,0,.1,0,.4-1.5-.1-5.4Z"/>
        <path class="st1" d="M144.3,96c0-.8.5-1.6,1.3-1.7.8,0,1.6.5,1.7,1.3,0,.8-.5,1.6-1.3,1.6-.8,0-1.6-.5-1.6-1.3ZM145.8,105.2c-.6-5-1.2-5.6-1.2-5.6.4-.2.7-.3,1.1-.3,1-.1,1.9.3,2,1.2.3,2.3.5,5,.7,6.6.1,1,.3,2.3,1.4,2.2.4,0,.8-.4.8-.4h0c0,0-.4,1.5-2.3,1.7-1,.1-2-.2-2.2-1.5-.2-1.2-.2-2.5-.4-3.8Z"/>
      </g>
    </g>
  </g>
</svg>