<?xml version="1.0" encoding="UTF-8"?>
<svg id="Layer_1" xmlns="http://www.w3.org/2000/svg" version="1.1" viewBox="0 0 200 200">
  <!-- Generator: Adobe Illustrator 29.1.0, SVG Export Plug-In . SVG Version: 2.1.0 Build 142)  -->
  <defs>
    <style>
      .st0 {
        fill: #f498aa;
      }

      .st1 {
        isolation: isolate;
      }

      .st2 {
        fill: #fff;
      }
    </style>
  </defs>
  <path class="st0" d="M157.6,67.2c13.7,13,22,34.4,17.3,51.8-4.9,17.4-22.8,30.6-40.6,36-17.7,5.2-35.2,2.4-53.7-4.2-18.5-6.6-37.9-17.1-47.9-36.6-10-19.6-10.5-48.2,3.3-61.1,13.8-13,41.8-10.3,65.4-6.7,23.6,3.6,42.6,8,56.3,21h0Z"/>
  <g class="st1">
    <g class="st1">
      <g class="st1">
        <path class="st2" d="M52.8,87.9c-.2,0-.5,0-.6-.2h0c1.1-.5,1.7-1.3,1.7-8.4s-.1-3.7-.8-4l-.5-.2v-.8c.8,0,1.3-.2,1.3-1.1,0-2.8,1.5-4.1,3.7-4.1s3,.9,3,2.1h0c-.4-.6-1.4-.9-2.3-.9s-2.3.5-2.3,2.6v.5c0,.2,0,.9,0,.9h1.3c.8,0,1-.2,1-.2,0,.1,0,.4,0,.5,0,.8-.4.9-1,.9s-1.1,0-1.2,0c0,.7,0,1.4,0,2.1,0,1.9,0,3.8,0,6.5s-1.4,3.7-3,3.7Z"/>
        <path class="st2" d="M63.9,77.9v-.2c0-1.5-.4-2.4-1.8-2.4s-1.9.5-2.5,1.1h0c.3-1.2,1.8-2.3,3.4-2.3,2.6,0,3,1.6,3,3.2s0,2.2,0,3.2v.2c0,.7,0,2,.9,2s.7-.3.7-.3h0c0,0-.5,1.2-2,1.2s-1.5-.3-1.6-1.3h0c-.4.7-1.3,1.4-2.5,1.4s-2.5-1.1-2.5-2.5c0-2.7,3-3.5,5-3.5ZM62.2,82.6c.6,0,1.6-.6,1.6-1.3s0-1.7,0-2.7c-.8.1-2.9.5-2.9,2.4s.6,1.5,1.2,1.5Z"/>
        <path class="st2" d="M69.2,78.2c0-2.3,0-4.8-.1-6.4,0-1.7-.3-2.1-.3-2.1h0c1.2,0,2.4.1,2.4,1.3,0,1.9,0,3.8,0,5.8v1.5h0l.2-.2c2.4-2.4,3-2.9,3.1-3.6,0,0,.5-.1,1-.1s.9.1.9.4c0,.7-1.9,1.8-3.6,3.4h0c.9,1.2,3.2,4.4,4.7,5.5h0c0,0-.4.3-1.5.3-2.6,0-4.2-4.6-4.8-4.8h-.1c0,1.4,0,2.4,0,3.6s-.5,1.3-1.2,1.3-.9-.1-1.3-.2c.3-.2.5-3.7.5-5.5Z"/>
        <path class="st2" d="M79,78.5c0-.4,0-1.4,0-2.3,0-.8-.1-1.5-.4-1.8.3,0,.6-.2.9-.2.8,0,1.6.4,1.6,1.2,0,1.5,0,2.7,0,4.5s.1,2.8,1.5,2.8,2.2-2.3,2.2-3.8,0-2.2,0-2.9c-.1-1.3-.3-1.7-.3-1.7.3,0,.6-.2.9-.2.9,0,1.6.4,1.6,1.2,0,1.7-.1,3.4-.1,5.5s0,1.9.9,1.9.7-.3.7-.3h0c0,0-.5,1.2-2,1.2s-1.5-.4-1.5-1.3,0-.2,0-.2h0s-.7,1.6-3,1.6-2.9-1.4-2.9-2.9,0-1.6,0-2.5Z"/>
        <path class="st2" d="M90.2,76.3c0-1.7,0-3.4,0-4.6,0-1.7-.3-2.1-.3-2.1h0c1.2,0,2.4.1,2.4,1.3,0,1.9,0,3.8,0,5.8s0,3.3,0,4.9c0,.6.2,1.2.8,1.2s.7-.3.7-.3h0c0,0-.5,1.2-2,1.2s-1.7-.4-1.7-1.6,0-3.8,0-5.9Z"/>
        <path class="st2" d="M95.5,77.1c0-1.6-.1-1.6-.8-1.9v-.8c.8,0,2.5-1.5,2.8-2.2h.4c0,.1-.4,2.2-.4,2.2h1.5c.8,0,1-.2,1-.2,0,.1,0,.4,0,.5,0,.8-.4.9-1,.9s-1.5,0-1.5,0c0,0,0,2.2,0,3.6s.2,3.4,1.6,3.4,2-.9,2-.9h0c0,0-.6,2.2-2.9,2.2s-2.8-1.5-2.8-3.6,0-2.6,0-3.3Z"/>
        <path class="st2" d="M106.7,77.9v-.2c0-1.5-.4-2.4-1.8-2.4s-1.9.5-2.5,1.1h0c.3-1.2,1.8-2.3,3.4-2.3,2.6,0,3,1.6,3,3.2s0,2.2,0,3.2v.2c0,.7,0,2,.9,2s.7-.3.7-.3h0c0,0-.5,1.2-2,1.2s-1.5-.3-1.6-1.3h0c-.4.7-1.3,1.4-2.5,1.4s-2.5-1.1-2.5-2.5c0-2.7,3-3.5,5-3.5ZM103.6,72.9c1.5-.8,2.3-2.7,2.5-3.1,1,0,1.4.9,1.4.9-.3,1.2-2.3,2.4-3.4,2.4s-.4,0-.6,0h0ZM105,82.6c.6,0,1.6-.6,1.6-1.3s0-1.7,0-2.7c-.8.1-2.9.5-2.9,2.4s.6,1.5,1.2,1.5Z"/>
        <path class="st2" d="M116.1,74.1c.8,0,3,.3,3,1.3s-.3.9-.6,1.2h0s-1-1.7-2.6-1.7-2.5,2-2.5,3.6,1.2,3.9,3.1,3.9,3-1.2,3-1.2h0c0,0-.8,2.6-3.8,2.6s-4.4-2-4.4-4.6,2-5.2,5-5.2Z"/>
        <path class="st2" d="M121.6,79.2c0-4.2-.4-4.8-.4-4.8.3,0,.6-.2.9-.2.8,0,1.6.4,1.6,1.2,0,2,0,4.2,0,5.5s0,1.9.9,1.9.7-.3.7-.3h0c0,0-.5,1.2-2,1.2s-1.7-.4-1.7-1.5,0-2.1,0-3.2ZM121.3,71.4c0-.7.6-1.3,1.2-1.3s1.3.6,1.3,1.3-.6,1.2-1.3,1.2-1.2-.6-1.2-1.2Z"/>
        <path class="st2" d="M131,74.1c3.1,0,4.7,2.2,4.7,4.4s-1.7,5.4-4.9,5.4-4.7-2.3-4.7-4.7,1.7-5.1,4.9-5.1ZM131,83.1c1.6,0,2.4-2.1,2.4-4.2s-.9-3.9-2.6-3.9-2.4,2-2.4,3.9.9,4.1,2.6,4.1ZM128.9,72.9c1.5-.8,2.3-2.7,2.5-3.1,1,0,1.4.9,1.4.9-.3,1.2-2.3,2.4-3.4,2.4s-.4,0-.6,0h0Z"/>
        <path class="st2" d="M138.1,77.1c0-1.6-.1-1.6-.8-1.9v-.8c.8,0,2.5-1.5,2.8-2.2h.4c0,.1-.4,2.2-.4,2.2h1.5c.8,0,1-.2,1-.2,0,.1,0,.4,0,.5,0,.8-.4.9-1,.9s-1.5,0-1.5,0c0,0,0,2.2,0,3.6s.2,3.4,1.6,3.4,2-.9,2-.9h0c0,0-.6,2.2-2.9,2.2s-2.8-1.5-2.8-3.6,0-2.6,0-3.3Z"/>
        <path class="st2" d="M144.7,85.3c.7,0,1.3-.5,1.3-1.2s-1-.5-1-1.5.5-1.2,1.2-1.2c1,0,1.4.9,1.4,1.9s-.7,2.6-2.2,2.6-1.4-.6-1.4-.6h0c0,0,.3,0,.6,0Z"/>
      </g>
    </g>
    <g class="st1">
      <g class="st1">
        <path class="st2" d="M57,103.8h0s1.1,1.3,2.9,1.3,1.6-.6,1.6-1.3c0-1.9-4.8-1.6-4.8-4.8s1.7-2.7,3.4-2.7,2.8.3,2.8,1-.3,1-.7,1.3h0s-.9-1.5-2.3-1.5-1.4.6-1.4,1.4c0,1.9,4.8,1.4,4.8,4.7s-1.8,2.8-3.5,2.8-3.1-.5-3.1-1.3.2-.8.4-1Z"/>
        <path class="st2" d="M64.7,105.5c0-.2,0-.5.2-.8.9-1.3,3.7-5.6,4.4-7.1h0c-1,.1-2.6.1-3.8.1s-.8-.7-.8-1.4c0,0,.9.2,3.8.2h3.4v.2c0,.2,0,.6-.3.9-1.8,2.6-3.4,5.4-4.5,7h0c.8-.2,2.4-.2,3.7-.2s1.3.3,1.5,1.4c0,0-1.1-.1-4.2-.1h-3.5s0-.2,0-.3Z"/>
        <path class="st2" d="M78.5,100.2v-.2c0-1.5-.4-2.4-1.8-2.4s-1.9.5-2.5,1.1h0c.3-1.2,1.8-2.3,3.4-2.3,2.6,0,3,1.6,3,3.2s0,2.2,0,3.2v.2c0,.7,0,2,.9,2s.7-.3.7-.3h0c0,0-.5,1.2-2,1.2s-1.5-.3-1.6-1.3h0c-.4.7-1.3,1.4-2.5,1.4s-2.5-1.1-2.5-2.5c0-2.7,3-3.5,5-3.5ZM76.8,104.8c.6,0,1.6-.6,1.6-1.3s0-1.7,0-2.7c-.8.1-2.9.5-2.9,2.4s.6,1.5,1.2,1.5Z"/>
        <path class="st2" d="M83.8,100.4c0-2.3,0-4.8-.1-6.4,0-1.7-.3-2.1-.3-2.1h0c1.2,0,2.4.1,2.4,1.3,0,1.9,0,3.8,0,5.8v1.5h0l.2-.2c2.4-2.4,3-2.9,3.1-3.6,0,0,.5-.1,1-.1s.9.1.9.4c0,.7-1.9,1.8-3.6,3.4h0c.9,1.2,3.2,4.4,4.7,5.5h0c0,0-.4.3-1.5.3-2.6,0-4.2-4.6-4.8-4.8h-.1c0,1.4,0,2.4,0,3.6s-.5,1.3-1.2,1.3-.9-.1-1.3-.2c.3-.2.5-3.7.5-5.5Z"/>
        <path class="st2" d="M93.7,101.4c0-4.2-.4-4.8-.4-4.8.3,0,.6-.2.9-.2.8,0,1.6.4,1.6,1.2,0,2,0,4.2,0,5.5s0,1.9.9,1.9.7-.3.7-.3h0c0,0-.5,1.2-2,1.2s-1.7-.4-1.7-1.5,0-2.1,0-3.2ZM93.4,93.6c0-.7.6-1.3,1.2-1.3s1.3.6,1.3,1.3-.6,1.2-1.3,1.2-1.2-.6-1.2-1.2Z"/>
        <path class="st2" d="M99.2,101.4c0-3.7-.4-4.7-.5-4.8.3,0,.6-.2.9-.2.8,0,1.5.4,1.5,1.2s-.1.7-.1.7h0c.5-1.1,1.8-1.9,2.8-1.9s.9.3.9.7,0,.9-.2,1.3h0c-.6-.3-1.1-.5-1.5-.5-1.4,0-1.8,1.5-1.8,3.5,0,3.6.4,4.3.4,4.3-.5,0-.9.2-1.3.2-.7,0-1.2-.3-1.2-1.4s0-2.2,0-3.2Z"/>
        <path class="st2" d="M110.6,100.2v-.2c0-1.5-.4-2.4-1.8-2.4s-1.9.5-2.5,1.1h0c.3-1.2,1.8-2.3,3.4-2.3,2.6,0,3,1.6,3,3.2s0,2.2,0,3.2v.2c0,.7,0,2,.9,2s.7-.3.7-.3h0c0,0-.5,1.2-2,1.2s-1.5-.3-1.6-1.3h0c-.4.7-1.3,1.4-2.5,1.4s-2.5-1.1-2.5-2.5c0-2.7,3-3.5,5-3.5ZM107.4,95.2c1.5-.8,2.3-2.7,2.5-3.1,1,0,1.4.9,1.4.9-.3,1.2-2.3,2.4-3.4,2.4s-.4,0-.6,0h0ZM108.9,104.8c.6,0,1.6-.6,1.6-1.3s0-1.7,0-2.7c-.8.1-2.9.5-2.9,2.4s.6,1.5,1.2,1.5Z"/>
        <path class="st2" d="M115.9,101.3c0-.9,0-1.9,0-2.8,0-1.8-.4-2-.4-2,.3,0,.6-.2.9-.2.8,0,1.4.4,1.4,1s0,.5,0,.5h0c.4-.9,1.9-1.6,3.2-1.6,2.4,0,2.7,1.3,2.7,2.7s0,2.6,0,4.2,0,1.9.9,1.9.7-.3.7-.3h0c0,0-.5,1.2-2,1.2s-1.7-.4-1.7-1.5c0-1.6,0-2.7,0-4.6s0-2.5-1.6-2.5-2.2.9-2.2,2.6,0,2.9,0,4.7-.5,1.3-1.2,1.3-.9,0-1.3-.2c.1,0,.4-1.2.4-4.5Z"/>
        <path class="st2" d="M127.2,108.4c1.1,0,2-.5,2.6-1.8l.3-.7c-.6-.1-1.4-.5-1.6-1.4-.5-1.7-1.7-5.2-2.3-6.7-.2-.4-.4-.8-.7-1.1h0c.4-.2.7-.2,1.4-.2s1.3.2,1.4.8c.4,1.6,1.6,5.1,2.4,7.2,2.5-7.3,1.6-8,3.2-8s.8.1.8.1h0c0,0-.5.4-1,1.8l-2.7,7.7c-1,2.8-2.5,4-4,4s-1.1-.7-1.2-1.8c.5.1,1,.2,1.4.2Z"/>
        <path class="st2" d="M136.4,99.3c0-1.6-.1-1.6-.8-1.9v-.8c.8,0,2.5-1.5,2.8-2.2h.4c0,.1-.4,2.2-.4,2.2h1.5c.8,0,1-.2,1-.2,0,.1,0,.4,0,.5,0,.8-.4.9-1,.9s-1.5,0-1.5,0c0,0,0,2.2,0,3.6s.2,3.4,1.6,3.4,2-.9,2-.9h0c0,0-.6,2.2-2.9,2.2s-2.8-1.5-2.8-3.6,0-2.6,0-3.3Z"/>
      </g>
    </g>
    <g class="st1">
      <g class="st1">
        <path class="st2" d="M59.4,120.1c-.2-.4-.4-.8-.7-1.1h0c.4-.2.7-.2,1.4-.2s1.3.2,1.5.8c.4,1.6,1.6,5,2.4,7.1h0c2.5-7.1,1.5-7.9,3.1-7.9s.8.1.8.1h0c0,0-.5.4-1,1.8l-2.8,7.7s-2,0-2.5-1.6c-.5-1.7-1.7-5.2-2.3-6.7Z"/>
        <path class="st2" d="M73.6,122.4v-.2c0-1.5-.4-2.4-1.8-2.4s-1.9.5-2.5,1.1h0c.3-1.2,1.8-2.3,3.4-2.3,2.6,0,3,1.6,3,3.2s0,2.2,0,3.2v.2c0,.7,0,2,.9,2s.7-.3.7-.3h0c0,0-.5,1.2-2,1.2s-1.5-.3-1.6-1.3h0c-.4.7-1.3,1.4-2.5,1.4s-2.5-1.1-2.5-2.5c0-2.7,3-3.5,5-3.5ZM70.4,117.4c1.5-.8,2.3-2.7,2.5-3.1,1,0,1.4.9,1.4.9-.3,1.2-2.3,2.4-3.4,2.4s-.4,0-.6,0h0ZM71.9,127c.6,0,1.6-.6,1.6-1.3s0-1.7,0-2.7c-.8.1-2.9.5-2.9,2.4s.6,1.5,1.2,1.5Z"/>
        <path class="st2" d="M78.8,120.8c0-1.7,0-3.4,0-4.6,0-1.7-.3-2.1-.3-2.1h0c1.2,0,2.4.1,2.4,1.3,0,1.9,0,3.8,0,5.8s0,3.3,0,4.9c0,.6.2,1.2.8,1.2s.7-.3.7-.3h0c0,0-.5,1.2-2,1.2s-1.7-.4-1.7-1.6,0-3.8,0-5.9Z"/>
        <path class="st2" d="M88.3,122.4v-.2c0-1.5-.4-2.4-1.8-2.4s-1.9.5-2.5,1.1h0c.3-1.2,1.8-2.3,3.4-2.3,2.6,0,3,1.6,3,3.2s0,2.2,0,3.2v.2c0,.7,0,2,.9,2s.7-.3.7-.3h0c0,0-.5,1.2-2,1.2s-1.5-.3-1.6-1.3h0c-.4.7-1.3,1.4-2.5,1.4s-2.5-1.1-2.5-2.5c0-2.7,3-3.5,5-3.5ZM86.6,127c.6,0,1.6-.6,1.6-1.3s0-1.7,0-2.7c-.8.1-2.9.5-2.9,2.4s.6,1.5,1.2,1.5Z"/>
        <path class="st2" d="M93,126h0s1.1,1.3,2.9,1.3,1.6-.6,1.6-1.3c0-1.9-4.8-1.6-4.8-4.8s1.7-2.7,3.4-2.7,2.8.3,2.8,1-.3,1-.7,1.3h0s-.9-1.5-2.3-1.5-1.4.6-1.4,1.4c0,1.9,4.8,1.4,4.8,4.7s-1.8,2.8-3.5,2.8-3.1-.5-3.1-1.3.2-.8.4-1Z"/>
        <path class="st2" d="M100.7,127.7c0-.2,0-.5.2-.8.9-1.3,3.7-5.6,4.4-7.1h0c-1,.1-2.6.1-3.8.1s-.8-.7-.8-1.4c0,0,.9.2,3.8.2h3.4v.2c0,.2,0,.6-.3.9-1.8,2.6-3.4,5.4-4.5,7h0c.8-.2,2.4-.2,3.7-.2s1.3.3,1.5,1.4c0,0-1.1-.1-4.2-.1h-3.5s0-.2,0-.3Z"/>
        <path class="st2" d="M110.4,121.5c0-1.6-.1-1.6-.8-1.9v-.8c.8,0,2.5-1.5,2.8-2.2h.4c0,.1-.4,2.2-.4,2.2h1.5c.8,0,1-.2,1-.2,0,.1,0,.4,0,.5,0,.8-.4.9-1,.9s-1.5,0-1.5,0c0,0,0,2.2,0,3.6s.2,3.4,1.6,3.4,2-.9,2-.9h0c0,0-.6,2.2-2.9,2.2s-2.8-1.5-2.8-3.6,0-2.6,0-3.3Z"/>
        <path class="st2" d="M121.6,122.4v-.2c0-1.5-.4-2.4-1.8-2.4s-1.9.5-2.5,1.1h0c.3-1.2,1.8-2.3,3.4-2.3,2.6,0,3,1.6,3,3.2s0,2.2,0,3.2v.2c0,.7,0,2,.9,2s.7-.3.7-.3h0c0,0-.5,1.2-2,1.2s-1.5-.3-1.6-1.3h0c-.4.7-1.3,1.4-2.5,1.4s-2.5-1.1-2.5-2.5c0-2.7,3-3.5,5-3.5ZM119.9,127c.6,0,1.6-.6,1.6-1.3s0-1.7,0-2.7c-.8.1-2.9.5-2.9,2.4s.6,1.5,1.2,1.5Z"/>
        <path class="st2" d="M126.9,123.6c0-.9,0-1.9,0-2.8,0-1.8-.4-2-.4-2,.3,0,.6-.2.9-.2.8,0,1.4.4,1.4,1s0,.5,0,.5h0c.4-.9,1.9-1.6,3.2-1.6,2.4,0,2.7,1.3,2.7,2.7s0,2.6,0,4.2,0,1.9.9,1.9.7-.3.7-.3h0c0,0-.5,1.2-2,1.2s-1.7-.4-1.7-1.5c0-1.6,0-2.7,0-4.6s0-2.5-1.6-2.5-2.2.9-2.2,2.6,0,2.9,0,4.7-.5,1.3-1.2,1.3-.9,0-1.3-.2c.1,0,.4-1.2.4-4.5Z"/>
        <path class="st2" d="M138.1,123.6c0-4.2-.4-4.8-.4-4.8.3,0,.6-.2.9-.2.8,0,1.6.4,1.6,1.2,0,2,0,4.2,0,5.5s0,1.9.9,1.9.7-.3.7-.3h0c0,0-.5,1.2-2,1.2s-1.7-.4-1.7-1.5,0-2.1,0-3.2ZM137.8,115.9c0-.7.6-1.3,1.2-1.3s1.3.6,1.3,1.3-.6,1.2-1.3,1.2-1.2-.6-1.2-1.2Z"/>
      </g>
    </g>
  </g>
</svg>