<?xml version="1.0" encoding="UTF-8"?>
<svg id="Layer_1" xmlns="http://www.w3.org/2000/svg" version="1.1" viewBox="0 0 200 200">
  <!-- Generator: Adobe Illustrator 29.1.0, SVG Export Plug-In . SVG Version: 2.1.0 Build 142)  -->
  <defs>
    <style>
      .st0 {
        fill: #e0cf53;
      }

      .st1 {
        isolation: isolate;
      }

      .st2 {
        fill: #fff;
      }
    </style>
  </defs>
  <path class="st0" d="M148.3,57.1c8.3,15.9,5.7,35.1,1.2,53.4s-11,35.8-25.4,46.2c-14.3,10.5-36.5,14.1-53.8,6.3-17.4-7.8-30-27-32.9-46.5-3-19.6,3.6-39.4,15.9-56.2,12.3-16.7,30.1-30.4,48.7-31s37.9,12,46.3,27.8Z"/>
  <g class="st1">
    <g class="st1">
      <g class="st1">
        <path class="st2" d="M61.5,76.2h0s.8,1,2.2,1,1.2-.5,1.2-1c0-1.4-3.6-1.2-3.6-3.6s1.3-2.1,2.6-2.1,2.1.2,2.1.8-.2.7-.5,1h0s-.7-1.2-1.7-1.2-1.1.4-1.1,1.1c0,1.4,3.6,1.1,3.6,3.6s-1.4,2.1-2.7,2.1-2.4-.4-2.4-1,.2-.6.3-.8Z"/>
        <path class="st2" d="M67.3,77.5c0-.2,0-.4.2-.6.7-1,2.8-4.2,3.3-5.3h0c-.8,0-2,0-2.8,0s-.6-.5-.6-1c0,0,.7.2,2.9.2h2.6v.2c0,.2,0,.4-.2.7-1.3,2-2.6,4-3.4,5.3h0c.6-.1,1.8-.1,2.8-.1s1,.2,1.1,1.1c0,0-.9-.1-3.2-.1h-2.6s0-.1,0-.2Z"/>
        <path class="st2" d="M77.7,73.5h0c0-1.3-.3-1.9-1.3-1.9s-1.4.4-1.9.8h0c.2-.9,1.3-1.8,2.6-1.8,2,0,2.2,1.2,2.2,2.4s0,1.7,0,2.4v.2c0,.5,0,1.5.7,1.5s.5-.2.5-.2h0s-.3.9-1.5.9-1.2-.2-1.2-1h0c-.3.6-1,1-1.9,1s-1.8-.8-1.8-1.9c0-2,2.3-2.6,3.8-2.6ZM76.4,77c.5,0,1.2-.4,1.2-1s0-1.3,0-2c-.6,0-2.2.3-2.2,1.8s.4,1.1.9,1.1Z"/>
        <path class="st2" d="M81.7,73.7c0-1.8,0-3.6,0-4.8,0-1.3-.2-1.6-.2-1.6h0c.9,0,1.8.1,1.8,1,0,1.4,0,2.9,0,4.3v1.1h0l.2-.2c1.8-1.8,2.2-2.2,2.3-2.7,0,0,.4-.1.8-.1s.7,0,.7.3c0,.5-1.5,1.4-2.7,2.5h0c.7.9,2.4,3.3,3.6,4.1h0c0,0-.3.2-1.1.2-1.9,0-3.2-3.5-3.6-3.6h0c0,1,0,1.8,0,2.7s-.4.9-.9.9-.7,0-1-.1c.2-.2.3-2.8.3-4.1Z"/>
        <path class="st2" d="M89.1,74.4c0-3.2-.3-3.6-.3-3.6.2,0,.5-.1.7-.1.6,0,1.2.3,1.2.9,0,1.5,0,3.1,0,4.2s0,1.5.7,1.5.5-.2.5-.2h0s-.3.9-1.5.9-1.3-.3-1.3-1.1,0-1.6,0-2.4ZM88.9,68.6c0-.5.4-.9.9-.9s.9.4.9.9-.4.9-.9.9-.9-.4-.9-.9Z"/>
        <path class="st2" d="M93.2,74.4c0-2.8-.3-3.6-.3-3.6.2,0,.5-.1.7-.1.6,0,1.1.3,1.1.9s0,.5,0,.5h0c.4-.9,1.3-1.4,2.1-1.4s.7.2.7.5,0,.7-.2,1h0c-.4-.2-.8-.4-1.1-.4-1.1,0-1.4,1.1-1.4,2.7,0,2.7.3,3.2.3,3.3-.3,0-.7.1-1,.1-.5,0-.9-.2-.9-1.1s0-1.7,0-2.4Z"/>
        <path class="st2" d="M101.8,73.5h0c0-1.3-.3-1.9-1.3-1.9s-1.4.4-1.9.8h0c.2-.9,1.3-1.8,2.6-1.8,2,0,2.2,1.2,2.2,2.4s0,1.7,0,2.4v.2c0,.5,0,1.5.7,1.5s.5-.2.5-.2h0s-.3.9-1.5.9-1.2-.2-1.2-1h0c-.3.6-1,1-1.9,1s-1.8-.8-1.8-1.9c0-2,2.3-2.6,3.8-2.6ZM99.5,69.7c1.2-.6,1.8-2,1.9-2.3.8,0,1.1.7,1.1.7-.2.9-1.7,1.8-2.6,1.8s-.3,0-.4,0h0ZM100.6,77c.5,0,1.2-.4,1.2-1s0-1.3,0-2c-.6,0-2.2.3-2.2,1.8s.4,1.1.9,1.1Z"/>
        <path class="st2" d="M105.9,74.4c0-.7,0-1.4,0-2.1,0-1.3-.3-1.5-.3-1.5.2,0,.5-.1.7-.1.6,0,1.1.3,1.1.8s0,.3,0,.3h0c.3-.7,1.4-1.2,2.4-1.2,1.8,0,2,1,2,2s0,1.9,0,3.1,0,1.5.7,1.5.5-.2.5-.2h0s-.3.9-1.5.9-1.3-.3-1.3-1.1c0-1.2,0-2,0-3.4s0-1.9-1.2-1.9-1.7.7-1.7,2,0,2.2,0,3.5-.4.9-.9.9-.7,0-1-.1c0,0,.3-.9.3-3.4Z"/>
        <path class="st2" d="M114.4,79.7c.8,0,1.5-.3,2-1.4l.2-.5c-.5-.1-1-.4-1.2-1-.4-1.3-1.3-3.9-1.8-5-.1-.3-.3-.6-.6-.8h0c.3-.1.6-.2,1-.2s1,.2,1.1.6c.3,1.2,1.2,3.9,1.8,5.4,1.9-5.5,1.2-6,2.4-6s.6.1.6.1h0c0,0-.4.3-.7,1.3l-2.1,5.8c-.8,2.1-1.9,3-3,3s-.8-.5-.9-1.4c.4,0,.7.1,1.1.1Z"/>
        <path class="st2" d="M121.3,72.8c0-1.2,0-1.2-.6-1.4v-.6c.6,0,1.9-1.2,2.1-1.6h.3c0,.1-.3,1.6-.3,1.6h1.1c.6,0,.8-.1.8-.1,0,0,0,.3,0,.4,0,.6-.3.7-.8.7s-1.1,0-1.1,0c0,0,0,1.6,0,2.7s.1,2.5,1.2,2.5,1.5-.7,1.5-.7h0c0,0-.5,1.7-2.2,1.7s-2.1-1.1-2.1-2.7,0-1.9,0-2.5Z"/>
        <path class="st2" d="M126.2,79c.5,0,.9-.4.9-.9s-.7-.3-.7-1.2.4-.9.9-.9c.7,0,1.1.7,1.1,1.4s-.5,2-1.7,2-1-.5-1-.5h0c0,0,.2,0,.5,0Z"/>
      </g>
    </g>
    <g class="st1">
      <g class="st1">
        <path class="st2" d="M53.1,92.8h0s.8,1,2.2,1,1.2-.5,1.2-1c0-1.4-3.6-1.2-3.6-3.6s1.3-2.1,2.6-2.1,2.1.2,2.1.8-.2.7-.5,1h0s-.7-1.2-1.7-1.2-1.1.4-1.1,1.1c0,1.4,3.6,1.1,3.6,3.6s-1.4,2.1-2.7,2.1-2.4-.4-2.4-1,.2-.6.3-.8Z"/>
        <path class="st2" d="M58.9,94.1c0-.2,0-.4.2-.6.7-1,2.8-4.2,3.4-5.3h0c-.8,0-2,0-2.8,0s-.6-.5-.6-1c0,0,.7.2,2.9.2h2.6v.2c0,.2,0,.4-.2.7-1.3,2-2.6,4-3.4,5.3h0c.6-.1,1.8-.1,2.8-.1s1,.2,1.1,1.1c0,0-.9-.1-3.2-.1h-2.6s0-.1,0-.2Z"/>
        <path class="st2" d="M69.3,90.1h0c0-1.3-.3-1.9-1.3-1.9s-1.4.4-1.9.8h0c.2-.9,1.3-1.8,2.6-1.8,2,0,2.2,1.2,2.2,2.4s0,1.7,0,2.4v.2c0,.5,0,1.5.7,1.5s.5-.2.5-.2h0s-.3.9-1.5.9-1.2-.2-1.2-1h0c-.3.6-1,1-1.9,1s-1.8-.8-1.8-1.9c0-2,2.3-2.6,3.8-2.6ZM68,93.6c.5,0,1.2-.4,1.2-1s0-1.3,0-2c-.6,0-2.2.3-2.2,1.8s.4,1.1.9,1.1Z"/>
        <path class="st2" d="M73.3,90.3c0-1.8,0-3.6,0-4.8,0-1.3-.3-1.6-.3-1.6h0c.9,0,1.8.1,1.8,1,0,1.4,0,2.9,0,4.3v1.1h0l.2-.2c1.8-1.8,2.2-2.2,2.3-2.7,0,0,.4-.1.8-.1s.7,0,.7.3c0,.5-1.5,1.4-2.7,2.5h0c.7.9,2.4,3.3,3.6,4.1h0c0,0-.3.2-1.1.2-1.9,0-3.2-3.5-3.6-3.6h0c0,1,0,1.8,0,2.7s-.4.9-.9.9-.7,0-1-.1c.2-.2.3-2.8.3-4.1Z"/>
        <path class="st2" d="M80.8,89.4c0-1.2,0-1.2-.6-1.4v-.6c.6,0,1.9-1.2,2.1-1.6h.3c0,.1-.3,1.6-.3,1.6h1.1c.6,0,.8-.1.8-.1,0,0,0,.3,0,.4,0,.6-.3.7-.8.7s-1.1,0-1.1,0c0,0,0,1.6,0,2.7s.1,2.5,1.2,2.5,1.5-.7,1.5-.7h0c0,0-.5,1.7-2.2,1.7s-2.1-1.1-2.1-2.7,0-1.9,0-2.5Z"/>
        <path class="st2" d="M88.8,87.2c1.8,0,2.6,1,2.6,2,0,1.4-1.5,1.9-2.7,1.9s-1.5-.4-1.5-.4h0c0,1.7.8,2.8,2.2,2.8s2.2-.8,2.2-.8h0c0,0-.5,1.8-2.8,1.8s-3.2-1.5-3.2-3.5,1.3-3.9,3.3-3.9ZM88.4,90.4c.6,0,1.3-.3,1.3-1.2s-.3-1.3-1.1-1.3-1.5,1.7-1.5,2.2.7.3,1.3.3Z"/>
        <path class="st2" d="M93.3,91c0-2.8-.3-3.6-.3-3.6.2,0,.5-.1.7-.1.6,0,1.1.3,1.1.9s0,.5,0,.5h0c.4-.9,1.3-1.4,2.1-1.4s.7.2.7.5,0,.7-.2,1h0c-.4-.2-.8-.4-1.1-.4-1.1,0-1.4,1.1-1.4,2.7,0,2.7.3,3.2.3,3.3-.3,0-.7.1-1,.1-.5,0-.9-.2-.9-1.1s0-1.7,0-2.4Z"/>
        <path class="st2" d="M98.8,90.5c0-.3,0-1.1,0-1.7,0-.6-.1-1.1-.3-1.3.2,0,.5-.1.7-.1.6,0,1.2.3,1.2.9,0,1.2,0,2,0,3.4s0,2.1,1.2,2.1,1.7-1.7,1.7-2.9,0-1.7,0-2.2c0-.9-.2-1.3-.2-1.3.2,0,.5-.1.7-.1.7,0,1.2.3,1.2.9,0,1.3-.1,2.6-.1,4.2s0,1.4.7,1.4.5-.2.5-.2h0s-.3.9-1.5.9-1.1-.3-1.1-1,0-.1,0-.1h0s-.5,1.2-2.2,1.2-2.2-1.1-2.2-2.2,0-1.2,0-1.9ZM99.4,85.1c0-.4.4-.8.8-.8s.8.4.8.8-.4.8-.8.8-.8-.4-.8-.8ZM102.1,85.1c0-.4.4-.8.8-.8s.8.4.8.8-.4.8-.8.8-.8-.4-.8-.8Z"/>
        <path class="st2" d="M107.2,88.9c0-1.3,0-2.6,0-3.4,0-1.3-.3-1.6-.3-1.6h0c.9,0,1.8.1,1.8,1,0,1.4,0,2.9,0,4.3s0,2.5,0,3.7c0,.5.1.9.6.9s.5-.2.5-.2h0s-.3.9-1.5.9-1.3-.3-1.3-1.2,0-2.8,0-4.4Z"/>
        <path class="st2" d="M113.9,87.2c1.8,0,2.6,1,2.6,2,0,1.4-1.5,1.9-2.7,1.9s-1.5-.4-1.5-.4h0c0,1.7.8,2.8,2.2,2.8s2.2-.8,2.2-.8h0c0,0-.5,1.8-2.8,1.8s-3.2-1.5-3.2-3.5,1.3-3.9,3.3-3.9ZM113.5,90.4c.6,0,1.3-.3,1.3-1.2s-.3-1.3-1.1-1.3-1.5,1.7-1.5,2.2.7.3,1.3.3Z"/>
        <path class="st2" d="M118.4,89.4c0-1.2,0-1.2-.6-1.4v-.6c.6,0,1.9-1.2,2.1-1.6h.3c0,.1-.3,1.6-.3,1.6h1.1c.6,0,.8-.1.8-.1,0,0,0,.3,0,.4,0,.6-.3.7-.8.7s-1.1,0-1.1,0c0,0,0,1.6,0,2.7s.1,2.5,1.2,2.5,1.5-.7,1.5-.7h0c0,0-.5,1.7-2.2,1.7s-2.1-1.1-2.1-2.7,0-1.9,0-2.5Z"/>
        <path class="st2" d="M126.5,87.2c1.8,0,2.6,1,2.6,2,0,1.4-1.5,1.9-2.7,1.9s-1.5-.4-1.5-.4h0c0,1.7.8,2.8,2.2,2.8s2.2-.8,2.2-.8h0c0,0-.5,1.8-2.8,1.8s-3.2-1.5-3.2-3.5,1.3-3.9,3.3-3.9ZM126,90.4c.6,0,1.3-.3,1.3-1.2s-.3-1.3-1.1-1.3-1.5,1.7-1.5,2.2.7.3,1.3.3Z"/>
        <path class="st2" d="M130.9,89.4c0-1.2,0-1.2-.6-1.4v-.6c.6,0,1.9-1.2,2.1-1.6h.3c0,.1-.3,1.6-.3,1.6h1.1c.6,0,.8-.1.8-.1,0,0,0,.3,0,.4,0,.6-.3.7-.8.7s-1.1,0-1.1,0c0,0,0,1.6,0,2.7s.1,2.5,1.2,2.5,1.5-.7,1.5-.7h0c0,0-.5,1.7-2.2,1.7s-2.1-1.1-2.1-2.7,0-1.9,0-2.5Z"/>
        <path class="st2" d="M135.9,95.6c.5,0,.9-.4.9-.9s-.7-.3-.7-1.2.4-.9.9-.9c.7,0,1.1.7,1.1,1.4s-.5,2-1.7,2-1-.5-1-.5h0c0,0,.2,0,.5,0Z"/>
      </g>
    </g>
    <g class="st1">
      <g class="st1">
        <path class="st2" d="M54.3,107.7c0-.7,0-1.4,0-2.1,0-1.3-.3-1.5-.3-1.5.2,0,.5-.1.7-.1.6,0,1.1.3,1.1.8s0,.3,0,.3h0c.3-.7,1.3-1.1,2.2-1.1,1.3,0,1.8.5,1.9,1.1h0c.3-.7,1.3-1.1,2.2-1.1,1.8,0,2,1,2,1.9s0,1.9,0,3.1,0,1.5.7,1.5.5-.2.5-.2h0s-.3.9-1.5.9-1.3-.3-1.3-1.1c0-1.2,0-2,0-3.4s0-1.8-1.2-1.8-1.5,1.8-1.5,2.4,0,2.4,0,2.5c0,1-.3,1.2-.5,1.4-.5,0-1-.1-1-1.1s0-2.1,0-3.5,0-1.8-1.2-1.8-1.4.7-1.4,1.9,0,2.2,0,3.5-.4.9-.9.9-.7,0-1-.1c0,0,.3-.9.3-3.4Z"/>
        <path class="st2" d="M66.5,107.2c0-.3,0-1.1,0-1.7,0-.6-.1-1.1-.3-1.3.2,0,.5-.1.7-.1.6,0,1.2.3,1.2.9,0,1.2,0,2,0,3.4s0,2.1,1.2,2.1,1.7-1.7,1.7-2.9,0-1.7,0-2.2c0-.9-.2-1.3-.2-1.3.2,0,.5-.1.7-.1.7,0,1.2.3,1.2.9,0,1.3-.1,2.6-.1,4.2s0,1.4.7,1.4.5-.2.5-.2h0s-.3.9-1.5.9-1.1-.3-1.1-1,0-.1,0-.1h0s-.5,1.2-2.2,1.2-2.2-1.1-2.2-2.2,0-1.2,0-1.9Z"/>
        <path class="st2" d="M75,107.7c0-.7,0-1.4,0-2.1,0-1.3-.3-1.5-.3-1.5.2,0,.5-.1.7-.1.6,0,1.1.3,1.1.8s0,.3,0,.3h0c.3-.7,1.4-1.2,2.4-1.2,1.8,0,2,1,2,2s0,1.9,0,3.1,0,1.5.7,1.5.5-.2.5-.2h0s-.3.9-1.5.9-1.3-.3-1.3-1.1c0-1.2,0-2,0-3.4s0-1.9-1.2-1.9-1.7.7-1.7,2,0,2.2,0,3.5-.4.9-.9.9-.7,0-1-.1c0,0,.3-.9.3-3.4Z"/>
        <path class="st2" d="M83.5,107c0-1.8,0-3.6,0-4.8,0-1.3-.3-1.6-.3-1.6h0c.9,0,1.8.1,1.8,1,0,1.4,0,2.9,0,4.3v1.1h0l.2-.2c1.8-1.8,2.2-2.2,2.3-2.7,0,0,.4-.1.8-.1s.7,0,.7.3c0,.5-1.5,1.4-2.7,2.5h0c.7.9,2.4,3.3,3.6,4.1h0c0,0-.3.2-1.1.2-1.9,0-3.2-3.5-3.6-3.6h0c0,1,0,1.8,0,2.7s-.4.9-.9.9-.7,0-1-.1c.2-.2.3-2.8.3-4.1Z"/>
        <path class="st2" d="M94,106.8h0c0-1.3-.3-1.9-1.3-1.9s-1.4.4-1.9.8h0c.2-.9,1.3-1.8,2.6-1.8,2,0,2.2,1.2,2.2,2.4s0,1.7,0,2.4v.2c0,.5,0,1.5.7,1.5s.5-.2.5-.2h0s-.3.9-1.5.9-1.2-.2-1.2-1h0c-.3.6-1,1-1.9,1s-1.8-.8-1.8-1.9c0-2,2.3-2.6,3.8-2.6ZM92.8,110.3c.5,0,1.2-.4,1.2-1s0-1.3,0-2c-.6,0-2.2.3-2.2,1.8s.4,1.1.9,1.1Z"/>
        <path class="st2" d="M98,107.2v-2.5c0-1.3,0-3.9-.3-4.2h0c1.8,0,1.8.6,1.8,2.2s0,1.6-.2,2.3h0c.3-.7,1.4-1.2,2.4-1.2,1.8,0,2,1,2,1.9s0,2,0,3.2,0,1.5.7,1.5.5-.2.5-.2h0s-.3.9-1.5.9-1.3-.3-1.3-1.1c0-1.2,0-2.1,0-3.5s0-1.8-1.2-1.8-1.7.7-1.7,2,0,2.2,0,3.5-.4.9-.9.9-.7,0-1-.1c0,0,.3-.3.3-3.9Z"/>
        <path class="st2" d="M109.1,103.9c1.8,0,2.6,1,2.6,2,0,1.4-1.5,1.9-2.7,1.9s-1.5-.4-1.5-.4h0c0,1.7.8,2.8,2.2,2.8s2.2-.8,2.2-.8h0c0,0-.5,1.8-2.8,1.8s-3.2-1.5-3.2-3.5,1.3-3.9,3.3-3.9ZM108.7,107.1c.6,0,1.3-.3,1.3-1.2s-.3-1.3-1.1-1.3-1.5,1.7-1.5,2.2.7.3,1.3.3Z"/>
        <path class="st2" d="M113.6,105.6c0-1.3,0-2.6,0-3.4,0-1.3-.2-1.6-.2-1.6h0c.9,0,1.8.1,1.8,1,0,1.4,0,2.9,0,4.3s0,2.5,0,3.7c0,.5.1.9.6.9s.5-.2.5-.2h0s-.3.9-1.5.9-1.3-.3-1.3-1.2,0-2.8,0-4.4Z"/>
        <path class="st2" d="M117.8,113c.8,0,1.5-.3,2-1.4l.2-.5c-.5-.1-1-.4-1.2-1-.4-1.3-1.3-3.9-1.8-5-.1-.3-.3-.6-.6-.8h0c.3-.1.6-.2,1-.2s1,.2,1.1.6c.3,1.2,1.2,3.9,1.8,5.4,1.9-5.5,1.2-6,2.4-6s.6.1.6.1h0c0,0-.4.3-.7,1.3l-2.1,5.8c-.8,2.1-1.9,3-3,3s-.8-.5-.9-1.4c.4,0,.7.1,1.1.1Z"/>
        <path class="st2" d="M127.3,103.9c1.8,0,2.6,1,2.6,2,0,1.4-1.5,1.9-2.7,1.9s-1.5-.4-1.5-.4h0c0,1.7.8,2.8,2.2,2.8s2.2-.8,2.2-.8h0c0,0-.5,1.8-2.8,1.8s-3.2-1.5-3.2-3.5,1.3-3.9,3.3-3.9ZM126.9,107.1c.6,0,1.3-.3,1.3-1.2s-.3-1.3-1.1-1.3-1.5,1.7-1.5,2.2.7.3,1.3.3Z"/>
        <path class="st2" d="M131.8,106.1c0-1.2,0-1.2-.6-1.4v-.6c.6,0,1.9-1.2,2.1-1.6h.3c0,.1-.3,1.6-.3,1.6h1.1c.6,0,.8-.1.8-.1,0,0,0,.3,0,.4,0,.6-.3.7-.8.7s-1.1,0-1.1,0c0,0,0,1.6,0,2.7s.1,2.5,1.2,2.5,1.5-.7,1.5-.7h0c0,0-.5,1.7-2.2,1.7s-2.1-1.1-2.1-2.7,0-1.9,0-2.5Z"/>
      </g>
    </g>
    <g class="st1">
      <g class="st1">
        <path class="st2" d="M73.6,121.6c-.1-.3-.3-.6-.6-.8h0c.3-.1.6-.2,1-.2s1,.2,1.1.6c.3,1.2,1.2,3.8,1.8,5.3h0c1.9-5.4,1.2-5.9,2.4-5.9s.6.1.6.1h0c0,0-.3.3-.7,1.3l-2.1,5.8s-1.5,0-1.9-1.2c-.4-1.3-1.3-3.9-1.8-5Z"/>
        <path class="st2" d="M84.3,123.4h0c0-1.3-.3-1.9-1.3-1.9s-1.4.4-1.9.8h0c.2-.9,1.3-1.8,2.6-1.8,2,0,2.2,1.2,2.2,2.4s0,1.7,0,2.4v.2c0,.5,0,1.5.7,1.5s.5-.2.5-.2h0s-.3.9-1.5.9-1.2-.2-1.2-1h0c-.3.6-1,1-1.9,1s-1.8-.8-1.8-1.9c0-2,2.3-2.6,3.8-2.6ZM82,119.6c1.2-.6,1.8-2,1.9-2.3.8,0,1.1.7,1.1.7-.2.9-1.7,1.8-2.6,1.8s-.3,0-.4,0h0ZM83,126.9c.5,0,1.2-.4,1.2-1s0-1.3,0-2c-.6,0-2.2.3-2.2,1.8s.4,1.1.9,1.1Z"/>
        <path class="st2" d="M88.2,122.2c0-1.3,0-2.6,0-3.4,0-1.3-.3-1.6-.3-1.6h0c.9,0,1.8.1,1.8,1,0,1.4,0,2.9,0,4.3s0,2.5,0,3.7c0,.5.1.9.6.9s.5-.2.5-.2h0s-.3.9-1.5.9-1.3-.3-1.3-1.2,0-2.8,0-4.4Z"/>
        <path class="st2" d="M92.3,122.7c0-1.2,0-1.2-.6-1.4v-.6c.6,0,1.9-1.2,2.1-1.6h.3c0,.1-.3,1.6-.3,1.6h1.1c.6,0,.8-.1.8-.1,0,0,0,.3,0,.4,0,.6-.3.7-.8.7s-1.1,0-1.1,0c0,0,0,1.6,0,2.7s.1,2.5,1.2,2.5,1.5-.7,1.5-.7h0c0,0-.5,1.7-2.2,1.7s-2.1-1.1-2.1-2.7,0-1.9,0-2.5Z"/>
        <path class="st2" d="M100.7,123.4h0c0-1.3-.3-1.9-1.3-1.9s-1.4.4-1.9.8h0c.2-.9,1.3-1.8,2.6-1.8,2,0,2.2,1.2,2.2,2.4s0,1.7,0,2.4v.2c0,.5,0,1.5.7,1.5s.5-.2.5-.2h0s-.3.9-1.5.9-1.2-.2-1.2-1h0c-.3.6-1,1-1.9,1s-1.8-.8-1.8-1.9c0-2,2.3-2.6,3.8-2.6ZM99.5,126.9c.5,0,1.2-.4,1.2-1s0-1.3,0-2c-.6,0-2.2.3-2.2,1.8s.4,1.1.9,1.1Z"/>
        <path class="st2" d="M104.7,124.3c0-.7,0-1.4,0-2.1,0-1.3-.3-1.5-.3-1.5.2,0,.5-.1.7-.1.6,0,1.1.3,1.1.8s0,.3,0,.3h0c.3-.7,1.4-1.2,2.4-1.2,1.8,0,2,1,2,2s0,1.9,0,3.1,0,1.5.7,1.5.5-.2.5-.2h0s-.3.9-1.5.9-1.3-.3-1.3-1.1c0-1.2,0-2,0-3.4s0-1.9-1.2-1.9-1.7.7-1.7,2,0,2.2,0,3.5-.4.9-.9.9-.7,0-1-.1c0,0,.3-.9.3-3.4Z"/>
        <path class="st2" d="M113.2,124.3c0-3.2-.3-3.6-.3-3.6.2,0,.5-.1.7-.1.6,0,1.2.3,1.2.9,0,1.5,0,3.1,0,4.2s0,1.5.7,1.5.5-.2.5-.2h0s-.3.9-1.5.9-1.3-.3-1.3-1.1,0-1.6,0-2.4ZM112.9,118.5c0-.5.4-.9.9-.9s.9.4.9.9-.4.9-.9.9-.9-.4-.9-.9Z"/>
      </g>
    </g>
  </g>
</svg>