<?xml version="1.0" encoding="UTF-8"?>
<svg id="Layer_1" xmlns="http://www.w3.org/2000/svg" version="1.1" viewBox="0 0 200 200">
  <!-- Generator: Adobe Illustrator 29.1.0, SVG Export Plug-In . SVG Version: 2.1.0 Build 142)  -->
  <defs>
    <style>
      .st0 {
        isolation: isolate;
      }

      .st1 {
        fill: #5f883c;
      }

      .st2 {
        fill: #fff;
      }
    </style>
  </defs>
  <path class="st1" d="M140,50.7c17.5,12.3,35.7,26.9,40,47.1,4.2,20.2-5.3,46-23.9,61.7-18.8,15.8-46.7,21.3-69.9,14.4-23.3-6.8-42-26.1-53.2-49.5-11.3-23.1-15-50.4-4.6-68.5,10.5-18.3,35.2-27.7,56.1-27.6,20.9.2,38,9.9,55.5,22.2h0Z"/>
  <g class="st0">
    <g class="st0">
      <path class="st2" d="M60.6,64.7c2.4-.2,3.5,1.2,3.6,2.4.1,1.8-1.8,2.6-3.4,2.7-1.1,0-2.1-.4-2.1-.4h0c.1,2.2,1.3,3.7,3.2,3.6,1.5,0,2.8-1.2,2.8-1.2h0c0,0-.5,2.5-3.6,2.7-2.5.2-4.4-1.7-4.6-4.4-.2-2.5,1.3-5.2,4-5.4ZM58.4,63.6c1.5-.9,2.2-2.8,2.3-3.3,1,0,1.5.8,1.5.8-.2,1.3-2.1,2.5-3.2,2.6-.1,0-.4,0-.6,0h0ZM60.4,68.9c.8,0,1.7-.6,1.6-1.7,0-.9-.5-1.7-1.5-1.7-1.3,0-1.9,2.4-1.8,3.1,0,.1,1,.4,1.7.3Z"/>
      <path class="st2" d="M66.9,69.3c-.2-3.7-.7-4.7-.8-4.7.3-.1.6-.2.9-.2.8,0,1.5.3,1.6,1.1,0,.3,0,.7,0,.7h0c.4-1.2,1.7-2,2.7-2,.7,0,.9.3.9.7,0,.4,0,.9-.1,1.3h0c-.6-.2-1.1-.4-1.5-.4-1.4,0-1.7,1.6-1.6,3.6.2,3.6.7,4.3.7,4.3-.5.1-.9.2-1.3.3-.7,0-1.2-.2-1.2-1.3,0-1.1,0-2.2-.1-3.2Z"/>
      <path class="st2" d="M77.4,63.6c2.4-.2,3.5,1.2,3.6,2.4.1,1.8-1.8,2.6-3.4,2.7-1.1,0-2.1-.4-2.1-.4h0c.1,2.2,1.3,3.7,3.2,3.6,1.5,0,2.8-1.2,2.8-1.2h0c0,0-.5,2.5-3.6,2.7-2.5.2-4.4-1.7-4.6-4.4-.2-2.5,1.3-5.2,4-5.4ZM77.2,67.8c.8,0,1.7-.6,1.6-1.7,0-.9-.5-1.7-1.5-1.7-1.3,0-1.9,2.4-1.8,3.1,0,.1,1,.4,1.7.3Z"/>
      <path class="st2" d="M83.6,66.1c-.1-1.6-.2-1.6-1-1.8v-.8c.7,0,2.4-1.7,2.6-2.3h.4c0,.1-.2,2.1-.2,2.1h1.5c.8-.1,1-.3,1-.3,0,.1,0,.4,0,.5,0,.8-.3,1-1,1-.2,0-1.5,0-1.5,0,0,0,0,2.2.2,3.6.1,1.8.4,3.4,1.8,3.3.9,0,1.9-1,1.9-1h0c0,0-.5,2.2-2.7,2.4-2.2.1-2.9-1.3-3-3.4,0-1.2,0-2.6-.1-3.3Z"/>
      <path class="st2" d="M90.7,65.7c-.1-1.6-.2-1.6-1-1.8v-.8c.7,0,2.4-1.7,2.6-2.3h.4c0,.1-.2,2.1-.2,2.1h1.5c.8-.1,1-.3,1-.3,0,.1,0,.4,0,.5,0,.8-.3,1-1,1-.2,0-1.5,0-1.5,0,0,0,0,2.2.2,3.6.1,1.8.4,3.4,1.8,3.3.9,0,1.9-1,1.9-1h0c0,0-.5,2.2-2.7,2.4-2.1.1-2.9-1.3-3-3.4,0-1.2,0-2.6-.1-3.3Z"/>
      <path class="st2" d="M97.6,69.8h0s1.2,1.2,3,1.1c1.2,0,1.6-.7,1.5-1.4-.1-1.9-4.9-1.3-5.1-4.4-.1-1.8,1.5-2.8,3.2-3,.7,0,2.8,0,2.8.9,0,.4-.3,1-.6,1.4h0s-1-1.5-2.4-1.4c-.8,0-1.4.7-1.3,1.5.1,1.9,4.9,1.1,5.1,4.4.1,1.9-1.6,2.9-3.3,3.1-1.2,0-3.2-.3-3.2-1.1,0-.3.2-.8.3-1Z"/>
      <path class="st2" d="M109.2,61.5c2.4-.2,3.5,1.2,3.6,2.4.1,1.8-1.8,2.6-3.4,2.7-1.1,0-2.1-.4-2.1-.4h0c.1,2.2,1.3,3.7,3.2,3.6,1.5,0,2.8-1.2,2.8-1.2h0c0,0-.5,2.5-3.6,2.7-2.5.2-4.4-1.7-4.6-4.4-.2-2.5,1.3-5.2,4-5.4ZM107,60.5c1.5-.9,2.2-2.8,2.3-3.3,1,0,1.5.8,1.5.8-.2,1.3-2.1,2.5-3.2,2.6-.1,0-.4,0-.6,0h0ZM108.9,65.8c.8,0,1.7-.6,1.6-1.7,0-.9-.5-1.7-1.5-1.7-1.3,0-1.9,2.4-1.8,3.1,0,.1,1,.4,1.7.3Z"/>
      <path class="st2" d="M116.5,71.5c.1.9.8,2.5,2.8,2.3,1.1,0,2.2-.6,2.1-1.7-.1-1.6-5.1-.2-5.3-2.9,0-.8.4-1.4.8-1.7-1.5-.3-2.3-1.2-2.4-2.8-.1-2,1.5-3.6,3.9-3.7.7,0,1.4,0,1.9.2,1,0,1.2-1,1.2-2,.6,0,1.4,0,1.4.7,0,.9-.9,1.5-1.8,1.8.7.5,1.2,1.3,1.2,2.3.1,2-1.5,3.6-3.9,3.7-.3,0-.6,0-.8,0-.1.2-.2.5-.2.7,0,1.4,5.6-.1,5.8,3,.1,1.7-1.6,3.2-4.2,3.3-2.5.2-3.9-1.2-3.9-2.2,0-.8.9-.9,1.5-.9ZM120.2,64.4c0-1.4-.7-2.6-2.1-2.5-1,0-1.7,1.1-1.7,2.4,0,1.4.7,2.6,2.1,2.5,1,0,1.7-1.1,1.7-2.4Z"/>
      <path class="st2" d="M124.1,57.9c0-.7.5-1.3,1.2-1.3.7,0,1.3.5,1.3,1.2,0,.7-.5,1.3-1.2,1.3-.7,0-1.3-.5-1.3-1.2ZM124.9,65.6c-.3-4.2-.7-4.7-.7-4.7.3-.1.6-.2.9-.2.8,0,1.6.3,1.6,1.1.1,1.9.2,4.2.3,5.5,0,.8.1,1.9,1,1.9.4,0,.7-.3.7-.3h0s-.4,1.2-2,1.3c-.8,0-1.7-.3-1.8-1.4,0-1,0-2.1-.1-3.1Z"/>
    </g>
    <g class="st0">
      <path class="st2" d="M76.8,90.1c0-.4,0-1.4-.2-2.3-.1-.8-.2-1.4-.5-1.7.3,0,.6-.2.9-.2.8,0,1.6.3,1.6,1.1.1,1.5.1,2.7.2,4.5,0,1.5.3,2.8,1.7,2.7,1.7-.1,2.1-2.4,2-4,0-1.2-.2-2.2-.3-2.8-.2-1.2-.4-1.6-.4-1.6.3-.1.6-.2.9-.2.9,0,1.6.3,1.7,1.1.1,1.7,0,3.4.2,5.5,0,.7.2,1.9,1,1.9.4,0,.7-.3.7-.3h0s-.4,1.2-2,1.3c-.7,0-1.5-.3-1.6-1.2,0,0,0-.2,0-.2h0s-.6,1.6-2.8,1.8c-2.4.2-3-1.2-3.1-2.7,0-.8,0-1.6-.1-2.5Z"/>
      <path class="st2" d="M87.9,88c-.1-1.6-.2-1.6-1-1.8v-.8c.7,0,2.4-1.7,2.6-2.3h.4c0,.1-.2,2.1-.2,2.1h1.5c.8-.1,1-.3,1-.3,0,.1,0,.4,0,.5,0,.8-.3,1-1,1-.2,0-1.5,0-1.5,0,0,0,0,2.2.2,3.6.1,1.8.4,3.4,1.8,3.3.9,0,1.9-1,1.9-1h0c0,0-.5,2.2-2.7,2.4-2.1.1-2.9-1.3-3-3.4,0-1.2,0-2.6-.1-3.3Z"/>
      <path class="st2" d="M99.1,88.1v-.2c-.1-1.5-.5-2.4-1.9-2.3-.9,0-1.8.6-2.5,1.3h0c.2-1.2,1.6-2.4,3.3-2.5,2.6-.2,3.1,1.4,3.2,3,0,1,0,2.2.2,3.2v.2c0,.7.2,2,1.1,2,.4,0,.7-.3.7-.3h0s-.4,1.2-2,1.3c-.8,0-1.6-.2-1.6-1.2h0c-.4.8-1.2,1.5-2.4,1.5-1.5.1-2.5-1-2.6-2.3-.2-2.7,2.8-3.6,4.8-3.8ZM95.6,83.4c1.5-.9,2.2-2.8,2.3-3.3,1,0,1.5.8,1.5.8-.2,1.3-2.1,2.5-3.2,2.6-.1,0-.4,0-.6,0h0ZM97.7,92.9c.6,0,1.6-.7,1.6-1.4,0-.7,0-1.7-.1-2.7-.7.2-2.9.6-2.8,2.6,0,1.1.7,1.5,1.3,1.4Z"/>
      <path class="st2" d="M104.5,89c0-.9-.2-1.9-.3-2.8-.2-1.8-.5-1.9-.5-1.9.3-.1.6-.2.9-.2.8,0,1.5.3,1.5.9,0,.2,0,.5,0,.5h0c.4-1,1.8-1.7,3.1-1.8,2.4-.2,2.8,1.1,2.9,2.5,0,1.3,0,2.6.2,4.1,0,.8.1,1.9,1,1.9.4,0,.7-.3.7-.3h0s-.4,1.2-2,1.3c-.8,0-1.7-.3-1.8-1.4-.1-1.6-.1-2.7-.2-4.6,0-1.3-.2-2.5-1.8-2.4-1,0-2.1,1-2,2.8.1,1.7.3,2.9.4,4.6,0,1-.4,1.3-1.1,1.3-.4,0-.9,0-1.3,0,.1,0,.4-1.2.2-4.5Z"/>
    </g>
  </g>
  <g class="st0">
    <g class="st0">
      <path class="st2" d="M63.4,118.9h0s1.2,1.2,3,1.1c1.2,0,1.6-.7,1.5-1.4-.1-1.9-4.9-1.3-5.1-4.4-.1-1.8,1.5-2.8,3.2-3,.7,0,2.8,0,2.8.9,0,.4-.3,1-.6,1.4h0s-1-1.5-2.4-1.4c-.8,0-1.4.7-1.3,1.5.1,1.9,4.9,1.1,5.1,4.4.1,1.9-1.6,2.9-3.3,3.1-1.2,0-3.2-.3-3.2-1.1,0-.3.2-.8.3-1Z"/>
      <path class="st2" d="M71.1,120.1c0-.2,0-.5.2-.8.8-1.3,3.3-5.8,4-7.3h0c-1,.2-2.6.3-3.7.4-.7,0-.8-.6-.9-1.3,0,0,1,.2,3.8,0l3.4-.2v.2c0,.2,0,.6-.2,1-1.6,2.7-3.1,5.6-4,7.3h0c.8-.2,2.4-.3,3.7-.4,1.3,0,1.3.2,1.5,1.3,0,0-1.1,0-4.2.1l-3.5.2s0-.2,0-.3Z"/>
      <path class="st2" d="M84.5,113.8v-.2c-.1-1.5-.5-2.4-1.9-2.3-.9,0-1.8.6-2.5,1.3h0c.2-1.2,1.6-2.4,3.3-2.5,2.6-.2,3.1,1.4,3.2,3,0,1,0,2.2.2,3.2v.2c0,.7.2,2,1.1,2,.4,0,.7-.3.7-.3h0s-.4,1.2-2,1.3c-.8,0-1.6-.2-1.6-1.2h0c-.4.8-1.2,1.5-2.4,1.5-1.5.1-2.5-1-2.6-2.3-.2-2.7,2.8-3.6,4.8-3.8ZM83.1,118.6c.6,0,1.6-.7,1.6-1.4,0-.7,0-1.7-.1-2.7-.7.2-2.9.6-2.8,2.6,0,1.1.7,1.5,1.3,1.4Z"/>
      <path class="st2" d="M89.8,113.7c-.1-2.3-.3-4.8-.5-6.4-.2-1.7-.5-2-.5-2h0c1.2-.1,2.4,0,2.5,1.1.1,1.9.2,3.8.3,5.7v1.5c0,0,.2,0,.2,0l.2-.3c2.3-2.6,2.8-3,2.8-3.8,0,0,.5-.2,1-.2.6,0,.9,0,.9.3,0,.7-1.8,2-3.4,3.6h0c.9,1.2,3.5,4.2,5.1,5.2h0c0,0-.4.3-1.4.4-2.6.2-4.5-4.3-5.1-4.5h-.1c.1,1.4.2,2.4.3,3.6,0,1-.4,1.3-1.1,1.3-.4,0-.9,0-1.3-.1.3-.3.2-3.7.1-5.5Z"/>
      <path class="st2" d="M99.9,114c0-.9-.2-1.9-.3-2.8-.2-1.8-.5-1.9-.5-1.9.3-.1.6-.2.9-.2.8,0,1.5.3,1.5.9,0,.2,0,.5,0,.5h0c.3-.9,1.6-1.6,2.8-1.7,1.7-.1,2.5.5,2.6,1.3h0c.3-.9,1.6-1.6,2.8-1.7,2.4-.2,2.8,1.1,2.8,2.4,0,1.3,0,2.6.2,4.1,0,.8.1,1.9,1,1.9.4,0,.7-.3.7-.3h0s-.4,1.2-2,1.3c-.8,0-1.7-.3-1.8-1.4-.1-1.6-.1-2.7-.2-4.6,0-1.2-.2-2.4-1.7-2.3-1.7.1-1.8,2.5-1.7,3.4,0,0,.2,3.2.2,3.3,0,1.3-.3,1.6-.6,2-.7,0-1.4,0-1.4-1.3-.1-1.6-.1-2.8-.2-4.6,0-1.2-.2-2.4-1.8-2.3-.8,0-1.8,1-1.7,2.7.1,1.7.3,2.9.4,4.6,0,1-.4,1.3-1.1,1.3-.4,0-.9,0-1.3,0,.1,0,.4-1.2.1-4.5Z"/>
      <path class="st2" d="M120.1,111.5v-.2c-.1-1.5-.5-2.4-1.9-2.3-.9,0-1.8.6-2.5,1.3h0c.2-1.2,1.6-2.4,3.3-2.5,2.6-.2,3.1,1.4,3.2,3,0,1,0,2.2.2,3.2v.2c0,.7.2,2,1.1,2,.4,0,.7-.3.7-.3h0s-.4,1.2-2,1.3c-.8,0-1.6-.2-1.6-1.2h0c-.4.8-1.2,1.5-2.4,1.5-1.5,0-2.5-1-2.6-2.3-.2-2.7,2.8-3.6,4.8-3.8ZM116.6,106.8c1.5-.9,2.2-2.8,2.3-3.3,1,0,1.5.8,1.5.8-.2,1.3-2.1,2.5-3.2,2.6-.1,0-.4,0-.6,0h0ZM118.7,116.3c.6,0,1.6-.7,1.6-1.4,0-.7,0-1.7-.1-2.7-.7.2-2.9.6-2.8,2.6,0,1.1.7,1.5,1.3,1.4Z"/>
      <path class="st2" d="M125.3,110.3c-.1-1.6-.2-1.6-1-1.8v-.8c.7,0,2.4-1.7,2.6-2.3h.4c0,.1-.2,2.1-.2,2.1h1.5c.8-.1,1-.3,1-.3,0,.1,0,.4,0,.5,0,.8-.3,1-1,1-.2,0-1.5,0-1.5,0,0,0,0,2.2.2,3.6.1,1.8.4,3.4,1.8,3.3.9,0,1.9-1,1.9-1h0c0,0-.5,2.2-2.7,2.4-2.2.1-2.9-1.3-3-3.4,0-1.2,0-2.6-.1-3.3Z"/>
    </g>
    <g class="st0">
      <path class="st2" d="M59.7,135.3c-.2-.4-.4-.8-.8-1.1h0c.4-.2.7-.3,1.4-.3.6,0,1.3.1,1.5.7.5,1.6,1.9,4.9,2.8,6.9h0c2-7.3,1-7.9,2.6-8,.6,0,.9,0,.9,0h0c0,0-.4.4-.8,1.8l-2.3,7.9s-2,0-2.6-1.4c-.6-1.6-2-5.1-2.8-6.5Z"/>
      <path class="st2" d="M74,136.7v-.2c-.1-1.5-.5-2.4-1.9-2.3-.9,0-1.8.6-2.5,1.3h0c.2-1.2,1.6-2.4,3.3-2.5,2.6-.2,3.1,1.4,3.2,3,0,1,0,2.2.2,3.2v.2c0,.7.2,2,1.1,2,.4,0,.7-.3.7-.3h0s-.4,1.2-2,1.3c-.8,0-1.6-.2-1.6-1.2h0c-.4.8-1.3,1.5-2.4,1.5-1.5,0-2.5-1-2.6-2.3-.2-2.7,2.8-3.6,4.8-3.8ZM70.6,131.9c1.5-.9,2.2-2.8,2.3-3.3,1,0,1.5.8,1.5.8-.2,1.3-2.1,2.5-3.2,2.6-.1,0-.4,0-.6,0h0ZM72.6,141.4c.6,0,1.6-.7,1.6-1.4,0-.7,0-1.7-.1-2.7-.7.2-2.9.6-2.8,2.6,0,1.1.7,1.5,1.3,1.4Z"/>
      <path class="st2" d="M79.1,134.7c-.1-1.7-.3-3.4-.4-4.6-.2-1.7-.5-2-.5-2h0c1.2-.1,2.4,0,2.5,1.1.1,1.9.2,3.8.3,5.7.1,1.6.2,3.3.4,4.9,0,.6.3,1.2.9,1.2.4,0,.7-.3.7-.3h0s-.4,1.2-2,1.3c-.8,0-1.7-.3-1.8-1.5,0-1.5-.2-3.8-.3-5.9Z"/>
      <path class="st2" d="M88.7,135.7v-.2c-.1-1.5-.5-2.4-1.9-2.3-.9,0-1.8.6-2.5,1.3h0c.2-1.2,1.6-2.4,3.3-2.5,2.6-.2,3.1,1.4,3.2,3,0,1,0,2.2.2,3.2v.2c0,.7.2,2,1.1,2,.4,0,.7-.3.7-.3h0s-.4,1.2-2,1.3c-.8,0-1.6-.2-1.6-1.2h0c-.4.8-1.2,1.5-2.4,1.5-1.5,0-2.5-1-2.6-2.3-.2-2.7,2.8-3.6,4.8-3.8ZM87.3,140.5c.6,0,1.6-.7,1.6-1.4,0-.7,0-1.7-.1-2.7-.7.2-2.9.6-2.8,2.6,0,1.1.7,1.5,1.3,1.4Z"/>
      <path class="st2" d="M93.6,139h0s1.2,1.2,3,1.1c1.2,0,1.6-.7,1.5-1.4-.1-1.9-4.9-1.3-5.1-4.4-.1-1.8,1.5-2.8,3.2-3,.7,0,2.8,0,2.8.9,0,.4-.3,1-.6,1.4h0s-1-1.5-2.4-1.4c-.8,0-1.4.7-1.3,1.5.1,1.9,4.9,1.1,5.1,4.4.1,1.9-1.6,2.9-3.3,3.1-1.2,0-3.2-.3-3.2-1.1,0-.3.2-.8.3-1Z"/>
      <path class="st2" d="M101.4,140.3c0-.2,0-.5.2-.8.8-1.3,3.3-5.8,4-7.3h0c-1,.2-2.6.3-3.7.4-.7,0-.8-.6-.9-1.3,0,0,1,.2,3.8,0l3.4-.2v.2c0,.2,0,.6-.2,1-1.6,2.7-3.1,5.6-4,7.3h0c.8-.2,2.4-.3,3.7-.4,1.3,0,1.3.2,1.5,1.3,0,0-1.1,0-4.2.1l-3.5.2s0-.2,0-.3Z"/>
      <path class="st2" d="M110.7,133.4c-.1-1.6-.2-1.6-1-1.8v-.8c.7,0,2.4-1.7,2.6-2.3h.4c0,.1-.2,2.1-.2,2.1h1.5c.8-.1,1-.3,1-.3,0,.1,0,.4,0,.5,0,.8-.3,1-1,1-.2,0-1.5,0-1.5,0,0,0,0,2.2.2,3.6.1,1.8.4,3.4,1.8,3.3.9,0,1.9-1,1.9-1h0c0,0-.5,2.2-2.7,2.4-2.2.1-2.9-1.3-3-3.4,0-1.2,0-2.6-.1-3.3Z"/>
      <path class="st2" d="M121.9,133.6v-.2c-.1-1.5-.5-2.4-1.9-2.3-.9,0-1.8.6-2.5,1.3h0c.2-1.2,1.6-2.4,3.3-2.5,2.6-.2,3.1,1.4,3.2,3,0,1,0,2.2.2,3.2v.2c0,.7.2,2,1.1,2,.4,0,.7-.3.7-.3h0s-.4,1.2-2,1.3c-.8,0-1.6-.2-1.6-1.2h0c-.4.8-1.2,1.5-2.4,1.5-1.5,0-2.5-1-2.6-2.3-.2-2.7,2.8-3.7,4.8-3.8ZM120.5,138.3c.6,0,1.6-.7,1.6-1.4,0-.7,0-1.7-.1-2.7-.7.2-2.9.6-2.8,2.6,0,1.1.7,1.5,1.3,1.4Z"/>
      <path class="st2" d="M127.3,134.4c0-.9-.2-1.9-.3-2.8-.2-1.8-.5-1.9-.5-1.9.3-.1.6-.2.9-.2.8,0,1.5.3,1.5.9,0,.2,0,.5,0,.5h0c.4-1,1.8-1.7,3.1-1.8,2.4-.2,2.8,1.1,2.9,2.5,0,1.3,0,2.6.2,4.1,0,.8.1,1.9,1,1.9.4,0,.7-.3.7-.3h0s-.4,1.2-2,1.3c-.8,0-1.7-.3-1.8-1.4-.1-1.6-.1-2.7-.2-4.6,0-1.3-.2-2.5-1.8-2.4-1,0-2.1,1-2,2.8.1,1.7.3,2.9.4,4.6,0,1-.4,1.3-1.1,1.3-.4,0-.9,0-1.3,0,.1,0,.4-1.2.1-4.5Z"/>
      <path class="st2" d="M137.6,126c0-.7.5-1.3,1.2-1.3.7,0,1.3.5,1.3,1.2,0,.7-.5,1.3-1.2,1.3-.7,0-1.3-.5-1.3-1.2ZM138.4,133.7c-.3-4.2-.7-4.7-.7-4.7.3-.1.6-.2.9-.2.8,0,1.6.3,1.6,1.1.1,1.9.2,4.2.3,5.5,0,.8.1,1.9,1,1.9.4,0,.7-.3.7-.3h0s-.4,1.2-2,1.3c-.8,0-1.7-.3-1.8-1.4,0-1,0-2.1-.1-3.1Z"/>
    </g>
  </g>
</svg>