<?xml version="1.0" encoding="UTF-8"?>
<svg id="Layer_1" xmlns="http://www.w3.org/2000/svg" version="1.1" viewBox="0 0 200 200">
  <!-- Generator: Adobe Illustrator 29.1.0, SVG Export Plug-In . SVG Version: 2.1.0 Build 142)  -->
  <defs>
    <style>
      .st0 {
        isolation: isolate;
      }

      .st1 {
        fill: #fff;
      }

      .st2 {
        fill: #9db387;
      }
    </style>
  </defs>
  <path class="st2" d="M173,56.3c14.3,11.8,16.4,36.8,7.1,53.5-9.4,16.8-30.2,25.5-52,36.5-21.9,11-44.5,24.2-65.7,20.6-21.1-3.8-40.8-24.5-43.2-45.5-2.5-20.9,12.4-42.2,29.7-54.6,17.4-12.4,37-16.1,60.1-18.6,23.2-2.4,49.6-3.7,64,8.2Z"/>
  <g class="st0">
    <g class="st0">
      <g class="st0">
        <path class="st1" d="M36.7,106.3v-.2c-.2-1.8-.7-2.8-2.4-2.7-1.1.1-2.2.8-2.9,1.6h0c.2-1.4,1.9-3,3.8-3.2,3.1-.3,3.7,1.5,3.9,3.5.1,1.2.2,2.6.3,3.8v.3c.1.9.3,2.4,1.4,2.3.4,0,.8-.4.8-.4h0c0,0-.4,1.5-2.3,1.7-.9,0-1.9-.2-2-1.3h0c-.4.9-1.4,1.8-2.8,2-1.8.2-3-1-3.2-2.6-.3-3.2,3.2-4.5,5.5-4.8ZM32.3,100.7c1.7-1.2,2.5-3.4,2.6-4,1.2,0,1.8.9,1.8.9-.2,1.5-2.4,3.1-3.7,3.3-.2,0-.5,0-.7,0h0ZM35.2,112c.7,0,1.9-.9,1.8-1.7,0-.9-.1-2-.3-3.2-.9.2-3.4.9-3.2,3.2.1,1.3.9,1.7,1.6,1.6Z"/>
        <path class="st1" d="M42.6,103.7c-.2-2.1-.5-4-.7-5.4-.3-2-.6-2.4-.6-2.4h0c1.5-.2,2.9-.1,3,1.2.2,2.2.4,4.5.6,6.8.2,1.9.4,3.9.7,5.9,0,.7.4,1.4,1.1,1.3.4,0,.8-.4.8-.4h0c0,0-.4,1.5-2.3,1.7-1,0-2-.2-2.2-1.7-.2-1.8-.3-4.5-.6-7Z"/>
        <path class="st1" d="M49,103.1c-.2-2.1-.5-4-.7-5.4-.3-2-.6-2.4-.6-2.4h0c1.5-.2,2.8-.1,3,1.2.2,2.2.4,4.5.6,6.8.2,1.9.4,3.9.7,5.9,0,.7.4,1.4,1.1,1.3.4,0,.8-.4.8-.4h0c0,0-.4,1.5-2.3,1.7-1,0-2-.2-2.2-1.7-.2-1.8-.3-4.5-.6-7Z"/>
        <path class="st1" d="M60.4,103.8v-.2c-.2-1.8-.7-2.8-2.4-2.7-1.1.1-2.2.8-2.9,1.6h0c.2-1.4,1.9-3,3.8-3.2,3.1-.3,3.7,1.5,3.9,3.5.1,1.2.2,2.6.3,3.8v.3c.1.9.3,2.4,1.4,2.3.4,0,.8-.4.8-.4h0c0,0-.4,1.5-2.3,1.7-.9,0-1.9-.2-2-1.3h0c-.4.9-1.4,1.8-2.8,2-1.8.2-3-1-3.2-2.6-.3-3.2,3.2-4.5,5.5-4.8ZM59,109.6c.7,0,1.9-.9,1.8-1.7,0-.9-.1-2-.3-3.2-.9.2-3.4.9-3.2,3.2.1,1.3.9,1.7,1.6,1.6Z"/>
        <path class="st1" d="M66.9,104.6c-.1-1.1-.3-2.2-.4-3.3-.3-2.1-.7-2.3-.7-2.3.4-.1.7-.3,1.1-.3,1-.1,1.8.4,1.8,1,0,.3,0,.6,0,.6h0c.3-1.1,1.8-2,3.2-2.1,2.1-.2,3,.5,3.2,1.4h0c.4-1.1,1.9-2,3.3-2.1,2.9-.3,3.3,1.2,3.5,2.7.2,1.6.2,3.1.4,4.9.1,1,.3,2.3,1.3,2.2.4,0,.8-.4.8-.4h0c0,0-.4,1.5-2.3,1.7-1,0-2-.3-2.1-1.6-.2-1.9-.3-3.2-.5-5.4-.1-1.4-.3-2.8-2.1-2.7-2,.2-2,3-1.9,4.1,0,0,.4,3.8.4,3.9.2,1.6-.3,1.9-.6,2.4-.8,0-1.6,0-1.8-1.5-.2-1.9-.3-3.3-.5-5.5-.1-1.4-.3-2.8-2.2-2.7-.9,0-2.1,1.3-1.9,3.2.2,2,.4,3.5.7,5.5.1,1.2-.5,1.6-1.2,1.6-.5,0-1,0-1.6,0,.1,0,.4-1.5,0-5.4Z"/>
        <path class="st1" d="M84.7,98.6c-.3-.4-.6-.9-1-1.2h0c.4-.2.9-.4,1.6-.5.7,0,1.6,0,1.8.7.7,1.8,2.5,5.8,3.7,8.1h.1c2.1-8.8.9-9.5,2.8-9.7.7,0,1,0,1,0h0c0,.1-.5.5-.9,2.2l-2.4,9.5s-2.4.2-3.1-1.6c-.8-1.9-2.6-6-3.6-7.7Z"/>
        <path class="st1" d="M95.9,92.4c0-.8.5-1.6,1.3-1.6.8,0,1.6.5,1.6,1.3,0,.8-.5,1.5-1.3,1.6-.8,0-1.5-.5-1.6-1.3ZM97.2,101.6c-.5-5-1.1-5.6-1.1-5.6.4-.1.7-.3,1.1-.3,1-.1,1.9.3,2,1.2.2,2.3.4,5,.6,6.6.1,1,.3,2.3,1.3,2.2.4,0,.8-.4.8-.4h0c0,0-.4,1.5-2.3,1.7-1,0-2-.3-2.1-1.6-.1-1.2-.2-2.5-.3-3.8Z"/>
        <path class="st1" d="M103,106c0-.2,0-.6.1-.9.9-1.6,3.7-7.1,4.4-8.9h0c-1.2.3-3.1.5-4.4.6-.9,0-1-.7-1.2-1.5,0,0,1.1.1,4.6-.2l4-.4v.3c0,.3,0,.7-.2,1.1-1.8,3.3-3.4,6.8-4.5,8.8h0c.9-.3,2.8-.5,4.3-.7,1.6-.2,1.6.2,1.9,1.5,0,0-1.4,0-5,.3l-4.1.4s0-.2,0-.4Z"/>
        <path class="st1" d="M113.7,102.8h.1s1.4,1.4,3.6,1.2c1.4-.1,1.9-.9,1.8-1.7-.2-2.3-5.9-1.3-6.3-5.1-.2-2.1,1.7-3.5,3.7-3.7.9,0,3.3,0,3.4.9,0,.5-.3,1.2-.6,1.7h-.1s-1.3-1.7-2.9-1.5c-1,.1-1.6.9-1.5,1.8.2,2.2,5.9,1.1,6.3,5,.2,2.2-1.8,3.6-3.8,3.8-1.4.1-3.8-.2-3.9-1.2,0-.3.2-.9.3-1.2Z"/>
        <path class="st1" d="M125.1,105.2c.2,1,1,2.9,3.5,2.7,1.3-.1,2.6-.8,2.5-2.1-.2-1.9-6.1,0-6.5-3.2,0-.9.4-1.7.8-2.1-1.8-.3-2.8-1.4-3-3.2-.2-2.4,1.6-4.3,4.5-4.6.9,0,1.6,0,2.3.1,1.1-.2,1.3-1.2,1.3-2.5.8,0,1.6-.1,1.7.8.1,1.1-1,1.8-2,2.2.9.6,1.4,1.4,1.6,2.7.2,2.4-1.6,4.3-4.5,4.6-.4,0-.7,0-1,0-.2.3-.3.6-.3.8.2,1.6,6.7-.4,7,3.4.2,2.1-1.8,3.8-4.9,4.1-3,.3-4.7-1.3-4.8-2.5-.1-1,1-1.1,1.8-1.2ZM129.3,96.6c-.2-1.7-1-3.1-2.6-2.9-1.2.1-2,1.4-1.9,2.9.2,1.7,1,3.1,2.6,2.9,1.2-.1,2-1.4,1.9-2.9Z"/>
        <path class="st1" d="M139.6,95.8v-.2c-.2-1.8-.7-2.8-2.4-2.7-1.1.1-2.2.8-2.9,1.6h0c.2-1.4,1.9-3,3.8-3.2,3.1-.3,3.7,1.5,3.9,3.5.1,1.2.2,2.6.3,3.8v.3c.1.9.3,2.4,1.4,2.3.4,0,.8-.4.8-.4h0c0,0-.4,1.5-2.3,1.7-.9,0-1.9-.2-2-1.3h0c-.4.9-1.4,1.8-2.8,2-1.8.2-3-1-3.2-2.6-.3-3.2,3.1-4.5,5.5-4.8ZM135.3,90.2c1.7-1.2,2.5-3.4,2.6-4,1.2,0,1.8.9,1.8.9-.2,1.5-2.4,3.1-3.7,3.3-.2,0-.5,0-.7,0h0ZM138.2,101.5c.7,0,1.9-.9,1.8-1.7,0-.9-.1-2-.3-3.2-.9.2-3.4.9-3.2,3.2.1,1.3.9,1.7,1.6,1.6Z"/>
        <path class="st1" d="M145.3,101.6c0-.2,0-.6.1-.9.9-1.6,3.7-7.1,4.4-8.9h0c-1.2.3-3.1.5-4.4.6-.9,0-1-.7-1.2-1.5,0,0,1.1.1,4.6-.2l4-.4v.3c0,.3,0,.7-.2,1.1-1.8,3.3-3.4,6.8-4.5,8.8h0c.9-.3,2.8-.5,4.3-.7,1.6-.2,1.6.2,1.9,1.5,0,0-1.4,0-5,.3l-4.1.4s0-.2,0-.4Z"/>
        <path class="st1" d="M156.5,95.5c-.1-1.1-.3-2.2-.4-3.3-.3-2.1-.7-2.3-.7-2.3.4-.1.7-.3,1.1-.3,1-.1,1.8.4,1.8,1,0,.3,0,.6,0,.6h0c.4-1.2,2.1-2.1,3.6-2.3,2.9-.3,3.4,1.2,3.5,2.8.2,1.6.2,3.1.4,4.9.1,1,.3,2.3,1.3,2.2.4,0,.8-.4.8-.4h0c0,0-.4,1.5-2.3,1.7-1,0-2-.3-2.2-1.6-.2-1.9-.3-3.2-.5-5.4-.2-1.5-.3-3-2.2-2.8-1.2.1-2.5,1.3-2.3,3.4.2,2,.4,3.4.7,5.5.1,1.2-.5,1.6-1.2,1.6-.5,0-1,0-1.6,0,.1,0,.4-1.5,0-5.4Z"/>
        <path class="st1" d="M168.4,85.1c0-.8.5-1.6,1.3-1.6.8,0,1.6.5,1.6,1.3,0,.8-.5,1.5-1.3,1.6-.8,0-1.5-.5-1.6-1.3ZM169.7,94.2c-.5-5-1.1-5.6-1.1-5.6.4-.1.7-.3,1.1-.3,1-.1,1.9.3,2,1.2.2,2.3.4,5,.6,6.6,0,1,.3,2.3,1.3,2.2.4,0,.8-.4.8-.4h0c0,0-.4,1.5-2.3,1.7-1,0-2-.3-2.2-1.6-.1-1.2-.2-2.5-.3-3.8Z"/>
      </g>
    </g>
  </g>
</svg>