<?xml version="1.0" encoding="UTF-8"?>
<svg id="Layer_1" xmlns="http://www.w3.org/2000/svg" version="1.1" viewBox="0 0 200 200">
  <!-- Generator: Adobe Illustrator 29.1.0, SVG Export Plug-In . SVG Version: 2.1.0 Build 142)  -->
  <defs>
    <style>
      .st0 {
        fill: #bcbd5a;
      }

      .st1 {
        isolation: isolate;
      }

      .st2 {
        fill: #fff;
      }
    </style>
  </defs>
  <path class="st0" d="M158.6,57.8c11.3,12.8,9.2,35.9,1.5,53.7-7.8,17.7-21.4,30.3-37.8,37.7-16.3,7.3-35.2,9.5-55.1,4.1-19.9-5.3-40.6-18.3-48.2-37.5-7.6-19.1-2.2-44.5,13.3-58.2,15.4-13.7,40.6-15.7,65.5-15.5,25,.3,49.5,2.8,60.8,15.6h0Z"/>
  <g class="st1">
    <g class="st1">
      <g class="st1">
        <path class="st2" d="M49,80.2c2.3,0,3.3,1.2,3.3,2.4,0,1.7-1.7,2.4-3.3,2.5-1,0-1.9-.4-1.9-.4h0c0,2.1,1.1,3.5,2.9,3.5s2.7-1.1,2.7-1.1h0s-.5,2.3-3.5,2.4c-2.3,0-4.1-1.7-4.2-4.3,0-2.4,1.4-4.9,4-5ZM48.6,84.2c.8,0,1.6-.5,1.6-1.6s-.4-1.7-1.4-1.6c-1.2,0-1.8,2.2-1.8,2.9s.9.4,1.6.4h0Z"/>
        <path class="st2" d="M55.6,89.9c0,.8.7,2.4,2.6,2.3,1,0,2.1-.5,2.1-1.5,0-1.5-4.9-.3-5-2.9,0-.7.4-1.3.8-1.6-1.4-.3-2.2-1.2-2.2-2.7s1.5-3.4,3.8-3.4,1.3,0,1.8.2c.9,0,1.1-.9,1.2-1.9.6,0,1.3,0,1.3.7s-.9,1.4-1.7,1.6c.7.5,1.1,1.2,1.1,2.2,0,1.9-1.5,3.4-3.8,3.4h-.8c0,.2-.2.5-.2.6,0,1.3,5.3,0,5.4,3,0,1.7-1.6,3-4.1,3s-3.6-1.2-3.7-2.2c0-.8.9-.8,1.5-.8h0ZM59.4,83.2c0-1.3-.6-2.5-1.9-2.5s-1.7,1-1.6,2.2c0,1.3.6,2.5,1.9,2.5s1.7-1,1.6-2.2Z"/>
        <path class="st2" d="M64.2,91.1c1,0,1.9-.5,2.4-1.8l.3-.7c-.6,0-1.3-.4-1.6-1.3-.5-1.6-1.8-4.9-2.4-6.3-.2-.4-.4-.8-.7-1h0c.3-.2.7-.3,1.3-.3s1.2,0,1.4.7c.4,1.5,1.7,4.8,2.6,6.7,2.2-7,1.2-7.6,2.7-7.7.5,0,.8,0,.8,0h0s-.4.4-.9,1.7l-2.3,7.4c-.8,2.7-2.3,3.8-3.7,3.9-1.2,0-1.1-.6-1.2-1.7.5,0,.9,0,1.4,0v.2Z"/>
        <path class="st2" d="M75.8,79.2c2.3,0,3.3,1.2,3.3,2.4,0,1.7-1.7,2.4-3.3,2.5-1,0-1.9-.4-1.9-.4h0c0,2.1,1.1,3.5,2.9,3.5s2.7-1.1,2.7-1.1h0s-.5,2.3-3.5,2.4c-2.3,0-4.1-1.7-4.2-4.3,0-2.4,1.4-4.9,4-5ZM75.4,83.3c.8,0,1.6-.5,1.6-1.6s-.4-1.7-1.4-1.6c-1.2,0-1.8,2.2-1.8,2.8s.9.4,1.6.4Z"/>
        <path class="st2" d="M81.5,81.8c0-1.5-.2-1.6-.9-1.7v-.7c.7,0,2.3-1.6,2.5-2.1h.4c0,0-.3,2-.3,2h1.4c.7,0,.9-.3.9-.3v.5c0,.7-.3.9-.9.9h-1.4v3.4c0,1.7.3,3.2,1.6,3.1.9,0,1.8-.9,1.8-.9h0s-.5,2.1-2.6,2.2c-2,0-2.7-1.3-2.8-3.3v-3.1h.3Z"/>
        <path class="st2" d="M91.5,78.7c2.3,0,3.3,1.2,3.3,2.4,0,1.7-1.7,2.4-3.3,2.5-1,0-1.9-.4-1.9-.4h0c0,2.1,1.1,3.5,2.9,3.5s2.7-1.1,2.7-1.1h0s-.5,2.3-3.5,2.4c-2.3,0-4.1-1.7-4.2-4.3,0-2.4,1.4-4.9,4-5ZM91.2,82.7c.8,0,1.6-.5,1.6-1.6s-.4-1.7-1.4-1.6c-1.2,0-1.8,2.2-1.8,2.9s.9.4,1.6.4h0Z"/>
        <path class="st2" d="M97.4,83.2c0-.9,0-1.8-.2-2.6,0-1.7-.4-1.8-.4-1.8.3,0,.6-.2.9-.2.8,0,1.4.4,1.4.9v.4h0c.3-.9,1.5-1.5,2.7-1.5s2.3.5,2.4,1.3h0c.4-.9,1.6-1.5,2.7-1.5,2.3,0,2.6,1.1,2.6,2.3v3.9c0,.8,0,1.8.9,1.8s.7-.3.7-.3h0s-.4,1.2-1.9,1.2-1.6-.3-1.6-1.4,0-2.6,0-4.3c0-1.2,0-2.3-1.6-2.2-1.6,0-1.8,2.3-1.7,3.1,0,0,0,3,.2,3.1,0,1.2-.3,1.5-.6,1.8-.6,0-1.3,0-1.3-1.3s0-2.6,0-4.4c0-1.2,0-2.3-1.6-2.2-.7,0-1.7.9-1.7,2.5s.2,2.8.2,4.4-.4,1.2-1.1,1.2-.8,0-1.2,0c0,0,.4-1.2.3-4.3v.2Z"/>
        <path class="st2" d="M116.1,77.8c2.3,0,3.3,1.2,3.3,2.4,0,1.7-1.8,2.4-3.3,2.5-1,0-1.9-.4-1.9-.4h0c0,2.1,1.1,3.5,2.9,3.5s2.7-1.1,2.7-1.1h0s-.5,2.3-3.5,2.4c-2.3,0-4.1-1.7-4.2-4.3,0-2.4,1.4-4.9,4-5ZM115.7,81.8c.8,0,1.6-.5,1.6-1.6s-.4-1.7-1.4-1.6c-1.2,0-1.8,2.2-1.8,2.8s.9.4,1.6.4Z"/>
        <path class="st2" d="M121.9,82.3c0-.9,0-1.8-.2-2.6,0-1.7-.4-1.8-.4-1.8.3,0,.6-.2.9-.2.8,0,1.4.4,1.4.9v.4h0c.4-.9,1.7-1.6,3-1.6,2.3,0,2.6,1.1,2.6,2.4v3.9c0,.8,0,1.8.9,1.8s.7-.3.7-.3h0s-.4,1.2-1.9,1.2-1.6-.3-1.6-1.4,0-2.6,0-4.3c0-1.2,0-2.4-1.6-2.3-.9,0-2.1.9-2,2.6,0,1.6.2,2.8.2,4.4s-.4,1.2-1.1,1.2-.8,0-1.2,0c0,0,.4-1.2.3-4.3h0Z"/>
      </g>
    </g>
    <g class="st1">
      <g class="st1">
        <path class="st2" d="M36.2,104.5c0-1.5-.2-1.6-.9-1.7v-.7c.7,0,2.3-1.6,2.5-2.1h.4c0,0-.3,2-.3,2h1.4c.7,0,.9-.3.9-.3v.5c0,.7-.3.9-.9.9h-1.4v3.4c0,1.7.3,3.2,1.6,3.1.9,0,1.8-.9,1.8-.9h0s-.5,2.1-2.6,2.2c-2,0-2.7-1.3-2.8-3.3v-3.1h.3Z"/>
        <path class="st2" d="M46.7,101.3c2.9,0,4.5,1.9,4.6,4,0,2.6-1.4,5.2-4.4,5.3-2.9,0-4.5-2-4.6-4.3,0-2.5,1.4-4.9,4.4-5ZM47,109.8c1.6,0,2.2-2.1,2.2-4.1s-1-3.6-2.6-3.6-2.2,2-2.2,3.8,1,3.9,2.6,3.8h0Z"/>
        <path class="st2" d="M52.6,102.5c-.2-.4-.4-.8-.7-1h0c.3-.2.7-.3,1.3-.3s1.2,0,1.4.7c.4,1.5,1.7,4.7,2.5,6.6h0c2.1-6.9,1.2-7.5,2.7-7.6.5,0,.8,0,.8,0h0s-.4.4-.9,1.7l-2.4,7.4s-1.9,0-2.4-1.4c-.5-1.6-1.8-4.9-2.5-6.3h.2Z"/>
        <path class="st2" d="M66.1,104.2v-.2c0-1.5-.4-2.3-1.8-2.2-.9,0-1.7.5-2.4,1.1h0c.2-1.1,1.6-2.3,3.2-2.3,2.5,0,2.9,1.4,2.9,3v3.3c0,.7,0,1.9,1,1.9s.7-.3.7-.3h0s-.4,1.2-1.9,1.2-1.5-.2-1.5-1.2h0c-.4.7-1.2,1.4-2.3,1.4s-2.4-1-2.4-2.3c0-2.5,2.7-3.4,4.6-3.5h0ZM63,99.6c1.4-.9,2.1-2.6,2.3-3,.9,0,1.4.8,1.4.8-.3,1.2-2.1,2.4-3.1,2.4h-.5v-.2ZM64.7,108.7c.6,0,1.5-.6,1.5-1.3v-2.5c-.7,0-2.8.5-2.7,2.4,0,1,.6,1.4,1.2,1.4Z"/>
        <path class="st2" d="M71,105.4c0-1.3,0-2.7-.2-4,0-1.6-.2-4.9-.6-5.2h0c2.2,0,2.3.6,2.4,2.7v2.8h0s.6-1.4,2.8-1.5c2,0,3.3,1.6,3.4,3.9,0,3-1.5,5.3-4.9,5.5-1.5,0-2.8-.4-2.8-1.5v-2.7h-.1ZM76.8,104.6c0-1.6-.8-3.2-2-3.2s-1.8.9-1.9,2.2v2.4c0,1.5.2,2.8,1.3,2.8,1.9,0,2.7-2.2,2.6-4.2Z"/>
        <path class="st2" d="M81,105c0-1.3,0-2.7-.2-4,0-1.6-.2-4.9-.6-5.2h0c2.2,0,2.3.6,2.4,2.7v2.8h0s.6-1.4,2.8-1.5c2,0,3.3,1.6,3.4,3.9,0,3-1.5,5.3-4.9,5.5-1.5,0-2.8-.4-2.8-1.5v-2.7h-.1ZM86.8,104.3c0-1.6-.8-3.2-2-3.2s-1.8.9-1.9,2.2v2.4c0,1.5.2,2.8,1.3,2.8,1.9,0,2.7-2.2,2.6-4.2Z"/>
        <path class="st2" d="M91.1,102.5c0-1.5-.2-1.6-.9-1.7v-.7c.7,0,2.3-1.6,2.5-2.1h.4c0,0-.3,2-.3,2h1.4c.7,0,.9-.3.9-.3v.5c0,.7-.3.9-.9.9h-1.4v3.4c0,1.7.3,3.2,1.6,3.1.9,0,1.8-.9,1.8-.9h0s-.5,2.1-2.6,2.2c-2,0-2.7-1.3-2.8-3.3v-3.1h.3Z"/>
        <path class="st2" d="M101.8,102.9v-.2c0-1.5-.4-2.3-1.8-2.2-.9,0-1.7.5-2.4,1.1h0c.2-1.1,1.6-2.3,3.2-2.3,2.5,0,2.9,1.4,2.9,3v3.3c0,.7,0,1.9,1,1.9s.7-.3.7-.3h0s-.4,1.2-1.9,1.2-1.5-.2-1.5-1.2h0c-.4.7-1.2,1.4-2.3,1.4s-2.4-1-2.4-2.3c0-2.5,2.7-3.4,4.6-3.5h0ZM100.3,107.4c.6,0,1.5-.6,1.5-1.3v-2.5c-.7,0-2.8.5-2.7,2.4,0,1,.6,1.4,1.2,1.4Z"/>
        <path class="st2" d="M106.8,103.9c0-.9,0-1.8-.2-2.6-.2-1.7-.4-1.8-.4-1.8.3,0,.6-.2.9-.2.8,0,1.4.4,1.4.9v.4h0c.4-.9,1.7-1.6,3-1.6,2.3,0,2.6,1.1,2.6,2.4v3.9c0,.8,0,1.8.9,1.8s.7-.3.7-.3h0s-.4,1.1-1.9,1.2c-.8,0-1.6-.3-1.6-1.4s0-2.6,0-4.3c0-1.2,0-2.4-1.6-2.3-.9,0-2.1.9-2,2.6,0,1.6.2,2.8.2,4.4s-.4,1.2-1.1,1.2-.8,0-1.2,0c0,0,.4-1.2.3-4.3h0Z"/>
        <path class="st2" d="M117.3,102.9c0-.4,0-1.3,0-2.2,0-.7-.2-1.4-.4-1.7.3,0,.6-.2.9-.2.8,0,1.5.4,1.5,1.1,0,1.5,0,2.5,0,4.3,0,1.4.2,2.7,1.6,2.6,1.6,0,2-2.2,2-3.7s0-2.1-.2-2.7c-.2-1.2-.4-1.6-.4-1.6.3,0,.6-.2.9-.2.8,0,1.5.4,1.5,1.1v5.3c0,.7,0,1.8.9,1.8s.7-.3.7-.3h0s-.4,1.2-1.9,1.2-1.4-.3-1.5-1.2v-.2h0s-.6,1.5-2.7,1.6c-2.3,0-2.8-1.2-2.8-2.7v-2.4h0Z"/>
        <path class="st2" d="M127.8,100.4c0-1.6-.2-3.2-.2-4.3,0-1.6-.4-1.9-.4-1.9h0c1.2,0,2.3,0,2.3,1.1,0,1.8,0,3.6.1,5.5,0,1.6.1,3.1.2,4.7,0,.6.2,1.1.8,1.1s.7-.3.7-.3h0s-.4,1.2-1.9,1.2-1.6-.3-1.6-1.5,0-3.6,0-5.6h0Z"/>
        <path class="st2" d="M133.1,102.9c0-.9-.1-1.8-.2-2.6-.1-1.7-.4-1.8-.4-1.8.3,0,.6-.2.9-.2.8,0,1.4.4,1.4.9v.4h0c.4-.9,1.7-1.6,3-1.6,2.3,0,2.6,1.1,2.6,2.4v3.9c0,.8,0,1.8.9,1.8s.7-.3.7-.3h0s-.4,1.2-1.9,1.2-1.6-.3-1.6-1.4,0-2.6-.1-4.3c0-1.2-.1-2.4-1.6-2.3-.9,0-2.1.9-2,2.6,0,1.6.2,2.8.2,4.4s-.4,1.2-1.1,1.2-.8,0-1.2,0c.1,0,.4-1.2.3-4.3h.1Z"/>
        <path class="st2" d="M143.7,102.6c-.1-4-.6-4.5-.6-4.5.3,0,.6-.2.9-.2.8,0,1.5.4,1.5,1.1,0,1.9,0,4,.1,5.3,0,.8,0,1.8.9,1.8s.7-.3.7-.3h0s-.4,1.1-1.9,1.2c-.8,0-1.6-.3-1.6-1.4v-3h0ZM143.1,95.2c0-.6.5-1.2,1.1-1.2s1.2.5,1.2,1.1-.5,1.2-1.1,1.2-1.2-.5-1.2-1.1Z"/>
      </g>
    </g>
  </g>
</svg>