<?xml version="1.0" encoding="UTF-8"?>
<svg id="Layer_1" xmlns="http://www.w3.org/2000/svg" version="1.1" viewBox="0 0 200 200">
  <!-- Generator: Adobe Illustrator 29.1.0, SVG Export Plug-In . SVG Version: 2.1.0 Build 142)  -->
  <defs>
    <style>
      .st0 {
        fill: #ada9d4;
      }

      .st1 {
        isolation: isolate;
      }

      .st2 {
        fill: #fff;
      }
    </style>
  </defs>
  <path class="st0" d="M162.4,62c16,16.1,25.7,37.2,19.5,53.1-6.2,15.8-28.4,26.6-48.1,30.3-19.8,3.7-37.1.3-56-5.4-19-5.7-39.7-13.8-47.2-28.2-7.5-14.4-1.6-35.2,12.5-50.9,14.2-15.8,36.8-26.7,59.1-26.5,22.3.3,44.3,11.5,60.2,27.7h0Z"/>
  <g class="st1">
    <g class="st1">
      <g class="st1">
        <path class="st2" d="M42.9,93.5h0s1.1,1.1,2.8,1c1.1-.1,1.5-.7,1.4-1.4-.2-1.8-4.7-1.1-5-4-.2-1.7,1.3-2.8,3-2.9.7,0,2.7,0,2.7.7,0,.4-.2,1-.5,1.3h0s-1-1.4-2.3-1.2c-.8,0-1.3.7-1.2,1.5.2,1.8,4.7.9,5,4,.2,1.8-1.4,2.9-3.1,3-1.1.1-3-.2-3.1-.9,0-.3.1-.7.3-1Z"/>
        <path class="st2" d="M50.3,94.4c0-.2,0-.5.1-.7.7-1.3,3-5.6,3.5-7.1h0c-.9.2-2.5.4-3.5.5-.7,0-.8-.6-.9-1.2,0,0,.9.1,3.6-.2l3.2-.3v.2c0,.2,0,.6-.1.9-1.4,2.6-2.7,5.4-3.5,7h0c.7-.2,2.2-.4,3.5-.5,1.2-.1,1.3.2,1.5,1.2,0,0-1.1,0-4,.3l-3.3.3s0-.2,0-.3Z"/>
        <path class="st2" d="M62.8,88v-.2c-.2-1.5-.6-2.2-1.9-2.1-.9,0-1.7.6-2.3,1.3h0c.2-1.1,1.5-2.4,3-2.5,2.5-.3,3,1.2,3.1,2.8,0,.9.2,2.1.3,3.1v.2c0,.7.2,1.9,1.1,1.8.3,0,.6-.3.6-.3h0s-.3,1.2-1.8,1.3c-.7,0-1.5-.1-1.6-1.1h0c-.3.7-1.1,1.4-2.2,1.6-1.5.1-2.4-.8-2.6-2.1-.3-2.5,2.5-3.6,4.4-3.8ZM61.7,92.6c.6,0,1.5-.7,1.4-1.4,0-.7-.1-1.6-.2-2.5-.7.2-2.7.7-2.5,2.6.1,1,.7,1.4,1.3,1.3Z"/>
        <path class="st2" d="M67.9,87.7c-.2-2.2-.5-4.5-.7-6-.2-1.6-.5-1.9-.5-1.9h0c1.2-.2,2.3,0,2.4,1,.2,1.8.3,3.6.5,5.4v1.4c.1,0,.2,0,.2,0l.2-.2c2.1-2.5,2.5-3,2.6-3.7,0,0,.5-.2.9-.2.6,0,.8,0,.9.3,0,.6-1.7,1.9-3.1,3.5h0c.9,1.1,3.5,3.9,5,4.7h0c0,0-.4.3-1.4.4-2.4.2-4.4-4-5-4.1h-.1c.2,1.3.3,2.3.4,3.4,0,.9-.4,1.2-1,1.3-.4,0-.8,0-1.3,0,.3-.3,0-3.5,0-5.2Z"/>
        <path class="st2" d="M77.3,86.7c-.2-2.2-.5-4.5-.7-6-.3-1.6-.5-1.9-.5-1.9h0c1.2-.2,2.3,0,2.4,1,.2,1.8.3,3.6.5,5.4v1.4c.1,0,.2,0,.2,0l.2-.2c2.1-2.5,2.5-3,2.6-3.7,0,0,.5-.2.9-.2.6,0,.8,0,.9.3,0,.6-1.7,1.9-3.1,3.5h0c.9,1.1,3.5,3.9,5,4.7h0c0,0-.4.3-1.4.4-2.4.2-4.4-4-5-4.1h-.1c.2,1.3.3,2.3.4,3.4,0,.9-.4,1.2-1,1.3-.4,0-.8,0-1.3,0,.3-.3,0-3.5,0-5.2Z"/>
        <path class="st2" d="M89.5,81.6c2.3-.2,3.3,1,3.5,2.2.2,1.7-1.6,2.6-3.1,2.7-1,.1-2-.3-2-.3h0c.2,2.1,1.3,3.5,3.1,3.3,1.4-.1,2.6-1.3,2.6-1.3h0c0,0-.4,2.4-3.3,2.6-2.3.2-4.2-1.4-4.5-4-.2-2.4,1.1-5,3.6-5.3ZM87.4,80.7c1.4-.9,2-2.7,2.1-3.2.9,0,1.4.7,1.4.7-.2,1.2-1.9,2.5-3,2.6-.1,0-.4,0-.5,0h0ZM89.4,85.7c.8,0,1.6-.6,1.5-1.7,0-.8-.5-1.6-1.5-1.5-1.2.1-1.7,2.3-1.6,3,0,.1.9.3,1.7.3Z"/>
        <path class="st2" d="M95.6,85.8c-.2-1.6-.4-3.6-.9-4.5.3-.1.6-.2.8-.2.8,0,1.5.3,1.5.8,0,.1,0,.2,0,.3h0s.5-1.4,2.7-1.6c2-.2,3.4,1.4,3.6,3.6.3,3-1.1,5.4-4.6,5.7-.3,0-.6,0-.9,0,0,.3,0,.6,0,.8.2,2,.6,2.9.6,2.9-.4.1-.8.3-1.2.3-.6,0-1.1-.2-1.2-1.2-.2-1.7-.3-3.4-.6-6.9ZM99.1,89.1c1.9-.2,2.6-2.3,2.4-4.3-.2-1.6-1-3.2-2.2-3.1-1,.1-1.7,1-1.8,2.3,0,.8,0,1.6.2,2.4l.2,2.2c0,.5.6.5,1.2.4Z"/>
        <path class="st2" d="M108.7,79.7c2.3-.2,3.3,1,3.5,2.2.2,1.7-1.6,2.6-3.1,2.7-1,.1-2-.3-2-.3h0c.2,2.1,1.3,3.5,3.1,3.3,1.4-.1,2.6-1.3,2.6-1.3h0c0,0-.4,2.4-3.3,2.6-2.3.2-4.2-1.4-4.5-4-.2-2.4,1.1-5,3.6-5.3ZM108.6,83.7c.8,0,1.6-.6,1.5-1.7,0-.8-.5-1.6-1.5-1.5-1.2.1-1.7,2.3-1.6,3,0,.1.9.3,1.7.3Z"/>
        <path class="st2" d="M114.6,86.2h0s1.1,1.1,2.8,1c1.1-.1,1.5-.7,1.4-1.4-.2-1.8-4.7-1.1-5-4-.2-1.7,1.3-2.8,3-2.9.7,0,2.7,0,2.7.7,0,.4-.2,1-.5,1.3h0s-1-1.4-2.3-1.2c-.8,0-1.3.7-1.2,1.5.2,1.8,4.7.9,5,4,.2,1.8-1.4,2.9-3.1,3-1.1.1-3-.2-3.1-.9,0-.3.1-.7.3-1Z"/>
        <path class="st2" d="M120.9,77.4h0c1.4-1,2-2.8,2.1-3.3.9,0,1.4.7,1.4.7-.2,1.2-1.9,2.5-3,2.6-.1,0-.4,0-.5,0ZM122.4,83.1c-.4-4-.9-4.5-.9-4.5.3-.1.6-.2.8-.2.8,0,1.5.3,1.6,1,.2,1.8.3,3.9.4,5.2,0,.8.2,1.8,1.1,1.7.3,0,.6-.3.6-.3h0s-.3,1.2-1.8,1.3c-.8,0-1.6-.2-1.7-1.3-.1-1-.1-2-.2-3Z"/>
        <path class="st2" d="M127.4,80.6c-.2-1.5-.3-1.5-1-1.7v-.7c.7,0,2.2-1.7,2.3-2.3h.4c0,0-.2,2-.2,2h1.4c.7-.2.9-.4.9-.4,0,.1,0,.4,0,.5,0,.7-.3.9-.9,1-.2,0-1.4.1-1.4.1,0,0,.2,2.1.3,3.4.2,1.7.5,3.2,1.8,3,.9,0,1.8-1,1.8-1h0c0,0-.4,2.1-2.5,2.3-2,.2-2.8-1.2-3-3.1-.1-1.1-.2-2.4-.2-3.1Z"/>
        <path class="st2" d="M137.2,76.8c2.3-.2,3.3,1,3.5,2.2.2,1.7-1.6,2.6-3.1,2.7-1,.1-2-.3-2-.3h0c.2,2.1,1.3,3.5,3.1,3.3,1.4-.1,2.6-1.3,2.6-1.3h0c0,0-.4,2.4-3.3,2.6-2.3.2-4.2-1.4-4.5-4-.2-2.4,1.1-5,3.6-5.3ZM135,75.9c1.4-.9,2-2.7,2.1-3.2.9,0,1.4.7,1.4.7-.2,1.2-1.9,2.5-3,2.6-.1,0-.4,0-.5,0h0ZM137.1,80.8c.8,0,1.6-.6,1.5-1.7,0-.8-.5-1.6-1.5-1.5-1.2.1-1.7,2.3-1.6,3,0,.1.9.3,1.7.3Z"/>
        <path class="st2" d="M143,83.3h0s1.1,1.1,2.8,1c1.1-.1,1.5-.7,1.4-1.4-.2-1.8-4.7-1.1-5-4-.2-1.7,1.3-2.8,3-2.9.7,0,2.7,0,2.7.7,0,.4-.2,1-.5,1.3h0s-1-1.4-2.3-1.2c-.8,0-1.3.7-1.2,1.5.2,1.8,4.7.9,5,4,.2,1.8-1.4,2.9-3.1,3-1.1.1-3-.2-3.1-.9,0-.3.1-.7.3-1Z"/>
        <path class="st2" d="M150.7,78.2c-.2-1.5-.3-1.5-1-1.7v-.7c.7,0,2.2-1.7,2.3-2.3h.4c0,0-.2,2-.2,2h1.4c.7-.2.9-.4.9-.4,0,.1,0,.4,0,.5,0,.7-.3.9-.9,1-.2,0-1.4.1-1.4.1,0,0,.2,2.1.3,3.4.2,1.7.5,3.2,1.8,3,.9,0,1.8-1,1.8-1h0c0,0-.4,2.1-2.5,2.3-2,.2-2.8-1.2-3-3.1-.1-1.1-.2-2.4-.2-3.1Z"/>
      </g>
    </g>
    <g class="st1">
      <g class="st1">
        <path class="st2" d="M53.8,111.2c0-.9-.2-1.8-.3-2.6-.3-1.7-.5-1.8-.5-1.8.3-.1.6-.2.8-.2.8,0,1.4.3,1.5.8,0,.2,0,.4,0,.4h0c.2-.9,1.4-1.6,2.6-1.7,1.6-.2,2.4.4,2.5,1.2h0c.3-.9,1.5-1.6,2.6-1.7,2.3-.2,2.7.9,2.8,2.2.1,1.3.2,2.4.3,3.9,0,.8.2,1.8,1.1,1.7.3,0,.6-.3.6-.3h0s-.3,1.2-1.8,1.3c-.8,0-1.6-.2-1.7-1.3-.2-1.5-.2-2.5-.4-4.3-.1-1.1-.3-2.3-1.7-2.1-1.6.2-1.6,2.4-1.5,3.3,0,0,.3,3,.4,3.1.1,1.2-.2,1.5-.5,1.9-.6,0-1.3,0-1.4-1.2-.2-1.5-.2-2.6-.4-4.4-.1-1.1-.3-2.3-1.8-2.1-.7,0-1.7,1-1.5,2.6.2,1.6.3,2.7.5,4.4,0,.9-.4,1.2-1,1.3-.4,0-.8,0-1.3,0,.1,0,.3-1.2,0-4.3Z"/>
        <path class="st2" d="M72,104.6c2.3-.2,3.3,1,3.5,2.2.2,1.7-1.6,2.6-3.1,2.7-1,.1-2-.3-2-.3h0c.2,2.1,1.3,3.5,3.1,3.3,1.4-.1,2.6-1.3,2.6-1.3h0c0,0-.4,2.4-3.3,2.6-2.3.2-4.2-1.4-4.5-4-.2-2.4,1.1-5,3.6-5.3ZM71.9,108.6c.8,0,1.6-.6,1.5-1.7,0-.8-.5-1.6-1.5-1.5-1.2.1-1.7,2.3-1.6,3,0,.1.9.3,1.7.3Z"/>
        <path class="st2" d="M79.3,113.8c.1.8.8,2.3,2.7,2.1,1-.1,2.1-.7,2-1.7-.2-1.5-4.9,0-5.1-2.5,0-.7.4-1.3.7-1.7-1.4-.2-2.3-1.1-2.4-2.6-.2-1.9,1.3-3.5,3.5-3.7.7,0,1.3,0,1.8,0,.9-.1,1.1-1,1-2,.6,0,1.3,0,1.4.6,0,.9-.8,1.5-1.6,1.7.7.4,1.1,1.2,1.2,2.1.2,1.9-1.3,3.5-3.5,3.7-.3,0-.6,0-.8,0-.1.2-.2.5-.2.6.1,1.3,5.3-.3,5.6,2.7.2,1.7-1.4,3-3.9,3.3-2.4.2-3.7-1-3.8-2,0-.8.8-.9,1.4-.9ZM82.6,106.9c-.1-1.3-.8-2.5-2.1-2.3-1,0-1.6,1.1-1.5,2.3.1,1.3.8,2.5,2.1,2.3,1,0,1.6-1.1,1.5-2.3Z"/>
        <path class="st2" d="M86.8,110.2h0s1.1,1.1,2.8,1c1.1-.1,1.5-.7,1.4-1.4-.2-1.8-4.7-1.1-5-4-.2-1.7,1.3-2.8,3-2.9.7,0,2.7,0,2.7.7,0,.4-.2,1-.5,1.3h0s-1-1.4-2.3-1.2c-.8,0-1.3.7-1.2,1.5.2,1.8,4.7.9,5,4,.2,1.8-1.4,2.9-3.1,3-1.1.1-3-.2-3.1-.9,0-.3.1-.7.3-1Z"/>
        <path class="st2" d="M94.2,111.1c0-.2,0-.5.1-.7.7-1.3,3-5.6,3.5-7.1h0c-.9.2-2.5.4-3.5.5-.7,0-.8-.6-.9-1.2,0,0,.9.1,3.6-.2l3.2-.3v.2c0,.2,0,.6-.1.9-1.4,2.6-2.7,5.4-3.5,7h0c.7-.2,2.2-.4,3.5-.5,1.2-.1,1.3.2,1.5,1.2,0,0-1.1,0-4,.3l-3.3.3s0-.2,0-.3Z"/>
        <path class="st2" d="M105.8,101.2c2.3-.2,3.3,1,3.5,2.2.2,1.7-1.6,2.6-3.1,2.7-1,.1-2-.3-2-.3h0c.2,2.1,1.3,3.5,3.1,3.3,1.4-.1,2.6-1.3,2.6-1.3h0c0,0-.4,2.4-3.3,2.6-2.3.2-4.2-1.4-4.5-4-.2-2.4,1.1-5,3.6-5.3ZM105.7,105.2c.8,0,1.6-.6,1.5-1.7,0-.8-.5-1.6-1.5-1.5-1.2.1-1.7,2.3-1.6,3,0,.1.9.3,1.7.3Z"/>
        <path class="st2" d="M111.9,105.4c-.4-3.5-.8-4.4-.9-4.5.3-.1.6-.2.8-.2.8,0,1.5.3,1.5,1,0,.3,0,.7,0,.7h0c.4-1.1,1.5-1.9,2.4-2,.7,0,.9.2.9.6s0,.9,0,1.3h0c-.6-.2-1-.3-1.4-.3-1.4.1-1.6,1.6-1.4,3.5.3,3.4.8,4,.8,4-.4.1-.8.3-1.2.3-.6,0-1.1-.2-1.2-1.2-.1-1-.1-2.1-.2-3Z"/>
        <path class="st2" d="M121.7,99.5c2.3-.2,3.3,1,3.5,2.2.2,1.7-1.6,2.6-3.1,2.7-1,.1-2-.3-2-.3h0c.2,2.1,1.3,3.5,3.1,3.3,1.4-.1,2.6-1.3,2.6-1.3h0c0,0-.4,2.3-3.3,2.6-2.3.2-4.2-1.4-4.5-4-.2-2.4,1.1-5,3.6-5.3ZM121.6,103.6c.8,0,1.6-.6,1.5-1.7,0-.8-.5-1.6-1.5-1.5-1.2.1-1.7,2.3-1.6,3,0,.1.9.3,1.7.3Z"/>
        <path class="st2" d="M127.2,107.7c0-.2,0-.5.1-.7.7-1.3,3-5.6,3.5-7.1h0c-.9.2-2.5.4-3.5.5-.7,0-.8-.6-.9-1.2,0,0,.9.1,3.6-.2l3.2-.3v.2c0,.2,0,.6-.1.9-1.4,2.6-2.7,5.4-3.5,7h0c.7-.2,2.2-.4,3.5-.5,1.2-.1,1.3.2,1.5,1.2,0,0-1.1,0-4,.3l-3.3.3s0-.2,0-.3Z"/>
        <path class="st2" d="M136.1,102.8c0-.9-.2-1.8-.3-2.6-.3-1.7-.5-1.8-.5-1.8.3-.1.6-.2.8-.2.8,0,1.4.3,1.5.8,0,.2,0,.4,0,.4h0c.3-.9,1.6-1.7,2.9-1.8,2.3-.2,2.7,1,2.8,2.2.1,1.3.2,2.4.3,3.9,0,.8.2,1.8,1.1,1.7.3,0,.6-.3.6-.3h0s-.3,1.2-1.8,1.3c-.8,0-1.6-.2-1.7-1.3-.2-1.5-.2-2.5-.4-4.3-.1-1.2-.3-2.3-1.8-2.2-.9,0-2,1.1-1.8,2.7.2,1.6.3,2.7.5,4.4,0,.9-.4,1.2-1,1.3-.4,0-.8,0-1.3,0,.1,0,.3-1.2,0-4.3Z"/>
        <path class="st2" d="M145.6,94.5c0-.6.4-1.2,1-1.3.6,0,1.2.4,1.3,1.1,0,.6-.4,1.2-1.1,1.3-.6,0-1.2-.4-1.3-1ZM146.6,101.8c-.4-4-.9-4.5-.9-4.5.3-.1.6-.2.8-.2.8,0,1.5.3,1.6,1,.2,1.8.3,3.9.4,5.2,0,.8.2,1.8,1.1,1.7.3,0,.6-.3.6-.3h0s-.3,1.2-1.8,1.3c-.8,0-1.6-.2-1.7-1.3-.1-1-.1-2-.2-3Z"/>
      </g>
    </g>
  </g>
</svg>