<?xml version="1.0" encoding="UTF-8"?>
<svg id="Layer_1" xmlns="http://www.w3.org/2000/svg" xmlns:xlink="http://www.w3.org/1999/xlink" version="1.1" viewBox="0 0 200 187">
  <!-- Generator: Adobe Illustrator 29.1.0, SVG Export Plug-In . SVG Version: 2.1.0 Build 142)  -->
  <defs>
    <style>
      .st0 {
        fill: url(#linear-gradient);
      }

      .st1 {
        isolation: isolate;
      }

      .st2 {
        fill: #fff;
      }
    </style>
    <linearGradient id="linear-gradient" x1="88.8" y1="839" x2="105.8" y2="915.3" gradientTransform="translate(0 -798)" gradientUnits="userSpaceOnUse">
      <stop offset="0" stop-color="#ada9d4"/>
      <stop offset="1" stop-color="#827dbb"/>
    </linearGradient>
  </defs>
  <path class="st0" d="M168.5,42.2c19.4,19.5,31.1,45.1,23.6,64.3-7.5,19.1-34.4,32.2-58.3,36.7-24,4.5-45,.4-67.9-6.5-23-6.9-48.1-16.7-57.2-34.2-9.1-17.4-1.9-42.7,15.1-61.7C41,21.7,68.4,8.4,95.4,8.7c27,.4,53.7,13.9,72.9,33.6h.2Z"/>
  <g class="st1">
    <g class="st1">
      <g class="st1">
        <path class="st2" d="M23.7,80.4h0s1.3,1.3,3.4,1.2c1.3,0,1.8-.8,1.7-1.7-.2-2.2-5.7-1.3-6.1-4.8-.2-2.1,1.6-3.4,3.6-3.5.8,0,3.3,0,3.3.8s-.2,1.2-.6,1.6h0s-1.2-1.7-2.8-1.5c-1,0-1.6.8-1.5,1.8.2,2.2,5.7,1.1,6.1,4.8.2,2.2-1.7,3.5-3.8,3.6-1.3,0-3.6-.2-3.8-1.1,0-.4,0-.8.4-1.2h0Z"/>
        <path class="st2" d="M32.6,81.5v-.8c.8-1.6,3.6-6.8,4.2-8.6h0c-1.1.2-3,.5-4.2.6-.8,0-1-.7-1.1-1.5,0,0,1.1,0,4.4-.2l3.9-.4v1.3c-1.7,3.2-3.3,6.5-4.2,8.5h0c.8-.2,2.7-.5,4.2-.6,1.5,0,1.6.2,1.8,1.5,0,0-1.3,0-4.8.4l-4,.4v-.4h0v-.2Z"/>
        <path class="st2" d="M47.8,73.7v-.2c-.2-1.8-.7-2.7-2.3-2.5-1.1,0-2.1.7-2.8,1.6h0c.2-1.3,1.8-2.9,3.6-3,3-.4,3.6,1.5,3.8,3.4,0,1.1.2,2.5.4,3.8v.2c0,.8.2,2.3,1.3,2.2.4,0,.7-.4.7-.4h0s-.4,1.5-2.2,1.6c-.8,0-1.8,0-1.9-1.3h0c-.4.8-1.3,1.7-2.7,1.9-1.8,0-2.9-1-3.2-2.5-.4-3,3-4.4,5.3-4.6h0v-.2ZM46.4,79.3c.7,0,1.8-.8,1.7-1.7,0-.8,0-1.9-.2-3-.8.2-3.3.8-3,3.2,0,1.2.8,1.7,1.6,1.6h0Z"/>
        <path class="st2" d="M54,73.4c-.2-2.7-.6-5.5-.8-7.3-.2-1.9-.6-2.3-.6-2.3h0c1.5-.2,2.8,0,2.9,1.2.2,2.2.4,4.4.6,6.5v1.7h.2l.2-.2c2.5-3,3-3.6,3.2-4.5,0,0,.6-.2,1.1-.2s1,0,1.1.4c0,.7-2.1,2.3-3.8,4.2h0c1.1,1.3,4.2,4.7,6.1,5.7h0s-.5.4-1.7.5c-2.9.2-5.3-4.8-6.1-5h0c.2,1.6.4,2.8.5,4.1,0,1.1-.5,1.5-1.2,1.6h-1.6c.4-.4,0-4.2,0-6.3h-.1Z"/>
        <path class="st2" d="M65.4,72.1c-.2-2.7-.6-5.5-.8-7.3-.4-1.9-.6-2.3-.6-2.3h0c1.5-.2,2.8,0,2.9,1.2.2,2.2.4,4.4.6,6.5v1.7h.2l.2-.2c2.5-3,3-3.6,3.2-4.5,0,0,.6-.2,1.1-.2s1,0,1.1.4c0,.7-2.1,2.3-3.8,4.2h0c1.1,1.3,4.2,4.7,6.1,5.7h0s-.5.4-1.7.5c-2.9.2-5.3-4.8-6.1-5h0c.2,1.6.4,2.8.5,4.1,0,1.1-.5,1.5-1.2,1.6h-1.6c.4-.4,0-4.2,0-6.3h0,0Z"/>
        <path class="st2" d="M80.1,66c2.8-.2,4,1.2,4.2,2.7.2,2.1-1.9,3.2-3.8,3.3-1.2,0-2.4-.4-2.4-.4h0c.2,2.5,1.6,4.2,3.8,4,1.7,0,3.2-1.6,3.2-1.6h0s-.5,2.9-4,3.2c-2.8.2-5.1-1.7-5.5-4.8-.2-2.9,1.3-6.1,4.4-6.4,0,0,0,0,.1,0ZM77.6,64.9c1.7-1.1,2.4-3.3,2.5-3.9,1.1,0,1.7.8,1.7.8-.2,1.5-2.3,3-3.6,3.2h-.6ZM80,70.9c1,0,1.9-.7,1.8-2.1,0-1-.6-1.9-1.8-1.8-1.5,0-2.1,2.8-1.9,3.6,0,0,1.1.4,2.1.4h-.2Z"/>
        <path class="st2" d="M87.5,71.1c-.2-1.9-.5-4.4-1.1-5.5.4,0,.7-.2,1-.2,1,0,1.8.4,1.8,1v.4h0s.6-1.7,3.3-1.9c2.4-.2,4.1,1.7,4.4,4.4.4,3.6-1.3,6.5-5.6,6.9h-1.1v1c.2,2.4.7,3.5.7,3.5-.5,0-1,.4-1.5.4s-1.3-.2-1.5-1.5c-.2-2.1-.4-4.1-.7-8.4h.3ZM91.8,75.1c2.3-.2,3.2-2.8,2.9-5.2-.2-1.9-1.2-3.9-2.7-3.8-1.2,0-2.1,1.2-2.2,2.8,0,1,0,1.9.2,2.9l.2,2.7c0,.6.7.6,1.5.5h0Z"/>
        <path class="st2" d="M103.4,63.7c2.8-.2,4,1.2,4.2,2.7.2,2.1-1.9,3.2-3.8,3.3-1.2,0-2.4-.4-2.4-.4h0c.2,2.5,1.6,4.2,3.8,4,1.7,0,3.2-1.6,3.2-1.6h0s-.5,2.9-4,3.2c-2.8.2-5.1-1.7-5.5-4.8-.2-2.9,1.3-6.1,4.4-6.4,0,0,0,0,.1,0ZM103.3,68.5c1,0,1.9-.7,1.8-2.1,0-1-.6-1.9-1.8-1.8-1.5,0-2.1,2.8-1.9,3.6,0,0,1.1.4,2.1.4h-.2Z"/>
        <path class="st2" d="M110.5,71.5h0s1.3,1.3,3.4,1.2c1.3,0,1.8-.8,1.7-1.7-.2-2.2-5.7-1.3-6.1-4.8-.2-2.1,1.6-3.4,3.6-3.5.8,0,3.3,0,3.3.8s-.2,1.2-.6,1.6h0s-1.2-1.7-2.8-1.5c-1,0-1.6.8-1.5,1.8.2,2.2,5.7,1.1,6.1,4.8.2,2.2-1.7,3.5-3.8,3.6-1.3,0-3.6-.2-3.8-1.1,0-.4,0-.8.4-1.2h.1Z"/>
        <path class="st2" d="M118.2,60.9h0c1.7-1.2,2.4-3.4,2.5-4,1.1,0,1.7.8,1.7.8-.2,1.5-2.3,3-3.6,3.2h-.6ZM120,67.8c-.5-4.8-1.1-5.5-1.1-5.5.4,0,.7-.2,1-.2,1,0,1.8.4,1.9,1.2.2,2.2.4,4.7.5,6.3,0,1,.2,2.2,1.3,2.1.4,0,.7-.4.7-.4h0s-.4,1.5-2.2,1.6c-1,0-1.9-.2-2.1-1.6,0-1.2,0-2.4-.2-3.6h.2Z"/>
        <path class="st2" d="M126.1,64.8c-.2-1.8-.4-1.8-1.2-2.1v-.8c.8,0,2.7-2.1,2.8-2.8h.5l-.2,2.4h1.7c.8-.2,1.1-.5,1.1-.5v.6c0,.8-.4,1.1-1.1,1.2h-1.7s.2,2.5.4,4.1c.2,2.1.6,3.9,2.2,3.6,1.1,0,2.2-1.2,2.2-1.2h0s-.5,2.5-3,2.8c-2.4.2-3.4-1.5-3.6-3.8,0-1.3-.2-2.9-.2-3.8h.4l-.3.3Z"/>
        <path class="st2" d="M137.9,60.1c2.8-.2,4,1.2,4.2,2.7.2,2.1-1.9,3.2-3.8,3.3-1.2,0-2.4-.4-2.4-.4h0c.2,2.5,1.6,4.2,3.8,4,1.7,0,3.2-1.6,3.2-1.6h0s-.5,2.9-4,3.2c-2.8.2-5.1-1.7-5.5-4.8-.2-2.9,1.3-6.1,4.4-6.4,0,0,.1,0,.1,0ZM135.3,59.1c1.7-1.1,2.4-3.3,2.5-3.9,1.1,0,1.7.8,1.7.8-.2,1.5-2.3,3-3.6,3.2h-.6,0ZM137.8,65c1,0,1.9-.7,1.8-2.1,0-1-.6-1.9-1.8-1.8-1.5,0-2.1,2.8-1.9,3.6,0,0,1.1.4,2.1.4h-.2Z"/>
        <path class="st2" d="M145,68h0s1.3,1.3,3.4,1.2c1.3,0,1.8-.8,1.7-1.7-.2-2.2-5.7-1.3-6.1-4.8-.2-2.1,1.6-3.4,3.6-3.5.8,0,3.3,0,3.3.8s-.2,1.2-.6,1.6h0s-1.2-1.7-2.8-1.5c-1,0-1.6.8-1.5,1.8.2,2.2,5.7,1.1,6.1,4.8.2,2.2-1.7,3.5-3.8,3.6-1.3,0-3.6-.2-3.8-1.1,0-.4.1-.8.4-1.2h.1Z"/>
        <path class="st2" d="M154.3,61.8c-.2-1.8-.4-1.8-1.2-2.1v-.8c.8,0,2.7-2.1,2.8-2.8h.5l-.2,2.4h1.7c.8-.2,1.1-.5,1.1-.5v.6c0,.8-.4,1.1-1.1,1.2h-1.7s.2,2.5.4,4.1c.2,2.1.6,3.9,2.2,3.6,1.1,0,2.2-1.2,2.2-1.2h0s-.5,2.5-3,2.8c-2.4.2-3.4-1.5-3.6-3.8-.1-1.3-.2-2.9-.2-3.8h.4l-.3.3Z"/>
      </g>
    </g>
    <g class="st1">
      <g class="st1">
        <path class="st2" d="M36.9,101.8c0-1.1-.2-2.2-.4-3.2-.4-2.1-.6-2.2-.6-2.2.4,0,.7-.2,1-.2,1,0,1.7.4,1.8,1v.5h0c.2-1.1,1.7-1.9,3.2-2.1,1.9-.2,2.9.5,3,1.5h0c.4-1.1,1.8-1.9,3.2-2.1,2.8-.2,3.3,1.1,3.4,2.7,0,1.6.2,2.9.4,4.7,0,1,.2,2.2,1.3,2.1.4,0,.7-.4.7-.4h0s-.4,1.5-2.2,1.6c-1,0-1.9-.2-2.1-1.6-.2-1.8-.2-3-.5-5.2,0-1.3-.4-2.8-2.1-2.5-1.9.2-1.9,2.9-1.8,4,0,0,.4,3.6.5,3.8,0,1.5-.2,1.8-.6,2.3-.7,0-1.6,0-1.7-1.5-.2-1.8-.2-3.2-.5-5.3,0-1.3-.4-2.8-2.2-2.5-.8,0-2.1,1.2-1.8,3.2s.4,3.3.6,5.3c0,1.1-.5,1.5-1.2,1.6h-1.6s.4-1.5,0-5.2h0v-.3Z"/>
        <path class="st2" d="M58.9,93.8c2.8-.2,4,1.2,4.2,2.7.2,2.1-1.9,3.2-3.8,3.3-1.2,0-2.4-.4-2.4-.4h0c.2,2.5,1.6,4.2,3.8,4,1.7,0,3.2-1.6,3.2-1.6h0s-.5,2.9-4,3.2c-2.8.2-5.1-1.7-5.5-4.8-.2-2.9,1.3-6.1,4.4-6.4,0,0,0,0,0,0ZM58.8,98.7c1,0,1.9-.7,1.8-2.1,0-1-.6-1.9-1.8-1.8-1.5,0-2.1,2.8-1.9,3.6,0,0,1.1.4,2.1.4h-.2Z"/>
        <path class="st2" d="M67.8,105c0,1,1,2.8,3.3,2.5,1.2,0,2.5-.8,2.4-2.1-.2-1.8-5.9,0-6.2-3,0-.8.5-1.6.8-2.1-1.7-.2-2.8-1.3-2.9-3.2-.2-2.3,1.6-4.2,4.2-4.5h2.2c1.1,0,1.3-1.2,1.2-2.4.7,0,1.6,0,1.7.7,0,1.1-1,1.8-1.9,2.1.8.5,1.3,1.5,1.5,2.5.2,2.3-1.6,4.2-4.2,4.5h-1c0,.2-.2.6-.2.7,0,1.6,6.4-.4,6.8,3.3.2,2.1-1.7,3.6-4.7,4-2.9.2-4.5-1.2-4.6-2.4,0-1,1-1.1,1.7-1.1v.4h-.1ZM71.8,96.6c0-1.6-1-3-2.5-2.8-1.2,0-1.9,1.3-1.8,2.8,0,1.6,1,3,2.5,2.8,1.2,0,1.9-1.3,1.8-2.8Z"/>
        <path class="st2" d="M76.9,100.6h0s1.3,1.3,3.4,1.2c1.3,0,1.8-.8,1.7-1.7-.2-2.2-5.7-1.3-6.1-4.8-.2-2.1,1.6-3.4,3.6-3.5.8,0,3.3,0,3.3.8s-.2,1.2-.6,1.6h0s-1.2-1.7-2.8-1.5c-1,0-1.6.8-1.5,1.8.2,2.2,5.7,1.1,6.1,4.8.2,2.2-1.7,3.5-3.8,3.6-1.3,0-3.6-.2-3.8-1.1,0-.4,0-.8.4-1.2h.1Z"/>
        <path class="st2" d="M85.8,101.7v-.8c.8-1.6,3.6-6.8,4.2-8.6h0c-1.1.2-3,.5-4.2.6-.8,0-1-.7-1.1-1.5,0,0,1.1,0,4.4-.2l3.9-.4v1.3c-1.7,3.2-3.3,6.5-4.2,8.5h0c.8-.2,2.7-.5,4.2-.6,1.5,0,1.6.2,1.8,1.5,0,0-1.3,0-4.8.4l-4,.4v-.4h0v-.2Z"/>
        <path class="st2" d="M99.9,89.7c2.8-.2,4,1.2,4.2,2.7.2,2.1-1.9,3.2-3.8,3.3-1.2,0-2.4-.4-2.4-.4h0c.2,2.5,1.6,4.2,3.8,4,1.7,0,3.2-1.6,3.2-1.6h0s-.5,2.9-4,3.2c-2.8.2-5.1-1.7-5.5-4.8-.2-2.9,1.3-6.1,4.4-6.4,0,0,0,0,.1,0ZM99.8,94.6c1,0,1.9-.7,1.8-2.1,0-1-.6-1.9-1.8-1.8-1.5,0-2.1,2.8-1.9,3.6,0,0,1.1.4,2.1.4h-.2Z"/>
        <path class="st2" d="M107.3,94.8c-.5-4.2-1-5.3-1.1-5.5.4,0,.7-.2,1-.2,1,0,1.8.4,1.8,1.2v.8h0c.5-1.3,1.8-2.3,2.9-2.4.8,0,1.1.2,1.1.7v1.6h0c-.7-.2-1.2-.4-1.7-.4-1.7,0-1.9,1.9-1.7,4.2.4,4.1,1,4.8,1,4.8-.5,0-1,.4-1.5.4s-1.3-.2-1.5-1.5,0-2.5-.2-3.6v-.2h-.1Z"/>
        <path class="st2" d="M119.2,87.7c2.8-.2,4,1.2,4.2,2.7.2,2.1-1.9,3.2-3.8,3.3-1.2,0-2.4-.4-2.4-.4h0c.2,2.5,1.6,4.2,3.8,4,1.7,0,3.2-1.6,3.2-1.6h0s-.5,2.8-4,3.2c-2.8.2-5.1-1.7-5.5-4.8-.2-2.9,1.3-6.1,4.4-6.4,0,0,0,0,.1,0ZM119,92.6c1,0,1.9-.7,1.8-2.1,0-1-.6-1.9-1.8-1.8-1.5,0-2.1,2.8-1.9,3.6,0,0,1.1.4,2.1.4h-.2Z"/>
        <path class="st2" d="M125.8,97.6v-.8c.8-1.6,3.6-6.8,4.2-8.6h0c-1.1.2-3,.5-4.2.6-.8,0-1-.7-1.1-1.5,0,0,1.1,0,4.4-.2l3.9-.4v.2c0,.2,0,.7-.1,1.1-1.7,3.2-3.3,6.5-4.2,8.5h0c.8-.2,2.7-.5,4.2-.6,1.5,0,1.6.2,1.8,1.5,0,0-1.3,0-4.8.4l-4,.4v-.4h0v-.2Z"/>
        <path class="st2" d="M136.6,91.7c0-1.1-.2-2.2-.4-3.2-.4-2.1-.6-2.2-.6-2.2.4,0,.7-.2,1-.2,1,0,1.7.4,1.8,1v.5h0c.4-1.1,1.9-2.1,3.5-2.2,2.8-.2,3.3,1.2,3.4,2.7.1,1.6.2,2.9.4,4.7,0,1,.2,2.2,1.3,2.1.4,0,.7-.4.7-.4h0s-.4,1.5-2.2,1.6c-1,0-1.9-.2-2.1-1.6-.2-1.8-.2-3-.5-5.2-.1-1.5-.4-2.8-2.2-2.7-1.1,0-2.4,1.3-2.2,3.3s.4,3.3.6,5.3c0,1.1-.5,1.5-1.2,1.6h-1.6c.1,0,.4-1.5,0-5.2h.3Z"/>
        <path class="st2" d="M148.1,81.6c0-.7.5-1.5,1.2-1.6.7,0,1.5.5,1.6,1.3,0,.7-.5,1.5-1.3,1.6-.7,0-1.5-.5-1.6-1.2h.1ZM149.3,90.4c-.5-4.8-1.1-5.5-1.1-5.5.4,0,.7-.2,1-.2,1,0,1.8.4,1.9,1.2.2,2.2.4,4.7.5,6.3,0,1,.2,2.2,1.3,2.1.4,0,.7-.4.7-.4h0s-.4,1.5-2.2,1.6c-1,0-1.9-.2-2.1-1.6-.1-1.2-.1-2.4-.2-3.6h.2Z"/>
      </g>
    </g>
  </g>
</svg>