<?xml version="1.0" encoding="UTF-8"?>
<svg id="Layer_1" xmlns="http://www.w3.org/2000/svg" version="1.1" viewBox="0 0 200 200">
  <!-- Generator: Adobe Illustrator 29.1.0, SVG Export Plug-In . SVG Version: 2.1.0 Build 142)  -->
  <defs>
    <style>
      .st0 {
        isolation: isolate;
      }

      .st1 {
        fill: #fff;
      }

      .st2 {
        fill: #ed5977;
      }
    </style>
  </defs>
  <path class="st2" d="M163.8,54.3c14.1,12.5,17.5,38.8,9.3,57.4-8.3,18.6-28.1,29.5-47.5,37.2-19.3,7.6-38.1,11.9-58,6.8-19.8-5.1-40.6-19.7-47.2-39.9-6.5-20.3,1.2-46.2,16.8-59.1,15.7-12.9,39.2-12.8,63.4-13.3s49.1-1.7,63.2,10.9Z"/>
  <g class="st0">
    <g class="st0">
      <g class="st0">
        <path class="st1" d="M34.4,95.2c3.3-.2,4.7,1.5,4.8,3.2.2,2.5-2.4,3.6-4.6,3.7-1.4.1-2.8-.5-2.8-.5h0c.2,3,1.8,5,4.3,4.8,2-.1,3.8-1.7,3.8-1.7h.1c0,.1-.6,3.3-4.8,3.6-3.3.2-6-2.2-6.2-5.8-.2-3.4,1.8-7.1,5.4-7.3ZM31.4,93.8c2-1.3,2.9-3.8,3.1-4.4,1.3,0,2,1.1,2,1.1-.3,1.7-2.9,3.5-4.3,3.6-.2,0-.6,0-.8,0h0ZM34,101c1.1,0,2.3-.8,2.2-2.3,0-1.2-.7-2.3-2.1-2.2-1.8.1-2.5,3.2-2.4,4.1,0,.2,1.3.5,2.4.4Z"/>
        <path class="st1" d="M42.9,101.5c-.4-5-1-6.3-1.1-6.4.4-.2.8-.3,1.2-.3,1.1,0,2.1.4,2.1,1.4,0,.4-.1.9-.1.9h.1c.6-1.6,2.2-2.7,3.6-2.8,1,0,1.2.3,1.3.9,0,.5,0,1.2-.2,1.8h-.1c-.8-.3-1.5-.5-2-.5-1.9.1-2.3,2.2-2.1,4.9.4,4.9.9,5.7,1,5.8-.6.1-1.2.3-1.7.4-.9,0-1.6-.3-1.7-1.8-.1-1.5,0-3-.2-4.3Z"/>
        <path class="st1" d="M57.1,93.6c3.3-.2,4.7,1.5,4.8,3.2.2,2.5-2.4,3.6-4.6,3.7-1.4.1-2.8-.5-2.8-.5h0c.2,3,1.8,5,4.3,4.8,2-.1,3.8-1.7,3.8-1.7h.1c0,.1-.6,3.3-4.8,3.6-3.3.2-6-2.2-6.2-5.8-.2-3.4,1.8-7.1,5.4-7.3ZM56.7,99.3c1.1,0,2.3-.8,2.2-2.3,0-1.2-.7-2.3-2.1-2.2-1.8.1-2.5,3.2-2.4,4.1,0,.2,1.3.5,2.4.4Z"/>
        <path class="st1" d="M65.4,96.9c-.2-2.1-.3-2.2-1.3-2.4v-1c1,0,3.2-2.3,3.5-3.2l.6.2-.3,2.7h2c1-.2,1.3-.5,1.3-.5,0,.1,0,.5,0,.7,0,1-.4,1.3-1.3,1.4-.3,0-2,0-2,0,0,0,.1,2.9.3,4.8.2,2.5.5,4.5,2.5,4.4,1.2,0,2.5-1.4,2.5-1.4h.1c0,0-.6,3-3.6,3.2-2.9.2-3.9-1.8-4.1-4.5-.1-1.6-.2-3.5-.2-4.4Z"/>
        <path class="st1" d="M75,96.3c-.2-2.1-.3-2.2-1.3-2.4v-1c1,0,3.2-2.3,3.5-3.2l.6.2-.3,2.7h2c1-.2,1.3-.5,1.3-.5,0,.1,0,.5,0,.7,0,1-.4,1.3-1.3,1.4-.3,0-2,0-2,0,0,0,.1,2.9.3,4.8.2,2.5.5,4.5,2.5,4.4,1.2,0,2.5-1.4,2.5-1.4h.1c0,0-.6,3-3.6,3.2-2.9.2-3.9-1.8-4.1-4.5-.1-1.6-.1-3.5-.2-4.4Z"/>
        <path class="st1" d="M84.3,101.7h.1s1.6,1.7,4,1.5c1.6-.1,2.1-1,2.1-1.9-.2-2.6-6.6-1.7-6.9-5.9-.2-2.4,2-3.9,4.3-4,1,0,3.8.1,3.9,1.1,0,.5-.4,1.3-.8,1.9h-.1s-1.4-2-3.3-1.9c-1.1,0-1.9.9-1.8,2,.2,2.5,6.6,1.4,6.9,5.9.2,2.5-2.2,4-4.5,4.2-1.6.1-4.3-.4-4.3-1.5,0-.4.2-1,.4-1.4Z"/>
        <path class="st1" d="M100,90.5c3.3-.2,4.7,1.5,4.8,3.2.2,2.5-2.4,3.6-4.6,3.7-1.4.1-2.8-.5-2.8-.5h0c.2,3,1.8,5,4.3,4.8,2-.1,3.8-1.7,3.8-1.7h.1c0,.1-.6,3.3-4.8,3.6-3.3.2-6-2.2-6.2-5.8-.2-3.4,1.8-7.1,5.4-7.3ZM97,89.1c2-1.3,2.9-3.8,3.1-4.4,1.3,0,2,1.1,2,1.1-.3,1.7-2.9,3.5-4.3,3.6-.2,0-.6,0-.8,0h0ZM99.7,96.3c1.1,0,2.3-.8,2.2-2.3,0-1.2-.7-2.3-2.1-2.2-1.8.1-2.5,3.2-2.4,4.1,0,.2,1.3.5,2.4.4Z"/>
        <path class="st1" d="M109.9,103.9c.2,1.2,1.1,3.3,3.8,3.1,1.5-.1,3-.9,2.9-2.3-.2-2.2-7-.2-7.2-3.8,0-1,.6-1.9,1-2.3-2-.4-3.2-1.6-3.3-3.7-.2-2.7,2-4.9,5.2-5.1,1,0,1.8,0,2.6.2,1.3-.1,1.6-1.3,1.6-2.8.9,0,1.9,0,1.9.9,0,1.2-1.2,2-2.4,2.4,1,.7,1.6,1.7,1.7,3.1.2,2.7-2,4.9-5.2,5.1-.4,0-.8,0-1.1,0-.2.3-.3.7-.3.9.1,1.9,7.5-.2,7.9,4.1.2,2.4-2.2,4.3-5.6,4.5-3.4.2-5.2-1.6-5.3-3,0-1.1,1.2-1.2,2-1.3ZM114.9,94.3c-.1-1.9-1-3.5-2.9-3.4-1.4,0-2.3,1.6-2.2,3.2.1,1.9,1,3.5,2.9,3.4,1.4,0,2.3-1.6,2.2-3.2Z"/>
        <path class="st1" d="M120.1,85.4c0-.9.6-1.7,1.5-1.8.9,0,1.7.6,1.8,1.6,0,.9-.7,1.7-1.6,1.8-.9,0-1.7-.7-1.8-1.5ZM121.2,95.8c-.4-5.7-1-6.4-1.1-6.4.4-.2.8-.3,1.2-.3,1.1,0,2.2.4,2.2,1.4.2,2.6.3,5.6.4,7.5,0,1.1.2,2.6,1.4,2.5.5,0,.9-.4.9-.4h.1c0,0-.5,1.7-2.6,1.8-1.1,0-2.3-.4-2.4-1.9-.1-1.4-.1-2.9-.2-4.3Z"/>
        <path class="st1" d="M127.6,101c0-.3,0-.7.2-1,1.1-1.8,4.5-7.9,5.3-10h0c-1.3.2-3.5.4-5,.5-1,0-1.1-.8-1.3-1.8,0,0,1.3.2,5.2,0l4.6-.3v.3c0,.3,0,.8-.3,1.3-2.2,3.7-4.1,7.6-5.3,9.8h0c1-.3,3.2-.5,4.9-.6,1.8-.1,1.8.3,2.1,1.7,0,0-1.6,0-5.7.2l-4.7.3s0-.2,0-.4Z"/>
        <path class="st1" d="M140.4,94.4c0-1.2-.2-2.5-.4-3.7-.3-2.4-.7-2.6-.7-2.6.4-.2.8-.3,1.2-.3,1.1,0,2,.5,2,1.2,0,.3,0,.6,0,.6h.1c.5-1.3,2.4-2.3,4.2-2.4,3.3-.2,3.8,1.5,3.9,3.3.1,1.8.1,3.5.3,5.6,0,1.1.2,2.6,1.4,2.5.5,0,.9-.4.9-.4h.1c0,0-.5,1.7-2.6,1.8-1.1,0-2.3-.4-2.4-1.9-.2-2.1-.2-3.6-.4-6.2-.1-1.7-.3-3.4-2.4-3.2-1.3,0-2.9,1.4-2.7,3.8.2,2.2.4,3.9.6,6.3,0,1.3-.6,1.7-1.4,1.8-.5,0-1.2,0-1.8-.1.2,0,.5-1.7.2-6.1Z"/>
        <path class="st1" d="M154.3,83c0-.9.6-1.7,1.5-1.8.9,0,1.7.6,1.8,1.6,0,.9-.7,1.7-1.6,1.8-.9,0-1.7-.7-1.8-1.5ZM155.4,93.4c-.4-5.7-1-6.4-1.1-6.4.4-.2.8-.3,1.2-.3,1.1,0,2.2.4,2.2,1.4.2,2.6.3,5.6.4,7.5,0,1.1.2,2.6,1.4,2.5.5,0,.9-.4.9-.4h.1c0,0-.5,1.7-2.6,1.8-1.1,0-2.3-.4-2.4-1.9-.1-1.4-.1-2.9-.2-4.3Z"/>
      </g>
    </g>
  </g>
</svg>