<?xml version="1.0" encoding="UTF-8"?>
<svg id="Layer_1" xmlns="http://www.w3.org/2000/svg" version="1.1" viewBox="0 0 200 200">
  <!-- Generator: Adobe Illustrator 29.1.0, SVG Export Plug-In . SVG Version: 2.1.0 Build 142)  -->
  <defs>
    <style>
      .st0 {
        fill: #d19ac2;
      }

      .st1 {
        isolation: isolate;
      }

      .st2 {
        fill: #fff;
      }
    </style>
  </defs>
  <path class="st0" d="M155.8,64c11,10.1,10.9,29,6.9,48.4-4,19.5-11.9,39.8-27.8,45.7-15.8,6-39.6-2.2-60.1-12-20.6-9.7-38.1-20.7-45-36.4-6.9-15.8-3.3-36.1,10.1-46.6,13.4-10.5,36.8-11.1,59.5-10.7,22.8.2,45.2,1.6,56.3,11.5h.1Z"/>
  <g class="st1">
    <g class="st1">
      <g class="st1">
        <path class="st2" d="M43,85.4v-.2c.1-1.5-.1-2.3-1.5-2.4-.9,0-1.8.3-2.5.8h0c.4-1.1,1.9-2.1,3.4-1.9,2.5.2,2.7,1.7,2.5,3.3,0,.9-.2,2.1-.3,3v.2c0,.7-.2,1.9.7,2,.3,0,.7-.2.7-.2h0c0,0-.5,1.1-2,1-.7,0-1.4-.4-1.4-1.3h0c-.5.7-1.4,1.2-2.5,1.1-1.5-.1-2.2-1.3-2.1-2.5.2-2.5,3.1-3,5-2.9ZM41,89.6c.6,0,1.6-.4,1.7-1.1,0-.7.2-1.6.3-2.5-.7,0-2.8.2-3,2.1,0,1,.4,1.5,1,1.5ZM40.4,80.4c1.5-.7,2.4-2.3,2.7-2.7.9,0,1.3.9,1.3.9-.4,1.1-2.4,2.1-3.4,2-.1,0-.4,0-.5-.1h0Z"/>
        <path class="st2" d="M48.1,92.1c0,.8.4,2.4,2.3,2.6,1,0,2.2-.3,2.2-1.3.1-1.5-4.8-.9-4.6-3.4,0-.7.6-1.3,1-1.5-1.4-.5-2-1.5-1.9-3,.2-1.9,1.9-3.2,4.2-3,.7,0,1.3.2,1.8.4.9,0,1.2-.7,1.4-1.8.6.1,1.3.2,1.2.8,0,.9-1.1,1.3-1.9,1.4.6.6.9,1.3.8,2.3-.2,1.9-1.9,3.2-4.2,3-.3,0-.6,0-.8-.1-.2.2-.3.5-.3.6-.1,1.3,5.3.7,5,3.7-.1,1.7-2,2.7-4.4,2.5-2.4-.2-3.5-1.7-3.4-2.7,0-.8,1-.7,1.5-.7ZM52.6,86c.1-1.3-.3-2.6-1.6-2.7-1,0-1.8.8-1.9,2-.1,1.3.3,2.6,1.6,2.7,1,0,1.8-.8,1.9-2Z"/>
        <path class="st2" d="M60.8,86.9v-.2c.1-1.5-.1-2.3-1.5-2.4-.9,0-1.8.3-2.5.8h0c.4-1.1,1.9-2.1,3.4-1.9,2.5.2,2.7,1.7,2.5,3.3,0,.9-.2,2.1-.3,3v.2c0,.7-.2,1.9.7,2,.3,0,.7-.2.7-.2h0c0,0-.5,1.1-2,1-.7,0-1.4-.4-1.4-1.3h0c-.5.7-1.4,1.2-2.5,1.1-1.5-.1-2.2-1.3-2.1-2.5.2-2.5,3.1-3,5-2.9ZM58.9,91.1c.6,0,1.6-.4,1.7-1.1,0-.7.2-1.6.3-2.5-.7,0-2.8.2-3,2.1,0,1,.4,1.5,1,1.5Z"/>
        <path class="st2" d="M64.4,92.3c0-.2,0-.5.3-.7.9-1.1,4-5,4.8-6.3h0c-1,0-2.5-.1-3.6-.2-.7,0-.7-.7-.7-1.4,0,0,.9.3,3.6.5l3.2.3v.2c0,.2,0,.6-.4.9-1.9,2.3-3.7,4.8-4.8,6.3h0c.8,0,2.3,0,3.5.1,1.2.1,1.2.4,1.3,1.4,0,0-1.1-.2-3.9-.5l-3.3-.3s0-.2,0-.3Z"/>
        <path class="st2" d="M77.9,88.3v-.2c.1-1.5-.1-2.3-1.5-2.4-.9,0-1.8.3-2.5.8h0c.4-1.1,1.9-2.1,3.4-1.9,2.5.2,2.7,1.7,2.6,3.3,0,.9-.2,2.1-.3,3v.2c0,.7-.2,1.9.7,2,.3,0,.7-.2.7-.2h0c0,0-.5,1.1-2,1-.7,0-1.4-.4-1.4-1.3h0c-.5.7-1.4,1.2-2.5,1.1-1.5-.1-2.2-1.3-2.1-2.5.2-2.5,3.1-3,5-2.9ZM75.9,92.6c.6,0,1.6-.4,1.7-1.1,0-.7.2-1.6.3-2.5-.7,0-2.8.2-3,2.1,0,1,.4,1.5,1,1.5Z"/>
        <path class="st2" d="M83,87.9c.1-1.5,0-1.6-.7-1.8v-.7c.8,0,2.6-1.3,2.9-1.8l.4.2-.5,1.9h1.4c.7.2,1,0,1,0,0,.1,0,.4,0,.5,0,.7-.4.9-1.1.8-.2,0-1.4-.2-1.4-.2,0,0-.2,2.1-.3,3.4-.1,1.7-.1,3.2,1.2,3.3.9,0,1.9-.7,1.9-.7h0c0,0-.7,2-2.9,1.9-2-.2-2.5-1.7-2.3-3.6,0-1.1.3-2.4.3-3.1Z"/>
        <path class="st2" d="M89.5,90.4c.3-4,0-4.6,0-4.6.3,0,.6-.1.9,0,.8,0,1.4.5,1.4,1.2-.2,1.8-.4,3.9-.5,5.2,0,.8-.1,1.8.7,1.9.3,0,.7-.2.7-.2h0c0,0-.5,1.1-2,1-.8,0-1.5-.5-1.5-1.5,0-1,.2-2,.3-3ZM89.8,83.1c0-.6.6-1.1,1.3-1.1.6,0,1.1.6,1.1,1.3,0,.6-.6,1.1-1.3,1.1-.6,0-1.1-.6-1.1-1.3Z"/>
        <path class="st2" d="M98.2,87.8c-.1-.4-.3-.8-.6-1.1h0c.4-.1.7-.2,1.3-.1.6,0,1.2.3,1.3.8.2,1.5,1.1,4.9,1.7,6.9h0c2.9-6.5,2.1-7.3,3.6-7.2.5,0,.8.2.8.2h0c0,0-.5.3-1,1.6l-3.2,7.1s-1.9-.2-2.2-1.7c-.4-1.6-1.2-5.1-1.7-6.5Z"/>
        <path class="st2" d="M107.6,92c.3-4,0-4.6,0-4.6.3,0,.6-.1.9,0,.8,0,1.4.5,1.4,1.2-.2,1.8-.4,3.9-.5,5.2,0,.8-.1,1.8.7,1.9.3,0,.7-.2.7-.2h0c0,0-.5,1.1-2,1-.8,0-1.5-.5-1.5-1.5,0-1,.2-2,.3-3ZM107.9,84.6c0-.6.6-1.1,1.3-1.1.6,0,1.1.6,1.1,1.3,0,.6-.6,1.1-1.3,1.1-.6,0-1.1-.6-1.1-1.3Z"/>
        <path class="st2" d="M111.4,96.2c0-.2,0-.5.3-.7.9-1.1,4-5,4.8-6.3h0c-1,0-2.5-.1-3.6-.2-.7,0-.7-.7-.7-1.4,0,0,.9.3,3.6.5l3.2.3v.2c0,.2,0,.6-.4.9-1.9,2.3-3.7,4.8-4.8,6.3h0c.8,0,2.3,0,3.5.1,1.2.1,1.2.4,1.3,1.4,0,0-1.1-.2-3.9-.5l-3.3-.3s0-.2,0-.3Z"/>
        <path class="st2" d="M120.3,95.3h0s.9,1.3,2.6,1.5c1.1,0,1.6-.5,1.6-1.1.2-1.8-4.4-1.9-4.2-4.9.1-1.7,1.8-2.5,3.4-2.3.7,0,2.6.5,2.6,1.2,0,.4-.4.9-.7,1.2h0s-.7-1.5-2.1-1.7c-.8,0-1.4.4-1.5,1.2-.1,1.8,4.4,1.7,4.2,4.8-.1,1.8-1.9,2.5-3.6,2.4-1.2,0-2.9-.7-2.9-1.5,0-.3.3-.7.4-.9Z"/>
        <path class="st2" d="M128.9,98.9c0,.8.4,2.4,2.3,2.6,1,0,2.2-.3,2.2-1.3.1-1.5-4.8-.9-4.6-3.4,0-.7.6-1.3,1-1.5-1.4-.5-2-1.5-1.9-3,.2-1.9,1.9-3.2,4.2-3,.7,0,1.3.2,1.8.4.9,0,1.2-.7,1.4-1.8.6.1,1.3.2,1.2.8,0,.9-1.1,1.3-1.9,1.4.6.6.9,1.3.8,2.3-.2,1.9-1.9,3.2-4.2,3-.3,0-.6,0-.8-.1-.2.2-.3.5-.3.6-.1,1.3,5.3.7,5,3.7-.1,1.7-2,2.7-4.4,2.5-2.4-.2-3.5-1.7-3.4-2.7,0-.8,1-.7,1.5-.7ZM133.4,92.7c.1-1.3-.3-2.6-1.6-2.7-1,0-1.8.8-1.9,2-.1,1.3.3,2.6,1.6,2.7,1,0,1.8-.8,1.9-2Z"/>
        <path class="st2" d="M141.6,93.6v-.2c.1-1.5-.1-2.3-1.5-2.4-.9,0-1.8.3-2.5.8h0c.4-1.1,1.9-2.1,3.4-1.9,2.5.2,2.7,1.7,2.5,3.3,0,.9-.2,2.1-.3,3v.2c0,.7-.2,1.9.7,2,.3,0,.7-.2.7-.2h0c0,0-.5,1.1-2,1-.7,0-1.4-.4-1.4-1.3h0c-.5.7-1.4,1.2-2.5,1.1-1.5-.1-2.2-1.3-2.1-2.5.2-2.5,3.1-3,5-2.9ZM139.6,97.9c.6,0,1.6-.4,1.7-1.1,0-.7.2-1.6.3-2.5-.7,0-2.8.2-3,2.1,0,1,.4,1.5,1,1.5ZM139,88.7c1.5-.7,2.4-2.3,2.7-2.7.9,0,1.3.9,1.3.9-.4,1.1-2.4,2.1-3.4,2-.1,0-.4,0-.5-.1h0Z"/>
        <path class="st2" d="M146.6,93.2c.1-1.5,0-1.6-.7-1.8v-.7c.8,0,2.6-1.3,2.9-1.8l.4.2-.5,1.9h1.4c.7.2,1,0,1,0,0,.1,0,.4,0,.5,0,.7-.4.9-1.1.8-.2,0-1.4-.2-1.4-.2,0,0-.2,2.1-.3,3.4-.1,1.7-.1,3.2,1.2,3.3.9,0,1.9-.7,1.9-.7h0c0,0-.7,2-2.9,1.9-2-.2-2.5-1.7-2.3-3.6,0-1.1.3-2.4.3-3.1Z"/>
      </g>
    </g>
    <g class="st1">
      <g class="st1">
        <path class="st2" d="M54.4,108.5c0-.9.1-1.8.1-2.6,0-1.7-.2-1.9-.2-1.9.3,0,.6-.1.9,0,.8,0,1.3.5,1.3,1.1,0,.2-.1.4-.1.4h0c.4-.8,1.7-1.3,2.8-1.2,1.6.1,2.2.8,2.3,1.6h0c.5-.8,1.8-1.3,2.9-1.2,2.3.2,2.4,1.4,2.3,2.6-.1,1.3-.3,2.4-.4,3.9,0,.8-.1,1.8.7,1.9.3,0,.7-.2.7-.2h0c0,0-.5,1.1-2,1-.8,0-1.5-.5-1.5-1.5.1-1.5.3-2.5.4-4.3,0-1.2.2-2.3-1.3-2.4-1.6-.1-2,2.1-2.1,2.9,0,0-.2,3-.2,3.1-.1,1.2-.5,1.5-.8,1.8-.6-.1-1.3-.2-1.2-1.4.1-1.5.3-2.6.4-4.4,0-1.2.2-2.3-1.3-2.4-.7,0-1.8.7-1.9,2.3-.1,1.6-.2,2.8-.3,4.4,0,.9-.6,1.1-1.2,1.1-.4,0-.8-.2-1.2-.3.1,0,.5-1.1.8-4.2Z"/>
        <path class="st2" d="M73.5,105.3c2.3.2,3.1,1.6,3,2.8-.1,1.7-2,2.2-3.6,2.1-1,0-1.9-.6-1.9-.6h0c-.2,2.1.7,3.6,2.5,3.8,1.4.1,2.8-.8,2.8-.8h0c0,0-.8,2.3-3.7,2-2.3-.2-3.9-2.2-3.7-4.7.2-2.4,2-4.7,4.5-4.5ZM72.7,109.3c.8,0,1.7-.3,1.8-1.4,0-.8-.2-1.7-1.2-1.8-1.2-.1-2.1,2-2.1,2.6,0,.1.9.5,1.6.6Z"/>
        <path class="st2" d="M79,115.7c0,.8.4,2.4,2.3,2.6,1,0,2.2-.3,2.2-1.3.1-1.5-4.8-.9-4.6-3.4,0-.7.6-1.2,1-1.5-1.4-.5-2-1.5-1.9-3,.2-1.9,1.9-3.2,4.2-3,.7,0,1.3.2,1.8.4.9,0,1.2-.7,1.4-1.8.6.1,1.3.2,1.2.8,0,.9-1.1,1.3-1.9,1.4.6.6.9,1.3.8,2.3-.2,1.9-1.9,3.2-4.2,3-.3,0-.6,0-.8-.1-.2.2-.3.5-.3.6-.1,1.3,5.3.7,5,3.7-.1,1.7-2,2.7-4.4,2.5-2.4-.2-3.5-1.7-3.4-2.7,0-.8,1-.7,1.5-.7ZM83.5,109.6c.1-1.3-.3-2.6-1.6-2.7-1,0-1.8.8-1.9,2-.1,1.3.3,2.6,1.6,2.7,1,0,1.8-.8,1.9-2Z"/>
        <path class="st2" d="M87.6,110.6c0-.4.1-1.3.1-2.2,0-.7,0-1.4-.2-1.7.3,0,.6-.1.9,0,.8,0,1.4.5,1.4,1.2-.1,1.5-.3,2.5-.4,4.3-.1,1.4-.1,2.7,1.2,2.8,1.6.1,2.3-2,2.4-3.5,0-1.1.1-2.1.1-2.7,0-1.2-.2-1.6-.2-1.6.3,0,.6-.1.9,0,.8,0,1.5.5,1.4,1.3-.1,1.6-.4,3.2-.6,5.2,0,.7,0,1.8.7,1.9.3,0,.7-.2.7-.2h0c0,0-.5,1.1-2,1-.7,0-1.4-.4-1.3-1.4,0,0,0-.2,0-.2h0s-.8,1.4-2.9,1.2c-2.3-.2-2.6-1.6-2.5-3,0-.7.2-1.5.2-2.4Z"/>
        <path class="st2" d="M98.4,117.3c0,.8.4,2.4,2.3,2.6,1,0,2.2-.3,2.2-1.3.1-1.5-4.8-.9-4.6-3.4,0-.7.6-1.2,1-1.5-1.4-.5-2-1.5-1.9-3,.2-1.9,1.9-3.2,4.2-3,.7,0,1.3.2,1.8.4.9,0,1.2-.7,1.4-1.8.6.1,1.3.2,1.2.8,0,.9-1.1,1.3-1.9,1.4.6.6.9,1.3.8,2.3-.2,1.9-1.9,3.2-4.2,3-.3,0-.6,0-.8-.1-.2.2-.3.5-.3.6-.1,1.3,5.3.7,5,3.7-.1,1.7-2,2.7-4.4,2.5-2.4-.2-3.5-1.7-3.4-2.7,0-.8,1-.7,1.5-.7ZM102.9,111.2c.1-1.3-.3-2.6-1.6-2.7-1,0-1.8.8-1.9,2-.1,1.3.3,2.6,1.6,2.7,1,0,1.8-.8,1.9-2Z"/>
        <path class="st2" d="M107.2,113c.3-3.5,0-4.5,0-4.6.3,0,.6-.1.9,0,.8,0,1.4.5,1.3,1.2,0,.3-.2.6-.2.6h0c.6-1,1.8-1.6,2.8-1.5.7,0,.8.4.8.8,0,.4-.1.9-.3,1.2h0c-.5-.3-1-.5-1.4-.6-1.4-.1-1.9,1.3-2,3.2-.3,3.4,0,4.1,0,4.1-.4,0-.9.1-1.2,0-.6,0-1.1-.4-1-1.4,0-1,.3-2.1.3-3Z"/>
        <path class="st2" d="M118.1,112.7v-.2c.1-1.5-.1-2.3-1.5-2.4-.9,0-1.8.3-2.5.8h0c.4-1.1,1.9-2.1,3.4-1.9,2.5.2,2.7,1.7,2.6,3.3,0,.9-.2,2.1-.3,3v.2c0,.7-.2,1.9.7,2,.3,0,.7-.2.7-.2h0c0,0-.5,1.1-2,1-.7,0-1.4-.4-1.4-1.3h0c-.5.7-1.4,1.2-2.5,1.1-1.5-.1-2.2-1.3-2.1-2.5.2-2.5,3.1-3,5-2.9ZM116.1,117c.6,0,1.6-.4,1.7-1.1,0-.7.2-1.6.3-2.5-.7,0-2.8.2-3,2.1,0,1,.4,1.5,1,1.5Z"/>
        <path class="st2" d="M123.1,114.2c0-.9.1-1.8.1-2.6,0-1.7-.2-1.9-.2-1.9.3,0,.6-.1.9,0,.8,0,1.3.5,1.3,1.1,0,.2-.1.4-.1.4h0c.5-.8,1.9-1.3,3.2-1.2,2.3.2,2.4,1.5,2.3,2.7-.1,1.3-.3,2.4-.4,3.9,0,.8-.1,1.8.7,1.9.3,0,.7-.2.7-.2h0c0,0-.5,1.1-2,1-.8,0-1.5-.5-1.5-1.5.1-1.5.3-2.5.4-4.3.1-1.2.2-2.4-1.3-2.5-.9,0-2.2.7-2.3,2.3-.1,1.6-.2,2.8-.3,4.4,0,.9-.6,1.1-1.2,1.1-.4,0-.8-.2-1.2-.3.1,0,.5-1.1.8-4.2Z"/>
        <path class="st2" d="M133.6,115.2c.3-4,0-4.6,0-4.6.3,0,.6-.1.9,0,.8,0,1.4.5,1.4,1.2-.2,1.8-.4,3.9-.5,5.2,0,.8-.1,1.8.7,1.9.3,0,.7-.2.7-.2h0c0,0-.5,1.1-2,1-.8,0-1.5-.5-1.5-1.5,0-1,.2-2,.3-3ZM133.9,107.8c0-.6.6-1.1,1.3-1.1.6,0,1.1.6,1.1,1.3,0,.6-.6,1.1-1.3,1.1-.6,0-1.1-.6-1.1-1.3Z"/>
      </g>
    </g>
  </g>
</svg>