<svg viewBox="0 0 200 180" xmlns="http://www.w3.org/2000/svg" xmlns:xlink="http://www.w3.org/1999/xlink"><linearGradient id="a" gradientUnits="userSpaceOnUse" x1="139.7" x2="82.3" y1="13.7" y2="114.5"><stop offset="0" stop-color="#f498aa"/><stop offset="1" stop-color="#d1809e"/></linearGradient><path d="m172 49.9c17.5 16.6 28.1 43.9 22.1 66.1-6.3 22.2-29.1 39-51.8 45.9-22.6 6.6-44.9 3.1-68.5-5.4-23.6-8.4-48.4-21.8-61.1-46.7-12.7-24.9-13.4-61.4 4.2-77.9 17.6-16.6 53.3-13.1 83.4-8.5s54.3 10.2 71.8 26.8v-.3s-.1 0-.1 0z" fill="url(#a)"/><g fill="#fff"><path d="m38.3 76.3c-.3 0-.6 0-.8-.3 1.4-.6 2.2-1.7 2.2-10.7s0-4.7-1-5.1l-.6-.3v-1c1 0 1.7-.3 1.7-1.4 0-3.6 1.9-5.2 4.7-5.2s3.8 1.1 3.8 2.7c-.5-.8-1.8-1.1-2.9-1.1s-2.9.6-2.9 3.3v1.8h1.7c1 0 1.3-.3 1.3-.3v.6c0 1-.5 1.1-1.3 1.1h-1.5v11c0 3.4-1.8 4.7-3.8 4.7h-.4z"/><path d="m52.5 63.5v-.3c0-1.9-.5-3.1-2.3-3.1s-2.4.6-3.2 1.4c.4-1.5 2.3-2.9 4.3-2.9 3.3 0 3.8 2 3.8 4.1v4.3c0 .9 0 2.6 1.1 2.6s.9-.4.9-.4-.6 1.5-2.6 1.5-1.9-.4-2-1.7c-.5.9-1.7 1.8-3.2 1.8s-3.2-1.4-3.2-3.2c0-3.4 3.8-4.5 6.4-4.5v.3zm-2.2 6c.8 0 2-.8 2-1.7v-3.4c-1 0-3.7.6-3.7 3.1s.8 1.9 1.5 1.9h.2z"/><path d="m59.2 63.9v-8.2c0-2.2-.4-2.7-.4-2.7 1.5 0 3.1 0 3.1 1.7v9.3l.3-.3c3.1-3.1 3.8-3.7 4-4.6h1.3c.6 0 1.1 0 1.1.5 0 .9-2.4 2.3-4.6 4.3 1.1 1.5 4.1 5.6 6 7s-.5.4-1.9.4c-3.3 0-5.4-5.9-6.1-6.1v4.6c0 1.5-.6 1.7-1.5 1.7s-1.1 0-1.7-.3c.4-.3.6-4.7.6-7v-.3z"/><path d="m71.7 64.3v-2.9c0-1 0-1.9-.5-2.3.4 0 .8-.3 1.1-.3 1 0 2 .5 2 1.5v5.7c0 2.3 0 3.6 1.9 3.6s2.8-2.9 2.8-4.8v-3.7c0-1.7-.4-2.2-.4-2.2.4 0 .8-.3 1.1-.3 1.1 0 2 .5 2 1.5v7c0 2.7 0 2.4 1.1 2.4s.9-.4.9-.4-.6 1.5-2.6 1.5-1.9-.5-1.9-1.7 0-.3 0-.3-.9 2-3.8 2-3.7-1.8-3.7-3.7v-3.2.3h-.3z"/><path d="m86 61.5v-5.9c0-2.2-.4-2.7-.4-2.7 1.5 0 3.1 0 3.1 1.7v13.7c0 .8.3 1.5 1 1.5s.9-.4.9-.4-.6 1.5-2.6 1.5-2.2-.5-2.2-2v-7.5h.2z"/><path d="m92.8 62.5c0-1.3-.3-2.1-1-2.4v-1c1 0 3.2-1.9 3.6-2.8h.5l-.5 2.8h1.9c1 0 1.3-.3 1.3-.3v.6c0 1-.5 1.1-1.3 1.1h-1.9v4.6c0 1.8.3 4.3 2 4.3s2.6-1.1 2.6-1.1-.8 2.8-3.7 2.8-3.6-1.9-3.6-4.6v-4.2.2z"/><path d="m107.1 63.5v-.3c0-1.9-.5-3.1-2.3-3.1s-2.4.6-3.2 1.4c.4-1.5 2.3-2.9 4.3-2.9 3.3 0 3.8 2 3.8 4.1v4.3c0 .9 0 2.6 1.1 2.6s.9-.4.9-.4-.6 1.5-2.6 1.5-1.9-.4-2-1.7c-.5.9-1.7 1.8-3.2 1.8s-3.2-1.4-3.2-3.2c0-3.4 3.8-4.5 6.4-4.5v.3zm-4-6.3c1.9-1 2.9-3.4 3.2-4 1.3 0 1.8 1.1 1.8 1.1-.4 1.5-2.9 3.1-4.3 3.1s-.5 0-.8 0v-.3h.1zm1.8 12.3c.8 0 2-.8 2-1.7v-3.4c-1 0-3.7.6-3.7 3.1s.8 1.9 1.5 1.9h.2z"/><path d="m119.1 58.7c1 0 3.8.4 3.8 1.7s-.4 1.1-.8 1.5-1.3-2.2-3.3-2.2-3.2 2.6-3.2 4.6 1.5 5 4 5 3.8-1.5 3.8-1.5-1 3.3-4.8 3.3-5.6-2.6-5.6-5.9 2.6-6.6 6.4-6.6h-.3z"/><path d="m126.1 65.2c0-5.4-.5-6.1-.5-6.1.4 0 .8-.3 1.1-.3 1 0 2 .5 2 1.5v7c0 1.7 0 2.4 1.1 2.4s.9-.4.9-.4-.6 1.5-2.6 1.5-2.2-.5-2.2-1.9v-4.1.3h.2zm-.4-9.9c0-.9.8-1.7 1.5-1.7s1.7.8 1.7 1.7-.8 1.5-1.7 1.5-1.5-.8-1.5-1.5z"/><path d="m138.1 58.7c4 0 6 2.8 6 5.6s-2.2 6.9-6.3 6.9-6-2.9-6-6 2.2-6.5 6.3-6.5zm0 11.5c2 0 3.1-2.7 3.1-5.4s-1.1-5-3.3-5-3.1 2.6-3.1 5 1.1 5.2 3.3 5.2zm-2.7-13c1.9-1 2.9-3.4 3.2-4 1.3 0 1.8 1.1 1.8 1.1-.4 1.5-2.9 3.1-4.3 3.1s-.5 0-.8 0v-.3h.1z"/><path d="m147.1 62.5c0-2-.1-2-1-2.4v-1c1 0 3.2-1.9 3.6-2.8h.5l-.5 2.8h1.9c1 0 1.3-.3 1.3-.3v.6c0 1-.5 1.1-1.3 1.1h-1.9v4.6c0 1.8.3 4.3 2 4.3s2.6-1.1 2.6-1.1-.8 2.8-3.7 2.8-3.6-1.9-3.6-4.6v-4.2h.1z"/><path d="m155.6 73c.9 0 1.7-.6 1.7-1.5s-1.3-.6-1.3-1.9.6-1.5 1.5-1.5c1.3 0 1.8 1.1 1.8 2.4s-.9 3.3-2.8 3.3-1.8-.8-1.8-.8z"/><path d="m43.7 96.6s1.4 1.7 3.7 1.7 2-.8 2-1.7c0-2.4-6.1-2-6.1-6.1s2.2-3.4 4.3-3.4 3.6.4 3.6 1.3-.4 1.3-.9 1.7-1.1-1.9-2.9-1.9-1.8.8-1.8 1.8c0 2.4 6.1 1.8 6.1 6s-2.3 3.6-4.5 3.6-4-.6-4-1.7.3-1 .5-1.3h.1z"/><path d="m53.5 98.8c0-.3 0-.6.3-1 1.1-1.7 4.7-7.1 5.6-9.1h-4.8c-1.5 0-1-.9-1-1.8 0 0 1.1.3 4.8.3h4.3v.3c0 .3 0 .8-.4 1.1-2.3 3.3-4.3 6.9-5.7 8.9 1-.3 3.1-.3 4.7-.3s1.7.4 1.9 1.8h-9.8v-.4.2z"/><path d="m71.1 92v-.3c0-1.9-.5-3.1-2.3-3.1s-2.4.6-3.2 1.4c.4-1.5 2.3-2.9 4.3-2.9 3.3 0 3.8 2 3.8 4.1v4.3c0 .9 0 2.6 1.1 2.6s.9-.4.9-.4-.6 1.5-2.6 1.5-1.9-.4-2-1.7c-.5.9-1.7 1.8-3.2 1.8s-3.2-1.4-3.2-3.2c0-3.4 3.8-4.5 6.4-4.5v.3zm-2.2 5.9c.8 0 2-.8 2-1.7v-3.4c-1 0-3.7.6-3.7 3.1s.8 1.9 1.5 1.9h.2z"/><path d="m77.9 92.3v-8.2c0-2.2-.4-2.7-.4-2.7 1.5 0 3.1 0 3.1 1.7v9.3l.3-.3c3.1-3.1 3.8-3.7 4-4.6h1.3c.6 0 1.1 0 1.1.5 0 .9-2.4 2.3-4.6 4.3 1.1 1.5 4.1 5.6 6 7s-.5.4-1.9.4c-3.3 0-5.4-5.9-6.1-6.1v4.6c0 1.5-.6 1.7-1.5 1.7s-1.1 0-1.7-.3c.4-.3.6-4.7.6-7v-.3z"/><path d="m90.5 93.5c0-5.4-.5-6.1-.5-6.1.4 0 .8-.3 1.1-.3 1 0 2 .5 2 1.5v7c0 1.7 0 2.4 1.1 2.4s.9-.4.9-.4-.6 1.5-2.6 1.5-2.2-.5-2.2-1.9v-4.1.3h.2zm-.4-9.9c0-.9.8-1.7 1.5-1.7s1.7.8 1.7 1.7-.8 1.5-1.7 1.5-1.5-.8-1.5-1.5z"/><path d="m97.5 93.5c0-4.7-.5-6-.6-6.1.4 0 .8-.3 1.1-.3 1 0 1.9.5 1.9 1.5s0 .9 0 .9c.6-1.4 2.3-2.4 3.6-2.4s1.1.4 1.1.9 0 1.1-.3 1.7c-.8-.4-1.4-.6-1.9-.6-1.8 0-2.3 1.9-2.3 4.5 0 4.6.5 5.5.5 5.5-.6 0-1.1.3-1.7.3-.9 0-1.5-.4-1.5-1.8v-4.1z"/><path d="m112 92v-.3c0-1.9-.5-3.1-2.3-3.1s-2.4.6-3.2 1.4c.4-1.5 2.3-2.9 4.3-2.9 3.3 0 3.8 2 3.8 4.1v4.3c0 .9 0 2.6 1.1 2.6s.9-.4.9-.4-.6 1.5-2.6 1.5-1.9-.4-2-1.7c-.5.9-1.7 1.8-3.2 1.8s-3.2-1.4-3.2-3.2c0-3.4 3.8-4.5 6.4-4.5v.3zm-4-6.4c1.9-1 2.9-3.4 3.2-4 1.3 0 1.8 1.1 1.8 1.1-.4 1.5-2.9 3.1-4.3 3.1s-.5 0-.8 0v-.3h.1zm1.9 12.3c.8 0 2-.8 2-1.7v-3.4c-1 0-3.7.6-3.7 3.1s.8 1.9 1.5 1.9h.2z"/><path d="m118.8 93.4v-3.6c0-2.3-.5-2.6-.5-2.6.4 0 .8-.3 1.1-.3 1 0 1.8.5 1.8 1.3s0 .6 0 .6c.5-1.1 2.4-2 4.1-2 3.1 0 3.4 1.7 3.4 3.4v5.4c0 2 0 2.4 1.1 2.4s.9-.4.9-.4-.6 1.5-2.6 1.5-2.2-.5-2.2-1.9v-5.9c0-2.4 0-3.2-2-3.2s-2.8 1.1-2.8 3.3v6c0 2.3-.6 1.7-1.5 1.7s-1.1 0-1.7-.3c0 0 .5-1.5.5-5.7h.3v.3z"/><path d="m133.2 102.5c1.4 0 2.6-.6 3.3-2.3l.4-.9c-.8 0-1.8-.6-2-1.8-.6-2.2-2.2-6.6-2.9-8.5-.3-.5-.5-1-.9-1.4.5-.3.9-.3 1.8-.3s1.7.3 1.8 1c.5 2 2 6.5 3.1 9.2 3.2-9.3 2-10.2 4.1-10.2s1 0 1 0-.6.5-1.3 2.3l-3.4 9.8c-1.3 3.6-3.2 5.1-5.1 5.1s-1.4-.9-1.5-2.3c.6 0 1.3.3 1.8.3z"/><path d="m145 90.8c0-2-.1-2-1-2.4v-1c1 0 3.2-1.9 3.6-2.8h.5l-.5 2.8h1.9c1 0 1.3-.3 1.3-.3v.6c0 1-.5 1.1-1.3 1.1h-1.9v4.6c0 1.8.3 4.3 2 4.3s2.6-1.1 2.6-1.1-.8 2.8-3.7 2.8-3.6-1.9-3.6-4.6v-4.2h.1z"/><path d="m46.7 117.4c-.3-.5-.5-1-.9-1.4.5-.3.9-.3 1.8-.3s1.7.3 1.9 1c.5 2 2 6.4 3.1 9.1 3.2-9.1 1.9-10.1 4-10.1s1 0 1 0-.6.5-1.3 2.3l-3.6 9.8s-2.6 0-3.2-2c-.6-2.2-2.2-6.6-2.9-8.5h.1z"/><path d="m64.8 120.3v-.3c0-1.9-.5-3.1-2.3-3.1s-2.4.6-3.2 1.4c.4-1.5 2.3-2.9 4.3-2.9 3.3 0 3.8 2 3.8 4.1v4.3c0 .9 0 2.6 1.1 2.6s.9-.4.9-.4-.6 1.5-2.6 1.5-1.9-.4-2-1.7c-.5.9-1.7 1.8-3.2 1.8s-3.2-1.4-3.2-3.2c0-3.4 3.8-4.5 6.4-4.5v.3zm-4-6.4c1.9-1 2.9-3.4 3.2-4 1.3 0 1.8 1.1 1.8 1.1-.4 1.5-2.9 3.1-4.3 3.1s-.5 0-.8 0v-.3zm1.9 12.3c.8 0 2-.8 2-1.7v-3.4c-1 0-3.7.6-3.7 3.1s.8 1.9 1.5 1.9h.2z"/><path d="m71.5 118.3v-5.9c0-2.2-.4-2.7-.4-2.7 1.5 0 3.1 0 3.1 1.7v13.7c0 .8.3 1.5 1 1.5s.9-.4.9-.4-.6 1.5-2.6 1.5-2.2-.5-2.2-2v-7.5h.2z"/><path d="m83.6 120.3v-.3c0-1.9-.5-3.1-2.3-3.1s-2.4.6-3.2 1.4c.4-1.5 2.3-2.9 4.3-2.9 3.3 0 3.8 2 3.8 4.1v4.3c0 .9 0 2.6 1.1 2.6s.9-.4.9-.4-.6 1.5-2.6 1.5-1.9-.4-2-1.7c-.5.9-1.7 1.8-3.2 1.8s-3.2-1.4-3.2-3.2c0-3.4 3.8-4.5 6.4-4.5v.3zm-2.2 5.9c.8 0 2-.8 2-1.7v-3.4c-1 0-3.7.6-3.7 3.1s.8 1.9 1.5 1.9h.2z"/><path d="m89.6 124.9s1.4 1.7 3.7 1.7 2-.8 2-1.7c0-2.4-6.1-2-6.1-6.1s2.2-3.4 4.3-3.4 3.6.4 3.6 1.3-.4 1.3-.9 1.7-1.1-1.9-2.9-1.9-1.8.8-1.8 1.8c0 2.4 6.1 1.8 6.1 6s-2.3 3.6-4.5 3.6-4-.6-4-1.7.3-1 .5-1.3h.1z"/><path d="m99.4 127.1c0-.3 0-.6.3-1 1.1-1.7 4.7-7.1 5.6-9.1h-4.8c-1.5 0-1-.9-1-1.8 0 0 1.1.3 4.8.3h4.3v.3c0 .3 0 .8-.4 1.1-2.3 3.3-4.3 6.9-5.7 8.9 1-.3 3.1-.3 4.7-.3s1.7.4 1.9 1.8h-9.8v-.4.2z"/><path d="m111.8 119.2c0-1.3-.3-2.1-1-2.4v-1c1 0 3.2-1.9 3.6-2.8h.5l-.5 2.8h1.9c1 0 1.3-.3 1.3-.3v.6c0 1-.5 1.1-1.3 1.1h-1.9v4.6c0 1.8.3 4.3 2 4.3s2.6-1.1 2.6-1.1-.8 2.8-3.7 2.8-3.6-1.9-3.6-4.6v-4.2.2z"/><path d="m126.1 120.3v-.3c0-1.9-.5-3.1-2.3-3.1s-2.4.6-3.2 1.4c.4-1.5 2.3-2.9 4.3-2.9 3.3 0 3.8 2 3.8 4.1v4.3c0 .9 0 2.6 1.1 2.6s.9-.4.9-.4-.6 1.5-2.6 1.5-1.9-.4-2-1.7c-.5.9-1.7 1.8-3.2 1.8s-3.2-1.4-3.2-3.2c0-3.4 3.8-4.5 6.4-4.5v.3zm-2.2 5.9c.8 0 2-.8 2-1.7v-3.4c-1 0-3.7.6-3.7 3.1s.8 1.9 1.5 1.9h.2z"/><path d="m132.8 121.9v-3.6c0-2.3-.5-2.6-.5-2.6.4 0 .8-.3 1.1-.3 1 0 1.8.5 1.8 1.3s0 .6 0 .6c.5-1.1 2.4-2 4.1-2 3.1 0 3.4 1.7 3.4 3.4v5.4c0 2 0 2.4 1.1 2.4s.9-.4.9-.4-.6 1.5-2.6 1.5-2.2-.5-2.2-1.9v-5.9c0-2.4 0-3.2-2-3.2s-2.8 1.1-2.8 3.3v6c0 2.3-.6 1.7-1.5 1.7s-1.1 0-1.7-.3c0 0 .5-1.5.5-5.7h.3v.3z"/><path d="m147.1 121.9c0-5.4-.5-6.1-.5-6.1.4 0 .8-.3 1.1-.3 1 0 2 .5 2 1.5v7c0 1.7 0 2.4 1.1 2.4s.9-.4.9-.4-.6 1.5-2.6 1.5-2.2-.5-2.2-1.9v-4.1.3h.2zm-.3-9.9c0-.9.8-1.7 1.5-1.7s1.7.8 1.7 1.7-.8 1.5-1.7 1.5-1.5-.8-1.5-1.5z"/></g></svg>