<svg viewBox="0 0 200 200" xmlns="http://www.w3.org/2000/svg" xmlns:xlink="http://www.w3.org/1999/xlink"><linearGradient id="a" gradientTransform="matrix(1 0 0 -1 0 202)" gradientUnits="userSpaceOnUse" x1="101.9" x2="97" y1="163.2" y2="37.1"><stop offset="0" stop-color="#8fa670"/><stop offset="1" stop-color="#5f883c"/></linearGradient><path d="m146.8 38.9c21.4 15.1 43.7 32.9 49 57.6 5.1 24.7-6.5 56.3-29.2 75.5-23 19.3-57.2 26.1-85.5 17.6-28.5-8.3-51.4-31.9-65.1-60.6-14-28.2-18.5-61.6-5.8-83.7 12.9-22.4 43.1-33.9 68.7-33.8 25.6.2 46.5 12.1 67.9 27.2z" fill="url(#a)"/><g fill="#fff"><path d="m49.6 56.1c2.9-.2 4.3 1.5 4.4 2.9 0 2.2-2.2 3.2-4.2 3.3-1.3 0-2.6-.5-2.6-.5 0 2.7 1.6 4.5 3.9 4.4 1.8 0 3.4-1.5 3.4-1.5s-.6 3.1-4.4 3.3c-3.1.2-5.4-2.1-5.6-5.4-.2-3.1 1.6-6.4 4.9-6.6h.1zm-2.7-1.4c1.8-1.1 2.7-3.4 2.8-4 1.2 0 1.8 1 1.8 1-.2 1.6-2.6 3.1-3.9 3.2h-.7zm2.5 6.5c1 0 2.1-.7 2-2.1 0-1.1-.6-2.1-1.8-2.1s-2.3 2.9-2.2 3.8c0 0 1.2.5 2.1.4z"/><path d="m57.3 61.7c-.2-4.5-.9-5.8-1-5.8.4 0 .7-.2 1.1-.2 1 0 1.8.4 2 1.3v.9c.5-1.5 2.1-2.4 3.3-2.4s1.1.4 1.1.9v1.6c-.7-.2-1.3-.5-1.8-.5-1.7 0-2.1 2-2 4.4.2 4.4.9 5.3.9 5.3-.6 0-1.1.2-1.6.4-.9 0-1.5-.2-1.5-1.6v-3.9l-.2-.2h-.2z"/><path d="m70.2 54.7c2.9-.2 4.3 1.5 4.4 2.9 0 2.2-2.2 3.2-4.2 3.3-1.3 0-2.6-.5-2.6-.5 0 2.7 1.6 4.5 3.9 4.4 1.8 0 3.4-1.5 3.4-1.5s-.6 3.1-4.4 3.3c-3.1.2-5.4-2.1-5.6-5.4-.2-3.1 1.6-6.4 4.9-6.6h.1zm-.3 5.2c1 0 2.1-.7 2-2.1 0-1.1-.6-2.1-1.8-2.1s-2.3 2.9-2.2 3.8c0 0 1.2.5 2.1.4z"/><path d="m77.8 57.8c0-2-.2-2-1.2-2.2v-1c.9 0 2.9-2.1 3.2-2.8h.5l-.2 2.6h1.8c1 0 1.2-.4 1.2-.4v.6c0 1-.4 1.2-1.2 1.2h-1.8s0 2.7.2 4.4c0 2.2.5 4.2 2.2 4 1.1 0 2.3-1.2 2.3-1.2s-.6 2.7-3.3 2.9c-2.7 0-3.5-1.6-3.7-4.2v-4z"/><path d="m86.5 57.3c0-2-.2-2-1.2-2.2v-1c.9 0 2.9-2.1 3.2-2.8h.5l-.2 2.6h1.8c1 0 1.2-.4 1.2-.4v.6c0 1-.4 1.2-1.2 1.2h-1.8s0 2.7.2 4.4c0 2.2.5 4.2 2.2 4 1.1 0 2.3-1.2 2.3-1.2s-.6 2.7-3.3 2.9c-2.6 0-3.5-1.6-3.7-4.2v-4z"/><path d="m94.9 62.3s1.5 1.5 3.7 1.3c1.5 0 2-.9 1.8-1.7 0-2.3-6-1.6-6.2-5.4 0-2.2 1.8-3.4 3.9-3.7.9 0 3.4 0 3.4 1.1s-.4 1.2-.7 1.7-1.2-1.8-2.9-1.7c-1 0-1.7.9-1.6 1.8 0 2.3 6 1.3 6.2 5.4 0 2.3-2 3.5-4 3.8-1.5 0-3.9-.4-3.9-1.3s.2-1 .4-1.2z"/><path d="m109.1 52.1c2.9-.2 4.3 1.5 4.4 2.9 0 2.2-2.2 3.2-4.2 3.3-1.3 0-2.6-.5-2.6-.5 0 2.7 1.6 4.5 3.9 4.4 1.8 0 3.4-1.5 3.4-1.5s-.6 3.1-4.4 3.3c-3.1.2-5.4-2.1-5.6-5.4-.2-3.1 1.6-6.4 4.9-6.6h.1zm-2.7-1.2c1.8-1.1 2.7-3.4 2.8-4 1.2 0 1.8 1 1.8 1-.2 1.6-2.6 3.1-3.9 3.2h-.7zm2.3 6.5c1 0 2.1-.7 2-2.1 0-1.1-.6-2.1-1.8-2.1s-2.3 2.9-2.2 3.8c0 0 1.2.5 2.1.4z"/><path d="m118 64.4c0 1.1 1 3.1 3.4 2.8 1.3 0 2.7-.7 2.6-2.1 0-2-6.2-.2-6.5-3.5 0-1 .5-1.7 1-2.1-1.8-.4-2.8-1.5-2.9-3.4 0-2.4 1.8-4.4 4.8-4.5.9 0 1.7 0 2.3.2 1.2 0 1.5-1.2 1.5-2.4.7 0 1.7 0 1.7.9s-1.1 1.8-2.2 2.2c.9.6 1.5 1.6 1.5 2.8 0 2.4-1.8 4.4-4.8 4.5h-1c0 .2-.2.6-.2.9 0 1.7 6.9 0 7.1 3.7 0 2.1-2 3.9-5.1 4-3.1.2-4.8-1.5-4.8-2.7s1.1-1.1 1.8-1.1h-.1zm4.6-8.7c0-1.7-.9-3.2-2.6-3.1-1.2 0-2.1 1.3-2.1 2.9s.9 3.2 2.6 3.1c1.2 0 2.1-1.3 2.1-2.9z"/><path d="m127.3 47.7c0-.9.6-1.6 1.5-1.6s1.6.6 1.6 1.5-.6 1.6-1.5 1.6-1.6-.6-1.6-1.5zm1 9.5c-.4-5.1-.9-5.8-.9-5.8.4 0 .7-.2 1.1-.2 1 0 2 .4 2 1.3 0 2.3.2 5.1.4 6.7 0 1 0 2.3 1.2 2.3s.9-.4.9-.4-.5 1.5-2.4 1.6c-1 0-2.1-.4-2.2-1.7v-3.8h.1-.1z"/><path d="m69.4 87.1c0-.5 0-1.7-.2-2.8 0-1-.2-1.7-.6-2.1.4 0 .7-.2 1.1-.2 1 0 2 .4 2 1.3 0 1.8 0 3.3.2 5.5 0 1.8.4 3.4 2.1 3.3 2.1 0 2.6-2.9 2.4-4.9 0-1.5-.2-2.7-.4-3.4-.2-1.5-.5-2-.5-2 .4 0 .7-.2 1.1-.2 1.1 0 2 .4 2.1 1.3 0 2.1 0 4.2.2 6.7 0 .9.2 2.3 1.2 2.3s.9-.4.9-.4-.5 1.5-2.4 1.6c-.9 0-1.8-.4-2-1.5v-.2s-.7 2-3.4 2.2c-2.9.2-3.7-1.5-3.8-3.3v-3.3z"/><path d="m83 84.6c0-2-.2-2-1.2-2.2v-1c.9 0 2.9-2.1 3.2-2.8h.5l-.2 2.6h1.8c1 0 1.2-.4 1.2-.4v.6c0 1-.4 1.2-1.2 1.2h-1.8s0 2.7.2 4.4c0 2.2.5 4.2 2.2 4 1.1 0 2.3-1.2 2.3-1.2s-.6 2.7-3.3 2.9c-2.6 0-3.5-1.6-3.7-4.2v-4z"/><path d="m96.7 84.7v-.2c0-1.8-.6-2.9-2.3-2.8-1.1 0-2.2.7-3.1 1.6.2-1.5 2-2.9 4-3.1 3.2-.2 3.8 1.7 3.9 3.7 0 1.2 0 2.7.2 3.9v.2c0 .9.2 2.4 1.3 2.4s.9-.4.9-.4-.5 1.5-2.4 1.6c-1 0-2-.2-2-1.5-.5 1-1.5 1.8-2.9 1.8s-3.1-1.2-3.2-2.8c-.2-3.3 3.4-4.4 5.9-4.7h-.4zm-4.2-5.8c1.8-1.1 2.7-3.4 2.8-4 1.2 0 1.8 1 1.8 1-.2 1.6-2.6 3.1-3.9 3.2h-.7zm2.5 11.7c.7 0 2-.9 2-1.7v-3.3c-.9.2-3.5.7-3.4 3.2 0 1.3.9 1.8 1.6 1.7h-.1z"/><path d="m103.3 85.8c0-1.1-.2-2.3-.4-3.4-.2-2.2-.6-2.3-.6-2.3.4 0 .7-.2 1.1-.2 1 0 1.8.4 1.8 1.1v.6c.5-1.2 2.2-2.1 3.8-2.2 2.9-.2 3.4 1.3 3.5 3.1 0 1.6 0 3.2.2 5 0 1 0 2.3 1.2 2.3s.9-.4.9-.4-.5 1.5-2.4 1.6c-1 0-2.1-.4-2.2-1.7 0-2 0-3.3-.2-5.6 0-1.6-.2-3.1-2.2-2.9-1.2 0-2.6 1.2-2.4 3.4 0 2.1.4 3.5.5 5.6 0 1.2-.5 1.6-1.3 1.6h-1.6s.5-1.5.2-5.5h.1z"/><path d="m53 122.4s1.5 1.5 3.7 1.3c1.5 0 2-.9 1.8-1.7 0-2.3-6-1.6-6.2-5.4 0-2.2 1.8-3.4 3.9-3.7.9 0 3.4 0 3.4 1.1s-.4 1.2-.7 1.7-1.2-1.8-2.9-1.7c-1 0-1.7.9-1.6 1.8 0 2.3 6 1.3 6.2 5.4 0 2.3-2 3.5-4 3.8-1.5 0-3.9-.4-3.9-1.3s.2-1 .4-1.2z"/><path d="m62.5 123.9c0-.2 0-.6.2-1 1-1.6 4-7.1 4.9-8.9-1.2.2-3.2.4-4.5.5-.9 0-1-.7-1.1-1.6 0 0 1.2.2 4.7 0l4.2-.2v.2c0 .2 0 .7-.2 1.2-2 3.3-3.8 6.9-4.9 8.9 1-.2 2.9-.4 4.5-.5 1.6 0 1.6.2 1.8 1.6h-5.1l-4.3.2v-.6h-.1z"/><path d="m78.9 116.1v-.2c0-1.8-.6-2.9-2.3-2.8-1.1 0-2.2.7-3.1 1.6.2-1.5 2-2.9 4-3.1 3.2-.2 3.8 1.7 3.9 3.7 0 1.2 0 2.7.2 3.9v.2c0 .9.2 2.4 1.3 2.4s.9-.4.9-.4-.5 1.5-2.4 1.6c-1 0-2-.2-2-1.5-.5 1-1.5 1.8-2.9 1.8s-3.1-1.2-3.2-2.8c-.2-3.3 3.4-4.4 5.9-4.7h-.4zm-1.7 5.9c.7 0 2-.9 2-1.7v-3.3c-.9.2-3.5.7-3.4 3.2 0 1.3.9 1.8 1.6 1.7h-.1z"/><path d="m85.4 116c0-2.8-.4-5.9-.6-7.8-.2-2.1-.6-2.4-.6-2.4 1.5 0 2.9 0 3.1 1.3 0 2.3.2 4.7.4 7v1.8h.2l.2-.4c2.8-3.2 3.4-3.7 3.4-4.7 0 0 .6-.2 1.2-.2s1.1 0 1.1.4c0 .9-2.2 2.4-4.2 4.4 1.1 1.5 4.3 5.1 6.2 6.4s-.5.4-1.7.5c-3.2.2-5.5-5.3-6.2-5.5 0 1.7.2 2.9.4 4.4 0 1.2-.5 1.6-1.3 1.6h-1.6c.4-.4.2-4.5 0-6.7z"/><path d="m97.7 116.4c0-1.1-.2-2.3-.4-3.4-.2-2.2-.6-2.3-.6-2.3.4 0 .7-.2 1.1-.2 1 0 1.8.4 1.8 1.1v.6c.4-1.1 2-2 3.4-2.1 2.1 0 3.1.6 3.2 1.6.4-1.1 2-2 3.4-2.1 2.9-.2 3.4 1.3 3.4 2.9s0 3.2.2 5c0 1 0 2.3 1.2 2.3s.9-.4.9-.4-.5 1.5-2.4 1.6c-1 0-2.1-.4-2.2-1.7 0-2 0-3.3-.2-5.6 0-1.5-.2-2.9-2.1-2.8-2.1 0-2.2 3.1-2.1 4.2 0 0 .2 3.9.2 4 0 1.6-.4 2-.7 2.4-.9 0-1.7 0-1.7-1.6s0-3.4-.2-5.6c0-1.5-.2-2.9-2.2-2.8-1 0-2.2 1.2-2.1 3.3 0 2.1.4 3.5.5 5.6 0 1.2-.5 1.6-1.3 1.6h-1.6s.5-1.5 0-5.5h.5z"/><path d="m122.4 113.3v-.2c0-1.8-.6-2.9-2.3-2.8-1.1 0-2.2.7-3.1 1.6.2-1.5 2-2.9 4-3.1 3.2-.2 3.8 1.7 3.9 3.7 0 1.2 0 2.7.2 3.9v.2c0 .9.2 2.4 1.3 2.4s.9-.4.9-.4-.5 1.5-2.4 1.6c-1 0-2-.2-2-1.5-.5 1-1.5 1.8-2.9 1.8s-3.1-1.2-3.2-2.8c-.2-3.3 3.4-4.4 5.9-4.7h-.4zm-4.2-5.7c1.8-1.1 2.7-3.4 2.8-4 1.2 0 1.8 1 1.8 1-.2 1.6-2.6 3.1-3.9 3.2h-.7zm2.5 11.6c.7 0 2-.9 2-1.7v-3.3c-.9.2-3.5.7-3.4 3.2 0 1.3.9 1.8 1.6 1.7h-.1z"/><path d="m128.8 111.9c0-2-.2-2-1.2-2.2v-1c.9 0 2.9-2.1 3.2-2.8h.5l-.2 2.6h1.8c1 0 1.2-.4 1.2-.4v.6c0 1-.4 1.2-1.2 1.2h-1.8s0 2.7.2 4.4c0 2.2.5 4.2 2.2 4 1.1 0 2.3-1.2 2.3-1.2s-.6 2.7-3.3 2.9c-2.7 0-3.5-1.6-3.7-4.2v-4z"/><path d="m48.5 142.5c-.2-.5-.5-1-1-1.3.5-.2.9-.4 1.7-.4s1.6.1 1.8.9c.6 2 2.3 6 3.4 8.4 2.4-8.9 1.2-9.7 3.2-9.8h1.1s-.5.5-1 2.2l-2.8 9.7s-2.4 0-3.2-1.7c-.7-2-2.4-6.2-3.4-8h.1z"/><path d="m66 144.2v-.2c0-1.8-.6-2.9-2.3-2.8-1.1 0-2.2.7-3.1 1.6.2-1.5 2-2.9 4-3.1 3.2-.2 3.8 1.7 3.9 3.7 0 1.2 0 2.7.2 3.9v.2c0 .9.2 2.4 1.3 2.4s.9-.4.9-.4-.5 1.5-2.4 1.6c-1 0-2-.2-2-1.5-.5 1-1.6 1.8-2.9 1.8s-3.1-1.2-3.2-2.8c-.2-3.3 3.4-4.4 5.9-4.7h-.4zm-4.1-5.9c1.8-1.1 2.7-3.4 2.8-4 1.2 0 1.8 1 1.8 1-.2 1.6-2.6 3.1-3.9 3.2h-.7zm2.4 11.6c.7 0 2-.9 2-1.7v-3.3c-.9.2-3.5.7-3.4 3.2 0 1.3.9 1.8 1.6 1.7h-.1z"/><path d="m72.3 141.7c0-2.1-.4-4.2-.5-5.6-.2-2.1-.6-2.4-.6-2.4 1.5 0 2.9 0 3.1 1.3 0 2.3.2 4.7.4 7 0 2 .2 4 .5 6 0 .7.4 1.5 1.1 1.5s.9-.4.9-.4-.5 1.5-2.4 1.6c-1 0-2.1-.4-2.2-1.8 0-1.8-.2-4.7-.4-7.2h.2z"/><path d="m84 142.9v-.2c0-1.8-.6-2.9-2.3-2.8-1.1 0-2.2.7-3.1 1.6.2-1.5 2-2.9 4-3.1 3.2-.2 3.8 1.7 3.9 3.7 0 1.2 0 2.7.2 3.9v.2c0 .9.2 2.4 1.3 2.4s.9-.4.9-.4-.5 1.5-2.4 1.6c-1 0-2-.2-2-1.5-.5 1-1.5 1.8-2.9 1.8s-3.1-1.2-3.2-2.8c-.2-3.3 3.4-4.4 5.9-4.7h-.4zm-1.7 5.9c.7 0 2-.9 2-1.7v-3.3c-.9.2-3.5.7-3.4 3.2 0 1.3.9 1.8 1.6 1.7h-.1z"/><path d="m90 147s1.5 1.5 3.7 1.3c1.5 0 2-.9 1.8-1.7 0-2.3-6-1.6-6.2-5.4 0-2.2 1.8-3.4 3.9-3.7.9 0 3.4 0 3.4 1.1s-.4 1.2-.7 1.7-1.2-1.8-2.9-1.7c-1 0-1.7.9-1.6 1.8 0 2.3 6 1.3 6.2 5.4 0 2.3-2 3.5-4 3.8-1.5 0-3.9-.4-3.9-1.3s.2-1 .4-1.2z"/><path d="m99.5 148.6c0-.2 0-.6.2-1 1-1.6 4-7.1 4.9-8.9-1.2.2-3.2.4-4.5.5-.9 0-1-.7-1.1-1.6 0 0 1.2.2 4.7 0l4.2-.2v.2c0 .2 0 .7-.2 1.2-2 3.3-3.8 6.9-4.9 8.9 1-.2 2.9-.4 4.5-.5 1.6 0 1.6.2 1.8 1.6 0 0-1.3 0-5.1.1l-4.3.2v-.6h-.1z"/><path d="m110.9 140.1c0-2-.2-2-1.2-2.2v-1c.9 0 2.9-2.1 3.2-2.8h.5c0 .1-.2 2.6-.2 2.6h1.8c1-.1 1.2-.4 1.2-.4v.6c0 1-.4 1.2-1.2 1.2h-1.8s0 2.7.2 4.4c0 2.2.5 4.2 2.2 4 1.1 0 2.3-1.2 2.3-1.2s-.6 2.7-3.3 2.9c-2.7.1-3.5-1.6-3.7-4.2v-4z"/><path d="m124.6 140.4v-.2c0-1.8-.6-2.9-2.3-2.8-1.1 0-2.2.7-3.1 1.6.2-1.5 2-2.9 4-3.1 3.2-.2 3.8 1.7 3.9 3.7 0 1.2 0 2.7.2 3.9v.2c0 .9.2 2.4 1.3 2.4s.9-.4.9-.4-.5 1.5-2.4 1.6c-1 0-2-.2-2-1.5-.5 1-1.5 1.8-2.9 1.8s-3.1-1.2-3.2-2.8c-.2-3.3 3.4-4.5 5.9-4.7h-.4zm-1.7 5.7c.7 0 2-.9 2-1.7v-3.3c-.9.2-3.5.7-3.4 3.2 0 1.3.9 1.8 1.6 1.7h-.1z"/><path d="m131.2 141.4c0-1.1-.2-2.3-.4-3.4-.2-2.2-.6-2.3-.6-2.3.4-.1.7-.2 1.1-.2 1 0 1.8.4 1.8 1.1v.6c.5-1.2 2.2-2.1 3.8-2.2 2.9-.2 3.4 1.3 3.5 3.1 0 1.6 0 3.2.2 5 0 1 .1 2.3 1.2 2.3s.9-.4.9-.4-.5 1.5-2.4 1.6c-1 0-2.1-.4-2.2-1.7-.1-2-.1-3.3-.2-5.6 0-1.6-.2-3.1-2.2-2.9-1.2 0-2.6 1.2-2.4 3.4.1 2.1.4 3.5.5 5.6 0 1.2-.5 1.6-1.3 1.6h-1.6s.5-1.5 0-5.5h.4z"/><path d="m143.9 131.1c0-.9.6-1.6 1.5-1.6s1.6.6 1.6 1.5-.6 1.6-1.5 1.6-1.6-.6-1.6-1.5zm.9 9.4c-.4-5.1-.9-5.8-.9-5.8.4-.1.7-.2 1.1-.2 1 0 2 .4 2 1.3.1 2.3.2 5.1.4 6.7 0 1 .1 2.3 1.2 2.3s.9-.4.9-.4-.5 1.5-2.4 1.6c-1 0-2.1-.4-2.2-1.7 0-1.2 0-2.6-.1-3.8h.1z"/></g></svg>