<svg viewBox="0 0 200 175.5" xmlns="http://www.w3.org/2000/svg" xmlns:xlink="http://www.w3.org/1999/xlink"><linearGradient id="a" gradientUnits="userSpaceOnUse" x1="92.2" x2="119.9" y1="59.7" y2="161.9"><stop offset="0" stop-color="#c4c46f"/><stop offset="1" stop-color="#a1ad3a"/></linearGradient><path d="m184 43.4c14.3 16.1 11.6 45.3 1.9 67.7-9.8 22.3-27 38.2-47.7 47.6-20.6 9.2-44.4 12-69.5 5.2-25.1-6.7-51.2-23.1-60.8-47.3-9.6-24.1-2.8-56.1 16.8-73.4 19.4-17.3 51.2-19.8 82.6-19.6 31.5.4 62.4 3.5 76.7 19.7z" fill="url(#a)"/><g fill="#fff"><path d="m45.7 71.7c2.9 0 4.2 1.5 4.2 3s-2.1 3-4.2 3.2c-1.3 0-2.4-.5-2.4-.5 0 2.6 1.4 4.4 3.7 4.4s3.4-1.4 3.4-1.4-.6 2.9-4.4 3c-2.9 0-5.2-2.1-5.3-5.4 0-3 1.8-6.2 5-6.3zm-.5 5c1 0 2-.6 2-2s-.5-2.1-1.8-2c-1.5 0-2.3 2.8-2.3 3.7s1.1.5 2 .5v-.2z"/><path d="m54.1 83.9c0 1 .9 3 3.3 2.9 1.3 0 2.6-.6 2.6-1.9 0-1.9-6.2-.4-6.3-3.7 0-.9.5-1.6 1-2-1.8-.4-2.8-1.5-2.8-3.4s1.9-4.3 4.8-4.3 1.6 0 2.3.3c1.1 0 1.4-1.1 1.5-2.4.8 0 1.6 0 1.6.9s-1.1 1.8-2.1 2c.9.6 1.4 1.5 1.4 2.8 0 2.4-1.9 4.3-4.8 4.3h-1c0 .3-.3.6-.3.8 0 1.6 6.7 0 6.8 3.8 0 2.1-2 3.8-5.2 3.8s-4.5-1.5-4.7-2.8c0-1 1.1-1 1.9-1zm4.8-8.4c0-1.6-.8-3.2-2.4-3.2s-2.1 1.3-2 2.8c0 1.6.8 3.2 2.4 3.2s2.1-1.3 2-2.8z"/><path d="m64.9 85.4c1.3 0 2.4-.6 3-2.3l.4-.9c-.8 0-1.6-.5-2-1.6-.6-2-2.3-6.2-3-7.9-.3-.5-.5-1-.9-1.3.4-.3.9-.4 1.6-.4s1.5 0 1.8.9c.5 1.9 2.1 6.1 3.3 8.5 2.8-8.8 1.5-9.6 3.4-9.7h1s-.5.5-1.1 2.1l-2.9 9.3c-1 3.4-2.9 4.8-4.7 4.9-1.5 0-1.4-.8-1.5-2.1h1.8v.5z"/><path d="m79.5 70.4c2.9 0 4.2 1.5 4.2 3s-2.1 3-4.2 3.2c-1.3 0-2.4-.5-2.4-.5 0 2.6 1.4 4.4 3.7 4.4s3.4-1.4 3.4-1.4-.6 2.9-4.4 3c-2.9 0-5.2-2.1-5.3-5.4 0-3 1.8-6.2 5-6.3zm-.5 5.2c1 0 2-.6 2-2s-.5-2.1-1.8-2c-1.5 0-2.3 2.8-2.3 3.5s1.1.5 2 .5z"/><path d="m86.7 73.7c0-1.9-.3-2-1.1-2.1v-.9c.9 0 2.9-2 3.2-2.6h.5l-.4 2.5h1.8c.9 0 1.1-.4 1.1-.4v.6c0 .9-.4 1.1-1.1 1.1h-1.8v4.3c0 2.1.4 4 2 3.9 1.1 0 2.3-1.1 2.3-1.1s-.6 2.6-3.3 2.8c-2.5 0-3.4-1.6-3.5-4.2v-3.9h.4z"/><path d="m99.4 69.8c2.9 0 4.2 1.5 4.2 3s-2.1 3-4.2 3.2c-1.3 0-2.4-.5-2.4-.5 0 2.6 1.4 4.4 3.7 4.4s3.4-1.4 3.4-1.4-.6 2.9-4.4 3c-2.9 0-5.2-2.1-5.3-5.4 0-3 1.8-6.2 5-6.3zm-.4 5c1 0 2-.6 2-2s-.5-2.1-1.8-2c-1.5 0-2.3 2.8-2.3 3.7s1.1.5 2 .5v-.2z"/><path d="m106.8 75.5c0-1.1 0-2.3-.3-3.3 0-2.1-.5-2.3-.5-2.3.4 0 .8-.3 1.1-.3 1 0 1.8.5 1.8 1.1v.5c.4-1.1 1.9-1.9 3.4-1.9s2.9.6 3 1.6c.5-1.1 2-1.9 3.4-1.9 2.9 0 3.3 1.4 3.3 2.9v4.9c0 1 0 2.3 1.1 2.3s.9-.4.9-.4-.5 1.5-2.4 1.5-2-.4-2-1.8v-5.4c0-1.5 0-2.9-2-2.8-2 0-2.3 2.9-2.1 3.9 0 0 0 3.8.3 3.9 0 1.5-.4 1.9-.8 2.3-.8 0-1.6 0-1.6-1.6v-5.6c0-1.5 0-2.9-2-2.8-.9 0-2.1 1.1-2.1 3.2s.3 3.5.3 5.6-.5 1.5-1.4 1.5h-1.5s.5-1.5.4-5.4v.3z"/><path d="m130.4 68.7c2.9 0 4.2 1.5 4.2 3s-2.3 3-4.2 3.2c-1.3 0-2.4-.5-2.4-.5 0 2.6 1.4 4.4 3.7 4.4s3.4-1.4 3.4-1.4-.6 2.9-4.4 3c-2.9 0-5.2-2.1-5.3-5.4 0-3 1.8-6.2 5-6.3zm-.5 5c1 0 2-.6 2-2s-.5-2.1-1.8-2c-1.5 0-2.3 2.8-2.3 3.5s1.1.5 2 .5z"/><path d="m137.7 74.3c0-1.1 0-2.3-.3-3.3 0-2.1-.5-2.3-.5-2.3.4 0 .8-.3 1.1-.3 1 0 1.8.5 1.8 1.1v.5c.5-1.1 2.1-2 3.8-2 2.9 0 3.3 1.4 3.3 3v4.9c0 1 0 2.3 1.1 2.3s.9-.4.9-.4-.5 1.5-2.4 1.5-2-.4-2-1.8v-5.4c0-1.5 0-3-2-2.9-1.1 0-2.6 1.1-2.5 3.3 0 2 .3 3.5.3 5.6s-.5 1.5-1.4 1.5h-1.5s.5-1.5.4-5.4h-.1z"/><path d="m29.6 102.3c0-1.9-.3-2-1.1-2.1v-.9c.9 0 2.9-2 3.2-2.6h.5l-.4 2.5h1.8c.9 0 1.1-.4 1.1-.4v.6c0 .9-.4 1.1-1.1 1.1h-1.8v4.3c0 2.1.4 4 2 3.9 1.1 0 2.3-1.1 2.3-1.1s-.6 2.6-3.3 2.8c-2.5 0-3.4-1.6-3.5-4.2v-3.9h.4z"/><path d="m42.8 98.3c3.7 0 5.7 2.4 5.8 5 0 3.3-1.8 6.6-5.6 6.7-3.7 0-5.7-2.5-5.8-5.4 0-3.2 1.8-6.2 5.6-6.3zm.4 10.7c2 0 2.8-2.6 2.8-5.2s-1.3-4.5-3.3-4.5-2.8 2.5-2.8 4.8 1.3 4.9 3.3 4.8z"/><path d="m50.3 99.8c-.3-.5-.5-1-.9-1.3.4-.3.9-.4 1.6-.4s1.5 0 1.8.9c.5 1.9 2.1 5.9 3.2 8.3 2.6-8.7 1.5-9.5 3.4-9.6h1s-.5.5-1.1 2.1l-3 9.3s-2.4 0-3-1.8c-.6-2-2.3-6.2-3.2-7.9h.3v.3z"/><path d="m67.3 102v-.3c0-1.9-.5-2.9-2.3-2.8-1.1 0-2.1.6-3 1.4.3-1.4 2-2.9 4-2.9 3.2 0 3.7 1.8 3.7 3.8v4.2c0 .9 0 2.4 1.3 2.4s.9-.4.9-.4-.5 1.5-2.4 1.5-1.9-.3-1.9-1.5c-.5.9-1.5 1.8-2.9 1.8s-3-1.3-3-2.9c0-3.2 3.4-4.3 5.8-4.4h-.2zm-3.9-5.8c1.8-1.1 2.6-3.3 2.9-3.8 1.1 0 1.8 1 1.8 1-.4 1.5-2.6 3-3.9 3h-.6v-.3h-.2zm2.1 11.4c.8 0 1.9-.8 1.9-1.6v-3.2c-.9 0-3.5.6-3.4 3 0 1.3.8 1.8 1.5 1.8z"/><path d="m73.5 103.5c0-1.6 0-3.4-.3-5 0-2-.3-6.2-.8-6.6 2.8 0 2.9.8 3 3.4v3.5s.8-1.8 3.5-1.9c2.5 0 4.2 2 4.3 4.9 0 3.8-1.9 6.7-6.2 6.9-1.9 0-3.5-.5-3.5-1.9v-3.4zm7.3-1c0-2-1-4-2.5-4s-2.3 1.1-2.4 2.8v3c0 1.9.3 3.5 1.6 3.5 2.4 0 3.4-2.8 3.3-5.3z"/><path d="m86.1 103c0-1.6 0-3.4-.3-5 0-2-.3-6.2-.8-6.6 2.8 0 2.9.8 3 3.4v3.5s.8-1.8 3.5-1.9c2.5 0 4.2 2 4.3 4.9 0 3.8-1.9 6.7-6.2 6.9-1.9 0-3.5-.5-3.5-1.9v-3.4zm7.3-.9c0-2-1-4-2.5-4s-2.3 1.1-2.4 2.8v3c0 1.9.3 3.5 1.6 3.5 2.4 0 3.4-2.8 3.3-5.3z"/><path d="m98.8 99.8c0-1.9-.3-2-1.1-2.1v-.9c.9 0 2.9-2 3.2-2.6h.5l-.4 2.5h1.8c.9 0 1.1-.4 1.1-.4v.6c0 .9-.4 1.1-1.1 1.1h-1.8v4.3c0 2.1.4 4 2 3.9 1.1 0 2.3-1.1 2.3-1.1s-.6 2.6-3.3 2.8c-2.5 0-3.4-1.6-3.5-4.2v-3.9h.4z"/><path d="m112.3 100.3v-.3c0-1.9-.5-2.9-2.3-2.8-1.1 0-2.1.6-3 1.4.3-1.4 2-2.9 4-2.9 3.2 0 3.7 1.8 3.7 3.8v4.2c0 .9 0 2.4 1.3 2.4s.9-.4.9-.4-.5 1.5-2.4 1.5-1.9-.3-1.9-1.5c-.5.9-1.5 1.8-2.9 1.8s-3-1.3-3-2.9c0-3.2 3.4-4.3 5.8-4.4h-.2zm-1.8 5.7c.8 0 1.9-.8 1.9-1.6v-3.2c-.9 0-3.5.6-3.4 3 0 1.3.8 1.8 1.5 1.8z"/><path d="m118.7 101.6c0-1.1 0-2.3-.3-3.3-.3-2.1-.5-2.3-.5-2.3.4 0 .8-.3 1.1-.3 1 0 1.8.5 1.8 1.1v.5c.5-1.1 2.1-2 3.8-2 2.9 0 3.3 1.4 3.3 3v4.9c0 1 0 2.3 1.1 2.3s.9-.4.9-.4-.5 1.4-2.4 1.5c-1 0-2-.4-2-1.8v-5.4c0-1.5 0-3-2-2.9-1.1 0-2.6 1.1-2.5 3.3 0 2 .3 3.5.3 5.6s-.5 1.5-1.4 1.5h-1.5s.5-1.5.4-5.4z"/><path d="m131.9 100.3v-2.8c0-.9-.3-1.8-.5-2.1.4 0 .8-.3 1.1-.3 1 0 1.9.5 1.9 1.4v5.4c0 1.8.3 3.4 2 3.3 2 0 2.5-2.8 2.5-4.7s0-2.6-.3-3.4c-.3-1.5-.5-2-.5-2 .4 0 .8-.3 1.1-.3 1 0 1.9.5 1.9 1.4v6.7c0 .9 0 2.3 1.1 2.3s.9-.4.9-.4-.5 1.5-2.4 1.5-1.8-.4-1.9-1.5v-.3s-.8 1.9-3.4 2c-2.9 0-3.5-1.5-3.5-3.4v-3h-.1v.2z"/><path d="m145.1 97.2c0-2-.3-4-.3-5.4 0-2-.5-2.4-.5-2.4 1.5 0 2.9 0 2.9 1.4 0 2.3 0 4.5.1 6.9 0 2 .1 3.9.3 5.9 0 .8.3 1.4 1 1.4s.9-.4.9-.4-.5 1.5-2.4 1.5-2-.4-2-1.9v-7.1z"/><path d="m151.8 100.3c0-1.1-.1-2.3-.3-3.3-.1-2.1-.5-2.3-.5-2.3.4 0 .8-.3 1.1-.3 1 0 1.8.5 1.8 1.1v.5c.5-1.1 2.1-2 3.8-2 2.9 0 3.3 1.4 3.3 3v4.9c0 1 0 2.3 1.1 2.3s.9-.4.9-.4-.5 1.5-2.4 1.5-2-.4-2-1.8 0-3.3-.1-5.4c0-1.5-.1-3-2-2.9-1.1 0-2.6 1.1-2.5 3.3 0 2 .3 3.5.3 5.6s-.5 1.5-1.4 1.5h-1.5c.1 0 .5-1.5.4-5.4h.1-.1z"/><path d="m165.2 100c-.1-5-.8-5.7-.8-5.7.4 0 .8-.3 1.1-.3 1 0 1.9.5 1.9 1.4 0 2.4 0 5 .1 6.7 0 1 0 2.3 1.1 2.3s.9-.4.9-.4-.5 1.4-2.4 1.5c-1 0-2-.4-2-1.8v-3.8zm-.8-9.4c0-.8.6-1.5 1.4-1.5s1.5.6 1.5 1.4-.6 1.5-1.4 1.5-1.5-.6-1.5-1.4z"/></g></svg>