<svg viewBox="0 0 200 183" xmlns="http://www.w3.org/2000/svg" xmlns:xlink="http://www.w3.org/1999/xlink"><linearGradient id="a" gradientUnits="userSpaceOnUse" x1="106.7" x2="93.6" y1="46.5" y2="137.3"><stop offset="0" stop-color="#ed5977"/><stop offset="1" stop-color="#b54a67"/></linearGradient><path d="m178.6 46.3c16.8 14.9 20.9 46.4 11.1 68.6-9.9 22.2-33.6 35.2-56.8 44.4-23.1 9.1-45.5 14.2-69.3 8.1-23.7-6.1-48.5-23.5-56.4-47.7-7.8-24.3 1.4-55.2 20.1-70.6 18.8-15.4 46.8-15.3 75.7-15.9s58.7-2 75.5 13h.1z" fill="url(#a)"/><g fill="#fff"><path d="m24 95.1c3.9-.2 5.6 1.8 5.7 3.8.2 3-2.9 4.3-5.5 4.4-1.7 0-3.3-.6-3.3-.6.2 3.6 2.2 6 5.1 5.7 2.4 0 4.5-2 4.5-2s-.7 3.9-5.7 4.3c-3.9.2-7.2-2.6-7.4-6.9-.2-4.1 2.2-8.5 6.5-8.7 0 0 .1 0 0 0zm-3.6-1.6c2.4-1.6 3.5-4.5 3.7-5.3 1.6 0 2.4 1.3 2.4 1.3-.4 2-3.5 4.2-5.1 4.3h-1v-.4zm3.1 8.6c1.3 0 2.7-1 2.6-2.7 0-1.4-.8-2.7-2.5-2.6-2.2 0-3 3.8-2.9 4.9 0 .2 1.6.6 2.9.5h-.1z"/><path d="m34.2 102.7c-.5-6-1.2-7.5-1.3-7.6.5-.2 1-.4 1.4-.4 1.3 0 2.5.5 2.5 1.7s0 1.1 0 1.1c.7-1.9 2.6-3.2 4.3-3.3 1.2 0 1.4.4 1.6 1.1 0 .6 0 1.4-.2 2.2-1-.4-1.8-.6-2.4-.6-2.3 0-2.7 2.6-2.5 5.9.5 5.9 1.1 6.8 1.2 6.9-.7 0-1.4.4-2 .5-1.1 0-1.9-.4-2-2.2 0-1.8 0-3.6-.2-5.1h-.2z"/><path d="m51.1 93.2c3.9-.2 5.6 1.8 5.7 3.8.2 3-2.9 4.3-5.5 4.4-1.7 0-3.3-.6-3.3-.6.2 3.6 2.2 6 5.1 5.7 2.4 0 4.5-2 4.5-2s-.7 3.9-5.7 4.3c-3.9.2-7.2-2.6-7.4-6.9-.2-4.1 2.2-8.5 6.5-8.7zm-.5 6.8c1.3 0 2.7-1 2.6-2.7 0-1.4-.8-2.7-2.5-2.6-2.2 0-3 3.8-2.9 4.9 0 .2 1.6.6 2.9.5z"/><path d="m61 97.2c-.2-2.5-.4-2.6-1.6-2.9v-1.2c1.2 0 3.8-2.7 4.2-3.8l.7.2-.4 3.2h2.4c1.2-.2 1.6-.6 1.6-.6v.8c0 1.2-.5 1.6-1.6 1.7h-2.4s0 3.5.4 5.7c.2 3 .6 5.4 3 5.3 1.4 0 3-1.7 3-1.7s-.7 3.6-4.3 3.8c-3.5.2-4.7-2.2-4.9-5.4 0-1.9-.2-4.2-.2-5.3v.2z"/><path d="m72.5 96.5c-.2-2.5-.4-2.6-1.6-2.9v-1.2c1.2 0 3.8-2.7 4.2-3.8l.7.2-.4 3.2h2.4c1.2-.2 1.6-.6 1.6-.6v.8c0 1.2-.5 1.6-1.6 1.7h-2.4s0 3.5.4 5.7c.2 3 .6 5.4 3 5.3 1.4 0 3-1.7 3-1.7s-.7 3.6-4.3 3.8c-3.5.2-4.7-2.2-4.9-5.4 0-1.9 0-4.2-.2-5.3v.2z"/><path d="m83.6 102.9s1.9 2 4.8 1.8c1.9 0 2.5-1.2 2.5-2.3-.2-3.1-7.9-2-8.2-7-.2-2.9 2.4-4.7 5.1-4.8 1.2 0 4.5 0 4.7 1.3 0 .6-.5 1.6-1 2.3s-1.7-2.4-3.9-2.3c-1.3 0-2.3 1.1-2.2 2.4.2 3 7.9 1.7 8.2 7 .2 3-2.6 4.8-5.4 5-1.9 0-5.1-.5-5.1-1.8s.2-1.2.5-1.7z"/><path d="m102.4 89.5c3.9-.2 5.6 1.8 5.7 3.8.2 3-2.9 4.3-5.5 4.4-1.7 0-3.3-.6-3.3-.6.2 3.6 2.2 6 5.1 5.7 2.4 0 4.5-2 4.5-2s-.7 3.9-5.7 4.3c-3.9.2-7.2-2.6-7.4-6.9-.2-4.1 2.2-8.5 6.5-8.7zm-3.6-1.6c2.4-1.6 3.5-4.5 3.7-5.3 1.6 0 2.4 1.3 2.4 1.3-.4 2-3.5 4.2-5.1 4.3h-1v-.4zm3.2 8.6c1.3 0 2.7-1 2.6-2.7 0-1.4-.8-2.7-2.5-2.6-2.2 0-3 3.8-2.9 4.9 0 .2 1.6.6 2.9.5z"/><path d="m114.2 105.5c.2 1.4 1.3 3.9 4.5 3.7 1.8 0 3.6-1.1 3.5-2.7-.2-2.6-8.4-.2-8.6-4.5 0-1.2.7-2.3 1.2-2.7-2.4-.5-3.8-1.9-3.9-4.4-.2-3.2 2.4-5.9 6.2-6.1 1.2 0 2.2 0 3.1.2 1.6 0 1.9-1.6 1.9-3.3 1.1 0 2.3 0 2.3 1.1s-1.4 2.4-2.9 2.9c1.2.8 1.9 2 2 3.7.2 3.2-2.4 5.9-6.2 6.1h-1.3c-.2.4-.4.8-.4 1.1 0 2.3 9-.2 9.4 4.9.2 2.9-2.6 5.1-6.7 5.4s-6.2-1.9-6.3-3.6c0-1.3 1.4-1.4 2.4-1.6h-.2zm6-11.4c0-2.3-1.2-4.2-3.5-4.1-1.7 0-2.7 1.9-2.6 3.8 0 2.3 1.2 4.2 3.5 4.1 1.7 0 2.7-1.9 2.6-3.8z"/><path d="m126.4 83.4c0-1.1.7-2 1.8-2.2 1.1 0 2 .7 2.2 1.9 0 1.1-.8 2-1.9 2.2-1.1 0-2-.8-2.2-1.8zm1.3 12.5c-.5-6.8-1.2-7.6-1.3-7.6.5-.2 1-.4 1.4-.4 1.3 0 2.6.5 2.6 1.7.2 3.1.4 6.7.5 9 0 1.3.2 3.1 1.7 3 .6 0 1.1-.5 1.1-.5s-.6 2-3.1 2.2c-1.3 0-2.7-.5-2.9-2.3 0-1.7 0-3.5-.2-5.1z"/><path d="m135.3 102.1c0-.4 0-.8.2-1.2 1.3-2.2 5.4-9.4 6.3-11.9-1.6.2-4.2.5-6 .6-1.2 0-1.3-1-1.6-2.2 0 0 1.6.2 6.2 0l5.5-.4v.4c0 .4 0 1-.4 1.6-2.6 4.4-4.9 9.1-6.3 11.7 1.2-.4 3.8-.6 5.9-.7 2.2 0 2.2.4 2.5 2 0 0-1.9 0-6.8.2l-5.6.4v-.5z"/><path d="m150.6 94.2c0-1.4-.2-3-.5-4.4-.4-2.9-.8-3.1-.8-3.1.5-.2 1-.4 1.4-.4 1.3 0 2.4.6 2.4 1.4v.7h.1c.6-1.6 2.9-2.7 5-2.9 3.9-.2 4.5 1.8 4.7 3.9.1 2.2.1 4.2.4 6.7 0 1.3.2 3.1 1.7 3 .6 0 1.1-.5 1.1-.5h.1s-.6 2-3.1 2.2c-1.3 0-2.7-.5-2.9-2.3-.2-2.5-.2-4.3-.5-7.4-.1-2-.4-4.1-2.9-3.8-1.6 0-3.5 1.7-3.2 4.5.2 2.6.5 4.7.7 7.5 0 1.6-.7 2-1.7 2.2h-2.2c.2 0 .6-2 .2-7.3h-.1z"/><path d="m167.2 80.6c0-1.1.7-2 1.8-2.2 1.1 0 2 .7 2.2 1.9 0 1.1-.8 2-1.9 2.2-1.1 0-2-.8-2.2-1.8h.1zm1.4 12.4c-.5-6.8-1.2-7.6-1.3-7.6.5-.2 1-.4 1.4-.4 1.3 0 2.6.5 2.6 1.7.2 3.1.4 6.7.5 9 0 1.3.2 3.1 1.7 3 .6 0 1.1-.5 1.1-.5h.1s-.6 2-3.1 2.2c-1.3 0-2.7-.5-2.9-2.3-.1-1.7-.1-3.5-.2-5.1z"/></g></svg>