<svg viewBox="0 0 200 162" xmlns="http://www.w3.org/2000/svg" xmlns:xlink="http://www.w3.org/1999/xlink"><linearGradient id="a" gradientUnits="userSpaceOnUse" x1="88.2" x2="142.2" y1="33.9" y2="149.8"><stop offset="0" stop-color="#d19ac2"/><stop offset="1" stop-color="#985c87"/></linearGradient><path d="m180.5 26.6c14.5 13.3 14.4 38.2 9.1 63.8-5.3 25.7-15.7 52.5-36.6 60.2-20.8 7.9-52.2-2.9-79.2-15.8-27.1-12.8-50.2-27.3-59.3-48-9.1-20.8-4.3-47.6 13.3-61.4 17.7-13.8 48.5-14.6 78.4-14.1 30 .3 59.6 2.1 74.2 15.2h.1z" fill="url(#a)"/><g fill="#fff"><path d="m31.8 54.8v-.3c0-2 0-3-2-3.2-1.2 0-2.4.4-3.3 1.1.5-1.4 2.5-2.8 4.5-2.5 3.3.3 3.6 2.2 3.3 4.3 0 1.2-.3 2.8-.4 4v.3c0 .9-.3 2.5.9 2.6.4 0 .9-.3.9-.3s-.7 1.4-2.6 1.3c-.9 0-1.8-.5-1.8-1.7-.7.9-1.8 1.6-3.3 1.4-2 0-2.9-1.7-2.8-3.3.3-3.3 4.1-4 6.6-3.8zm-2.6 5.5c.8 0 2.1-.5 2.2-1.4 0-.9.3-2.1.4-3.3-.9 0-3.7.3-4 2.8 0 1.3.5 2 1.3 2h.1zm-.8-12.1c2-.9 3.2-3 3.6-3.6 1.2 0 1.7 1.2 1.7 1.2-.5 1.4-3.2 2.8-4.5 2.6h-.7v-.3h-.1z"/><path d="m38.5 63.6c0 1.1.5 3.2 3 3.4 1.3 0 2.9-.4 2.9-1.7 0-2-6.3-1.2-6.1-4.5 0-.9.8-1.7 1.3-2-1.8-.7-2.6-2-2.5-4 .3-2.5 2.5-4.2 5.5-4 .9 0 1.7.3 2.4.5 1.2 0 1.6-.9 1.8-2.4.8 0 1.7.3 1.6 1.1 0 1.2-1.4 1.7-2.5 1.8.8.8 1.2 1.7 1.1 3-.3 2.5-2.5 4.2-5.5 4h-1.1c-.3.3-.4.7-.4.8 0 1.7 7 .9 6.6 4.9 0 2.2-2.6 3.6-5.8 3.3s-4.6-2.2-4.5-3.6c0-1.1 1.3-.9 2-.9v.3zm6-8c0-1.7-.4-3.4-2.1-3.6-1.3 0-2.4 1.1-2.5 2.6 0 1.7.4 3.4 2.1 3.6 1.3 0 2.4-1.1 2.5-2.6z"/><path d="m55.3 56.8v-.3c0-2 0-3-2-3.2-1.2 0-2.4.4-3.3 1.1.5-1.4 2.5-2.8 4.5-2.5 3.3.3 3.6 2.2 3.3 4.3 0 1.2-.3 2.8-.4 4v.3c0 .9-.3 2.5.9 2.6.4 0 .9-.3.9-.3s-.7 1.4-2.6 1.3c-.9 0-1.8-.5-1.8-1.7-.7.9-1.8 1.6-3.3 1.4-2 0-2.9-1.7-2.8-3.3.3-3.3 4.1-4 6.6-3.8zm-2.5 5.5c.8 0 2.1-.5 2.2-1.4 0-.9.3-2.1.4-3.3-.9 0-3.7.3-4 2.8 0 1.3.5 2 1.3 2z"/><path d="m60 63.9c0-.3 0-.7.4-.9 1.2-1.4 5.3-6.6 6.3-8.3-1.3 0-3.3 0-4.7-.3-.9 0-.9-.9-.9-1.8 0 0 1.2.4 4.7.7l4.2.4v.3c0 .3 0 .8-.5 1.2-2.5 3-4.9 6.3-6.3 8.3h4.6c1.6 0 1.6.5 1.7 1.8 0 0-1.4-.3-5.1-.7l-4.3-.4v-.4h-.1z"/><path d="m77.8 58.6v-.3c0-2 0-3-2-3.2-1.2 0-2.4.4-3.3 1.1.5-1.4 2.5-2.8 4.5-2.5 3.3.3 3.6 2.2 3.4 4.3 0 1.2-.3 2.8-.4 4v.3c0 .9-.3 2.5.9 2.6.4 0 .9-.3.9-.3s-.7 1.4-2.6 1.3c-.9 0-1.8-.5-1.8-1.7-.7.9-1.8 1.6-3.3 1.4-2 0-2.9-1.7-2.8-3.3.3-3.3 4.1-4 6.6-3.8zm-2.6 5.7c.8 0 2.1-.5 2.2-1.4 0-.9.3-2.1.4-3.3-.9 0-3.7.3-4 2.8 0 1.3.5 2 1.3 2z"/><path d="m84.5 58.1c0-2 0-2.1-.9-2.4v-.9c1.1 0 3.4-1.7 3.8-2.4l.5.3-.7 2.5h1.8c.9.3 1.3 0 1.3 0v.7c0 .9-.5 1.2-1.4 1.1-.3 0-1.8-.3-1.8-.3s-.3 2.8-.4 4.5c0 2.2 0 4.2 1.6 4.3 1.2 0 2.5-.9 2.5-.9s-.9 2.6-3.8 2.5c-2.6-.3-3.3-2.2-3-4.7 0-1.4.4-3.2.4-4.1v-.2z"/><path d="m93.1 61.4c.4-5.3 0-6.1 0-6.1h1.2c1.1 0 1.8.7 1.8 1.6-.3 2.4-.5 5.1-.7 6.9 0 1.1 0 2.4.9 2.5.4 0 .9-.3.9-.3s-.7 1.4-2.6 1.3c-1.1 0-2-.7-2-2s.3-2.6.4-4zm.4-9.7c0-.8.8-1.4 1.7-1.4s1.4.8 1.4 1.7-.8 1.4-1.7 1.4-1.4-.8-1.4-1.7z"/><path d="m104.6 57.9c0-.5-.4-1.1-.8-1.4.5 0 .9-.3 1.7 0 .8 0 1.6.4 1.7 1.1.3 2 1.4 6.5 2.2 9.1 3.8-8.6 2.8-9.6 4.7-9.5.7 0 1.1.3 1.1.3s-.7.4-1.3 2.1l-4.2 9.4s-2.5-.3-2.9-2.2c-.5-2.1-1.6-6.7-2.2-8.6z"/><path d="m117 63.5c.4-5.3 0-6.1 0-6.1h1.2c1.1 0 1.8.7 1.8 1.6-.3 2.4-.5 5.1-.7 6.9 0 1.1 0 2.4.9 2.5.4 0 .9-.3.9-.3s-.7 1.4-2.6 1.3c-1.1 0-2-.7-2-2s.3-2.6.4-4zm.4-9.8c0-.8.8-1.4 1.7-1.4s1.4.8 1.4 1.7-.8 1.4-1.7 1.4-1.4-.8-1.4-1.7z"/><path d="m122 69c0-.3 0-.7.4-.9 1.2-1.4 5.3-6.6 6.3-8.3-1.3 0-3.3 0-4.7-.3-.9 0-.9-.9-.9-1.8 0 0 1.2.4 4.7.7l4.2.4v.3c0 .3 0 .8-.5 1.2-2.5 3-4.9 6.3-6.3 8.3h4.6c1.6 0 1.6.5 1.7 1.8 0 0-1.4-.3-5.1-.7l-4.3-.4v-.4z"/><path d="m133.7 67.8s1.2 1.7 3.4 2c1.4 0 2.1-.7 2.1-1.4.3-2.4-5.8-2.5-5.5-6.5 0-2.2 2.4-3.3 4.5-3 .9 0 3.4.7 3.4 1.6s-.5 1.2-.9 1.6-.9-2-2.8-2.2c-1.1 0-1.8.5-2 1.6 0 2.4 5.8 2.2 5.5 6.3 0 2.4-2.5 3.3-4.7 3.2-1.6 0-3.8-.9-3.8-2s.4-.9.5-1.2z"/><path d="m145 72.6c0 1.1.5 3.2 3 3.4 1.3 0 2.9-.4 2.9-1.7.1-2-6.3-1.2-6.1-4.5 0-.9.8-1.7 1.3-2-1.8-.7-2.6-2-2.5-4 .3-2.5 2.5-4.2 5.5-4 .9 0 1.7.3 2.4.5 1.2 0 1.6-.9 1.8-2.4.8 0 1.7.3 1.6 1.1 0 1.2-1.4 1.7-2.5 1.8.8.8 1.2 1.7 1.1 3-.3 2.5-2.5 4.2-5.5 4h-1.1c-.3.3-.4.7-.4.8-.1 1.7 7 .9 6.6 4.9-.1 2.2-2.6 3.6-5.8 3.3s-4.6-2.2-4.5-3.6c0-1.1 1.3-.9 2-.9v.3zm6-8.2c.1-1.7-.4-3.4-2.1-3.6-1.3 0-2.4 1.1-2.5 2.6-.1 1.7.4 3.4 2.1 3.6 1.3 0 2.4-1.1 2.5-2.6z"/><path d="m161.8 65.6v-.3c.1-2-.1-3-2-3.2-1.2 0-2.4.4-3.3 1.1.5-1.4 2.5-2.8 4.5-2.5 3.3.3 3.6 2.2 3.3 4.3 0 1.2-.3 2.8-.4 4v.3c0 .9-.3 2.5.9 2.6.4 0 .9-.3.9-.3s-.7 1.4-2.6 1.3c-.9 0-1.8-.5-1.8-1.7-.7.9-1.8 1.6-3.3 1.4-2 0-2.9-1.7-2.8-3.3.3-3.3 4.1-4 6.6-3.8zm-2.7 5.7c.8 0 2.1-.5 2.2-1.4 0-.9.3-2.1.4-3.3-.9 0-3.7.3-4 2.8 0 1.3.5 2 1.3 2h.1zm-.8-12.2c2-.9 3.2-3 3.6-3.6 1.2 0 1.7 1.2 1.7 1.2-.5 1.4-3.2 2.8-4.5 2.6h-.8v-.3z"/><path d="m168.4 65.1c.1-2 0-2.1-.9-2.4v-.9c1.1 0 3.4-1.7 3.8-2.4l.5.3-.7 2.5h1.8c.9.3 1.3 0 1.3 0v.7c0 .9-.5 1.2-1.4 1.1-.3 0-1.8-.3-1.8-.3s-.3 2.8-.4 4.5c-.1 2.2-.1 4.2 1.6 4.3 1.2 0 2.5-.9 2.5-.9s-.9 2.6-3.8 2.5c-2.6-.3-3.3-2.2-3-4.7 0-1.4.4-3.2.4-4.1h.1z"/><path d="m46.8 85.2v-3.4c0-2.2-.3-2.5-.3-2.5h1.2c1.1 0 1.7.7 1.7 1.4s0 .5 0 .5c.5-1.1 2.2-1.7 3.7-1.6 2.1 0 2.9 1.1 3 2.1.7-1.1 2.4-1.7 3.8-1.6 3 .3 3.2 1.8 3 3.4 0 1.7-.4 3.2-.5 5.1 0 1.1 0 2.4.9 2.5.4 0 .9-.3.9-.3s-.7 1.4-2.6 1.3c-1.1 0-2-.7-2-2 0-2 .4-3.3.5-5.7 0-1.6.3-3-1.7-3.2-2.1 0-2.6 2.8-2.8 3.8 0 0-.3 4-.3 4.1 0 1.6-.7 2-1.1 2.4-.8 0-1.7-.3-1.6-1.8 0-2 .4-3.4.5-5.8 0-1.6.3-3-1.7-3.2-.9 0-2.4.9-2.5 3 0 2.1-.3 3.7-.4 5.8 0 1.2-.8 1.4-1.6 1.4s-1.1-.3-1.6-.4c0 0 .7-1.4 1.1-5.5l.3.2z"/><path d="m72 81c3 .3 4.1 2.1 4 3.7 0 2.2-2.6 2.9-4.7 2.8-1.3 0-2.5-.8-2.5-.8-.3 2.8.9 4.7 3.3 5 1.8 0 3.7-1.1 3.7-1.1s-1.1 3-4.9 2.6c-3-.3-5.1-2.9-4.9-6.2.3-3.2 2.6-6.2 5.9-5.9zm-1 5.3c1.1 0 2.2-.4 2.4-1.8 0-1.1-.3-2.2-1.6-2.4-1.6 0-2.8 2.6-2.8 3.4s1.2.7 2.1.8z"/><path d="m79.3 94.7c0 1.1.5 3.2 3 3.4 1.3 0 2.9-.4 2.9-1.7 0-2-6.3-1.2-6.1-4.5 0-.9.8-1.6 1.3-2-1.8-.7-2.6-2-2.5-4 .3-2.5 2.5-4.2 5.5-4 .9 0 1.7.3 2.4.5 1.2 0 1.6-.9 1.8-2.4.8 0 1.7.3 1.6 1.1 0 1.2-1.4 1.7-2.5 1.8.8.8 1.2 1.7 1.1 3-.3 2.5-2.5 4.2-5.5 4h-1.1c-.3.3-.4.7-.4.8 0 1.7 7 .9 6.6 4.9 0 2.2-2.6 3.6-5.8 3.3s-4.6-2.2-4.5-3.6c0-1.1 1.3-.9 2-.9v.3zm5.9-8c0-1.7-.4-3.4-2.1-3.6-1.3 0-2.4 1.1-2.5 2.6 0 1.7.4 3.4 2.1 3.6 1.3 0 2.4-1.1 2.5-2.6z"/><path d="m90.6 88v-2.9c0-1.2 0-1.8-.3-2.2h1.2c1.1 0 1.8.7 1.8 1.6 0 2-.4 3.3-.5 5.7 0 1.8 0 3.6 1.6 3.7 2.1 0 3-2.6 3.2-4.6v-3.6c0-1.6-.3-2.1-.3-2.1h1.2c1.1 0 2 .7 1.8 1.7 0 2.1-.5 4.2-.8 6.9 0 .9 0 2.4.9 2.5.4 0 .9-.3.9-.3s-.7 1.4-2.6 1.3c-.9 0-1.8-.5-1.7-1.8v-.3s-1.1 1.8-3.8 1.6c-3-.3-3.4-2.1-3.3-4 0-.9.3-2 .3-3.2z"/><path d="m104.8 96.8c0 1.1.5 3.2 3 3.4 1.3 0 2.9-.4 2.9-1.7 0-2-6.3-1.2-6.1-4.5 0-.9.8-1.6 1.3-2-1.8-.7-2.6-2-2.5-4 .3-2.5 2.5-4.2 5.5-4 .9 0 1.7.3 2.4.5 1.2 0 1.6-.9 1.8-2.4.8 0 1.7.3 1.6 1.1 0 1.2-1.4 1.7-2.5 1.8.8.8 1.2 1.7 1.1 3-.3 2.5-2.5 4.2-5.5 4h-1.1c-.3.3-.4.7-.4.8 0 1.7 7 .9 6.6 4.9 0 2.2-2.6 3.6-5.8 3.3s-4.6-2.2-4.5-3.6c0-1.1 1.3-.9 2-.9v.3zm6-8c0-1.7-.4-3.4-2.1-3.6-1.3 0-2.4 1.1-2.5 2.6 0 1.7.4 3.4 2.1 3.6 1.3 0 2.4-1.1 2.5-2.6z"/><path d="m116.4 91.2c.4-4.6 0-5.9 0-6.1h1.2c1.1 0 1.8.7 1.7 1.6 0 .4-.3.8-.3.8.8-1.3 2.4-2.1 3.7-2 .9 0 1.1.5 1.1 1.1s0 1.2-.4 1.6c-.7-.4-1.3-.7-1.8-.8-1.8 0-2.5 1.7-2.6 4.2-.4 4.5 0 5.4 0 5.4h-1.6c-.8 0-1.4-.5-1.3-1.8 0-1.3.4-2.8.4-4z"/><path d="m130.8 90.8v-.3c0-2 0-3-2-3.2-1.2 0-2.4.4-3.3 1.1.5-1.4 2.5-2.8 4.5-2.5 3.3.3 3.6 2.2 3.4 4.3 0 1.2-.3 2.8-.4 4v.3c0 .9-.3 2.5.9 2.6.4 0 .9-.3.9-.3s-.7 1.4-2.6 1.3c-.9 0-1.8-.5-1.8-1.7-.7.9-1.8 1.6-3.3 1.4-2 0-2.9-1.7-2.8-3.3.3-3.3 4.1-4 6.6-3.8h-.1zm-2.6 5.6c.8 0 2.1-.5 2.2-1.4 0-.9.3-2.1.4-3.3-.9 0-3.7.3-4 2.8 0 1.3.5 2 1.3 2h.1z"/><path d="m137.4 92.7v-3.4c0-2.2-.3-2.5-.3-2.5h1.2c1.1 0 1.7.7 1.7 1.4s0 .5 0 .5c.7-1.1 2.5-1.7 4.2-1.6 3 .3 3.2 2 3 3.6-.1 1.7-.4 3.2-.5 5.1 0 1.1-.1 2.4.9 2.5.4 0 .9-.3.9-.3s-.7 1.4-2.6 1.3c-1.1 0-2-.7-2-2 .1-2 .4-3.3.5-5.7.1-1.6.3-3.2-1.7-3.3-1.2 0-2.9.9-3 3 0 2.1-.3 3.7-.4 5.8 0 1.2-.8 1.4-1.6 1.4s-1.1-.3-1.6-.4c0 0 .7-1.4 1.1-5.5h.2z"/><path d="m151.2 94.1c.4-5.3 0-6.1 0-6.1h1.2c1.1 0 1.8.7 1.8 1.6-.3 2.4-.5 5.1-.7 6.9 0 1.1-.1 2.4.9 2.5.4 0 .9-.3.9-.3s-.7 1.4-2.6 1.3c-1.1 0-2-.7-2-2s.3-2.6.4-4h.1zm.4-9.8c0-.8.8-1.4 1.7-1.4s1.4.8 1.4 1.7-.8 1.4-1.7 1.4-1.4-.8-1.4-1.7z"/></g></svg>