<svg viewBox="0 0 364 394.1" xmlns="http://www.w3.org/2000/svg"><path d="m293 131.6c0 27.9-7 57.2-17.6 85.6s-24.6 55.8-38.7 79.8c-14 24-28.1 44.4-38.7 58.9s-17.6 22.9-17.6 22.9-7-8.6-17.6-22.9-24.6-34.9-38.7-58.9c-14-24-28.1-51.5-38.7-79.8s-17.6-57.8-17.6-85.6 3.1-30.2 8.9-43.7 13.9-25.6 24-35.7 22.3-18.4 35.7-24 28.2-8.9 43.7-8.9 30.2 3.1 43.7 8.9c13.4 5.8 25.6 13.9 35.7 24s18.4 22.3 24 35.7 8.9 28.2 8.9 43.7z" fill="#ee4036"/><g fill="#fff"><path d="m175.6 250.4c-26.8 0-48.5-21.7-48.5-48.5v-74.4c0-18.9 15.4-34.3 34.3-34.3s34.3 15.4 34.3 34.3v24.6c0 2.2-1.9 4.1-4.1 4.1s-4.1-1.9-4.1-4.1v-24.6c0-14.5-11.7-26.2-26.2-26.2s-26.2 11.7-26.2 26.2v74.4c0 22.3 18.1 40.2 40.2 40.2s40.2-18.1 40.2-40.2v-85.4c0-2.2 1.9-4.1 4.1-4.1s4.1 1.9 4.1 4.1v85.4c0 26.8-21.7 48.5-48.5 48.5h.3z"/><path d="m230.1 100.5h-22.5c-1.4 0-2.7-.8-3.4-1.9s-.9-2.7-.3-3.9l11.2-27.1c.6-1.6 2-2.5 3.9-2.5 1.6 0 3.3.9 3.9 2.5l11.2 27.1c.5 1.2.3 2.7-.3 3.9s-2 1.9-3.4 1.9zm-16.3-8.1h10.3l-5.1-12.3-5.1 12.3z"/><circle cx="191.6" cy="171.8" r="4.7"/></g></svg>