<svg viewBox="0 0 137.4 204.2" xmlns="http://www.w3.org/2000/svg"><g fill="#fff"><path d="m63.1 174.9c-21.7 0-39.3-17.6-39.3-39.3v-60.3c0-15.3 12.5-27.8 27.8-27.8s27.8 12.5 27.8 27.8v20c0 1.8-1.5 3.3-3.3 3.3s-3.3-1.5-3.3-3.3v-20c0-11.7-9.5-21.2-21.2-21.2s-21.2 9.5-21.2 21.2v60.3c0 18 14.6 32.6 32.6 32.6s32.6-14.6 32.6-32.6v-69.2c0-1.8 1.5-3.3 3.3-3.3s3.3 1.5 3.3 3.3v69.2c0 21.7-17.6 39.3-39.3 39.3z"/><path d="m107.3 53.5h-18.2c-1.1 0-2.1-.6-2.8-1.5s-.7-2.1-.3-3.1l9.1-22c.5-1.2 1.7-2 3.1-2 1.3 0 2.6.8 3.1 2l9.1 22c.4 1 .3 2.2-.3 3.1s-1.7 1.5-2.8 1.5zm-13.2-6.6h8.3l-4.2-10-4.2 10z"/><circle cx="76.1" cy="111.2" r="3.8"/></g></svg>