<?xml version="1.0" encoding="UTF-8"?>
<svg xmlns="http://www.w3.org/2000/svg" version="1.1" viewBox="0 0 500 500">
  <defs>
    <style>
      .cls-1, .cls-2 {
        opacity: .3;
      }

      .cls-1, .cls-3 {
        fill: #99dfe3;
      }

      .cls-4 {
        fill: #f0999a;
      }

      .cls-5 {
        stroke: #2c54ac;
        stroke-dasharray: 4.3 4.3;
        stroke-width: 1px;
      }

      .cls-5, .cls-6, .cls-7, .cls-8 {
        fill: none;
        stroke-miterlimit: 10;
      }

      .cls-9 {
        fill: #0081a7;
      }

      .cls-10 {
        fill: #eef;
      }

      .cls-11 {
        fill: #0280a7;
      }

      .cls-6 {
        stroke: #eef;
        stroke-width: .5px;
      }

      .cls-12 {
        fill: #02576e;
      }

      .cls-13 {
        isolation: isolate;
      }

      .cls-7 {
        stroke-width: .8px;
      }

      .cls-7, .cls-8 {
        stroke: #00526d;
      }

      .cls-14 {
        fill: #f07167;
        mix-blend-mode: multiply;
      }

      .cls-15 {
        fill: #00afb9;
      }

      .cls-16 {
        opacity: .4;
      }

      .cls-17 {
        fill: #00526d;
      }

      .cls-8 {
        stroke-width: .7px;
      }
    </style>
  </defs>
  <!-- Generator: Adobe Illustrator 28.7.1, SVG Export Plug-In . SVG Version: 1.2.0 Build 142)  -->
  <g class="cls-13">
    <g id="BACKGROUND">
      <g>
        <path class="cls-1" d="M336.1,395.8c-16-.2-31.5-5.8-47.2-8.8-18.8-3.6-38.4-3.6-57.2,0-20,3.9-39.2,11.9-59.5,13.5-33.9,2.7-61-14.1-80.1-42.5-19.1-28.4-21.9-67.1-7-97.9,5.1-10.5,12-20,16.5-30.8,14.9-35.2-10-92,12.8-122.6,12.4-16.7,33.3-25.5,54-26.7,20.6-1.3,41.2,9,60.4,16.5,18.6,7.3,43.5,19.3,63,15.1,13.6-2.9,25.1-7.3,38.2-11.7,28-9.4,60.6,5.2,77,30,16.4,24.8,18.3,57.4,10.4,86.1-4.8,17.3-12.9,34-12.9,51.9,0,11.8,3.4,23.2,5.3,34.8,7.3,45-26.7,93.5-73.9,92.9Z"/>
        <g class="cls-2">
          <path class="cls-5" d="M343.2,408.5c-17.3-.2-34-6.2-51-9.5-20.4-3.9-41.5-3.9-61.8.1-21.6,4.2-42.4,12.9-64.3,14.6-36.6,2.9-65.9-15.3-86.6-45.9-20.7-30.6-23.6-72.6-7.5-105.9,5.5-11.3,13-21.6,17.9-33.3,16.1-38.1-10.8-99.4,13.9-132.5,13.4-18,36-27.5,58.3-28.9,22.3-1.4,44.5,9.7,65.3,17.8,20.1,7.9,47,20.8,68.1,16.4,14.7-3.1,27.1-7.9,41.3-12.6,30.3-10.2,65.5,5.6,83.2,32.4,17.7,26.8,19.8,62,11.3,93-5.2,18.7-13.9,36.8-14,56.1,0,12.7,3.7,25.1,5.7,37.6,7.9,48.7-28.9,101-79.8,100.4Z"/>
        </g>
      </g>
    </g>
    <g id="OBJECTS">
      <g>
        <path class="cls-17" d="M218,134.6s-9.2,25.6-35.4,50.4c-26.3,24.8-53.6,42.6-49,68.2,4.6,25.6,21.7,24.8,21.7,24.8,0,0-6.4,25.6,18.8,38.2,25.2,12.6,45.1-5.9,45.1-5.9h29.1v-171.6l-30.3-4.1Z"/>
        <path class="cls-17" d="M284.5,134.6s9.2,25.6,35.4,50.4c26.3,24.8,53.6,42.6,49,68.2s-21.7,24.8-21.7,24.8c0,0,6.4,25.6-18.8,38.2-25.2,12.6-45.1-5.9-45.1-5.9h-29.1v-171.6l30.3-4.1Z"/>
        <g>
          <g>
            <path class="cls-4" d="M340.8,435c-7.2-5.5-30-7.3-32.7-9.3-2.7-2-7.1-11.3-7.1-11.3l-2.3-2.3-19.8,16.4,10.7,10.9s17.9,5.5,37,7.6c9.6,1.1,17.4.6,22.9-.5-1.2-3-3.8-8-8.5-11.6Z"/>
            <path class="cls-17" d="M336.9,422.7c-8.3-.8-29.8-2-29.8-2l-6.2-6.1s4.4,9.2,7.1,11.3c2.7,2,25.5,3.8,32.7,9.3,4.8,3.6,7.3,8.6,8.5,11.6,5.4-1.1,8.5-2.9,9-4.5.9-3.2-13.2-18.7-21.4-19.5Z"/>
          </g>
          <g>
            <path class="cls-4" d="M176.2,432.7c7.2-5.5,29.8-7.2,32.4-9.2,2.7-2,7.1-11.1,7.1-11.1l2.3-2.3,19.6,16.2-10.6,10.8s-17.7,5.4-36.6,7.6c-9.5,1.1-17.2.6-22.6-.5,1.2-2.9,3.7-7.9,8.5-11.5Z"/>
            <path class="cls-17" d="M180,420.5c8.2-.8,29.5-2,29.5-2l6.2-6.1s-4.4,9.1-7.1,11.1c-2.7,2-25.3,3.7-32.4,9.2-4.7,3.6-7.3,8.6-8.5,11.5-5.3-1.1-8.5-2.9-8.9-4.4-.9-3.2,13-18.5,21.2-19.3Z"/>
          </g>
          <g>
            <path class="cls-17" d="M212.9,324.7l-8.9,26s-40.9-14.3-56.3,7.4c-15.4,21.7,39.7,55.2,59.4,64.8,19.6,9.6,80,20.9,80,20.9,0,0,4.2-2,7.3-9.6,3.1-7.6,3.1-16.5,3.1-16.5,0,0,55-27.4,62.7-53.5,7.7-26.1-22.3-24.1-38.9-20.5-16.5,3.6-20.8,7.3-20.8,7.3l-10.5-20-77.2-6.3Z"/>
            <path class="cls-3" d="M297.6,417.7c-18.1-7.7-35.8-16.2-52.9-25.7-17-9.9-32.9-21.4-48.1-33.9,15.8,11.5,31.8,22.9,48.8,32.6,16.8,9.5,34.9,18.3,52.2,27h0Z"/>
            <polygon class="cls-3" points="251.2 394.4 309.8 352.9 252.1 395.6 251.2 394.4 251.2 394.4"/>
          </g>
          <path class="cls-17" d="M200.6,342.9c-18.7,5.9-38.2,10.1-57.7,11.6,0,0,7.2-1.4,7.2-1.4,16.8-2.9,33.7-6.8,50.5-10.2h0Z"/>
          <path class="cls-17" d="M300.6,342.9c16.7,3.4,33.6,7.3,50.5,10.2,0,0,7.2,1.4,7.2,1.4-19.5-1.5-39-5.7-57.7-11.6h0Z"/>
          <g>
            <path class="cls-4" d="M372.3,338.7s-.6-8.4,1.4-11.6c2-3.1,10.6-7.4,11.5-6.3.9,1.1.6,3.3-1,4.6-1.5,1.2-4,1.9-4.5,2.9-.5,1-.5,2.6,1.3,2.1,1.7-.5,14.2-7.5,14.4-8.7.2-1.2-8.2,2.8-8.9.3-.7-2.5,4.4-4.3,6.8-5,2.4-.7,7.3,1.3,6.4,5.4s-4.8,7-4.8,7c7.4-3,12.7-9.4,19-14.4.4-.3,1-.6,1.3-.3.3.2.3.6.2,1-.2,1.8-.9,3.4-2,4.8-5,6.1-8.8,9.8-14.7,13.5,7.4-2.7,12.8-7.3,19.3-11.9.4-.3.8-.5,1.3-.4.3,1.6-.7,3-1.6,4.2-4.5,5.8-10.3,9.4-16.9,12.4,5.3-.7,14.4-6.8,15.2-5.5.8,1.3-2.3,4.2-3.5,5-1.6,1.2-3.3,2.1-5.1,2.9-7.5,3.5-19.1,7.2-27.9,9-8.8,1.7-12.8,1.6-12.8,1.6l1.5-12.9,3.9.4Z"/>
            <path class="cls-17" d="M401.3,338c-3.1,1.4-6.7.3-9.9.2-3.2-.1-6.4,1-9,3.1,2.1-2.6,5.6-4.1,9-4,3.4.1,6.5,1.4,9.8.7h0Z"/>
          </g>
          <g>
            <path class="cls-4" d="M129.2,338.7s.6-8.4-1.4-11.6c-2-3.1-10.6-7.4-11.5-6.3-.9,1.1-.6,3.3,1,4.6,1.5,1.2,4,1.9,4.5,2.9.5,1,.5,2.6-1.3,2.1-1.7-.5-14.2-7.5-14.4-8.7-.2-1.2,8.2,2.8,8.9.3.7-2.5-4.4-4.3-6.8-5-2.4-.7-7.3,1.3-6.4,5.4.8,4.1,4.8,7,4.8,7-7.4-3-12.7-9.4-19-14.4-.4-.3-1-.6-1.3-.3-.3.2-.3.6-.2,1,.2,1.8.9,3.4,2,4.8,5,6.1,8.8,9.8,14.7,13.5-7.4-2.7-12.8-7.3-19.3-11.9-.4-.3-.8-.5-1.3-.4-.3,1.6.7,3,1.6,4.2,4.5,5.8,10.3,9.4,16.9,12.4-5.3-.7-14.4-6.8-15.2-5.5-.8,1.3,2.3,4.2,3.5,5,1.6,1.2,3.3,2.1,5.1,2.9,7.5,3.5,19.1,7.2,27.9,9,8.8,1.7,12.8,1.6,12.8,1.6l-1.5-12.9-3.9.4Z"/>
            <path class="cls-17" d="M100.2,338c3.3.7,6.5-.6,9.8-.7,3.4-.1,6.9,1.4,9,4-2.6-2.1-5.8-3.2-9-3.1-3.2,0-6.8,1.2-9.9-.2h0Z"/>
          </g>
        </g>
        <g>
          <polygon class="cls-4" points="263.5 218.3 260.8 198.6 250.6 198.6 250.6 198.6 240.5 198.6 237.8 218.3 251.3 224.1 263.5 218.3"/>
          <path class="cls-15" d="M318.9,325.7s-8.1-72.2-14.2-81.6c-6.1-9.5-41.2-25.8-41.2-25.8l-12.2,5.8-13.5-5.8h0s0,0,0,0c0,0-35.1,16.3-41.2,25.8-6.1,9.5-14.2,81.6-14.2,81.6l-51.3,12.7,1.5,17.1s16.7-1.6,27.8-2.5c11.1-1,40.3-10,40.3-10l10.4-46.5-2.2,40.1s22.7,13.6,43,13.6,40.9-13.8,40.9-13.8l-2.7-39.8,10.4,46.5s29.1,9.1,40.3,10c11.1,1,27.8,2.5,27.8,2.5l1.5-17.1-51.3-12.7Z"/>
          <path class="cls-17" d="M286.9,150.6c0,26.2-16,26.7-35.7,26.7s-35.7-.6-35.7-26.7,16-38.1,35.7-38.1,35.7,12,35.7,38.1Z"/>
          <path class="cls-4" d="M283.1,156.3c0,23.3-14.3,50.5-31.8,50.5s-31.8-27.2-31.8-50.5,14.3-34,31.8-34,31.8,10.7,31.8,34Z"/>
          <path class="cls-17" d="M232.6,160.3c4.4,6.8,7.2,6.9,11.6,0-.1,1.5-.6,3-1.5,4.4-3.9,5.7-9.7,1.1-10.1-4.4h0Z"/>
          <path class="cls-17" d="M260.1,160.3c4.4,6.8,7.2,6.9,11.6,0-.1,1.5-.6,3-1.5,4.4-3.9,5.7-9.7,1.1-10.1-4.4h0Z"/>
          <path class="cls-17" d="M226.1,158.1c3.1-6.9,12.4-13.4,19.7-8.7,0,0,0,.3,0,.3-3.8.6-7.1.9-10.8,1.9-3.4,1.3-6.5,3.7-8.7,6.7,0,0-.2-.1-.2-.1h0Z"/>
          <path class="cls-17" d="M275.2,158.3c-2.2-3-5.2-5.4-8.7-6.7-3.6-1.1-6.9-1.4-10.8-1.9,0,0,0-.3,0-.3,5.4-3.6,12.5-.4,16.5,3.9,1.3,1.5,2.5,3.1,3.3,4.9,0,0-.2.1-.2.1h0Z"/>
          <path class="cls-17" d="M236.9,200.6c12.6,7.2,17.7,6.6,29.8-.9-3.9,4-8.9,7.4-14.7,7.9-5.9,0-11.1-3.1-15.1-7h0Z"/>
          <path class="cls-17" d="M216.9,164.8s7-3.7,8.6-9.3c1.6-5.6.7-13.6.7-13.6,0,0,3,2.7,9.1.8,6.1-1.9,7.9-8.3,7.9-8.3,0,0,3.3,7.1,11.3,6.8,8.1-.3,10-6.8,10-6.8,0,0,0,5.4,3.9,8.4,3.9,3,8.6,2.6,8.6,2.6,0,0-1.4,5.6.9,11.5,2.3,6,5.9,9.1,5.9,9.1l1.7-16.4-11.1-24.4-28.5-6.5-24.2,12.6-4.8,33.4Z"/>
          <g>
            <g>
              <path class="cls-4" d="M221.5,161.3c-1.3-1.9-3.7-3.1-5.8-2.3-1.5.6-2.6,2.1-3.2,3.6-2,4.8-1.2,10.8,2.5,14.4,1,1,2.2,1.8,3.6,1.9,2.4.2,4.6-1.9,5.3-4.2.7-2.1.8-4.9,0-7-.7-2.1-1.1-4.5-2.4-6.3Z"/>
              <g>
                <path class="cls-14" d="M220.2,176.6c-.8-.7-1.5-1.6-1.7-2.8,0-.2,0-.4,0-.6,0-.2.2-.3.3-.4.8-.7,1.7-1.2,2.7-1.4,0-2-.2-4.1-.9-5.9-.7-1.8-2-3.2-3.6-3-1.2.2-2.3,1.5-2.6,3,0,0-1,3,.4,6.7,1.4,3.6,5.3,4.3,5.3,4.3Z"/>
                <path class="cls-17" d="M214.5,165.6c.2-3.4,3.7-4.9,5.9-1.8,1.7,2.4,1.7,5.4,1.7,8.2-1.1.1-2.3.6-3.1,1.3-.5,1,.5,2.5,1.2,3.3-1.2-.7-2.7-2.4-1.9-3.9.4-.4.7-.7,1.2-1,.6-.4,1.2-.7,1.9-.8l-.5.6c-.2-2.4-.2-5-1.5-7-1.6-2.6-4-1.4-4.9,1.1h0Z"/>
              </g>
            </g>
            <g>
              <path class="cls-4" d="M281.2,161.3c1.3-1.9,3.7-3.1,5.8-2.3,1.5.6,2.6,2.1,3.2,3.6,2,4.8,1.2,10.8-2.5,14.4-1,1-2.2,1.8-3.6,1.9-2.4.2-4.6-1.9-5.3-4.2-.7-2.1-.8-4.9,0-7,.7-2.1,1.1-4.5,2.4-6.3Z"/>
              <g>
                <path class="cls-14" d="M282.5,176.6c.8-.7,1.5-1.6,1.7-2.8,0-.2,0-.4,0-.6,0-.2-.2-.3-.3-.4-.8-.7-1.7-1.2-2.7-1.4,0-2,.2-4.1.9-5.9.7-1.8,2-3.2,3.6-3,1.2.2,2.3,1.5,2.6,3,0,0,1,3-.4,6.7-1.4,3.6-5.3,4.3-5.3,4.3Z"/>
                <path class="cls-17" d="M288.1,165.6c-.9-2.5-3.3-3.7-4.9-1.1-1.2,2-1.3,4.6-1.5,7,0,0-.5-.6-.5-.6.7.2,1.3.5,1.9.8.6.4,1.4.9,1.4,1.7,0,1.5-1,2.5-2.1,3.2.7-.8,1.7-2.4,1.2-3.3-.9-.7-2-1.2-3.1-1.3,0-2.8,0-5.8,1.7-8.2,2.1-3.1,5.7-1.6,5.9,1.8h0Z"/>
              </g>
            </g>
          </g>
          <g>
            <path class="cls-14" d="M248.9,195.8c.5.6,1.8,1.1,3.3,1.1s2.6-.4,3.2-1c-.7-.4-1.8-.7-3.2-.7s-2.5.3-3.3.6Z"/>
            <path class="cls-17" d="M255.8,195.2c0-1-1.6-1.7-3.5-1.7s-3.5.8-3.5,1.7,0,.4.2.6c.8-.3,1.8-.6,3.3-.6s2.4.3,3.2.7c.2-.2.4-.5.4-.7Z"/>
          </g>
          <path class="cls-17" d="M253,157.4c.4,4.8.3,9.6,1,14.4.4,2,1.9,3.3,2.8,5.2,1.5,2.5,1.2,6.4-1.5,8.1-1.3.8-2.9.8-4.2.4,1.4.1,2.8-.2,3.8-1,2-1.7,2.1-4.7.7-6.9-.9-1.7-2.7-3.5-3-5.6-.6-4.9-.2-9.8.4-14.6h0Z"/>
          <g>
            <path class="cls-10" d="M224.4,186.7c0,1.6-1.3,3-2.8,3s-2.8-1.3-2.8-3,1.3-3,2.8-3,2.8,1.3,2.8,3Z"/>
            <path class="cls-10" d="M222.3,177.8c0,.5-.4.8-.8.8s-.8-.4-.8-.8.4-.8.8-.8.8.4.8.8Z"/>
            <line class="cls-6" x1="221.5" y1="177.8" x2="221.5" y2="186.4"/>
          </g>
          <g>
            <path class="cls-10" d="M284.4,186.7c0,1.6-1.3,3-2.8,3s-2.8-1.3-2.8-3,1.3-3,2.8-3,2.8,1.3,2.8,3Z"/>
            <path class="cls-10" d="M282.3,177.8c0,.5-.4.8-.8.8s-.8-.4-.8-.8.4-.8.8-.8.8.4.8.8Z"/>
            <line class="cls-6" x1="281.5" y1="177.8" x2="281.5" y2="186.4"/>
          </g>
        </g>
        <path class="cls-17" d="M218.1,241.3c-5.3,8.2-10.1,17.1-11.9,26.7-1.6,9.6.9,19.7,5.3,28.3-.3,2.7-.6,6.5-.9,9.2,0-2.6.1-6.5.2-9.1-4.6-7.5-7.8-19-5.9-28.6,1.9-9.8,7.1-18.7,13.3-26.4h0Z"/>
        <path class="cls-17" d="M283.3,241.3c6.2,7.7,11.3,16.6,13.3,26.4,1.8,10-1,20.2-6,28.8.2,1.8.1,6.1.2,8.8-.2-2.5-.8-6.8-.8-9.1,4.3-8.6,6.8-18.6,5.2-28.2-1.8-9.6-6.6-18.5-11.9-26.7h0Z"/>
        <g class="cls-2">
          <path class="cls-10" d="M253.6,113.1c-.9,7.6-7.4,15.1-15.6,14,0,0,.5-.3.5-.3-3.1,6.9-11.1,12-18.6,10.5-1-.3-2.1-.9-2.6-1.8.7.8,1.7,1.3,2.7,1.5,7.3.9,14.7-4,17.7-10.6,0,0,.2-.3.2-.3h.4c7.8,1.2,13.9-5.8,15.5-12.9h0Z"/>
          <path class="cls-10" d="M254.8,113.3c1.1,4.2,2.6,8.5,5.5,11.7,2.8,3.1,7.2,5.1,11.3,4,0,0,.5-.1.5-.1v.5c1.7,5.5,6.2,10.1,11.6,11.7,1.2.3,2.7,1,3.9.2-1.1.9-2.7.3-4,.1-5.9-1.3-10.7-6-12.4-11.8,0,0,.6.3.6.3-4.5,1.3-9.3-1-12.2-4.4-2.9-3.5-4.2-7.9-4.9-12.2h0Z"/>
          <path class="cls-10" d="M266.3,115.9c3.6,6.9,9.4,12.3,16.7,15-7.7-1.3-14.5-7.5-16.7-15h0Z"/>
          <path class="cls-10" d="M220.1,128.8c8.2.6,16.2-4.4,19.5-11.9.5-1.1.9-2.2,1.2-3.3-.1,1.2-.4,2.3-.8,3.5-2.6,8.1-11.5,13.8-19.9,11.8h0Z"/>
          <path class="cls-10" d="M291.9,161.7c4.7,13.1,10.2,26.3,19.5,36.8,12,13.7,33.1,21.5,36.4,41.3.7,4.7.2,9.6-2.1,13.8,0,0,0-.3,0-.3,1.3,1.8,2.4,3.7,3.2,5.8,2.9,6.1,2.5,13.7-3,18.2,5.3-4.6,5.4-12,2.5-18-.9-2-2-4-3.4-5.8,2.2-4.1,2.6-9,1.9-13.6-3.4-19.6-24.4-27.1-36.2-40.9-9.3-10.7-14.7-24-18.9-37.3h0Z"/>
          <path class="cls-10" d="M289.6,189.3c2.6,11.9,8,23.3,15.9,32.6,7.8,9.4,18.3,16.8,23.7,28,3.5,7.4,5,16.5,1,24,0,0,0-.4,0-.4,4.2,5.8,5.7,13.3,4.5,20.2-1.2,6.9-5.6,13.5-12.1,16.3,6.3-3.1,10.5-9.6,11.6-16.4,1-6.8-.6-14.1-4.7-19.7,0,0-.2-.2-.2-.2v-.2c4.8-9.2,1.5-20.3-4-28.4-5.8-8.4-14-14.8-20.4-22.7-7.8-9.5-13.1-21.1-15.3-33.1h0Z"/>
          <path class="cls-10" d="M209.8,161.7c-4.2,13.3-9.6,26.7-18.9,37.3-11.8,13.7-32.8,21.3-36.2,40.9-.8,4.6-.3,9.5,1.9,13.6-1.3,1.8-2.5,3.7-3.4,5.8-2.9,5.9-2.8,13.3,2.5,18-5.5-4.4-5.8-12.1-3-18.2.9-2,2-4,3.2-5.8v.3c-2.3-4.2-2.8-9.2-2.1-13.8,3.3-19.9,24.4-27.6,36.4-41.3,9.3-10.5,14.9-23.7,19.5-36.8h0Z"/>
          <path class="cls-10" d="M212,189.3c-2.2,12.1-7.5,23.6-15.3,33.1-6.4,7.9-14.6,14.3-20.4,22.7-5.5,8.1-8.9,19.2-4.2,28.4,0,0,.1.2.1.2l-.2.2c-4.1,5.5-5.7,12.8-4.7,19.7,1,6.8,5.3,13.3,11.6,16.4-6.5-2.9-10.9-9.4-12.1-16.3-1.2-7,.3-14.5,4.5-20.2,0,0,0,.4,0,.4-4-7.5-2.5-16.6,1-24,5.5-11.2,16-18.6,23.7-28,7.9-9.4,13.2-20.7,15.9-32.6h0Z"/>
        </g>
        <g>
          <path class="cls-9" d="M262.1,208.6s-3.6,2.4-11.2,2.4-12-2.4-12-2.4c0,0-2.5.8-4.2,5-1.5,3.7-1.4,7-1.4,7,0,0,9.3,6.8,17.5,6.8s17-7.2,17-7.2c0,0-.1-2.5-1.7-6.5s-3.9-5.2-3.9-5.2Z"/>
          <path class="cls-17" d="M250.5,211.2c.7,5.4.7,10.8,0,16.2-.7-5.4-.7-10.8,0-16.2h0Z"/>
          <path class="cls-17" d="M247.8,211.1c-.9,5.3-1.4,10.4-1.5,15.7-1.3-5.2-.7-10.9,1.5-15.7h0Z"/>
          <path class="cls-17" d="M245.1,210.6c-1.6,5.1-2.2,10.2-1.8,15.5-1.7-5-1-11,1.8-15.5h0Z"/>
          <path class="cls-17" d="M242,209.7c-1.8,4.7-2.7,9.4-2.9,14.4-1.2-4.9,0-10.4,2.9-14.4h0Z"/>
          <path class="cls-17" d="M239.7,208.8c-2.5,3.9-3.3,8.7-3.9,13.2,0,0,0,.1,0,.2,0,0,.1,0,0,0,.1,0,0,.2,0,.1-1-4,.5-10.9,3.9-13.4h0Z"/>
          <path class="cls-17" d="M253.2,211.3c2.2,4.9,2.7,10.6,1.5,15.7,0-5.4-.5-10.5-1.5-15.7h0Z"/>
          <path class="cls-17" d="M255.9,210.9c2.8,4.5,3.5,10.5,1.8,15.5.4-5.3-.2-10.4-1.8-15.5h0Z"/>
          <path class="cls-17" d="M259,209.9c3,4,4.1,9.5,2.9,14.4-.2-5-1.1-9.7-2.9-14.4h0Z"/>
          <path class="cls-17" d="M261.3,209c3.4,2.6,5,9.4,3.9,13.4-.1.1-.2-.2,0-.1,0,0,0,.1,0,0,0,0,0-.1,0-.2-.5-4.5-1.3-9.3-3.9-13.2h0Z"/>
        </g>
        <g class="cls-16">
          <path class="cls-17" d="M138.6,336.6c1.3,6,1.9,12.1,1.8,18.2-1.3-6-1.8-12.1-1.8-18.2h0Z"/>
          <path class="cls-17" d="M361.4,336.2c0,6.2-.8,12.3-2.2,18.4,0-6.2.8-12.3,2.2-18.4h0Z"/>
          <path class="cls-17" d="M177.9,326.8c6.9-2.7,15.1-3.6,22-.4-7.3-1.9-14.7-1-22,.4h0Z"/>
          <path class="cls-17" d="M323.3,326.8c-7.3-1.4-14.7-2.3-22-.4,6.9-3.3,15-2.3,22,.4h0Z"/>
          <path class="cls-17" d="M269.7,229.9c.9,1.3,1.2,2.7.8,4.3-.9-1.3-1.2-2.7-.8-4.3h0Z"/>
          <path class="cls-17" d="M275.1,238.4c0-1.7.7-3.1,1.9-4.3,0,1.7-.7,3.1-1.9,4.3h0Z"/>
          <path class="cls-17" d="M274.1,243.6c1.5,1.1,2.4,2.5,2.7,4.3-1.5-1.1-2.4-2.5-2.7-4.3h0Z"/>
          <path class="cls-17" d="M281.7,251.8c-.4-1.5-.1-3,.8-4.3.4,1.5,0,3-.8,4.3h0Z"/>
          <path class="cls-17" d="M265.1,240.1c1.2.9,1.7,2.2,1.7,3.7-1.2-.9-1.7-2.2-1.7-3.7h0Z"/>
          <path class="cls-17" d="M270.8,253c.8,1.4,1,3,.5,4.6-.8-1.4-1-3-.5-4.6h0Z"/>
          <path class="cls-17" d="M278.4,257.5c.7,1,.7,2.1,0,3.1-.7-1-.7-2.1,0-3.1h0Z"/>
          <path class="cls-17" d="M284.2,265.2c-.2-1.6.3-3.1,1.4-4.2.2,1.6-.3,3.1-1.4,4.2h0Z"/>
          <path class="cls-17" d="M287.5,275.2c-.2-1.8.3-3.4,1.4-4.8.2,1.8-.3,3.4-1.4,4.8h0Z"/>
          <path class="cls-17" d="M277.1,269.4c.8,1.3,1,2.8.6,4.3-.8-1.3-1-2.8-.6-4.3h0Z"/>
          <path class="cls-17" d="M267.8,264c1.1,1.9,1.6,4,1.4,6.3-1.1-1.9-1.6-4-1.4-6.3h0Z"/>
          <path class="cls-17" d="M279.8,286.2c-.3-1.5.2-3,1.4-4,0,1.5-.4,2.8-1.4,4h0Z"/>
          <path class="cls-17" d="M287.2,288.2c-.2-1.4.3-2.7,1.4-3.7.2,1.5-.3,2.7-1.4,3.7h0Z"/>
          <path class="cls-17" d="M267.8,279.4c.7,1.2.8,2.4.3,3.7-.8-1.2-.8-2.4-.3-3.7h0Z"/>
          <path class="cls-17" d="M261.6,251.8c.8.9,1,2,.6,3.1-.8-.9-1-2-.6-3.1h0Z"/>
          <path class="cls-17" d="M258.8,231.1c.7,1.7.8,3.4.3,5.1-.8-1.7-.8-3.4-.3-5.1h0Z"/>
          <path class="cls-17" d="M255.8,244.1c.5,1.1.3,2.2-.5,3.1-.5-1.1-.3-2.2.5-3.1h0Z"/>
          <path class="cls-17" d="M249.8,235.3c.4,1.8.1,3.5-.8,5.1-.4-1.8-.1-3.5.8-5.1h0Z"/>
          <path class="cls-17" d="M239.8,230.5c.8,1.5,1,3.2.5,4.8-.8-1.5-1-3.2-.5-4.8h0Z"/>
          <path class="cls-17" d="M230.7,226.8c1,1.5,1.4,3.1,1.1,4.8-1-1.5-1.4-3.1-1.1-4.8h0Z"/>
          <path class="cls-17" d="M225.8,232.8c.8,1.5.7,3.2-.3,4.6-.4-1.6-.3-3,.3-4.6h0Z"/>
          <path class="cls-17" d="M215.8,235c.9,1.2,1,2.9.3,4.3-.5-1.5-.6-2.7-.3-4.3h0Z"/>
          <path class="cls-17" d="M232.6,241.3c.8,1.5,1.2,2.9,1.1,4.6-1.2-1.2-1.6-2.9-1.1-4.6h0Z"/>
          <path class="cls-17" d="M240.6,242.4c.7,1.4.7,2.9,0,4.3-.7-1.4-.7-2.9,0-4.3h0Z"/>
          <path class="cls-17" d="M250.1,249c.7,1,.7,2.1,0,3.1-.7-1-.7-2.1,0-3.1h0Z"/>
          <path class="cls-17" d="M256.6,260.4c.7,1.5.7,3,0,4.6-.7-1.5-.7-3,0-4.6h0Z"/>
          <path class="cls-17" d="M243,254.9c1.1,1.8,1.4,3.9.8,6-.8-2-1-3.9-.8-6h0Z"/>
          <path class="cls-17" d="M230.5,254.7c.7,1.2.8,2.4.3,3.7-.8-1.2-.8-2.4-.3-3.7h0Z"/>
          <path class="cls-17" d="M221.5,245.6c1,1.1,1.3,2.7.5,4-.6-1.4-.8-2.5-.5-4h0Z"/>
          <path class="cls-17" d="M215.2,257.8c1,.7,1.4,2,.8,3.1-.8-1-1-1.9-.8-3.1h0Z"/>
          <path class="cls-17" d="M224.2,260.9c.7,1.5.7,3,0,4.6-.7-1.5-.7-3,0-4.6h0Z"/>
          <path class="cls-17" d="M216.3,268.6c.8.6,1,1.4.5,2.3-.8-.6-1-1.4-.5-2.3h0Z"/>
          <path class="cls-17" d="M210,272.6c1,1.5,1.5,3,1.6,4.8-1.3-1.2-1.9-3-1.6-4.8h0Z"/>
          <path class="cls-17" d="M220.9,277.1c.9.9,1.2,1.9.8,3.1-.9-.9-1.2-1.9-.8-3.1h0Z"/>
          <path class="cls-17" d="M229.1,270.3c.6,1.2.7,2.1.4,3.4-1-.9-1.2-2.3-.4-3.4h0Z"/>
          <path class="cls-17" d="M236.5,262.1c.6,1.5.5,3.1-.3,4.6-.6-1.5-.5-3.1.3-4.6h0Z"/>
          <path class="cls-17" d="M244.4,269.5c.7,1.8.7,3.6,0,5.4-.7-1.8-.7-3.6,0-5.4h0Z"/>
          <path class="cls-17" d="M252.6,271.4c.9,1.5,1,3.3.2,4.8-.5-1.7-.6-3.1-.2-4.8h0Z"/>
          <path class="cls-17" d="M262.4,270.3c.7,1.6.7,3.2,0,4.8-.7-1.6-.7-3.2,0-4.8h0Z"/>
          <path class="cls-17" d="M258.8,284.2c1,1.4,1.4,2.9,1.1,4.6-1-1.4-1.4-2.9-1.1-4.6h0Z"/>
          <path class="cls-17" d="M246.5,282.3c.8,1.6.9,3.2.3,4.8-.8-1.6-.8-3.2-.3-4.8h0Z"/>
          <path class="cls-17" d="M237.3,279.7c.7,1.1.8,2.2.3,3.4-.8-1.1-.8-2.2-.3-3.4h0Z"/>
          <path class="cls-17" d="M227,282.2c1.2,1.9,1.6,4.3,1,6.6-.8-2.2-1.1-4.2-1-6.6h0Z"/>
          <path class="cls-17" d="M218.7,287.1c1.2,1.7,1.7,3.6,1.6,5.7-1.2-1.7-1.7-3.6-1.6-5.7h0Z"/>
          <path class="cls-17" d="M211.2,285.1c1.1,1.3,1.7,2.8,1.6,4.6-1.1-1.3-1.7-2.8-1.6-4.6h0Z"/>
          <path class="cls-17" d="M219.3,302.2c.8,1.1,1,2.4.5,3.7-.8-1.1-1-2.4-.5-3.7h0Z"/>
          <path class="cls-17" d="M226.1,298.2c1.1,1.1,1.4,2.9.5,4.3-.5-1.5-.7-2.7-.5-4.3h0Z"/>
          <path class="cls-17" d="M235.9,293.1c1.1,1.5,1.3,3.4.5,5.1-.6-1.7-.8-3.3-.5-5.1h0Z"/>
          <path class="cls-17" d="M244.1,293.3c.7,1.7.7,3.4,0,5.1-.7-1.7-.7-3.4,0-5.1h0Z"/>
          <path class="cls-17" d="M251.7,298.5c.7,1.6.8,3.2.3,4.8-.8-1.6-.8-3.2-.3-4.8h0Z"/>
          <path class="cls-17" d="M261.5,296.2c.5,1.6.3,3.1-.5,4.6-.5-1.6-.3-3.1.5-4.6h0Z"/>
          <path class="cls-17" d="M268.4,290.2c.7,1.6.7,3.2,0,4.8-.7-1.6-.7-3.2,0-4.8h0Z"/>
          <path class="cls-17" d="M277.1,293.1c.6,1.8.5,3.6-.3,5.4-.6-1.8-.5-3.6.3-5.4h0Z"/>
          <path class="cls-17" d="M283.6,297.6c.3,1.7,0,3.2-1.1,4.6-.3-1.7,0-3.2,1.1-4.6h0Z"/>
          <path class="cls-17" d="M286.9,308.1c.7,1.6.7,3.2,0,4.8-.7-1.6-.7-3.2,0-4.8h0Z"/>
          <path class="cls-17" d="M277.6,305.9c.7,1.3.7,2.7,0,4-.7-1.3-.7-2.7,0-4h0Z"/>
          <path class="cls-17" d="M268.6,302.5c.7,1.6.7,3.2,0,4.8-.7-1.6-.7-3.2,0-4.8h0Z"/>
          <path class="cls-17" d="M263.5,307.9c.7,1.4.8,2.8.3,4.3-.8-1.4-.8-2.8-.3-4.3h0Z"/>
          <path class="cls-17" d="M256.1,311.3c.8,1.4.7,3-.3,4.3-.4-1.5-.3-2.8.3-4.3h0Z"/>
          <path class="cls-17" d="M247.4,308.7c.8,1,1,2.2.5,3.4-.8-1-1-2.2-.5-3.4h0Z"/>
          <path class="cls-17" d="M239.5,303c.7,1.2.7,2.5,0,3.7-.7-1.2-.7-2.5,0-3.7h0Z"/>
          <path class="cls-17" d="M230.2,306.7c.8,1.2,1,2.6.6,4-.8-1.2-1-2.6-.6-4h0Z"/>
          <path class="cls-17" d="M222.3,312.4c.7,1.6.7,3.2,0,4.8-.7-1.6-.7-3.2,0-4.8h0Z"/>
          <path class="cls-17" d="M214.7,309.6c.6,1.8.7,3.5.3,5.4-.9-1.7-1-3.6-.3-5.4h0Z"/>
          <path class="cls-17" d="M214.1,326.6c1.1,1.5,1.5,3.3,1.1,5.1-.9-1.7-1.2-3.3-1.1-5.1h0Z"/>
          <path class="cls-17" d="M220.9,323.8c.7,1.2.8,2.4.3,3.7-.8-1.2-.8-2.4-.3-3.7h0Z"/>
          <path class="cls-17" d="M229.4,319.8c.8,1.6,1,3.4.5,5.1-.8-1.6-1-3.4-.5-5.1h0Z"/>
          <path class="cls-17" d="M236.3,316.4c.9,1.6,1,3.5.2,5.1-.5-1.8-.6-3.3-.2-5.1h0Z"/>
          <path class="cls-17" d="M241.6,319c.8,1.2,1,2.6.5,4-.8-1.2-1-2.6-.5-4h0Z"/>
          <path class="cls-17" d="M249,321.8c.7,1.8.7,3.6,0,5.4-.7-1.8-.7-3.6,0-5.4h0Z"/>
          <path class="cls-17" d="M256.4,322.9c.9,1.2,1,2.7.3,4-.6-1.4-.7-2.6-.3-4h0Z"/>
          <path class="cls-17" d="M265.6,318.7c.7,1.8.7,3.6,0,5.4-.7-1.8-.7-3.6,0-5.4h0Z"/>
          <path class="cls-17" d="M272.7,314.4c.6,1.6.7,3.1.3,4.8-.9-1.5-1-3.3-.3-4.8h0Z"/>
          <path class="cls-17" d="M283.4,318.7c.5,1.6.3,3.1-.5,4.6-.5-1.6-.3-3.1.5-4.6h0Z"/>
          <path class="cls-17" d="M288.5,326.1c.9,2.1.7,4.6-.5,6.6,0-2.3,0-4.3.5-6.6h0Z"/>
          <path class="cls-17" d="M280.4,328.3c.4,1.8.3,3.4-.3,5.1-.8-1.7-.7-3.6.3-5.1h0Z"/>
          <path class="cls-17" d="M271.9,324.9c.7,2.1.5,4.4-.7,6.3-.1-2.2,0-4.2.7-6.3h0Z"/>
          <path class="cls-17" d="M268.9,337.4c.7,1.2.7,2.5,0,3.7-.7-1.2-.7-2.5,0-3.7h0Z"/>
          <path class="cls-17" d="M261.8,331.5c.6,1.5.5,2.9-.3,4.3-.6-1.5-.5-2.9.3-4.3h0Z"/>
          <path class="cls-17" d="M276,338c.7,1,.7,2.1,0,3.1-.7-1-.7-2.1,0-3.1h0Z"/>
          <path class="cls-17" d="M258.8,341.4c.7,1.4.7,2.9,0,4.3-.7-1.4-.7-2.9,0-4.3h0Z"/>
          <path class="cls-17" d="M253.1,333.5c.7,1.6.7,3.2,0,4.8-.7-1.6-.7-3.2,0-4.8h0Z"/>
          <path class="cls-17" d="M249.5,343.7c.7.9.7,1.9,0,2.8-.7-.9-.7-1.9,0-2.8h0Z"/>
          <path class="cls-17" d="M244.6,331.2c.7,2.4.7,4.7,0,7.1-.7-2.4-.7-4.7,0-7.1h0Z"/>
          <path class="cls-17" d="M238.6,329.8c.7,1.2.7,2.5,0,3.7-.7-1.2-.7-2.5,0-3.7h0Z"/>
          <path class="cls-17" d="M230.5,330.3c1.2,1.5,1.6,3.5,1.1,5.4-.8-1.8-1.1-3.4-1.1-5.4h0Z"/>
          <path class="cls-17" d="M221.7,333.7c.8.8,1,1.8.5,2.8-.8-.8-1-1.8-.5-2.8h0Z"/>
          <path class="cls-17" d="M238.6,342.3c.7,1.1.7,2.3,0,3.4-.7-1.1-.7-2.3,0-3.4h0Z"/>
          <path class="cls-17" d="M285,234.5c.7,1.6.8,3.2.3,4.8-.8-1.6-.8-3.2-.3-4.8h0Z"/>
          <path class="cls-17" d="M289.6,239c.9,1.8,1.2,3.7.8,5.7-.9-1.8-1.2-3.7-.8-5.7h0Z"/>
          <path class="cls-17" d="M296.1,242.2c1,1.6,1.4,3.3,1.1,5.1-1-1.6-1.4-3.3-1.1-5.1h0Z"/>
          <path class="cls-17" d="M303.8,249c.7,2.3.8,4.7.3,7.1-.8-2.3-.8-4.7-.3-7.1h0Z"/>
          <path class="cls-17" d="M296.1,254.1c1.2,1.8,1.8,3.8,1.7,6-1.2-1.8-1.8-3.8-1.7-6h0Z"/>
          <path class="cls-17" d="M303.2,264.6c1,1.6,1.4,3.3,1.1,5.1-1-1.6-1.4-3.3-1.1-5.1h0Z"/>
          <path class="cls-17" d="M307.6,272.6c.8,1,1,2.2.6,3.4-.8-1-1-2.2-.6-3.4h0Z"/>
          <path class="cls-17" d="M298.9,273.7c1.2,1.5,1.6,3.6.8,5.4-.6-1.9-.8-3.5-.8-5.4h0Z"/>
          <path class="cls-17" d="M304.9,282.3c.8,2.1,1.2,4,1.1,6.3-1.2-1.8-1.6-4.1-1.1-6.3h0Z"/>
          <path class="cls-17" d="M309.8,286.5c.8,1.3,1,2.8.5,4.3-.8-1.3-1-2.8-.5-4.3h0Z"/>
          <path class="cls-17" d="M298.9,286.5c1,1.2,1.4,2.7,1.1,4.3-1-1.2-1.4-2.7-1.1-4.3h0Z"/>
          <path class="cls-17" d="M294.5,295.6c1.2,1.5,1.7,3.2,1.6,5.1-1.2-1.5-1.7-3.2-1.6-5.1h0Z"/>
          <path class="cls-17" d="M303.5,296.5c.9,1.6,1.2,3.3.8,5.1-.9-1.6-1.2-3.3-.8-5.1h0Z"/>
          <path class="cls-17" d="M310.1,295.9c.7,2,.8,4.2.3,6.3-.8-2-.8-4.2-.3-6.3h0Z"/>
          <path class="cls-17" d="M308.1,307.6c1,1.8,1.3,4,.6,6-.7-2-.8-3.9-.6-6h0Z"/>
          <path class="cls-17" d="M298,306.2c1.1,2,1.6,4,1.8,6.2-1.4-1.8-2-4-1.8-6.2h0Z"/>
          <path class="cls-17" d="M313.9,310.7c.7,2,.8,4,.3,6-.8-2-.8-4-.3-6h0Z"/>
          <path class="cls-17" d="M303.8,317.2c1.1,1.1,1.5,2.5,1.4,4-1.1-1.1-1.5-2.5-1.4-4h0Z"/>
          <path class="cls-17" d="M301.9,331.2c.7,1.5.9,2.7.8,4.3-1.2-1.1-1.5-2.8-.8-4.3h0Z"/>
          <path class="cls-17" d="M312,342c-2-.4-3.8-1.4-5.4-2.5l.5-.8c1.7,1.1,3.1,2.4,4.9,3.3h0ZM312,342c-2-.1-3.8-1.5-5.4-2.5,0,0,.5-.8.5-.8,1.6,1.1,3.2,2.2,4.9,3.3h0Z"/>
          <path class="cls-17" d="M309.6,330.5c2.3.4,4.3,1.4,6,2.9-2.3-.4-4.3-1.4-6-2.9h0Z"/>
          <path class="cls-17" d="M319.3,330.6c1.9-.3,3.8.3,5.2,1.7-1.9-.1-3.6-.6-5.2-1.7h0Z"/>
          <path class="cls-17" d="M317.4,336.6c1.6,0,3,.5,4.1,1.7-1.6,0-3-.5-4.1-1.7h0Z"/>
          <path class="cls-17" d="M319.9,343.1c1.6-.2,3.1.3,4.4,1.4-1.6.2-3.1-.3-4.4-1.4h0Z"/>
          <path class="cls-17" d="M327,338.6c1.7-.2,3.3.2,4.6,1.2-1.7.3-3.3-.2-4.6-1.2h0Z"/>
          <path class="cls-17" d="M330.2,333.2c1.4-.3,2.7.1,3.8,1.1-1.4.3-2.7-.1-3.8-1.1h0Z"/>
          <path class="cls-17" d="M334.1,342.3c1.7-.4,3.4,0,4.7,1.3-1.7,0-3.2-.4-4.7-1.3h0Z"/>
          <path class="cls-17" d="M330.8,347.7c2.1-.2,4,.3,5.7,1.5-2.1.2-4-.3-5.7-1.5h0Z"/>
          <path class="cls-17" d="M339,335.4c1.4-.5,2.7-.3,3.8.6-1.4.5-2.7.3-3.8-.6h0Z"/>
          <path class="cls-17" d="M347.2,338.5c1.5-.4,2.9,0,4.1.9-1.5.4-2.9,0-4.1-.9h0Z"/>
          <path class="cls-17" d="M344.7,343.5c1.3-.5,2.5-.3,3.5.6-1.3.5-2.5.3-3.5-.6h0Z"/>
          <path class="cls-17" d="M344.1,349.9c2.1-.5,3.9-.6,6-.2-1.9,1-4.1,1-6,.2h0Z"/>
          <path class="cls-17" d="M353.7,344.2c1.1-.6,2.3-.5,3.3.3-1.1.6-2.3.5-3.3-.3h0Z"/>
          <path class="cls-17" d="M211.1,243.9c-.1,1.6-.5,2.7-1.4,4-.5-1.5,0-3.1,1.4-4h0Z"/>
          <path class="cls-17" d="M204.8,240.7c.3,1.3.1,2.3-.5,3.4-.7-1.1-.4-2.5.5-3.4h0Z"/>
          <path class="cls-17" d="M198.8,246.7c.5,1.3.3,2.6-.5,3.7-.5-1.3-.3-2.6.5-3.7h0Z"/>
          <path class="cls-17" d="M206.7,251.8c-.2,2.2-1,4.2-2.4,6,.2-2.2,1-4.2,2.4-6h0Z"/>
          <path class="cls-17" d="M198.8,254.9c.2,2.1,0,4-.5,6-.7-2-.5-4.2.5-6h0Z"/>
          <path class="cls-17" d="M201.6,267.7c.6,1.5.5,2.9-.3,4.3-.6-1.5-.5-2.9.3-4.3h0Z"/>
          <path class="cls-17" d="M195.6,266.6c.4,2.1,0,4.1-.8,6-.4-2.1,0-4.1.8-6h0Z"/>
          <path class="cls-17" d="M196.4,279.7c.7,1.5.7,3,0,4.6-.7-1.5-.7-3,0-4.6h0Z"/>
          <path class="cls-17" d="M201.3,282.5c.5,1.6.3,3.1-.5,4.6-.5-1.6-.3-3.1.5-4.6h0Z"/>
          <path class="cls-17" d="M190.9,279.1c.6,1.9.5,3.8-.3,5.7-.6-1.9-.5-3.8.3-5.7h0Z"/>
          <path class="cls-17" d="M190.9,292.5c.6,1.8.5,3.6-.3,5.4-.6-1.8-.5-3.6.3-5.4h0Z"/>
          <path class="cls-17" d="M196.4,291.1c.8,1.2.7,2.9-.3,4-.4-1.4-.3-2.6.3-4h0Z"/>
          <path class="cls-17" d="M204,293.1c.4,1.7.3,3.2-.3,4.8-.7-1.6-.6-3.4.3-4.8h0Z"/>
          <path class="cls-17" d="M207.6,299.3c.2,2-.3,3.8-1.4,5.4-.2-2,.3-3.8,1.4-5.4h0Z"/>
          <path class="cls-17" d="M202.9,307c.7,1.4.5,3.1-.5,4.3-.3-1.6-.1-2.8.5-4.3h0Z"/>
          <path class="cls-17" d="M198.3,301.9c.5,1.2.3,2.4-.5,3.4-.5-1.2-.3-2.4.5-3.4h0Z"/>
          <path class="cls-17" d="M190.9,303c.5,1.8.3,3.5-.5,5.1-.5-1.8-.3-3.5.5-5.1h0Z"/>
          <path class="cls-17" d="M188.5,313.8c.7,1.5.7,3,0,4.6-.7-1.5-.7-3,0-4.6h0Z"/>
          <path class="cls-17" d="M195,313c.4,1.8.1,3.5-.8,5.1-.4-1.8-.1-3.5.8-5.1h0Z"/>
          <path class="cls-17" d="M201,317c.7,1.4.5,3.1-.5,4.3-.3-1.6-.1-2.8.5-4.3h0Z"/>
          <path class="cls-17" d="M200.5,331.7c.4,1.5.1,3-.8,4.3-.4-1.5,0-3,.8-4.3h0Z"/>
          <path class="cls-17" d="M193.1,342.3c-.8,1.3-2.4,1.9-3.8,1.4,1.2-.9,2.3-1.3,3.8-1.4h0Z"/>
          <path class="cls-17" d="M192.8,336.9c-1.3,1.5-2.9,2.5-4.9,2.8,1.3-1.5,2.9-2.5,4.9-2.8h0Z"/>
          <path class="cls-17" d="M191.8,332c-.4,1.3-1.6,2.1-3,2,.8-1.1,1.7-1.7,3-2h0Z"/>
          <path class="cls-17" d="M187.4,327.8c-.7,1.4-2.2,2.2-3.8,2,1.1-1.1,2.3-1.7,3.8-2h0Z"/>
          <path class="cls-17" d="M179.2,329.2c-.9,1.3-2.2,2.1-3.8,2.3.9-1.3,2.2-2.1,3.8-2.3h0Z"/>
          <path class="cls-17" d="M179.5,335.5c-1.2,1.2-2.7,1.8-4.4,1.7,1.2-1.2,2.7-1.8,4.4-1.7h0Z"/>
          <path class="cls-17" d="M181.1,340c-1.2,1.1-2.7,1.6-4.4,1.4,1.2-1.1,2.7-1.6,4.4-1.4h0Z"/>
          <path class="cls-17" d="M172.4,346.3c1.4-1.3,3.4-1.7,5.2-1.1-1.7.8-3.3,1.1-5.2,1.1h0Z"/>
          <path class="cls-17" d="M167.2,342c1.3-.7,2.4-1,3.8-.9-.9,1.1-2.5,1.4-3.8.9h0Z"/>
          <path class="cls-17" d="M165.9,336.3c1.5-.7,2.7-1,4.4-1.1-1,1.3-2.9,1.7-4.4,1.1h0Z"/>
          <path class="cls-17" d="M156.3,335.7c1.1-1.1,2.5-1.6,4.1-1.4-1.1,1.1-2.5,1.6-4.1,1.4h0Z"/>
          <path class="cls-17" d="M155.5,340.3c1.3-1.2,3.1-1.8,4.9-1.4-1.5,1-3.1,1.4-4.9,1.4h0Z"/>
          <path class="cls-17" d="M157.7,346c1.2-.9,2.6-1.2,4.1-.9-1.2.9-2.6,1.2-4.1.9h0Z"/>
          <path class="cls-17" d="M159.9,350c1.1-.8,2.3-1,3.5-.6-1.1.8-2.3,1-3.5.6h0Z"/>
          <path class="cls-17" d="M147.3,351.1c1.1-.8,2.3-1,3.5-.5-1.1.8-2.3,1-3.5.5h0Z"/>
          <path class="cls-17" d="M141.9,348.9c1.2-1,2.6-1.4,4.1-1.1-1.2,1-2.6,1.4-4.1,1.1h0Z"/>
          <path class="cls-17" d="M148.4,343.7c.9-.8,1.9-.9,3-.3-.9.8-1.9.9-3,.3h0Z"/>
          <path class="cls-17" d="M144.3,338.8c1.2-1.2,3.1-1.6,4.6-.8-1.6.6-2.9.8-4.6.8h0Z"/>
        </g>
      </g>
      <g>
        <g>
          <path class="cls-12" d="M409,125.4l-2.1,7.8c-2,.6-3.8,1.4-5.6,2.4l-4.2-3.9h-2.6l-6.2,6.3,3.8,7.1c-1,1.8-1.8,3.7-2.3,5.7l-7.6,2.2v9l7.6,2.2c.5,2,1.3,4,2.3,5.7l-3.8,7.1,6.2,6.3h2.6l4.2-3.9c1.7,1,3.6,1.8,5.6,2.4l2.1,7.8h8.7l2.1-7.8c2-.6,3.8-1.4,5.6-2.4l6.9,3.9h2.6l3.5-6.3-3.8-7.1c1-1.8,1.8-3.7,2.3-5.7l7.6-2.2v-9l-7.6-2.2c-.5-2-1.3-4-2.3-5.7l3.8-7.1-3.5-6.3h-2.6l-6.9,3.9c-1.7-1-3.6-1.8-5.6-2.4l-2.1-7.8h-8.7ZM432.3,157.5c0,10.8-8.5,19.6-19,19.6s-19-8.8-19-19.6,8.5-19.6,19-19.6,19,8.8,19,19.6Z"/>
          <path class="cls-11" d="M411.6,125.4l-2.1,7.8c-2,.6-3.8,1.4-5.6,2.4l-6.9-3.9-6.2,6.3,3.8,7.1c-1,1.8-1.8,3.7-2.3,5.7l-7.6,2.2v9l7.6,2.2c.5,2,1.3,4,2.3,5.7l-3.8,7.1,6.2,6.3,6.9-3.9c1.7,1,3.6,1.8,5.6,2.4l2.1,7.8h8.7l2.1-7.8c2-.6,3.8-1.4,5.6-2.4l6.9,3.9,6.2-6.3-3.8-7.1c1-1.8,1.8-3.7,2.3-5.7l7.6-2.2v-9l-7.6-2.2c-.5-2-1.3-4-2.3-5.7l3.8-7.1-6.2-6.3-6.9,3.9c-1.7-1-3.6-1.8-5.6-2.4l-2.1-7.8h-8.7ZM435,157.5c0,10.8-8.5,19.6-19,19.6s-19-8.8-19-19.6,8.5-19.6,19-19.6,19,8.8,19,19.6Z"/>
        </g>
        <g>
          <path class="cls-12" d="M394.9,196.2l-1.4,5.1c-1.3.4-2.5.9-3.6,1.5l-2.8-2.6h-1.7l-4,4.1,2.5,4.6c-.6,1.2-1.1,2.4-1.5,3.7l-4.9,1.4v5.9l4.9,1.4c.4,1.3.9,2.6,1.5,3.7l-2.5,4.6,4,4.1h1.7l2.8-2.6c1.1.7,2.4,1.2,3.6,1.5l1.4,5.1h5.7l1.4-5.1c1.3-.4,2.5-.9,3.6-1.5l4.5,2.6h1.7l2.3-4.1-2.5-4.6c.6-1.2,1.1-2.4,1.5-3.7l4.9-1.4v-5.9l-4.9-1.4c-.4-1.3-.9-2.6-1.5-3.7l2.5-4.6-2.3-4.1h-1.7l-4.5,2.6c-1.1-.7-2.4-1.2-3.6-1.5l-1.4-5.1h-5.7ZM410.1,217.1c0,7-5.6,12.8-12.4,12.8s-12.4-5.7-12.4-12.8,5.6-12.8,12.4-12.8,12.4,5.7,12.4,12.8Z"/>
          <path class="cls-11" d="M396.6,196.2l-1.4,5.1c-1.3.4-2.5.9-3.6,1.5l-4.5-2.6-4,4.1,2.5,4.6c-.6,1.2-1.1,2.4-1.5,3.7l-4.9,1.4v5.9l4.9,1.4c.4,1.3.9,2.6,1.5,3.7l-2.5,4.6,4,4.1,4.5-2.6c1.1.7,2.4,1.2,3.6,1.5l1.4,5.1h5.7l1.4-5.1c1.3-.4,2.5-.9,3.6-1.5l4.5,2.6,4-4.1-2.5-4.6c.6-1.2,1.1-2.4,1.5-3.7l4.9-1.4v-5.9l-4.9-1.4c-.4-1.3-.9-2.6-1.5-3.7l2.5-4.6-4-4.1-4.5,2.6c-1.1-.7-2.4-1.2-3.6-1.5l-1.4-5.1h-5.7ZM411.8,217.1c0,7-5.6,12.8-12.4,12.8s-12.4-5.7-12.4-12.8,5.6-12.8,12.4-12.8,12.4,5.7,12.4,12.8Z"/>
        </g>
        <g>
          <path class="cls-17" d="M169.9,83.6l-80.9-16.7c-2.1-.4-4.2,1-4.6,3.2l-10,52.5,88.6,18.3,10-52.5c.4-2.2-1-4.4-3.1-4.8Z"/>
          <path class="cls-17" d="M165,141.4l-99.2-20.5c-2.2-.5-4.4,1.1-4.9,3.4h0l99.4,20.4c2.2.4,4.3-1,4.7-3.3h0Z"/>
          <path class="cls-9" d="M171.9,84.1l-80.9-16.7c-2.1-.4-4.2,1-4.6,3.2l-10,52.5,88.6,18.3,10-52.5c.4-2.2-1-4.4-3.1-4.8Z"/>
          <path class="cls-3" d="M132.6,106.5c-.7,3.9-4.4,6.4-8.1,5.6-3.7-.8-6.1-4.5-5.4-8.4.7-3.9,4.4-6.4,8.1-5.6,3.7.8,6.1,4.5,5.4,8.4Z"/>
        </g>
        <g>
          <path class="cls-17" d="M201.8,96.8c.2.2.5.4.8.4h0c.3,0,.5-.1.7-.3l17-17.8c.2-.2.3-.5.3-.8v-25.2c0-.3-.1-.6-.3-.8-.2-.2-.5-.3-.8-.3-13.5,1.5-23.7,13.2-23.7,27.4s2.1,12.5,5.9,17.3Z"/>
          <path class="cls-3" d="M248.1,81.4c-.2-.2-.5-.4-.8-.4h-18.7c-.4,0-.8.3-1,.7-.2.4,0,.9.2,1.2l13.4,13.6c.2.2.5.3.7.3h0c.3,0,.6-.2.8-.4,3.1-4.1,5-9,5.5-14.2,0-.3,0-.6-.3-.8Z"/>
          <path class="cls-9" d="M239,100.6c.2-.2.4-.5.4-.8s-.1-.6-.3-.8l-16.2-16.5c-.4-.4-1.1-.4-1.5,0l-16,16.7c-.2.2-.3.5-.3.8,0,.3.2.6.4.8,4.7,4,10.6,6.1,16.6,6.1s12.2-2.3,16.9-6.4Z"/>
          <path class="cls-15" d="M224.8,52c-.3,0-.6,0-.8.3-.2.2-.3.5-.3.8v23.6c0,.6.5,1.1,1.1,1.1h22.6c.3,0,.6-.1.8-.4.2-.2.3-.5.3-.8-1.3-12.9-11.2-23.2-23.5-24.5Z"/>
        </g>
        <g>
          <path class="cls-3" d="M65.6,217.3s11.3-6.8,19.1-23.8c7.8-17,8.5-31.2,8.5-31.2l39.1,15s-.7,14.2-8.5,31.2c-7.8,17-19.3,25.1-19.3,25.1l-38.9-16.4Z"/>
          <line class="cls-8" x1="96.8" y1="168.3" x2="128.8" y2="181.2"/>
          <line class="cls-8" x1="95.6" y1="172.4" x2="127.6" y2="185.3"/>
          <line class="cls-8" x1="94.6" y1="176.5" x2="126.6" y2="189.3"/>
          <line class="cls-8" x1="93.6" y1="180.4" x2="125.6" y2="193.2"/>
          <line class="cls-8" x1="92.6" y1="184.4" x2="124.6" y2="197.3"/>
          <line class="cls-8" x1="90.9" y1="188.5" x2="122.9" y2="201.4"/>
          <line class="cls-8" x1="88.7" y1="192.5" x2="120.7" y2="205.4"/>
          <line class="cls-8" x1="86.6" y1="196.4" x2="118.6" y2="209.3"/>
          <line class="cls-8" x1="84" y1="200.2" x2="116" y2="213.1"/>
          <line class="cls-8" x1="81.9" y1="203.8" x2="113.9" y2="216.7"/>
          <line class="cls-8" x1="79.3" y1="207.4" x2="111.3" y2="220.2"/>
          <line class="cls-8" x1="77" y1="211" x2="109.1" y2="223.9"/>
          <line class="cls-8" x1="74.1" y1="214.8" x2="106.1" y2="227.6"/>
        </g>
        <g>
          <path class="cls-3" d="M378.8,120.3s-13.9-8.3-23.4-29.3c-9.6-20.9-10.5-38.3-10.5-38.3l-48,18.5s.9,17.4,10.5,38.3,23.7,30.9,23.7,30.9l47.8-20.1Z"/>
          <line class="cls-7" x1="340.5" y1="60.1" x2="301.1" y2="75.9"/>
          <line class="cls-7" x1="341.9" y1="65.1" x2="302.5" y2="80.9"/>
          <line class="cls-7" x1="343.1" y1="70" x2="303.8" y2="85.9"/>
          <line class="cls-7" x1="344.4" y1="74.8" x2="305" y2="90.7"/>
          <line class="cls-7" x1="345.6" y1="79.8" x2="306.3" y2="95.7"/>
          <line class="cls-7" x1="347.8" y1="84.8" x2="308.4" y2="100.6"/>
          <line class="cls-7" x1="350.4" y1="89.8" x2="311" y2="105.6"/>
          <line class="cls-7" x1="353" y1="94.5" x2="313.6" y2="110.4"/>
          <line class="cls-7" x1="356.2" y1="99.3" x2="316.8" y2="115.1"/>
          <line class="cls-7" x1="358.8" y1="103.7" x2="319.5" y2="119.5"/>
          <line class="cls-7" x1="362" y1="108" x2="322.6" y2="123.9"/>
          <line class="cls-7" x1="364.8" y1="112.5" x2="325.4" y2="128.3"/>
          <line class="cls-7" x1="368.4" y1="117.1" x2="329" y2="132.9"/>
        </g>
      </g>
      <g>
        <g>
          <polygon class="cls-3" points="354.4 152.3 360 149.9 361.7 144.7 363.5 150.2 369 152.3 364 154.4 361.7 159.9 360 154.8 354.4 152.3"/>
          <g>
            <path class="cls-3" d="M350.8,174.1c-1.7.6-3.3.9-5,1.2-1.7.2-3.3.3-5,.3-1.7,0-3.3,0-5-.3-1.7-.2-3.3-.5-5-1.2,1.7-.6,3.3-.9,5-1.2,1.7-.2,3.3-.3,5-.3,1.7,0,3.3.1,5,.3,1.7.2,3.3.5,5,1.2Z"/>
            <path class="cls-3" d="M340.8,163.7c.6,1.7.9,3.5,1.1,5.2.2,1.7.3,3.5.3,5.2,0,1.7,0,3.5-.3,5.2-.2,1.7-.5,3.5-1.1,5.2-.6-1.7-.9-3.5-1.1-5.2-.2-1.7-.3-3.5-.3-5.2,0-1.7,0-3.5.3-5.2.2-1.7.5-3.5,1.1-5.2Z"/>
            <path class="cls-3" d="M347.9,181.4c-1.6-.8-3-1.8-4.3-2.8-1.3-1.1-2.6-2.2-3.7-3.4-1.2-1.2-2.3-2.5-3.3-3.9-1-1.4-2-2.8-2.7-4.5,1.6.8,3,1.8,4.3,2.8,1.3,1.1,2.6,2.2,3.7,3.4,1.2,1.2,2.3,2.5,3.3,3.9,1,1.4,2,2.8,2.7,4.5Z"/>
            <path class="cls-3" d="M347.9,166.8c-.8,1.7-1.7,3.1-2.7,4.5-1,1.4-2.1,2.7-3.3,3.9-1.2,1.2-2.4,2.4-3.7,3.4-1.3,1.1-2.7,2.1-4.3,2.8.8-1.7,1.7-3.1,2.7-4.5,1-1.4,2.1-2.7,3.3-3.9,1.2-1.2,2.4-2.4,3.7-3.4,1.3-1.1,2.7-2.1,4.3-2.8Z"/>
          </g>
          <g>
            <path class="cls-3" d="M323.3,152.2c-.9.3-1.8.5-2.7.6-.9.1-1.8.2-2.7.2-.9,0-1.8,0-2.7-.2-.9-.1-1.8-.3-2.7-.6.9-.3,1.8-.5,2.7-.6.9-.1,1.8-.2,2.7-.2.9,0,1.8,0,2.7.2.9.1,1.8.3,2.7.6Z"/>
            <path class="cls-3" d="M318,146.6c.3.9.5,1.8.6,2.8.1.9.2,1.8.2,2.8,0,.9,0,1.8-.2,2.8-.1.9-.3,1.8-.6,2.8-.3-.9-.5-1.8-.6-2.8-.1-.9-.2-1.8-.2-2.8,0-.9,0-1.8.2-2.8.1-.9.3-1.8.6-2.8Z"/>
            <path class="cls-3" d="M321.7,156.1c-.8-.4-1.6-1-2.3-1.5-.7-.6-1.4-1.2-2-1.8-.6-.7-1.2-1.3-1.8-2.1-.5-.7-1.1-1.5-1.5-2.4.8.4,1.6,1,2.3,1.5.7.6,1.4,1.2,2,1.8.6.7,1.2,1.3,1.8,2.1.5.7,1.1,1.5,1.5,2.4Z"/>
            <path class="cls-3" d="M321.7,148.2c-.4.9-.9,1.7-1.5,2.4-.5.7-1.1,1.4-1.8,2.1-.6.7-1.3,1.3-2,1.8-.7.6-1.4,1.1-2.3,1.5.4-.9.9-1.7,1.5-2.4.5-.7,1.1-1.4,1.8-2.1.6-.7,1.3-1.3,2-1.8.7-.6,1.4-1.1,2.3-1.5Z"/>
          </g>
        </g>
        <g>
          <polygon class="cls-3" points="187.1 163.7 181.5 161.4 179.8 156.2 178.1 161.6 172.5 163.7 177.5 165.8 179.8 171.3 181.5 166.2 187.1 163.7"/>
          <g>
            <path class="cls-3" d="M186.5,134.5c1.4.5,2.9.8,4.3,1,1.4.2,2.9.3,4.3.3,1.4,0,2.9,0,4.3-.3,1.4-.2,2.9-.5,4.3-1-1.4-.5-2.9-.8-4.3-1-1.4-.2-2.9-.3-4.3-.3-1.4,0-2.9,0-4.3.3-1.4.2-2.9.5-4.3,1Z"/>
            <path class="cls-3" d="M195,125.6c-.5,1.5-.8,3-1,4.5-.2,1.5-.3,3-.3,4.5,0,1.5,0,3,.3,4.5.2,1.5.5,3,1,4.5.5-1.5.8-3,1-4.5.2-1.5.3-3,.3-4.5,0-1.5,0-3-.3-4.5-.2-1.5-.5-3-1-4.5Z"/>
            <path class="cls-3" d="M189,140.9c1.4-.7,2.6-1.5,3.7-2.5,1.1-.9,2.2-1.9,3.2-3,1-1.1,2-2.2,2.8-3.4.9-1.2,1.7-2.4,2.4-3.9-1.4.7-2.6,1.5-3.7,2.5-1.1.9-2.2,1.9-3.2,3-1,1.1-2,2.2-2.8,3.4-.9,1.2-1.7,2.4-2.4,3.9Z"/>
            <path class="cls-3" d="M189,128.2c.7,1.4,1.5,2.7,2.4,3.9.9,1.2,1.8,2.3,2.8,3.4,1,1.1,2.1,2,3.2,3,1.1.9,2.3,1.8,3.7,2.5-.6-1.4-1.5-2.7-2.4-3.9-.9-1.2-1.8-2.3-2.8-3.4-1-1.1-2.1-2-3.2-3-1.1-.9-2.3-1.8-3.7-2.5Z"/>
          </g>
          <g>
            <path class="cls-3" d="M147.1,161.2c.6.2,1.3.4,1.9.5.6,0,1.3.1,1.9.1.6,0,1.3,0,1.9-.1.6,0,1.3-.2,1.9-.5-.6-.2-1.3-.4-1.9-.5-.6,0-1.3-.1-1.9-.1-.6,0-1.3,0-1.9.1-.6,0-1.3.2-1.9.5Z"/>
            <path class="cls-3" d="M151,157.2c-.2.7-.3,1.3-.4,2,0,.7-.1,1.3-.1,2,0,.7,0,1.3.1,2,0,.7.2,1.3.4,2,.2-.7.3-1.3.4-2,0-.7.1-1.3.1-2,0-.7,0-1.3-.1-2,0-.7-.2-1.3-.4-2Z"/>
            <path class="cls-3" d="M148.3,164.1c.6-.3,1.2-.7,1.7-1.1.5-.4,1-.9,1.4-1.3.5-.5.9-1,1.3-1.5.4-.5.8-1.1,1.1-1.7-.6.3-1.2.7-1.7,1.1-.5.4-1,.9-1.4,1.3-.5.5-.9,1-1.3,1.5-.4.5-.8,1.1-1.1,1.7Z"/>
            <path class="cls-3" d="M148.3,158.4c.3.6.7,1.2,1.1,1.7.4.5.8,1,1.3,1.5.5.5.9.9,1.4,1.3.5.4,1.1.8,1.7,1.1-.3-.6-.7-1.2-1.1-1.7-.4-.5-.8-1-1.3-1.5-.5-.5-.9-.9-1.4-1.3-.5-.4-1.1-.8-1.7-1.1Z"/>
          </g>
        </g>
      </g>
    </g>
  </g>
</svg>