<?xml version="1.0" encoding="UTF-8"?>
<svg xmlns="http://www.w3.org/2000/svg" version="1.1" viewBox="0 0 500 500">
  <defs>
    <style>
      .cls-1 {
        fill: #8c2c45;
      }

      .cls-2 {
        fill: #2c63c6;
      }

      .cls-3 {
        fill: #e0a08c;
      }

      .cls-4 {
        fill: #112335;
      }

      .cls-5 {
        fill: #2355a5;
      }

      .cls-6 {
        fill: #203651;
      }

      .cls-7 {
        fill: #f4cfa2;
      }

      .cls-8 {
        fill: #543229;
      }

      .cls-9 {
        fill: #fff;
      }

      .cls-10 {
        fill: #dddbd7;
      }

      .cls-11 {
        fill: #dd5750;
      }

      .cls-12 {
        fill: #331a15;
      }

      .cls-13 {
        fill: #ef9d75;
      }

      .cls-14 {
        fill: #ba365c;
      }

      .cls-15 {
        fill: #e2aa8f;
      }

      .cls-16 {
        fill: #841f39;
      }

      .cls-17 {
        fill: #f2815a;
      }

      .cls-18 {
        fill: #3b577f;
      }

      .cls-19 {
        fill: #44261f;
      }
    </style>
  </defs>
  <!-- Generator: Adobe Illustrator 28.7.1, SVG Export Plug-In . SVG Version: 1.2.0 Build 142)  -->
  <g>
    <g id="Objects">
      <g>
        <g>
          <path class="cls-17" d="M163.4,108.5c0-4.8,4-8.6,9-8.6s9,3.9,9,8.6-4,8.6-9,8.6-9-3.9-9-8.6"/>
          <path class="cls-17" d="M179.3,86.6c0-2.4,2-4.3,4.5-4.3s4.5,1.9,4.5,4.3-2,4.3-4.5,4.3-4.5-1.9-4.5-4.3"/>
          <path class="cls-17" d="M197.2,94.6c0-3.4,2.9-6.2,6.4-6.2s6.4,2.8,6.4,6.2-2.9,6.2-6.4,6.2-6.4-2.8-6.4-6.2"/>
          <path class="cls-11" d="M44.8,308.4c0-3.4,2.9-6.2,6.4-6.2s6.4,2.8,6.4,6.2-2.9,6.2-6.4,6.2-6.4-2.8-6.4-6.2"/>
          <path class="cls-11" d="M417,275.2c0-4.8,4-8.6,9-8.6s9,3.9,9,8.6-4,8.6-9,8.6-9-3.9-9-8.6"/>
          <path class="cls-11" d="M442.7,309.7c0-3.1,2.6-5.5,5.8-5.5s5.8,2.5,5.8,5.5-2.6,5.5-5.8,5.5-5.8-2.5-5.8-5.5"/>
        </g>
        <g>
          <path class="cls-13" d="M198.3,442c0,6.8-33.8,12.3-75.5,12.3s-75.5-5.5-75.5-12.3,33.8-12.3,75.5-12.3,75.5,5.5,75.5,12.3Z"/>
          <path class="cls-13" d="M348.2,446.9c0,6.8-42.8,12.3-95.6,12.3s-95.6-5.5-95.6-12.3,42.8-12.3,95.6-12.3,95.6,5.5,95.6,12.3Z"/>
          <path class="cls-13" d="M438.2,442.7c0,6.8-33.8,12.3-75.5,12.3s-75.5-5.5-75.5-12.3,33.8-12.3,75.5-12.3,75.5,5.5,75.5,12.3Z"/>
        </g>
        <g>
          <g>
            <path class="cls-7" d="M418.1,207l1.1-6.5,9.6-.9-1.1,9s-8.1.4-9.7-1.7"/>
            <g>
              <path class="cls-16" d="M381.2,429.9s-.3,10.9.2,12.3c.5,1.4,16.2,4.2,25.2,4.2s7.6-2,7.6-4.9-6.9-5.8-12.4-8.2c-5.5-2.4-7.5-2.7-8.1-4-.6-1.3-10.4-4.9-12.4.7"/>
              <path class="cls-9" d="M402.8,433.7c-1.7,1-3.1,2.5-3.3,4.9-.2,2.5.2,5.1.8,7.4,2.2.2,4.4.3,6.3.3,8.9,0,7.6-2,7.6-4.9s-6-5.4-11.3-7.7"/>
              <path class="cls-10" d="M414.2,443.2c-2.7.9-9.4,1-18.9-.5-8.3-1.4-11.5-2.3-14.1-3.5,0,1.4,0,2.6.2,3,.5,1.4,16.2,4.2,25.2,4.2s7.7-1.2,7.6-3.1"/>
              <path class="cls-16" d="M347.2,428.2s.8.2.8,1.2-.2,12.2-.3,12.8c0,.5-16.9,4.6-27.8,4.4-10.9-.2-6.5-4.7-4.7-6.6,1.7-1.9,11.6-7.3,18.5-9.2,6.9-1.9,13.5-2.6,13.5-2.6"/>
              <path class="cls-9" d="M329.6,440.6c.5-3.4-1-5.7-2.8-7.2-5.3,2.3-10.4,5.3-11.6,6.6-1.7,1.9-6.2,6.4,4.7,6.6,2.6,0,5.5-.1,8.5-.5.4-1.4.8-3.2,1.1-5.5"/>
              <path class="cls-10" d="M325.2,444.5c-6.7.8-10.3.4-12.3-.2.3,1.2,2.1,2.2,7.1,2.3,10.9.2,27.7-3.9,27.8-4.4,0-.2,0-1.4.1-3-4.5,1.5-13.4,4.1-22.6,5.3"/>
              <path class="cls-6" d="M340.6,299.8l-6.8,131s8.8,2.1,14.3-1.4l10.3-111.3h13.8l9.1,111.7s6.8,2.9,14,.6l-5-131.5-49.6.8Z"/>
              <path class="cls-7" d="M332.8,310.3s5,.1,6,1c1,.9,5.5,5.8,5,10.4-.5,4.6-4,4-5,1.5-1-2.5-6.1-12.9-6.1-12.9"/>
              <path class="cls-7" d="M329,309.1s-2.9,1.7-3.2,5.5c-.3,3.8-.1,6.6,1.8,8.8,1.9,2.2,4.8,2.6,6,3.8,1.3,1.1,2.5,3.5,5.2,3.1,2.7-.3,1.4-6.3,1.1-8.6-.3-2.3.1-9.2-3.4-10.8-3.5-1.5-7.6-1.8-7.6-1.8"/>
              <path class="cls-5" d="M338.3,310.9s-6.2,1.8-10.5-1.1c0,0,2-40.2,3.5-54,1.5-13.8,3.8-23.1,9.6-28.1,5.8-5,6.5,8,6.5,16.1s-5.8,34-5.8,34l-3.3,33.1Z"/>
              <path class="cls-2" d="M364.2,221.3c5.7-.2,19.7,1.1,22.8,2,3,.9,25.2,14.3,25.2,14.3l5.6-32.6s6.1,2,10.9,1.1c0,0-3,34.2-4.6,38.6-1.5,4.4-4.1,9.7-16.4,4.4-12.3-5.3-19.6-9.9-19.6-9.9,0,0,3.5,62.1,3.5,63.3s-3.6,3.2-20.6,3.3c-17,.2-29.6.5-31.9-3-.9-2,1.4-73.8,1.7-75,.3-1.2,12.6-6.1,23.4-6.4"/>
              <path class="cls-5" d="M377.4,296.9c-3.8,1.2-8,1.5-11.7,0-1.7-.6-6.8-2.6-6-5.2.7-2.4,3.8-2.9,5-4.8,2.2-3.6-6.8-4.9-8.8-5.5-1.4-.4-3.1-.8-4.3-1.7-2-1.6-3.7-3.5-5-5.6-3-4.7-4.5-9.9-5.4-15.4-.4-2.4-.8-5-1.1-7.5-.7,21.5-1.4,50.4-.8,51.6,2.3,3.5,14.9,3.2,31.9,3,17-.2,20.6-2.1,20.6-3.3s-.3-6.7-.8-15.3c-3.5,4.6-8.4,8.2-13.5,9.8Z"/>
              <path class="cls-5" d="M424.8,211.5c1.7,2.5,2.3,5.4,2.6,8.4.8-7.5,1.3-13.8,1.3-13.8-4.5.8-9.9-.8-10.8-1,1.3,3,5,3.8,6.9,6.5Z"/>
              <path class="cls-5" d="M424.1,241.8c-4.5,5.2-12.1,5.4-18.5,4.6-1.6-.2-3.3-.5-5.1-.8,2.2,1,4.6,2.2,7.3,3.3,12.3,5.3,14.9,0,16.4-4.4.2-.7.5-2.1.8-4-.3.4-.6.8-.9,1.2Z"/>
              <path class="cls-9" d="M365.6,235.7c9.4,0,11-8.7,11.2-13.8-4.6-.4-9.6-.7-12.5-.6-4.3.1-8.8,1-12.7,2,1,4.3,4.3,12.4,14.1,12.4"/>
              <path class="cls-7" d="M370.3,221.5v-9.6h-11.7v9.9c-1.3.2-2.6.4-3.8.7,1.6,4.1,5,10.2,11.1,9.6,6.4-.6,7.6-6.9,7.8-10.5-1.1,0-2.3-.2-3.4-.2"/>
              <path class="cls-15" d="M372.1,221.6c-.6,0-1.2,0-1.8-.1v-9.6h-11.7v8c3.3,2.7,8.7,2.9,13.5,1.7Z"/>
            </g>
          </g>
          <g>
            <path class="cls-19" d="M373.9,189.6c9.7-2.2,15.8-10,11.8-23.1-4-13.1-19.9-17.1-29.6-15.8-9.7,1.3-17.9,5.2-16.4,12.5,0,0-5.9,2-5.6,11.6.3,9.6,3.2,27.2,14.3,26.1,6.5-.6,25.4-11.3,25.4-11.3"/>
            <path class="cls-7" d="M382.2,176.9c-23.5,3.7-34.9-7.2-34.9-7.2,0,5.2-1.6,8.7-3.3,10.8l1.4,18c.6,12.2,10.1,19.7,22.3,19.1,9.7-.5,16.2-7.9,15.7-17.5l-1.2-23.1Z"/>
            <path class="cls-15" d="M346.8,180.6c.9-.7,1.6-1.9,2.6-2.4,2.1-1.2,6.2.3,8.3.7,7.8,1.6,16.8,2.3,24.5-.2v-1.8c-23.6,3.7-35-7.2-35-7.2,0,5.2-1.6,8.7-3.3,10.8l.2,2.4c1-.7,1.9-1.6,2.7-2.3Z"/>
            <path class="cls-7" d="M345.4,188.7s-1.7-3.3-5.6-3.2c-3.9.2-3.3,10.3-.3,13.2,3,2.9,6.4,3,7,2.1"/>
            <path class="cls-12" d="M352.1,181.2c0,0,.4-.7,1.3-1.4.4-.3.9-.7,1.6-.9.3-.1.7-.2,1-.1.4,0,.7.2.9.4.5.4.7.8.8,1.1.1.3.2.5.2.7,0,.3,0,.4-.1.4-.1,0-.2,0-.4-.2,0-.1-.2-.3-.3-.5-.2-.2-.4-.6-.7-.8-.6-.6-1.9,0-2.7.5-.9.6-1.5,1.1-1.6,1"/>
            <path class="cls-12" d="M377.4,181.7c0,0-.7-.6-1.5-1.3-.4-.3-1-.7-1.4-.8-.4,0-1,.3-1.4.6-.9.6-1.3,1-1.5,1.2-.3.2-.3.1-.4,0,0,0-.1-.2,0-.4.2-.3.5-.7,1.5-1.4.2-.2.5-.3.8-.5.3-.1.7-.3,1.1-.2.8.2,1.3.7,1.7,1.1.8.9,1.3,1.6,1.2,1.7"/>
            <path class="cls-12" d="M366.5,199.5c0,0,.3-.4.9-1,.3-.3.6-.6.9-1,.2-.2-.1-.8-.4-1.3-1.1-2.2-2.1-4-1.9-4.1.1,0,1.4,1.5,2.5,3.8.1.3.3.6.4.9,0,.2,0,.3.1.5,0,.3-.1.4-.2.6-.4.5-.8.8-1.1,1.1-.7.5-1.2.7-1.2.6"/>
            <path class="cls-16" d="M371.7,203.5h-13c-.5,0-.9.4-.9.9,0,4.1,3.3,6.7,7.4,6.7h0c4.1,0,7.3-2.7,7.3-6.7s-.4-.9-.9-.9"/>
            <path class="cls-14" d="M365.2,211.1h0c2.6,0,4.8-1.1,6.1-2.9-1.6-1.3-3.8-2-6.2-2h0c-2.4,0-4.6.7-6.1,2,1.3,1.8,3.6,2.9,6.2,2.9"/>
            <path class="cls-12" d="M340.2,192.2s-.4-.5-.3-1.3c0-.2,0-.5.2-.7.1-.2.5-.5.8-.5.7,0,1.3.4,1.8.9,1,1,1.7,2.4,2.1,3.9.1.7.3,1.6-.2,2.4-.3.4-.7.6-1.2.7-.5,0-.9-.2-1.1-.4-.6-.5-.9-1-1.1-1.5-.2-.5-.2-1.1,0-1.6.5-.8,1.3-.9,1.7-.7.4.2.5.4.6.5,0,.1,0,.2,0,.2,0,.1-.2,0-.7-.1-.1,0-.3,0-.5,0-.2,0-.4.3-.5.5-.3.4,0,1.5.9,2.1.4.3,1,.4,1.3,0,.3-.4.3-1.2.1-1.9-.3-1.4-.9-2.7-1.8-3.7-.4-.5-.9-.8-1.4-.8-.4,0-.7.4-.8.8-.2.8,0,1.3,0,1.3"/>
            <path class="cls-12" d="M354.2,187.4c-.2-1.5.3-2.7,1.1-2.8.8,0,1.5,1,1.7,2.5.2,1.5-.3,2.7-1.1,2.8-.8,0-1.5-1-1.7-2.5"/>
            <path class="cls-12" d="M373.4,187.8c-.2-1.5.3-2.7,1.1-2.8.8,0,1.5,1,1.7,2.5.2,1.5-.3,2.7-1.1,2.8-.8,0-1.5-1-1.7-2.5"/>
          </g>
          <g>
            <path class="cls-15" d="M423.6,203s5.7,1.7,7.9-3.6c2.2-5.2,1.5-14,1.5-14h-18.3s2.8,11.5,4.6,13.7c1.7,2.2,4.4,3.9,4.4,3.9"/>
            <path class="cls-14" d="M388.9,185l28.9-4.2,1,12.1-28.7,1.3s-5.4-3.6-1.2-9.2"/>
            <path class="cls-6" d="M389.8,190c-.4-2.1.4-4,1.2-5.3l-2.1.3c-4.2,5.6,1.2,9.2,1.2,9.2h2.8c-1.4-1.1-2.7-2.4-3.1-4.2"/>
            <path class="cls-6" d="M417.8,180.8l-5.2.8c-1.2,2.6-2,6.5,0,11.6l6.2-.3-1-12.1Z"/>
            <path class="cls-14" d="M416.7,179.4l34.9-7.5,1.9,22-35.8.8s-5-7.1-1.1-15.3"/>
            <path class="cls-6" d="M461.5,182.4c-.4-6.1-4.5-10.8-9.1-10.5-.3,0-.5,0-.8.1h0s-5.5,1.2-5.5,1.2c-2.4,2.2-3.9,6.1-3.6,10.5.3,4.8,2.6,8.8,5.6,10.4h5.5c0-.1,0-.1,0-.1,0,0,.2,0,.2,0,4.7-.3,8.2-5.5,7.8-11.6"/>
            <path class="cls-9" d="M447.6,183.2c-.3-4.5,2-8.3,5-8.5,3-.2,5.7,3.3,6,7.8.3,4.5-2,8.3-5,8.5-3,.2-5.7-3.3-6-7.8"/>
            <path class="cls-7" d="M418.2,194.1s1.8-2.6,2.1-4.2-1-3.9-3.9-1.3c-2.9,2.7-4.5,5.7-4.2,7.4.3,1.7,2.3,5.4,11.3,6.9,0,0,2.3-6.4-5.4-8.9"/>
            <path class="cls-7" d="M418.3,179.8c.6-1.9-1.1-3.6-2.8-3-1.8.7-2.8,3.5-2.6,5.1.2,1.7,3.8,2.9,5.5-2.2"/>
            <path class="cls-7" d="M417.3,179.2c.3-2.1,1.6-4,2.9-4s2.8.7,2.8,2.1c0,1.4-1.6,4.9-3.6,4.6-1.9-.2-2.3-1.6-2.2-2.7"/>
            <path class="cls-7" d="M422,177.5c.4-1.7,1.6-3.4,3.3-2.8,1.7.6,2.1,2.2,2.1,3,0,.7-2.6,3.8-4.1,2.9-1.5-.8-1.6-1.7-1.3-3.1"/>
            <path class="cls-7" d="M427.3,175.6c1.4-2.7,3.9-1.3,4.7-.6.9.8,0,3.3-1.5,4.8-1.4,1.5-4.2.5-4.1-1.1,0-1,.5-2.5.8-3.2"/>
          </g>
        </g>
        <g>
          <g>
            <path class="cls-16" d="M105.7,426.8s2,.1,2.2,3,0,11-.2,11.5c-.3.5-8.3,3.5-21.3,3.7-13.1.2-14.2,0-13.7-4.5.5-4.4,4.8-4.8,11.7-8.2,6.9-3.4,11.6-5.1,11.6-5.1l9.6-.4Z"/>
            <path class="cls-9" d="M86.3,445c.2,0,.5,0,.7,0,2.7-7.3.8-11.1-1.7-13.1-.3.2-.6.3-.9.5-6.9,3.4-11.2,3.8-11.7,8.2s.6,4.7,13.7,4.5"/>
            <path class="cls-10" d="M107.9,438.1c-3.6,1.2-4.4,2.3-13.4,3.4-9.5,1.2-16,1.8-22,.3,0,3.2,2,3.5,13.8,3.3,13.1-.2,21-3.2,21.3-3.7.1-.2.2-1.5.3-3.2"/>
            <path class="cls-16" d="M143.1,425.2s-.6,1.9-.7,3c-.1,1.1,0,11.8.3,12.7s7.2,3,20.7,4.3c13.4,1.3,17.7,1.4,18-1.5.3-2.9-4.4-6.5-12.1-10.2-7.7-3.7-14-3.7-15.7-4.6-1.7-.9-10.4-3.7-10.4-3.7"/>
            <path class="cls-10" d="M157.7,441.7c-8.5-1.3-13-2.7-15.2-3.9,0,1.6.1,2.8.2,3,.3.9,7.2,3,20.7,4.3,13.4,1.3,17.7,1.4,18-1.5,0-.4,0-.8-.2-1.2-4.3.6-12,1.1-23.5-.7"/>
            <path class="cls-6" d="M150.3,286.1l8.4,143.9s-16.1,0-16.4-2.1l-11-118.5h-13.4l-10.2,118.5s-11,3.3-15.2.6l5.4-139.4,52.5-3Z"/>
            <path class="cls-2" d="M103.2,210.4s-8.7,1.2-12.7,11c-4,9.8-10.7,24.8-10.7,24.8l-16.5-28.4-11.4,4.9s8.8,19.9,15.2,31.6c6.4,11.7,10.9,14.3,19.1,9s16.7-29.9,16.7-29.9l.3-22.9Z"/>
            <path class="cls-5" d="M95.3,249.4c-2.4,2.1-4.5,4.5-7.1,6.4-5.1,3.8-11.1,4.1-15-1.4-1.9-2.7-3.4-5.7-5.1-8.5-1.9-3-3.8-6.1-5.1-9.5-1.2-3.1-2.4-7-1.1-10.2.5-1.3,1.8-2.2,2.6-3.3.4-.5.7-1,.9-1.5l-2.2-3.8-11.4,4.9s8.8,19.9,15.2,31.6c6.4,11.7,10.9,14.3,19.1,9,3.7-2.4,7.4-8.6,10.4-14.7-.4.3-.9.7-1.2,1Z"/>
            <path class="cls-2" d="M126.2,205.1s21.6,4.5,27.4,8.4-2.1,31.6-1.9,51.3.9,26.9.4,28.2-6.9,2.9-29.1,2.9-27.3-3.4-27.1-4.3,2-37.6,1.6-42.1-4.5-8.7-.4-18.6c2.5-5.6,3.8-9.6,3.8-9.6,0,0,1.5-3.5,2.3-11,0,0,18-5,23-5.3"/>
            <path class="cls-5" d="M153.6,213.5c-2.3-1.5-7-3.2-11.9-4.6,3.5,14.7,8.6,33.7-3.6,45.4-5.9,5.7-15.2,6.2-23,6.7-4.1.3-8.2.8-12.3.9-1.8,0-3.7,0-5.5-.1-.4,12.3-1.3,29.2-1.4,29.8-.2.9,4.9,4.3,27.1,4.3s28.7-1.6,29.1-2.9-.2-8.5-.4-28.2,7.7-47.4,1.9-51.3Z"/>
            <path class="cls-7" d="M58.3,224c4.3-1.3,5.3-3.2,6.2-6,.9-2.8-8.8-23.4-10.7-25.2s-5.2-.1-3.4,4.3c1.8,4.4-2.3,13.1-3.1,12.8-.8-.2-4.3-11.9-7.6-9.9-3.9,2.3,8.7,22.5,11.3,24,2.6,1.6,4.9.7,7.3,0"/>
            <path class="cls-3" d="M56.4,209.1c-.9,0-1.7.3-2.5.6-2.9,1.5-5.8,4-4.6,7.5.8,2.2,2.8,2.8,5,2.4,1.4-.2,3.7-.5,4.4-1.9,1.1-2,.8-8.7-2.3-8.6Z"/>
            <path class="cls-7" d="M55.6,206.4s-4.5-11.4-6.4-14c-1.9-2.6-6-.3-4.2,3.6,1.9,3.9,5.2,12.4,5.2,12.4"/>
            <path class="cls-7" d="M51.2,207.7s-4.3-11.6-6-13.2-4.5,0-3.9,2.3c.6,2.4,6,13.4,6,13.4"/>
            <path class="cls-7" d="M58.3,224s6.7-.8,6.8-8.8c.1-9.9,1.5-13.7-2.2-13.8-3.7,0-2.1,7.5-3.1,9-1,1.6-6.3,5.5-1.4,13.8"/>
            <path class="cls-9" d="M173.5,435.1c-1.4-.7-7-2.8-8.3-3.2-2,2.3-3.8,6.3-2.1,13.3.1,0,.2,0,.3,0,13.4,1.3,17.7,1.4,18-1.5s-.1-4.9-7.8-8.6"/>
          </g>
          <g>
            <path class="cls-2" d="M150.6,224v33.7c0,0-26.9-7.8-26.9-7.8l-5.5,11.6s20.3,10.3,34.1,13.2c13.8,2.9,12.8-9.3,11.4-25.5-1.3-16.2-1.6-34-14.5-37.8,0,0,1.3,2.5,1.3,12.5"/>
            <polygon class="cls-14" points="67.7 229.2 104.9 229.8 111.2 279.6 75.6 280.2 67.7 229.2"/>
            <path class="cls-7" d="M126.2,258c1.9-5.2-1.9-11-6.2-13.7-4.3-2.7-4.2-3.1-12.2-3.1s-7.7,2.4-7.2,4,3.9,1.8,4.5,4.6c.6,2.8,1.3,5.7-.1,6.3s-1.8,3.9,1.6,4.2c3.4.3,5.5,0,6.9.4,1.3.5,9.7,5.9,12.8-2.7"/>
            <path class="cls-3" d="M126.3,252.6c0,1.2-.1,2.5-.6,3.6-1.2,2.7-3.9,5-6.9,4.8-1.7-.1-3.1-1.3-4.5-2-2.4-1.1-3.8-.3-6.1.3-1.1.3-2.3.5-3.4.3.4.3,1,.5,1.7.6,3.4.3,5.5,0,6.9.4,1.3.5,9.7,5.9,12.8-2.7.6-1.8.6-3.6.2-5.4Z"/>
            <path class="cls-7" d="M111.5,246s-8.1-.2-10.1,0c-2,.3-4,4.5,1.3,5.3,5.3.8,9.1.6,9.1.6"/>
            <path class="cls-7" d="M112.4,251.3s-7.4-.2-9.6,0-2.8,4.5,2.1,4.7c4.9.2,7.7.2,7.7.2"/>
          </g>
          <g>
            <path class="cls-19" d="M102.2,163.7s-10.6-11.9,6-22.4,41.6-4.5,46.3,10.2c4.6,14.6,3.4,41.3-.4,46.7-3.9,5.4-7.2,5.8-21.9,5.8s-26.4,1.3-29.9-3.1-6-6.9,0-37.2"/>
            <path class="cls-9" d="M139.5,208.3c-6.8-1.9-13.3-3.2-13.3-3.2-2.5.1-8.4,1.5-13.5,2.8.2,6.7,4.6,12.5,10.7,13.6,6.7,1.2,14.1-5.7,16.1-13.2"/>
            <path class="cls-7" d="M131.8,206.4v-10.9l-12.8,2.1v8.8c-.9.2-1.8.4-2.7.6-.6,5,2.6,9.7,7.3,10.5,4.9.9,10.4-4.4,11.3-9.7,0-.2,0-.4,0-.6-1.2-.3-2.3-.6-3.3-.8"/>
            <path class="cls-15" d="M126,205.1c2-.5,4.1-1.1,5.7-2.4v-7.2l-12.8,2.1v8.1c2.2.6,4.9-.1,7-.7Z"/>
            <path class="cls-7" d="M115,147.4c-4.6,2.3-7.9,6.8-8.3,12.3l-1.8,24.2c-.7,9.1,6.2,16.9,15.2,17.6l2.3.2c12,.9,22.4-8.1,23.2-20.1l1.3-18.2c0-1.2,0-2.4-.2-3.6-20.3,0-28.6-7.4-31.9-12.4"/>
            <path class="cls-15" d="M108.1,156.7c.8-1,1.6-1.5,2.9-.9,2,1,3.8,2.3,5.9,3.2,9.4,4.2,20.1,6.7,30.3,4.7h0c0-1.4,0-2.6-.2-3.7-20.3,0-28.6-7.4-31.9-12.4-4.4,2.2-7.7,6.6-8.2,11.9.3-1,.7-1.9,1.3-2.6Z"/>
            <path class="cls-7" d="M144.8,183.6s1,2.7,4.8,1.2c3.7-1.5,6.7-10.2,3.1-14.6-2.5-3-6.7-1.1-7.2,1.7"/>
            <path class="cls-12" d="M151.8,173.2c0-.3-.2-.7-.6-.9-.4-.3-1.1-.4-1.7-.1-.6.3-1.2.8-1.6,1.5-.8,1.3-1.3,3-1.2,4.7,0,.4.2.9.4,1.3.2.4.7.7,1.1.9.4.1,1,.1,1.4-.1.4-.2.7-.6.9-.9.4-.7.5-1.5.3-2.1-.2-.7-.8-1.1-1.3-1.1-.9-.2-1.6.2-1.9.5-.1.2-.2.3-.3.4,0-1.2.5-2.3,1-3.3.3-.6.8-1.1,1.3-1.3.5-.3,1-.2,1.4,0,.4.2.6.5.6.7,0,.2.1.4.1.4,0,0,0-.1,0-.4M148,177.1c.3-.2.7-.4,1.4-.2.3,0,.6.2.7.7.1.4,0,1-.2,1.5-.3.5-.9.9-1.5.7-.6-.1-1-.8-1.1-1.5,0-.2,0-.4,0-.6.1,0,.2,0,.7-.5"/>
            <path class="cls-12" d="M123.6,182.5c0,0-.6-.1-1.3-.6-.4-.3-.8-.6-1.1-1.1,0-.1-.2-.3-.2-.6,0-.3,0-.4.1-.6.1-.3.2-.6.4-.9,1.1-2.4,2.2-4.2,2.4-4.1.2,0-.7,2-1.8,4.4-.1.3-.3.6-.4.9-.1.3-.1.3,0,.6.2.4.6.8.9,1.1.6.6,1,.9,1,1"/>
            <path class="cls-12" d="M112.5,169.7c.1-1.4,1-2.5,1.9-2.4.9,0,1.5,1.3,1.4,2.8-.1,1.4-1,2.5-1.9,2.4-.9,0-1.5-1.3-1.4-2.8"/>
            <path class="cls-12" d="M133.2,169.7c.1-1.4,1-2.5,1.9-2.4.9,0,1.5,1.3,1.4,2.8-.1,1.4-1,2.5-1.9,2.4-.9,0-1.5-1.3-1.4-2.8"/>
            <path class="cls-16" d="M130.7,186.9h-12.6c-.9,0-1.6.6-1.6,1.4,0,3.8,2,6.8,7.8,6.8h.1c6.1,0,7.8-3,7.8-6.8h0c0-.8-.7-1.4-1.6-1.4"/>
            <path class="cls-14" d="M124.5,189.5h-.1c-3.6,0-5.7,1.1-6.8,2.7,1.1,1.7,3.3,2.8,6.8,2.8h.1c3.6,0,5.7-1.1,6.8-2.7-1.1-1.7-3.3-2.8-6.8-2.8"/>
            <path class="cls-12" d="M114.7,160.2c-.3-.2-.6-.4-1-.5-.2,0-.4,0-.6-.1-.2,0-.5,0-.7,0-.8.3-1.5.8-2,1.2-1,.9-1.6,1.8-1.5,1.9.1,0,.9-.6,1.9-1.3.5-.4,1.2-.8,1.8-.9.5-.2,1.1.2,1.6.5,1,.7,1.5,1.2,1.8,1.3.3.2.4.1.5,0,.1,0,.2-.2,0-.5-.2-.3-.6-.9-1.8-1.7"/>
            <path class="cls-12" d="M132.8,160.2c.3-.2.7-.4,1.1-.5.2,0,.4,0,.7-.1.3,0,.5,0,.7,0,.9.3,1.5.8,2,1.2,1,.9,1.6,1.8,1.5,1.9-.1,0-.9-.6-2-1.3-.5-.4-1.2-.8-1.8-.9-.5-.2-1.2.2-1.7.5-1,.7-1.5,1.2-1.8,1.3-.3.2-.4.1-.5,0-.1,0-.2-.2,0-.5.2-.3.6-.9,1.8-1.7"/>
          </g>
        </g>
        <g>
          <g>
            <path class="cls-19" d="M234.1,428.2s.4,6.8.1,11.2.3,4.1-1.9,5-32.4,6.3-42.1,3.5c-9.7-2.8-2.9-8.6-.2-10.2s23.1-8.4,26.6-9.4,17.5-.1,17.5-.1"/>
            <path class="cls-8" d="M205.2,438.3c-.5-1.9-2.3-3.5-4.4-4.7-5.1,1.8-9.7,3.5-10.8,4.2-2.7,1.6-9.5,7.4.2,10.2,3.3,1,9.1,1,15.3.5.3-3.5.4-7.6-.3-10.1"/>
            <path class="cls-12" d="M211.8,444.8c-18,1.4-24.5.6-25.6-3.8-1.7,2.3-2.1,5.2,4,6.9,9.7,2.8,39.9-2.6,42.1-3.5,2.1-.8,1.6-.7,1.9-4.3-3.5,1.5-10.3,3.7-22.3,4.6"/>
            <path class="cls-19" d="M271.2,429.1s.9,12.9.9,15,8.8,4.7,24,7.5c15.1,2.8,19,1.5,20.3-1.1s1.1-6.8-5.6-10.6c-6.7-3.8-22.4-6.6-22.6-9.7s-16.9-1-16.9-1"/>
            <path class="cls-8" d="M296,451.6c15.1,2.8,19,1.5,20.3-1.1s1.1-6.8-5.6-10.6c-2-1.1-4.8-2.2-7.8-3.2-3.2,2.4-7,6.9-7.3,14.9.1,0,.3,0,.4,0"/>
            <path class="cls-12" d="M316.3,450.5c.3-.5.4-1.1.5-1.8-2.9,1.4-9.1,1.9-24.6-1.1-10.5-2.1-16.7-4.4-20.3-6.2,0,1.3.1,2.3.1,2.8,0,2.1,8.8,4.7,24,7.5,15.1,2.8,19,1.5,20.3-1.1"/>
            <path class="cls-6" d="M222.8,283.4l-7.4,145s9.6,5.5,19.5.6l12.1-128.7h13.8c0-.1,10.1,130.5,10.1,130.5,0,0,9.5,5.6,18.6.3l-4.3-148.1-62.4.4Z"/>
            <path class="cls-4" d="M232,283.3h-9.2c0,0-.5,10.8-.5,10.8,6.1-3.2,8.7-7.9,9.7-10.8"/>
            <path class="cls-4" d="M285.4,292.3l-.3-9.4h-9.1c1.6,3.1,4.7,8,9.4,9.4"/>
            <path class="cls-4" d="M250,279.3s-.1,12.4.3,13.8,6.3,1,6.3,1l.4-15.2-7.1.4Z"/>
          </g>
          <g>
            <path class="cls-2" d="M255.9,186.7c6.8-.1,17.7.2,25.9,2.1s11.4,12.3,15.4,31.2c4,18.9,5.1,22.5,5.1,22.5l13.3-27.5,12.3,6.6s-6.9,21.4-15.4,35.2-18.2,9.2-21.6-2.1c-3.4-11.3-8.4-31.1-8.4-31.1h-55.6s-16.1,21.7-22.7,26.1c-6.6,4.4-16.6,4.7-16.3-16.3.2-21,.4-31.8.4-31.8l15.6-1.9.4,23.8s18.5-28.3,24.3-32.4,14.4-4.2,27.3-4.4"/>
            <path class="cls-5" d="M225,225.8c-4.7,3.3-8.8,7.5-13.5,10.9-3.2,2.3-8.7,6-12.7,3.4-2.1-1.3-3.3-3.8-3.9-6.1-1.3-4.9-1.8-10.3-1.6-15.3.2-4.2.5-9.5,3.4-12.8,1.7-1.9,4.9-3.9,6.8-6.3l-15.3,1.9s-.2,10.7-.4,31.8c-.2,21,9.7,20.7,16.3,16.3,5.4-3.6,17.2-18.8,21.3-24.2-.2.1-.3.2-.5.3Z"/>
            <path class="cls-5" d="M315.7,215.1l-1.3,2.6c1.5,3.8,5.2,7.5,6,11,1.1,4.5-1.6,9.6-3.9,13.2-2.1,3.4-4.7,7.1-8.3,9.1-4.2,2.4-8.2.8-11.1-2.8-3.6-4.4-5.7-9.8-8.1-14.9-.8-1.8-3.3-8.4-6.2-8.5,1.2,4.5,5.2,20.3,8.1,29.9,3.4,11.3,13.1,15.9,21.6,2.1s15.4-35.2,15.4-35.2l-12.3-6.6Z"/>
            <path class="cls-9" d="M242.5,192.5c.9,2.2,2.3,4,4.5,5,3.3,1.5,7.2,1.6,10.6.8,5.5-1.4,12.1-5.3,11.2-11.2-4.7-.3-9.3-.4-12.9-.3-5,0-9.4.2-13.2.4-.5,1.8-.9,3.6-.2,5.3Z"/>
            <path class="cls-7" d="M255.4,195.9c5.3,0,9.7-3.5,9.7-7.7s0-.9-.2-1.3c-3.3-.1-6.5-.2-9-.1-3.3,0-6.3.1-9.1.2-.6,1.3-.9,2.5-.9,3.7,0,4.3,4.1,5.3,9.5,5.3"/>
            <path class="cls-7" d="M249.1,188.3v-9.7h13.2v9.6s-5.4,3.2-13.2.1"/>
            <path class="cls-15" d="M251.4,188.2c1.7.4,3.5.2,5.1-.3,1.9-.5,4.3-1.4,5.8-2.9v-6.5h-13.2v8.5c.7.5,1.5,1,2.3,1.2Z"/>
            <polygon class="cls-2" points="226.7 204.9 221.2 287.3 285.8 287.3 284.5 201 226.7 204.9"/>
            <path class="cls-5" d="M282.7,232.3c-1.3,7.4-4.1,14.6-11,18.5-3.5,2-7.4,3.3-11.4,4.2-1.6.3-9.3,1.3-9.1,3.7.3,3.3,6.3,2.7,8.4,2.8,1.7,0,5.1,0,6.1,1.8,1.1,2.2-2.8,4.4-4.2,5-4.5,1.7-9.6,2.3-14.3,3.3-6,1.3-12.6,2.2-18.6.6-2.2-.6-4.2-1.4-6.2-2.4l-1.2,17.6h64.6l-1.1-73.5c-.4,6.2-.9,12.4-2,18.5Z"/>
          </g>
          <g>
            <path class="cls-4" d="M290.8,118.9s3.9-13.9-9.3-20.2c-13.1-6.3-27.8-1-39.9-10.7,0,0,.6,7.5,3.1,10.3,0,0-12.1-.4-17.8-7,0,0-3.9,14,1.3,24,0,0-5.2.9-7.3-.7,0,0-.1,16.4,22.4,20,22.5,3.6,32.4,30.6,38.4,23,6-7.6,15.7-30.2,15.7-31.5s-2.5-5.7-6.7-7.2"/>
            <path class="cls-7" d="M279,142.8c.4-5,1.4-9.5,2.9-13.1.2-4.2-2.2-8-5.9-9.8-4.4,2.7-11.1,4.5-18.5,4.5s-15-2-19.4-5c-1.6,1.7-2.7,3.9-3,6.4l-4.3,34.6c-1.4,11.2,6.7,20.6,17.9,21.9,14.5,1.8,27.7-7.7,29.5-22.2l1-7.9c-.3-2.9-.4-6-.1-9.3"/>
            <path class="cls-15" d="M276,119.8c-4.4,2.7-11.1,4.5-18.5,4.5s-15-2-19.4-5c-1.3,1.3-2.2,3-2.7,4.8,1.8,2.4,7,2.9,9.5,3.2,6.2.9,12.5,1.6,18.7.3,3.6-.7,8.7-2.7,12.3-1,3,1.4,4,5,4.4,8.3.5-1.9,1-3.7,1.6-5.2.2-4.2-2.2-8-5.9-9.8Z"/>
            <path class="cls-7" d="M277.9,150.1s2.2-8.2,8.4-7.6c6.6.6,6.1,14.3-.1,17.9s-8.8-1.5-8.8-1.5"/>
            <path class="cls-12" d="M287.5,148.8c-.1-.2-.3-.5-.7-.8-.4-.3-1-.5-1.7-.3-.7.1-1.3.5-1.8,1.1-.5.5-1,1.2-1.3,1.9-.3.7-.6,1.5-.7,2.4,0,.8-.1,1.7.2,2.5.1.4.5.9,1,1,.5.2,1,0,1.4,0,.8-.3,1.3-.8,1.6-1.3.2-.3.3-.5.3-.8,0-.3,0-.6,0-.8,0-.5-.3-.9-.6-1.1-.3-.3-.6-.3-.8-.4-.5,0-.7,0-.8.2-.1,0-.1.2,0,.2,0,.2.2.2.8.3.3.1.6.3.7,1,0,.3,0,.6-.3,1-.2.4-.6.7-1.1.9-.5.2-.9.1-1.1-.4-.2-.5-.2-1.3-.2-2,0-.7.3-1.5.5-2.1.3-.7.6-1.3,1.1-1.8.4-.5.9-.9,1.4-1,.5-.1,1,0,1.3.1.3.2.6.4.8.6.2.2.3.3.3.2,0,0,0-.1-.1-.4"/>
            <path class="cls-12" d="M244.8,131.6c-.3-.2-.6-.4-1-.5-.2,0-.4,0-.6-.1-.2,0-.5,0-.7,0-.8.3-1.5.8-2,1.2-1,.9-1.6,1.8-1.5,1.9.1,0,.9-.6,1.9-1.3.5-.4,1.2-.8,1.8-.9.5-.2,1.1.2,1.6.5,1,.7,1.5,1.2,1.8,1.3.3.2.4.1.5,0,.1,0,.2-.2,0-.5-.2-.3-.6-.9-1.8-1.7"/>
            <path class="cls-12" d="M269.2,133.1c-.5-.5-1.3-.8-2.1-.7-.8,0-1.4.4-1.9.8-1,.7-1.3,1.3-1.5,1.6-.1.3,0,.4,0,.5.1,0,.2.1.5,0,.3-.2.7-.6,1.5-1.2.4-.3.9-.6,1.5-.7.5,0,1.1,0,1.5.3.8.6,1.2,1.5,1.3,1.4,0,0,0-.3,0-.6-.1-.4-.3-.9-.8-1.4"/>
            <path class="cls-12" d="M251.4,151.2c-.6.4-1.4,1.1-2.3,1.7-.1,0-.2.1-.3.2-.2,0-.5.2-.6.4-.1.2,0,.5,0,.7,0,.2.2.3.3.4.4.4.7.7,1.1.9.6.4,1.1.7,1.1.6,0,0-.2-.5-.7-1-.2-.3-.6-.6-.8-1,0,0-.1-.2-.1-.2,0,0,0,0,0,0,0,0,0,0,0,0,.2,0,.3-.2.5-.2,1-.7,1.7-1.4,2.3-2,.5-.6.8-1,.7-1.1,0,0-.5.2-1.1.6"/>
            <path class="cls-16" d="M263,162.1l-17.9.5c-.6,0-1.1.5-1.2,1.1v1.1c-.5,4.2,2.8,7.8,7,7.7h3.4c5.1-.2,9.3-4,9.9-9.1,0-.7-.5-1.4-1.2-1.3"/>
            <path class="cls-14" d="M262,168.6c-1.8-2.1-4.8-3.4-8.1-3.3-3.8.1-7,2-8.5,4.8,1.3,1.6,3.3,2.5,5.5,2.5h3.4c3.1-.2,5.9-1.6,7.8-3.9"/>
            <path class="cls-12" d="M240.4,143.7c.4-1.9,1.4-3.4,2.2-3.2.8.2,1.2,1.9.8,3.8-.4,1.9-1.4,3.4-2.2,3.2-.8-.2-1.2-1.9-.8-3.8"/>
            <path class="cls-12" d="M264,144.4c.4-1.9,1.4-3.4,2.2-3.2.8.2,1.2,1.9.8,3.8-.4,1.9-1.4,3.4-2.2,3.2-.8-.2-1.2-1.9-.8-3.8"/>
          </g>
          <g>
            <path class="cls-15" d="M320.1,222.7s5.7,3.8,12.1.5c6.3-3.3,6.8-8.4,6.8-9.6s-8.5-8.7-14.8-8.7c-6.3,0-9.7.4-9.9,5.7-.1,5.2,1.9,9.3,5.7,12.2"/>
            <g>
              <path class="cls-5" d="M294.6,108.9s8.1-10.4,31.3-10.4,32,10.4,79-6.8l-11.6,34.9,25.7,25.7s-31.6,11.6-63.1,8.1-42.3,8.1-42.3,8.1l-19-59.6Z"/>
              <path class="cls-6" d="M365.1,330.4l-70.3-229.5c-.3-.9-1.3-1.5-2.2-1.2l-.9.3c-.9.3-1.5,1.3-1.2,2.2l70.3,229.5c.3.9,1.3,1.5,2.2,1.2l.9-.3c.9-.3,1.5-1.3,1.2-2.2"/>
            </g>
            <path class="cls-7" d="M330.5,202.5c-4.4,2.1-6.5,2.4-7.6,0s.7-4.7,4.3-6.2,7.4-.8,7.5,2.5c.1,3.4-4.3,3.7-4.3,3.7"/>
            <path class="cls-7" d="M329.6,201.2c4-1.5,6.6,0,7.3,2.3.7,2.3-1,3-3.6,4.5-2.5,1.5-6.8,2.2-7.8-.7-1-2.8-.5-4.4,4-6.1"/>
            <path class="cls-7" d="M331.1,206.2c3.9-1.7,6.6.2,6.9,2.6.2,2.4-1.6,2.7-4,3.5-2.4.8-5.7.5-6.5-1.2s-.1-3.3,3.6-4.9"/>
            <path class="cls-7" d="M320.1,222.7c-6.3-4.3-7.9-10.4-6.6-16.6s5.1-6.1,7.8-5.4c2.6.7,6.7,3.4,5.4,6.6-1.3,3.3-7.3-.3-7.7-1,0,0,9.6,9,1,16.3"/>
            <path class="cls-7" d="M334.2,215.2s-2.5,1.2-4.6.9c-2.1-.3-2.7-3.3.6-4.6s7.8-1.9,9.3-.1c1.4,1.8-.7,9-7.2,11.9,0,0,8.6-7.8,2-8"/>
          </g>
          <g>
            <path class="cls-15" d="M202.7,203.9s-6.1,3.4-14.4.2-4.6-12.1-1.7-13.4c2.9-1.3,4.6-11,7.9-9.6,3.4,1.4,13.7,3.7,14.6,7.2s-6.4,15.4-6.4,15.4"/>
            <path class="cls-6" d="M196.7,167.6s.1,20.7-9.7,39.3c0,0,4.7,3.6,7.6,4.9.9.6,11.5-12.4,13-44.4l-10.9.2Z"/>
            <path class="cls-4" d="M198.8,176.6c2.7,0,5.4-.3,8-.3.3-2.8.5-5.8.7-9l-10.9.2s0,3.6-.7,9c1,0,1.9,0,2.8,0Z"/>
            <path class="cls-14" d="M227.6,147.9s-43-11.4-71.4-25.7l-9.2,54s40.5-6,75.2-6.7c0,0,10.7-5.8,5.4-21.5"/>
            <path class="cls-6" d="M193.9,170.9c5.8-.5,11.8-.9,17.7-1.1,7-10.4,6.4-19.3,4.5-25.1-4.5-1.3-10.1-3.1-16.2-5.1,5.6,10.4-1.3,24-5.9,31.4"/>
            <path class="cls-6" d="M156.1,122.4l-9.1,53.7s3.3-.5,8.8-1.2c3.8-4.4,7.2-12.7,9.3-22.6,2.3-10.7,2-20.5-.3-26.1-2.9-1.3-5.7-2.6-8.4-4,0,0-.2,0-.3.2"/>
            <path class="cls-1" d="M139,146.7c3.2-14.9,10.9-25.9,17.3-24.5,6.3,1.4,8.9,14.5,5.7,29.5-3.2,14.9-9.9,25.8-16.3,24.5-6.3-1.4-9.9-14.5-6.7-29.4"/>
            <path class="cls-16" d="M150,136.8c-2.5,6.6-3.5,14-3.1,21,.4,5.8,1.7,11.5,4,16.7,4.5-3.5,8.6-12.2,10.9-22.9,2.6-12.3,1.4-23.4-2.7-27.7-4.6,2.2-7.6,8.5-9.2,12.9Z"/>
            <path class="cls-18" d="M148.8,157.2l10.9,2.4c.8-2.5,1.6-5.2,2.2-8,.9-4,1.3-7.9,1.4-11.4l-10.9-.3-3.5,17.4Z"/>
            <path class="cls-6" d="M146.6,147.6c1-4.8,3.7-8.2,5.9-7.7s3.2,4,2.1,8.8c-1,4.8-3.5,9-5.8,8.5-2.2-.5-3.3-4.8-2.3-9.7"/>
            <g>
              <path class="cls-9" d="M179.1,136.8l-8.6-2.3c-.4-.1-.9.2-1,.6-.1.5,0,.9.5,1.1,0,0,0,0,0,0l8.6,2.3c.4.1.9-.2,1-.6.1-.5-.1-.9-.6-1.1"/>
              <path class="cls-9" d="M188,139l-5.2-1.3c-.4-.1-.9.2-1,.7-.1.5.1.9.5,1,0,0,0,0,0,0l5.2,1.3c.4.1.9-.2,1-.7.1-.5-.1-1-.6-1.1"/>
            </g>
            <path class="cls-7" d="M206.8,189.8s-5.5-2.2-6.7-5.2c-1.2-3.1,1.7-4.5,6-1.9,5.1,3.1,7.6,7.1,4,12.8-3.6,5.7-7.5,8.5-7.5,8.5,0,0-1.4-9.9,4.1-14.2"/>
            <path class="cls-7" d="M192.8,173.9c-4.1-.4-6.3,1.6-6.4,4.4-.1,2.8,3.6,3,6.6,3s6.2-.7,6.3-3.8c0-3.1-6.4-3.6-6.4-3.6"/>
            <path class="cls-7" d="M191.3,179.4c-3.7,0-6,1.1-6,4.3s5.3,2.8,7.5,2.8,4.3-.5,4.6-3.2-3-4-6-4"/>
            <path class="cls-7" d="M189.8,185.4c-3.4-.2-6.3,1.3-6.3,4.6s9.5,2.9,11,1.7c1.6-1.2,5.1-5.7-4.8-6.3"/>
            <path class="cls-7" d="M186.1,197.1s5.7,1,8.1-.1,2.8-4.4-1.8-5.6c-4.6-1.2-9.9-.1-10,5.3,0,5.4,5.9,7.5,5.9,7.5,0,0-6.3-5.8-2.2-7.1"/>
          </g>
        </g>
      </g>
      <g>
        <path class="cls-9" d="M319.1,127.7c1.3-.2,3.4,0,3.6.8,0,.3-.1.9-.4,1.3h0c-1-1-2.2-1.4-3.3-1.2-1.6.3-2.9,2-2.4,4.8.4,2.2,2,4.2,4.5,3.7,1.1-.2,2.3-.8,3.1-1.8h0c0,1.4-1.4,2.8-3.3,3.2-3.5.6-5.5-1.5-6-4.1-.5-2.9.9-6.1,4.3-6.7Z"/>
        <path class="cls-9" d="M325.8,135.6h0s1,.9,2.5.6c1-.2,1.2-.7,1.1-1.3-.3-1.5-4.1-.6-4.5-3.1-.3-1.4.9-2.4,2.3-2.7.6-.1,2.3-.2,2.4.4,0,.3-.1.8-.3,1.2h0s-1-1.1-2.1-.9c-.7.1-1.1.7-.9,1.3.3,1.5,4,.4,4.5,3.1.3,1.5-1,2.5-2.4,2.8-1,.2-2.6,0-2.7-.6,0-.2,0-.6.1-.9Z"/>
        <path class="cls-9" d="M335.4,130.9h0c-.2-1.4-.6-2-1.8-1.8-.7.1-1.4.7-1.9,1.3h0c0-1,1.1-2.1,2.4-2.3,2.1-.4,2.6.8,2.8,2.1.1.8.3,1.8.4,2.6v.2c.1.6.4,1.6,1.1,1.5.3,0,.5-.3.5-.3h0s-.2,1-1.5,1.2c-.6.1-1.3,0-1.4-.8h0c-.2.7-.9,1.3-1.8,1.5-1.2.2-2.1-.5-2.3-1.6-.4-2.1,1.9-3.2,3.5-3.5ZM334.7,134.8c.5,0,1.2-.7,1.1-1.3-.1-.6-.2-1.4-.3-2.1-.6.2-2.3.8-2,2.4.2.9.7,1.1,1.2,1Z"/>
        <path class="cls-9" d="M339.4,129.4c-.2-1.3-.3-1.3-1-1.4v-.6c.5-.1,1.7-1.6,1.8-2.1h.4c0,0,0,1.7,0,1.7l1.2-.2c.6-.1.8-.3.8-.3,0,0,0,.3,0,.4.1.6-.2.8-.7.9-.2,0-1.2.2-1.2.2,0,0,.3,1.7.5,2.9.3,1.5.6,2.7,1.8,2.5.7-.1,1.4-1,1.4-1h0s-.2,1.8-2,2.2c-1.7.3-2.4-.8-2.8-2.4-.2-1-.3-2.1-.4-2.6Z"/>
        <path class="cls-9" d="M345,127.7c-.3-1.4-.5-2.7-.8-3.6-.3-1.3-.6-1.6-.6-1.6h0c1-.2,1.9-.2,2.1.7.3,1.5.5,3,.8,4.6.2,1.3.5,2.6.8,3.9.1.5.3.9.8.8.3,0,.5-.3.5-.3h0s-.2,1-1.5,1.2c-.6.1-1.4,0-1.6-1-.2-1.2-.5-3-.8-4.7Z"/>
        <path class="cls-9" d="M352.8,127.6h0c-.2-1.4-.6-2-1.8-1.8-.7.1-1.4.7-1.9,1.3h0c0-1,1.1-2.1,2.4-2.3,2.1-.4,2.6.8,2.9,2.1.1.8.3,1.8.4,2.6v.2c.1.6.4,1.6,1.1,1.5.3,0,.5-.3.5-.3h0s-.2,1-1.5,1.2c-.6.1-1.3,0-1.4-.8h0c-.2.7-.9,1.3-1.8,1.5-1.2.2-2.1-.5-2.3-1.6-.4-2.1,1.9-3.2,3.5-3.5ZM352.1,131.6c.5,0,1.2-.7,1.1-1.3-.1-.6-.2-1.4-.3-2.1-.6.2-2.3.8-2,2.4.2.9.7,1.1,1.2,1Z"/>
        <path class="cls-9" d="M357,127c-.3-1.9-.7-3.8-1-5.1-.3-1.3-.6-1.6-.6-1.6h0c1-.2,1.9-.2,2.1.7.3,1.5.5,3,.8,4.6l.2,1.2h0s.2-.2.2-.2c1.6-2.3,1.9-2.7,1.9-3.3,0,0,.4-.2.8-.3.5,0,.7,0,.8.2.1.5-1.3,1.8-2.4,3.2h0c.9.9,3.2,3,4.6,3.7h0c0,0-.3.3-1.1.4-2.1.4-4.1-3.1-4.5-3.1h-.1c.2,1.1.4,1.9.6,2.9.1.8-.2,1.1-.7,1.2-.3,0-.7,0-1.1,0,.2-.2-.2-3-.4-4.4Z"/>
        <path class="cls-9" d="M367.4,121.7c2.5-.5,4.1,1,4.4,2.8.4,2.2-.6,4.5-3.1,5-2.5.5-4.1-1.1-4.4-3-.4-2.1.6-4.3,3.1-4.8ZM368.8,128.9c1.3-.2,1.6-2,1.3-3.7-.3-1.5-1.3-3-2.7-2.7-1.3.2-1.6,1.9-1.3,3.5.3,1.7,1.3,3.2,2.7,2.9Z"/>
        <path class="cls-9" d="M373.6,128.2c0-.2,0-.4,0-.6.5-1.1,2.1-5,2.5-6.3h0c-.8.2-2.1.5-3,.7-.6.1-.7-.4-.9-1,0,0,.8,0,3.1-.4l2.7-.5v.2c0,.2,0,.5,0,.8-1,2.3-2,4.8-2.5,6.2h0c.6-.3,1.9-.5,2.9-.7,1-.2,1.1,0,1.4.9,0,0-.9,0-3.4.5l-2.8.5s0-.1,0-.3Z"/>
        <path class="cls-9" d="M380.6,126.9c0-.2,0-.4,0-.6.5-1.1,2.1-5,2.5-6.3h0c-.8.2-2.1.5-3,.7-.6.1-.7-.4-.9-1,0,0,.8,0,3.1-.4l2.7-.5v.2c0,.2,0,.5,0,.8-1,2.3-2,4.8-2.5,6.2h0c.6-.3,1.9-.5,2.9-.7,1-.2,1.1,0,1.4.9,0,0-.9,0-3.4.5l-2.8.5s0-.1,0-.3Z"/>
      </g>
    </g>
  </g>
</svg>