<?xml version="1.0" encoding="UTF-8"?>
<svg id="Layer_1" xmlns="http://www.w3.org/2000/svg" version="1.1" viewBox="0 0 300 300">
  <!-- Generator: Adobe Illustrator 29.1.0, SVG Export Plug-In . SVG Version: 2.1.0 Build 142)  -->
  <defs>
    <style>
      .st0 {
        fill: #f498aa;
      }

      .st1 {
        fill: #8da0d2;
      }

      .st2 {
        fill: #d19ac2;
      }

      .st3 {
        fill: #5f883c;
      }

      .st4 {
        fill: #fee6c1;
      }

      .st5 {
        fill: #eda123;
      }

      .st6 {
        fill: #ee9960;
      }

      .st7 {
        fill: #ed5977;
      }

      .st8 {
        fill: #fcc4a3;
      }

      .st9 {
        fill: #9db387;
      }

      .st10 {
        fill: #eaea81;
      }

      .st11 {
        fill: #ada9d4;
      }
      path {
        transition-duration: .3s;
      }
      path:hover {
        fill: #eaea81;
        transform: scale(1.02);
        transform-origin: center;
        transform: rotate(3deg);
      }
    </style>
  </defs>

  <g>
  <path class="st9" d="M47.3,263.3c-.4.8-.8,1.7-.9,2.7-1,6.6,2.6,17.5,10.4,18,3.3.2,7.1-.5,10.4-1,5-.7,8.6-2.8,10.6-7.5,1.7-3.8,3.1-8.6,1.9-12.7-.7-2.2-2.3-4.2-4.5-4.9-1.8-.6-3.8-.2-5.7,0-6.5.7-18.2-1.5-22.2,5.4"/>
  <path class="st6" d="M84.3,246c-.4.8-.8,1.7-.9,2.7-1,6.6,2.6,17.5,10.4,18,3.3.2,7.1-.5,10.4-1,5-.7,8.6-2.8,10.6-7.5,1.7-3.8,3.1-8.6,1.9-12.7-.7-2.2-2.3-4.2-4.5-4.9-1.8-.6-3.8-.2-5.7,0-6.5.7-18.2-1.5-22.2,5.4"/>
  <path class="st1" d="M125.5,233c-.4.8-.8,1.7-.9,2.7-1,6.6,2.6,17.5,10.4,18,3.3.2,7.1-.5,10.4-1,5-.7,8.6-2.8,10.6-7.5,1.7-3.8,3.1-8.6,1.9-12.7-.7-2.2-2.3-4.2-4.5-4.9-1.8-.6-3.8-.2-5.7,0-6.5.7-18.2-1.5-22.2,5.4"/>
  <path class="st10" d="M169,212c-.4.7-.7,1.5-.8,2.4-.9,5.8,2.3,15.4,9.2,15.9,2.9.2,6.2-.4,9.1-.8,4.4-.6,7.5-2.4,9.3-6.6,1.4-3.3,2.7-7.5,1.6-11.2-.6-2-2-3.8-3.9-4.4-1.6-.5-3.3-.2-5,0-5.7.6-16-1.4-19.5,4.7"/>
  <path class="st11" d="M216.6,155.9c-.4.6-.6,1.3-.7,2.1-.8,5.3,2.1,13.9,8.3,14.4,2.7.2,5.6-.4,8.3-.7,3.9-.6,6.8-2.2,8.5-6,1.3-3,2.4-6.8,1.5-10.1-.5-1.8-1.8-3.4-3.6-3.9-1.5-.5-3-.2-4.5,0-5.2.6-14.5-1.2-17.7,4.3"/>
  <path class="st7" d="M228,114.6c-.3.6-.6,1.3-.7,2.1-.8,5.2,2.1,13.7,8.2,14.2,2.6.2,5.5-.3,8.1-.7,3.9-.6,6.7-2.1,8.2-5.9,1.3-3,2.3-6.7,1.4-9.9-.5-1.7-1.8-3.3-3.5-3.9-1.4-.5-3-.2-4.4,0-5.1.5-14.2-1.3-17.3,4.1"/>
  <path class="st3" d="M203.9,74.7c-.3.6-.6,1.2-.7,2-.7,5,2,13.1,7.9,13.6,2.5.2,5.3-.3,7.8-.7,3.7-.5,6.4-2,7.9-5.6,1.2-2.8,2.2-6.4,1.3-9.5-.5-1.7-1.7-3.2-3.4-3.7-1.4-.4-2.8-.2-4.3,0-4.9.5-13.6-1.2-16.6,3.9"/>
  <path class="st0" d="M178,177.4c-.3.6-.6,1.3-.7,2.1-.8,5.1,2,13.3,8,13.8,2.6.2,5.4-.3,7.9-.7,3.8-.6,6.5-2.1,8.1-5.7,1.3-2.9,2.3-6.5,1.4-9.7-.5-1.7-1.7-3.2-3.4-3.8-1.4-.4-2.9-.2-4.4,0-5,.5-13.9-1.2-16.9,4.1"/>
  <path class="st4" d="M160.9,135.5c-.3.5-.5,1.2-.6,1.9-.7,4.7,1.9,12.4,7.4,12.8,2.4.2,5-.3,7.3-.6,3.5-.5,6-1.9,7.5-5.3,1.1-2.7,2.1-6.1,1.2-9-.5-1.6-1.6-3-3.2-3.5-1.3-.4-2.7-.2-4,0-4.6.5-12.9-1.2-15.6,3.7"/>
  <path class="st8" d="M162.7,98.8c-.2.4-.4.8-.5,1.3-.5,3.3,1.3,8.7,5.2,9,1.7.1,3.5-.2,5.2-.5,2.5-.4,4.3-1.4,5.3-3.8.8-1.9,1.5-4.3.9-6.3-.3-1.1-1.1-2.1-2.2-2.5-.9-.3-1.9-.1-2.9,0-3.3.4-9.1-.7-11.1,2.7"/>
  <path class="st2" d="M159.7,49.5c-.4.7-.6,1.4-.8,2.3-.8,5.6,2.3,14.9,9,15.4,2.8.2,6-.3,8.8-.7,4.2-.6,7.2-2.3,8.9-6.3,1.4-3.2,2.5-7.3,1.5-10.8-.6-1.9-1.9-3.6-3.8-4.3-1.5-.5-3.2-.2-4.8,0-5.5.6-15.4-1.4-18.7,4.4"/>
  <path class="st5" d="M127.4,23.6c-.4.7-.7,1.5-.8,2.4-.9,5.9,2.4,15.7,9.4,16.2,3,.2,6.3-.4,9.2-.8,4.4-.6,7.6-2.4,9.4-6.7,1.4-3.4,2.7-7.7,1.6-11.3-.6-2-2-3.8-4-4.5-1.6-.5-3.4-.2-5.1,0-5.8.6-16.2-1.5-19.8,4.7"/>
</g>
</svg>