<?xml version="1.0" encoding="UTF-8"?>
<svg xmlns="http://www.w3.org/2000/svg" version="1.1" viewBox="0 0 925.5 570">
  <defs>
    <style>
      .cls-1 {
        fill: #2f2e41;
      }

      .cls-2 {
        fill: #e6e6e6;
      }

      .cls-3 {
        fill: #ff5c36;
      }

      .cls-4 {
        fill: #3f3d56;
      }

      .cls-5 {
        fill: #ccc;
      }

      .cls-6 {
        fill: #ffcfcf;
      }

      .cls-7 {
        fill: #fff;
      }

      .cls-8 {
        fill: #6c63ff;
      }

      .cls-9 {
        fill: #e8e7df;
      }
    </style>
  </defs>
  <!-- Generator: Adobe Illustrator 28.7.1, SVG Export Plug-In . SVG Version: 1.2.0 Build 142)  -->
  <g>
    <g id="Layer_1">
      <g id="Layer_1-2" data-name="Layer_1">
        <path class="cls-9" d="M743.5,285.3c0,24.1-3.9,48.2-11.7,71.1-.5,1.3-.9,2.6-1.4,3.9-8.2,22.7-20.1,43.9-35.2,62.8-4.5,5.6-9.3,11-14.3,16.3-5.1,5.1-10.3,10.1-15.9,14.8-30.9,26.2-68.4,43.3-108.4,49.6h0c-5.1.8-10.3,1.4-15.4,1.8-6.2.6-12.5.8-18.8.8-59.6,0-116.6-24-158.2-66.7-1.5-1.5-2.8-2.9-4.3-4.5-3.5-3.8-6.9-7.7-10.1-11.8-1.8-2.3-3.6-4.6-5.3-6.9-10.7-14.3-19.5-29.9-26.4-46.5-2.9-7-5.5-14.2-7.6-21.5-.2-.6-.3-1-.5-1.6-.4-1.1-.6-2.2-.9-3.4-5.2-19-7.8-38.7-7.8-58.5,0-122,99-221,221-221s221,99,221,221h.2Z"/>
        <path class="cls-6" d="M395.1,196.3c-1.3,7.8,4,15.2,11.8,16.5.8.2,1.7.2,2.6.2l35.3,102.7,22.9-14.6-43.4-102.8c-1-8.8-8-14.8-16-14.1-6.7.6-12.1,5.6-13.1,12.2h0Z"/>
        <path class="cls-3" d="M579.3,231.1c-15.7,17.8-54.3,49.2-86.1,70.9-6.9,4.7-13.4,8.9-19.4,12.4-4,2.4-7.7,4.4-11.1,6.2-9.1,4.5-20,.8-24.5-8.3-.2-.4-.4-.8-.6-1.3l-22-53.3,7.6-5.1,18.8-12.5,4.3-2.8,17.6,42,18.5-15,11.6-9.3,52.6-42.2,4.5-1.4,10.6,10.4,7.5,7.3,7.1,1.2c1,.2,2.1.4,3,.6v.2Z"/>
        <path class="cls-7" d="M719.9,377.6c1.1,1.4,2.2,2.8,3.4,4.1-3.9,8-8.3,15.8-13.1,23.2-.4-.3-.7-.6-1.1-.7,0,0,0,0-.2,0-1.4-.9-2.7-1.9-4-2.8h0c-1.1-3.8-1.7-7.6-1.8-11.6,1.8-.5,3-2.3,2.6-4.1-.2-1-.9-1.8-1.8-2.3-.2-.3-.3-.6-.5-.8v-.3c1-8.2,11.5-11,16.5-4.5h0Z"/>
        <path class="cls-7" d="M731.7,349.5c.8,2.2,1.5,4.3,2.1,6.5-.5,1.3-.9,2.6-1.4,3.9-.2-.6-.4-1.4-.6-2-1.1-3.9-2.3-7.5-3.9-11.2-1.2-3-2.6-6-4-8.8-8.1-15.7-19.6-29.3-34-39.6-5.9-1.4-11.3-4.5-15.3-9-1.5-1.7-2.7-3.4-3.7-5.4.6,0,1.2-.2,1.8-.4.2,0,.4,0,.6,0h0c1.8-.5,3-2.3,2.6-4.1-.2-.8-.6-1.6-1.4-2-.4-.3-.6-.5-1-.7-.6-.4-1-.7-1.6-1.1,0,0,0,0-.2,0-.6-.5-1.2-.8-1.7-1.3.5-1.5,1.2-2.8,2.3-3.9,3.7-3.8,10.2-3.7,14.4-.6,4.3,3,6.4,8.4,6.7,13.7.3,4.5-.7,8.9-2,13.3.3.3.6.5,1,.7,5.9,4.4,11.3,9.3,16.3,14.7-2.8-6.7-3.9-15.5-3.1-21.6.8-6.9,4.2-13.5,7-20,3.3-7.8,14.5-8,17.7,0v.2c-.6.6-1,1.1-1.6,1.7-1.7,1.9-1.5,5,.5,6.6,1,.8,2.3,1.3,3.6,1.1h0c.4,2.3.6,4.7.7,7.1.2,13.4-5.2,26.3-15,35.4-.3.3-.6.6-.9.8,3,4.3,5.8,8.8,8.2,13.5,2.1,4.1,3.9,8.4,5.6,12.8h.2Z"/>
        <path class="cls-3" d="M605.7,288.2l-2,135.6-159.5-4.6,25.4-56.2c-.2-1.8,11.2-14.5,11.1-16.3-.2-5.5,3.9-10.6,4.6-16.3,1.4-11.8-6.4-56.7-2.8-65.9,1.6-4.1,3.5-8.1,5.9-11.8,2-3.1,4.1-5.1,6.2-5.9l5.9-13.8,5.2-7.8,41-12.1,4.5-1.4,10.6,10.4,7.5,7.3,7.1,1.2c1,.2,2.1.4,3,.6,4.7,1.1,9.1,3.3,12.9,6.3,12.3,10.5,13.7,30.1,13.5,50.8h0Z"/>
        <path class="cls-5" d="M697.2,422.8c-4.5,5.6-9.3,11-14.3,16.3h-110c0,0-16.7,0-16.7,0h-190.2c-1.5-1.5-2.8-2.9-4.3-4.5-3.5-3.8-6.9-7.7-10.1-11.8h321.5c0,0,24,0,24,0h.2Z"/>
        <path id="bfd9c2c3-21db-4bc8-8976-94586a21de42-763" class="cls-1" d="M476.5,219.2h0c-3.9.4-7.4-2.5-7.8-6.4l-3.8-39.7c-.6-7.1,0-14.3,2.2-21.1,4.2-13.3,13.4-24.4,25.6-31.1,6.3-3.4,13.3-5.6,20.5-6.2,29.3-2.8,40,3.3,58.1,48,18.1,44.7,3.8,39.8,3.8,39.8,0,.9,0,1.9-.3,2.8-.6,1.7-1.8,3.3-3.5,4.2s-1.7.7-2.8.8c-34.6,8.8-69.6,18.1-92.2,9h0Z"/>
        <path id="acce586e-6e96-4eff-b112-6c9d74172e69-764" class="cls-6" d="M541,152.1c12.1,18,7.4,42.4-10.6,54.5-8.6,5.8-19.2,8-29.4,6.1s-19.2-7.8-25-16.4c-12.1-18-7.4-42.4,10.6-54.5,8.6-5.8,19.2-8,29.3-6.1,10.2,1.9,19.2,7.8,25.1,16.4h0Z"/>
        <path id="af1db401-16c9-4940-bbbf-8b9ef63e1952-765" class="cls-1" d="M452.7,177.5c-.6-5.6,0-11.3,1.7-16.7.4-13.1,4.2-25.1,20.3-24.6,5-2.7,10.5-4.4,16.1-5l7.9-.8h.3c23.1-2.1,43.6,14.9,45.8,38h0v.8l-16.8,1.7-7.3-15.5.4,16.2-8.7.8-3.7-7.8.2,8.2c-12.9,11.4-32.4,11.9-56.3,5.5v-.8h0Z"/>
        <path id="a1e66597-148d-4736-b39c-00184f281162-766" class="cls-1" d="M506.4,215.1c-.2,1.3,0,2.7.6,3.9.3.6.6,1.2,1.1,1.7.4.5.8.8,1.3,1.1,1.4,1,3.1,1.4,4.8,1.3h1.1l5.9-1.7,6.6-18.4,1.5,16.1,26.6-7.4-6.4-68.2-45.5,4.5,1.3,1.2c4.1,4,7.1,9.1,8.5,14.7,1.4,5.7,1.8,11.6,1.3,17.4-.6,5.9-1.7,11.8-3.2,17.4-1.5,5.1-3.1,10-5.1,14.8-.3.6-.5,1.3-.5,1.9h0Z"/>
        <path class="cls-4" d="M512.5,430.3c-.8,0-1.6-.2-2.3-.6l-125.9,3.2c-2.7-1.3-3.8-4.4-2.5-7.1.6-1.4,1.8-2.4,3.3-2.8l82.4-24.5c.8-.3,1.7-.3,2.7,0l127.4,15.5c2.8.6,4.7,3.4,4,6.2-.4,1.8-1.7,3.3-3.4,3.9l-83.8,5.8c-.6.2-1.1.3-1.7.3l-.2.2Z"/>
        <path class="cls-1" d="M517.2,421.4c-.6,0-1.1-.2-1.7-.5l-102.3,4.8c-1.6-.9-2.2-2.9-1.3-4.5.5-.8,1.2-1.4,2.1-1.6l37-9c.6-.2,1.2,0,1.7,0h95c1.7.5,2.8,2.3,2.2,4-.3,1-1.1,1.8-2.2,2.2l-29.8,4.3c-.3,0-.6.2-1,.2h.2Z"/>
        <path class="cls-6" d="M506.4,416c6.7,4.3,15.6,2.4,19.9-4.3.5-.7.8-1.5,1.2-2.2l108.3,8.5-5.2-26.8-111.7-1.1c-7.5-2.6-15.8,1.5-18.4,9-2.2,6.3.3,13.3,6,16.9h0Z"/>
        <path class="cls-3" d="M570.3,241.4s16.3-13,36,10.5c13.2,15.9,38.7,111.8,40.9,151.6.6,10.1-7.3,18.7-17.3,19.3h-1.4l-57.7-1-6.4-36.3,45.5.6-39.6-144.6h0Z"/>
        <path class="cls-4" d="M505.5,430.3c-2,0-3.9-.4-5.8-1.2l-116.7,2.7c-6.3-2.7-10-9.3-8.9-16.1l-4.3-102.5c1.2-7.6,8-13,15.6-12.5l108.3,4.5c8.2.6,14.4,7.6,13.9,15.8,0,.6,0,1-.2,1.6l12.7,95.3c-1.2,7.2-7.4,12.3-14.7,12.4h0Z"/>
        <path class="cls-2" d="M416.9,125.1h-48.7c-2.8-.2-5,2-5,4.8l-.2,64.5c0,2.8,2.2,5,4.9,5h48.7c2.8,0,5-2.1,5-4.8v-3.9l.2-60.7c0-2.8-2.2-5-4.9-5h0Z"/>
        <path class="cls-7" d="M413.5,129h-41.9c-2.6,0-4.6,1.9-4.6,4.5v41.5c0,11.3,9,20.6,20.4,20.6h26c2.6,0,4.6-2,4.6-4.6v-4.1l.2-53.3c0-2.6-2-4.6-4.6-4.6h0Z"/>
        <path class="cls-8" d="M408.8,157.3h-32.6c-1.1,0-1.9.9-1.9,1.9s.9,1.9,1.9,1.9h32.6c1.1,0,1.9-.9,1.9-1.9s-.9-1.9-1.9-1.9h0Z"/>
        <path class="cls-8" d="M383.3,146.5h-7.2c-1.1,0-1.9.9-1.9,1.9s.9,1.9,1.9,1.9h7.2c1.1,0,1.9-.9,1.9-1.9s-.9-1.9-1.9-1.9Z"/>
        <path class="cls-8" d="M408.8,174.5h-32.6c-1.1,0-1.9.9-1.9,1.9s.9,1.9,1.9,1.9h32.6c1.1,0,1.9-.9,1.9-1.9s-.9-1.9-1.9-1.9Z"/>
        <path class="cls-8" d="M408.8,165.9h-32.6c-1.1,0-1.9.9-1.9,1.9s.9,1.9,1.9,1.9h32.6c1.1,0,1.9-.9,1.9-1.9s-.9-1.9-1.9-1.9Z"/>
      </g>
    </g>
  </g>
</svg>