<?xml version="1.0" encoding="UTF-8"?>
<svg xmlns="http://www.w3.org/2000/svg" version="1.1" viewBox="0 0 692 395">
  <defs>
    <style>
      .cls-1 {
        fill: #ec894d;
      }

      .cls-2 {
        fill: #a43807;
      }

      .cls-3 {
        fill: #dcb200;
      }

      .cls-4 {
        fill: #002870;
      }

      .cls-5 {
        fill: #e6d6d6;
      }

      .cls-5, .cls-6, .cls-7, .cls-8, .cls-9 {
        isolation: isolate;
      }

      .cls-5, .cls-7, .cls-9, .cls-10 {
        mix-blend-mode: multiply;
      }

      .cls-11 {
        fill: #ff4c25;
      }

      .cls-12 {
        fill: #4aa0fc;
      }

      .cls-13 {
        fill: #da4c07;
      }

      .cls-14 {
        stroke-dasharray: 3.4 10.1;
      }

      .cls-14, .cls-15, .cls-16, .cls-17, .cls-18, .cls-19, .cls-20 {
        fill: none;
      }

      .cls-14, .cls-15, .cls-16, .cls-17, .cls-20 {
        stroke: #9db9f7;
        stroke-linecap: round;
        stroke-linejoin: round;
        stroke-width: .7px;
      }

      .cls-21, .cls-6 {
        fill: #fff;
      }

      .cls-16 {
        stroke-dasharray: 3.6 10.7;
      }

      .cls-22 {
        fill: #060606;
      }

      .cls-23 {
        fill: #ffe5c5;
      }

      .cls-6 {
        opacity: .4;
      }

      .cls-24 {
        fill: #f6e5e5;
      }

      .cls-7 {
        fill: #f2e1e1;
      }

      .cls-17 {
        stroke-dasharray: 3.5 10.4;
      }

      .cls-25 {
        fill: #c5eaff;
      }

      .cls-26 {
        fill: #ff6813;
      }

      .cls-9 {
        fill: #a5b3d2;
      }

      .cls-27 {
        fill: #1e7fd9;
      }

      .cls-28 {
        fill: #312c2c;
      }

      .cls-29 {
        fill: #ff9756;
      }

      .cls-30 {
        fill: #3c3737;
      }

      .cls-18 {
        stroke: #ff6813;
        stroke-miterlimit: 10;
        stroke-width: 2.2px;
      }

      .cls-31 {
        fill: #20073e;
      }

      .cls-19 {
        stroke: #1e7fd9;
        stroke-miterlimit: 10;
        stroke-width: 6.2px;
      }

      .cls-20 {
        stroke-dasharray: 3.5 10.6;
      }

      .cls-32 {
        fill: #e4d4d4;
      }

      .cls-33 {
        fill: #ff5b42;
      }

      .cls-34 {
        fill: #f7c800;
      }
    </style>
  </defs>
  <!-- Generator: Adobe Illustrator 28.7.1, SVG Export Plug-In . SVG Version: 1.2.0 Build 142)  -->
  <g>
    <g id="Layer_1">
      <g class="cls-8">
        <g id="Layer_1-2" data-name="Layer_1">
          <g>
            <g>
              <polygon class="cls-13" points="634.9 267.9 536.8 325.1 535.7 303.2 633.9 247.5 634.9 267.9"/>
              <polygon class="cls-26" points="535.7 303.2 434 271.8 542.8 224.3 633.9 247.5 535.7 303.2"/>
              <polygon class="cls-21" points="435.1 293.4 536.7 324.8 535.7 303.2 434 271.8 435.1 293.4"/>
              <polygon class="cls-13" points="434.1 274 535.8 305.5 535.7 303.2 434 271.8 434.1 274"/>
              <polygon class="cls-13" points="435.1 293.6 536.8 325.1 536.7 322.8 435 291.4 435.1 293.6"/>
              <polygon class="cls-2" points="529.5 320.7 536.7 322.8 535.8 305.5 528.6 303.2 529.5 320.7"/>
              <polygon class="cls-2" points="443.9 289.5 447.4 287.5 451.1 291.7 450.8 285.6 443.6 283.4 443.9 289.5"/>
            </g>
            <g>
              <polygon class="cls-21" points="621.3 240.2 535.2 290.3 534.3 271.5 620.5 223.3 621.3 240.2"/>
              <polygon class="cls-27" points="620.6 224.9 534.4 273.4 534.3 271.5 620.5 223.3 620.6 224.9"/>
              <polygon class="cls-27" points="621.4 241.4 535.2 290.6 535.1 288.6 621.3 239.8 621.4 241.4"/>
              <polygon class="cls-5" points="621.5 244.3 535.9 293.7 535.2 290.6 618.1 243.3 621.5 244.3"/>
              <polygon class="cls-12" points="620.5 223.3 540.5 203.3 446.1 244.5 450.2 250 450 245.8 534.3 271.5 620.5 223.3"/>
              <path class="cls-21" d="M449.5,264l85.2,26.3c.2,0,.5,0,.5-.3l-.9-18.1-83.4-25.8c-2.1-.7-4.3.9-4.2,2.9l.6,12.3c0,1.2.9,2.3,2.2,2.7Z"/>
              <polygon class="cls-27" points="521.8 282.7 524.8 281 528 284.6 527.7 274.4 521.5 272.5 521.8 282.7"/>
              <polygon class="cls-27" points="454.1 265.4 447 263.2 446.1 244.5 453.2 246.6 454.1 265.4"/>
              <polygon class="cls-27" points="448.6 263.7 447 263.2 446.1 244.5 447.6 245 448.6 263.7"/>
              <polygon class="cls-27" points="446.2 246.4 534.4 273.4 534.3 271.5 446.1 244.5 446.2 246.4"/>
              <polygon class="cls-27" points="447 263.2 535.3 290.5 535.2 288.6 446.9 261.4 447 263.2"/>
              <polygon class="cls-5" points="447.4 266.1 535.9 293.7 535.2 290.5 450.9 264.4 447.4 266.1"/>
            </g>
          </g>
          <g>
            <g>
              <g>
                <path class="cls-30" d="M473.8,239.2c3.3,4.5-.5,16.8-9.8,30.3-8.5,12.5-21.7,26-38.3,35.7-34.6,20.2-68.7,19.3-75.2,10.2l-32.2-47.3,125.2-73.1s30,43.9,30.3,44.2h0Z"/>
                <g>
                  <polygon class="cls-28" points="471.2 177.4 402.8 270 399.1 264.6 467.7 172.3 471.2 177.4"/>
                  <polygon class="cls-30" points="467.7 172.3 430.3 222.7 399.1 264.6 296.6 287.7 292.2 288.4 365.1 197 467.7 172.3"/>
                  <polygon class="cls-28" points="295.5 293.2 402.8 270 399.1 264.6 292.2 288.4 295.5 293.2"/>
                </g>
              </g>
              <path class="cls-5" d="M467.7,172.3l-37.4,50.3-2,2.8c6.1-39.7-63.2-28.4-63.2-28.4l102.7-24.7h0Z"/>
              <path class="cls-7" d="M473.8,239.2c3.3,4.5-.5,16.8-9.8,30.3,0,0,2.9-18.6-4.9-30-10.4-15.2-24.1-12.9-24.1-12.9l15.5-21.1s23,33.5,23.3,33.8h0Z"/>
            </g>
            <path class="cls-26" d="M387.1,224.6c.4.6.4,1.3,0,2.1-.5,1.4-2,3-4.1,4.2-3.3,1.9-6.8,2.3-7.9.7-.8-1.1,0-2.9,1.8-4.6.6-.6,1.4-1.2,2.3-1.7,3.3-1.9,6.8-2.3,7.9-.7h0Z"/>
            <path class="cls-18" d="M381.1,228l-33.5,44.1s-6.7,6.3-12,22.4"/>
            <path class="cls-13" d="M387.1,224.6c.4.6.4,1.3,0,2.1-4.5-2.4-8.4-.7-10.2.3.6-.6,1.4-1.2,2.3-1.7,3.3-1.9,6.8-2.3,7.9-.7h0Z"/>
            <g>
              <g>
                <path class="cls-26" d="M345.1,313.3c2.7,10.9,2.8,20.1.2,20.6-2.5.5-6.8-7.8-9.4-18.7s-2.8-20.1-.2-20.6c.7-.1,1.5.4,2.4,1.5,2.3,2.8,5.1,9.4,7,17.2Z"/>
                <path class="cls-13" d="M345.1,313.3c2.7,10.9,2.8,20.1.2,20.6.1-24.1-9.6-35.8-9.6-35.8l2.4-2c2.3,2.8,5.1,9.4,7,17.2h0Z"/>
              </g>
              <g>
                <path class="cls-26" d="M340.4,294.4c.4,1.6-.2,3.2-1.5,4.3-.6.5-1.3.8-2,1-2.5.5-5.1-.9-5.6-3.3-.4-1.6.2-3.2,1.4-4.2.6-.5,1.3-.9,2.1-1,2.5-.5,5.1.9,5.6,3.3h0Z"/>
                <path class="cls-13" d="M340.4,294.4c.4,1.6-.2,3.2-1.5,4.3,0-.2-.1-.4-.2-.5-1.6-5.7-5.2-6-6.1-6,.6-.5,1.3-.9,2.1-1,2.5-.5,5.1.9,5.6,3.3h.1Z"/>
              </g>
            </g>
          </g>
          <g>
            <rect class="cls-34" x="611.7" y="170.1" width="13.8" height="108.3" transform="translate(-38.5 190.7) rotate(-17)"/>
            <rect class="cls-30" x="615.9" y="170.3" width="1.5" height="108.8" transform="translate(-38.8 190.1) rotate(-17)"/>
            <rect class="cls-30" x="619.6" y="169.1" width="1.5" height="108.8" transform="translate(-38.2 191.1) rotate(-17)"/>
            <rect class="cls-30" x="627.5" y="275.7" width="14.2" height="2.8" transform="translate(-53.3 197.6) rotate(-17)"/>
            <path class="cls-26" d="M628.2,280.4l13.6-4.2.4,1.3c.6,1.8-.5,3.8-2.3,4.4l-6.9,2.1c-1.8.6-3.8-.5-4.4-2.3l-.4-1.3h0Z"/>
            <polygon class="cls-23" points="609.4 170.1 596.1 174.1 598.5 164.8 599.5 160.7 602.5 163.6 609.4 170.1"/>
            <polygon class="cls-30" points="602.5 163.6 598.5 164.8 599.5 160.7 602.5 163.6"/>
          </g>
          <g>
            <path class="cls-3" d="M401.9,109.8h0c.7-1.1.3-2.5-.8-3.2l-13.7-8.5c-1.1-.7-2.5-.3-3.2.8l-1.2,2-1,1.6-20,32.1c-.7,1.1-.3,2.5.8,3.2l47.5,29.5c1.1.7,2.5.3,3.2-.8l19.7-31.7c.7-1.1.3-2.5-.8-3.2l-29.8-18.6c-1.1-.7-1.4-2.1-.8-3.2h0Z"/>
            <path class="cls-34" d="M410.2,167.3l-47.5-29.5c-1.1-.7-1.4-2.1-.8-3.2l23.2-29.5c.7-1.1,2.1-1.4,3.2-.8l47.5,29.5c1.1.7,1.4,2.1.8,3.2l-23.2,29.5c-.7,1.1-2.1,1.4-3.2.8Z"/>
          </g>
          <g>
            <g class="cls-10">
              <path class="cls-24" d="M520.8,221.9c-2.1-1.7-5.5.5-5.8,3.2s1.5,5.2,3.7,6.8c6.4,4.9,15.2,4.6,23.2,4.1l14.5-.9c3.7-.2,8-.8,10.1-3.8,2.5-3.5.4-8.9-3.3-11-3.8-2.1-8.6-1.4-12.5.4-3.4,1.6-6.6,4.1-10.4,4.5-6.7.7-16-6.2-22.2-3.6"/>
            </g>
            <g>
              <path class="cls-13" d="M576,125.9c-1.3.3-6.1.4-10.6.7-.9-2.5-2.2-7.9-4.1-14.8-.4-1.4-2.3-3.9-4.5-4.8-1.4-.6-3.4.5-2.8,3.1.3,1.5.7,3.5,2.4,8.3,2.4,6.7,4.1,9.9,5.1,11.5,0,.3.3.5.5.7,0,.1.2.2.4.3.4.2.9.4,1.4.4,4.1-.2,3.8-.3,9.1-1.9,3.7-1.1,3.1-.3,3.8-1.2.6-.8.3-2.6-.8-2.4h0Z"/>
              <path class="cls-26" d="M541.9,118.8c.9,3.4,1.3,6.9,1.6,10.5.3,2.6,0,5.2-.6,7.8-.3,1.5-.7,3-1.2,4.5-.2.6-1.6,5.1-1.7,5.6,0,0,20.1,1.4,21.2,1.5,0-4.2-3.8-17.6,0-25.8,2.6-5.7-.3-6.1-2-11.1-.4-1.2-3.4-3.7-4.6-4.1-.6-.2-1.3-.3-2-.4-3.6-.5-11.1-2.6-12.2,2.5-.3,1.4.2,5.8.7,7.2.2.6.4,1.2.5,1.8h.3Z"/>
              <path class="cls-4" d="M560.4,190.6v-1.2c0-.6,0-1.3,0-2.1,0-3.2.4-16.9.6-25.1h0c.5-7.2,0-13.5,0-13.5l-21.2-1.5c-.8,3.1-1.2,5.7-1.3,7.8-.6,3.2-3.7,26.3-4.6,30.6,0,.2,0,.4,0,.6-4.6,6.9-8.1,33.2-8.9,37.7,0,.6.2.6.6.5,1.1-.1.7-1.1,2.2-.9.8.1.9,1.2.9,1.2,2.1-6.1,9-27.5,12.1-33.9.5-1,.7-1.8.8-2.6,2.5-7.1,6.6-19.2,7.7-24.5.6,6,2,19.6,3.3,26-2.8,8.6,0,26.7-.3,37.1,1.2-1.7,2.3-2.1,2.8-2,.8.1,1.2.8,1.2.8.8-13.8,3.3-27.6,4-34.7v-.3Z"/>
              <path class="cls-31" d="M556.6,225.3c.2.5,1.3,1.7,2.9,2.5,1.6.8,4.9,1.4,3,1.9s-4.1,0-5.2-.3c-1.1-.3-2.2-.4-3.5-.5-1.7-.1-1.7-.2-1.4-2.2.5-2.7,3.6-3,4.2-1.5h0Z"/>
              <path class="cls-31" d="M528.9,224.3c.2.5.3,2.8,1.9,3.6,1.6.8,4.9,1.4,3,1.9s-4.1,0-5.2-.3c-1.1-.3-1.2-1.5-2.5-1.6-1.7-.1-1.7-.2-1.4-2.2.5-2.7,3.6-3,4.2-1.5h0Z"/>
              <path class="cls-11" d="M545.1,116.2c.3.2.6.3.9.5l-1.7,5.3c.3-1.7.5-3.7.9-5.9h-.1Z"/>
              <path class="cls-1" d="M547.2,97.9c0,.2-.7,5.1-1.1,8.9-.2,1.8,1.1,3.7,2.4,3.8h0c1.3,0,2.9-1.4,3-3.3,0-3.3.4-6.6.4-6.7l-4.7-2.7h0Z"/>
              <path class="cls-29" d="M544.8,94.2c0,4.2.2,5.2,1.9,7s4.3,2.8,6.3,2.9c2.1,0,3.9-2,4.5-3.7.6-1.8,1.5-6.1,1.2-10.7,0-2.3-2.8-5.4-5.8-5.6s-8.4-.2-8.1,10.1h0Z"/>
              <path class="cls-22" d="M558.7,87.3c-.4-.9-1.9-2.4-3.1-3-2.3-1.7-5.2-1.6-7.5-.9-.7-.3-1.5-.6-2.3-.8h0c0,0-4.5-2.5-8.1-.9-2,.9-3.4,2.8-4.1,5.8h0c-.5,1.6-.5,3.3,0,4.9.6,1.6,1.7,2.9,2.2,4.4,1.2,3.4,0,7-3.3,8.6,1.1,1,2.9.7,4.2,0,1.2-.8,2.1-2.6,3.2-3.5,1.9-1.6,1.8-6.3,4.3-6.1l3.8-2.6c3-.7,6.8-1.5,8.9-3.2.8.6,1.5,1.1,1.7,1.9.4,1.2.8-2.6,0-4.4h0ZM537.1,83.1c-1.3.8-2.3,1.9-3,3.3.7-2.2,1.9-3.7,3.6-4.5,2.8-1.2,6.2,0,7.4.6-2.8-.7-5.6-.8-8,.6Z"/>
              <path class="cls-29" d="M546.1,94.3c.5,1.5.3,2.9-.5,3.2-.8.3-1.8-.7-2.3-2.2s-.3-2.9.5-3.2c.8-.3,1.8.7,2.3,2.2Z"/>
              <polygon class="cls-32" points="575 134 562.5 136.6 562.5 120.1 575 117.4 575 134"/>
              <g>
                <path class="cls-29" d="M558.1,128.3c1-.8,2.3-1.6,3.2-1.7.9,0-.6,1.1-1.4,1.8-.7.6-2.7.5-1.9-.1h.1Z"/>
                <path class="cls-29" d="M559.5,128.3c2.6-.4,3.9-1.1,5.1-.6,1.2.5-.5,2.1-1.4,2.4s-4,1.5-4.9.9-.7-2.4,1.2-2.7h0Z"/>
              </g>
              <path class="cls-13" d="M557.8,128.2c-1.4.3-9.5,0-14.2,0,.3-2.9,1.1-8,2-14.3.2-1.4-.6-4.5-2.2-6.2-1-1.1-3.3-.9-3.8,1.8-.3,1.5-.7,3.5-1.1,8.6-.6,8.3,0,11.8.3,13.4,0,.4.3.6.6.8.5.5,1.1.8,1.9.8,4.3,0,5.8,0,11.4-1.4,3.8-1,5,0,5.8-1,.7-.8.4-2.7-.7-2.5h0Z"/>
              <path class="cls-29" d="M574.8,127c0-.7,0-1.9.4-2.9.2-.6.9-1,1.3-.5.4.5,1.1,2.3.8,3.2-.3.7-.9,1.4-1.6,1.7-.6.3-1-.3-1-1.5h0Z"/>
            </g>
          </g>
          <g>
            <polygon class="cls-12" points="615.2 120.5 608.9 114.9 645.5 104.7 632.8 135.7 622.5 126.5 618.2 130.4 615.2 120.5"/>
            <polygon class="cls-9" points="645.5 104.7 622.5 126.5 618.2 130.4 615.2 120.5 645.5 104.7"/>
          </g>
          <g>
            <polygon class="cls-26" points="424.8 53.3 428.8 45.9 390.9 49.2 413.7 73.7 420.1 61.5 425.5 63.7 424.8 53.3"/>
            <polygon class="cls-9" points="390.9 49.2 420.1 61.5 425.5 63.7 424.8 53.3 390.9 49.2"/>
          </g>
          <g>
            <path class="cls-15" d="M613.6,134.1c-.5.3-1,.6-1.5.9"/>
            <path class="cls-14" d="M603.5,140.2c-3.6,2.4-7,5-9.9,8.2-5.7,6-9.7,14.1-8.9,22.3.5,5,2.7,9.6,4.5,14.2,1.8,4.6,3.3,9.7,2.4,14.6-.5,2.6-1.9,5.2-3.8,6.9"/>
            <path class="cls-15" d="M583.3,208.7c-.6.1-1.2.2-1.8.2"/>
          </g>
          <g>
            <path class="cls-15" d="M431.6,68.4c.4.5.7.9,1.1,1.4"/>
            <path class="cls-17" d="M438.4,78.6c1,2,1.7,4,2.1,6.2,1.2,6.1-1.1,13.4-6.8,16.1-7.6,3.6-15.9-2.3-22.9-6.9-9.3-6.2-19.9-10.5-30.8-12.8-7.9-1.6-16.3-2.1-23.7.9-8.6,3.5-14.8,11.4-18.3,19.9-3.5,8.6-4.8,17.9-6,27-.6,4.7-1.2,9.5-.5,14.2s3,9.4,7,11.9c5.9,3.7,13.5,1.9,20.5,2.3,8.9.5,17.5,4.9,23,11.9,4.1,5.1,6.4,11.6,6.8,18.2"/>
            <path class="cls-15" d="M388.6,192.6c0,.6-.2,1.2-.3,1.8"/>
          </g>
          <g>
            <path class="cls-15" d="M445.7,331.1v-1.8"/>
            <path class="cls-16" d="M453.4,323.1c3.8,0,7.3,2.1,9.9,4.9,2.7,2.9,4.6,6.5,6.8,9.8,8.4,12.4,22.1,21.1,37,23.2,14.8,2.2,30.5-2.1,42.1-11.5,9.6-7.8,16.2-18.6,24.9-27.3,7-7.1,16.3-13,25.9-13.5"/>
            <path class="cls-15" d="M605.3,309c.6,0,1.2.2,1.7.4"/>
          </g>
          <path class="cls-20" d="M536.7,45c4.7-1.1,9,2.9,11.2,7.2s3.3,9.2,6.4,12.8c5.3,6.2,14.7,6.6,22.8,6.4,8.2-.2,17.4-.2,23.2,5.6"/>
          <g>
            <g>
              <g>
                <rect class="cls-30" x="461.4" y="111.2" width="23" height="1.8" transform="translate(185 503.6) rotate(-67)"/>
                <path class="cls-12" d="M459.9,143.3h0c-2.4-1-3.4-3.7-2.5-6.1l8.3-19.7c1-2.4,3.7-3.4,6.1-2.5h0c2.4,1,3.4,3.7,2.5,6.1l-8.3,19.7c-1,2.4-3.7,3.4-6.1,2.5Z"/>
                <circle class="cls-19" cx="486.7" cy="80.5" r="23.4"/>
              </g>
              <circle class="cls-25" cx="486.8" cy="80.3" r="20"/>
            </g>
            <ellipse class="cls-6" cx="483.8" cy="71.3" rx="7.9" ry="6.5"/>
          </g>
        </g>
      </g>
      <g>
        <path class="cls-33" d="M49.6,129.8c0-2.3-.2-10.3-.2-12.2-.2-3.7-.4-4.1-.4-4.1.5-.2,1.1-.3,1.7-.3,1.7,0,3.4.9,3.4,2.4s-.1,6.4-.1,10.4h.2c8.3-8.1,10.2-10.3,10.6-12.5,0,0,.8,0,1.2,0,1.7,0,2.3.3,2.3,1.2,0,1.7-6.2,6.9-10.4,10.6v.2s8.6,12.2,12.6,14.4v.3s-1.5.5-3.7.5c-5.8,0-11-12.8-12.5-13.2h-.3c0,0,0,3.8,0,3.8,0,2.1.2,4.5.2,6.9s-1.1,2.6-2.5,2.6-1.6-.2-2.6-.4c0,0,.5-1.1.5-10.6Z"/>
        <path class="cls-33" d="M81.9,120.6c6.4,0,9.7,4.5,9.7,9.1s-3.5,11.2-10.1,11.2-9.7-4.7-9.7-9.7,3.5-10.6,10.1-10.6ZM75.7,114.8c0-1.2,1-2.3,2.3-2.3s2.3,1,2.3,2.3-1,2.3-2.3,2.3-2.3-1-2.3-2.3ZM81.9,139.2c3.4,0,5-4.4,5-8.7s-1.8-8-5.5-8-5,4.1-5,8.2,1.8,8.6,5.4,8.6ZM83.1,114.8c0-1.2,1-2.3,2.2-2.3s2.3,1,2.3,2.3-1,2.3-2.3,2.3-2.2-1-2.2-2.3Z"/>
        <path class="cls-33" d="M94.3,139.7c0-.4,0-1.1.4-1.6,1.8-2.6,7.7-11.6,9.2-14.7v-.2c-2.1.4-5.5.4-7.9.4s-1.6-1.4-1.8-2.9c0,0,2,.5,8,.5h7v.5c0,.5,0,1.2-.6,2-3.7,5.4-7.2,11.1-9.3,14.5v.2c1.7-.5,5-.5,7.7-.5s2.8.7,3,2.9c0,0-2.4-.3-8.7-.3h-7.2s0-.4,0-.7Z"/>
        <path class="cls-33" d="M121.6,120.6c5,0,7,2.9,7,5.5,0,3.8-4,5.2-7.4,5.2s-4.2-1.1-4.2-1.1h-.2c0,4.7,2.1,7.8,6.1,7.8s6-2.2,6-2.2l.2.2s-1.3,4.9-7.7,4.9-8.9-4-8.9-9.6,3.5-10.6,9.1-10.6ZM120.5,129.4c1.7,0,3.6-1,3.6-3.3s-.8-3.7-3-3.7-4.2,4.6-4.2,6.1,2,.9,3.6.9ZM117.2,118.2c3.2-1.8,4.9-5.5,5.3-6.5,2.1,0,2.9,1.8,2.9,1.8-.7,2.6-4.8,5-7,5s-.9,0-1.2-.2v-.2Z"/>
        <path class="cls-33" d="M134,131.1c0-3.6-.1-7.9-.9-9.9.7-.2,1.3-.3,1.9-.3,1.8,0,3.1.9,3.1,2.1s0,.5,0,.6h.2c0,0,1.5-2.9,6.2-2.9s7,3.9,7,8.7-3.6,11.4-11.2,11.4-1.3,0-1.9-.2c0,.7,0,1.3,0,1.8,0,4.4.7,6.4.7,6.4-1,.2-1.9.4-2.7.4-1.4,0-2.3-.6-2.3-2.9,0-3.7.1-7.5.1-15.1ZM140.7,139c4.1,0,6.1-4.4,6.1-8.7s-1.5-7.2-4.1-7.2-4,1.7-4.4,4.6c-.2,1.6-.2,3.4-.2,5.2v4.8c0,1,1.1,1.2,2.6,1.2Z"/>
        <path class="cls-33" d="M156.4,131.1c0-8.7-.9-9.9-.9-9.9.7-.2,1.3-.3,1.9-.3,1.7,0,3.3.9,3.3,2.4,0,4.1-.2,8.6-.2,11.5s0,4,1.9,4,1.5-.5,1.5-.5h.2c0,.1-1,2.5-4.2,2.5s-3.4-.8-3.4-3.1.2-4.4.2-6.5ZM155.8,115c0-1.4,1.2-2.6,2.6-2.6s2.6,1.2,2.6,2.6-1.2,2.6-2.6,2.6-2.6-1.2-2.6-2.6Z"/>
        <path class="cls-33" d="M166.6,136.1h.2s2.2,2.8,6,2.8,3.4-1.3,3.4-2.6c0-3.9-9.9-3.4-9.9-9.9s3.5-5.7,7.1-5.7,5.8.6,5.8,2.1-.7,2-1.4,2.8h-.2s-1.9-3.2-4.8-3.2-3,1.2-3,2.9c0,3.9,9.9,2.9,9.9,9.8s-3.7,5.9-7.3,5.9-6.5-1.1-6.5-2.7.5-1.6.8-2.1Z"/>
        <path class="cls-33" d="M184.6,129c0-4.8,0-10-.2-13.3-.2-3.5-.7-4.3-.7-4.3v-.2c2.7,0,5,.5,5,2.8,0,3.9-.2,7.9-.2,11.9v3.1h.2l.5-.5c5-5,6.2-5.9,6.4-7.4,0,0,1.1-.3,2.1-.3s1.8.3,1.8.8c0,1.4-4,3.8-7.5,7v.2c1.8,2.4,6.7,9,9.8,11.2v.2s-.9.4-3,.4c-5.4,0-8.8-9.6-9.9-9.9h-.3c0,2.8.2,4.9.2,7.5s-1.1,2.6-2.4,2.6-1.8-.2-2.7-.4c.7-.5,1-7.7,1-11.4Z"/>
        <path class="cls-33" d="M213.2,120.6c6.4,0,9.7,4.5,9.7,9.1s-3.5,11.2-10.1,11.2-9.7-4.7-9.7-9.7,3.5-10.6,10.1-10.6ZM213.2,139.2c3.4,0,5-4.4,5-8.7s-1.8-8-5.5-8-5,4.1-5,8.2,1.8,8.6,5.4,8.6Z"/>
        <path class="cls-33" d="M227.7,125.2c0-3.6,0-7-.2-9.5-.2-3.5-.7-4.3-.7-4.3v-.2c2.7,0,5,.5,5,2.8,0,3.9-.2,7.9-.2,11.9s0,6.9.2,10.3c0,1.3.4,2.5,1.7,2.5s1.5-.5,1.5-.5h.2c0,.1-1,2.5-4.2,2.5s-3.4-.8-3.4-3.3.2-7.8.2-12.2Z"/>
        <path class="cls-33" d="M247.4,128.5v-.3c0-3.2-.7-5-3.7-5s-3.9,1-5.3,2.3l-.2-.2c.6-2.3,3.7-4.7,7.1-4.7,5.4,0,6.2,3.3,6.2,6.7s-.1,4.6-.1,6.7v.5c0,1.5,0,4.2,1.9,4.2s1.5-.5,1.5-.5h.2c0,.1-1,2.5-4.2,2.5s-3.2-.6-3.3-2.7h-.2c-.9,1.5-2.8,2.9-5.2,2.9s-5.1-2.3-5.1-5.1c0-5.5,6.2-7.2,10.4-7.3ZM240.8,118.2c3.2-1.8,4.9-5.5,5.3-6.5,2.1,0,2.9,1.8,2.9,1.8-.7,2.6-4.8,5-7,5s-.9,0-1.2-.2v-.2ZM243.9,138.2c1.3,0,3.4-1.2,3.4-2.6s.1-3.6.1-5.5c-1.6.3-6.1,1-6.1,5s1.2,3.1,2.6,3.1Z"/>
        <path class="cls-33" d="M257.9,131.5c0-2.8,0-5.8,0-8.6s0-10.7-.8-11.4v-.2c4.9,0,5.1,1.7,5.1,6.3s-.4,6.1-.4,6.1h.1s1.5-3,6.2-3,7,3.9,7,8.7-3.6,11.6-11.2,11.6-6-1.2-6-3.5,0-4.1,0-6ZM270.5,130.2c0-3.5-1.5-7.2-4.1-7.2s-4,1.7-4.4,4.6c-.2,1.6-.2,3.4-.2,5.2,0,3.3.1,6.2,2.6,6.2,4.1,0,6.1-4.5,6.1-8.9Z"/>
        <path class="cls-33" d="M288.6,128.5v-.3c0-3.2-.7-5-3.7-5s-3.9,1-5.3,2.3l-.2-.2c.6-2.3,3.7-4.7,7.1-4.7,5.4,0,6.2,3.3,6.2,6.7s-.1,4.6-.1,6.7v.5c0,1.5,0,4.2,1.9,4.2s1.5-.5,1.5-.5h.2c0,.1-1,2.5-4.2,2.5s-3.2-.6-3.3-2.7h-.2c-.9,1.5-2.8,2.9-5.2,2.9s-5.1-2.3-5.1-5.1c0-5.5,6.2-7.2,10.4-7.3ZM285.1,138.2c1.3,0,3.4-1.2,3.4-2.6s.1-3.6.1-5.5c-1.6.3-6.1,1-6.1,5s1.2,3.1,2.6,3.1Z"/>
        <path class="cls-33" d="M49,174.9c0-4.8,0-10-.2-13.3-.2-3.5-.7-4.3-.7-4.3v-.2c2.7,0,5,.5,5,2.8,0,3.9-.2,7.9-.2,11.9v3.1h.2l.5-.5c5-5,6.2-5.9,6.4-7.4,0,0,1.1-.3,2.1-.3s1.8.3,1.8.8c0,1.4-4,3.8-7.5,7v.2c1.8,2.4,6.7,9,9.8,11.2v.2s-.9.4-3,.4c-5.4,0-8.8-9.6-9.9-9.9h-.3c0,2.8.2,4.9.2,7.5s-1.1,2.6-2.4,2.6-1.8-.2-2.7-.4c.7-.5,1-7.7,1-11.4Z"/>
        <path class="cls-33" d="M76.6,166.5c5,0,7,2.9,7,5.5,0,3.8-4,5.2-7.4,5.2s-4.2-1.1-4.2-1.1h-.2c0,4.7,2.1,7.8,6.1,7.8s6-2.2,6-2.2l.2.2s-1.3,4.9-7.7,4.9-8.9-4-8.9-9.6,3.5-10.6,9.1-10.6ZM75.5,175.3c1.7,0,3.6-1,3.6-3.3s-.8-3.7-3-3.7-4.2,4.6-4.2,6.1,2,.9,3.6.9ZM72.2,164.1c3.2-1.8,4.9-5.5,5.3-6.5,2.1,0,2.9,1.8,2.9,1.8-.7,2.6-4.8,5-7,5s-.9,0-1.2-.2v-.2Z"/>
        <path class="cls-33" d="M87.9,182h.2s2.2,2.8,6,2.8,3.4-1.3,3.4-2.6c0-3.9-9.9-3.4-9.9-9.9s3.5-5.7,7.1-5.7,5.8.6,5.8,2.1-.7,2-1.4,2.8h-.2s-1.9-3.2-4.8-3.2-3,1.2-3,2.9c0,3.9,9.9,2.9,9.9,9.8s-3.7,5.9-7.3,5.9-6.5-1.1-6.5-2.7.5-1.6.8-2.1Z"/>
        <path class="cls-33" d="M103.7,185.6c0-.4,0-1.1.4-1.6,1.8-2.6,7.7-11.6,9.2-14.7v-.2c-2.1.4-5.5.4-7.9.4s-1.6-1.4-1.8-2.9c0,0,2,.5,8,.5h7v.5c0,.5,0,1.2-.6,2-3.7,5.4-7.2,11.1-9.3,14.5v.2c1.7-.5,5-.5,7.7-.5s2.8.7,3,2.9c0,0-2.4-.3-8.7-.3h-7.2s0-.4,0-.7Z"/>
        <path class="cls-33" d="M123.6,175.5c0-.9,0-2.9-.1-4.7-.1-1.6-.3-3-.8-3.7.7-.2,1.3-.3,1.9-.3,1.7,0,3.3.9,3.3,2.4,0,3.2-.1,5.5-.1,9.4s.2,5.9,3.2,5.9,4.6-4.7,4.6-8,0-4.6-.2-5.9c-.3-2.6-.7-3.4-.7-3.4.7-.2,1.3-.3,1.9-.3,1.8,0,3.3.9,3.3,2.5,0,3.6-.3,7.2-.3,11.5s.1,4,1.9,4,1.5-.5,1.5-.5h.2c0,.1-1,2.5-4.2,2.5s-3.1-.7-3.1-2.7,0-.3,0-.3h-.2s-1.5,3.3-6.1,3.3-6-2.9-6-6.1,0-3.3,0-5.2ZM125.4,160.7c0-1.2,1-2.3,2.3-2.3s2.3,1,2.3,2.3-1,2.3-2.3,2.3-2.3-1-2.3-2.3ZM132.8,160.7c0-1.2,1-2.3,2.2-2.3s2.3,1,2.3,2.3-1,2.3-2.3,2.3-2.2-1-2.2-2.3Z"/>
        <path class="cls-33" d="M146.7,171.1c0-3.6,0-7-.2-9.5-.2-3.5-.7-4.3-.7-4.3v-.2c2.7,0,5,.5,5,2.8,0,3.9-.2,7.9-.2,11.9s0,6.9.2,10.3c0,1.3.4,2.5,1.7,2.5s1.5-.5,1.5-.5h.2c0,.1-1,2.5-4.2,2.5s-3.4-.8-3.4-3.3.2-7.8.2-12.2Z"/>
        <path class="cls-33" d="M175.4,174.4v-.3c0-3.2-.7-5-3.7-5s-3.9,1-5.3,2.3l-.2-.2c.6-2.3,3.7-4.7,7.1-4.7,5.4,0,6.2,3.3,6.2,6.7s-.1,4.6-.1,6.7v.5c0,1.5,0,4.2,1.9,4.2s1.5-.5,1.5-.5h.2c0,.1-1,2.5-4.2,2.5s-3.2-.6-3.3-2.7h-.2c-.9,1.5-2.8,2.9-5.2,2.9s-5.1-2.3-5.1-5.1c0-5.5,6.2-7.2,10.4-7.3ZM171.9,184.1c1.3,0,3.4-1.2,3.4-2.6s.1-3.6.1-5.5c-1.6.3-6.1,1-6.1,5s1.2,3.1,2.6,3.1Z"/>
        <path class="cls-33" d="M50.3,234.1c.1,1.8,1.3,5.2,5.5,5.2s4.7-1,4.7-3.2c0-3.3-10.6-1.1-10.6-6.7s1.1-2.8,1.8-3.5c-3.1-.8-4.7-2.9-4.7-6.1s3.6-7.2,8.5-7.2,2.8.2,3.9.6c2,0,2.5-1.8,2.7-4.1,1.3.2,2.9.1,2.9,1.6s-2.1,3-3.9,3.4c1.5,1.1,2.2,2.8,2.2,4.9,0,4.2-3.6,7.2-8.5,7.2s-1.2,0-1.8,0c-.3.5-.6,1.1-.6,1.3,0,2.9,11.6.5,11.6,7.1s-3.8,6.3-9.1,6.3-7.8-3-7.8-5.2,2-1.7,3.3-1.7ZM59,219.9c0-2.9-1.1-5.5-4.1-5.5s-3.7,2.1-3.7,4.7,1.1,5.5,4.1,5.5,3.7-2.1,3.7-4.7Z"/>
        <path class="cls-33" d="M69,237.5c2.2,0,4.1-1,5.4-3.8l.6-1.4c-1.3-.3-2.8-1-3.4-2.9-1.1-3.5-3.4-10.8-4.8-13.9-.4-.8-.8-1.7-1.5-2.3v-.2c.8-.2,1.5-.3,2.9-.3s2.6.4,2.9,1.6c.8,3.3,3.4,10.7,5,14.9,5.3-15.2,3.3-16.5,6.6-16.5s1.8.3,1.8.3v.2s-1,.7-2,3.5l-5.7,16c-2.1,5.8-5.2,8.2-8.4,8.2s-2.3-1.5-2.4-3.8c1,.2,2,.4,2.9.4Z"/>
        <path class="cls-33" d="M95.2,212.4c5,0,7,2.9,7,5.5,0,3.8-4,5.2-7.4,5.2s-4.2-1.1-4.2-1.1h-.2c0,4.7,2.1,7.8,6.1,7.8s6-2.2,6-2.2l.2.2s-1.3,4.9-7.7,4.9-8.9-4-8.9-9.6,3.5-10.6,9.1-10.6ZM94.1,221.2c1.7,0,3.6-1,3.6-3.3s-.8-3.7-3-3.7-4.2,4.6-4.2,6.1,2,.9,3.6.9Z"/>
        <path class="cls-33" d="M107.6,222.9c0-7.8-.8-9.8-1-9.9.7-.2,1.3-.3,1.9-.3,1.8,0,3.1.9,3.1,2.4s-.3,1.4-.3,1.4h.2c1.1-2.4,3.7-3.9,5.8-3.9s1.9.7,1.9,1.5-.2,1.9-.5,2.7h-.2c-1.2-.5-2.2-1-3.1-1-3,0-3.8,3.1-3.8,7.3,0,7.5.8,8.9.9,9-1,.2-1.9.4-2.7.4-1.4,0-2.4-.6-2.4-2.9s.2-4.6.2-6.7Z"/>
        <path class="cls-33" d="M123.1,222.8c0-1.9,0-3.9-.2-5.7-.2-3.7-.8-4.1-.8-4.1.7-.2,1.3-.3,1.9-.3,1.8,0,3,.9,3,2.1s-.2,1-.2,1h.2c.7-1.8,3.5-3.1,5.9-3.1,3.6,0,5,1.4,5.2,3.1h.2c.8-1.8,3.6-3.1,6-3.1,5,0,5.6,2.6,5.6,5.3s-.2,5.3-.2,8.6,0,4,1.9,4,1.5-.5,1.5-.5h.2c0,.1-1,2.5-4.2,2.5s-3.4-.8-3.4-3.1c0-3.3.1-5.6.1-9.5s0-5-3.3-5-4.1,4.9-4.1,6.7,0,6.6,0,6.8c0,2.7-.9,3.3-1.5,4-1.4-.2-2.8-.3-2.8-2.9s.1-5.7.1-9.6,0-5-3.4-5-3.8,1.8-3.8,5.3.2,6,.2,9.7-1.1,2.6-2.4,2.6-1.8-.2-2.7-.4c.3-.1.9-2.5.9-9.4Z"/>
        <path class="cls-33" d="M164.3,212.4c5,0,7,2.9,7,5.5,0,3.8-4,5.2-7.4,5.2s-4.2-1.1-4.2-1.1h-.2c0,4.7,2.1,7.8,6.1,7.8s6-2.2,6-2.2l.2.2s-1.3,4.9-7.7,4.9-8.9-4-8.9-9.6,3.5-10.6,9.1-10.6ZM163.2,221.2c1.7,0,3.6-1,3.6-3.3s-.8-3.7-3-3.7-4.2,4.6-4.2,6.1,2,.9,3.6.9Z"/>
        <path class="cls-33" d="M176.7,220.8c0-4.8,0-10-.2-13.3-.2-3.5-.7-4.3-.7-4.3v-.2c2.7,0,5,.5,5,2.8,0,3.9-.2,7.9-.2,11.9v3.1h.2l.5-.5c5-5,6.2-5.9,6.4-7.4,0,0,1.1-.3,2.1-.3s1.8.3,1.8.8c0,1.4-4,3.8-7.5,7v.2c1.8,2.4,6.7,9,9.8,11.2v.2s-.9.4-3,.4c-5.4,0-8.8-9.6-9.9-9.9h-.3c0,2.8.2,4.9.2,7.5s-1.1,2.6-2.4,2.6-1.8-.2-2.7-.4c.7-.5,1-7.7,1-11.4Z"/>
        <path class="cls-33" d="M204.4,212.4c5,0,7,2.9,7,5.5,0,3.8-4,5.2-7.4,5.2s-4.2-1.1-4.2-1.1h-.2c0,4.7,2.1,7.8,6.1,7.8s6-2.2,6-2.2l.2.2s-1.3,4.9-7.7,4.9-8.9-4-8.9-9.6,3.5-10.6,9.1-10.6ZM203.2,221.2c1.7,0,3.6-1,3.6-3.3s-.8-3.7-3-3.7-4.2,4.6-4.2,6.1,2,.9,3.6.9Z"/>
        <path class="cls-33" d="M226.2,212.6c.7,0,1.4,0,2.1.2,0-2,0-3.8-.2-5.3-.2-3.5-.7-4.3-.7-4.3v-.2c2.7,0,5,.5,5,2.8,0,3.7-.2,7.3-.2,11.9s0,6.9.2,10.3c0,1.3.4,2.5,1.7,2.5s1.5-.5,1.5-.5h.2c0,.1-1,2.5-4.2,2.5s-3.2-.6-3.3-2.8h-.2c0,0-1.6,2.9-6,2.9s-7.2-3.6-7.2-8.8,3.7-11.3,11.2-11.3ZM228.2,224c0-1.3.1-3.4.1-4.7v-3.6c0-1.2-1.3-1.4-2.6-1.4-4.1,0-6.1,4.3-6.1,8.6s.7,7.3,4.2,7.3,4.3-3.6,4.4-6.3Z"/>
        <path class="cls-33" d="M239.4,222.8c0-5.1,6.1-7.2,6.1-10s-7.2-1.2-7.2-6.6,0-.8.6-3.2h.2c.3,1.1,1.9,1.9,3.9,2.6,4.9,1.5,6.8,3.5,6.8,5.9,0,4.9-8.1,6.6-8.1,11.4s.3,1.7.7,2.3c-.5,0-.9.2-1.2.2-1.3,0-1.8-.8-1.8-2.6ZM241,227.8c1.3,0,2.4,1.1,2.4,2.4s-1.1,2.3-2.4,2.3-2.3-1.1-2.3-2.3,1.1-2.4,2.3-2.4Z"/>
      </g>
    </g>
  </g>
</svg>