<?xml version="1.0" encoding="UTF-8"?>
<svg xmlns="http://www.w3.org/2000/svg" version="1.1" viewBox="0 0 744 539.3">
  <defs>
    <style>
      .cls-1 {
        fill: #ff6584;
      }

      .cls-2 {
        isolation: isolate;
        opacity: .2;
      }

      .cls-3 {
        fill: #2f2e41;
      }

      .cls-4 {
        fill: #3f3d56;
      }

      .cls-5 {
        fill: #ccc;
      }

      .cls-6 {
        fill: #ffb8b8;
      }

      .cls-7 {
        fill: #f2f2f2;
      }

      .cls-8 {
        fill: #6c63ff;
      }
    </style>
  </defs>
  <!-- Generator: Adobe Illustrator 28.7.1, SVG Export Plug-In . SVG Version: 1.2.0 Build 142)  -->
  <g>
    <g id="Layer_1">
      <path class="cls-7" d="M567,457.4v78.8h-197.5c-22.5,0-40.8-17.7-40.8-39.4s18.3-39.4,40.8-39.4h197.5Z"/>
      <path class="cls-8" d="M571.8,535.6c0,1.7-1.4,3-3,3h-202.8c-22.9,0-41.5-18.6-41.5-41.5s18.6-41.5,41.5-41.5h202.8c1.7,0,3,1.4,3,3s-1.4,3-3,3h-202.8c-19.6,0-35.5,15.9-35.5,35.5s15.9,35.5,35.5,35.5h202.8c1.7,0,3,1.4,3,3Z"/>
      <path class="cls-5" d="M567,475.6h-212.2c-.3,0-.6-.3-.6-.6s.3-.6.6-.6h212.2c.3,0,.6.3.6.6s-.3.6-.6.6Z"/>
      <path class="cls-5" d="M567,490.2h-212.2c-.3,0-.6-.3-.6-.6s.3-.6.6-.6h212.2c.3,0,.6.3.6.6s-.3.6-.6.6Z"/>
      <path class="cls-5" d="M567,504.7h-212.2c-.3,0-.6-.3-.6-.6s.3-.6.6-.6h212.2c.3,0,.6.3.6.6s-.3.6-.6.6Z"/>
      <path class="cls-5" d="M567,519.3h-212.2c-.3,0-.6-.3-.6-.6s.3-.6.6-.6h212.2c.3,0,.6.3.6.6s-.3.6-.6.6Z"/>
      <path class="cls-7" d="M719.6,472.3l-49.5,61.4-153.8-123.9c-17.5-14.1-20.7-39.4-7-56.3s39-19.2,56.5-5.1l153.8,123.9Z"/>
      <path class="cls-5" d="M674.3,536.2c-1.1,1.3-3,1.5-4.3.5l-157.9-127.2c-17.9-14.4-20.7-40.5-6.3-58.4,14.4-17.9,40.5-20.7,58.4-6.3l157.9,127.2c1.3,1.1,1.5,3,.5,4.3s-3,1.5-4.3.5h0l-157.9-127.2c-15.3-12.3-37.6-9.9-49.9,5.4-12.3,15.3-9.9,37.6,5.4,49.9l157.9,127.2c1.3,1.1,1.5,3,.5,4.3Z"/>
      <path class="cls-5" d="M708.2,486.4l-165.2-133.1c-.3-.2-.3-.6,0-.9.2-.3.6-.3.9,0,0,0,0,0,0,0l165.2,133.1c.3.2.3.6,0,.9-.2.3-.6.3-.9,0,0,0,0,0,0,0h0Z"/>
      <path class="cls-5" d="M699.1,497.8l-165.2-133.1c-.3-.2-.3-.6,0-.9.2-.3.6-.3.9,0l165.2,133.1c.3.2.3.6,0,.9-.2.3-.6.3-.9,0,0,0,0,0,0,0Z"/>
      <path class="cls-5" d="M689.9,509.1l-165.2-133.1c-.3-.2-.3-.6,0-.9.2-.3.6-.3.9,0l165.2,133.1c.3.2.3.6,0,.9-.2.3-.6.3-.9,0,0,0,0,0,0,0Z"/>
      <path class="cls-5" d="M680.8,520.4l-165.2-133.1c-.3-.2-.3-.6,0-.9.2-.3.6-.3.9,0,0,0,0,0,0,0l165.2,133.1c.3.2.3.6,0,.9-.2.3-.6.3-.9,0,0,0,0,0,0,0Z"/>
      <path class="cls-5" d="M730,539.3h-449.9c-.3,0-.6-.3-.6-.6s.3-.6.6-.6h449.9c.3,0,.6.3.6.6s-.3.6-.6.6Z"/>
      <polygon class="cls-6" points="484.5 449.2 477.6 449.2 474.3 422.4 484.5 422.4 484.5 449.2"/>
      <path class="cls-3" d="M472.6,447.2h13.4v8.4h-21.8c0-4.6,3.8-8.4,8.4-8.4h0Z"/>
      <polygon class="cls-6" points="413.7 449.2 406.8 449.2 403.5 422.4 413.7 422.4 413.7 449.2"/>
      <path class="cls-3" d="M401.8,447.2h13.4v8.4h-21.8c0-4.6,3.8-8.4,8.4-8.4h0Z"/>
      <path class="cls-3" d="M436.9,250.8v-3c0-10.8,8.8-19.6,19.6-19.6h0c10.8,0,19.6,8.8,19.6,19.6h0v3c0,7.8-6.3,14.1-14.1,14.1h-10.9c-7.8,0-14.1-6.3-14.1-14.1h0Z"/>
      <circle class="cls-6" cx="456.4" cy="251.1" r="14.9"/>
      <path class="cls-6" d="M526,331.2"/>
      <path class="cls-6" d="M375.4,302.3c2.3-2.2,5.9-2.1,8,.2.2.2.4.5.6.8l12.8-2.4,3.4,7.4-18.1,3.2c-2.7,1.6-6.2.6-7.8-2.2-1.3-2.3-.9-5.2,1.1-7Z"/>
      <path class="cls-5" d="M444.8,275.4l.2.3-20.9,13.8-35.3,11.3c-1,.3-1.6,1.3-1.5,2.3l.8,6.6c.1,1.2,1.2,2,2.4,1.9,0,0,.1,0,.2,0l33.2-7.1c1.6-.3,3.1-1,4.5-2l23.5-16.7c1.7-1.2,2.7-3.3,2.5-5.4-.3-3.3-3.2-5.8-6.5-5.5-1,0-2,.4-2.8,1l-.2-.3Z"/>
      <path class="cls-3" d="M477.7,441.6c-1.1,0-2.1-.6-2.5-1.6l-31.8-78.5c-.2-.5-.7-.7-1.2-.5-.2.1-.4.3-.5.6l-25.9,76.4c-.4,1.4-2,2.2-3.4,1.8,0,0-.1,0-.2,0l-8.7-3.3c-1-.4-1.6-1.2-1.8-2.2-3.9-34.1,30.2-120.1,30.5-120.9v-.2c0,0,31.2,6.9,31.2,6.9h0c12.4,13.6,22.6,98.9,24.5,115.9.1,1.3-.6,2.5-1.8,2.9l-7.7,2.7c-.3.1-.6.2-.9.2Z"/>
      <path class="cls-5" d="M450.9,322.7c-7.5,0-15.9-1.5-18.5-7.7h0c0-.1,0-.3,0-.3,2-3.3,4.7-9.1,3.3-10.1-2.9-2.1-4.2-5.6-4.1-10.3.3-10.3,7.3-19.4,17.4-22.7h0c2.8-.9,5.7-1.7,8.6-2.2,4.3-.9,8.8.2,12.2,3,3.5,2.8,5.5,7,5.5,11.4.1,11-1.6,26.3-10.3,36.8-.4.5-1,.8-1.6.9-4.2.8-8.4,1.1-12.6,1.2Z"/>
      <path class="cls-6" d="M448.1,322.3c.9-3.1,4-4.9,7.1-4,.3,0,.6.2.9.3l9.7-8.8,6.7,4.5-13.9,12.3c-1.3,2.3-4,3.5-6.6,2.8-3-.8-4.8-4-4-7,0,0,0,0,0,0Z"/>
      <path class="cls-5" d="M464.2,322.4c-.6,0-1.2-.2-1.7-.6l-3.8-3.1c-1.2-1-1.3-2.7-.4-3.8.1-.2.3-.3.5-.4l16-12.3c.4-.3.5-.9.2-1.3l-9.9-13.1c-2.4-3.1-2.1-7.5.5-10.4h0c2.8-3.1,7.6-3.4,10.8-.9h0c0,0,10.3,14.9,10.3,14.9,4,3.1,4.7,8.9,1.6,12.9-.5.7-1.1,1.2-1.8,1.7l-20.8,15.8c-.5.3-1,.5-1.6.5Z"/>
      <path class="cls-3" d="M443.2,246.9v-7.4l13.2-5.8,12.6,5.8v7.4c0,.7-.5,1.2-1.2,1.2h-23.3c-.7,0-1.2-.5-1.2-1.2Z"/>
      <path class="cls-3" d="M455.8,229.2c-1.9-6.2,2.1-13.3,8.2-15.8s13.2-.7,18.3,3.3,8.2,10.1,9.9,16.4c1.7,6.3,2,12.8,2.3,19.3,7.4,1.4,12.4,10.1,9.9,17.2-2.6,7.1-12,10.6-18.6,6.9s-8.4-13.6-3.7-19.5c5.6-6.9,4.5-16.9-2.4-22.5-4.6-3.7-10.8-4.6-16.2-2.3-3.6,1.5-8.2-2.4-7.6-3.1Z"/>
      <path class="cls-8" d="M372.7,273.6c-8.9,0-17.6-2-25.7-5.6-1-.4-1.6-1.4-1.6-2.5v-22.1c0-1.5,1.2-2.7,2.7-2.7h49.1c1.5,0,2.7,1.2,2.7,2.7v22.1c0,1.1-.6,2.1-1.6,2.5h0c-8.1,3.6-16.8,5.6-25.7,5.6Z"/>
      <path class="cls-8" d="M372.7,255.7c-.4,0-.7,0-1.1-.2l-38.9-16.4c-1.4-.6-2-2.2-1.5-3.6.3-.7.8-1.2,1.5-1.5l38.9-14.8c.6-.2,1.3-.2,1.9,0l38.4,14.8c1.4.5,2.1,2.1,1.6,3.5-.3.7-.8,1.2-1.5,1.5l-38.4,16.4c-.3.1-.7.2-1.1.2Z"/>
      <circle class="cls-4" cx="349.9" cy="265.9" r="3.6"/>
      <path class="cls-2" d="M412.3,236.7l-38.4,16.4c-.6.3-1.3.3-1.9,0l-38.9-16.4c-.5-.2-.9-.6-1.2-1-.7,1.2-.3,2.6.9,3.3,0,0,.2,0,.3.1l38.9,16.4c.6.3,1.3.3,1.9,0l38.4-16.4c1.2-.5,1.8-1.9,1.3-3.2,0,0,0-.2-.1-.3-.3.5-.7.8-1.1,1Z"/>
      <path class="cls-4" d="M350.2,265.8c.3,0,.6-.3.6-.6v-20.3l20-7.3c.3,0,.6-.3.6-.6s-.3-.6-.6-.6l-20,7.3c-.3,0-.6.1-.9.3-.2.2-.4.5-.4.9v20.3c0,.3.3.6.6.6Z"/>
      <g>
        <path d="M94.1,187.6v6.6h-.8v-6.6h.8Z"/>
        <path d="M99.6,187.2v5.7c0,.4,0,.9,0,1.2h-.8v-.8h0c-.3.5-.8.9-1.6.9-1.1,0-2-1-2-2.4,0-1.6,1-2.5,2.1-2.5s1.2.3,1.4.7h0v-2.8h.9ZM98.7,191.3c0-.1,0-.3,0-.4-.1-.5-.6-1-1.2-1s-1.4.8-1.4,1.8.5,1.7,1.4,1.7,1.1-.4,1.3-1c0-.1,0-.2,0-.4v-.8Z"/>
        <path d="M101.5,191.9c0,1.2.8,1.6,1.6,1.6s1-.1,1.3-.2v.6c-.2.1-.7.3-1.4.3-1.4,0-2.3-1-2.3-2.4s.8-2.5,2.2-2.5,1.9,1.4,1.9,2.2,0,.3,0,.4h-3.3ZM104,191.3c0-.5-.2-1.4-1.2-1.4s-1.2.8-1.3,1.4h2.5Z"/>
        <path d="M107.8,193.3c.3.2.7.3,1.1.3.6,0,.9-.3.9-.7s-.2-.6-.9-.9c-.8-.3-1.2-.8-1.2-1.3s.6-1.4,1.6-1.4.9.1,1.2.3l-.2.6c-.2-.1-.5-.3-1-.3s-.8.3-.8.6.3.6.9.8c.8.3,1.2.7,1.2,1.4s-.6,1.4-1.8,1.4-1-.1-1.3-.3l.2-.7Z"/>
        <path d="M111.3,193.6l2.1-2.8c.2-.3.4-.5.6-.7h0s-2.5,0-2.5,0v-.7h3.6v.5s-2.1,2.7-2.1,2.7c-.2.3-.4.5-.6.7h0s2.8,0,2.8,0v.7h-3.8v-.5Z"/>
        <path d="M120.1,191.7c0,1.7-1.2,2.5-2.3,2.5s-2.3-.9-2.3-2.4,1-2.5,2.3-2.5,2.3,1,2.3,2.4ZM116.4,191.8c0,1,.6,1.8,1.4,1.8s1.4-.8,1.4-1.8-.4-1.8-1.4-1.8-1.4.9-1.4,1.8ZM116.9,188.6c-.3,0-.5-.2-.5-.5s.2-.5.5-.5.5.2.5.5-.2.5-.5.5h0ZM118.7,188.6c-.3,0-.5-.2-.5-.5s.2-.5.5-.5.5.2.5.5-.2.5-.5.5h0Z"/>
        <path d="M121.5,189.4l.9,2.6c.2.4.3.8.4,1.2h0c.1-.4.2-.8.4-1.2l.9-2.6h.9l-1.8,4.7h-.8l-1.8-4.7h.9Z"/>
        <path d="M126.2,191.9c0,1.2.8,1.6,1.6,1.6s1-.1,1.3-.2v.6c-.2.1-.7.3-1.4.3-1.4,0-2.3-1-2.3-2.4s.8-2.5,2.2-2.5,1.9,1.4,1.9,2.2,0,.3,0,.4h-3.3ZM128.7,191.3c0-.5-.2-1.4-1.2-1.4s-1.2.8-1.3,1.4h2.5Z"/>
        <path d="M134.6,193.4c0,1.1-.2,1.7-.7,2.1-.5.4-1.1.6-1.7.6s-1.2-.1-1.6-.4l.2-.7c.3.2.8.4,1.4.4.9,0,1.5-.5,1.5-1.6v-.5h0c-.3.4-.8.8-1.5.8-1.2,0-2-1-2-2.3s1-2.5,2.1-2.5,1.3.4,1.5.8h0v-.7h.8c0,.3,0,.7,0,1.3v2.7ZM133.8,191.3c0-.1,0-.3,0-.4-.2-.5-.6-.9-1.2-.9s-1.4.7-1.4,1.8.5,1.7,1.4,1.7,1-.3,1.2-.9c0-.1,0-.3,0-.5v-.8Z"/>
        <path d="M135.3,195.3c.2-.6.5-1.6.6-2.3h1c-.2.7-.7,1.8-.9,2.3h-.6Z"/>
        <path d="M139.9,187.2h.9v2.9h0c.1-.2.3-.5.6-.6.3-.1.6-.2.9-.2.6,0,1.6.4,1.6,2v2.8h-.9v-2.7c0-.8-.3-1.4-1.1-1.4s-1,.4-1.1.9c0,.1,0,.2,0,.4v2.8h-.9v-6.9Z"/>
        <path d="M149.6,191.7c0,1.7-1.2,2.5-2.3,2.5s-2.3-.9-2.3-2.4,1-2.5,2.3-2.5,2.3,1,2.3,2.4ZM145.9,191.8c0,1,.6,1.8,1.4,1.8s1.4-.8,1.4-1.8-.4-1.8-1.4-1.8-1.4.9-1.4,1.8Z"/>
        <path d="M154.7,193.4c0,1.1-.2,1.7-.7,2.1-.5.4-1.1.6-1.7.6s-1.2-.1-1.6-.4l.2-.7c.3.2.8.4,1.4.4.9,0,1.5-.5,1.5-1.6v-.5h0c-.3.4-.8.8-1.5.8-1.2,0-2-1-2-2.3s1-2.5,2.1-2.5,1.3.4,1.5.8h0v-.7h.8c0,.3,0,.7,0,1.3v2.7ZM153.8,191.3c0-.1,0-.3,0-.4-.2-.5-.6-.9-1.2-.9s-1.4.7-1.4,1.8.5,1.7,1.4,1.7,1-.3,1.2-.9c0-.1,0-.3,0-.5v-.8Z"/>
        <path d="M156.4,189.4l1,2.8c.1.3.2.7.3,1h0c0-.3.2-.6.3-1l.9-2.8h.9l-1.3,3.4c-.6,1.6-1,2.4-1.6,2.9-.4.4-.8.5-1,.6l-.2-.7c.2,0,.5-.2.7-.4.2-.2.5-.5.7-1,0,0,0-.2,0-.2s0-.1,0-.2l-1.7-4.3h.9Z"/>
        <path d="M162.7,190.7c0-.5,0-.9,0-1.3h.7v.8h0c.3-.4.7-.9,1.5-.9s1.1.4,1.3.9h0c.1-.3.3-.5.5-.6.3-.2.6-.3,1-.3s1.5.4,1.5,2v2.8h-.8v-2.7c0-.9-.3-1.4-1-1.4s-.9.4-1,.8c0,.1,0,.3,0,.4v2.9h-.8v-2.8c0-.7-.3-1.3-1-1.3s-.9.4-1.1.9c0,.1,0,.3,0,.4v2.8h-.8v-3.4Z"/>
        <path d="M171.8,188.1c0,.3-.2.5-.5.5s-.5-.2-.5-.5.2-.5.5-.5.5.2.5.5ZM170.8,194.1v-4.7h.9v4.7h-.9Z"/>
        <path d="M178.5,193c0,.4,0,.8,0,1.1h-.8v-.6h0c-.3.4-.8.7-1.4.7-1,0-1.4-.7-1.4-1.4,0-1.1,1-1.8,2.8-1.7h0c0-.5-.1-1.2-1.1-1.2s-.9.1-1.2.4l-.2-.6c.4-.3,1-.4,1.5-.4,1.4,0,1.8,1,1.8,1.9v1.8ZM177.7,191.7c-.9,0-2,.1-2,1.1s.4.8.8.8,1-.4,1.1-.8c0,0,0-.2,0-.3v-.8Z"/>
        <path d="M181.9,191c0-.6,0-1.1,0-1.5h.8v.8h0c.3-.6.9-.9,1.7-.9,1.1,0,2,1,2,2.4s-1,2.5-2.1,2.5-1.2-.3-1.4-.7h0v2.6h-.8v-5.1ZM182.8,192.2c0,.1,0,.2,0,.4.2.6.7,1,1.3,1,.9,0,1.4-.7,1.4-1.8s-.5-1.7-1.4-1.7-1.1.4-1.3,1.1c0,.1,0,.2,0,.3v.8Z"/>
        <path d="M187.5,190.9c0-.6,0-1,0-1.5h.7v.9h0c.2-.6.7-1,1.3-1s.2,0,.2,0v.8c0,0-.2,0-.3,0-.6,0-1,.5-1.1,1.1,0,.1,0,.3,0,.4v2.5h-.8v-3.2Z"/>
        <path d="M194.8,191.7c0,1.7-1.2,2.5-2.3,2.5s-2.3-.9-2.3-2.4,1-2.5,2.3-2.5,2.3,1,2.3,2.4ZM191.1,191.8c0,1,.6,1.8,1.4,1.8s1.4-.8,1.4-1.8-.4-1.8-1.4-1.8-1.4.9-1.4,1.8Z"/>
        <path d="M195.9,187.2h.8v3h0c.3-.5.8-.9,1.6-.9,1.2,0,2,1,2,2.4,0,1.7-1.1,2.5-2.1,2.5s-1.2-.3-1.6-.9h0v.8h-.8c0-.3,0-.8,0-1.2v-5.7ZM196.7,192.2c0,.1,0,.2,0,.3.2.6.7,1,1.3,1,.9,0,1.4-.7,1.4-1.8s-.5-1.7-1.4-1.7-1.1.4-1.3,1c0,0,0,.2,0,.3v.8Z"/>
        <path d="M201.4,187.2h.9v6.9h-.9v-6.9Z"/>
        <path d="M204.2,191.9c0,1.2.8,1.6,1.6,1.6s1-.1,1.3-.2v.6c-.2.1-.7.3-1.4.3-1.4,0-2.3-1-2.3-2.4s.8-2.5,2.2-2.5,1.9,1.4,1.9,2.2,0,.3,0,.4h-3.3ZM206.7,191.3c0-.5-.2-1.4-1.2-1.4s-1.2.8-1.3,1.4h2.5ZM206.9,187.4l-1.2,1.4h-.6l.9-1.4h.9Z"/>
        <path d="M208.6,190.7c0-.5,0-.9,0-1.3h.7v.8h0c.3-.4.7-.9,1.5-.9s1.1.4,1.3.9h0c.1-.3.3-.5.5-.6.3-.2.6-.3,1-.3s1.5.4,1.5,2v2.8h-.8v-2.7c0-.9-.3-1.4-1-1.4s-.9.4-1,.8c0,.1,0,.3,0,.4v2.9h-.8v-2.8c0-.7-.3-1.3-1-1.3s-.9.4-1.1.9c0,.1,0,.3,0,.4v2.8h-.8v-3.4Z"/>
        <path d="M220,193c0,.4,0,.8,0,1.1h-.8v-.6h0c-.3.4-.8.7-1.4.7-1,0-1.4-.7-1.4-1.4,0-1.1,1-1.8,2.8-1.7h0c0-.5-.1-1.2-1.1-1.2s-.9.1-1.2.4l-.2-.6c.4-.3,1-.4,1.5-.4,1.4,0,1.8,1,1.8,1.9v1.8ZM219.1,191.7c-.9,0-2,.1-2,1.1s.4.8.8.8,1-.4,1.1-.8c0,0,0-.2,0-.3v-.8Z"/>
        <path d="M220.8,195.3c.2-.6.5-1.6.6-2.3h1c-.2.7-.7,1.8-.9,2.3h-.6Z"/>
        <path d="M93.7,203.6c0,1.2.8,1.6,1.6,1.6s1-.1,1.3-.2v.6c-.2.1-.7.3-1.4.3-1.4,0-2.3-1-2.3-2.4s.8-2.5,2.2-2.5,1.9,1.4,1.9,2.2,0,.3,0,.4h-3.3ZM96.2,203c0-.5-.2-1.4-1.2-1.4s-1.2.8-1.3,1.4h2.5ZM96.4,199.1l-1.2,1.4h-.6l.9-1.4h.9Z"/>
        <path d="M98,204.9c.3.2.7.3,1.1.3.6,0,.9-.3.9-.7s-.2-.6-.9-.9c-.8-.3-1.2-.8-1.2-1.3s.6-1.4,1.6-1.4.9.1,1.2.3l-.2.6c-.2-.1-.5-.3-1-.3s-.8.3-.8.6.3.6.9.8c.8.3,1.2.7,1.2,1.4s-.6,1.4-1.8,1.4-1-.1-1.3-.3l.2-.7Z"/>
        <path d="M104.5,203.6c0,1.2.8,1.6,1.6,1.6s1-.1,1.3-.2v.6c-.2.1-.7.3-1.4.3-1.4,0-2.3-1-2.3-2.4s.8-2.5,2.2-2.5,1.9,1.4,1.9,2.2,0,.3,0,.4h-3.3ZM107,203c0-.5-.2-1.4-1.2-1.4s-1.2.8-1.3,1.4h2.5Z"/>
        <path d="M108.9,202.6c0-.6,0-1,0-1.5h.7v.9h0c.2-.6.7-1,1.3-1s.2,0,.2,0v.8c0,0-.2,0-.3,0-.6,0-1,.5-1.1,1.1,0,.1,0,.3,0,.4v2.5h-.8v-3.2Z"/>
        <path d="M112.1,202.6c0-.6,0-1,0-1.5h.7v.9h0c.2-.6.7-1,1.3-1s.2,0,.2,0v.8c0,0-.2,0-.3,0-.6,0-1,.5-1.1,1.1,0,.1,0,.3,0,.4v2.5h-.8v-3.2Z"/>
        <path d="M115.6,203.6c0,1.2.8,1.6,1.6,1.6s1-.1,1.3-.2v.6c-.2.1-.7.3-1.4.3-1.4,0-2.3-1-2.3-2.4s.8-2.5,2.2-2.5,1.9,1.4,1.9,2.2,0,.3,0,.4h-3.3ZM118.1,203c0-.5-.2-1.4-1.2-1.4s-1.2.8-1.3,1.4h2.5Z"/>
        <path d="M125.4,204.7c0,.4,0,.8,0,1.1h-.8v-.6h0c-.3.4-.8.7-1.4.7-1,0-1.4-.7-1.4-1.4,0-1.1,1-1.8,2.8-1.7h0c0-.5-.1-1.2-1.1-1.2s-.9.1-1.2.4l-.2-.6c.4-.3,1-.4,1.5-.4,1.4,0,1.8,1,1.8,1.9v1.8ZM124.6,203.4c-.9,0-2,.1-2,1.1s.4.8.8.8,1-.4,1.1-.8c0,0,0-.2,0-.3v-.8Z"/>
        <path d="M128.8,202.4c0-.5,0-.9,0-1.3h.7v.8h0c.3-.4.7-.9,1.5-.9s1.1.4,1.3.9h0c.1-.3.3-.5.5-.6.3-.2.6-.3,1-.3s1.5.4,1.5,2v2.8h-.8v-2.7c0-.9-.3-1.4-1-1.4s-.9.4-1,.8c0,.1,0,.3,0,.4v2.9h-.8v-2.8c0-.7-.3-1.3-1-1.3s-.9.4-1.1.9c0,.1,0,.3,0,.4v2.8h-.8v-3.4Z"/>
        <path d="M137.4,203.6c0,1.2.8,1.6,1.6,1.6s1-.1,1.3-.2v.6c-.2.1-.7.3-1.4.3-1.4,0-2.3-1-2.3-2.4s.8-2.5,2.2-2.5,1.9,1.4,1.9,2.2,0,.3,0,.4h-3.3ZM139.9,203c0-.5-.2-1.4-1.2-1.4s-1.2.8-1.3,1.4h2.5Z"/>
        <path d="M145.8,205.1c0,1.1-.2,1.7-.7,2.1-.5.4-1.1.6-1.7.6s-1.2-.1-1.6-.4l.2-.7c.3.2.8.4,1.4.4.9,0,1.5-.5,1.5-1.6v-.5h0c-.3.4-.8.8-1.5.8-1.2,0-2-1-2-2.3s1-2.5,2.1-2.5,1.3.4,1.5.8h0v-.7h.8c0,.3,0,.7,0,1.3v2.7ZM145,202.9c0-.1,0-.3,0-.4-.2-.5-.6-.9-1.2-.9s-1.4.7-1.4,1.8.5,1.7,1.4,1.7,1-.3,1.2-.9c0-.1,0-.3,0-.5v-.8Z"/>
        <path d="M151.5,203.4c0,1.7-1.2,2.5-2.3,2.5s-2.3-.9-2.3-2.4,1-2.5,2.3-2.5,2.3,1,2.3,2.4ZM147.7,203.4c0,1,.6,1.8,1.4,1.8s1.4-.8,1.4-1.8-.4-1.8-1.4-1.8-1.4.9-1.4,1.8Z"/>
        <path d="M152.6,198.9h.9v6.9h-.9v-6.9Z"/>
        <path d="M158.9,198.9v5.7c0,.4,0,.9,0,1.2h-.8v-.8h0c-.3.5-.8.9-1.6.9-1.1,0-2-1-2-2.4,0-1.6,1-2.5,2.1-2.5s1.2.3,1.4.7h0v-2.8h.9ZM158.1,203c0-.1,0-.3,0-.4-.1-.5-.6-1-1.2-1s-1.4.8-1.4,1.8.5,1.7,1.4,1.7,1.1-.4,1.3-1c0-.1,0-.2,0-.4v-.8Z"/>
        <path d="M163.6,204.7c0,.4,0,.8,0,1.1h-.8v-.6h0c-.3.4-.8.7-1.4.7-1,0-1.4-.7-1.4-1.4,0-1.1,1-1.8,2.8-1.7h0c0-.5-.1-1.2-1.1-1.2s-.9.1-1.2.4l-.2-.6c.4-.3,1-.4,1.5-.4,1.4,0,1.8,1,1.8,1.9v1.8ZM162.8,203.4c-.9,0-2,.1-2,1.1s.4.8.8.8,1-.4,1.1-.8c0,0,0-.2,0-.3v-.8ZM163.2,199.1l-1.2,1.4h-.6l.9-1.4h.9Z"/>
        <path d="M164.9,204.9c.3.2.7.3,1.1.3.6,0,.9-.3.9-.7s-.2-.6-.9-.9c-.8-.3-1.2-.8-1.2-1.3s.6-1.4,1.6-1.4.9.1,1.2.3l-.2.6c-.2-.1-.5-.3-1-.3s-.8.3-.8.6.3.6.9.8c.8.3,1.2.7,1.2,1.4s-.6,1.4-1.8,1.4-1-.1-1.3-.3l.2-.7Z"/>
        <path d="M168.2,207c.2-.6.5-1.6.6-2.3h1c-.2.7-.7,1.8-.9,2.3h-.6Z"/>
        <path d="M173.2,201.1l.9,2.6c.2.4.3.8.4,1.2h0c.1-.4.2-.8.4-1.2l.9-2.6h.9l-1.8,4.7h-.8l-1.8-4.7h.9Z"/>
        <path d="M180.8,204.7c0,.4,0,.8,0,1.1h-.8v-.6h0c-.3.4-.8.7-1.4.7-1,0-1.4-.7-1.4-1.4,0-1.1,1-1.8,2.8-1.7h0c0-.5-.1-1.2-1.1-1.2s-.9.1-1.2.4l-.2-.6c.4-.3,1-.4,1.5-.4,1.4,0,1.8,1,1.8,1.9v1.8ZM179.9,203.4c-.9,0-2,.1-2,1.1s.4.8.8.8,1-.4,1.1-.8c0,0,0-.2,0-.3v-.8Z"/>
        <path d="M186.2,205.1c0,1.1-.2,1.7-.7,2.1-.5.4-1.1.6-1.7.6s-1.2-.1-1.6-.4l.2-.7c.3.2.8.4,1.4.4.9,0,1.5-.5,1.5-1.6v-.5h0c-.3.4-.8.8-1.5.8-1.2,0-2-1-2-2.3s1-2.5,2.1-2.5,1.3.4,1.5.8h0v-.7h.8c0,.3,0,.7,0,1.3v2.7ZM185.3,202.9c0-.1,0-.3,0-.4-.2-.5-.6-.9-1.2-.9s-1.4.7-1.4,1.8.5,1.7,1.4,1.7,1-.3,1.2-.9c0-.1,0-.3,0-.5v-.8Z"/>
        <path d="M187.9,201.1l1,2.8c.1.3.2.7.3,1h0c0-.3.2-.6.3-1l.9-2.8h.9l-1.3,3.4c-.6,1.6-1,2.4-1.6,2.9-.4.4-.8.5-1,.6l-.2-.7c.2,0,.5-.2.7-.4.2-.2.5-.5.7-1,0,0,0-.2,0-.2s0-.1,0-.2l-1.7-4.3h.9Z"/>
        <path d="M197.6,205.6c-.2.1-.7.3-1.4.3-1.4,0-2.3-1-2.3-2.4s1-2.5,2.5-2.5,1,.1,1.2.2l-.2.7c-.2-.1-.5-.2-1-.2-1.1,0-1.7.8-1.7,1.8s.7,1.8,1.6,1.8.8-.1,1-.2v.6Z"/>
        <path d="M198.5,204.9c.3.2.7.3,1.1.3.6,0,.9-.3.9-.7s-.2-.6-.9-.9c-.8-.3-1.2-.8-1.2-1.3s.6-1.4,1.6-1.4.9.1,1.2.3l-.2.6c-.2-.1-.5-.3-1-.3s-.8.3-.8.6.3.6.9.8c.8.3,1.2.7,1.2,1.4s-.6,1.4-1.8,1.4-1-.1-1.3-.3l.2-.7Z"/>
        <path d="M205.7,204.7c0,.4,0,.8,0,1.1h-.8v-.6h0c-.3.4-.8.7-1.4.7-1,0-1.4-.7-1.4-1.4,0-1.1,1-1.8,2.8-1.7h0c0-.5-.1-1.2-1.1-1.2s-.9.1-1.2.4l-.2-.6c.4-.3,1-.4,1.5-.4,1.4,0,1.8,1,1.8,1.9v1.8ZM204.9,203.4c-.9,0-2,.1-2,1.1s.4.8.8.8,1-.4,1.1-.8c0,0,0-.2,0-.3v-.8Z"/>
        <path d="M207.9,203.2h0c.1-.2.3-.4.4-.5l1.4-1.6h1l-1.8,1.9,2.1,2.8h-1l-1.6-2.3-.4.5v1.8h-.8v-6.9h.8v4.4Z"/>
        <path d="M219.1,204.7c0,.4,0,.8,0,1.1h-.8v-.6h0c-.3.4-.8.7-1.4.7-1,0-1.4-.7-1.4-1.4,0-1.1,1-1.8,2.8-1.7h0c0-.5-.1-1.2-1.1-1.2s-.9.1-1.2.4l-.2-.6c.4-.3,1-.4,1.5-.4,1.4,0,1.8,1,1.8,1.9v1.8ZM218.3,203.4c-.9,0-2,.1-2,1.1s.4.8.8.8,1-.4,1.1-.8c0,0,0-.2,0-.3v-.8Z"/>
        <path d="M220.5,202.4c0-.5,0-.9,0-1.3h.7v.8h0c.3-.4.7-.9,1.5-.9s1.1.4,1.3.9h0c.1-.3.3-.5.5-.6.3-.2.6-.3,1-.3s1.5.4,1.5,2v2.8h-.8v-2.7c0-.9-.3-1.4-1-1.4s-.9.4-1,.8c0,.1,0,.3,0,.4v2.9h-.8v-2.8c0-.7-.3-1.3-1-1.3s-.9.4-1.1.9c0,.1,0,.3,0,.4v2.8h-.8v-3.4Z"/>
        <path d="M229,203.6c0,1.2.8,1.6,1.6,1.6s1-.1,1.3-.2v.6c-.2.1-.7.3-1.4.3-1.4,0-2.3-1-2.3-2.4s.8-2.5,2.2-2.5,1.9,1.4,1.9,2.2,0,.3,0,.4h-3.3ZM231.5,203c0-.5-.2-1.4-1.2-1.4s-1.2.8-1.3,1.4h2.5Z"/>
        <path d="M237.4,205.1c0,1.1-.2,1.7-.7,2.1-.5.4-1.1.6-1.7.6s-1.2-.1-1.6-.4l.2-.7c.3.2.8.4,1.4.4.9,0,1.5-.5,1.5-1.6v-.5h0c-.3.4-.8.8-1.5.8-1.2,0-2-1-2-2.3s1-2.5,2.1-2.5,1.3.4,1.5.8h0v-.7h.8c0,.3,0,.7,0,1.3v2.7ZM236.6,202.9c0-.1,0-.3,0-.4-.2-.5-.6-.9-1.2-.9s-1.4.7-1.4,1.8.5,1.7,1.4,1.7,1-.3,1.2-.9c0-.1,0-.3,0-.5v-.8Z"/>
        <path d="M243.1,203.4c0,1.7-1.2,2.5-2.3,2.5s-2.3-.9-2.3-2.4,1-2.5,2.3-2.5,2.3,1,2.3,2.4ZM239.4,203.4c0,1,.6,1.8,1.4,1.8s1.4-.8,1.4-1.8-.4-1.8-1.4-1.8-1.4.9-1.4,1.8Z"/>
        <path d="M244.2,198.9h.9v6.9h-.9v-6.9Z"/>
        <path d="M250.6,198.9v5.7c0,.4,0,.9,0,1.2h-.8v-.8h0c-.3.5-.8.9-1.6.9-1.1,0-2-1-2-2.4,0-1.6,1-2.5,2.1-2.5s1.2.3,1.4.7h0v-2.8h.9ZM249.7,203c0-.1,0-.3,0-.4-.1-.5-.6-1-1.2-1s-1.4.8-1.4,1.8.5,1.7,1.4,1.7,1.1-.4,1.3-1c0-.1,0-.2,0-.4v-.8Z"/>
        <path d="M255.3,204.7c0,.4,0,.8,0,1.1h-.8v-.6h0c-.3.4-.8.7-1.4.7-1,0-1.4-.7-1.4-1.4,0-1.1,1-1.8,2.8-1.7h0c0-.5-.1-1.2-1.1-1.2s-.9.1-1.2.4l-.2-.6c.4-.3,1-.4,1.5-.4,1.4,0,1.8,1,1.8,1.9v1.8ZM254.5,203.4c-.9,0-2,.1-2,1.1s.4.8.8.8,1-.4,1.1-.8c0,0,0-.2,0-.3v-.8ZM254.9,199.1l-1.2,1.4h-.6l.9-1.4h.9Z"/>
        <path d="M256.5,204.9c.3.2.7.3,1.1.3.6,0,.9-.3.9-.7s-.2-.6-.9-.9c-.8-.3-1.2-.8-1.2-1.3s.6-1.4,1.6-1.4.9.1,1.2.3l-.2.6c-.2-.1-.5-.3-1-.3s-.8.3-.8.6.3.6.9.8c.8.3,1.2.7,1.2,1.4s-.6,1.4-1.8,1.4-1-.1-1.3-.3l.2-.7Z"/>
        <path d="M259.9,207c.2-.6.5-1.6.6-2.3h1c-.2.7-.7,1.8-.9,2.3h-.6Z"/>
        <path d="M93.5,212.7l.9,2.6c.2.4.3.8.4,1.2h0c.1-.4.2-.8.4-1.2l.9-2.6h.9l-1.8,4.7h-.8l-1.8-4.7h.9Z"/>
        <path d="M101.1,216.3c0,.4,0,.8,0,1.1h-.8v-.6h0c-.3.4-.8.7-1.4.7-1,0-1.4-.7-1.4-1.4,0-1.1,1-1.8,2.8-1.7h0c0-.5-.1-1.2-1.1-1.2s-.9.1-1.2.4l-.2-.6c.4-.3,1-.4,1.5-.4,1.4,0,1.8,1,1.8,1.9v1.8ZM100.3,215c-.9,0-2,.1-2,1.1s.4.8.8.8,1-.4,1.1-.8c0,0,0-.2,0-.3v-.8Z"/>
        <path d="M106.5,216.8c0,1.1-.2,1.7-.7,2.1-.5.4-1.1.6-1.7.6s-1.2-.1-1.6-.4l.2-.7c.3.2.8.4,1.4.4.9,0,1.5-.5,1.5-1.6v-.5h0c-.3.4-.8.8-1.5.8-1.2,0-2-1-2-2.3s1-2.5,2.1-2.5,1.3.4,1.5.8h0v-.7h.8c0,.3,0,.7,0,1.3v2.7ZM105.7,214.6c0-.1,0-.3,0-.4-.2-.5-.6-.9-1.2-.9s-1.4.7-1.4,1.8.5,1.7,1.4,1.7,1-.3,1.2-.9c0-.1,0-.3,0-.5v-.8Z"/>
        <path d="M108.3,212.7l1,2.8c.1.3.2.7.3,1h0c0-.3.2-.6.3-1l.9-2.8h.9l-1.3,3.4c-.6,1.6-1,2.4-1.6,2.9-.4.4-.8.5-1,.6l-.2-.7c.2,0,.5-.2.7-.4.2-.2.5-.5.7-1,0,0,0-.2,0-.2s0-.1,0-.2l-1.7-4.3h.9Z"/>
        <path d="M117.9,217.3c-.2.1-.7.3-1.4.3-1.4,0-2.3-1-2.3-2.4s1-2.5,2.5-2.5,1,.1,1.2.2l-.2.7c-.2-.1-.5-.2-1-.2-1.1,0-1.7.8-1.7,1.8s.7,1.8,1.6,1.8.8-.1,1-.2v.6Z"/>
        <path d="M118.8,216.6c.3.2.7.3,1.1.3.6,0,.9-.3.9-.7s-.2-.6-.9-.9c-.8-.3-1.2-.8-1.2-1.3s.6-1.4,1.6-1.4.9.1,1.2.3l-.2.6c-.2-.1-.5-.3-1-.3s-.8.3-.8.6.3.6.9.8c.8.3,1.2.7,1.2,1.4s-.6,1.4-1.8,1.4-1-.1-1.3-.3l.2-.7Z"/>
        <path d="M126.1,216.3c0,.4,0,.8,0,1.1h-.8v-.6h0c-.3.4-.8.7-1.4.7-1,0-1.4-.7-1.4-1.4,0-1.1,1-1.8,2.8-1.7h0c0-.5-.1-1.2-1.1-1.2s-.9.1-1.2.4l-.2-.6c.4-.3,1-.4,1.5-.4,1.4,0,1.8,1,1.8,1.9v1.8ZM125.3,215c-.9,0-2,.1-2,1.1s.4.8.8.8,1-.4,1.1-.8c0,0,0-.2,0-.3v-.8Z"/>
        <path d="M128.3,214.9h0c.1-.2.3-.4.4-.5l1.4-1.6h1l-1.8,1.9,2.1,2.8h-1l-1.6-2.3-.4.5v1.8h-.8v-6.9h.8v4.4Z"/>
        <path d="M134.9,214.9h0c.1-.2.3-.4.4-.5l1.4-1.6h1l-1.8,1.9,2.1,2.8h-1l-1.6-2.3-.4.5v1.8h-.8v-6.9h.8v4.4Z"/>
        <path d="M139.1,215.3c0,1.2.8,1.6,1.6,1.6s1-.1,1.3-.2v.6c-.2.1-.7.3-1.4.3-1.4,0-2.3-1-2.3-2.4s.8-2.5,2.2-2.5,1.9,1.4,1.9,2.2,0,.3,0,.4h-3.3ZM141.6,214.6c0-.5-.2-1.4-1.2-1.4s-1.2.8-1.3,1.4h2.5ZM141.8,210.7l-1.2,1.4h-.6l.9-1.4h.9Z"/>
        <path d="M143.5,214.2c0-.6,0-1,0-1.5h.7v.9h0c.2-.6.7-1,1.3-1s.2,0,.2,0v.8c0,0-.2,0-.3,0-.6,0-1,.5-1.1,1.1,0,.1,0,.3,0,.4v2.5h-.8v-3.2Z"/>
        <path d="M150.7,210.5v5.7c0,.4,0,.9,0,1.2h-.8v-.8h0c-.3.5-.8.9-1.6.9-1.1,0-2-1-2-2.4,0-1.6,1-2.5,2.1-2.5s1.2.3,1.4.7h0v-2.8h.9ZM149.8,214.7c0-.1,0-.3,0-.4-.1-.5-.6-1-1.2-1s-1.4.8-1.4,1.8.5,1.7,1.4,1.7,1.1-.4,1.3-1c0-.1,0-.2,0-.4v-.8Z"/>
        <path d="M152.6,215.3c0,1.2.8,1.6,1.6,1.6s1-.1,1.3-.2v.6c-.2.1-.7.3-1.4.3-1.4,0-2.3-1-2.3-2.4s.8-2.5,2.2-2.5,1.9,1.4,1.9,2.2,0,.3,0,.4h-3.3ZM155.1,214.6c0-.5-.2-1.4-1.2-1.4s-1.2.8-1.3,1.4h2.5ZM155.3,210.7l-1.2,1.4h-.6l.9-1.4h.9Z"/>
        <path d="M156.8,216.6c.3.2.7.3,1.1.3.6,0,.9-.3.9-.7s-.2-.6-.9-.9c-.8-.3-1.2-.8-1.2-1.3s.6-1.4,1.6-1.4.9.1,1.2.3l-.2.6c-.2-.1-.5-.3-1-.3s-.8.3-.8.6.3.6.9.8c.8.3,1.2.7,1.2,1.4s-.6,1.4-1.8,1.4-1-.1-1.3-.3l.2-.7Z"/>
        <path d="M160.1,218.6c.2-.6.5-1.6.6-2.3h1c-.2.7-.7,1.8-.9,2.3h-.6Z"/>
        <path d="M164.6,216.6c.3.2.7.3,1.1.3.6,0,.9-.3.9-.7s-.2-.6-.9-.9c-.8-.3-1.2-.8-1.2-1.3s.6-1.4,1.6-1.4.9.1,1.2.3l-.2.6c-.2-.1-.5-.3-1-.3s-.8.3-.8.6.3.6.9.8c.8.3,1.2.7,1.2,1.4s-.6,1.4-1.8,1.4-1-.1-1.3-.3l.2-.7Z"/>
        <path d="M169.6,211.6v1.1h1.2v.7h-1.2v2.5c0,.6.2.9.6.9s.4,0,.5,0v.6c-.1,0-.4.1-.7.1s-.7-.1-.9-.4c-.2-.3-.3-.7-.3-1.2v-2.6h-.7v-.7h.7v-.9l.8-.3Z"/>
        <path d="M171.8,210.5h.8v3h0c.3-.5.8-.9,1.6-.9,1.2,0,2,1,2,2.4,0,1.7-1.1,2.5-2.1,2.5s-1.2-.3-1.6-.9h0v.8h-.8c0-.3,0-.8,0-1.2v-5.7ZM172.7,215.6c0,.1,0,.2,0,.3.2.6.7,1,1.3,1,.9,0,1.4-.7,1.4-1.8s-.5-1.7-1.4-1.7-1.1.4-1.3,1c0,0,0,.2,0,.3v.8Z"/>
        <path d="M177.5,217.6c-.3,0-.6-.3-.6-.6s.2-.6.6-.6.6.3.6.6-.2.6-.6.6h0Z"/>
        <path d="M182.1,211.4c0,.3-.2.5-.5.5s-.5-.2-.5-.5.2-.5.5-.5.5.2.5.5ZM181.2,217.4v-4.7h.9v4.7h-.9Z"/>
        <path d="M183.5,210.5h.9v6.9h-.9v-6.9Z"/>
        <path d="M186.1,212.7l1,2.8c.1.3.2.7.3,1h0c0-.3.2-.6.3-1l.9-2.8h.9l-1.3,3.4c-.6,1.6-1,2.4-1.6,2.9-.4.4-.8.5-1,.6l-.2-.7c.2,0,.5-.2.7-.4.2-.2.5-.5.7-1,0,0,0-.2,0-.2s0-.1,0-.2l-1.7-4.3h.9Z"/>
        <path d="M190.7,215.3c0,1.2.8,1.6,1.6,1.6s1-.1,1.3-.2v.6c-.2.1-.7.3-1.4.3-1.4,0-2.3-1-2.3-2.4s.8-2.5,2.2-2.5,1.9,1.4,1.9,2.2,0,.3,0,.4h-3.3ZM193.2,214.6c0-.5-.2-1.4-1.2-1.4s-1.2.8-1.3,1.4h2.5Z"/>
        <path d="M195,216.6c.3.2.7.3,1.1.3.6,0,.9-.3.9-.7s-.2-.6-.9-.9c-.8-.3-1.2-.8-1.2-1.3s.6-1.4,1.6-1.4.9.1,1.2.3l-.2.6c-.2-.1-.5-.3-1-.3s-.8.3-.8.6.3.6.9.8c.8.3,1.2.7,1.2,1.4s-.6,1.4-1.8,1.4-1-.1-1.3-.3l.2-.7Z"/>
        <path d="M199,214c0-.5,0-.9,0-1.3h.7v.8h0c.3-.4.7-.9,1.5-.9s1.1.4,1.3.9h0c.1-.3.3-.5.5-.6.3-.2.6-.3,1-.3s1.5.4,1.5,2v2.8h-.8v-2.7c0-.9-.3-1.4-1-1.4s-.9.4-1,.8c0,.1,0,.3,0,.4v2.9h-.8v-2.8c0-.7-.3-1.3-1-1.3s-.9.4-1.1.9c0,.1,0,.3,0,.4v2.8h-.8v-3.4Z"/>
        <path d="M208,211.4c0,.3-.2.5-.5.5s-.5-.2-.5-.5.2-.5.5-.5.5.2.5.5ZM207.1,217.4v-4.7h.9v4.7h-.9Z"/>
      </g>
      <g>
        <path class="cls-1" d="M93.1,98.5c0-3.3-.1-10.1-.2-12.6-.2-3.9-.4-4.2-.4-4.2.6-.2,1.2-.4,1.8-.4,1.8,0,3.5.9,3.5,2.5,0,4.6-.2,8.3-.2,11.3,0,5.1,0,7.9,0,11.8l7.3-.2c2.6,0,4.3-.4,5.3-.9,0,.4,0,.8,0,1.1,0,2.5-.9,2.8-3.8,2.8l-13.9-.2s.4-1.1.4-11Z"/>
        <path class="cls-1" d="M123,89.1c6.7,0,10.1,4.6,10.1,9.5s-3.7,11.6-10.5,11.6-10.1-4.9-10.1-10,3.6-11,10.5-11ZM123,108.3c3.5,0,5.2-4.5,5.2-9.1s-1.9-8.3-5.7-8.3-5.2,4.2-5.2,8.5,1.9,8.9,5.6,8.9Z"/>
        <path class="cls-1" d="M138.2,99.9c0-8.1-.8-10.2-1-10.3.7-.2,1.3-.4,1.9-.4,1.8,0,3.2.9,3.2,2.5s-.3,1.5-.3,1.5h.2c1.1-2.5,3.9-4,6-4s1.9.7,1.9,1.5-.2,2-.5,2.8h-.2c-1.3-.6-2.3-1-3.2-1-3.1,0-4,3.2-4,7.6,0,7.8.8,9.3.9,9.3-1,.2-1.9.4-2.8.4-1.5,0-2.5-.6-2.5-3.1s.2-4.7.2-6.9Z"/>
        <path class="cls-1" d="M161.6,89.1c5.2,0,7.3,3,7.3,5.7,0,4-4.2,5.4-7.7,5.4s-4.4-1.1-4.4-1.1h-.2c0,4.8,2.2,8.1,6.3,8.1s6.2-2.3,6.2-2.3l.2.2s-1.4,5-8,5-9.3-4.2-9.3-10,3.6-11,9.4-11ZM160.5,98.1c1.8,0,3.7-1,3.7-3.5s-.8-3.8-3.1-3.8-4.3,4.8-4.3,6.3,2,1,3.7,1Z"/>
        <path class="cls-1" d="M174.6,99.8c0-2,0-4.1-.2-6-.2-3.9-.8-4.2-.8-4.2.7-.2,1.3-.4,1.9-.4,1.8,0,3.1,1,3.1,2.2s-.2,1-.2,1h.2c.8-1.9,3.6-3.2,6.2-3.2,3.7,0,5.2,1.4,5.4,3.2h.2c.9-1.9,3.7-3.2,6.3-3.2,5.2,0,5.8,2.7,5.8,5.5s-.2,5.5-.2,8.9,0,4.2,2,4.2,1.5-.6,1.5-.6h.2c0,.1-1,2.6-4.4,2.6s-3.6-.8-3.6-3.2c0-3.4.1-5.8.1-9.9s0-5.2-3.4-5.2-4.2,5.1-4.2,7,0,6.9,0,7.1c0,2.8-.9,3.4-1.5,4.1-1.4-.2-2.9-.3-2.9-3.1s.1-6,.1-10,0-5.2-3.5-5.2-4,1.9-4,5.5.2,6.3.2,10-1.1,2.7-2.5,2.7-1.9-.2-2.8-.4c.3-.1,1-2.6,1-9.7Z"/>
        <path class="cls-1" d="M219.7,94.9c0-3.3,0-6.5-.2-9-.2-3.9-.4-4.2-.4-4.2.7-.2,1.5-.4,2.2-.4,1.8,0,3.1.9,3.1,2.5,0,3.5-.2,6.7-.2,10,0,5.2,0,10.3.7,15.6-1,.2-1.8.4-2.7.4-1.4,0-2.6-.6-2.6-2.7v-12.2Z"/>
        <path class="cls-1" d="M231.9,99.9c0-3.7-.1-8.2-.9-10.3.7-.2,1.3-.4,1.9-.4,1.8,0,3.2,1,3.2,2.2s0,.5,0,.7h.2c0,0,1.5-3.1,6.4-3.1s7.3,4,7.3,9.1-3.8,11.8-11.7,11.8-1.3,0-2-.2c0,.7,0,1.3,0,1.9,0,4.6.7,6.7.7,6.7-1,.2-1.9.4-2.8.4-1.5,0-2.4-.6-2.4-3.1,0-3.9.1-7.8.1-15.7ZM238.8,108.1c4.3,0,6.4-4.6,6.4-9.1s-1.5-7.4-4.3-7.4-4.2,1.8-4.5,4.8c-.2,1.7-.2,3.6-.2,5.4v5c0,1,1.2,1.3,2.7,1.3Z"/>
        <path class="cls-1" d="M254.1,105.1h.2s2.3,2.9,6.2,2.9,3.5-1.4,3.5-2.7c0-4.1-10.3-3.5-10.3-10.2s3.7-5.9,7.3-5.9,6,.6,6,2.2-.7,2.1-1.4,2.9h-.2s-1.9-3.3-5-3.3-3.1,1.3-3.1,3c0,4.1,10.3,3.1,10.3,10.2s-3.9,6.1-7.6,6.1-6.8-1.1-6.8-2.8.5-1.6.8-2.2Z"/>
        <path class="cls-1" d="M272.3,98.3c0-1,0-3-.1-4.9-.1-1.6-.3-3.1-.8-3.8.7-.2,1.3-.4,1.9-.4,1.8,0,3.4,1,3.4,2.5,0,3.3-.1,5.8-.1,9.7s.2,6.1,3.3,6.1,4.8-4.8,4.8-8.3,0-4.8-.2-6.2c-.3-2.7-.7-3.6-.7-3.6.7-.2,1.3-.4,1.9-.4,1.9,0,3.4,1,3.4,2.6,0,3.7-.3,7.4-.3,11.9s.1,4.1,2,4.1,1.5-.6,1.5-.6h.2c0,.1-1,2.6-4.4,2.6s-3.2-.8-3.2-2.8,0-.4,0-.4h-.2s-1.5,3.4-6.4,3.4-6.2-3.1-6.2-6.3,0-3.4,0-5.4Z"/>
        <path class="cls-1" d="M296.6,99.8c0-2,0-4.1-.2-6-.2-3.9-.8-4.2-.8-4.2.7-.2,1.3-.4,1.9-.4,1.8,0,3.1,1,3.1,2.2s-.2,1-.2,1h.2c.8-1.9,3.6-3.2,6.2-3.2,3.7,0,5.2,1.4,5.4,3.2h.2c.9-1.9,3.7-3.2,6.3-3.2,5.2,0,5.8,2.7,5.8,5.5s-.2,5.5-.2,8.9,0,4.2,2,4.2,1.5-.6,1.5-.6h.2c0,.1-1,2.6-4.4,2.6s-3.6-.8-3.6-3.2c0-3.4.1-5.8.1-9.9s0-5.2-3.4-5.2-4.2,5.1-4.2,7,0,6.9,0,7.1c0,2.8-.9,3.4-1.5,4.1-1.4-.2-2.9-.3-2.9-3.1s.1-6,.1-10,0-5.2-3.5-5.2-4,1.9-4,5.5.2,6.3.2,10-1.1,2.7-2.5,2.7-1.9-.2-2.8-.4c.3-.1,1-2.6,1-9.7Z"/>
        <path class="cls-1" d="M93.1,146.2c0-2.4-.2-10.7-.2-12.6-.2-3.9-.4-4.2-.4-4.2h8.8c8.2,0,16.8,3.1,16.8,13.9s-5.8,14.3-13.5,14.3-5.4-.4-11.9-.4c0,0,.4-1.1.4-11ZM103.3,155.2c6.1,0,9.7-5.1,9.7-11.2,0-9.3-6.8-12.5-13.2-12.5s-1.3,0-1.9,0c0,0-.1,9.6-.1,14.5s0,4.8.1,7.3c0,1.6,3.4,1.9,5.5,1.9Z"/>
        <path class="cls-1" d="M132.4,136.7c6.7,0,10.1,4.6,10.1,9.5s-3.7,11.6-10.5,11.6-10.1-4.9-10.1-10,3.6-11,10.5-11ZM132.4,155.9c3.5,0,5.2-4.5,5.2-9.1s-1.9-8.3-5.7-8.3-5.2,4.2-5.2,8.5,1.9,8.9,5.6,8.9Z"/>
        <path class="cls-1" d="M147.5,141.4c0-3.7,0-7.3-.2-9.9-.2-3.7-.7-4.4-.7-4.4v-.2c2.8,0,5.2.5,5.2,2.9,0,4-.2,8.2-.2,12.4s0,7.1.2,10.6c0,1.4.4,2.6,1.8,2.6s1.5-.6,1.5-.6h.2c0,.1-1,2.6-4.4,2.6s-3.6-.8-3.6-3.5.2-8.1.2-12.7Z"/>
        <path class="cls-1" d="M167.8,136.7c6.7,0,10.1,4.6,10.1,9.5s-3.7,11.6-10.5,11.6-10.1-4.9-10.1-10,3.6-11,10.5-11ZM167.8,155.9c3.5,0,5.2-4.5,5.2-9.1s-1.9-8.3-5.7-8.3-5.2,4.2-5.2,8.5,1.9,8.9,5.6,8.9Z"/>
        <path class="cls-1" d="M183,147.6c0-8.1-.8-10.2-1-10.3.7-.2,1.3-.4,1.9-.4,1.8,0,3.2.9,3.2,2.5s-.3,1.5-.3,1.5h.2c1.1-2.5,3.9-4,6-4s1.9.7,1.9,1.5-.2,2-.5,2.8h-.2c-1.3-.6-2.3-1-3.2-1-3.1,0-4,3.2-4,7.6,0,7.8.8,9.3.9,9.3-1,.2-1.9.4-2.8.4-1.5,0-2.5-.6-2.5-3.1s.2-4.7.2-6.9Z"/>
        <path class="cls-1" d="M207.8,151.6h.3s3.1,3.7,8.5,3.7,5.2-2.1,5.2-4.2c0-6.3-14.3-5.4-14.3-14.1s4.9-8.1,9.9-8.1,7.9.8,7.9,3-.6,2.3-1.5,3.2h-.3s-2.7-4.1-6.9-4.1-4.6,1.9-4.6,4.4c0,6.2,14.3,4.8,14.3,14s-5.2,8.4-10.2,8.4-9.1-1.4-9.1-3.9.6-1.7,1-2.3Z"/>
        <path class="cls-1" d="M231.7,147.6c0-9.1-.9-10.3-1-10.3.7-.2,1.3-.4,1.9-.4,1.8,0,3.4,1,3.4,2.5,0,4.2-.2,9-.2,11.9s0,4.2,2,4.2,1.5-.6,1.5-.6h.2c0,.1-1,2.6-4.4,2.6s-3.6-.8-3.6-3.2.2-4.6.2-6.8ZM231,130.9c0-1.5,1.2-2.7,2.7-2.7s2.7,1.2,2.7,2.7-1.2,2.7-2.7,2.7-2.7-1.2-2.7-2.7Z"/>
        <path class="cls-1" d="M243.4,143c0-3.4-.3-3.5-1.8-4v-1.7c1.7,0,5.5-3.3,6-4.6l.9.3-.8,4.3h3.3c1.6,0,2.1-.4,2.1-.4,0,.2,0,.9,0,1.1,0,1.7-.8,2-2.2,2s-3.2,0-3.2,0c0,0-.1,4.7-.1,7.7s.4,7.3,3.4,7.3,4.2-1.9,4.2-1.9l.2.2s-1.3,4.6-6.2,4.6-6-3.3-6-7.7.2-5.6.2-7.1Z"/>
        <path class="cls-1" d="M264.9,157s1.1-.8,2.6-5l8.3-23.2s4.1.2,5.4,4.8c1.5,5,5,15.7,7,20.1,1.1,2.5,1.4,3,1.8,3.2v.2s-1.5.4-2.9.4-3.2-.7-3.7-2.4c-.5-1.8-1.3-4.4-2.2-7.3-1.2,0-2.6,0-4,0-2,0-4.1,0-5.7.2-2.4,7.2-2.2,9.6-5.3,9.6s-1.4-.4-1.4-.4v-.2ZM276.5,145.9c1.4,0,2.8,0,4.1,0-1.4-4.2-3-8.7-4.2-12h-.2c-1.7,4.9-2.9,8.8-3.9,12,1.3,0,2.7,0,4.2,0Z"/>
        <path class="cls-1" d="M294,147.4c0-2,0-4.1-.2-6-.2-3.9-.8-4.2-.8-4.2.7-.2,1.3-.4,1.9-.4,1.8,0,3.1,1,3.1,2.2s-.2,1-.2,1h.2c.8-1.9,3.6-3.2,6.2-3.2,3.7,0,5.2,1.4,5.4,3.2h.2c.9-1.9,3.7-3.2,6.3-3.2,5.2,0,5.8,2.7,5.8,5.5s-.2,5.5-.2,8.9,0,4.2,2,4.2,1.5-.6,1.5-.6h.2c0,.1-1,2.6-4.4,2.6s-3.6-.8-3.6-3.2c0-3.4.1-5.8.1-9.9s0-5.2-3.4-5.2-4.2,5.1-4.2,7,0,6.9,0,7.1c0,2.8-.9,3.4-1.5,4.1-1.4-.2-2.9-.3-2.9-3.1s.1-6,.1-10,0-5.2-3.5-5.2-4,1.9-4,5.5.2,6.3.2,10-1.1,2.7-2.5,2.7-1.9-.2-2.8-.4c.3-.1,1-2.6,1-9.7Z"/>
        <path class="cls-1" d="M336.8,136.7c5.2,0,7.3,3,7.3,5.7,0,4-4.2,5.4-7.7,5.4s-4.4-1.1-4.4-1.1h-.2c0,4.8,2.2,8.1,6.3,8.1s6.2-2.3,6.2-2.3l.2.2s-1.3,5-8,5-9.3-4.2-9.3-10,3.6-11,9.4-11ZM335.6,145.8c1.8,0,3.7-1,3.7-3.5s-.8-3.8-3.1-3.8-4.3,4.8-4.3,6.3,2,1,3.7,1Z"/>
        <path class="cls-1" d="M349.6,143c0-3.4-.3-3.5-1.8-4v-1.7c1.7,0,5.5-3.3,6-4.6l.9.3-.8,4.3h3.3c1.6,0,2.1-.4,2.1-.4,0,.2,0,.9,0,1.1,0,1.7-.8,2-2.2,2s-3.2,0-3.2,0c0,0-.1,4.7-.1,7.7s.4,7.3,3.4,7.3,4.2-1.9,4.2-1.9l.2.2s-1.3,4.6-6.2,4.6-6-3.3-6-7.7.2-5.6.2-7.1Z"/>
      </g>
    </g>
  </g>
</svg>