<?xml version="1.0" encoding="UTF-8"?>
<svg xmlns="http://www.w3.org/2000/svg" version="1.1" viewBox="0 0 692 499.9">
  <defs>
    <style>
      .cls-1 {
        stroke-dasharray: 3.6 10.7;
      }

      .cls-1, .cls-2, .cls-3, .cls-4, .cls-5, .cls-6, .cls-7 {
        fill: none;
      }

      .cls-1, .cls-2, .cls-4, .cls-6, .cls-7 {
        stroke: #9db9f7;
        stroke-linecap: round;
        stroke-linejoin: round;
        stroke-width: .7px;
      }

      .cls-2 {
        stroke-dasharray: 3.5 10.4;
      }

      .cls-8 {
        fill: #ffe5c5;
      }

      .cls-9 {
        fill: #f2e1e1;
      }

      .cls-9, .cls-10, .cls-11, .cls-12 {
        mix-blend-mode: multiply;
      }

      .cls-10 {
        fill: #a5b3d2;
      }

      .cls-3 {
        stroke: #ff6813;
        stroke-width: 2.2px;
      }

      .cls-3, .cls-5 {
        stroke-miterlimit: 10;
      }

      .cls-13 {
        fill: #c5eaff;
      }

      .cls-14 {
        opacity: .4;
      }

      .cls-14, .cls-15 {
        fill: #fff;
      }

      .cls-16 {
        fill: #20073e;
      }

      .cls-17 {
        fill: #da4c07;
      }

      .cls-18 {
        fill: #1e7fd9;
      }

      .cls-19 {
        isolation: isolate;
      }

      .cls-20 {
        fill: #ec894d;
      }

      .cls-21 {
        fill: #060606;
      }

      .cls-4 {
        stroke-dasharray: 3.4 10.1;
      }

      .cls-22 {
        fill: #4aa0fc;
      }

      .cls-23 {
        fill: #ff9756;
      }

      .cls-24 {
        fill: #ff4c25;
      }

      .cls-25 {
        fill: #dcb200;
      }

      .cls-26 {
        fill: #f7c800;
      }

      .cls-27 {
        fill: #e4d4d4;
      }

      .cls-28 {
        fill: #002870;
      }

      .cls-29 {
        fill: #f6e5e5;
      }

      .cls-30 {
        fill: #312c2c;
      }

      .cls-31 {
        fill: #ff6813;
      }

      .cls-5 {
        stroke: #1e7fd9;
        stroke-width: 6.2px;
      }

      .cls-32 {
        fill: #3c3737;
      }

      .cls-12 {
        fill: #e6d6d6;
      }

      .cls-6 {
        stroke-dasharray: 3.5 10.6;
      }

      .cls-33 {
        fill: #a43807;
      }
    </style>
  </defs>
  <!-- Generator: Adobe Illustrator 28.7.1, SVG Export Plug-In . SVG Version: 1.2.0 Build 142)  -->
  <g class="cls-19">
    <g id="Layer_1">
      <g id="Layer_1-2">
        <g class="cls-19">
          <g class="cls-19">
            <path d="M52.7,274.9v6.5h-.8v-6.5h.8Z"/>
            <path d="M58.2,274.5v6.9h-.8v-.8h0c-.3.5-.8.9-1.6.9s-2-1-2-2.4,1-2.5,2.1-2.5,1.2.3,1.4.7h0v-2.8h.9ZM57.3,278.6v-.4c0-.5-.6-1-1.2-1s-1.4.8-1.4,1.8.5,1.7,1.4,1.7,1.1-.4,1.3-1v-1.2h-.1Z"/>
            <path d="M60.1,279.2c0,1.2.8,1.6,1.6,1.6s1-.1,1.3-.2v.6c-.2.1-.7.3-1.4.3-1.4,0-2.3-1-2.3-2.4s.8-2.5,2.2-2.5,1.9,1.3,1.9,2.2,0,.3,0,.4h-3.3,0ZM62.6,278.6c0-.5-.2-1.4-1.2-1.4s-1.2.8-1.3,1.4h2.5Z"/>
            <path d="M66.4,280.5c.3.2.7.3,1.1.3.6,0,.9-.3.9-.7s-.2-.6-.9-.9c-.8-.3-1.2-.8-1.2-1.3s.6-1.4,1.6-1.4.9.1,1.2.3l-.2.6c-.2-.1-.5-.3-1-.3s-.8.3-.8.6.3.6.9.8c.8.3,1.2.7,1.2,1.4s-.6,1.4-1.8,1.4-1-.1-1.3-.3l.2-.6h.1Z"/>
            <path d="M69.8,280.9l2.1-2.8c.2-.3.4-.5.6-.7h-2.5v-.7h3.6v.5l-2.1,2.7c-.2.3-.4.5-.6.7h2.7v.7h-3.8v-.5h0Z"/>
            <path d="M78.7,279c0,1.7-1.2,2.5-2.3,2.5s-2.3-.9-2.3-2.4,1-2.5,2.3-2.5,2.3,1,2.3,2.4ZM75,279.1c0,1,.6,1.8,1.4,1.8s1.4-.8,1.4-1.8-.4-1.8-1.4-1.8-1.4.9-1.4,1.8ZM75.5,275.9c-.3,0-.5-.2-.5-.5s.2-.5.5-.5.5.2.5.5-.2.5-.5.5h0ZM77.3,275.9c-.3,0-.5-.2-.5-.5s.2-.5.5-.5.5.2.5.5-.2.5-.5.5h0Z"/>
            <path d="M80,276.7l.9,2.6c.2.4.3.8.4,1.2h0c0-.4.2-.8.4-1.2l.9-2.6h.9l-1.8,4.7h-.8l-1.8-4.7h.9Z"/>
            <path d="M84.7,279.2c0,1.2.8,1.6,1.6,1.6s1-.1,1.3-.2v.6c-.2.1-.7.3-1.4.3-1.4,0-2.3-1-2.3-2.4s.8-2.5,2.2-2.5,1.9,1.3,1.9,2.2,0,.3,0,.4h-3.3,0ZM87.2,278.6c0-.5-.2-1.4-1.2-1.4s-1.2.8-1.3,1.4h2.5Z"/>
            <path d="M93.1,280.7c0,1.1-.2,1.7-.7,2.1-.5.4-1.1.6-1.7.6s-1.2-.1-1.6-.4l.2-.6c.3.2.8.4,1.4.4.9,0,1.5-.5,1.5-1.6v-.5h0c-.3.4-.8.8-1.5.8-1.2,0-2-1-2-2.3s1-2.5,2.1-2.5,1.3.4,1.5.8h0v-.7h.8v4h0ZM92.3,278.6v-.4c-.2-.5-.6-.9-1.2-.9s-1.4.7-1.4,1.8.5,1.7,1.4,1.7,1-.3,1.2-.9v-1.3h0Z"/>
            <path d="M93.9,282.6c.2-.6.5-1.6.6-2.3h1c-.2.7-.6,1.8-.9,2.3h-.7Z"/>
            <path d="M98.5,274.5h.9v2.9h0c0-.2.3-.5.6-.6.3-.1.6-.2.9-.2.6,0,1.6.4,1.6,2v2.8h-.9v-2.7c0-.8-.3-1.4-1.1-1.4s-1,.4-1.1.9v3.2h-.9v-6.9Z"/>
            <path d="M108.1,279c0,1.7-1.2,2.5-2.3,2.5s-2.3-.9-2.3-2.4,1-2.5,2.3-2.5,2.3,1,2.3,2.4ZM104.4,279.1c0,1,.6,1.8,1.4,1.8s1.4-.8,1.4-1.8-.4-1.8-1.4-1.8-1.4.9-1.4,1.8Z"/>
            <path d="M113.2,280.7c0,1.1-.2,1.7-.7,2.1-.5.4-1.1.6-1.7.6s-1.2-.1-1.6-.4l.2-.6c.3.2.8.4,1.4.4.9,0,1.5-.5,1.5-1.6v-.5h0c-.3.4-.8.8-1.5.8-1.2,0-2-1-2-2.3s1-2.5,2.1-2.5,1.3.4,1.5.8h0v-.7h.8v4h0ZM112.3,278.6v-.4c-.2-.5-.6-.9-1.2-.9s-1.4.7-1.4,1.8.5,1.7,1.4,1.7,1-.3,1.2-.9v-1.3h0Z"/>
            <path d="M114.9,276.7l1,2.8c.1.3.2.7.3,1h0c0-.3.2-.6.3-1l.9-2.8h.9l-1.3,3.3c-.6,1.6-1,2.4-1.6,2.9-.4.4-.8.5-1,.6l-.2-.7c.2,0,.5-.2.7-.4s.5-.5.7-1v-.4l-1.7-4.3h1Z"/>
            <path d="M121.2,278v-1.3h.7v.8h0c.3-.4.7-.9,1.5-.9s1.1.4,1.3.9h0c.1-.3.3-.5.5-.6.3-.2.6-.3,1-.3s1.5.4,1.5,2v2.8h-.8v-2.7c0-.9-.3-1.4-1-1.4s-.9.4-1,.8v3.3h-.8v-2.8c0-.7-.3-1.3-1-1.3s-.9.4-1.1.9v3.2h-.8v-3.4h0Z"/>
            <path d="M130.3,275.4c0,.3-.2.5-.5.5s-.5-.2-.5-.5.2-.5.5-.5.5.2.5.5ZM129.3,281.4v-4.7h.9v4.7h-.9Z"/>
            <path d="M136.9,280.3v1.1h-.8v-.6h0c-.3.4-.8.7-1.4.7-1,0-1.4-.7-1.4-1.3,0-1.1,1-1.8,2.8-1.7h0c0-.5-.1-1.2-1.1-1.2s-.9.1-1.2.3l-.2-.6c.4-.3,1-.4,1.5-.4,1.4,0,1.8,1,1.8,1.9v1.8h0ZM136.1,279c-.9,0-2,.1-2,1.1s.4.8.8.8,1-.4,1.1-.8v-1.1h0Z"/>
            <path d="M140.4,278.2v-1.5h.8v.8h0c.3-.6.9-.9,1.7-.9s2,1,2,2.4-1,2.5-2.1,2.5-1.2-.3-1.4-.7h0v2.6h-.8v-5.1h-.2ZM141.2,279.5v.3c.2.6.7,1,1.3,1,.9,0,1.4-.7,1.4-1.8s-.5-1.7-1.4-1.7-1.1.4-1.3,1.1v1.1h0Z"/>
            <path d="M145.9,278.2v-1.5h.7v.9h0c.2-.6.7-1,1.3-1s.2,0,.2,0v.8h-.3c-.6,0-1,.5-1.1,1.1v2.9h-.8v-3.2h0Z"/>
            <path d="M153.2,279c0,1.7-1.2,2.5-2.3,2.5s-2.3-.9-2.3-2.4,1-2.5,2.3-2.5,2.3,1,2.3,2.4ZM149.5,279.1c0,1,.6,1.8,1.4,1.8s1.4-.8,1.4-1.8-.4-1.8-1.4-1.8-1.4.9-1.4,1.8Z"/>
            <path d="M154.3,274.5h.8v3h0c.3-.5.8-.9,1.6-.9,1.2,0,2,1,2,2.4s-1.1,2.5-2.1,2.5-1.2-.3-1.6-.9h0v.8h-.8v-6.9h.1ZM155.1,279.5v.3c.2.6.7,1,1.3,1,.9,0,1.4-.7,1.4-1.8s-.5-1.7-1.4-1.7-1.1.4-1.3,1v1.1h0Z"/>
            <path d="M159.8,274.5h.9v6.9h-.9v-6.9Z"/>
            <path d="M162.6,279.2c0,1.2.8,1.6,1.6,1.6s1-.1,1.3-.2v.6c-.2.1-.7.3-1.4.3-1.4,0-2.3-1-2.3-2.4s.8-2.5,2.2-2.5,1.9,1.3,1.9,2.2,0,.3,0,.4h-3.3ZM165.1,278.6c0-.5-.2-1.4-1.2-1.4s-1.2.8-1.3,1.4h2.5ZM165.3,274.7l-1.2,1.4h-.6l.9-1.4h.9Z"/>
            <path d="M167,278v-1.3h.7v.8h0c.3-.4.7-.9,1.5-.9s1.1.4,1.3.9h0c.1-.3.3-.5.5-.6.3-.2.6-.3,1-.3s1.5.4,1.5,2v2.8h-.8v-2.7c0-.9-.3-1.4-1-1.4s-.9.4-1,.8v3.3h-.8v-2.8c0-.7-.3-1.3-1-1.3s-.9.4-1.1.9v3.2h-.8v-3.4h0Z"/>
            <path d="M178.3,280.3v1.1h-.8v-.6h0c-.3.4-.8.7-1.4.7-1,0-1.4-.7-1.4-1.3,0-1.1,1-1.8,2.8-1.7h0c0-.5-.1-1.2-1.1-1.2s-.9.1-1.2.3l-.2-.6c.4-.3,1-.4,1.5-.4,1.4,0,1.8,1,1.8,1.9v1.8h0ZM177.5,279c-.9,0-2,.1-2,1.1s.4.8.8.8,1-.4,1.1-.8v-1.1h0Z"/>
            <path d="M179.2,282.6c.2-.6.5-1.6.6-2.3h1c-.2.7-.6,1.8-.9,2.3h-.7Z"/>
          </g>
          <g class="cls-19">
            <path d="M52.3,290.9c0,1.2.8,1.6,1.6,1.6s1-.1,1.3-.2v.6c-.2.1-.7.3-1.4.3-1.4,0-2.3-1-2.3-2.4s.8-2.5,2.2-2.5,1.9,1.3,1.9,2.2,0,.3,0,.4h-3.3,0ZM54.8,290.3c0-.5-.2-1.4-1.2-1.4s-1.2.8-1.3,1.4h2.5ZM55,286.4l-1.2,1.4h-.6l.9-1.4s.9,0,.9,0Z"/>
            <path d="M56.6,292.2c.3.2.7.3,1.1.3.6,0,.9-.3.9-.7s-.2-.6-.9-.9c-.8-.3-1.2-.8-1.2-1.3s.6-1.4,1.6-1.4.9.1,1.2.3l-.2.6c-.2-.1-.5-.3-1-.3s-.8.3-.8.6.3.6.9.8c.8.3,1.2.7,1.2,1.4s-.6,1.4-1.8,1.4-1-.1-1.3-.3l.2-.6h.1Z"/>
            <path d="M63,290.9c0,1.2.8,1.6,1.6,1.6s1-.1,1.3-.2v.6c-.2.1-.7.3-1.4.3-1.4,0-2.3-1-2.3-2.4s.8-2.5,2.2-2.5,1.9,1.3,1.9,2.2,0,.3,0,.4h-3.3,0ZM65.5,290.3c0-.5-.2-1.4-1.2-1.4s-1.2.8-1.3,1.4h2.5Z"/>
            <path d="M67.4,289.9v-1.5h.7v.9h0c.2-.6.7-1,1.3-1s.2,0,.2,0v.8h-.3c-.6,0-1,.5-1.1,1.1v2.9h-.8s0-3.2,0-3.2Z"/>
            <path d="M70.6,289.9v-1.5h.7v.9h0c.2-.6.7-1,1.3-1s.2,0,.2,0v.8h-.3c-.6,0-1,.5-1.1,1.1v2.9h-.8s0-3.2,0-3.2Z"/>
            <path d="M74.2,290.9c0,1.2.8,1.6,1.6,1.6s1-.1,1.3-.2v.6c-.2.1-.7.3-1.4.3-1.4,0-2.3-1-2.3-2.4s.8-2.5,2.2-2.5,1.9,1.3,1.9,2.2,0,.3,0,.4h-3.3,0ZM76.7,290.3c0-.5-.2-1.4-1.2-1.4s-1.2.8-1.3,1.4h2.5Z"/>
            <path d="M83.9,292v1.1h-.8v-.6h0c-.3.4-.8.7-1.4.7-1,0-1.4-.7-1.4-1.3,0-1.1,1-1.8,2.8-1.7h0c0-.5,0-1.2-1.1-1.2s-.9.1-1.2.3l-.2-.6c.4-.3,1-.4,1.5-.4,1.4,0,1.8,1,1.8,1.9,0,0,0,1.8,0,1.8ZM83.1,290.7c-.9,0-2,.1-2,1.1s.4.8.8.8,1-.4,1.1-.8v-1.1h0Z"/>
            <path d="M87.4,289.7v-1.3h.7v.8h0c.3-.4.7-.9,1.5-.9s1.1.4,1.3.9h0c0-.3.3-.5.5-.6.3-.2.6-.3,1-.3s1.5.4,1.5,2v2.8h-.8v-2.7c0-.9-.3-1.4-1-1.4s-.9.4-1,.8v3.3h-.8v-2.8c0-.7-.3-1.3-1-1.3s-.9.4-1.1.9v3.2h-.8v-3.4h0Z"/>
            <path d="M95.9,290.9c0,1.2.8,1.6,1.6,1.6s1-.1,1.3-.2v.6c-.2.1-.7.3-1.4.3-1.4,0-2.3-1-2.3-2.4s.8-2.5,2.2-2.5,1.9,1.3,1.9,2.2,0,.3,0,.4h-3.3,0ZM98.4,290.3c0-.5-.2-1.4-1.2-1.4s-1.2.8-1.3,1.4h2.5Z"/>
            <path d="M104.3,292.4c0,1.1-.2,1.7-.7,2.1-.5.4-1.1.6-1.7.6s-1.2-.1-1.6-.4l.2-.6c.3.2.8.4,1.4.4.9,0,1.5-.5,1.5-1.6v-.5h0c-.3.4-.8.8-1.5.8-1.2,0-2-1-2-2.3s1-2.5,2.1-2.5,1.3.4,1.5.8h0v-.7h.8v4h0ZM103.5,290.3v-.4c-.2-.5-.6-.9-1.2-.9s-1.4.7-1.4,1.8.5,1.7,1.4,1.7,1-.3,1.2-.9v-1.3h0Z"/>
            <path d="M110,290.7c0,1.7-1.2,2.5-2.3,2.5s-2.3-.9-2.3-2.4,1-2.5,2.3-2.5,2.3,1,2.3,2.4ZM106.3,290.8c0,1,.6,1.8,1.4,1.8s1.4-.8,1.4-1.8-.4-1.8-1.4-1.8-1.4.9-1.4,1.8Z"/>
            <path d="M111.1,286.2h.9v6.9h-.9v-6.9Z"/>
            <path d="M117.4,286.2v6.9h-.8v-.8h0c-.3.5-.8.9-1.6.9s-2-1-2-2.4,1-2.5,2.1-2.5,1.2.3,1.4.7h0v-2.8h.9ZM116.5,290.3v-.4c-.1-.5-.6-1-1.2-1s-1.4.8-1.4,1.8.5,1.7,1.4,1.7,1.1-.4,1.3-1v-1.2h-.1Z"/>
            <path d="M122.1,292v1.1h-.8v-.6h0c-.3.4-.8.7-1.4.7-1,0-1.4-.7-1.4-1.3,0-1.1,1-1.8,2.8-1.7h0c0-.5-.1-1.2-1.1-1.2s-.9.1-1.2.3l-.2-.6c.4-.3,1-.4,1.5-.4,1.4,0,1.8,1,1.8,1.9v1.8h0ZM121.3,290.7c-.9,0-2,.1-2,1.1s.4.8.8.8,1-.4,1.1-.8v-1.1h0ZM121.7,286.4l-1.2,1.4h-.6l.9-1.4h.9Z"/>
            <path d="M123.4,292.2c.3.2.7.3,1.1.3.6,0,.9-.3.9-.7s-.2-.6-.9-.9c-.8-.3-1.2-.8-1.2-1.3s.6-1.4,1.6-1.4.9.1,1.2.3l-.2.6c-.2-.1-.5-.3-1-.3s-.8.3-.8.6.3.6.9.8c.8.3,1.2.7,1.2,1.4s-.6,1.4-1.8,1.4-1-.1-1.3-.3l.2-.6h.1Z"/>
            <path d="M126.7,294.3c.2-.6.5-1.6.6-2.3h1c-.2.7-.6,1.8-.9,2.3h-.7Z"/>
            <path d="M131.6,288.4l.9,2.6c.2.4.3.8.4,1.2h0c.1-.4.2-.8.4-1.2l.9-2.6h.9l-1.8,4.7h-.8l-1.8-4.7h.9Z"/>
            <path d="M139.2,292v1.1h-.8v-.6h0c-.3.4-.8.7-1.4.7-1,0-1.4-.7-1.4-1.3,0-1.1,1-1.8,2.8-1.7h0c0-.5-.1-1.2-1.1-1.2s-.9.1-1.2.3l-.2-.6c.4-.3,1-.4,1.5-.4,1.4,0,1.8,1,1.8,1.9v1.8h0ZM138.4,290.7c-.9,0-2,.1-2,1.1s.4.8.8.8,1-.4,1.1-.8v-1.1h0Z"/>
            <path d="M144.6,292.4c0,1.1-.2,1.7-.7,2.1-.5.4-1.1.6-1.7.6s-1.2-.1-1.6-.4l.2-.6c.3.2.8.4,1.4.4.9,0,1.5-.5,1.5-1.6v-.5h0c-.3.4-.8.8-1.5.8-1.2,0-2-1-2-2.3s1-2.5,2.1-2.5,1.3.4,1.5.8h0v-.7h.8v4h0ZM143.8,290.3v-.4c-.2-.5-.6-.9-1.2-.9s-1.4.7-1.4,1.8.5,1.7,1.4,1.7,1-.3,1.2-.9v-1.3h0Z"/>
            <path d="M146.3,288.4l1,2.8c.1.3.2.7.3,1h0c0-.3.2-.6.3-1l.9-2.8h.9l-1.3,3.3c-.6,1.6-1,2.4-1.6,2.9-.4.4-.8.5-1,.6l-.2-.7c.2,0,.5-.2.7-.4s.5-.5.7-1v-.4l-1.7-4.3h1Z"/>
            <path d="M156,292.9c-.2.1-.7.3-1.3.3-1.4,0-2.3-1-2.3-2.4s1-2.5,2.5-2.5,1,.1,1.2.2l-.2.7c-.2-.1-.5-.2-1-.2-1.1,0-1.7.8-1.7,1.8s.7,1.8,1.6,1.8.8-.1,1-.2v.6h.2Z"/>
            <path d="M156.9,292.2c.3.2.7.3,1.1.3.6,0,.9-.3.9-.7s-.2-.6-.9-.9c-.8-.3-1.2-.8-1.2-1.3s.6-1.4,1.6-1.4.9.1,1.2.3l-.2.6c-.2-.1-.5-.3-1-.3s-.8.3-.8.6.3.6.9.8c.8.3,1.2.7,1.2,1.4s-.6,1.4-1.8,1.4-1-.1-1.3-.3l.2-.6h.1Z"/>
            <path d="M164.1,292v1.1h-.8v-.6h0c-.3.4-.8.7-1.4.7-1,0-1.4-.7-1.4-1.3,0-1.1,1-1.8,2.8-1.7h0c0-.5-.1-1.2-1.1-1.2s-.9.1-1.2.3l-.2-.6c.4-.3,1-.4,1.5-.4,1.4,0,1.8,1,1.8,1.9v1.8h0ZM163.3,290.7c-.9,0-2,.1-2,1.1s.4.8.8.8,1-.4,1.1-.8v-1.1h0Z"/>
            <path d="M166.3,290.6h0c.1-.2.3-.4.4-.5l1.4-1.6h1l-1.8,1.9,2.1,2.8h-1l-1.6-2.3-.4.5v1.8h-.8v-6.9h.8v4.3h0Z"/>
            <path d="M177.5,292v1.1h-.8v-.6h0c-.3.4-.8.7-1.4.7-1,0-1.4-.7-1.4-1.3,0-1.1,1-1.8,2.8-1.7h0c0-.5-.1-1.2-1.1-1.2s-.9.1-1.2.3l-.2-.6c.4-.3,1-.4,1.5-.4,1.4,0,1.8,1,1.8,1.9v1.8h0ZM176.6,290.7c-.9,0-2,.1-2,1.1s.4.8.8.8,1-.4,1.1-.8v-1.1h0Z"/>
            <path d="M178.8,289.7v-1.3h.7v.8h0c.3-.4.7-.9,1.5-.9s1.1.4,1.3.9h0c.1-.3.3-.5.5-.6.3-.2.6-.3,1-.3s1.5.4,1.5,2v2.8h-.8v-2.7c0-.9-.3-1.4-1-1.4s-.9.4-1,.8v3.3h-.8v-2.8c0-.7-.3-1.3-1-1.3s-.9.4-1.1.9v3.2h-.8v-3.4h0Z"/>
            <path d="M187.4,290.9c0,1.2.8,1.6,1.6,1.6s1-.1,1.3-.2v.6c-.2.1-.7.3-1.4.3-1.4,0-2.3-1-2.3-2.4s.8-2.5,2.2-2.5,1.9,1.3,1.9,2.2,0,.3,0,.4h-3.3ZM189.9,290.3c0-.5-.2-1.4-1.2-1.4s-1.2.8-1.3,1.4h2.5Z"/>
            <path d="M195.8,292.4c0,1.1-.2,1.7-.7,2.1-.5.4-1.1.6-1.7.6s-1.2-.1-1.6-.4l.2-.6c.3.2.8.4,1.4.4.9,0,1.5-.5,1.5-1.6v-.5h0c-.3.4-.8.8-1.5.8-1.2,0-2-1-2-2.3s1-2.5,2.1-2.5,1.3.4,1.5.8h0v-.7h.8v4h0ZM195,290.3v-.4c-.2-.5-.6-.9-1.2-.9s-1.4.7-1.4,1.8.5,1.7,1.4,1.7,1-.3,1.2-.9v-1.3h0Z"/>
            <path d="M201.5,290.7c0,1.7-1.2,2.5-2.3,2.5s-2.3-.9-2.3-2.4,1-2.5,2.3-2.5,2.3,1,2.3,2.4ZM197.7,290.8c0,1,.6,1.8,1.4,1.8s1.4-.8,1.4-1.8-.4-1.8-1.4-1.8-1.4.9-1.4,1.8Z"/>
            <path d="M202.5,286.2h.9v6.9h-.9v-6.9Z"/>
            <path d="M208.9,286.2v6.9h-.8v-.8h0c-.3.5-.8.9-1.6.9s-2-1-2-2.4,1-2.5,2.1-2.5,1.2.3,1.4.7h0v-2.8h.9ZM208,290.3v-.4c-.1-.5-.6-1-1.2-1s-1.4.8-1.4,1.8.5,1.7,1.4,1.7,1.1-.4,1.3-1v-1.2h-.1Z"/>
            <path d="M213.6,292v1.1h-.8v-.6h0c-.3.4-.8.7-1.4.7-1,0-1.4-.7-1.4-1.3,0-1.1,1-1.8,2.8-1.7h0c0-.5-.1-1.2-1.1-1.2s-.9.1-1.2.3l-.2-.6c.4-.3,1-.4,1.5-.4,1.4,0,1.8,1,1.8,1.9v1.8h0ZM212.8,290.7c-.9,0-2,.1-2,1.1s.4.8.8.8,1-.4,1.1-.8v-1.1h0ZM213.2,286.4l-1.2,1.4h-.6l.9-1.4h.9Z"/>
            <path d="M214.9,292.2c.3.2.7.3,1.1.3.6,0,.9-.3.9-.7s-.2-.6-.9-.9c-.8-.3-1.2-.8-1.2-1.3s.6-1.4,1.6-1.4.9.1,1.2.3l-.2.6c-.2-.1-.5-.3-1-.3s-.8.3-.8.6.3.6.9.8c.8.3,1.2.7,1.2,1.4s-.6,1.4-1.8,1.4-1-.1-1.3-.3l.2-.6h.1Z"/>
            <path d="M218.2,294.3c.2-.6.5-1.6.6-2.3h1c-.2.7-.6,1.8-.9,2.3h-.7Z"/>
          </g>
          <g class="cls-19">
            <path d="M52.1,300l.9,2.6c.2.4.3.8.4,1.2h0c0-.4.2-.8.4-1.2l.9-2.6h.9l-1.8,4.7h-.8l-1.8-4.7h.9Z"/>
            <path d="M59.7,303.6v1.1h-.8v-.6h0c-.3.4-.8.7-1.4.7-1,0-1.4-.7-1.4-1.3,0-1.1,1-1.8,2.8-1.7h0c0-.5,0-1.2-1.1-1.2s-.9.1-1.2.3l-.2-.6c.4-.3,1-.4,1.5-.4,1.4,0,1.8,1,1.8,1.9,0,0,0,1.8,0,1.8ZM58.9,302.3c-.9,0-2,.1-2,1.1s.4.8.8.8,1-.4,1.1-.8v-1.1h0Z"/>
            <path d="M65.1,304c0,1.1-.2,1.7-.7,2.1-.5.4-1.1.6-1.7.6s-1.2-.1-1.6-.4l.2-.6c.3.2.8.4,1.4.4.9,0,1.5-.5,1.5-1.6v-.5h0c-.3.4-.8.8-1.5.8-1.2,0-2-1-2-2.3s1-2.5,2.1-2.5,1.3.4,1.5.8h0v-.7h.8v4h0ZM64.3,301.9v-.4c-.2-.5-.6-.9-1.2-.9s-1.4.7-1.4,1.8.5,1.7,1.4,1.7,1-.3,1.2-.9v-1.3h0Z"/>
            <path d="M66.8,300l1,2.8c0,.3.2.7.3,1h0c0-.3.2-.6.3-1l.9-2.8h.9l-1.3,3.3c-.6,1.6-1,2.4-1.6,2.9-.4.4-.8.5-1,.6l-.2-.7c.2,0,.5-.2.7-.4s.5-.5.7-1v-.4l-1.7-4.3h1Z"/>
            <path d="M76.5,304.5c-.2.1-.7.3-1.3.3-1.4,0-2.3-1-2.3-2.4s1-2.5,2.5-2.5,1,.1,1.2.2l-.2.7c-.2-.1-.5-.2-1-.2-1.1,0-1.7.8-1.7,1.8s.7,1.8,1.6,1.8.8-.1,1-.2v.6h.2Z"/>
            <path d="M77.4,303.8c.3.2.7.3,1.1.3.6,0,.9-.3.9-.7s-.2-.6-.9-.9c-.8-.3-1.2-.8-1.2-1.3s.6-1.4,1.6-1.4.9.1,1.2.3l-.2.6c-.2-.1-.5-.3-1-.3s-.8.3-.8.6.3.6.9.8c.8.3,1.2.7,1.2,1.4s-.6,1.4-1.8,1.4-1-.1-1.3-.3l.2-.6h.1Z"/>
            <path d="M84.6,303.6v1.1h-.8v-.6h0c-.3.4-.8.7-1.4.7-1,0-1.4-.7-1.4-1.3,0-1.1,1-1.8,2.8-1.7h0c0-.5,0-1.2-1.1-1.2s-.9.1-1.2.3l-.2-.6c.4-.3,1-.4,1.5-.4,1.4,0,1.8,1,1.8,1.9,0,0,0,1.8,0,1.8ZM83.8,302.3c-.9,0-2,.1-2,1.1s.4.8.8.8,1-.4,1.1-.8v-1.1h0Z"/>
            <path d="M86.9,302.2h0c0-.2.3-.4.4-.5l1.4-1.6h1l-1.8,1.9,2.1,2.8h-1l-1.6-2.3-.4.5v1.8h-.8v-6.9h.8v4.3h0Z"/>
            <path d="M93.5,302.2h0c0-.2.3-.4.4-.5l1.4-1.6h1l-1.8,1.9,2.1,2.8h-1l-1.6-2.3-.4.5v1.8h-.8v-6.9h.8v4.3h0Z"/>
            <path d="M97.7,302.5c0,1.2.8,1.6,1.6,1.6s1-.1,1.3-.2v.6c-.2.1-.7.3-1.4.3-1.4,0-2.3-1-2.3-2.4s.8-2.5,2.2-2.5,1.9,1.3,1.9,2.2,0,.3,0,.4h-3.3,0ZM100.2,301.9c0-.5-.2-1.4-1.2-1.4s-1.2.8-1.3,1.4h2.5ZM100.4,298l-1.2,1.4h-.6l.9-1.4s.9,0,.9,0Z"/>
            <path d="M102,301.5v-1.5h.7v.9h0c.2-.6.7-1,1.3-1s.2,0,.2,0v.8h-.3c-.6,0-1,.5-1.1,1.1v2.9h-.8s0-3.2,0-3.2Z"/>
            <path d="M109.2,297.8v6.9h-.8v-.8h0c-.3.5-.8.9-1.6.9s-2-1-2-2.4,1-2.5,2.1-2.5,1.2.3,1.4.7h0v-2.8h.9ZM108.3,301.9v-.4c0-.5-.6-1-1.2-1s-1.4.8-1.4,1.8.5,1.7,1.4,1.7,1.1-.4,1.3-1v-1.2h-.1Z"/>
            <path d="M111.1,302.5c0,1.2.8,1.6,1.6,1.6s1-.1,1.3-.2v.6c-.2.1-.7.3-1.4.3-1.4,0-2.3-1-2.3-2.4s.8-2.5,2.2-2.5,1.9,1.3,1.9,2.2,0,.3,0,.4h-3.3,0ZM113.6,301.9c0-.5-.2-1.4-1.2-1.4s-1.2.8-1.3,1.4h2.5ZM113.8,298l-1.2,1.4h-.6l.9-1.4s.9,0,.9,0Z"/>
            <path d="M115.3,303.8c.3.2.7.3,1.1.3.6,0,.9-.3.9-.7s-.2-.6-.9-.9c-.8-.3-1.2-.8-1.2-1.3s.6-1.4,1.6-1.4.9.1,1.2.3l-.2.6c-.2-.1-.5-.3-1-.3s-.8.3-.8.6.3.6.9.8c.8.3,1.2.7,1.2,1.4s-.6,1.4-1.8,1.4-1-.1-1.3-.3l.2-.6h.1Z"/>
            <path d="M118.6,305.9c.2-.6.5-1.6.6-2.3h1c-.2.7-.6,1.8-.9,2.3h-.7Z"/>
            <path d="M123.1,303.8c.3.2.7.3,1.1.3.6,0,.9-.3.9-.7s-.2-.6-.9-.9c-.8-.3-1.2-.8-1.2-1.3s.6-1.4,1.6-1.4.9.1,1.2.3l-.2.6c-.2-.1-.5-.3-1-.3s-.8.3-.8.6.3.6.9.8c.8.3,1.2.7,1.2,1.4s-.6,1.4-1.8,1.4-1-.1-1.3-.3l.2-.6h.1Z"/>
            <path d="M128.1,298.9v1.1h1.2v.7h-1.2v2.5c0,.6.2.9.6.9h.5v.6c-.1,0-.4.1-.7.1s-.7-.1-.9-.4c-.2-.3-.3-.7-.3-1.2v-2.6h-.7v-.7h.7v-.9l.8-.3v.2Z"/>
            <path d="M130.3,297.8h.8v3h0c.3-.5.8-.9,1.6-.9,1.2,0,2,1,2,2.4s-1.1,2.5-2.1,2.5-1.2-.3-1.6-.9h0v.8h-.8v-6.9h.1ZM131.1,302.8v.3c.2.6.7,1,1.3,1,.9,0,1.4-.7,1.4-1.8s-.5-1.7-1.4-1.7-1.1.4-1.3,1v1.1h0Z"/>
            <path d="M135.9,304.8c-.3,0-.6-.3-.6-.6s.2-.6.6-.6.6.3.6.6-.2.6-.6.6h0Z"/>
            <path d="M140.6,298.7c0,.3-.2.5-.5.5s-.5-.2-.5-.5.2-.5.5-.5.5.2.5.5ZM139.6,304.7v-4.7h.9v4.7h-.9Z"/>
            <path d="M141.9,297.8h.9v6.9h-.9v-6.9Z"/>
            <path d="M144.5,300l1,2.8c.1.3.2.7.3,1h0c0-.3.2-.6.3-1l.9-2.8h.9l-1.3,3.3c-.6,1.6-1,2.4-1.6,2.9-.4.4-.8.5-1,.6l-.2-.7c.2,0,.5-.2.7-.4s.5-.5.7-1v-.4l-1.7-4.3h1Z"/>
            <path d="M149.1,302.5c0,1.2.8,1.6,1.6,1.6s1-.1,1.3-.2v.6c-.2.1-.7.3-1.4.3-1.4,0-2.3-1-2.3-2.4s.8-2.5,2.2-2.5,1.9,1.3,1.9,2.2,0,.3,0,.4h-3.3ZM151.6,301.9c0-.5-.2-1.4-1.2-1.4s-1.2.8-1.3,1.4h2.5Z"/>
            <path d="M153.4,303.8c.3.2.7.3,1.1.3.6,0,.9-.3.9-.7s-.2-.6-.9-.9c-.8-.3-1.2-.8-1.2-1.3s.6-1.4,1.6-1.4.9.1,1.2.3l-.2.6c-.2-.1-.5-.3-1-.3s-.8.3-.8.6.3.6.9.8c.8.3,1.2.7,1.2,1.4s-.6,1.4-1.8,1.4-1-.1-1.3-.3l.2-.6h.1Z"/>
            <path d="M157.4,301.3v-1.3h.7v.8h0c.3-.4.7-.9,1.5-.9s1.1.4,1.3.9h0c.1-.3.3-.5.5-.6.3-.2.6-.3,1-.3s1.5.4,1.5,2v2.8h-.8v-2.7c0-.9-.3-1.4-1-1.4s-.9.4-1,.8v3.3h-.8v-2.8c0-.7-.3-1.3-1-1.3s-.9.4-1.1.9v3.2h-.8v-3.4h0Z"/>
            <path d="M166.4,298.7c0,.3-.2.5-.5.5s-.5-.2-.5-.5.2-.5.5-.5.5.2.5.5ZM165.5,304.7v-4.7h.9v4.7h-.9Z"/>
          </g>
        </g>
      </g>
      <g>
        <g>
          <polygon class="cls-17" points="634.9 325.1 536.8 382.3 535.7 360.5 633.9 304.8 634.9 325.1"/>
          <polygon class="cls-31" points="535.7 360.5 434 329.1 542.8 281.6 633.9 304.8 535.7 360.5"/>
          <polygon class="cls-15" points="435.1 350.7 536.7 382.1 535.7 360.5 434 329.1 435.1 350.7"/>
          <polygon class="cls-17" points="434.1 331.3 535.8 362.7 535.7 360.5 434 329.1 434.1 331.3"/>
          <polygon class="cls-17" points="435.1 350.9 536.8 382.3 536.7 380.1 435 348.7 435.1 350.9"/>
          <polygon class="cls-33" points="529.5 378 536.7 380.1 535.8 362.7 528.6 360.5 529.5 378"/>
          <polygon class="cls-33" points="443.9 346.8 447.4 344.8 451.1 349 450.8 342.9 443.6 340.7 443.9 346.8"/>
        </g>
        <g>
          <polygon class="cls-15" points="621.3 297.5 535.2 347.6 534.3 328.7 620.5 280.6 621.3 297.5"/>
          <polygon class="cls-18" points="620.6 282.2 534.4 330.7 534.3 328.7 620.5 280.6 620.6 282.2"/>
          <polygon class="cls-18" points="621.4 298.7 535.2 347.8 535.1 345.9 621.3 297.1 621.4 298.7"/>
          <polygon class="cls-12" points="621.5 301.6 535.9 351 535.2 347.9 618.1 300.6 621.5 301.6"/>
          <polygon class="cls-22" points="620.5 280.6 540.5 260.6 446.1 301.7 450.2 307.3 450 303 534.3 328.7 620.5 280.6"/>
          <path class="cls-15" d="M449.5,321.3l85.2,26.3c.2,0,.5,0,.5-.3l-.9-18.1-83.4-25.8c-2.1-.7-4.3.9-4.2,2.9l.6,12.3c0,1.2.9,2.3,2.2,2.7Z"/>
          <polygon class="cls-18" points="521.8 340 524.8 338.3 528 341.8 527.7 331.7 521.5 329.8 521.8 340"/>
          <polygon class="cls-18" points="454.1 322.7 447 320.5 446.1 301.7 453.2 303.9 454.1 322.7"/>
          <polygon class="cls-18" points="448.6 321 447 320.5 446.1 301.7 447.6 302.2 448.6 321"/>
          <polygon class="cls-18" points="446.2 303.6 534.4 330.6 534.3 328.7 446.1 301.7 446.2 303.6"/>
          <polygon class="cls-18" points="447 320.5 535.3 347.8 535.2 345.9 446.9 318.7 447 320.5"/>
          <polygon class="cls-12" points="447.4 323.4 535.9 351 535.2 347.8 450.9 321.7 447.4 323.4"/>
        </g>
      </g>
      <g>
        <g>
          <g>
            <path class="cls-32" d="M473.8,296.4c3.3,4.5-.5,16.8-9.8,30.3-8.5,12.5-21.7,26-38.3,35.7-34.6,20.2-68.7,19.3-75.2,10.2l-32.2-47.3,125.2-73.1s30,43.9,30.3,44.2Z"/>
            <g>
              <polygon class="cls-30" points="471.2 234.7 402.8 327.3 399.1 321.9 467.7 229.6 471.2 234.7"/>
              <polygon class="cls-32" points="467.7 229.6 430.3 279.9 399.1 321.9 296.6 345 292.2 345.7 365.1 254.3 467.7 229.6"/>
              <polygon class="cls-30" points="295.5 350.5 402.8 327.3 399.1 321.9 292.2 345.7 295.5 350.5"/>
            </g>
          </g>
          <path class="cls-12" d="M467.7,229.6l-37.4,50.3-2,2.8c6.1-39.7-63.2-28.4-63.2-28.4l102.7-24.7Z"/>
          <path class="cls-9" d="M473.8,296.4c3.3,4.5-.5,16.8-9.8,30.3,0,0,2.9-18.6-4.9-30-10.4-15.2-24.1-12.9-24.1-12.9l15.5-21.1s23,33.5,23.3,33.8Z"/>
        </g>
        <path class="cls-31" d="M387.1,281.8c.4.6.4,1.3,0,2.1-.5,1.4-2,3-4.1,4.2-3.3,1.9-6.8,2.3-7.9.7-.8-1.1,0-2.9,1.8-4.6.6-.6,1.4-1.2,2.3-1.7,3.3-1.9,6.8-2.3,7.9-.7Z"/>
        <path class="cls-3" d="M381.1,285.3l-33.5,44.1s-6.7,6.3-12,22.4"/>
        <path class="cls-17" d="M387.1,281.8c.4.6.4,1.3,0,2.1-4.5-2.4-8.4-.7-10.2.3.6-.6,1.4-1.2,2.3-1.7,3.3-1.9,6.8-2.3,7.9-.7Z"/>
        <g>
          <g>
            <path class="cls-31" d="M345.1,370.6c2.7,10.9,2.8,20.1.2,20.6-2.5.5-6.8-7.8-9.4-18.7s-2.8-20.1-.2-20.6c.7-.1,1.5.4,2.4,1.5,2.3,2.8,5.1,9.4,7,17.2Z"/>
            <path class="cls-17" d="M345.1,370.6c2.7,10.9,2.8,20.1.2,20.6.1-24.1-9.6-35.8-9.6-35.8l2.4-2c2.3,2.8,5.1,9.4,7,17.2Z"/>
          </g>
          <g>
            <path class="cls-31" d="M340.4,351.6c.4,1.6-.2,3.2-1.5,4.3-.6.5-1.3.8-2,1-2.5.5-5.1-.9-5.6-3.3-.4-1.6.2-3.2,1.4-4.2.6-.5,1.3-.9,2.1-1,2.5-.5,5.1.9,5.6,3.3Z"/>
            <path class="cls-17" d="M340.4,351.6c.4,1.6-.2,3.2-1.5,4.3,0-.2-.1-.4-.2-.5-1.6-5.7-5.2-6-6.1-6,.6-.5,1.3-.9,2.1-1,2.5-.5,5.1.9,5.6,3.3Z"/>
          </g>
        </g>
      </g>
      <g>
        <rect class="cls-26" x="611.7" y="227" width="13.8" height="108.3" transform="translate(-55.2 193.5) rotate(-17)"/>
        <rect class="cls-32" x="615.9" y="227.1" width="1.5" height="108.8" transform="translate(-55.4 193) rotate(-17)"/>
        <rect class="cls-32" x="619.6" y="226" width="1.5" height="108.8" transform="translate(-54.9 194) rotate(-17)"/>
        <rect class="cls-32" x="627.5" y="332.5" width="14.2" height="2.8" transform="translate(-70 200.5) rotate(-17)"/>
        <path class="cls-31" d="M628.6,335.1h14.2v1.4c0,1.9-1.6,3.5-3.5,3.5h-7.2c-1.9,0-3.5-1.6-3.5-3.5v-1.4h0Z" transform="translate(-71 201) rotate(-17)"/>
        <polygon class="cls-8" points="609.4 227.3 596.1 231.4 598.5 222.1 599.5 218 602.5 220.9 609.4 227.3"/>
        <polygon class="cls-32" points="602.5 220.9 598.5 222.1 599.5 218 602.5 220.9"/>
      </g>
      <g>
        <path class="cls-25" d="M401.9,167.1h0c.7-1.1.3-2.5-.8-3.2l-13.7-8.5c-1.1-.7-2.5-.3-3.2.8l-1.2,2-1,1.6-20,32.1c-.7,1.1-.3,2.5.8,3.2l47.5,29.5c1.1.7,2.5.3,3.2-.8l19.7-31.7c.7-1.1.3-2.5-.8-3.2l-29.8-18.6c-1.1-.7-1.4-2.1-.8-3.2Z"/>
        <path class="cls-26" d="M410.2,224.5l-47.5-29.5c-1.1-.7-1.4-2.1-.8-3.2l23.2-29.5c.7-1.1,2.1-1.4,3.2-.8l47.5,29.5c1.1.7,1.4,2.1.8,3.2l-23.2,29.5c-.7,1.1-2.1,1.4-3.2.8Z"/>
      </g>
      <g>
        <g class="cls-11">
          <path class="cls-29" d="M520.8,279.2c-2.1-1.7-5.5.5-5.8,3.2-.3,2.7,1.5,5.2,3.7,6.8,6.4,4.9,15.2,4.6,23.2,4.1l14.5-.9c3.7-.2,8-.8,10.1-3.8,2.5-3.5.4-8.9-3.3-11-3.8-2.1-8.6-1.4-12.5.4-3.4,1.6-6.6,4.1-10.4,4.5-6.7.7-16-6.2-22.2-3.6"/>
        </g>
        <g>
          <path class="cls-17" d="M576,183.2c-1.3.3-6.1.4-10.6.7-.9-2.5-2.2-7.9-4.1-14.8-.4-1.4-2.3-3.9-4.5-4.8-1.4-.6-3.4.5-2.8,3.1.3,1.5.7,3.5,2.4,8.3,2.4,6.7,4.1,9.9,5.1,11.5.1.3.3.5.5.7.1.1.2.2.4.3.4.2.9.4,1.4.4,4.1-.2,3.8-.3,9.1-1.9,3.7-1.1,3.1-.3,3.8-1.2.6-.8.3-2.6-.8-2.4Z"/>
          <path class="cls-31" d="M541.9,176.1c.9,3.4,1.3,6.9,1.6,10.5.3,2.6,0,5.2-.6,7.8-.3,1.5-.7,3-1.2,4.5-.2.6-1.6,5.1-1.7,5.6,0,0,20.1,1.4,21.2,1.5,0-4.2-3.8-17.6,0-25.8,2.6-5.7-.3-6.1-2-11.1-.4-1.2-3.4-3.7-4.6-4.1-.6-.2-1.3-.3-2-.4-3.6-.5-11.1-2.6-12.2,2.5-.3,1.4.2,5.8.7,7.2.2.6.4,1.2.5,1.8Z"/>
          <path class="cls-28" d="M560.4,247.9c0-.4,0-.8,0-1.2,0-.6.1-1.3.1-2.1,0-3.2.4-16.9.6-25.1h0c.5-7.2.1-13.5.1-13.5l-21.2-1.5c-.8,3.1-1.2,5.7-1.3,7.8-.6,3.2-3.7,26.3-4.6,30.6,0,.2,0,.4-.1.6-4.6,6.9-8.1,33.2-8.9,37.7-.1.6.2.6.6.5,1.1-.1.7-1.1,2.2-.9.8.1.9,1.2.9,1.2,2.1-6.1,9-27.5,12.1-33.9.5-1,.7-1.8.8-2.6,2.5-7.1,6.6-19.2,7.7-24.5.6,6,2,19.6,3.3,26-2.8,8.6.1,26.7-.3,37.1,1.2-1.7,2.3-2.1,2.8-2,.8.1,1.2.8,1.2.8.8-13.8,3.3-27.6,4-34.7Z"/>
          <path class="cls-16" d="M556.6,282.6c.2.5,1.3,1.7,2.9,2.5,1.6.8,4.9,1.4,3,1.9-1.9.5-4.1,0-5.2-.3-1.1-.3-2.2-.4-3.5-.5-1.7-.1-1.7-.2-1.4-2.2.5-2.7,3.6-3,4.2-1.5Z"/>
          <path class="cls-16" d="M528.9,281.5c.2.5.3,2.8,1.9,3.6,1.6.8,4.9,1.4,3,1.9-1.9.5-4.1,0-5.2-.3-1.1-.3-1.2-1.5-2.5-1.6-1.7-.1-1.7-.2-1.4-2.2.5-2.7,3.6-3,4.2-1.5Z"/>
          <path class="cls-24" d="M545.1,173.4c.3.2.6.3.9.5l-1.7,5.3c.3-1.7.5-3.7.9-5.9Z"/>
          <path class="cls-20" d="M547.2,155.2c0,.2-.7,5.1-1.1,8.9-.2,1.8,1.1,3.7,2.4,3.8,0,0,0,0,0,0,1.3,0,2.9-1.4,3-3.3,0-3.3.4-6.6.4-6.7l-4.7-2.7Z"/>
          <path class="cls-23" d="M544.8,151.5c.1,4.2.2,5.2,1.9,7,1.7,1.8,4.3,2.8,6.3,2.9,2.1.1,3.9-2,4.5-3.7.6-1.8,1.5-6.1,1.2-10.7-.1-2.3-2.8-5.4-5.8-5.6-3-.2-8.4-.2-8.1,10.1Z"/>
          <path class="cls-21" d="M558.7,144.5c-.4-.9-1.9-2.4-3.1-3-2.3-1.7-5.2-1.6-7.5-.9-.7-.3-1.5-.6-2.3-.8h0c0-.1-4.5-2.5-8.1-.9-2,.9-3.4,2.8-4.1,5.8h.1c-.5,1.6-.5,3.3,0,4.9.6,1.6,1.7,2.9,2.2,4.4,1.2,3.4,0,7-3.3,8.6,1.1,1,2.9.7,4.2-.1,1.2-.8,2.1-2.6,3.2-3.5,1.9-1.6,1.8-6.3,4.3-6.1l3.8-2.6c3-.7,6.8-1.5,8.9-3.2.8.6,1.5,1.1,1.7,1.9.4,1.2.8-2.6,0-4.4ZM537.1,140.4c-1.3.8-2.3,1.9-3,3.3.7-2.2,1.9-3.7,3.6-4.5,2.8-1.2,6.2,0,7.4.6-2.8-.7-5.6-.8-8,.6Z"/>
          <path class="cls-23" d="M546.1,151.6c.5,1.5.3,2.9-.5,3.2-.8.3-1.8-.7-2.3-2.2-.5-1.5-.3-2.9.5-3.2.8-.3,1.8.7,2.3,2.2Z"/>
          <polygon class="cls-27" points="575 191.2 562.5 193.9 562.5 177.3 575 174.6 575 191.2"/>
          <g>
            <path class="cls-23" d="M558.1,185.6c1-.8,2.3-1.6,3.2-1.7.9,0-.6,1.1-1.4,1.8-.7.6-2.7.5-1.9-.1Z"/>
            <path class="cls-23" d="M559.5,185.6c2.6-.4,3.9-1.1,5.1-.6,1.2.5-.5,2.1-1.4,2.4s-4,1.5-4.9.9c-.9-.6-.7-2.4,1.2-2.7Z"/>
          </g>
          <path class="cls-17" d="M557.8,185.5c-1.4.3-9.5,0-14.2,0,.3-2.9,1.1-8,2-14.3.2-1.4-.6-4.5-2.2-6.2-1-1.1-3.3-.9-3.8,1.8-.3,1.5-.7,3.5-1.1,8.6-.6,8.3,0,11.8.3,13.4,0,.4.3.6.6.8.5.5,1.1.8,1.9.8,4.3,0,5.8,0,11.4-1.4,3.8-1,5,0,5.8-1,.7-.8.4-2.7-.7-2.5Z"/>
          <path class="cls-23" d="M574.8,184.3c0-.7,0-1.9.4-2.9.2-.6.9-1,1.3-.5.4.5,1.1,2.3.8,3.2-.3.7-.9,1.4-1.6,1.7-.6.3-1-.3-1-1.5Z"/>
        </g>
      </g>
      <g>
        <polygon class="cls-22" points="615.2 177.7 608.9 172.2 645.5 162 632.8 192.9 622.5 183.7 618.2 187.7 615.2 177.7"/>
        <polygon class="cls-10" points="645.5 162 622.5 183.7 618.2 187.7 615.2 177.7 645.5 162"/>
      </g>
      <g>
        <polygon class="cls-31" points="424.8 110.6 428.8 103.2 390.9 106.5 413.7 131 420.1 118.8 425.5 121 424.8 110.6"/>
        <polygon class="cls-10" points="390.9 106.5 420.1 118.8 425.5 121 424.8 110.6 390.9 106.5"/>
      </g>
      <g>
        <path class="cls-7" d="M613.6,191.3c-.5.3-1,.6-1.5.9"/>
        <path class="cls-4" d="M603.5,197.5c-3.6,2.4-7,5-9.9,8.2-5.7,6-9.7,14.1-8.9,22.3.5,5,2.7,9.6,4.5,14.2,1.8,4.6,3.3,9.7,2.4,14.6-.5,2.6-1.9,5.2-3.8,6.9"/>
        <path class="cls-7" d="M583.3,266c-.6.1-1.2.2-1.8.2"/>
      </g>
      <g>
        <path class="cls-7" d="M431.6,125.7c.4.5.7.9,1.1,1.4"/>
        <path class="cls-2" d="M438.4,135.8c1,2,1.7,4,2.1,6.2,1.2,6.1-1.1,13.4-6.8,16.1-7.6,3.6-15.9-2.3-22.9-6.9-9.3-6.2-19.9-10.5-30.8-12.8-7.9-1.6-16.3-2.1-23.7.9-8.6,3.5-14.8,11.4-18.3,19.9-3.5,8.6-4.8,17.9-6,27-.6,4.7-1.2,9.5-.5,14.2s3,9.4,7,11.9c5.9,3.7,13.5,1.9,20.5,2.3,8.9.5,17.5,4.9,23,11.9,4.1,5.1,6.4,11.6,6.8,18.2"/>
        <path class="cls-7" d="M388.6,249.9c0,.6-.2,1.2-.3,1.8"/>
      </g>
      <g>
        <path class="cls-7" d="M445.7,388.4c0-.6,0-1.2,0-1.8"/>
        <path class="cls-1" d="M453.4,380.4c3.8,0,7.3,2.1,9.9,4.9,2.7,2.9,4.6,6.5,6.8,9.8,8.4,12.4,22.1,21.1,37,23.2,14.8,2.2,30.5-2.1,42.1-11.5,9.6-7.8,16.2-18.6,24.9-27.3,7-7.1,16.3-13,25.9-13.5"/>
        <path class="cls-7" d="M605.3,366.3c.6,0,1.2.2,1.7.4"/>
      </g>
      <path class="cls-6" d="M536.7,102.3c4.7-1.1,9,2.9,11.2,7.2,2.2,4.3,3.3,9.2,6.4,12.8,5.3,6.2,14.7,6.6,22.8,6.4,8.2-.2,17.4-.2,23.2,5.6"/>
      <g>
        <g>
          <g>
            <rect class="cls-32" x="472.2" y="157.6" width="1.8" height="23" transform="translate(103.5 -171.2) rotate(23)"/>
            <path class="cls-22" d="M459.9,200.5h0c-2.4-1-3.4-3.7-2.5-6.1l8.3-19.7c1-2.4,3.7-3.4,6.1-2.5h0c2.4,1,3.4,3.7,2.5,6.1l-8.3,19.7c-1,2.4-3.7,3.4-6.1,2.5Z"/>
            <circle class="cls-5" cx="486.5" cy="137.7" r="23.4" transform="translate(215.8 564.8) rotate(-73.4)"/>
          </g>
          <circle class="cls-13" cx="486.7" cy="137.3" r="20" transform="translate(11.8 311) rotate(-35.8)"/>
        </g>
        <ellipse class="cls-14" cx="483.8" cy="128.6" rx="7.9" ry="6.5"/>
      </g>
      <g>
        <g class="cls-19">
          <path class="cls-31" d="M51.6,185.8c0-3.3,0-10.1-.2-12.6-.2-3.9-.4-4.2-.4-4.2.6-.2,1.2-.4,1.8-.4,1.8,0,3.5.9,3.5,2.5,0,4.6-.2,8.3-.2,11.3v11.8l7.3-.2c2.6,0,4.3-.4,5.3-.9v1.1c0,2.5-.9,2.8-3.8,2.8l-13.9-.2s.4-1.1.4-11h.2Z"/>
          <path class="cls-31" d="M81.5,176.4c6.7,0,10.1,4.6,10.1,9.4s-3.7,11.6-10.5,11.6-10.1-4.9-10.1-10,3.6-11,10.5-11ZM81.5,195.6c3.5,0,5.2-4.5,5.2-9.1s-1.9-8.3-5.7-8.3-5.2,4.2-5.2,8.5,1.9,8.9,5.6,8.9h0Z"/>
          <path class="cls-31" d="M96.7,187.2c0-8.1-.8-10.2-1-10.3.7-.2,1.3-.4,1.9-.4,1.8,0,3.2.9,3.2,2.5s-.3,1.5-.3,1.5h.2c1.1-2.5,3.9-4,6-4s1.9.7,1.9,1.5-.2,2-.5,2.8h-.2c-1.3-.6-2.3-1-3.2-1-3.1,0-4,3.2-4,7.6,0,7.8.8,9.3.9,9.3-1,.2-1.9.4-2.8.4-1.5,0-2.5-.6-2.5-3.1s.2-4.7.2-6.9h.2Z"/>
          <path class="cls-31" d="M120.1,176.4c5.2,0,7.3,3,7.3,5.7,0,4-4.2,5.4-7.7,5.4s-4.4-1.1-4.4-1.1h-.2c0,4.8,2.2,8.1,6.3,8.1s6.2-2.3,6.2-2.3l.2.2s-1.3,5-8,5-9.3-4.2-9.3-10,3.6-11,9.4-11h.2ZM119,185.4c1.8,0,3.7-1,3.7-3.5s-.8-3.8-3.1-3.8-4.3,4.8-4.3,6.3,2,1,3.7,1h0Z"/>
          <path class="cls-31" d="M133.1,187.1c0-2,0-4-.2-6-.2-3.9-.8-4.2-.8-4.2.7-.2,1.3-.4,1.9-.4,1.8,0,3.1,1,3.1,2.2s-.2,1-.2,1h.2c.8-1.9,3.6-3.2,6.2-3.2,3.7,0,5.2,1.4,5.4,3.2h.2c.9-1.9,3.7-3.2,6.3-3.2,5.2,0,5.8,2.7,5.8,5.5s-.2,5.5-.2,8.9,0,4.2,2,4.2,1.5-.6,1.5-.6h.2c0,0-1,2.6-4.4,2.6s-3.6-.8-3.6-3.2c0-3.4.1-5.8.1-9.8s0-5.2-3.4-5.2-4.2,5.1-4.2,7v7.1c0,2.8-.9,3.4-1.5,4.1-1.4-.2-2.9-.3-2.9-3.1s.1-6,.1-10,0-5.2-3.5-5.2-4,1.9-4,5.5.2,6.3.2,10-1.1,2.7-2.5,2.7-1.9-.2-2.8-.4c.3,0,1-2.6,1-9.7v.2Z"/>
          <path class="cls-31" d="M178.2,182.2c0-3.3,0-6.5-.2-9-.2-3.9-.4-4.2-.4-4.2.7-.2,1.5-.4,2.2-.4,1.8,0,3.1.9,3.1,2.5,0,3.5-.2,6.7-.2,10,0,5.2,0,10.3.7,15.6-1,.2-1.8.4-2.7.4-1.4,0-2.6-.6-2.6-2.7v-12.2h0Z"/>
          <path class="cls-31" d="M190.4,187.2c0-3.7-.1-8.2-.9-10.3.7-.2,1.3-.4,1.9-.4,1.8,0,3.2,1,3.2,2.2s0,.5,0,.7h.2s1.5-3.1,6.4-3.1,7.3,4,7.3,9.1-3.8,11.8-11.7,11.8-1.3,0-2-.2v1.9c0,4.6.7,6.7.7,6.7-1,.2-1.9.4-2.8.4-1.5,0-2.4-.6-2.4-3.1,0-3.9.1-7.8.1-15.7ZM197.3,195.4c4.3,0,6.4-4.6,6.4-9.1s-1.5-7.4-4.3-7.4-4.2,1.8-4.5,4.8c-.2,1.7-.2,3.6-.2,5.4v5c0,1,1.2,1.3,2.7,1.3h0Z"/>
          <path class="cls-31" d="M212.6,192.4h.2s2.3,2.9,6.2,2.9,3.5-1.3,3.5-2.7c0-4.1-10.3-3.5-10.3-10.2s3.7-5.9,7.3-5.9,6,.6,6,2.2-.7,2.1-1.4,2.9h-.2s-1.9-3.3-5-3.3-3.1,1.3-3.1,3c0,4,10.3,3.1,10.3,10.2s-3.9,6.1-7.6,6.1-6.8-1.1-6.8-2.8.5-1.6.8-2.2v-.2Z"/>
          <path class="cls-31" d="M230.8,185.6c0-1,0-3-.1-4.9-.1-1.6-.3-3.1-.8-3.8.7-.2,1.3-.4,1.9-.4,1.8,0,3.4,1,3.4,2.5,0,3.3-.1,5.8-.1,9.7s.2,6.1,3.3,6.1,4.8-4.8,4.8-8.3,0-4.8-.2-6.2c-.3-2.7-.7-3.6-.7-3.6.7-.2,1.3-.4,1.9-.4,1.9,0,3.4,1,3.4,2.6,0,3.7-.3,7.4-.3,11.9s.1,4.1,2,4.1,1.5-.6,1.5-.6h.2c0,0-1,2.6-4.4,2.6s-3.2-.8-3.2-2.8,0-.4,0-.4h-.2s-1.5,3.4-6.4,3.4-6.2-3.1-6.2-6.3v-5.4l.2.2Z"/>
          <path class="cls-31" d="M255.1,187.1c0-2,0-4-.2-6-.2-3.9-.8-4.2-.8-4.2.7-.2,1.3-.4,1.9-.4,1.8,0,3.1,1,3.1,2.2s-.2,1-.2,1h.2c.8-1.9,3.6-3.2,6.2-3.2,3.7,0,5.2,1.4,5.4,3.2h.2c.9-1.9,3.7-3.2,6.3-3.2,5.2,0,5.8,2.7,5.8,5.5s-.2,5.5-.2,8.9,0,4.2,2,4.2,1.5-.6,1.5-.6h.2c0,0-1,2.6-4.4,2.6s-3.6-.8-3.6-3.2c0-3.4.1-5.8.1-9.8s0-5.2-3.4-5.2-4.2,5.1-4.2,7v7.1c0,2.8-.9,3.4-1.5,4.1-1.4-.2-2.9-.3-2.9-3.1s.1-6,.1-10,0-5.2-3.5-5.2-4,1.9-4,5.5.2,6.3.2,10-1.1,2.7-2.5,2.7-1.9-.2-2.8-.4c.3,0,1-2.6,1-9.7v.2Z"/>
        </g>
        <g class="cls-19">
          <path class="cls-31" d="M51.7,233.5c0-2.4-.2-10.7-.2-12.6-.2-3.9-.4-4.2-.4-4.2h8.8c8.2,0,16.8,3.1,16.8,13.9s-5.8,14.3-13.5,14.3-5.4-.4-11.9-.4c0,0,.4-1.1.4-11ZM61.9,242.5c6.1,0,9.6-5.1,9.6-11.2,0-9.3-6.7-12.5-13.2-12.5s-1.3,0-1.9,0c0,0,0,9.6,0,14.5s0,4.8,0,7.3c0,1.6,3.4,1.9,5.5,1.9Z"/>
          <path class="cls-31" d="M91,224.1c6.7,0,10.1,4.6,10.1,9.4s-3.7,11.6-10.5,11.6-10.1-4.9-10.1-10,3.6-11,10.5-11ZM91,243.3c3.5,0,5.2-4.5,5.2-9.1s-1.9-8.3-5.7-8.3-5.2,4.2-5.2,8.5,1.9,8.9,5.6,8.9h0Z"/>
          <path class="cls-31" d="M106,228.7c0-3.7,0-7.3-.2-9.8-.2-3.7-.7-4.4-.7-4.4v-.2c2.8,0,5.2.5,5.2,2.9,0,4-.2,8.2-.2,12.4s0,7.1.2,10.6c0,1.3.4,2.6,1.8,2.6s1.5-.6,1.5-.6h.2c0,.1-1,2.6-4.4,2.6s-3.6-.8-3.6-3.5.2-8.1.2-12.7h0Z"/>
          <path class="cls-31" d="M126.3,224.1c6.7,0,10.1,4.6,10.1,9.4s-3.7,11.6-10.5,11.6-10.1-4.9-10.1-10,3.6-11,10.5-11ZM126.3,243.3c3.5,0,5.2-4.5,5.2-9.1s-1.9-8.3-5.7-8.3-5.2,4.2-5.2,8.5,1.9,8.9,5.6,8.9h0Z"/>
          <path class="cls-31" d="M141.5,234.9c0-8.1-.8-10.2-1-10.3.7-.2,1.3-.4,1.9-.4,1.8,0,3.2.9,3.2,2.5s-.3,1.5-.3,1.5h.2c1.1-2.5,3.9-4,6-4s1.9.7,1.9,1.5-.2,2-.5,2.8h-.2c-1.3-.6-2.3-1-3.2-1-3.1,0-4,3.2-4,7.6,0,7.8.8,9.3.9,9.3-1,.2-1.9.4-2.8.4-1.5,0-2.5-.6-2.5-3.1s.2-4.7.2-6.9h.2Z"/>
          <path class="cls-31" d="M166.3,238.9h.3s3.1,3.7,8.5,3.7,5.2-2.1,5.2-4.2c0-6.3-14.3-5.4-14.3-14.1s4.9-8.1,9.9-8.1,7.9.8,7.9,3-.6,2.3-1.5,3.2h-.3s-2.7-4.1-6.9-4.1-4.6,1.9-4.6,4.4c0,6.2,14.3,4.8,14.3,14s-5.2,8.4-10.2,8.4-9.1-1.3-9.1-3.9.6-1.7,1-2.3h-.2Z"/>
          <path class="cls-31" d="M190.2,234.9c0-9.1-.9-10.3-1-10.3.7-.2,1.3-.4,1.9-.4,1.8,0,3.4,1,3.4,2.5,0,4.2-.2,9-.2,11.9s0,4.2,2,4.2,1.5-.6,1.5-.6h.2c0,.1-1,2.6-4.4,2.6s-3.6-.8-3.6-3.2.2-4.6.2-6.8h0ZM189.5,218.2c0-1.5,1.2-2.7,2.7-2.7s2.7,1.2,2.7,2.7-1.2,2.7-2.7,2.7-2.7-1.2-2.7-2.7Z"/>
          <path class="cls-31" d="M201.9,230.3c0-3.4-.3-3.5-1.8-4v-1.7c1.7,0,5.5-3.3,6-4.6l.9.3-.8,4.3h3.3c1.6,0,2.1-.4,2.1-.4v1.1c0,1.7-.8,2-2.2,2h-3.2s-.1,4.7-.1,7.7.4,7.3,3.4,7.3,4.2-1.9,4.2-1.9l.2.2s-1.3,4.6-6.2,4.6-6-3.3-6-7.7.2-5.6.2-7.1h0Z"/>
          <path class="cls-31" d="M223.4,244.3s1.1-.8,2.6-5l8.3-23.1s4,.2,5.4,4.8c1.5,5,5,15.7,7,20.1,1.1,2.5,1.4,3,1.8,3.2v.2s-1.5.4-2.9.4-3.2-.7-3.7-2.4c-.5-1.8-1.3-4.4-2.2-7.3h-4c-2,0-4,0-5.7.2-2.4,7.2-2.2,9.6-5.3,9.6s-1.4-.4-1.4-.4v-.2h0ZM235,233.2h4.1c-1.4-4.2-3-8.7-4.2-12h-.2c-1.7,4.9-2.9,8.8-3.9,12h4.2,0Z"/>
          <path class="cls-31" d="M252.5,234.8c0-2,0-4-.2-6-.2-3.9-.8-4.2-.8-4.2.7-.2,1.3-.4,1.9-.4,1.8,0,3.1,1,3.1,2.2s-.2,1-.2,1h.2c.8-1.9,3.6-3.2,6.2-3.2,3.7,0,5.2,1.4,5.4,3.2h.2c.9-1.9,3.7-3.2,6.3-3.2,5.2,0,5.8,2.7,5.8,5.5s-.2,5.5-.2,8.9,0,4.2,2,4.2,1.5-.6,1.5-.6h.2c0,.1-1,2.6-4.4,2.6s-3.6-.8-3.6-3.2c0-3.4.1-5.8.1-9.8s0-5.2-3.4-5.2-4.2,5.1-4.2,7v7.1c0,2.8-.9,3.4-1.5,4.1-1.4-.2-2.9-.3-2.9-3.1s.1-6,.1-10,0-5.2-3.5-5.2-4,1.9-4,5.5.2,6.3.2,10-1.1,2.7-2.5,2.7-1.9-.2-2.8-.4c.3-.1,1-2.6,1-9.7v.2Z"/>
          <path class="cls-31" d="M295.2,224.1c5.2,0,7.3,3,7.3,5.7,0,4-4.2,5.4-7.7,5.4s-4.4-1.1-4.4-1.1h-.2c0,4.8,2.2,8.1,6.3,8.1s6.2-2.3,6.2-2.3l.2.2s-1.3,5-8,5-9.3-4.2-9.3-10,3.6-11,9.4-11h.2ZM294.1,233.1c1.8,0,3.7-1,3.7-3.5s-.8-3.8-3.1-3.8-4.3,4.8-4.3,6.3,2,1,3.7,1h0Z"/>
          <path class="cls-31" d="M308,230.3c0-3.4-.3-3.5-1.8-4v-1.7c1.7,0,5.5-3.3,6-4.6l.9.3-.8,4.3h3.3c1.6,0,2.1-.4,2.1-.4v1.1c0,1.7-.8,2-2.2,2h-3.2s-.1,4.7-.1,7.7.4,7.3,3.4,7.3,4.2-1.9,4.2-1.9l.2.2s-1.3,4.6-6.2,4.6-6-3.3-6-7.7.2-5.6.2-7.1h0Z"/>
        </g>
      </g>
    </g>
  </g>
</svg>