<?xml version="1.0" encoding="UTF-8"?>
<svg id="Layer_1" xmlns="http://www.w3.org/2000/svg" version="1.1" viewBox="0 0 169.6 63.1">
  <!-- Generator: Adobe Illustrator 29.1.0, SVG Export Plug-In . SVG Version: 2.1.0 Build 142)  -->
  <defs>
    <style>
      .st0 {
        fill: #9d6c29;
      }

      .st1 {
        fill: #231f20;
      }

      .st2 {
        fill: none;
        stroke: #9d6c29;
        stroke-miterlimit: 10;
        stroke-width: 2px;
      }
    </style>
  </defs>
  <polygon class="st0" points="11.9 24.7 9.7 24.7 11.3 26.3 10.3 27.2 8.7 25.7 8.7 27.9 7.4 27.9 7.4 25.7 5.8 27.3 4.9 26.3 6.5 24.7 4.2 24.7 4.2 23.4 6.5 23.4 4.9 21.8 5.8 20.9 7.4 22.5 7.4 20.2 8.7 20.2 8.7 22.5 10.4 20.9 11.3 21.8 9.7 23.4 11.9 23.4 11.9 24.7"/>
  <polygon class="st0" points="11.9 11.8 9.7 11.8 11.3 13.4 10.3 14.3 8.7 12.7 8.7 14.9 7.4 14.9 7.4 12.7 5.8 14.3 4.9 13.3 6.5 11.8 4.2 11.8 4.2 10.4 6.5 10.4 4.9 8.8 5.8 7.9 7.4 9.5 7.4 7.3 8.7 7.3 8.7 9.5 10.4 7.9 11.3 8.8 9.7 10.4 11.9 10.4 11.9 11.8"/>
  <path class="st0" d="M50.1,52.3h0ZM49.7,52.5h0ZM52.1,52.4h0ZM52.3,52.3h0ZM46.4,53.6h0ZM46.5,53.6h0ZM44.7,53.4h0ZM46.4,53.5h0ZM21.3,39.8h0ZM53,51.5h0c0,0,.2,0,.2.3,0,.4,0,.6-.4.7-.8.5-1.6.8-2.4,1.1-3,1-6,1.4-9.2,1.1-5.5-.4-10.1-2.5-14.2-6-1.9-1.6-3.5-3.5-5-5.5-.9-1.2-1.7-2.4-2.5-3.6v-.2h-.2c0,.7,0,1.3.2,1.8,0,.4.1.8,0,1.2.2.8-.1,1.4-.8,1.7-1.1-1.3-1.3-2.8-1.4-4.5,0-.6-.1-1.2-.2-1.8-.2-1.4,0-1.2.8-2s.4-.3.7-.4h.3c.2-.2.5,0,.7,0,.6.4,1.2.7,1.8,1.1.2,0,.3,0,.4.2.2,0,.3,0,.4.2h.3c1.4.5,2.8.8,4.3.9h.3c.1,0,.3,0,.3.2s0,.2-.2.3c-.4.2-.7.5-1,.7h-.5c-1.5,0-2.9-.2-4.3-.6h-.4c-.1,0-.2,0-.2.2.1,0,.2.2.2.3.1,0,.2.2.2.3h0c.1,0,.2,0,.2.3,0,0,.1,0,.2.2.6.8,1.2,1.6,1.8,2.4.5.7,1.1,1.4,1.7,2.1l.5.5c1.6,1.7,3.4,3.2,5.4,4.3.7.4,1.4.8,2.2,1.2.2,0,.3,0,.4.2.2,0,.3,0,.4.2.2,0,.3,0,.4.2h.6c.5.2,1,.4,1.5.5,0,0,0,.2,0,0,0,0-.2,0,0,0h0c1.6.6,3.3.8,4.9,1h5.7c.5,0,1-.2,1.4-.3.3,0,.5,0,.8,0h0c.2,0,.4-.2.6-.2h.2-.2.2s0,0,.2,0h.3c.2,0,.3-.2.5-.2s.2,0,.4,0h.2c.5-.2,1-.4,1.5-.8,0,.2.2.3.2.5l-.3.3Z"/>
  <path class="st0" d="M46,53.3h-.2.2Z"/>
  <polyline class="st2" points="65.3 4.2 66.1 11.4 66.1 16.7 66.1 20.2 66.1 24.4 66.1 26.9 66.6 37.7"/>
  <g>
    <path class="st1" d="M78.3,14.5c0-.2.2-.4.4-.4s.4.2.4.5v4.7c1-1.7,1.7-3.2,2-4.4.1-.4.1-1,.6-1s.6,0,.4.7l-2.3,5.3,2.6,4.9c.1.3,0,.6-.4.6s-.3,0-.4-.2c-.8-1.4-1.5-3.3-2.5-4.7h0c0,.8.2,3.1.2,4.8-.2.4-.7.5-.8,0l-.4-10.9Z"/>
    <path class="st1" d="M85.5,14.3c2.5.3,2.2,6.3,2,8.1,0,1-.6,2.8-2,2.8-2.5,0-2.6-4.2-2.6-5.9s.1-5.1,2.6-5.1ZM83.7,19.3c0,4.1.8,5.2,1.8,5.2s1.4-3.6,1.4-4.5h0c0-1.1-.3-5.1-1.6-5.1s-1.5,2.3-1.5,3c0,.4,0,.8,0,1.2ZM84.3,12.5c.4,0,.6.3.6.7s-.3.4-.6.4-.5-.2-.5-.6.3-.4.5-.4ZM86.1,12.4c.3,0,.5.3.5.7s-.2.4-.5.4-.5-.2-.5-.6.3-.4.4-.4Z"/>
    <path class="st1" d="M89.1,24.8c0-.3.2-.9.3-1.1.6-2.7.8-5.5,1.4-8.4h-2.1c-.2,0-.5,0-.5-.3,0-.1,0-.5.4-.5,1,0,1.8,0,2.7,0s.3,0,.3.3l-1.6,9.6c.4,0,1-.2,1.4-.2s.5,0,.5.4-1,.4-1.2.4c-.5,0-.8.2-1.2.2s-.5-.2-.5-.4h0Z"/>
    <path class="st1" d="M94.9,14.3c2.5.3,2.2,6.3,2,8.1,0,1-.6,2.8-2,2.8-2.5,0-2.6-4.2-2.6-5.9s.1-5.1,2.6-5.1ZM93.1,19.3c0,4.1.8,5.2,1.8,5.2s1.4-3.6,1.4-4.5h0c0-1.1-.3-5.1-1.6-5.1s-1.5,2.3-1.5,3c0,.4,0,.8,0,1.2ZM93.7,12.5c.4,0,.6.3.6.7s-.3.4-.6.4-.5-.2-.5-.6.3-.4.5-.4ZM95.5,12.4c.3,0,.5.3.5.7s-.2.4-.5.4-.5-.2-.5-.6.3-.4.4-.4Z"/>
    <path class="st1" d="M98.5,22.9c.6.2,0,1.4.7,1.8h0c.8,0,1-1.1,1-1.7s0-1.6-.4-2.3c-.7-1.5-2.1-2.8-2.1-4.5s.5-2.1,1.4-2.1,1.6.5,1.6,1.2,0,.4-.4.4c-.5,0-.4-.8-1.2-.8s-.8,1-.8,1.5c0,1.4,1.2,2.4,1.8,3.6.6,1.1.9,2.7.5,3.7-.2.7-.9,1.7-1.7,1.7s-1.4-1.3-1.4-2.1.3-.5.5-.4Z"/>
    <path class="st1" d="M106.8,22.1c0-1.1,0-6.4,0-7.5,0-.2.4-.2.6-.2,1.5,0,2.5,1.3,2.5,2.7s-1,3.2-2.4,3.9c0,.2,0,1.3,0,1.5,0,.5,0,2.6,0,3.1,0,.1-.3.2-.4.2s-.2,0-.3,0v-3.6ZM107.5,20.1c0,0,.2,0,.3,0,.8-.7,1.3-1.6,1.3-2.7s-.5-2.1-1.5-2.1v4.9Z"/>
    <path class="st1" d="M113.6,14.3c2.5.3,2.2,6.3,2,8.1,0,1-.6,2.8-2,2.8-2.5,0-2.6-4.2-2.6-5.9s.1-5.1,2.6-5.1ZM111.8,19.3c0,4.1.8,5.2,1.8,5.2s1.4-3.6,1.4-4.5h0c0-1.1-.3-5.1-1.6-5.1s-1.5,2.3-1.5,3c0,.4,0,.8,0,1.2Z"/>
    <path class="st1" d="M117.3,15.3c0-.6.7-.9,1,0l2.9,7.8c0-.6.1-4.1.2-5.5,0-.8,0-1.7.2-2.5,0-.2.2-.2.4-.2.3,0,.4,0,.4.3,0,1.5-.3,2.9-.3,4.4,0,.8-.2,4.7-.2,5.5,0,.3-.5.1-.6-.1-.1-.3-.3-.6-3.2-8.5v8.6c0,.4-.8.4-.8,0l.2-9.9Z"/>
    <path class="st1" d="M124.3,15.1c-.9,0-1.3,0-1.3-.2,0-.5,0-.6,1.5-.6h1.2c.3,0,.8,0,.8.5s-.2.3-.3.3h-1.2l.3,8.9c0,.1-.3.2-.4.2s-.4,0-.4-.2l-.3-8.9Z"/>
    <path class="st1" d="M129.9,14.3c2.5.3,2.2,6.3,2,8.1,0,1-.6,2.8-2,2.8-2.5,0-2.6-4.2-2.6-5.9s.1-5.1,2.6-5.1ZM128.1,19.3c0,4.1.8,5.2,1.8,5.2s1.4-3.6,1.4-4.5h0c0-1.1-.3-5.1-1.6-5.1s-1.5,2.3-1.5,3c0,.4,0,.8,0,1.2Z"/>
    <path class="st1" d="M132.9,14.5c0-.2.2-.4.4-.4s.4.2.4.5v4.7c1-1.7,1.7-3.2,2-4.4.1-.4.1-1,.6-1s.6,0,.4.7l-2.3,5.3,2.6,4.9c.1.3,0,.6-.4.6s-.3,0-.4-.2c-.8-1.4-1.5-3.3-2.5-4.7h0c0,.8.2,3.1.2,4.8-.2.4-.7.5-.8,0l-.4-10.9Z"/>
    <path class="st1" d="M143.8,22.5h0c0,0-.2,1.7-.2,1.7,0,.2,0,.8-.4.8s-.3-.4-.3-.5c1.5-10.2,1.5-10.2,1.5-10.2,0-.3.2-.7.5-.7s.4,0,.4.2v.3c.9,3.2,1.3,6.5,1.7,9.8v.9c0,0,0,0,0,0,0,.3-.2.4-.4.4h0c0,0-.2,0-.2,0l-.4-2.7h-2.1ZM144,21.7h1.8s-.9-6.5-.9-6.5l-.8,6.5Z"/>
    <path class="st1" d="M82.9,33.5l-1.5,3.7c0,.3-.7.3-.8.2,0,0,0-.1,0-.2-.4-1.2-.7-2.3-1.2-3.5-.2,2.6,0,5.3-.3,8-.2,0-.3,0-.4,0-.3,0-.3,0-.3-.3,0-.5.1-.7,0-9.6,0-.4.6-.7.8-.3l1.7,4.7c.4-.5,1.6-4.4,1.9-4.9.1-.3.4-.2.8,0,0,0,0,4.6,0,6.6,0,1.3,0,2.6,0,3.8s-.2.5-.4.5-.3,0-.4-.3c0-2.8,0-5.7-.2-8.5Z"/>
    <path class="st1" d="M85.3,32.2c0-.3.2-.5.5-.5h2.2c0,0,.4.2.4.3,0,0,0,0,0,0,0,.3-.4.4-.6.4h-1.7v4.7c0,0,1.6-.2,1.6-.2h0c.7,0,.4.6-.2.7l-1.4.2v3.7c0,0,.6,0,.7,0,.9,0,1.6-.3,1.7.3,0,.5-3.1.4-3.1.2l-.2-9.8ZM86.4,29.5l.9-.6s.1,0,.1,0c.2,0,.4.2.4.4s0,.1,0,.2l-.7.4-.5.4c0,0-.1,0-.2,0-.2,0-.3-.1-.3-.3s.2-.4.4-.5Z"/>
    <path class="st1" d="M90,41.2c0-3.2.1-6.4.2-9.5,0-.6.3-.6.8-.6h.1c1.3,0,2.1.8,2.1,2.1v.2c0,1-.3,2.2-1.2,2.9,0,0,.4.5.5.5.6.8.5,2.8.5,3.8,0,0,0,.7,0,.8h0c0,.4-.2.4-.4.4h0c-.2,0-.3,0-.4-.2,0-.5-.1-2.6-.2-3.1,0-.7-.2-1.6-1.1-1.6h-.2c0,.1,0,.7,0,.8,0,.1,0,3.2,0,4.4,0,.3,0,.6-.3.6s-.3,0-.4-.2v-1.2ZM91,35.8c1,0,1.4-1.8,1.4-2.5s-.3-1.5-1.1-1.5-.4.1-.4.4c0,1.2,0,2.2,0,3.5s0,.1.2.1Z"/>
    <path class="st1" d="M94.3,32.5c0-.7.5-1.2,1.6-1.2.4,0,1.4-.2,1.5.4,0,.2-.2.3-.4.3-.4,0-1.8-.2-1.8.6h0c0,1,.1,2.2.2,3,.2,0,.5,0,.8,0,.2,0,1-.3,1,.2s-1.5.5-1.8.6c-.1,1.5.3,3.1.3,4.8h0c0,.7-.6.5-.7.1-.2-1.4-.6-5.9-.7-8.6h0Z"/>
    <path class="st1" d="M101.3,31.1c2.5.3,2.2,6.3,2,8.1,0,1-.6,2.8-2,2.8-2.5,0-2.6-4.2-2.6-5.9s.1-5.1,2.6-5.1ZM99.5,36.1c0,4.1.8,5.2,1.8,5.2s1.4-3.6,1.4-4.5h0c0-1.1-.3-5.1-1.6-5.1s-1.5,2.3-1.5,3c0,.4,0,.8,0,1.2ZM100.1,29.4c.4,0,.6.3.6.7s-.3.4-.6.4-.5-.2-.5-.6.3-.4.5-.4ZM101.9,29.2c.3,0,.5.3.5.7s-.2.4-.5.4-.5-.2-.5-.6.3-.4.4-.4Z"/>
    <path class="st1" d="M104.9,42.3s-.2-7.3-.2-8.2-.2-2.4-.2-2.7h0c0-.2,0-.3,0-.4,0,0,.2,0,.3,0,.3,0,.4,0,.4.3.1.5,0,.9,0,1.4,0,2.9,0,5.8.3,8.7h0c.6,0,1.2-.2,1.8-.2s.5,0,.5.3,0,.3-.3.3l-2.9.4Z"/>
    <path class="st1" d="M109,39.6c0-1.2,0-6.8,0-8h0c0-.4.1-.7.4-.8h.1c.6,0,1.2.1,1.6.5,1.5,1.3,1.8,3.8,1.7,5.7-.1,2.7-.7,5.3-3.1,5.6-.4,0-.7,0-.7-.5v-2.4ZM109.8,36.9c0,1.3,0,3.4,0,4.8,1.7-.3,2.2-3,2.2-4.6s0-5.5-2-5.5h0c0,.8,0,4.5,0,5.2Z"/>
    <path class="st1" d="M114.2,31.4c0-.2.2-.4.4-.4s.4.2.4.5v4.7c1-1.7,1.7-3.2,2-4.4.1-.4.1-1,.6-1s.6,0,.4.7l-2.3,5.3,2.6,4.9c.1.3,0,.6-.4.6s-.3,0-.4-.2c-.8-1.4-1.5-3.3-2.5-4.7h0c0,.8.2,3.1.2,4.8-.2.4-.7.5-.8,0l-.4-10.9Z"/>
    <path class="st1" d="M121.4,31.1c2.5.3,2.2,6.3,2,8.1,0,1-.6,2.8-2,2.8-2.5,0-2.6-4.2-2.6-5.9s.1-5.1,2.6-5.1ZM119.6,36.1c0,4.1.8,5.2,1.8,5.2s1.4-3.6,1.4-4.5h0c0-1.1-.3-5.1-1.6-5.1s-1.5,2.3-1.5,3c0,.4,0,.8,0,1.2ZM120.2,29.4c.4,0,.6.3.6.7s-.3.4-.6.4-.5-.2-.5-.6.3-.4.5-.4ZM122,29.2c.3,0,.5.3.5.7s-.2.4-.5.4-.5-.2-.5-.6.3-.4.4-.4Z"/>
    <path class="st1" d="M124.5,31c0-.1.5-.3.6-.2,0,0,.3.2.3.3l1.2,8.7c.5-2.6,1-5.8,1.4-8.4,0-.5.2-.5.5-.5s.4,0,.4.3c-.6,2.3-1,4.7-1.3,7.1l-.5,3.6c0,.3-.2.3-.4.3s-.3,0-.4-.2c-.7-3.5-1-7.3-1.7-10.9Z"/>
    <path class="st1" d="M130.1,32.2c0-.3.2-.5.5-.5h2.2c0,0,.4.2.4.3,0,0,0,0,0,0,0,.3-.4.4-.6.4h-1.7v4.7c0,0,1.6-.2,1.6-.2h0c.7,0,.4.6-.2.7l-1.4.2v3.7c0,0,.6,0,.7,0,.9,0,1.6-.3,1.7.3,0,.5-3.1.4-3.1.2l-.2-9.8Z"/>
    <path class="st1" d="M135.2,31.8c0-.3.2-.3.5-.3s.4.2.4.6,0,.2,0,.3l-.4,9.6c0,.6-.8.7-.8.3l.4-10.4Z"/>
    <path class="st1" d="M137.5,39.6c0-1.2,0-6.8,0-8h0c0-.4.1-.7.4-.8h.1c.6,0,1.2.1,1.6.5,1.5,1.3,1.8,3.8,1.7,5.7-.1,2.7-.7,5.3-3.1,5.6-.4,0-.7,0-.7-.5v-2.4ZM138.3,36.9c0,1.3,0,3.4,0,4.8,1.7-.3,2.2-3,2.2-4.6s0-5.5-2-5.5h0c0,.8,0,4.5,0,5.2Z"/>
    <path class="st1" d="M145.2,32.5c0,.7-.3,1.4-.8,1.9,1.6,1,2.2,2.2,2.2,4.1s-1.1,3.7-3.3,3.7-.4,0-.5-.2c-.2-2.2-.2-4.3-.4-6.9l-.3-3.3v-.3c.9-1,3-.7,3,1ZM143.3,34.2c.7,0,1.2-.8,1.2-1.6s-.7-1.1-1.4-.7l.2,2.3ZM143.9,41.4c1.5,0,2-1.5,2-2.9s-.7-3.5-2.6-3.5c0,2.1.2,4.2.3,6.3,0,0,.2,0,.3,0Z"/>
    <path class="st1" d="M147.4,32.2c0-.3.2-.5.5-.5h2.2c0,0,.4.2.4.3,0,0,0,0,0,0,0,.3-.4.4-.6.4h-1.7v4.7c0,0,1.6-.2,1.6-.2h0c.7,0,.4.6-.2.7l-1.4.2v3.7c0,0,.6,0,.7,0,.9,0,1.6-.3,1.7.3,0,.5-3.1.4-3.1.2l-.2-9.8Z"/>
    <path class="st1" d="M152.2,32.1c0-.6.7-.9,1,0l2.9,7.8c0-.6.1-4.1.2-5.5,0-.8,0-1.7.2-2.5,0-.2.2-.2.4-.2.3,0,.4,0,.4.3,0,1.5-.3,2.9-.3,4.4,0,.8-.2,4.7-.2,5.5,0,.3-.5.1-.6-.1-.1-.3-.3-.6-3.2-8.5v8.6c0,.4-.8.4-.8,0l.2-9.9Z"/>
  </g>
  <g>
    <path class="st1" d="M15.1,5.2h0c0-.3.3-.4.4-.4.4,0,.5.3.5.7.4,2,.9,4.3,1.6,7.7l1.4-7.8c0-.2.2-.3.4-.4.2,0,.4,0,.4.4l-1.5,7.9c0,.2-.4,2-.6,2s0,0,0,0c-.1,0-.3,0-.4-.2-.8-3.3-1.4-6.6-2.3-9.9Z"/>
    <path class="st1" d="M21.5,5.3c0-1.3.9-.9,1.1,0,.3,1.4.6,2.6,2.1,9.9,0,.3-.4.5-.7,0l-.5-2.5-1.9.3c-.1.6-.2,1.9-.2,2.4,0,.3-.6.2-.6,0l.6-10.3ZM21.4,2.8l.9-.6s.1,0,.1,0c.2,0,.4.2.4.3s0,.1,0,.2l-.7.4-.5.4c0,0-.1,0-.2,0-.2,0-.3-.1-.3-.3s.2-.3.4-.5ZM21.7,11.7c0,0,0,.6,0,.7l1.7-.2-1.3-6.1c0,.8-.3,4.8-.3,5.6Z"/>
    <path class="st1" d="M25.8,4.5c.2,0,.4.3.5.5.1,3.1,0,6.3.4,9.4.4-.1,1.1-.3,1.6-.3s.5,0,.5.3,0,.3-.3.4c-.5.2-1.1.1-1.6.3-.2,0-.4.2-.6.2s-.4-.2-.4-.4c-.2-1.6,0-3.4-.2-5l-.2-3.4v-1.7c0-.2.2-.2.3-.2Z"/>
    <path class="st1" d="M30.5,5.3c0-1.3.9-.9,1.1,0,.3,1.4.6,2.6,2.1,9.9,0,.3-.4.5-.7,0l-.5-2.5-1.9.3c-.1.6-.2,1.9-.2,2.4,0,.3-.6.2-.6,0l.6-10.3ZM30.8,11.7c0,0,0,.6,0,.7l1.7-.2-1.3-6.1c0,.8-.3,4.8-.3,5.6Z"/>
    <path class="st1" d="M35.1,13.6c.5,0,.4.8,1,.8.9.2,1.1-.5,1.2-1.2.2-1.6-.5-2.7-1.3-4-.4-.6-.6-1.1-.5-1.9.2-1.1.7-1.8,1.9-1.8s.2,0,.3,0c.4,0,.6.1.6.5-.1.7-1.6-.5-1.9,1.5-.2.9.2,1.2.7,2,.7,1.3,1.4,2.4,1.1,3.9-.2,1.1-.7,1.8-1.8,1.8s-.2,0-.3,0c-.5,0-1.3-.5-1.3-1.1s0,0,0,0c0-.2.2-.3.4-.3Z"/>
    <path class="st1" d="M40.3,14.7c-.3,0-.5-.3-.5-.5.9-2.2,1.5-4.6,2.3-7.1,0-.4.2-.8.3-1.1-.8,0-1.6-.1-2.5-.2-.3,0-.6-.6,0-.8l3.5.3c-.8,2.8-1.7,5.8-2.5,8.7.7,0,1.5,0,2.2,0s.4.7,0,.8c-.8,0-1.6,0-2.6.1h0Z"/>
    <path class="st1" d="M46,9.2c0-1.1,0-3.7,0-3.7h-1.1c-.4-.2-.6-.6,0-.8,1.1,0,2.1,0,3.2,0,.6,0,.6.7.2.7h-1.5s0,4.3,0,6.1c0,.6,0,1.6,0,2.3v.2c-.1.4-.7.3-.8,0,0-1,0-3.8,0-4.8Z"/>
    <path class="st1" d="M50.1,5.3c0-1.3.9-.9,1.1,0,.3,1.4.6,2.6,2.1,9.9,0,.3-.4.5-.7,0l-.5-2.5-1.9.3c-.1.6-.2,1.9-.2,2.4,0,.3-.6.2-.6,0l.6-10.3ZM50.1,2.8l.9-.6s.1,0,.1,0c.2,0,.4.2.4.3s0,.1,0,.2l-.7.4-.5.4c0,0-.1,0-.2,0-.2,0-.3-.1-.3-.3s.2-.3.4-.5ZM50.4,11.7c0,0,0,.6,0,.7l1.7-.2-1.3-6.1c0,.8-.3,4.8-.3,5.6Z"/>
    <path class="st1" d="M54.6,13.6c.5,0,.4.8,1,.8.9.2,1.1-.5,1.2-1.2.2-1.6-.5-2.7-1.3-4-.4-.6-.6-1.1-.5-1.9.2-1.1.7-1.8,1.9-1.8s.2,0,.3,0c.4,0,.6.1.6.5-.1.7-1.6-.5-1.9,1.5-.2.9.2,1.2.7,2,.7,1.3,1.4,2.4,1.1,3.9-.2,1.1-.7,1.8-1.8,1.8s-.2,0-.3,0c-.5,0-1.3-.5-1.3-1.1s0,0,0,0c0-.2.2-.3.4-.3Z"/>
    <path class="st1" d="M16.6,25.7c0-1.1,0-3.7,0-3.7h-1.1c-.4-.2-.6-.6,0-.8,1.1,0,2.1,0,3.2,0,.6,0,.6.7.2.7h-1.5s0,4.3,0,6.1c0,.6,0,1.6,0,2.3v.2c-.1.4-.7.3-.8,0,0-1,0-3.8,0-4.8Z"/>
    <path class="st1" d="M20.8,21.8c0-1.3.9-.9,1.1,0,.3,1.4.6,2.6,2.1,9.9,0,.3-.4.5-.7,0l-.5-2.5-1.9.3c-.1.6-.2,1.9-.2,2.4,0,.3-.6.2-.6,0l.6-10.3ZM21,28.2c0,0,0,.6,0,.7l1.7-.2-1.3-6.1c0,.8-.3,4.8-.3,5.6Z"/>
    <path class="st1" d="M25.2,21.8c.3-.5.7,0,.8.1.8,2.4,1.4,4.8,2.4,7.2v-1.9c.3-1.7.3-3.2.3-5,0-.2.3-.3.5-.3s.3,0,.4.2c-.2,3-.4,6.1-.5,9.3v.2c0,0-.2.3-.3.3s-.3-.2-.4-.3c-.9-2.6-1.8-5.1-2.6-7.7v7.8c-.4.7-.9.3-.9,0l.3-9.9Z"/>
    <path class="st1" d="M31.2,21.2c0,0,.2-.2.3-.2.5,0,.5.5.5.9h0c0,1.5-.2,2.8-.2,4.2,0,.9-.5,4.7,1,4.7s1.1-1.3,1.2-1.7c.5-2.4.8-4.9.8-7.4v-.3c0-.2.3-.3.5-.3s.4.2.4.4v.2c-.2,2.1-.3,4.1-.7,6.2v.2s0,0,0,.1c-.2,1-.6,3.3-2.1,3.3s-1.9-1.9-1.9-3.1v-.2c0,0,0-1.9,0-2.5,0-1.5,0-3,.2-4.5Z"/>
    <path class="st1" d="M37.3,20.9c.2,0,.4.3.5.5.1,3.1,0,6.3.4,9.4.4-.1,1.1-.3,1.6-.3s.5,0,.5.3,0,.3-.3.4c-.5.2-1.1.1-1.6.3-.2,0-.4.2-.6.2s-.4-.2-.4-.4c-.2-1.6,0-3.4-.2-5l-.2-3.4v-1.7c0-.2.2-.2.3-.2Z"/>
    <path class="st1" d="M42.1,21.8c0-1.3.9-.9,1.1,0,.3,1.4.6,2.6,2.1,9.9,0,.3-.4.5-.7,0l-.5-2.5-1.9.3c-.1.6-.2,1.9-.2,2.4,0,.3-.6.2-.6,0l.6-10.3ZM42,19.3l.9-.6s.1,0,.1,0c.2,0,.4.2.4.3s0,.1,0,.2l-.7.4-.5.4c0,0-.1,0-.2,0-.2,0-.3-.1-.3-.3s.2-.3.4-.5ZM42.3,28.2c0,0,0,.6,0,.7l1.7-.2-1.3-6.1c0,.8-.3,4.8-.3,5.6Z"/>
    <path class="st1" d="M46.6,30.1c.5,0,.4.8,1,.8.9.2,1.1-.5,1.2-1.2.2-1.6-.5-2.7-1.3-4-.4-.6-.6-1.1-.5-1.9.2-1.1.7-1.8,1.9-1.8s.2,0,.3,0c.4,0,.6.1.6.5-.1.7-1.6-.5-1.9,1.5-.2.9.2,1.2.7,2,.7,1.3,1.4,2.4,1.1,3.9-.2,1.1-.7,1.8-1.8,1.8s-.2,0-.3,0c-.5,0-1.3-.5-1.3-1.1s0,0,0,0c0-.2.2-.3.4-.3Z"/>
  </g>
</svg>