<?xml version="1.0" encoding="UTF-8"?>
<svg xmlns="http://www.w3.org/2000/svg" xmlns:xlink="http://www.w3.org/1999/xlink" version="1.1" viewBox="0 0 364 394.1">
  <!-- Generator: Adobe Illustrator 29.1.0, SVG Export Plug-In . SVG Version: 2.1.0 Build 142)  -->
  <defs>
    <style>
      .st0, .st1, .st2, .st3 {
        fill: none;
      }

      .st4 {
        fill: #d3e6b3;
      }

      .st1 {
        stroke-width: 8.1px;
      }

      .st1, .st2, .st3 {
        stroke-miterlimit: 10;
      }

      .st1, .st3 {
        stroke: #fff;
      }

      .st5, .st6, .st7, .st8, .st9, .st10 {
        fill: #ade1f9;
      }

      .st2 {
        stroke: #49b7e9;
        stroke-width: 1.3px;
      }

      .st3 {
        stroke-width: 4px;
      }

      .st11 {
        fill: #ee4036;
      }

      .st12 {
        isolation: isolate;
      }

      .st13 {
        mix-blend-mode: multiply;
      }

      .st14 {
        clip-path: url(#clippath-1);
      }

      .st15, .st16 {
        fill: #fff;
      }

      .st16 {
        filter: url(#drop-shadow-1);
      }

      .st6 {
        filter: url(#drop-shadow-3);
      }

      .st7 {
        filter: url(#drop-shadow-2);
      }

      .st8 {
        filter: url(#drop-shadow-6);
      }

      .st9 {
        filter: url(#drop-shadow-5);
      }

      .st10 {
        filter: url(#drop-shadow-4);
      }

      .st17 {
        clip-path: url(#clippath);
      }

      .st18 {
        fill: #f0efef;
      }
    </style>
    <clipPath id="clippath">
      <circle class="st0" cx="180.5" cy="213.2" r="173.7"/>
    </clipPath>
    <clipPath id="clippath-1">
      <rect class="st0" x="-222.5" y="27.8" width="788.1" height="364" transform="translate(381.4 38.2) rotate(90)"/>
    </clipPath>
    <filter id="drop-shadow-1" x="-17.5" y="-194.9" width="385.4" height="809.5">
      <feOffset dx="1.8" dy="1.8"/>
      <feGaussianBlur result="blur" stdDeviation="3.5"/>
      <feFlood flood-color="#3a3b3a" flood-opacity=".2"/>
      <feComposite in2="blur" operator="in"/>
      <feComposite in="SourceGraphic"/>
    </filter>
    <filter id="drop-shadow-2" x="6.9" y="-131.1" width="60.2" height="44.4">
      <feOffset dx="2.1" dy="2.1"/>
      <feGaussianBlur result="blur1" stdDeviation="2.1"/>
      <feFlood flood-color="#010101" flood-opacity=".2"/>
      <feComposite in2="blur1" operator="in"/>
      <feComposite in="SourceGraphic"/>
    </filter>
    <filter id="drop-shadow-3" x="135.8" y="-128.4" width="61.4" height="44.4">
      <feOffset dx="2.1" dy="2.1"/>
      <feGaussianBlur result="blur2" stdDeviation="2.1"/>
      <feFlood flood-color="#010101" flood-opacity=".2"/>
      <feComposite in2="blur2" operator="in"/>
      <feComposite in="SourceGraphic"/>
    </filter>
    <filter id="drop-shadow-4" x="301.7" y="290.4" width="59.8" height="52.1">
      <feOffset dx="1.8" dy="1.8"/>
      <feGaussianBlur result="blur3" stdDeviation="1.8"/>
      <feFlood flood-color="#010101" flood-opacity=".2"/>
      <feComposite in2="blur3" operator="in"/>
      <feComposite in="SourceGraphic"/>
    </filter>
    <filter id="drop-shadow-5" x="278.2" y="367" width="55.4" height="43">
      <feOffset dx="1.8" dy="1.8"/>
      <feGaussianBlur result="blur4" stdDeviation="1.8"/>
      <feFlood flood-color="#010101" flood-opacity=".2"/>
      <feComposite in2="blur4" operator="in"/>
      <feComposite in="SourceGraphic"/>
    </filter>
    <filter id="drop-shadow-6" x="-18.5" y="36.5" width="61.7" height="62.2">
      <feOffset dx="1.8" dy="1.8"/>
      <feGaussianBlur result="blur5" stdDeviation="1.8"/>
      <feFlood flood-color="#010101" flood-opacity=".2"/>
      <feComposite in2="blur5" operator="in"/>
      <feComposite in="SourceGraphic"/>
    </filter>
  </defs>
  <g class="st12">
    <g id="Layer_1">
      <g class="st17">
        <g class="st14">
          <rect class="st16" x="-222.5" y="27.8" width="788.1" height="364" transform="translate(381.4 38.2) rotate(90)"/>
          <rect class="st18" x="-10.4" y="-184.2" width="364" height="788.1"/>
          <g>
            <g>
              <g>
                <path class="st2" d="M320-210.2c-16.6,98.1-97.7,134.6-115.8,179.9,0,1.9.2,3.9.2,5.8,0,10.7-3.3,18.2-7.7,29.1-8.1,20.2,5.8,20.9-13.5,45.9-3.5,4.5-4.6,9.6-4.6,14.8,0,9.6,3.3,16.9,3.3,24.4,0,17.5-14.5,29-18.9,45.7-11.7,44.5-17,30.3-21.6,42.5-5.1,13.4-6.6,72.8-17.4,83-116.9,110.8-50,72.3-93.9,153.8-69.5,128.9-66.4,166.4-70.1,216.5"/>
                <path class="st2" d="M144.7-239.6c-25,22.9-23.2,61.6-34.4,88.4-11.9,28.4-17,57.3-17,86.6s5.9,59.6,5.9,59.7c0,26.3-29.4,49.4-35.6,75.6-2.5,10.6-18.5,13.2-22.3,28.4-4.3,54.1-11.9,11.2-43.9,103.3-10.1,29-27.7,52.6-49.3,72.9"/>
              </g>
              <g>
                <g>
                  <line class="st1" x1="354.6" y1="-231.1" x2="50.2" y2="570.4"/>
                  <path class="st1" d="M-41.9,170.2c1.5,0,49.4,14.2,49.4,14.2l28.3,21,50.8,3.4,28.8,6.4,72.8-8.1"/>
                  <path class="st1" d="M192.3,196.1c2.3,1.4,112.8,52.2,112.8,52.2l21.5,5.9,5.9,6.8,45.9,4.9,20.5,15.6"/>
                  <line class="st1" x1="313.3" y1="-122.6" x2="421.2" y2="-78.1"/>
                  <line class="st1" x1="122.3" y1="380.6" x2="404.4" y2="487.5"/>
                </g>
                <g>
                  <path class="st3" d="M-44.4-78.1L50.2-39.5s35.4,23.5,36.9,23.5S247.8,50,247.8,50l47.8,20.4v6.4l89.6,32.7"/>
                  <path class="st3" d="M92.3-14c.5.2,89.6-217.1,89.6-217.1"/>
                  <line class="st3" x1="228.8" y1="42.1" x2="157.2" y2="210.5"/>
                  <polyline class="st3" points="225.2 109.6 203.6 101.3 137.1 74.4 137.1 54.8 122.3 48 142.3 6.4"/>
                  <polyline class="st3" points="122.3 48 113 67.5 101.8 67.5 35.8 205.4"/>
                  <line class="st3" x1="186" y1="142.9" x2="85.4" y2="101.7"/>
                  <line class="st3" x1="174.9" y1="168.9" x2="72.2" y2="129.2"/>
                  <polyline class="st3" points="137.1 74.4 129.6 95.4 138.6 101.7 86.6 208.8"/>
                  <polyline class="st3" points="118.5 55.9 30.8 20.1 35.8 -14 -51.7 -53.1"/>
                  <line class="st3" x1="48.4" y1="27.3" x2="-9.4" y2="179.4"/>
                  <line class="st3" x1="9.6" y1="129.6" x2="62.5" y2="149.5"/>
                  <line class="st3" x1="-44.4" y1="17.5" x2="97.4" y2="76.7"/>
                  <polyline class="st3" points="28.1 566.8 131.7 301.4 150.2 307.1"/>
                  <polyline class="st3" points="131.7 301.4 94.8 292.6 79 332.1 -53 285.6"/>
                  <line class="st3" x1="94.8" y1="292.6" x2="123.6" y2="214.2"/>
                  <polyline class="st3" points="48.4 206.2 -29.8 351.8 9.6 366.7 11.9 390.4 107.5 419.7"/>
                  <line class="st3" x1="79" y1="332.1" x2="-7.4" y2="562.4"/>
                  <line class="st3" x1="-3.2" y1="361.9" x2="-53" y2="520.3"/>
                  <line class="st3" x1="-59.6" y1="469.8" x2="68.5" y2="522.3"/>
                  <line class="st3" x1="-65.8" y1="394.8" x2="74.8" y2="447.3"/>
                  <line class="st3" x1="60.6" y1="381.1" x2="95.9" y2="393"/>
                  <line class="st3" x1="73.9" y1="345.8" x2="109.2" y2="359"/>
                  <path class="st3" d="M111-58.9c21,8.8,69.4,29.2,69.4,28.4s19.6-22.7,19.6-22.7l76.1,28.7"/>
                  <polyline class="st3" points="200 -53.1 271.2 -135.7 317.6 -240.6"/>
                  <polyline class="st3" points="244.6 -104.9 217.4 -103.3 119.2 -138.4 158.9 -239.6"/>
                  <polyline class="st3" points="119.2 -138.4 89.7 -68.3 -58.6 -131"/>
                  <line class="st3" x1="-.5" y1="-106.4" x2="-19.4" y2="-67.9"/>
                  <line class="st3" x1="28.6" y1="-94.1" x2="9.9" y2="-56"/>
                  <line class="st3" x1="57.8" y1="-81.8" x2="39.3" y2="-44"/>
                  <polyline class="st3" points="180.5 -30.5 181.9 -6.2 257.6 24.3"/>
                  <line class="st3" x1="283.5" y1="238.4" x2="218" y2="416.9"/>
                  <line class="st3" x1="262.8" y1="433.8" x2="200" y2="602.8"/>
                  <line class="st3" x1="172.2" y1="399.5" x2="91.5" y2="602.8"/>
                  <line class="st3" x1="333.1" y1="460.5" x2="256.3" y2="680.4"/>
                  <line class="st3" x1="283.2" y1="65.2" x2="229.4" y2="213.5"/>
                  <line class="st3" x1="398.9" y1="-138.4" x2="324.2" y2="87.3"/>
                  <line class="st3" x1="370.6" y1="104.2" x2="328.9" y2="256.9"/>
                  <line class="st3" x1="102" y1="434.1" x2="314.1" y2="515.1"/>
                  <line class="st3" x1="79" y1="494.6" x2="219.3" y2="550.8"/>
                  <line class="st3" x1="172.2" y1="399.5" x2="240.4" y2="218.6"/>
                  <line class="st3" x1="326.6" y1="254.2" x2="262.8" y2="433.8"/>
                  <line class="st3" x1="378.4" y1="266" x2="313" y2="452.9"/>
                  <line class="st3" x1="172.4" y1="248.7" x2="309.9" y2="301.4"/>
                  <line class="st3" x1="196.6" y1="334.9" x2="336.4" y2="385.9"/>
                  <line class="st3" x1="198" y1="470.7" x2="173.7" y2="532.5"/>
                  <line class="st3" x1="19.5" y1="260" x2="94.8" y2="292.6"/>
                  <path class="st3" d="M243.5,174.4c.2-.6,97,39.8,97,39.8"/>
                  <line class="st3" x1="262.5" y1="122.3" x2="357.1" y2="153.6"/>
                  <line class="st3" x1="231.5" y1="518" x2="305.5" y2="539.7"/>
                  <line class="st3" x1="198" y1="470.7" x2="218" y2="416.9"/>
                  <line class="st3" x1="135.7" y1="345.4" x2="185.8" y2="363.4"/>
                  <line class="st3" x1="298.9" y1="332.1" x2="349.7" y2="347.9"/>
                  <line class="st3" x1="54.3" y1="275.1" x2="34.1" y2="316.3"/>
                  <line class="st3" x1="-57.3" y1="74.4" x2="20.9" y2="99.9"/>
                  <line class="st3" x1="-.5" y1="-106.4" x2="73.1" y2="-260.7"/>
                  <line class="st3" x1="-51.7" y1="-201.5" x2="113.6" y2="-125.1"/>
                  <line class="st3" x1="287" y1="-53.1" x2="363.2" y2="-30.5"/>
                  <line class="st3" x1="266.5" y1="6.4" x2="342" y2="33.3"/>
                  <line class="st3" x1="229" y1="-86.8" x2="294.1" y2="-71.9"/>
                  <line class="st3" x1="281.7" y1="-159.4" x2="323.9" y2="-150.4"/>
                  <line class="st3" x1="181.9" y1="-116" x2="228.8" y2="-239.6"/>
                </g>
              </g>
            </g>
            <g>
              <polygon class="st5" points="296.1 -42.4 280.3 1.9 312.3 13.7 318.2 2.4 294.3 -5.3 308.7 -38.3 296.1 -42.4"/>
              <polygon class="st5" points="250.4 14.1 263.1 -22 250.3 -25.9 237.3 10.1 250.4 14.1"/>
              <polygon class="st5" points="257.7 47.8 270.1 13.2 293.6 20.7 290.9 27.7 275.3 23.8 269.4 41.7 285.7 46.7 282.1 57.3 257.7 47.8"/>
              <polygon class="st5" points="269.9 118.3 274.8 104.7 287.9 108.4 283.4 122.6 269.9 118.3"/>
              <polygon class="st5" points="287.3 124.2 292.2 110.6 305.3 114.2 300.8 128.5 287.3 124.2"/>
              <polygon class="st5" points="304.7 130.1 309.6 116.5 322.7 120.1 318.2 134.4 304.7 130.1"/>
              <polygon class="st5" points="322.1 135.9 327 122.4 340.1 126 335.6 140.2 322.1 135.9"/>
              <polygon class="st5" points="339.5 141.8 344.4 128.2 357.5 131.9 353 146.1 339.5 141.8"/>
              <polygon class="st5" points="45.6 196.9 84.6 199.1 90.5 186.3 52.4 183.7 45.6 196.9"/>
              <polygon class="st5" points="148.3 340.5 178.1 260.9 212 271.3 182.6 350.9 148.3 340.5"/>
              <path class="st5" d="M265.8,131.6l-13.1,38.9,81.8,33,12.7-45.2-81.4-26.7ZM322.4,191l-53.3-21.5,8.5-25.3,53,17.4-8.2,29.4Z"/>
              <polygon class="st5" points="113.9 -51.4 98.6 -16.4 111.7 -11.7 125.4 -46.9 113.9 -51.4"/>
              <polygon class="st7" points="56.7 -107.6 14.8 -125.2 9.5 -109.6 51.5 -93.8 56.7 -107.6"/>
              <polygon class="st6" points="186.8 -108 143.7 -122.5 138.3 -106.9 180.4 -91.1 186.8 -108"/>
              <polygon class="st5" points="129.4 45.7 144.4 12.6 188.3 30 182.7 43.3 151.8 30.7 142.9 51.8 129.4 45.7"/>
            </g>
          </g>
          <polygon class="st10" points="303.5 325.1 314.9 295.6 352.3 305.3 342.7 337 303.5 325.1"/>
          <polygon class="st9" points="285.9 372.2 324.6 385.8 317.6 404.3 279.9 390.3 285.9 372.2"/>
          <path class="st8" d="M-14.8,41.6l49,17.6s-13.8,35.2-14.3,33.8-36.7-12.4-36.7-12.4l1.9-39Z"/>
          <g>
            <polygon class="st4" points="202.7 192.3 212.8 165.4 222.4 169.2 212.7 196.5 202.7 192.3"/>
            <polygon class="st4" points="215.7 159.6 225.7 132.7 235.4 136.5 225.6 163.8 215.7 159.6"/>
            <polygon class="st4" points="228.7 126.9 238.7 100 248.3 103.8 238.6 131.1 228.7 126.9"/>
            <polygon class="st4" points="241.6 94.2 253.9 61.2 263.5 65 251.6 98.4 241.6 94.2"/>
            <polygon class="st4" points="36.9 215 -5.9 294.8 -26 288.2 19.5 207.4 36.9 215"/>
            <polygon class="st4" points="88.2 108.9 80.3 125.8 113.2 139 121.7 121.9 88.2 108.9"/>
            <polygon class="st4" points="175.3 404.3 209 416.4 202.3 435.7 166.8 423.4 175.3 404.3"/>
            <polygon class="st4" points="219.3 421.9 253 434 246.3 453.3 210.8 441 219.3 421.9"/>
            <polygon class="st4" points="264.6 439.5 319.3 459.3 312.6 478.7 256.1 458.6 264.6 439.5"/>
            <polygon class="st4" points="239.7 209.8 249.4 184.8 266.5 190.9 257.7 217.8 239.7 209.8"/>
            <polygon class="st4" points="263 221.7 272.7 196.7 289.9 202.8 281.1 229.7 263 221.7"/>
            <polygon class="st4" points="286.4 233.6 296 208.6 313.2 214.7 304.4 241.6 286.4 233.6"/>
            <polygon class="st4" points="-9.8 415.8 16.6 425.5 7.8 449.6 -17.4 438.6 -9.8 415.8"/>
            <path class="st4" d="M38.3,431.8c-.1.6-19.8,55.8-19.8,55.8l-12.2-4.7,20.7-54.3,11.2,3.3Z"/>
            <polygon class="st4" points="317.8 -55.8 333.2 -99.7 317.7 -104.4 301.9 -60.6 317.8 -55.8"/>
          </g>
          <polygon class="st4" points="54.2 215.1 32.4 258.5 91.1 283.2 114 225.1 82.9 218 54.2 215.1"/>
          <polygon class="st4" points="287.7 -199.1 263 -140.4 239.6 -114.6 217.3 -114 189.7 -121.1 223.1 -201.4 287.7 -199.1"/>
        </g>
      </g>
      <g class="st13">
        <image width="163" height="84" transform="translate(99 194.1)" xlink:href="logo-szine-1.png"/>
      </g>
      <path class="st11" d="M252.5,79.3c0,17.9-4.5,36.7-11.3,54.9-6.8,18.2-15.8,35.8-24.8,51.2s-18,28.5-24.8,37.8c-6.8,9.3-11.3,14.7-11.3,14.7,0,0-4.5-5.5-11.3-14.7s-15.8-22.4-24.8-37.8-18-33-24.8-51.2c-6.8-18.2-11.3-37.1-11.3-54.9s2-19.4,5.7-28,8.9-16.4,15.4-22.9,14.3-11.8,22.9-15.4c8.6-3.6,18.1-5.7,28-5.7s19.4,2,28,5.7,16.4,8.9,22.9,15.4c6.5,6.5,11.8,14.3,15.4,22.9s5.7,18.1,5.7,28Z"/>
      <g id="Layer_11" data-name="Layer_1">
        <path class="st15" d="M177.2,155.5c-17.2,0-31.1-13.9-31.1-31.1v-47.7c0-12.1,9.9-22,22-22s22,9.9,22,22v15.8c0,1.4-1.2,2.6-2.6,2.6s-2.6-1.2-2.6-2.6v-15.8c0-9.3-7.5-16.8-16.8-16.8s-16.8,7.5-16.8,16.8v47.7c0,14.3,11.6,25.8,25.8,25.8s25.8-11.6,25.8-25.8v-54.8c0-1.4,1.2-2.6,2.6-2.6s2.6,1.2,2.6,2.6v54.8c0,17.2-13.9,31.1-31.1,31.1h.2Z"/>
        <path class="st15" d="M212.2,59.4h-14.4c-.9,0-1.7-.5-2.2-1.2s-.6-1.7-.2-2.5l7.2-17.4c.4-1,1.3-1.6,2.5-1.6h0c1,0,2.1.6,2.5,1.6l7.2,17.4c.3.8.2,1.7-.2,2.5s-1.3,1.2-2.2,1.2h0ZM201.7,54.2h6.6l-3.3-7.9-3.3,7.9h0Z"/>
        <circle class="st15" cx="187.5" cy="105.1" r="3"/>
      </g>
    </g>
  </g>
</svg>