<svg viewBox="0 0 42.8 38.8" xmlns="http://www.w3.org/2000/svg"><path d="m8.4 6.7s0 0 0 0zm.5-.1s0 0 0 0zm-2.3-.7s0 0 0 0zm-.2.1s0 0 0 0zm6 .7s0 0 0 0zm-.1-.1s0 0 0 0zm1.6.7s0 0 0 0zm-1.6-.6s0 0 0 0zm19.5 21s0 0 0 0zm-26.4-21.3s0 0 0 0c0-.1-.2-.2 0-.3 0-.4.3-.5.6-.6.9-.2 1.7-.3 2.6-.3 3.2 0 6.1.6 9 1.8 5.1 2.1 8.8 5.6 11.6 10.2 1.3 2.1 2.2 4.5 3 6.8.5 1.4.8 2.8 1.2 4.2v.2s0 .1.1.1 0 0 0 0c.2-.5.3-1.1.4-1.7 0-.4.1-.8.3-1.1 0-.8.6-1.3 1.3-1.4.6 1.6.3 3.1 0 4.7-.2.6-.3 1.2-.4 1.8-.3 1.4-.3 1.2-1.4 1.6-.2 0-.5.1-.8.1 0 0-.2 0-.3 0-.3 0-.5 0-.6-.3-.5-.5-.9-1.1-1.4-1.6-.2 0-.3-.2-.3-.3-.2 0-.3-.2-.3-.3-.1 0-.2-.1-.3-.2-1.1-.9-2.4-1.7-3.7-2.2-.1 0-.2 0-.3-.1-.1 0-.3-.1-.2-.3 0-.1.1-.2.2-.2.4 0 .8-.3 1.2-.3h.5c1.4.4 2.7 1.1 3.9 1.9.1 0 .2.2.3.2s.2 0 .2-.2c-.1 0-.1-.2 0-.4 0-.1-.2-.2-.1-.4s-.1-.2-.1-.3c0 0 0-.2-.1-.2-.3-.9-.6-1.9-.9-2.8s-.6-1.7-.9-2.6c-.1-.2-.2-.4-.3-.6-1-2.1-2.2-4.1-3.7-5.8-.5-.6-1.1-1.2-1.6-1.9-.2 0-.3-.2-.3-.3-.2 0-.2-.2-.3-.3-.2 0-.2-.2-.3-.3-.1 0-.2 0-.2-.2-.1 0-.2-.1-.3-.2-.4-.3-.8-.7-1.3-1v-.1h.2s0 0 0-.1c-1.4-1-2.8-1.7-4.4-2.4-.1 0-.3-.1-.4-.2-.9-.3-1.8-.6-2.7-.9 0 0 0 0-.1 0s-.1 0-.2 0c0 0-.1 0-.2 0 0 0-.1 0-.2 0 0 0-.1 0-.2 0 0 0-.1 0-.2 0s-.1 0-.2 0-.1 0-.2 0-.1 0-.2 0-.1 0-.2 0 0 0 0 0-.1 0-.2 0-.1 0-.2 0-.1 0-.2 0c-.5 0-1-.1-1.5-.2-.2-.1-.5 0-.8-.1v.1c-.2 0-.4 0-.6 0 0 0-.1 0-.2 0h.2s-.1 0-.2 0c0 0-.2 0-.3 0 0 0-.1 0-.2 0 0 0-.1 0-.2 0-.2 0-.4 0-.6 0-.1 0-.3 0-.4 0h-.2c-.5 0-1.1 0-1.6.3 0-.2-.1-.3 0-.5z" fill="#9e6d29"/></svg>