<svg viewBox="0 0 169.6 63.1" xmlns="http://www.w3.org/2000/svg"><path d="m11.9 24.7h-2.2l1.6 1.6-1 .9-1.6-1.5v2.2h-1.3v-2.2l-1.6 1.6-.9-1 1.6-1.6h-2.3v-1.3h2.3l-1.6-1.6.9-.9 1.6 1.6v-2.3h1.3v2.3l1.7-1.6.9.9-1.6 1.6h2.2z" fill="#9d6c29"/><path d="m11.9 11.8h-2.2l1.6 1.6-1 .9-1.6-1.6v2.2h-1.3v-2.2l-1.6 1.6-.9-1 1.6-1.5h-2.3v-1.4h2.3l-1.6-1.6.9-.9 1.6 1.6v-2.2h1.3v2.2l1.7-1.6.9.9-1.6 1.6h2.2z" fill="#9d6c29"/><path d="m86.1 53.3s.2 0 .3.2.1.6-.2.8c-.7.7-1.4 1.2-2.1 1.6-2.7 1.7-5.5 2.8-8.7 3.3-5.4.9-10.4 0-15.2-2.5-2.2-1.1-4.2-2.6-6.2-4.2-1.2-1-2.2-1.9-3.3-2.9v-.2s-.2 0-.2 0c.2.7.3 1.3.6 1.7 0 .4.3.8.3 1.2.4.7.2 1.4-.4 1.8-1.4-1-1.9-2.4-2.4-4-.1-.6-.4-1.1-.6-1.7-.5-1.3-.3-1.2.3-2.1s.3-.4.6-.6h.3c.1-.3.5-.2.7-.2.7.2 1.3.4 2 .6h.4.4.3c1.5 0 2.9 0 4.4-.2h.3s.3-.1.3 0 0 .2-.1.3c-.3.3-.6.7-.8.9h-.5c-1.5.5-2.9.6-4.3.6h-.4c0 .1-.2.1-.1.3 0 0 .2.1.3.2 0 0 .2.1.3.2s.2 0 .3.2c0 0 0 0 .2.1.8.6 1.5 1.3 2.3 1.9.7.6 1.4 1.1 2.1 1.6l.6.4c2 1.3 4.1 2.3 6.3 2.9.8.2 1.5.4 2.4.6h.4.4.4.6 1.6s0 .2 0 0c1.7.2 3.4 0 5-.2l5.5-1.4c.5-.1.9-.4 1.3-.6l.8-.2c.2 0 .3-.3.5-.3h.2s-.2 0-.2 0h.2s0 0 .2 0h.3c.2-.1.2-.3.4-.4h.4s.2-.1.2-.1c.4-.3.9-.6 1.3-1.1 0 .2.3.2.3.4l-.2.4h-.1z" fill="#9d6c29"/><path d="m46 53.3h-.2z" fill="#9d6c29"/><path d="m65.3 4.2.8 7.2v5.3 3.5 4.2 2.5l.5 10.8" fill="none" stroke="#9d6c29" stroke-miterlimit="10" stroke-width="2"/><g fill="#231f20"><path d="m78.3 14.5c0-.2.2-.4.4-.4s.4.2.4.5v4.7c1-1.7 1.7-3.2 2-4.4 0-.4 0-1 .6-1s.6 0 .4.7l-2.3 5.3 2.6 4.9c0 .3 0 .6-.4.6s-.3 0-.4-.2c-.8-1.4-1.5-3.3-2.5-4.7 0 .8.2 3.1.2 4.8-.2.4-.7.5-.8 0l-.4-10.9h.2z"/><path d="m85.5 14.3c2.5.3 2.2 6.3 2 8.1 0 1-.6 2.8-2 2.8-2.5 0-2.6-4.2-2.6-5.9s0-5.1 2.6-5.1zm-1.8 5c0 4.1.8 5.2 1.8 5.2s1.4-3.6 1.4-4.5c0-1.1-.3-5.1-1.6-5.1s-1.5 2.3-1.5 3v1.4zm.6-6.8c.4 0 .6.3.6.7s-.3.4-.6.4-.5-.2-.5-.6.3-.4.5-.4zm1.8-.1c.3 0 .5.3.5.7s-.2.4-.5.4-.5-.2-.5-.6.3-.4.4-.4z"/><path d="m89.1 24.8c0-.3.2-.9.3-1.1.6-2.7.8-5.5 1.4-8.4h-2.1c-.2 0-.5 0-.5-.3s0-.5.4-.5h2.7c.9 0 .3 0 .3.3l-1.6 9.6c.4 0 1-.2 1.4-.2s.5 0 .5.4-1 .4-1.2.4c-.5 0-.8.2-1.2.2s-.5-.2-.5-.4z"/><path d="m94.9 14.3c2.5.3 2.2 6.3 2 8.1 0 1-.6 2.8-2 2.8-2.5 0-2.6-4.2-2.6-5.9s0-5.1 2.6-5.1zm-1.8 5c0 4.1.8 5.2 1.8 5.2s1.4-3.6 1.4-4.5c0-1.1-.3-5.1-1.6-5.1s-1.5 2.3-1.5 3v1.4zm.6-6.8c.4 0 .6.3.6.7s-.3.4-.6.4-.5-.2-.5-.6.3-.4.5-.4zm1.8-.1c.3 0 .5.3.5.7s-.2.4-.5.4-.5-.2-.5-.6.3-.4.4-.4z"/><path d="m98.5 22.9c.6.2 0 1.4.7 1.8.8 0 1-1.1 1-1.7s0-1.6-.4-2.3c-.7-1.5-2.1-2.8-2.1-4.5s.5-2.1 1.4-2.1 1.6.5 1.6 1.2 0 .4-.4.4-.4-.8-1.2-.8-.8 1-.8 1.5c0 1.4 1.2 2.4 1.8 3.6.6 1.1.9 2.7.5 3.7-.2.7-.9 1.7-1.7 1.7s-1.4-1.3-1.4-2.1.3-.5.5-.4z"/><path d="m106.8 22.1v-7.5c0-.2.4-.2.6-.2 1.5 0 2.5 1.3 2.5 2.7s-1 3.2-2.4 3.9v4.6c0 .1-.3.2-.4.2h-.3v-3.6zm.7-2h.3c.8-.7 1.3-1.6 1.3-2.7s-.5-2.1-1.5-2.1v4.9h-.1z"/><path d="m113.6 14.3c2.5.3 2.2 6.3 2 8.1 0 1-.6 2.8-2 2.8-2.5 0-2.6-4.2-2.6-5.9s0-5.1 2.6-5.1zm-1.8 5c0 4.1.8 5.2 1.8 5.2s1.4-3.6 1.4-4.5c0-1.1-.3-5.1-1.6-5.1s-1.5 2.3-1.5 3v1.4z"/><path d="m117.3 15.3c0-.6.7-.9 1 0l2.9 7.8c0-.6 0-4.1.2-5.5 0-.8 0-1.7.2-2.5 0-.2.2-.2.4-.2.3 0 .4 0 .4.3 0 1.5-.3 2.9-.3 4.4s-.2 4.7-.2 5.5-.5.1-.6-.1c0-.3-.3-.6-3.2-8.5v8.6c0 .4-.8.4-.8 0l.2-9.9h-.2z"/><path d="m124.3 15.1c-.9 0-1.3 0-1.3-.2 0-.5 0-.6 1.5-.6h1.2c.3 0 .8 0 .8.5s-.2.3-.3.3h-1.2l.3 8.9c0 .1-.3.2-.4.2s-.4 0-.4-.2l-.3-8.9z"/><path d="m129.9 14.3c2.5.3 2.2 6.3 2 8.1 0 1-.6 2.8-2 2.8-2.5 0-2.6-4.2-2.6-5.9s0-5.1 2.6-5.1zm-1.8 5c0 4.1.8 5.2 1.8 5.2s1.4-3.6 1.4-4.5c0-1.1-.3-5.1-1.6-5.1s-1.5 2.3-1.5 3v1.4z"/><path d="m132.9 14.5c0-.2.2-.4.4-.4s.4.2.4.5v4.7c1-1.7 1.7-3.2 2-4.4.1-.4.1-1 .6-1s.6 0 .4.7l-2.3 5.3 2.6 4.9c.1.3 0 .6-.4.6s-.3 0-.4-.2c-.8-1.4-1.5-3.3-2.5-4.7 0 .8.2 3.1.2 4.8-.2.4-.7.5-.8 0l-.4-10.9h.2z"/><path d="m143.8 22.5-.2 1.7c0 .2 0 .8-.4.8s-.3-.4-.3-.5l1.5-10.2c0-.3.2-.7.5-.7s.4 0 .4.2v.3c.9 3.2 1.3 6.5 1.7 9.8v.9c0 .3-.2.4-.4.4h-.2l-.4-2.7zm.2-.8h1.8l-.9-6.5-.8 6.5z"/><path d="m82.9 33.5-1.5 3.7c0 .3-.7.3-.8.2v-.2c-.4-1.2-.7-2.3-1.2-3.5-.2 2.6 0 5.3-.3 8h-.4q-.3 0-.3-.3c0-.5 0-.7 0-9.6 0-.4.6-.7.8-.3l1.7 4.7c.4-.5 1.6-4.4 1.9-4.9 0-.3.4-.2.8 0v10.4c0 1.2-.2.5-.4.5s-.3 0-.4-.3c0-2.8 0-5.7-.2-8.5h.3z"/><path d="m85.3 32.2c0-.3.2-.5.5-.5h2.2s.4.2.4.3c0 .3-.4.4-.6.4h-1.7v4.7l1.6-.2c.7 0 .4.6-.2.7l-1.4.2v3.7h.7c.9 0 1.6-.3 1.7.3 0 .5-3.1.4-3.1.2l-.2-9.8zm1.1-2.7.9-.6c.2 0 .4.2.4.4v.2l-.7.4-.5.4h-.2c-.2 0-.3-.1-.3-.3s.2-.4.4-.5h-.1z"/><path d="m90 41.2c0-3.2 0-6.4.2-9.5 0-.6.3-.6.8-.6 1.3 0 2.1.8 2.1 2.1v.2c0 1-.3 2.2-1.2 2.9 0 0 .4.5.5.5.6.8.5 2.8.5 3.8v.8c0 .4-.2.4-.4.4-.2 0-.3 0-.4-.2 0-.5 0-2.6-.2-3.1 0-.7-.2-1.6-1.1-1.6h-.2v5.2c0 .3 0 .6-.3.6s-.3 0-.4-.2v-1.2zm1-5.4c1 0 1.4-1.8 1.4-2.5s-.3-1.5-1.1-1.5-.4.1-.4.4v3.5c0 1.3 0 0 .2 0z"/><path d="m94.3 32.5c0-.7.5-1.2 1.6-1.2s1.4-.2 1.5.4c0 .2-.2.3-.4.3-.4 0-1.8-.2-1.8.6 0 1 0 2.2.2 3h.8c.2 0 1-.3 1 .2s-1.5.5-1.8.6c0 1.5.3 3.1.3 4.8 0 .7-.6.5-.7 0-.2-1.4-.6-5.9-.7-8.6v-.2z"/><path d="m101.3 31.1c2.5.3 2.2 6.3 2 8.1 0 1-.6 2.8-2 2.8-2.5 0-2.6-4.2-2.6-5.9s0-5.1 2.6-5.1zm-1.8 5c0 4.1.8 5.2 1.8 5.2s1.4-3.6 1.4-4.5c0-1.1-.3-5.1-1.6-5.1s-1.5 2.3-1.5 3v1.4zm.6-6.7c.4 0 .6.3.6.7s-.3.4-.6.4-.5-.2-.5-.6.3-.4.5-.4zm1.8-.2c.3 0 .5.3.5.7s-.2.4-.5.4-.5-.2-.5-.6.3-.4.4-.4z"/><path d="m104.9 42.3s-.2-7.3-.2-8.2-.2-2.4-.2-2.7v-.4h.3c.3 0 .4 0 .4.3v1.4c0 2.9 0 5.8.3 8.7.6 0 1.2-.2 1.8-.2s.5 0 .5.3 0 .3-.3.3l-2.9.4h.3z"/><path d="m109 39.6v-8c0-.4 0-.7.4-.8.6 0 1.2.1 1.6.5 1.5 1.3 1.8 3.8 1.7 5.7 0 2.7-.7 5.3-3.1 5.6-.4 0-.7 0-.7-.5v-2.4zm.8-2.7v4.8c1.7-.3 2.2-3 2.2-4.6s0-5.5-2-5.5v5.2h-.2z"/><path d="m114.2 31.4c0-.2.2-.4.4-.4s.4.2.4.5v4.7c1-1.7 1.7-3.2 2-4.4 0-.4 0-1 .6-1s.6 0 .4.7l-2.3 5.3 2.6 4.9c0 .3 0 .6-.4.6s-.3 0-.4-.2c-.8-1.4-1.5-3.3-2.5-4.7 0 .8.2 3.1.2 4.8-.2.4-.7.5-.8 0l-.4-10.9h.2z"/><path d="m121.4 31.1c2.5.3 2.2 6.3 2 8.1 0 1-.6 2.8-2 2.8-2.5 0-2.6-4.2-2.6-5.9s0-5.1 2.6-5.1zm-1.8 5c0 4.1.8 5.2 1.8 5.2s1.4-3.6 1.4-4.5c0-1.1-.3-5.1-1.6-5.1s-1.5 2.3-1.5 3v1.4zm.6-6.7c.4 0 .6.3.6.7s-.3.4-.6.4-.5-.2-.5-.6.3-.4.5-.4zm1.8-.2c.3 0 .5.3.5.7s-.2.4-.5.4-.5-.2-.5-.6.3-.4.4-.4z"/><path d="m124.5 31c0-.1.5-.3.6-.2 0 0 .3.2.3.3l1.2 8.7c.5-2.6 1-5.8 1.4-8.4 0-.5.2-.5.5-.5s.4 0 .4.3c-.6 2.3-1 4.7-1.3 7.1l-.5 3.6c0 .3-.2.3-.4.3s-.3 0-.4-.2c-.7-3.5-1-7.3-1.7-10.9z"/><path d="m130.1 32.2c0-.3.2-.5.5-.5h2.2s.4.2.4.3c0 .3-.4.4-.6.4h-1.7v4.7l1.6-.2c.7 0 .4.6-.2.7l-1.4.2v3.7h.7c.9 0 1.6-.3 1.7.3 0 .5-3.1.4-3.1.2l-.2-9.8z"/><path d="m135.2 31.8c0-.3.2-.3.5-.3s.4.2.4.6 0 .2 0 .3l-.4 9.6c0 .6-.8.7-.8.3l.4-10.4z"/><path d="m137.5 39.6v-8c0-.4.1-.7.4-.8h.1c.6 0 1.2.1 1.6.5 1.5 1.3 1.8 3.8 1.7 5.7-.1 2.7-.7 5.3-3.1 5.6-.4 0-.7 0-.7-.5v-2.4zm.8-2.7v4.8c1.7-.3 2.2-3 2.2-4.6s0-5.5-2-5.5v5.2h-.2z"/><path d="m145.2 32.5c0 .7-.3 1.4-.8 1.9 1.6 1 2.2 2.2 2.2 4.1s-1.1 3.7-3.3 3.7-.4 0-.5-.2c-.2-2.2-.2-4.3-.4-6.9l-.3-3.3v-.3c.9-1 3-.7 3 1zm-1.9 1.7c.7 0 1.2-.8 1.2-1.6s-.7-1.1-1.4-.7zm.6 7.2c1.5 0 2-1.5 2-2.9s-.7-3.5-2.6-3.5c0 2.1.2 4.2.3 6.3h.3z"/><path d="m147.4 32.2c0-.3.2-.5.5-.5h2.2s.4.2.4.3c0 .3-.4.4-.6.4h-1.7v4.7l1.6-.2c.7 0 .4.6-.2.7l-1.4.2v3.7h.7c.9 0 1.6-.3 1.7.3 0 .5-3.1.4-3.1.2l-.2-9.8z"/><path d="m152.2 32.1c0-.6.7-.9 1 0l2.9 7.8c0-.6.1-4.1.2-5.5 0-.8 0-1.7.2-2.5 0-.2.2-.2.4-.2.3 0 .4 0 .4.3 0 1.5-.3 2.9-.3 4.4s-.2 4.7-.2 5.5-.5 0-.6 0c-.1-.3-.3-.6-3.2-8.5v8.6c0 .4-.8.4-.8 0l.2-9.9z"/><path d="m15.1 5.2c0-.3.3-.4.4-.4.4 0 .5.3.5.7.4 2 .9 4.3 1.6 7.7l1.4-7.8c0-.2.2-.3.4-.4.2 0 .4 0 .4.4l-1.5 7.9c0 .2-.4 2-.6 2s0 0 0 0c-.1 0-.3 0-.4-.2-.8-3.3-1.4-6.6-2.3-9.9z"/><path d="m21.5 5.3c0-1.3.9-.9 1.1 0 .3 1.4.6 2.6 2.1 9.9 0 .3-.4.5-.7 0l-.5-2.5-1.9.3c-.1.6-.2 1.9-.2 2.4s-.6.2-.6 0l.6-10.3v.2zm-.1-2.5.9-.6h.1c.2 0 .4.2.4.3v.2l-.7.4-.5.4h-.2c-.2 0-.3 0-.3-.3s.2-.3.4-.5zm.3 8.9v.7l1.7-.2-1.3-6.1c0 .8-.3 4.8-.3 5.6z"/><path d="m25.8 4.5c.2 0 .4.3.5.5.1 3.1 0 6.3.4 9.4.4-.1 1.1-.3 1.6-.3s.5 0 .5.3 0 .3-.3.4c-.5.2-1.1.1-1.6.3-.2 0-.4.2-.6.2s-.4-.2-.4-.4c-.2-1.6 0-3.4-.2-5l-.2-3.4v-1.7c0-.2.2-.2.3-.2z"/><path d="m30.5 5.3c0-1.3.9-.9 1.1 0 .3 1.4.6 2.6 2.1 9.9 0 .3-.4.5-.7 0l-.5-2.5-1.9.3c-.1.6-.2 1.9-.2 2.4s-.6.2-.6 0l.6-10.3v.2zm.3 6.4v.7l1.7-.2-1.3-6.1c0 .8-.3 4.8-.3 5.6z"/><path d="m35.1 13.6c.5 0 .4.8 1 .8.9.2 1.1-.5 1.2-1.2.2-1.6-.5-2.7-1.3-4-.4-.6-.6-1.1-.5-1.9.2-1.1.7-1.8 1.9-1.8s.2 0 .3 0c.4 0 .6 0 .6.5 0 .7-1.6-.5-1.9 1.5-.2.9.2 1.2.7 2 .7 1.3 1.4 2.4 1.1 3.9-.2 1.1-.7 1.8-1.8 1.8s-.2 0-.3 0c-.5 0-1.3-.5-1.3-1.1s0 0 0 0c0-.2.2-.3.4-.3v-.2z"/><path d="m40.3 14.7c-.3 0-.5-.3-.5-.5.9-2.2 1.5-4.6 2.3-7.1 0-.4.2-.8.3-1.1-.8 0-1.6 0-2.5-.2-.3 0-.6-.6 0-.8l3.5.3c-.8 2.8-1.7 5.8-2.5 8.7h2.2c.7 0 .4.7 0 .8-.8 0-1.6 0-2.6.1z"/><path d="m46 9.2v-3.7h-1.1c-.4-.2-.6-.6 0-.8h3.2c.6 0 .6.7.2.7h-1.5v8.6c0 .4-.7.3-.8 0 0-1 0-3.8 0-4.8z"/><path d="m50.1 5.3c0-1.3.9-.9 1.1 0 .3 1.4.6 2.6 2.1 9.9 0 .3-.4.5-.7 0l-.5-2.5-1.9.3c0 .6-.2 1.9-.2 2.4s-.6.2-.6 0l.6-10.3v.2zm0-2.5.9-.6c.2 0 .4.2.4.3v.2l-.7.4-.5.4h-.2c-.2 0-.3 0-.3-.3s.2-.3.4-.5h-.1zm.3 8.9v.7l1.7-.2-1.3-6.1c0 .8-.3 4.8-.3 5.6z"/><path d="m54.6 13.6c.5 0 .4.8 1 .8.9.2 1.1-.5 1.2-1.2.2-1.6-.5-2.7-1.3-4-.4-.6-.6-1.1-.5-1.9.2-1.1.7-1.8 1.9-1.8s.2 0 .3 0c.4 0 .6 0 .6.5 0 .7-1.6-.5-1.9 1.5-.2.9.2 1.2.7 2 .7 1.3 1.4 2.4 1.1 3.9-.2 1.1-.7 1.8-1.8 1.8s-.2 0-.3 0c-.5 0-1.3-.5-1.3-1.1s0 0 0 0c0-.2.2-.3.4-.3v-.2z"/><path d="m16.6 25.7v-3.7h-1.1c-.4-.2-.6-.6 0-.8h3.2c.6 0 .6.7.2.7h-1.5v8.6c-.1.4-.7.3-.8 0 0-1 0-3.8 0-4.8z"/><path d="m20.8 21.8c0-1.3.9-.9 1.1 0 .3 1.4.6 2.6 2.1 9.9 0 .3-.4.5-.7 0l-.5-2.5-1.9.3c-.1.6-.2 1.9-.2 2.4s-.6.2-.6 0l.6-10.3v.2zm.2 6.4v.7l1.7-.2-1.3-6.1c0 .8-.3 4.8-.3 5.6z"/><path d="m25.2 21.8c.3-.5.7 0 .8.1.8 2.4 1.4 4.8 2.4 7.2v-1.9c.3-1.7.3-3.2.3-5s.3-.3.5-.3.3 0 .4.2c-.2 3-.4 6.1-.5 9.3v.2s-.2.3-.3.3-.3-.2-.4-.3c-.9-2.6-1.8-5.1-2.6-7.7v7.8c-.4.7-.9.3-.9 0 0 0 .3-9.9.3-9.9z"/><path d="m31.2 21.2s.2-.2.3-.2c.5 0 .5.5.5.9 0 1.5-.2 2.8-.2 4.2s-.5 4.7 1 4.7 1.1-1.3 1.2-1.7c.5-2.4.8-4.9.8-7.4v-.3c0-.2.3-.3.5-.3s.4.2.4.4v.2c-.2 2.1-.3 4.1-.7 6.2v.2c-.2 1.1-.6 3.4-2.1 3.4s-1.9-1.9-1.9-3.1v-2.7c0-1.5 0-3 .2-4.5z"/><path d="m37.3 20.9c.2 0 .4.3.5.5 0 3.1 0 6.3.4 9.4.4-.1 1.1-.3 1.6-.3s.5 0 .5.3 0 .3-.3.4c-.5.2-1.1.1-1.6.3-.2 0-.4.2-.6.2s-.4-.2-.4-.4c-.2-1.6 0-3.4-.2-5l-.2-3.4v-1.7c0-.2.2-.2.3-.2z"/><path d="m42.1 21.8c0-1.3.9-.9 1.1 0 .3 1.4.6 2.6 2.1 9.9 0 .3-.4.5-.7 0l-.5-2.5-1.9.3c0 .6-.2 1.9-.2 2.4s-.6.2-.6 0l.6-10.3v.2zm-.1-2.5.9-.6c.2 0 .4.2.4.3v.2l-.7.4-.5.4h-.2c-.2 0-.3-.1-.3-.3s.2-.3.4-.5h-.1zm.3 8.9v.7l1.7-.2-1.3-6.1c0 .8-.3 4.8-.3 5.6z"/><path d="m46.6 30.1c.5 0 .4.8 1 .8.9.2 1.1-.5 1.2-1.2.2-1.6-.5-2.7-1.3-4-.4-.6-.6-1.1-.5-1.9.2-1.1.7-1.8 1.9-1.8s.2 0 .3 0c.4 0 .6.1.6.5 0 .7-1.6-.5-1.9 1.5-.2.9.2 1.2.7 2 .7 1.3 1.4 2.4 1.1 3.9-.2 1.1-.7 1.8-1.8 1.8s-.2 0-.3 0c-.5 0-1.3-.5-1.3-1.1s0 0 0 0c0-.2.2-.3.4-.3v-.2z"/></g></svg>