<?xml version="1.0" encoding="UTF-8"?>
<svg id="Layer_1" xmlns="http://www.w3.org/2000/svg" xmlns:xlink="http://www.w3.org/1999/xlink" version="1.1" viewBox="0 0 200 157">
  <!-- Generator: Adobe Illustrator 29.1.0, SVG Export Plug-In . SVG Version: 2.1.0 Build 142)  -->
  <defs>
    <style>
      .st0 {
        fill: url(#linear-gradient);
      }

      .st1 {
        isolation: isolate;
      }

      .st2 {
        fill: #fff;
      }
    </style>
    <linearGradient id="linear-gradient" x1="73" y1="837.6" x2="130.8" y2="924.9" gradientTransform="translate(0 -798)" gradientUnits="userSpaceOnUse">
      <stop offset="0" stop-color="#eda123"/>
      <stop offset="1" stop-color="#cb7b1f"/>
    </linearGradient>
  </defs>
  <path class="st0" d="M194.4,82c-2.8,20.9-14.5,37.3-31.3,47.4-16.4,10.1-37.7,14-64.9,15.1-27.1,1.1-60-.9-77.5-15.7C3.3,114,1.6,86.4,13.6,63.8,25.8,41.3,51.8,23.6,82.7,15.7c30.8-7.9,66.3-6.3,87.2,7.1,20.9,13.4,27.1,38.6,24.3,59.2h.2Z"/>
  <g class="st1">
    <g class="st1">
      <g class="st1">
        <path class="st2" d="M29.4,77.3c-.4-3.3-.8-6.7-1.3-9-.5-2.4-.8-2.8-.8-2.8h0c1.8-.4,3.4-.2,3.5,1.4.4,2.6.6,5.3.8,8.1l.2,2.1h0l.4-.4c2.9-3.8,3.7-4.5,3.7-5.5,0,0,.7-.4,1.4-.4s1.3,0,1.3.4c0,.9-2.4,2.9-4.5,5.3h0c1.4,1.5,5.3,5.7,7.5,7h0s-.6.5-2,.6c-3.7.5-6.7-5.8-7.5-5.9h-.2c.2,1.9.5,3.3.7,5.1,0,1.4-.5,1.9-1.4,2h-1.9c.4-.4,0-5.3-.2-7.8l.2-.2s.1,0,0,0Z"/>
        <path class="st2" d="M48.1,69.3c4.4-.5,7,2.2,7.3,5.3.5,3.9-1.4,7.8-5.9,8.4-4.4.5-7-2.4-7.3-5.8-.5-3.7,1.5-7.4,6-8h0ZM43.5,65.8c0-.8.5-1.7,1.3-1.8s1.7.5,1.8,1.3c0,.8-.5,1.7-1.3,1.8-.8,0-1.7-.5-1.8-1.3ZM49.6,81.8c2.4-.2,3.1-3.4,2.7-6.4-.4-2.7-1.9-5.3-4.4-5-2.4.2-3.1,3.2-2.7,5.9.4,2.9,1.9,5.7,4.4,5.3h0v.2ZM48.5,65.2c0-.8.5-1.7,1.3-1.7s1.7.5,1.8,1.3c0,.8-.5,1.7-1.4,1.8-.8,0-1.5-.5-1.7-1.3h0Z"/>
        <path class="st2" d="M58.1,81.1v-1.1c1.1-1.9,4.2-8.5,5.1-10.7h0c-1.4.4-3.7.6-5.2.8-1.1,0-1.2-.8-1.4-1.8,0,0,1.4,0,5.4-.4l4.7-.6v.4c0,.4,0,.8-.2,1.4-2.1,4-3.9,8.1-5.1,10.6h0c1.1-.4,3.3-.7,5.1-.9,1.9-.2,1.9.2,2.2,1.8,0,0-1.7,0-5.9.5l-4.8.6v-.5h.1Z"/>
        <path class="st2" d="M74.9,66c3.4-.5,5,1.4,5.2,3.1.4,2.6-2.2,3.9-4.6,4.1-1.5.2-2.9-.4-2.9-.4h0c.4,3.2,2.1,5.1,4.7,4.8,2.1-.2,3.9-2,3.9-2h0s-.5,3.5-4.8,4c-3.4.5-6.4-2-6.8-5.8-.5-3.5,1.5-7.4,5.3-7.9h0,0ZM71.8,64.7c2-1.4,2.8-4.1,3.1-4.8,1.4,0,2.1.9,2.1.9-.2,1.8-2.8,3.8-4.4,3.9,0,0-.8,0-.8,0ZM74.9,72c1.2,0,2.4-.9,2.1-2.6,0-1.2-.8-2.4-2.4-2.2-1.9.2-2.5,3.4-2.4,4.5,0,.2,1.4.5,2.5.4h.2Z"/>
        <path class="st2" d="M84.3,72.1c-.2-2.5-.7-5.3-1.4-6.6.5-.2.8-.4,1.3-.4,1.2,0,2.1.4,2.2,1.2v.5h0s.7-2.1,3.9-2.5c2.9-.4,5.1,2,5.4,5.3.6,4.5-1.5,8-6.7,8.6h-1.3v1.3c.4,2.9.9,4.2.9,4.2-.6.2-1.2.4-1.8.5-.9,0-1.7-.2-1.8-1.8-.4-2.5-.6-5.1-1.2-10.3h.5ZM89.5,76.9c2.8-.4,3.8-3.4,3.4-6.4-.2-2.4-1.7-4.7-3.4-4.5-1.5.2-2.6,1.5-2.6,3.5s0,2.4.4,3.5l.4,3.2c0,.7.8.7,1.9.6h-.1Z"/>
        <path class="st2" d="M97.7,59.4c0-.9.6-1.9,1.5-2,.9,0,1.9.6,2,1.5,0,.9-.6,1.9-1.5,2-.9,0-1.9-.6-1.9-1.5h0ZM99.4,70.2c-.7-5.9-1.4-6.6-1.4-6.6.5-.2.8-.4,1.3-.4,1.2,0,2.2.4,2.4,1.4.4,2.7.6,5.9.8,7.8,0,1.2.4,2.7,1.7,2.6.5,0,.9-.5.9-.5h0s-.5,1.8-2.7,2c-1.2,0-2.4-.2-2.6-1.8-.2-1.4-.2-2.9-.5-4.5,0,0,0,0,0,0Z"/>
        <path class="st2" d="M106.7,72.8h0s1.8,1.7,4.2,1.4c1.7-.2,2.1-1.2,2-2-.4-2.7-7-1.4-7.5-5.9-.4-2.5,1.9-4.1,4.4-4.5,1.1,0,4,0,4.1.9,0,.6-.4,1.4-.7,2h0s-1.5-2-3.5-1.8c-1.2,0-1.9,1.1-1.8,2.2.4,2.6,7,1.2,7.5,5.8.4,2.6-2,4.2-4.5,4.6-1.7.2-4.5-.2-4.6-1.3,0-.5.2-1.1.4-1.5h0Z"/>
        <path class="st2" d="M118.4,66.6c-.4-3.3-.8-6.7-1.3-9-.5-2.4-.8-2.8-.8-2.8h0c1.8-.4,3.4-.2,3.5,1.4.4,2.6.6,5.3.8,8.1l.2,2.1h0l.4-.4c2.9-3.8,3.7-4.5,3.7-5.5,0,0,.7-.4,1.4-.4s1.3,0,1.3.4c0,.9-2.4,2.9-4.5,5.3h0c1.4,1.5,5.3,5.7,7.5,7h0s-.6.5-2,.6c-3.7.5-6.7-5.8-7.5-5.9h-.2c.2,1.9.5,3.3.7,5.1,0,1.4-.5,1.9-1.4,2h-1.9c.4-.4,0-5.3-.2-7.8l.2-.2s0,0,0,0Z"/>
        <path class="st2" d="M137,58.6c4.4-.5,7,2.2,7.3,5.3.5,3.9-1.4,7.8-5.9,8.4-4.4.5-7-2.4-7.3-5.8-.5-3.7,1.5-7.4,6-8h-.1ZM138.5,71.1c2.4-.2,3.1-3.4,2.7-6.4-.4-2.7-1.9-5.3-4.4-5-2.4.2-3.1,3.2-2.7,5.9.4,2.9,1.9,5.7,4.4,5.3h0v.2Z"/>
        <path class="st2" d="M147.1,60.5c-.2-2.5-.6-4.7-.9-6.4-.5-2.4-.8-2.8-.8-2.8h0c1.8-.4,3.4-.2,3.5,1.4.4,2.6.6,5.3.8,8.1.2,2.4.6,4.6.9,7,.1.8.5,1.7,1.4,1.5.5,0,.9-.5.9-.5h0s-.5,1.8-2.7,2c-1.2,0-2.4-.2-2.6-2-.2-2.1-.5-5.3-.8-8.3h.3Z"/>
        <path class="st2" d="M160.7,61v-.2c-.2-2.1-.9-3.3-2.9-3.1-1.3,0-2.5,1.1-3.4,2h0c.2-1.7,2.1-3.5,4.4-3.8,3.7-.5,4.5,1.7,4.7,4,.1,1.4.4,3.1.5,4.5v.4c.1,1.1.4,2.8,1.7,2.7.5,0,.9-.5.9-.5h0s-.5,1.8-2.7,2c-1.1,0-2.2,0-2.5-1.5h0c-.5,1.1-1.7,2.1-3.3,2.4-2.1.2-3.7-1.2-3.9-3.1-.5-3.8,3.7-5.4,6.5-5.8h.1-.1ZM155.5,54.6c2-1.4,2.8-4.1,3.1-4.8,1.4,0,2.1.9,2.1.9-.2,1.8-2.8,3.8-4.4,3.9h-.8ZM159.2,67.9c.8,0,2.2-1.1,2.1-2.1-.1-1.1-.2-2.4-.4-3.8-1.1.4-4,1.2-3.7,3.9.2,1.5,1.1,2,2,1.9h-.1,0Z"/>
        <path class="st2" d="M168,58.9c-.2-2.2-.5-2.2-1.5-2.5v-1.1c.9,0,3.2-2.6,3.4-3.5h.6v3.1c-.1,0,2-.2,2-.2,1.1,0,1.4-.5,1.4-.5v.7c.1,1.1-.4,1.4-1.3,1.5-.2,0-2.1.2-2.1.2,0,0,.2,3.1.5,5.1.4,2.6.8,4.7,2.8,4.5,1.3,0,2.6-1.5,2.6-1.5h.1s-.5,3.2-3.7,3.5c-3.1.4-4.1-1.7-4.5-4.6-.2-1.7-.4-3.7-.5-4.6h.2Z"/>
      </g>
    </g>
    <g class="st1">
      <g class="st1">
        <path class="st2" d="M50.9,102.7c-.4-.5-.7-1.1-1.2-1.4h0c.5-.4,1.1-.5,1.9-.6.8,0,1.9,0,2.1.8.8,2.1,3.1,6.8,4.6,9.6h0c2.2-10.5.8-11.3,3.1-11.6h1.2s-.6.6-1.1,2.7l-2.6,11.3s-2.8.2-3.8-1.8-3.2-7.1-4.4-9h.2Z"/>
        <path class="st2" d="M71.3,103.5v-.2c-.2-2.1-.9-3.3-2.9-3.1-1.3,0-2.5,1.1-3.4,2h0c.2-1.7,2.1-3.5,4.4-3.8,3.7-.5,4.5,1.7,4.7,4,0,1.4.4,3.1.5,4.5v.4c0,1.1.4,2.8,1.7,2.7.5,0,.9-.5.9-.5h0s-.5,1.8-2.7,2c-1.1,0-2.2,0-2.5-1.5h0c-.5,1.1-1.7,2.1-3.3,2.4-2.1.2-3.7-1.2-3.9-3.1-.5-3.8,3.7-5.4,6.5-5.8h0,0ZM66,97c2-1.4,2.8-4.1,3.1-4.8,1.4,0,2.1.9,2.1.9-.2,1.8-2.8,3.8-4.4,3.9,0,0-.8,0-.8,0ZM69.6,110.4c.8,0,2.2-1.1,2.1-2.1s-.2-2.4-.4-3.8c-1.1.4-4,1.2-3.7,3.9.2,1.5,1.1,2,2,1.9h0,0Z"/>
        <path class="st2" d="M78.3,100.3c-.2-2.5-.6-4.7-.9-6.4-.5-2.4-.8-2.8-.8-2.8h0c1.8-.4,3.4-.2,3.5,1.4.4,2.6.6,5.3.8,8.1.2,2.4.6,4.6.9,7,0,.8.5,1.7,1.4,1.5.5,0,.9-.5.9-.5h0s-.5,1.8-2.7,2c-1.2,0-2.4-.2-2.6-2-.2-2.1-.5-5.3-.8-8.3h.3Z"/>
        <path class="st2" d="M91.8,101v-.2c-.2-2.1-.9-3.3-2.9-3.1-1.3,0-2.5,1.1-3.4,2h0c.2-1.7,2.1-3.5,4.4-3.8,3.7-.5,4.5,1.7,4.7,4,0,1.4.4,3.1.5,4.5v.4c0,1.1.4,2.8,1.7,2.7.5,0,.9-.5.9-.5h0s-.5,1.8-2.7,2c-1.1,0-2.2,0-2.4-1.5h0c-.5,1.1-1.7,2.1-3.3,2.4-2.1.2-3.7-1.2-3.9-3.1-.5-3.8,3.7-5.4,6.5-5.8h0ZM90.3,107.9c.8,0,2.2-1.1,2.1-2.1s-.2-2.4-.4-3.8c-1.1.4-4,1.2-3.7,3.9.2,1.5,1.1,2,2,1.9h0,0Z"/>
        <path class="st2" d="M99.1,105.3h0s1.8,1.7,4.2,1.4c1.7-.2,2.1-1.2,2-2-.4-2.7-7-1.4-7.5-5.9-.4-2.5,1.9-4.1,4.4-4.5,1.1,0,4,0,4.1.9,0,.6-.4,1.4-.7,2h0s-1.5-2-3.5-1.8c-1.2,0-1.9,1.1-1.8,2.2.4,2.6,7,1.2,7.5,5.8.4,2.6-2,4.2-4.5,4.6-1.7.2-4.5-.2-4.6-1.3,0-.5.2-1.1.4-1.5h0Z"/>
        <path class="st2" d="M110.2,106.5v-1.1c1.1-1.9,4.2-8.5,5.1-10.7h0c-1.4.4-3.7.6-5.2.8-1.1,0-1.2-.8-1.4-1.8,0,0,1.3,0,5.4-.4l4.7-.6v.4c0,.4,0,.8-.2,1.4-2.1,4-3.9,8.1-5.1,10.6h0c1.1-.4,3.3-.7,5.1-.9,1.9-.2,1.9.2,2.2,1.8,0,0-1.7,0-5.9.5l-4.8.6v-.5h.1Z"/>
        <path class="st2" d="M122.8,96c-.2-2.2-.5-2.2-1.5-2.5v-1.1c.9,0,3.2-2.6,3.4-3.5h.6v3.1l2.1-.2c1.1,0,1.4-.5,1.4-.5v.7c0,1.1-.4,1.4-1.3,1.5-.2,0-2.1.2-2.1.2,0,0,.2,3.1.6,5.1.4,2.6.8,4.7,2.8,4.5,1.3,0,2.6-1.5,2.6-1.5h0s-.5,3.2-3.7,3.5c-3.1.4-4.1-1.7-4.5-4.6-.2-1.7-.4-3.7-.5-4.6h0Z"/>
        <path class="st2" d="M138.6,95.4v-.2c-.2-2.1-.9-3.3-2.9-3.1-1.3,0-2.5,1.1-3.4,2h0c.2-1.7,2.1-3.5,4.4-3.8,3.7-.5,4.5,1.7,4.7,4,.1,1.4.4,3.1.5,4.5v.4c.1,1.1.4,2.8,1.7,2.7.5,0,.9-.5.9-.5h0s-.5,1.8-2.7,2c-1.1,0-2.2,0-2.5-1.5h0c-.5,1.2-1.7,2.1-3.3,2.4-2.1.2-3.7-1.2-3.9-3.1-.5-3.8,3.7-5.4,6.5-5.8h.1-.1ZM137,102.2c.8,0,2.2-1.1,2.1-2.1s-.2-2.4-.4-3.8c-1.1.4-4,1.2-3.7,3.9.2,1.5,1.1,2,2,1.9h-.1,0Z"/>
        <path class="st2" d="M146.3,96.1c-.1-1.3-.4-2.6-.6-3.9-.5-2.5-.8-2.7-.8-2.7.5-.2.8-.4,1.3-.4,1.2,0,2.1.4,2.2,1.2v.7h0c.5-1.4,2.4-2.5,4.2-2.7,3.4-.5,4,1.4,4.2,3.3s.4,3.7.6,5.8c.1,1.2.4,2.7,1.7,2.6.5,0,.9-.5.9-.5h0s-.5,1.8-2.7,2c-1.2,0-2.4-.2-2.6-1.8-.2-2.2-.4-3.8-.7-6.4-.2-1.8-.5-3.5-2.7-3.2-1.4,0-2.9,1.7-2.7,4.1s.6,4.1.9,6.5c.1,1.4-.5,1.9-1.4,2h-1.9c.1,0,.5-1.8-.1-6.4v-.4h.1v.2Z"/>
        <path class="st2" d="M160.2,83.5c0-.9.6-1.9,1.5-2,.9,0,1.9.6,2,1.5,0,.9-.6,1.9-1.5,1.9s-1.9-.6-1.9-1.5h-.1ZM162,94.3c-.7-5.9-1.4-6.6-1.4-6.6.5-.2.8-.4,1.3-.4,1.2,0,2.2.4,2.4,1.4.4,2.7.6,5.9.8,7.8.1,1.2.4,2.7,1.7,2.6.5,0,.9-.5.9-.5h0s-.5,1.8-2.7,2c-1.2,0-2.4-.2-2.6-1.8-.2-1.4-.2-2.9-.5-4.5h.1Z"/>
      </g>
    </g>
  </g>
</svg>