<?xml version="1.0" encoding="UTF-8"?>
<svg id="Layer_1" xmlns="http://www.w3.org/2000/svg" xmlns:xlink="http://www.w3.org/1999/xlink" version="1.1" viewBox="0 0 200 200">
  <!-- Generator: Adobe Illustrator 29.1.0, SVG Export Plug-In . SVG Version: 2.1.0 Build 142)  -->
  <defs>
    <style>
      .st0 {
        fill: url(#linear-gradient);
      }

      .st1 {
        isolation: isolate;
      }

      .st2 {
        fill: #fff;
      }
    </style>
    <linearGradient id="linear-gradient" x1="75.3" y1="223.5" x2="96.2" y2="85.4" gradientTransform="translate(0 202) scale(1 -1)" gradientUnits="userSpaceOnUse">
      <stop offset="0" stop-color="#e0cf53"/>
      <stop offset="1" stop-color="#d7b629"/>
    </linearGradient>
  </defs>
  <path class="st0" d="M166.9,42.2c11.6,22.2,8,49,1.7,74.5-6.3,25.5-15.3,50-35.4,64.5-20,14.7-50.9,19.7-75.1,8.8-24.3-10.9-41.9-37.7-45.9-64.9-4.2-27.4,5-55,22.2-78.4C51.5,23.4,76.3,4.3,102.3,3.5s52.9,16.7,64.6,38.8Z"/>
  <g class="st1">
    <g class="st1">
      <g class="st1">
        <path class="st2" d="M45.8,68.9h0s1.1,1.4,3.1,1.4,1.7-.7,1.7-1.4c0-2-5-1.7-5-5s1.8-2.9,3.6-2.9,2.9.3,2.9,1.1-.3,1-.7,1.4h0s-1-1.7-2.4-1.7-1.5.6-1.5,1.5c0,2,5,1.5,5,5s-2,2.9-3.8,2.9-3.3-.6-3.3-1.4.3-.8.4-1.1h0Z"/>
        <path class="st2" d="M53.9,70.7c0-.3,0-.6.3-.8,1-1.4,3.9-5.9,4.6-7.4h-3.9c-1.1,0-.8-.7-.8-1.4,0,0,1,.3,4,.3h3.6v.3c0,.3,0,.6-.3,1-1.8,2.8-3.6,5.6-4.7,7.4h3.9c1.4,0,1.4.3,1.5,1.5h-8.1v-.8Z"/>
        <path class="st2" d="M68.4,65.1h0c0-1.8-.4-2.7-1.8-2.7s-2,.6-2.7,1.1h0c.3-1.3,1.8-2.5,3.6-2.5,2.8,0,3.1,1.7,3.1,3.3v3.6c0,.7,0,2.1,1,2.1s.7-.3.7-.3h0s-.4,1.3-2.1,1.3-1.7-.3-1.7-1.4h0c-.4.8-1.4,1.4-2.7,1.4s-2.5-1.1-2.5-2.7c0-2.8,3.2-3.6,5.3-3.6,0,0-.3.3-.3.3ZM66.6,70c.7,0,1.7-.6,1.7-1.4v-2.8c-.8,0-3.1.4-3.1,2.5s.6,1.5,1.3,1.5h.1Z"/>
        <path class="st2" d="M73.9,65.4v-6.7c0-1.8-.3-2.2-.3-2.2h0c1.3,0,2.5,0,2.5,1.4v7.5h0l.3-.3c2.5-2.5,3.1-3.1,3.2-3.8h1.1c.6,0,1,0,1,.4,0,.7-2.1,2-3.8,3.5h0c1,1.3,3.3,4.6,5,5.7h0s-.4.3-1.5.3c-2.7,0-4.5-4.9-5-5h0v3.8c0,1.3-.6,1.3-1.3,1.3h-1.4c.3-.3.4-3.9.4-5.7h-.3Z"/>
        <path class="st2" d="M84.3,66.4c0-4.5-.4-5-.4-5h1c.8,0,1.7.4,1.7,1.3v5.9c0,1.5,0,2.1,1,2.1s.7-.3.7-.3h0s-.4,1.3-2.1,1.3-1.8-.4-1.8-1.5v-3.3h0v-.3ZM84,58.3c0-.7.6-1.3,1.3-1.3s1.3.6,1.3,1.3-.6,1.3-1.3,1.3-1.3-.6-1.3-1.3Z"/>
        <path class="st2" d="M90,66.4c0-3.9-.4-5-.4-5h1c.8,0,1.5.4,1.5,1.3s0,.7,0,.7h0c.6-1.3,1.8-2,2.9-2s1,.3,1,.7,0,1-.3,1.4h0c-.6-.3-1.1-.6-1.5-.6-1.5,0-2,1.5-2,3.8,0,3.8.4,4.5.4,4.6h-1.4c-.7,0-1.3-.3-1.3-1.5s0-2.4,0-3.3Z"/>
        <path class="st2" d="M102,65.1h0c0-1.8-.4-2.7-1.8-2.7s-2,.6-2.7,1.1h0c.3-1.3,1.8-2.5,3.6-2.5,2.8,0,3.1,1.7,3.1,3.3v3.6c0,.7,0,2.1,1,2.1s.7-.3.7-.3h0s-.4,1.3-2.1,1.3-1.7-.3-1.7-1.4h0c-.4.8-1.4,1.4-2.7,1.4s-2.5-1.1-2.5-2.7c0-2.8,3.2-3.6,5.3-3.6,0,0-.3.3-.3.3ZM98.8,59.8c1.7-.8,2.5-2.8,2.7-3.2,1.1,0,1.5,1,1.5,1-.3,1.3-2.4,2.5-3.6,2.5s-.4,0-.6,0h0v-.3ZM100.3,70c.7,0,1.7-.6,1.7-1.4v-2.8c-.8,0-3.1.4-3.1,2.5s.6,1.5,1.3,1.5h.1Z"/>
        <path class="st2" d="M107.7,66.4v-2.9c0-1.8-.4-2.1-.4-2.1h1c.8,0,1.5.4,1.5,1.1s0,.4,0,.4h0c.4-1,2-1.7,3.3-1.7,2.5,0,2.8,1.4,2.8,2.8v4.3c0,1.7,0,2.1,1,2.1s.7-.3.7-.3h0s-.4,1.3-2.1,1.3-1.8-.4-1.8-1.5v-4.7c0-2,0-2.7-1.7-2.7s-2.4,1-2.4,2.8v4.9c0,1.8-.6,1.3-1.3,1.3h-1.4s.4-1.3.4-4.7h.3v-.3Z"/>
        <path class="st2" d="M119.6,73.8c1.1,0,2.1-.4,2.8-2l.3-.7c-.7,0-1.4-.6-1.7-1.4-.6-1.8-1.8-5.4-2.5-7,0-.4-.4-.8-.8-1.1h0c.4,0,.8-.3,1.4-.3s1.4.3,1.5.8c.4,1.7,1.7,5.4,2.5,7.5,2.7-7.7,1.7-8.4,3.3-8.4s.8,0,.8,0h0s-.6.4-1,1.8l-2.9,8.1c-1.1,2.9-2.7,4.2-4.2,4.2s-1.1-.7-1.3-2h1.5v.3Z"/>
        <path class="st2" d="M129.2,64.2c0-1.1-.3-1.8-.8-2v-.8c.8,0,2.7-1.7,2.9-2.2h.4l-.4,2.2h2.7v.6c0,.8-.4,1-1.1,1h-1.5v3.8c0,1.5,0,3.5,1.7,3.5s2.1-1,2.1-1h0s-.7,2.4-3.1,2.4-2.9-1.5-2.9-3.8v-3.5h.1Z"/>
        <path class="st2" d="M136,72.8c.7,0,1.3-.6,1.3-1.3s-1-.4-1-1.7.6-1.3,1.3-1.3,1.5,1,1.5,2-.7,2.8-2.4,2.8-1.4-.7-1.4-.7h.7,0Z"/>
      </g>
    </g>
    <g class="st1">
      <g class="st1">
        <path class="st2" d="M34,92.1h0s1.1,1.4,3.1,1.4,1.7-.7,1.7-1.4c0-2-5-1.7-5-5s1.8-2.9,3.6-2.9,2.9.3,2.9,1.1-.3,1-.7,1.4h0s-1-1.7-2.4-1.7-1.5.6-1.5,1.5c0,2,5,1.5,5,5s-2,2.9-3.8,2.9-3.3-.6-3.3-1.4.3-.8.4-1.1h0Z"/>
        <path class="st2" d="M42.1,93.9c0-.3,0-.6.3-.8,1-1.4,3.9-5.9,4.7-7.4h-3.9c-1.1,0-.8-.7-.8-1.4,0,0,1,.3,4,.3h3.6v.3c0,.3,0,.6-.3,1-1.8,2.8-3.6,5.6-4.7,7.4h3.9c1.4,0,1.4.3,1.5,1.5h-8.1v-.3l-.3-.3v-.3Z"/>
        <path class="st2" d="M56.6,88.3h0c0-1.8-.4-2.7-1.8-2.7s-2,.6-2.7,1.1h0c.3-1.3,1.8-2.5,3.6-2.5,2.8,0,3.1,1.7,3.1,3.3v3.6c0,.7,0,2.1,1,2.1s.7-.3.7-.3h0s-.4,1.3-2.1,1.3-1.7-.3-1.7-1.4h0c-.4.8-1.4,1.4-2.7,1.4s-2.5-1.1-2.5-2.7c0-2.8,3.2-3.6,5.3-3.6,0,0-.3.3-.3.3ZM54.8,93.2c.7,0,1.7-.6,1.7-1.4v-2.8c-.8,0-3.1.4-3.1,2.5s.6,1.5,1.3,1.5h.1Z"/>
        <path class="st2" d="M62.2,88.6v-6.7c0-1.8-.4-2.2-.4-2.2h0c1.3,0,2.5,0,2.5,1.4v7.5h0l.3-.3c2.5-2.5,3.1-3.1,3.2-3.8h1.1c.6,0,1,0,1,.4,0,.7-2.1,2-3.8,3.5h0c1,1.3,3.3,4.6,5,5.7h0s-.4.3-1.5.3c-2.7,0-4.5-4.9-5-5h0v3.8c0,1.3-.6,1.3-1.3,1.3h-1.4c.3-.3.4-3.9.4-5.7h-.1Z"/>
        <path class="st2" d="M72.7,87.3c0-1.1-.3-1.8-.8-2v-.8c.8,0,2.7-1.7,2.9-2.2h.4l-.4,2.2h2.7v.6c0,.8-.4,1-1.1,1h-1.5v3.8c0,1.5,0,3.5,1.7,3.5s2.1-1,2.1-1h0s-.7,2.4-3.1,2.4-2.9-1.5-2.9-3.8v-3.5h.1Z"/>
        <path class="st2" d="M83.9,84.3c2.5,0,3.6,1.4,3.6,2.8s-2.1,2.7-3.8,2.7-2.1-.6-2.1-.6h0c0,2.4,1.1,3.9,3.1,3.9s3.1-1.1,3.1-1.1h0s-.7,2.5-3.9,2.5-4.5-2.1-4.5-4.9,1.8-5.4,4.6-5.4h-.1ZM83.3,88.7c.8,0,1.8-.4,1.8-1.7s-.4-1.8-1.5-1.8-2.1,2.4-2.1,3.1,1,.4,1.8.4Z"/>
        <path class="st2" d="M90.1,89.6c0-3.9-.4-5-.4-5h1c.8,0,1.5.4,1.5,1.3s0,.7,0,.7h0c.6-1.3,1.8-2,2.9-2s1,.3,1,.7,0,1-.3,1.4h0c-.6-.3-1.1-.6-1.5-.6-1.5,0-2,1.5-2,3.8,0,3.8.4,4.5.4,4.6h-1.4c-.7,0-1.3-.3-1.3-1.5s0-2.4,0-3.3Z"/>
        <path class="st2" d="M97.8,88.9v-2.4c0-.8,0-1.5-.4-1.8h1c.8,0,1.7.4,1.7,1.3v4.7c0,2,0,2.9,1.7,2.9s2.4-2.4,2.4-4v-3.1c0-1.3-.3-1.8-.3-1.8h1c1,0,1.7.4,1.7,1.3v5.9c0,2.2,0,2,1,2s.7-.3.7-.3h0s-.4,1.3-2.1,1.3-1.5-.4-1.5-1.4,0,0,0,0h0s-.7,1.7-3.1,1.7-3.1-1.5-3.1-3.1v-2.7h-.4v-.4ZM98.6,81.3c0-.6.6-1.1,1.1-1.1s1.1.6,1.1,1.1-.6,1.1-1.1,1.1-1.1-.6-1.1-1.1ZM102.4,81.3c0-.6.6-1.1,1.1-1.1s1.1.6,1.1,1.1-.6,1.1-1.1,1.1-1.1-.6-1.1-1.1Z"/>
        <path class="st2" d="M109.5,86.6v-4.7c0-1.8-.4-2.2-.4-2.2h0c1.3,0,2.5,0,2.5,1.4v11.2c0,.7,0,1.3.8,1.3s.7-.3.7-.3h0s-.4,1.3-2.1,1.3-1.8-.4-1.8-1.7v-6.1s.3,0,.3,0Z"/>
        <path class="st2" d="M118.9,84.3c2.5,0,3.6,1.4,3.6,2.8s-2.1,2.7-3.8,2.7-2.1-.6-2.1-.6h0c0,2.4,1.1,3.9,3.1,3.9s3.1-1.1,3.1-1.1h0s-.7,2.5-3.9,2.5-4.5-2.1-4.5-4.9,1.8-5.4,4.6-5.4h-.1ZM118.3,88.7c.8,0,1.8-.4,1.8-1.7s-.4-1.8-1.5-1.8-2.1,2.4-2.1,3.1,1,.4,1.8.4Z"/>
        <path class="st2" d="M125.2,87.3c0-1.1-.3-1.8-.8-2v-.8c.8,0,2.7-1.7,2.9-2.2h.4l-.4,2.2h2.7v.6c0,.8-.4,1-1.1,1h-1.5v3.8c0,1.5,0,3.5,1.7,3.5s2.1-1,2.1-1h0s-.7,2.4-3.1,2.4-2.9-1.5-2.9-3.8v-3.5h.1Z"/>
        <path class="st2" d="M136.5,84.3c2.5,0,3.6,1.4,3.6,2.8s-2.1,2.7-3.8,2.7-2.1-.6-2.1-.6h0c0,2.4,1.1,3.9,3.1,3.9s3.1-1.1,3.1-1.1h0s-.7,2.5-3.9,2.5-4.5-2.1-4.5-4.9,1.8-5.4,4.6-5.4h-.1ZM135.8,88.7c.8,0,1.8-.4,1.8-1.7s-.4-1.8-1.5-1.8-2.1,2.4-2.1,3.1,1,.4,1.8.4Z"/>
        <path class="st2" d="M142.6,87.3c0-1.1-.3-1.8-.8-2v-.8c.8,0,2.7-1.7,2.9-2.2h.4l-.4,2.2h2.7v.6c0,.8-.4,1-1.1,1h-1.5v3.8c0,1.5.1,3.5,1.7,3.5s2.1-1,2.1-1h0s-.7,2.4-3.1,2.4-2.9-1.5-2.9-3.8v-3.5h.1Z"/>
        <path class="st2" d="M149.6,96c.7,0,1.3-.6,1.3-1.3s-1-.4-1-1.7.6-1.3,1.3-1.3,1.5,1,1.5,2-.7,2.8-2.4,2.8-1.4-.7-1.4-.7h.7Z"/>
      </g>
    </g>
    <g class="st1">
      <g class="st1">
        <path class="st2" d="M35.7,112.9v-2.9c0-1.8-.4-2.1-.4-2.1h1c.8,0,1.5.4,1.5,1.1s0,.4,0,.4h0c.4-1,1.8-1.5,3.1-1.5,1.8,0,2.5.7,2.7,1.5h0c.4-1,1.8-1.5,3.1-1.5,2.5,0,2.8,1.4,2.8,2.7v4.3c0,1.7,0,2.1,1,2.1s.7-.3.7-.3h0s-.4,1.3-2.1,1.3-1.8-.4-1.8-1.5v-4.7c0-2,0-2.5-1.7-2.5s-2.1,2.5-2.1,3.3v3.5c0,1.4-.4,1.7-.7,2-.7,0-1.4,0-1.4-1.5v-4.9c0-2,0-2.5-1.7-2.5s-2,1-2,2.7v4.9c0,1.8-.6,1.3-1.3,1.3h-1.4s.4-1.3.4-4.7h.3Z"/>
        <path class="st2" d="M52.7,112.2v-2.4c0-.8,0-1.5-.4-1.8h1c.8,0,1.7.4,1.7,1.3v4.7c0,2,0,2.9,1.7,2.9s2.4-2.4,2.4-4v-3.1c0-1.3-.3-1.8-.3-1.8h1c1,0,1.7.4,1.7,1.3v5.9c0,2.2,0,2,1,2s.7-.3.7-.3h0s-.4,1.3-2.1,1.3-1.5-.4-1.5-1.4,0,0,0,0h0s-.7,1.7-3.1,1.7-3.1-1.5-3.1-3.1v-2.7h-.4v-.4Z"/>
        <path class="st2" d="M64.6,112.9v-2.9c0-1.8-.4-2.1-.4-2.1h1c.8,0,1.5.4,1.5,1.1s0,.4,0,.4h0c.4-1,2-1.7,3.3-1.7,2.5,0,2.8,1.4,2.8,2.8v4.3c0,1.7,0,2.1,1,2.1s.7-.3.7-.3h0s-.4,1.3-2.1,1.3-1.8-.4-1.8-1.5v-4.7c0-2,0-2.7-1.7-2.7s-2.4,1-2.4,2.8v4.9c0,1.8-.6,1.3-1.3,1.3h-1.4s.4-1.3.4-4.7h.3v-.3Z"/>
        <path class="st2" d="M76.5,111.9v-6.7c0-1.8-.4-2.2-.4-2.2h0c1.3,0,2.5,0,2.5,1.4v7.5h0l.3-.3c2.5-2.5,3.1-3.1,3.2-3.8h1.1c.6,0,1,0,1,.4,0,.7-2.1,2-3.8,3.5h0c1,1.3,3.3,4.6,5,5.7h0s-.4.3-1.5.3c-2.7,0-4.5-4.9-5-5h0v3.8c0,1.3-.6,1.3-1.3,1.3h-1.4c.3-.3.4-3.9.4-5.7h-.1Z"/>
        <path class="st2" d="M91.1,111.6h0c0-1.8-.4-2.7-1.8-2.7s-2,.6-2.7,1.1h0c.3-1.3,1.8-2.5,3.6-2.5,2.8,0,3.1,1.7,3.1,3.3v3.6c0,.7,0,2.1,1,2.1s.7-.3.7-.3h0s-.4,1.3-2.1,1.3-1.7-.3-1.7-1.4h0c-.4.8-1.4,1.4-2.7,1.4s-2.5-1.1-2.5-2.7c0-2.8,3.2-3.6,5.3-3.6,0,0-.3.3-.3.3ZM89.4,116.5c.7,0,1.7-.6,1.7-1.4v-2.8c-.8,0-3.1.4-3.1,2.5s.6,1.5,1.3,1.5h.1Z"/>
        <path class="st2" d="M96.7,112.2v-3.5c0-1.8,0-5.4-.4-5.9h0c2.5,0,2.5.8,2.5,3.1s0,2.2-.3,3.2h0c.4-1,2-1.7,3.3-1.7,2.5,0,2.8,1.4,2.8,2.7v4.5c0,1.7,0,2.1,1,2.1s.7-.3.7-.3h0s-.4,1.3-2.1,1.3-1.8-.4-1.8-1.5v-4.9c0-2,0-2.5-1.7-2.5s-2.4,1-2.4,2.8v4.9c0,1.8-.6,1.3-1.3,1.3h-1.4s.4-.4.4-5.4c0,0,.6,0,.6,0Z"/>
        <path class="st2" d="M112.2,107.6c2.5,0,3.6,1.4,3.6,2.8s-2.1,2.7-3.8,2.7-2.1-.6-2.1-.6h0c0,2.4,1.1,3.9,3.1,3.9s3.1-1.1,3.1-1.1h0s-.7,2.5-3.9,2.5-4.5-2.1-4.5-4.9,1.8-5.4,4.6-5.4h-.1ZM111.6,112c.8,0,1.8-.4,1.8-1.7s-.4-1.8-1.5-1.8-2.1,2.4-2.1,3.1,1,.4,1.8.4Z"/>
        <path class="st2" d="M118.5,109.9v-4.7c0-1.8-.3-2.2-.3-2.2h0c1.3,0,2.5,0,2.5,1.4v11.2c0,.7,0,1.3.8,1.3s.7-.3.7-.3h0s-.4,1.3-2.1,1.3-1.8-.4-1.8-1.7v-6.1h.1Z"/>
        <path class="st2" d="M124.3,120.3c1.1,0,2.1-.4,2.8-2l.3-.7c-.7,0-1.4-.6-1.7-1.4-.6-1.8-1.8-5.4-2.5-7,0-.4-.4-.8-.8-1.1h0c.4,0,.8-.3,1.4-.3s1.4.3,1.5.8c.4,1.7,1.7,5.4,2.5,7.5,2.7-7.7,1.7-8.4,3.3-8.4s.8,0,.8,0h0s-.6.4-1,1.8l-2.9,8.1c-1.1,2.9-2.7,4.2-4.2,4.2s-1.1-.7-1.3-2h1.5v.3Z"/>
        <path class="st2" d="M137.6,107.6c2.5,0,3.6,1.4,3.6,2.8s-2.1,2.7-3.8,2.7-2.1-.6-2.1-.6h0c0,2.4,1.1,3.9,3.1,3.9s3.1-1.1,3.1-1.1h0s-.7,2.5-3.9,2.5-4.5-2.1-4.5-4.9,1.8-5.4,4.6-5.4h-.1ZM137,112c.8,0,1.8-.4,1.8-1.7s-.4-1.8-1.5-1.8-2.1,2.4-2.1,3.1,1,.4,1.8.4Z"/>
        <path class="st2" d="M143.9,110.6c0-1.1-.3-1.8-.8-2v-.8c.8,0,2.7-1.7,2.9-2.2h.4l-.4,2.2h2.7v.6c0,.8-.4,1-1.1,1h-1.5v3.8c0,1.5.1,3.5,1.7,3.5s2.1-1,2.1-1h0s-.7,2.4-3.1,2.4-2.9-1.5-2.9-3.8v-3.5h.1Z"/>
      </g>
    </g>
    <g class="st1">
      <g class="st1">
        <path class="st2" d="M62.6,132.3c0-.4-.4-.8-.8-1.1h0c.4,0,.8-.3,1.4-.3s1.4.3,1.5.8c.4,1.7,1.7,5.3,2.5,7.4h0c2.7-7.5,1.7-8.2,3.3-8.2s.8,0,.8,0h0s-.4.4-1,1.8l-2.9,8.1s-2.1,0-2.7-1.7c-.6-1.8-1.8-5.4-2.5-7h.3Z"/>
        <path class="st2" d="M77.6,134.8h0c0-1.8-.4-2.7-1.8-2.7s-2,.6-2.7,1.1h0c.3-1.3,1.8-2.5,3.6-2.5,2.8,0,3.1,1.7,3.1,3.3v3.6c0,.7,0,2.1,1,2.1s.7-.3.7-.3h0s-.4,1.3-2.1,1.3-1.7-.3-1.7-1.4h0c-.4.8-1.4,1.4-2.7,1.4s-2.5-1.1-2.5-2.7c0-2.8,3.2-3.6,5.3-3.6,0,0-.3.3-.3.3ZM74.4,129.5c1.7-.8,2.5-2.8,2.7-3.2,1.1,0,1.5,1,1.5,1-.3,1.3-2.4,2.5-3.6,2.5s-.4,0-.6,0h0v-.3ZM75.8,139.7c.7,0,1.7-.6,1.7-1.4v-2.8c-.8,0-3.1.4-3.1,2.5s.6,1.5,1.3,1.5h.1Z"/>
        <path class="st2" d="M83,133.1v-4.7c0-1.8-.4-2.2-.4-2.2h0c1.3,0,2.5,0,2.5,1.4v11.2c0,.7,0,1.3.8,1.3s.7-.3.7-.3h0s-.4,1.3-2.1,1.3-1.8-.4-1.8-1.7v-6.1s.3,0,.3,0Z"/>
        <path class="st2" d="M88.7,133.8c0-1.1-.3-1.8-.8-2v-.8c.8,0,2.7-1.7,2.9-2.2h.4l-.4,2.2h2.7v.6c0,.8-.4,1-1.1,1h-1.5v3.8c0,1.5,0,3.5,1.7,3.5s2.1-1,2.1-1h0s-.7,2.4-3.1,2.4-2.9-1.5-2.9-3.8v-3.5h.1Z"/>
        <path class="st2" d="M100.5,134.8h0c0-1.8-.4-2.7-1.8-2.7s-2,.6-2.7,1.1h0c.3-1.3,1.8-2.5,3.6-2.5,2.8,0,3.1,1.7,3.1,3.3v3.6c0,.7,0,2.1,1,2.1s.7-.3.7-.3h0s-.4,1.3-2.1,1.3-1.7-.3-1.7-1.4h0c-.4.8-1.4,1.4-2.7,1.4s-2.5-1.1-2.5-2.7c0-2.8,3.2-3.6,5.3-3.6,0,0-.3.3-.3.3ZM98.8,139.7c.7,0,1.7-.6,1.7-1.4v-2.8c-.8,0-3.1.4-3.1,2.5s.6,1.5,1.3,1.5h.1Z"/>
        <path class="st2" d="M106,136v-2.9c0-1.8-.4-2.1-.4-2.1h1c.8,0,1.5.4,1.5,1.1s0,.4,0,.4h0c.4-1,2-1.7,3.3-1.7,2.5,0,2.8,1.4,2.8,2.8v4.3c0,1.7,0,2.1,1,2.1s.7-.3.7-.3h0s-.4,1.3-2.1,1.3-1.8-.4-1.8-1.5v-4.7c0-2,0-2.7-1.7-2.7s-2.4,1-2.4,2.8v4.9c0,1.8-.6,1.3-1.3,1.3h-1.4s.4-1.3.4-4.7h.3v-.3Z"/>
        <path class="st2" d="M117.9,136c0-4.5-.4-5-.4-5h1c.8,0,1.7.4,1.7,1.3v5.9c0,1.5,0,2.1,1,2.1s.7-.3.7-.3h0s-.4,1.3-2.1,1.3-1.8-.4-1.8-1.5v-3.3h0v-.3ZM117.5,127.9c0-.7.6-1.3,1.3-1.3s1.3.6,1.3,1.3-.6,1.3-1.3,1.3-1.3-.6-1.3-1.3Z"/>
      </g>
    </g>
  </g>
</svg>