<?xml version="1.0" encoding="UTF-8"?>
<svg id="Layer_1" xmlns="http://www.w3.org/2000/svg" xmlns:xlink="http://www.w3.org/1999/xlink" version="1.1" viewBox="0 0 200 167">
  <!-- Generator: Adobe Illustrator 29.1.0, SVG Export Plug-In . SVG Version: 2.1.0 Build 142)  -->
  <defs>
    <style>
      .st0 {
        fill: url(#linear-gradient);
      }

      .st1 {
        isolation: isolate;
      }

      .st2 {
        fill: #fff;
      }
    </style>
    <linearGradient id="linear-gradient" x1="93.8" y1="841" x2="108.8" y2="934.4" gradientTransform="translate(0 -798)" gradientUnits="userSpaceOnUse">
      <stop offset="0" stop-color="#9db387"/>
      <stop offset="1" stop-color="#80a067"/>
    </linearGradient>
  </defs>
  <path class="st0" d="M181.7,30.3c16.5,13.6,18.9,42.5,8.2,61.7-10.8,19.4-34.9,29.4-60,42.1-25.3,12.7-51.4,27.9-75.8,23.8-24.4-4.4-47.1-28.3-49.9-52.5-2.9-24.1,14.3-48.7,34.3-63,20.1-14.3,42.7-18.6,69.4-21.5,26.8-2.8,57.2-4.3,73.9,9.5h0Z"/>
  <g class="st1">
    <g class="st1">
      <g class="st1">
        <path class="st2" d="M24.4,88v-.2c-.2-2.1-.8-3.2-2.8-3.1-1.3,0-2.5.9-3.3,1.8h0c.2-1.6,2.2-3.5,4.4-3.7,3.6-.3,4.3,1.7,4.5,4,0,1.4.2,3,.3,4.4v.3c0,1,.3,2.8,1.6,2.7.5,0,.9-.5.9-.5h0s-.5,1.7-2.7,2c-1,0-2.2-.2-2.3-1.5h0c-.5,1-1.6,2.1-3.2,2.3-2.1.2-3.5-1.2-3.7-3-.3-3.7,3.7-5.2,6.3-5.5h-.1.1ZM19.3,81.5c2-1.4,2.9-3.9,3-4.6,1.4,0,2.1,1,2.1,1-.2,1.7-2.8,3.6-4.3,3.8h-.8v-.2ZM22.7,94.6c.8,0,2.2-1,2.1-2,0-1,0-2.3-.3-3.7-1,.2-3.9,1-3.7,3.7,0,1.5,1,2,1.8,1.8h.1v.2Z"/>
        <path class="st2" d="M31.2,85c-.2-2.4-.6-4.6-.8-6.2-.3-2.3-.7-2.8-.7-2.8h0c1.7-.2,3.3,0,3.5,1.4.2,2.5.5,5.2.7,7.8.2,2.2.5,4.5.8,6.8,0,.8.5,1.6,1.3,1.5.5,0,.9-.5.9-.5h0s-.5,1.7-2.7,2c-1.2,0-2.3-.2-2.5-2-.2-2.1-.3-5.2-.7-8.1h.2Z"/>
        <path class="st2" d="M38.6,84.3c-.2-2.4-.6-4.6-.8-6.2-.3-2.3-.7-2.8-.7-2.8h0c1.7-.2,3.2,0,3.5,1.4.2,2.5.5,5.2.7,7.8.2,2.2.5,4.5.8,6.8,0,.8.5,1.6,1.3,1.5.5,0,.9-.5.9-.5h0s-.5,1.7-2.7,2c-1.2,0-2.3-.2-2.5-2-.2-2.1-.3-5.2-.7-8.1h.2Z"/>
        <path class="st2" d="M51.7,85.1v-.2c-.2-2.1-.8-3.2-2.8-3.1-1.3,0-2.5.9-3.3,1.8h0c.2-1.6,2.2-3.5,4.4-3.7,3.6-.3,4.3,1.7,4.5,4,0,1.4.2,3,.3,4.4v.3c0,1,.3,2.8,1.6,2.7.5,0,.9-.5.9-.5h0s-.5,1.7-2.7,2c-1,0-2.2-.2-2.3-1.5h0c-.5,1-1.6,2.1-3.2,2.3-2.1.2-3.5-1.2-3.7-3-.3-3.7,3.7-5.2,6.3-5.5h0,0ZM50.1,91.8c.8,0,2.2-1,2.1-2,0-1,0-2.3-.3-3.7-1,.2-3.9,1-3.7,3.7,0,1.5,1,2,1.8,1.8h0v.2Z"/>
        <path class="st2" d="M59.3,86c0-1.3-.3-2.5-.5-3.8-.3-2.4-.8-2.7-.8-2.7.5,0,.8-.3,1.3-.3,1.2,0,2.1.5,2.1,1.2v.7h0c.3-1.3,2.1-2.3,3.7-2.4,2.4-.2,3.5.6,3.7,1.6h0c.5-1.3,2.2-2.3,3.8-2.4,3.3-.3,3.8,1.4,4,3.1.2,1.8.2,3.6.5,5.7,0,1.2.3,2.7,1.5,2.5.5,0,.9-.5.9-.5h0s-.5,1.7-2.7,2c-1.2,0-2.3-.3-2.4-1.8-.2-2.2-.3-3.7-.6-6.2,0-1.6-.3-3.2-2.4-3.1-2.3.2-2.3,3.5-2.2,4.7,0,0,.5,4.4.5,4.5.2,1.8-.3,2.2-.7,2.8-.9,0-1.8,0-2.1-1.7-.2-2.2-.3-3.8-.6-6.3,0-1.6-.3-3.2-2.5-3.1-1,0-2.4,1.5-2.2,3.7.2,2.3.5,4,.8,6.3,0,1.4-.6,1.8-1.4,1.8h-1.8s.5-1.7,0-6.2h0,0Z"/>
        <path class="st2" d="M79.8,79.1c-.3-.5-.7-1-1.2-1.4h0c.5-.2,1-.5,1.8-.6.8,0,1.8,0,2.1.8.8,2.1,2.9,6.7,4.3,9.3h0c2.4-10.2,1-11,3.2-11.2h1.2s-.6.6-1,2.5l-2.8,11s-2.8.2-3.6-1.8c-.9-2.2-3-6.9-4.2-8.9v.2h.2Z"/>
        <path class="st2" d="M92.7,71.9c0-.9.6-1.8,1.5-1.8s1.8.6,1.8,1.5-.6,1.7-1.5,1.8c-.9,0-1.7-.6-1.8-1.5ZM94.2,82.5c-.6-5.8-1.3-6.5-1.3-6.5.5,0,.8-.3,1.3-.3,1.2,0,2.2.3,2.3,1.4.2,2.7.5,5.8.7,7.6,0,1.2.3,2.7,1.5,2.5.5,0,.9-.5.9-.5h0s-.5,1.7-2.7,2c-1.2,0-2.3-.3-2.4-1.8,0-1.4-.2-2.9-.3-4.4h0Z"/>
        <path class="st2" d="M100.9,87.6v-1c1-1.8,4.3-8.2,5.1-10.3h0c-1.4.3-3.6.6-5.1.7-1,0-1.2-.8-1.4-1.7,0,0,1.3,0,5.3-.2l4.6-.5v.3c0,.3,0,.8-.2,1.3-2.1,3.8-3.9,7.8-5.2,10.2h0c1-.3,3.2-.6,5-.8,1.8-.2,1.8.2,2.2,1.7,0,0-1.6,0-5.8.3l-4.7.5v-.5h.2Z"/>
        <path class="st2" d="M113.3,83.9h0s1.6,1.6,4.2,1.4c1.6,0,2.2-1,2.1-2-.2-2.7-6.8-1.5-7.3-5.9-.2-2.4,2-4,4.3-4.3,1,0,3.8,0,3.9,1,0,.6-.3,1.4-.7,2h0s-1.5-2-3.3-1.7c-1.2,0-1.8,1-1.7,2.1.2,2.5,6.8,1.3,7.3,5.8.2,2.5-2.1,4.2-4.4,4.4-1.6,0-4.4-.2-4.5-1.4,0-.3.2-1,.3-1.4h-.2Z"/>
        <path class="st2" d="M126.4,86.7c.2,1.2,1.2,3.3,4,3.1,1.5,0,3-.9,2.9-2.4-.2-2.2-7,0-7.5-3.7,0-1,.5-2,.9-2.4-2.1-.3-3.2-1.6-3.5-3.7-.2-2.8,1.8-5,5.2-5.3h2.7c1.3-.2,1.5-1.4,1.5-2.9.9,0,1.8,0,2,.9.1,1.3-1.2,2.1-2.3,2.5,1,.7,1.6,1.6,1.8,3.1.2,2.8-1.8,5-5.2,5.3h-1.2c-.2.3-.3.7-.3.9.2,1.8,7.7-.5,8.1,3.9.2,2.4-2.1,4.4-5.7,4.7-3.5.3-5.4-1.5-5.5-2.9,0-1.2,1.2-1.3,2.1-1.4h0v.3ZM131.3,76.8c-.2-2-1.2-3.6-3-3.3-1.4,0-2.3,1.6-2.2,3.3.2,2,1.2,3.6,3,3.3,1.4,0,2.3-1.6,2.2-3.3Z"/>
        <path class="st2" d="M143.2,75.9v-.2c-.2-2.1-.8-3.2-2.8-3.1-1.3,0-2.5.9-3.3,1.8h0c.2-1.6,2.2-3.5,4.4-3.7,3.6-.3,4.3,1.7,4.5,4,.1,1.4.2,3,.3,4.4v.3c.1,1,.3,2.8,1.6,2.7.5,0,.9-.5.9-.5h0s-.5,1.7-2.7,2c-1,0-2.2-.2-2.3-1.5h0c-.5,1-1.6,2.1-3.2,2.3-2.1.2-3.5-1.2-3.7-3-.3-3.7,3.6-5.2,6.3-5.5h-.1.1ZM138.2,69.4c2-1.4,2.9-3.9,3-4.6,1.4,0,2.1,1,2.1,1-.2,1.7-2.8,3.6-4.3,3.8h-.8v-.2h0ZM141.5,82.4c.8,0,2.2-1,2.1-2,0-1-.1-2.3-.3-3.7-1,.2-3.9,1-3.7,3.7.1,1.5,1,2,1.8,1.8h.1v.2Z"/>
        <path class="st2" d="M149.7,82.5c0-.2,0-.7.1-1,1-1.8,4.3-8.2,5.1-10.3h0c-1.4.3-3.6.6-5.1.7-1,0-1.2-.8-1.4-1.7,0,0,1.3,0,5.3-.2l4.6-.5v.3c0,.3,0,.8-.2,1.3-2.1,3.8-3.9,7.8-5.2,10.2h0c1-.3,3.2-.6,5-.8,1.8-.2,1.8.2,2.2,1.7,0,0-1.6,0-5.8.3l-4.7.5v-.5h.1,0Z"/>
        <path class="st2" d="M162.7,75.5c-.1-1.3-.3-2.5-.5-3.8-.3-2.4-.8-2.7-.8-2.7.5,0,.8-.3,1.3-.3,1.2,0,2.1.5,2.1,1.2v.7h0c.5-1.4,2.4-2.4,4.2-2.7,3.3-.3,3.9,1.4,4,3.2.2,1.8.2,3.6.5,5.7.1,1.2.3,2.7,1.5,2.5.5,0,.9-.5.9-.5h0s-.5,1.7-2.7,2c-1.2,0-2.3-.3-2.5-1.8-.2-2.2-.3-3.7-.6-6.2-.2-1.7-.3-3.5-2.5-3.2-1.4,0-2.9,1.5-2.7,3.9.2,2.3.5,3.9.8,6.3.1,1.4-.6,1.8-1.4,1.8h-1.8c.1,0,.5-1.7,0-6.2h.2Z"/>
        <path class="st2" d="M176.4,63.5c0-.9.6-1.8,1.5-1.8s1.8.6,1.8,1.5-.6,1.7-1.5,1.8c-.9,0-1.7-.6-1.8-1.5ZM177.9,74c-.6-5.8-1.3-6.5-1.3-6.5.5,0,.8-.3,1.3-.3,1.2,0,2.2.3,2.3,1.4.2,2.7.5,5.8.7,7.6,0,1.2.3,2.7,1.5,2.5.5,0,.9-.5.9-.5h0s-.5,1.7-2.7,2c-1.2,0-2.3-.3-2.5-1.8-.1-1.4-.2-2.9-.3-4.4,0,0,.1,0,.1,0Z"/>
      </g>
    </g>
  </g>
</svg>