<?xml version="1.0" encoding="UTF-8"?>
<svg id="Layer_1" xmlns="http://www.w3.org/2000/svg" version="1.1" viewBox="0 0 42.8 38.8">
  <!-- Generator: Adobe Illustrator 29.1.0, SVG Export Plug-In . SVG Version: 2.1.0 Build 142)  -->
  <defs>
    <style>
      .st0 {
        fill: #9e6d29;
      }
    </style>
  </defs>
  <path class="st0" d="M8.4,6.7s0,0,0,0h0s0,0,0,0ZM8.9,6.6s0,0,0,0c0,0,0,0,0,0,0,0,0,0,0,0ZM6.6,5.9h0s0,0,0,0c0,0,0,0,0,0ZM6.4,6s0,0,0,0h0s0,0,0,0c0,0,0,0,0,0ZM12.4,6.7s0,0,0,0c0,0,0,0,0,0,0,0,0,0,0,0ZM12.3,6.6s0,0,0,0c0,0,0,0,0,0,0,0,0,0,0,0ZM13.9,7.3h0s0,0,0,0c0,0,0,0,0,0h0s0,0,0,0c0,0,0,0,0,0,0,0,0,0,0,0ZM12.3,6.7s0,0,0,0c0,0,0,0,0,0,0,0,0,0,0,0,0,0,0,0,0,0ZM31.8,27.7s0,0,0,0c0,0,0,0,0,0,0,0,0,0,0,0h0s0,0,0,0c0,0,0,0,0,0ZM5.4,6.4s0,0,0,0c0-.1-.2-.2,0-.3,0-.4.3-.5.6-.6.9-.2,1.7-.3,2.6-.3,3.2,0,6.1.6,9,1.8,5.1,2.1,8.8,5.6,11.6,10.2,1.3,2.1,2.2,4.5,3,6.8.5,1.4.8,2.8,1.2,4.2,0,0,0,.1,0,.2,0,0,0,.1.1.1h0s0,0,0,0c.2-.5.3-1.1.4-1.7,0-.4.1-.8.3-1.1,0-.8.6-1.3,1.3-1.4.6,1.6.3,3.1,0,4.7-.2.6-.3,1.2-.4,1.8-.3,1.4-.3,1.2-1.4,1.6-.2,0-.5.1-.8.1,0,0-.2,0-.3,0-.3,0-.5,0-.6-.3-.5-.5-.9-1.1-1.4-1.6-.2,0-.3-.2-.3-.3-.2,0-.3-.2-.3-.3-.1,0-.2-.1-.3-.2-1.1-.9-2.4-1.7-3.7-2.2-.1,0-.2,0-.3-.1-.1,0-.3-.1-.2-.3,0-.1.1-.2.2-.2.4,0,.8-.3,1.2-.3.2,0,.4,0,.5,0,1.4.4,2.7,1.1,3.9,1.9.1,0,.2.2.3.2.1,0,.2,0,.2-.2-.1,0-.1-.2,0-.4,0-.1-.2-.2-.1-.4,0,0,0,0,0,0,0,0-.1-.2-.1-.3,0,0,0-.2-.1-.2-.3-.9-.6-1.9-.9-2.8-.3-.9-.6-1.7-.9-2.6-.1-.2-.2-.4-.3-.6-1-2.1-2.2-4.1-3.7-5.8-.5-.6-1.1-1.2-1.6-1.9-.2,0-.3-.2-.3-.3-.2,0-.2-.2-.3-.3-.2,0-.2-.2-.3-.3-.1,0-.2,0-.2-.2,0,0,0,0,0,0-.1,0-.2-.1-.3-.2-.4-.3-.8-.7-1.3-1,0,0,0-.2,0-.1.1,0,.2,0,.2,0,0,0,0,0,0-.1-1.4-1-2.8-1.7-4.4-2.4-.1,0-.3-.1-.4-.2-.9-.3-1.8-.6-2.7-.9,0,0,0,0-.1,0,0,0,0,0,0,0,0,0-.1,0-.2,0,0,0-.1,0-.2,0,0,0-.1,0-.2,0,0,0-.1,0-.2,0,0,0-.1,0-.2,0h0c0,0-.1,0-.2,0h0c0,0-.1,0-.2,0h0c0,0-.1,0-.2,0h0c0,0-.1,0-.2,0h0s0,0,0,0h0c0,0-.1,0-.2,0h0c0,0-.1,0-.2,0h0c0,0-.1,0-.2,0-.5,0-1-.1-1.5-.2-.2-.1-.5,0-.8-.1,0,0,0,0,0,0,0,0,0,0,0,.1-.2,0-.4,0-.6,0,0,0-.1,0-.2,0,0,0,.1,0,.2,0,0,0-.1,0-.2,0,0,0-.2,0-.3,0,0,0-.1,0-.2,0,0,0-.1,0-.2,0,0,0,0,0,0,0-.2,0-.4,0-.6,0-.1,0-.3,0-.4,0,0,0-.2,0-.2,0-.5,0-1.1,0-1.6.3,0-.2-.1-.3,0-.5Z"/>
</svg>